<?xml version="1.0" encoding="UTF-8"?>
<svg id="Layer_1" xmlns="http://www.w3.org/2000/svg" version="1.1" viewBox="0 0 144.1 61">
  <!-- Generator: Adobe Illustrator 30.0.0, SVG Export Plug-In . SVG Version: 2.1.1 Build 123)  -->
  <defs>
    <style>
      .st0, .st1 {
        fill: #32529f;
      }

      .st0, .st2, .st3, .st4, .st5 {
        fill-rule: evenodd;
      }

      .st2 {
        fill: #e42320;
      }

      .st3 {
        fill: #bc1818;
      }

      .st4 {
        fill: #314797;
      }

      .st6 {
        fill: #4cac33;
      }

      .st7 {
        fill: #ee7919;
      }

      .st5 {
        fill: #ffcf00;
      }
    </style>
  </defs>
  <path class="st7" d="M82.7,39.5c-1.1-.5-2.6-.8-4.4-.8h-5.4v15.5h5.6c1.9,0,3.4-.3,4.4-.9,1.1-.6,1.8-1.4,2.2-2.6.4-1.1.6-2.6.6-4.4s-.2-3.2-.7-4.3c-.5-1.1-1.3-2-2.3-2.5ZM82.6,47.1c0,.9,0,1.6-.3,2.1-.2.6-.5,1-.8,1.4-.3.3-.7.5-1.2.6-.5,0-1,.1-1.7.1h-2.4v-9.8h2.4c.8,0,1.5,0,2,.2.5.1.9.4,1.2.7.3.3.5.7.6,1.3.1.5.2,1.2.2,2v1.5Z"/>
  <path class="st7" d="M90.8,37.1c-.2,0-.6-.1-1.1-.1s-.9,0-1.1.1c-.2,0-.4.2-.5.4,0,.2-.1.5-.1,1s0,.8.1.9c0,.2.2.3.5.4.2,0,.6.1,1.1.1s.9,0,1.1-.1c.2,0,.4-.2.4-.4,0-.2.1-.5.1-.9s0-.8-.1-1c0-.2-.2-.3-.4-.4Z"/>
  <path class="st7" d="M91.2,41.9h-3.1v12.2h3.1v-12.2Z"/>
  <path class="st7" d="M98.6,41.6c-.9,0-1.7.2-2.5.5-.7.4-1.3.9-1.7,1.5-.4.7-.6,1.5-.6,2.4s.2,1.7.5,2.3c.2.4.5.7.9,1h0c-.4.2-.8.4-1,.8-.2.4-.3.8-.3,1.3,0,.9.3,1.6.9,2,.1,0,.2.2.4.3h0c-.5.1-.9.3-1.2.7-.3.4-.4.9-.4,1.5,0,1.1.4,1.9,1.2,2.6.8.6,2.3.9,4.4.9s2.4-.2,3.2-.5c.8-.3,1.5-.8,1.9-1.4.4-.6.6-1.4.6-2.4s-.3-1.9-1-2.5c-.7-.6-1.6-.9-2.9-.9h-3.6c-.4,0-.7,0-.8-.2-.2-.2-.2-.4-.2-.7v-.2c0-.1,0-.3,0-.5,0,0,0-.2.1-.2.6.2,1.3.3,2.1.3s1.9-.2,2.6-.5c.7-.4,1.2-.8,1.6-1.5.4-.6.6-1.4.6-2.3s-.1-1.4-.4-2l1.9-.3v-2h-4.4c-.6-.2-1.2-.3-1.8-.3h0ZM97.6,54.3h3.1c.4,0,.7,0,.8.2.1.2.2.4.2.8v.4c0,.4,0,.7-.2.9-.1.2-.4.3-.7.4-.3,0-.9.1-1.5.1h-.7c-.7,0-1.2,0-1.5-.1-.3,0-.5-.2-.6-.4-.1-.2-.2-.5-.2-.9v-.3c0-.3,0-.6,0-.8,0-.1,0-.3.1-.4.3,0,.7,0,1.1,0h0ZM100.5,46.7c0,.3,0,.6-.2.8-.1.2-.3.4-.6.5-.3,0-.6.1-1.2.1s-.9,0-1.2-.1c-.3,0-.5-.2-.6-.5-.1-.2-.2-.5-.2-.8v-1.2c0-.4,0-.7.2-.9.1-.2.3-.4.6-.5.3-.1.7-.2,1.2-.2s.9,0,1.1.1c.3,0,.5.3.6.5.1.2.2.5.2.9v1.2h0Z"/>
  <path class="st7" d="M109.7,41.9h-3.1v12.2h3.1v-12.2Z"/>
  <path class="st7" d="M109.3,37.1c-.2,0-.6-.1-1.1-.1s-.9,0-1.1.1c-.2,0-.4.2-.5.4,0,.2-.1.5-.1,1s0,.8.1.9c0,.2.2.3.5.4.2,0,.6.1,1.1.1s.9,0,1.1-.1c.2,0,.4-.2.4-.4,0-.2.1-.5.1-.9s0-.8-.1-1c0-.2-.2-.3-.4-.4Z"/>
  <path class="st7" d="M118.1,51.5c-.5,0-.9,0-1.1-.2-.2-.1-.4-.2-.5-.4,0-.2-.1-.5-.1-.9v-5.5h3.6v-2.6h-3.6v-3.2h-1.1l-2,.8v2.3h-1.6v2.6h1.6v5.3c0,.9.1,1.8.4,2.4.3.7.7,1.2,1.4,1.6.6.4,1.5.6,2.5.6s1,0,1.5-.1c.5,0,.9-.2,1.1-.2v-2.5h-.1c-.6,0-1.2,0-2,0h0Z"/>
  <path class="st7" d="M129.7,42.3c-.9-.4-2.2-.6-3.7-.6s-1.4,0-2,.1c-.6,0-1.2.2-1.7.3v2.5h.2c.3,0,.8,0,1.5-.1.7,0,1.4-.1,2-.1s1.5,0,2,.2c.5.1.8.3,1.1.6.2.3.3.7.3,1.2v.8h0c-.3,0-.8-.2-1.3-.2-.6,0-1.2,0-1.9,0-1.5,0-2.6.3-3.3,1-.7.7-1.1,1.6-1.1,2.8s.3,2.1,1,2.8c.7.7,1.7,1,2.9,1s1.8-.2,2.4-.5c.6-.3,1-.8,1.2-1.5h0l.8,1.7h2.2v-6.9c0-1.3-.2-2.3-.6-3.1-.4-.8-1.1-1.4-2-1.9h0ZM128.1,51.7c-.4.1-.9.2-1.5.2h-.3c-.6,0-1.1,0-1.3-.3s-.4-.5-.4-.9v-.7c0-.4.1-.6.3-.8.2-.2.5-.3.9-.3.8,0,1.4,0,1.8,0,.4,0,.9,0,1.5,0v2.4c-.3.2-.7.4-1.1.5h0Z"/>
  <path class="st7" d="M138,36.8h-3.1v17.3h3.1v-17.3Z"/>
  <path class="st1" d="M73.4,29c-.4-1-.5-2.4-.5-2.9s.1-.5.4-.5c.6,0,2.7,2.2,6.2,2.2s2.9-1,2.9-2.2-1.7-2.1-3.7-2.8c-2.6-.9-5.6-2-5.6-5.5s3.1-5.8,7.2-5.8,5.6,1.9,5.6,2.4-1,2.2-1.5,2.2-1.6-1.1-4-1.1-3.1.8-3.1,2.1,1.5,1.9,3.3,2.5c2.7.9,6.1,1.8,6.1,5.8s-2.6,6.1-7,6.1-5.9-1.6-6.2-2.4h0Z"/>
  <path class="st1" d="M89.6,23.8v-11.4c0-.3.3-.7,2.1-.7s2.1.3,2.1.7v10.6c0,3.1,1.2,4.7,3.8,4.7s3.8-1.6,3.8-4.7v-10.6c0-.3.3-.7,2.1-.7s2.1.3,2.1.7v11.4c0,4.3-2.4,7.6-8.1,7.6s-8.1-3.3-8.1-7.6h0Z"/>
  <path class="st1" d="M109.9,29c-.4-1-.5-2.4-.5-2.9s.1-.5.4-.5c.6,0,2.7,2.2,6.2,2.2s2.9-1,2.9-2.2-1.7-2.1-3.7-2.8c-2.6-.9-5.6-2-5.6-5.5s3.1-5.8,7.2-5.8,5.6,1.9,5.6,2.4-1,2.2-1.5,2.2-1.6-1.1-4-1.1-3.1.8-3.1,2.1,1.5,1.9,3.3,2.5c2.7.9,6.1,1.8,6.1,5.8s-2.6,6.1-7,6.1-5.9-1.6-6.2-2.4h0Z"/>
  <path class="st3" d="M46.2,31.1v8.7h-9.2c4-1.7,7.3-4.8,9.2-8.7Z"/>
  <path class="st4" d="M32.2,39c6.4-1.9,11.5-6.8,13.5-13.2h-13.5v13.2Z"/>
  <path class="st2" d="M36.9,39.8c-1.5.6-3.1,1.1-4.7,1.3v11.3c0,1,.8,1.7,1.7,1.7h10.5c1,0,1.7-.8,1.7-1.7v-12.6h-9.2Z"/>
  <path class="st5" d="M46.2,39.8h12.6c1,0,1.7-.8,1.7-1.7v-10.5c0-1-.8-1.7-1.7-1.7h-10.9c-.3,1.9-.9,3.7-1.8,5.3v8.7Z"/>
  <path class="st6" d="M17.8,27.6c0-1,.8-1.7,1.7-1.7h12.6v13.2c-1.4.4-2.9.7-4.4.8h-8.3c-1,0-1.7-.8-1.7-1.7v-10.5Z"/>
  <path class="st0" d="M32.2,13.2c0-1,.8-1.7,1.7-1.7h10.5c1,0,1.7.8,1.7,1.7v11.2c-.1.5-.3,1-.4,1.4h-13.5v-12.6Z"/>
  <g>
    <path class="st7" d="M8.8,49.9c1,1.8,3.4,2.5,5.2,1.5,1.9-1,2.6-3.4,1.5-5.3-1-1.8-3.5-2.5-5.3-1.4-1.8,1-2.4,3.4-1.4,5.2Z"/>
    <path class="st7" d="M8.8,49.9c1,1.8,3.4,2.5,5.2,1.5,1.9-1,2.6-3.4,1.5-5.3-1-1.8-3.5-2.5-5.3-1.4-1.8,1-2.4,3.4-1.4,5.2Z"/>
    <path class="st7" d="M11.4,32.8c0-1.8-1.4-3.3-3.2-3.3-1.8,0-3.4,1.4-3.4,3.3,0,1.8,1.5,3.4,3.3,3.4,1.8,0,3.3-1.5,3.3-3.3Z"/>
    <path class="st7" d="M11.4,32.8c0-1.8-1.4-3.3-3.2-3.3-1.8,0-3.4,1.4-3.4,3.3,0,1.8,1.5,3.4,3.3,3.4,1.8,0,3.3-1.5,3.3-3.3Z"/>
    <path class="st7" d="M14.5,18.9c.8-1.3.3-3-.9-3.7-1.3-.8-3.1-.4-3.8.9-.8,1.3-.3,3.1,1,3.8,1.3.7,3,.3,3.7-1Z"/>
    <path class="st7" d="M24.4,8.2c1-.6,1.4-1.9.9-3-.6-1.1-2-1.5-3-.9-1,.6-1.4,2-.8,3,.6,1,2,1.4,3,.8Z"/>
    <path class="st7" d="M38.6,3.9c.9,0,1.6-.7,1.7-1.6,0-.9-.7-1.7-1.6-1.7-.9,0-1.7.8-1.7,1.7,0,.9.8,1.6,1.6,1.6Z"/>
  </g>
</svg>