<?xml version="1.0" encoding="UTF-8"?>
<svg id="Layer_1" xmlns="http://www.w3.org/2000/svg" version="1.1" viewBox="0 0 260 288.2">
  <!-- Generator: Adobe Illustrator 30.0.0, SVG Export Plug-In . SVG Version: 2.1.1 Build 123)  -->
  <defs>
    <style>
      .st0 {
        fill-rule: evenodd;
      }

      .st0, .st1 {
        fill: #fff;
      }

      .st2 {
        fill: #205caa;
      }
    </style>
  </defs>
  <path class="st2" d="M124.5,262.2"/>
  <g>
    <g>
      <path class="st1" d="M68.4,62.8c-.9-.4-1.8-.6-1.9-.5.2-.2,1-.7,1.2-.8.6-.5,1.5-1.2,2.1-1.8h-3.9c-1,.9-1.9,1.8-3,2.5l-.2,2.4c1.8,0,4.6.2,4.6,2.6s-1.4,2.3-2.8,2.4c-1.6,0-3.2-1-4.3-2l-.9,3.5h0c2.4,2,6.7,2.3,9.3.5,0,0,.2,0,.3-.2,1.4-1,2.3-2.8,2.2-4.5,0-1-.3-2-1-2.7-.5-.7-1.2-1-1.9-1.4h.2Z"/>
      <path class="st1" d="M70.1,59.1c.7-1,.8-2,.8-3.1h-10.2l-.2.7-.6,2.5h10.2Z"/>
      <g>
        <path class="st0" d="M88.2,50.6c-5.3,0-9.4-3.7-9.4-8.4v-15.8h7.1v16.4c0,2.1,1.8,3.7,4.1,3.7s4.1-1.7,4.1-3.7v-16.4h3.3v15.8c0,4.6-4.1,8.4-9.2,8.4M68.3,41.1l-4.4-1.3c-2.7-.9-4.6-3.6-4.6-6.5s3.1-6.9,6.9-6.9h8.6v3h-6c-1.2,0-2.2.9-2.2,2.2s.5,1.7,1.4,1.9l4.2,1.4c2.8.9,4.4,3.8,4.4,7.2s-3.3,7.7-7.6,7.7h-9.1v-3.5h7.8c1.1,0,2.4-1.1,2.4-2.7s-.8-2.2-1.9-2.6M108.4,41.1l-4.4-1.3c-2.8-.9-4.7-3.6-4.7-6.5s3.1-6.9,6.9-6.9h8.6v3h-6c-1.2,0-2.2.9-2.2,2.2s.5,1.7,1.4,1.9l4.2,1.4c3,.9,4.5,3.8,4.5,7.2s-3.5,7.7-7.7,7.7h-9.1v-3.5h7.8c1.2,0,2.4-1.1,2.4-2.7s-.6-2.2-1.8-2.6"/>
        <path class="st0" d="M172.7,52.2h3v19.2c-.4-2-1.5-13.6-1.3-17.4-.4-.4-1.7-1.8-1.7-1.8M150.2,31.8h0l-3.2-3.3c-4.3,0-18-1.4-22.4-2.2v24.6c22.1,2.2,33.7,2.7,46.6,2.3h.2l-21.2-21.5h0ZM150.4,24.9h24.7V1h-24.7v23.9ZM131.3,26.3c1.6.1,16.1,1.4,17,1.4l22.8,23.2h29.4v-24.6s-69.2,0-69.2,0ZM172.8,54.6s-13.2.9-24.4,0c.2,13.6,1.9,20.6,2.1,22.1h24.5c-1.2-7.2-2.1-18.7-2.2-22"/>
      </g>
      <g>
        <path class="st1" d="M81.3,64.8c-1.3-2.2-3.7-2.8-5.8-4l-2.9-1.5h8.6l.7-3.2h-9l-1.3,6.7,6.6,3.6c.8.6,1.2,1.4,1.3,2.4,0,.9,0,1.9-.6,2.6,1.1-.5,2.1-1.2,2.6-2.4.6-1.3.4-3-.3-4.1"/>
        <path class="st1" d="M78,66.7l-6.2,3.1c0,.2,0,.4.2.5.5.8,1.1,1.6,1.5,2.4h.8c1.5-.2,3.8-.6,4.5-2.2.5-1.2.2-3-.9-3.8"/>
      </g>
      <g>
        <path class="st1" d="M110.1,63.7v-7.6c0,0,0-.2.2-.2h3.3c0,0,.2,0,.2.2v15c0,0,0,.2-.2.2-.3,0-1.4.2-2.4-.2-.6-.2-1.1-.8-1.6-1.3-.4-.5-.8-1-1.3-1.5-.8-1-1.6-2-2.4-3.1-.5-.6-.9-1.3-1.5-1.9,0,0-.3,0-.3,0v7.3c0,.2,0,.3-.2.3-.3.2-3.1.2-3.4,0,0,0-.2-.2-.3-.3h0v-14.7s0-.2,0-.2c1.2-.3,2.2,0,3.1.7,2.4,2.1,4.3,5,6.1,7h0c0,0,.3,0,.3,0"/>
        <path class="st1" d="M131.5,63.7c0,4.4-3.6,8-8,8s-8-3.6-8-8,3.6-8,8-8,8,3.6,8,8M122.9,59.2c-2,.2-2.9,1.7-3,3.6-.2,3.1.7,5.8,4.3,5.4,2.7-.4,2.9-3.7,2.7-5.8-.2-2.2-1.8-3.5-4-3.2"/>
        <path class="st1" d="M99.4,71.4h-4.3c0-.4-.7-2.4-1-2.5h-6.2l-.9,2.5h-4l5.9-14.7c.5-.8,1.8-.7,2.6-.6.8,0,1.4.3,1.8,1l5.9,14.4h.2ZM93,65.5l-1.7-4.8-1.9,4.8h3.6Z"/>
        <path class="st1" d="M142.7,60.1c-1.4-.5-2.9-1.1-4.5-.9-1.5.2-2,1.4-.5,2.2,2.5,1.3,5.5,1.1,5.9,4.9.6,6.3-7.5,7-11,3.4v-3.2s.7.3.7.4c.3,0,.5.3.8.4,1.5.7,3.2,1.2,4.8,1,1,0,.9-1.4.2-1.9-1.9-1.6-5.9-1.5-6.3-5-.7-5.7,6.1-6.9,9.8-4.3v3.1h.1Z"/>
      </g>
    </g>
    <g>
      <g>
        <path class="st1" d="M66.1,122.2v-7.8l-3.2,5.9h-1l-3.2-5.9v7.8h-1.7v-10.9h1.8l3.6,6.7,3.6-6.7h1.8v10.9h-1.7Z"/>
        <path class="st1" d="M73.3,122.2v-10.9h1.7v10.9h-1.7Z"/>
        <path class="st1" d="M82.3,114.5v7.7h-1.7v-10.9h1.4l6.2,7.9v-7.9h1.7v10.9h-1.5l-6.1-7.7Z"/>
        <path class="st1" d="M95.4,122.2v-10.9h1.7v10.9h-1.7Z"/>
        <path class="st1" d="M109.1,113.8c-.2-.3-.6-.5-1.2-.7s-1.1-.4-1.7-.4-1.2,0-1.6.4-.5.6-.5,1.1,0,.3,0,.4,0,.2.2.3l.3.3c0,0,.2.2.4.2s.3,0,.5.2.4,0,.6.2c.2,0,.4,0,.7.2.5,0,.9.2,1.2.3.3,0,.7.3,1,.4.3.2.6.4.8.6.2.2.3.5.5.8,0,.3.2.7.2,1s0,.8-.2,1.2-.3.6-.6.9c-.2.2-.5.4-.9.6s-.7.3-1.1.4c-.4,0-.8,0-1.3,0-.8,0-1.6,0-2.4-.4s-1.5-.6-2.1-1.1l.8-1.5c.3.3.8.6,1.5.9s1.4.5,2.2.5,1.2,0,1.6-.4.6-.6.6-1v-.5c0,0-.2-.3-.3-.4s-.3-.2-.4-.3c0,0-.3-.2-.6-.3s-.5-.2-.7-.2-.5,0-.9-.2c-.6,0-1-.3-1.4-.5s-.7-.3-1-.6c-.3-.2-.5-.5-.6-.8s-.2-.7-.2-1.1,0-1,.3-1.4c.2-.4.5-.8.8-1,.4-.3.8-.5,1.3-.6s1-.2,1.6-.2c1.3,0,2.6.4,3.7,1.2l-.8,1.4h-.3Z"/>
        <path class="st1" d="M123.1,112.8h-3.6v9.4h-1.7v-9.4h-3.6v-1.5h9v1.5h-.1Z"/>
        <path class="st1" d="M135.1,120.6v1.5h-7.5v-10.9h7.3v1.5h-5.6v3.1h4.9v1.4h-4.9v3.3h5.8ZM132,110.1l-1.1-.3.9-1.7h1.6l-1.4,2Z"/>
        <path class="st1" d="M139.9,122.2v-10.9h4.7c.5,0,.9,0,1.4.3s.8.5,1.1.8.5.7.7,1.1.3.9.3,1.3c0,.7-.2,1.4-.6,2s-.9,1-1.5,1.2l2.6,4.1h-1.9l-2.4-3.8h-2.5v3.8h-1.9ZM141.7,116.9h3c.5,0,.9-.2,1.2-.6s.5-.9.5-1.4-.2-1-.5-1.4-.8-.6-1.2-.6h-2.9v4.1h-.1Z"/>
        <path class="st1" d="M153.1,122.2v-10.9h1.7v10.9h-1.7Z"/>
        <path class="st1" d="M159.7,116.7c0-.7.1-1.4.4-2.1.3-.7.6-1.3,1.1-1.8s1-.9,1.7-1.2c.7-.3,1.3-.5,2.1-.5s1.5.2,2.1.5c.7.3,1.2.7,1.7,1.3s.8,1.1,1,1.8c.3.7.4,1.3.4,2s-.1,1.4-.4,2.1c-.3.7-.6,1.3-1.1,1.8s-1,.9-1.7,1.2-1.3.5-2.1.5-1.2,0-1.7-.3c-.5-.2-1-.5-1.5-.8-.4-.4-.8-.8-1.1-1.2s-.5-1-.7-1.5-.2-1.1-.2-1.6v-.2ZM164.9,120.7c.5,0,1,0,1.5-.3.4-.2.8-.5,1.1-.9s.5-.8.7-1.3.2-1,.2-1.4,0-1-.3-1.5c-.2-.5-.4-.9-.7-1.3s-.7-.7-1.1-.9-.9-.3-1.4-.3-1,0-1.5.3c-.4.2-.8.5-1.1.9s-.5.8-.7,1.3-.2,1-.2,1.4.1,1.3.4,1.9c.3.6.7,1.1,1.2,1.5s1.2.6,1.8.6h.1Z"/>
        <path class="st1" d="M181.9,122.2v-10.9h3.9c.9,0,1.6,0,2.3.4s1.2.7,1.7,1.2c.4.5.8,1.1,1,1.7.2.7.3,1.4.3,2.1,0,1.6-.5,3-1.5,4s-2.3,1.5-3.9,1.5h-3.9,0ZM185.7,112.8h-2.2v7.9h2.2c.7,0,1.4-.2,1.9-.5s.9-.8,1.2-1.4.4-1.3.4-2c0-1.2-.3-2.1-.9-2.8s-1.5-1.1-2.6-1.1h0Z"/>
        <path class="st1" d="M198.7,111.3h1.6l4.2,10.9h-1.8l-1.1-3h-4.2l-1.1,3h-1.8l4.3-10.9h0ZM201.2,117.9l-1.8-4.8-1.8,4.8h3.6Z"/>
      </g>
      <g>
        <path class="st1" d="M106.1,136.4s0,0-.2-.1c0,0-.2-.1-.5-.2-.2-.1-.5-.2-.7-.3s-.5-.2-.8-.2-.6-.1-.8-.1c-.6,0-.9.2-.9.5s0,.2,0,.2c0,0,0,.1,0,.2,0,0,0,.1.2.1,0,0,.2,0,.3.1,0,0,.3,0,.4.1,0,0,.3,0,.5.1.2,0,.4.1.5.2.4.1.8.3,1.1.4.3.1.6.3.9.5s.5.4.7.6c.2.2.3.5.4.8s.2.7.2,1.1,0,1-.2,1.4-.4.7-.6,1c-.3.3-.6.5-.9.6-.4.2-.7.3-1.1.4-.4,0-.8.1-1.2.1-.8,0-1.6-.1-2.5-.3s-1.6-.5-2.3-.9l1.3-2.6s0,0,.2.1c0,0,.3.1.5.3s.5.3.8.4.6.2.9.3c.4,0,.7.1,1,.1.6,0,.9-.2.9-.5s0-.2,0-.3c0,0-.2-.2-.4-.3-.2,0-.3-.1-.5-.2s-.4-.1-.7-.2c-.3,0-.5-.2-.7-.2-1-.3-1.7-.7-2.1-1.2s-.6-1.1-.6-1.9,0-1.1.3-1.6c.2-.5.5-.9.9-1.2s.8-.5,1.3-.7,1-.2,1.5-.2c1.2,0,2.5.4,4.1,1.2l-1.3,2.5h0Z"/>
        <path class="st1" d="M114.3,132.8h3.3l3.5,10.9h-3l-.7-2.1h-2.9l-.6,2.1h-3l3.5-10.9h-.1ZM117,139.6l-1-3.8-1,3.8h2Z"/>
        <path class="st1" d="M129.5,143.8c-.7,0-1.3,0-1.8-.3s-1-.4-1.4-.8c-.4-.3-.7-.7-.9-1.2-.3-.5-.4-1-.6-1.5s-.2-1.1-.2-1.7v-5.6h3v5.6c0,.4,0,.7,0,1,0,.3.2.6.3.9.1.3.3.5.6.6s.5.2.9.2.6,0,.9-.2c.3-.2.5-.4.6-.6.1-.3.3-.6.3-.9s.1-.7.1-1v-5.6h3v5.6c0,.8,0,1.5-.3,2.1-.2.6-.5,1.2-.9,1.7s-.9.9-1.5,1.1c-.6.3-1.4.4-2.2.4v.2ZM130.4,132.3l-1.8-.5.8-2.2h2.6l-1.5,2.7h-.1Z"/>
        <path class="st1" d="M139.2,143.7v-10.9h4.2c.9,0,1.7.1,2.4.4s1.3.7,1.7,1.2.8,1.1,1,1.7c.2.7.4,1.4.4,2.1,0,1.6-.5,3-1.5,4s-2.3,1.5-4,1.5h-4.2,0ZM143.4,135.4h-1.2v5.7h1.2c.8,0,1.4-.3,1.8-.8s.7-1.2.7-2.1-.2-1.5-.7-2.1c-.4-.5-1-.8-1.8-.8h0Z"/>
        <path class="st1" d="M161,141.1v2.6h-7.8v-10.9h7.6v2.6h-4.6v1.5h4v2.4h-4v1.7h4.8Z"/>
      </g>
    </g>
  </g>
  <g>
    <path class="st1" d="M139.3,241l9.6,16.1h7.9v-30.4h-17.5v14.3ZM163.7,222.1h-6v35h6c9.6,0,17.5-7.9,17.5-17.5s-7.9-17.5-17.5-17.5M151.3,225.7h5.4v-24.1h-5.4c-6.7,0-12.1,5.4-12.1,12.1s5.4,12.1,12.1,12.1M55.7,202.7v32h20.8l-20.8-32ZM205.1,238.1h18.6v-36.6h-18.6v36.6ZM177.9,201.5h-20.2v19.6h20.2v-19.6ZM224.7,257.1h18.6v-18h-18.6v18ZM205.1,257.1h18.6v-18h-18.6v18ZM182.2,257.1h18.6v-55.6h-18.6v55.6ZM139.3,257.1h8.4l-8.4-14.1v14.1ZM47.2,212.4c0-6-4.9-10.8-10.8-10.8h-4v21.7h4c6,0,10.8-4.9,10.8-10.8M12.8,223.2h18.6v-21.7H12.8v21.7ZM12.8,257.1h18.6v-32.9H12.8v32.9ZM38.3,224.2h-5.9v32.9h5.9c9.1,0,16.4-7.4,16.4-16.4s-7.4-16.4-16.4-16.4M86.4,249.9l-4.3,7.2h8.9s-4.7-7.2-4.7-7.2ZM87,249l5.3,8.1h1.5c.1-5.5,2.4-10.7,6.3-14.6,4-3.9,9.2-6.1,14.8-6.1s10.8,2.2,14.8,6.1c4,3.9,6.2,9.1,6.3,14.6h2.2v-15.8l-23.4-39.3-27.9,47ZM94,218.1c0-9.1-7.4-16.6-16.6-16.6h-21.3l21.5,33.2c9-.1,16.3-7.6,16.3-16.6M114.9,237.5c-5.3,0-10.3,2.1-14.1,5.8-3.8,3.7-5.9,8.6-6,13.9h40.3c-.1-5.2-2.3-10.2-6-13.9-3.8-3.7-8.8-5.8-14.1-5.8M77.1,235.7h-21.4v21.4h25.3l4.8-8.1-8.7-13.3Z"/>
    <path class="st1" d="M27.6,270.3c1.1,0,2,.4,2.8,1.2.7.8,1.1,1.7,1.1,2.9s-.4,2.1-1.1,2.9c-.7.8-1.7,1.2-2.8,1.2h-3.2v-8.1h3.2ZM27.6,277.1c.8,0,1.4-.3,1.9-.8.5-.5.7-1.2.7-2s-.2-1.5-.7-2c-.5-.5-1.1-.8-1.9-.8h-1.9v5.6h1.9Z"/>
    <path class="st1" d="M40.9,277.3c-.8.8-1.8,1.2-3,1.2s-2.2-.4-3-1.2c-.8-.8-1.2-1.8-1.2-3s.4-2.2,1.2-3c.8-.8,1.8-1.2,3-1.2s2.2.4,3,1.2c.8.8,1.2,1.8,1.2,3s-.4,2.2-1.2,3M35.9,276.4c.6.6,1.2.8,2,.8s1.5-.3,2-.8c.6-.6.8-1.2.8-2.1s-.3-1.5-.8-2.1c-.6-.6-1.2-.8-2-.8s-1.5.3-2,.8c-.6.6-.8,1.2-.8,2.1s.3,1.5.8,2.1"/>
    <polygon class="st1" points="50.6 277.1 53.9 277.1 53.9 278.4 49.3 278.4 49.3 270.3 50.6 270.3 50.6 277.1"/>
    <path class="st1" d="M61.9,278.4l-.6-1.6h-3.4l-.6,1.6h-1.4l2.9-8.1h1.6l2.9,8.1h-1.4ZM58.3,275.5h2.6l-1.3-3.7-1.3,3.7Z"/>
    <path class="st1" d="M68.9,270.3c1.1,0,2,.4,2.8,1.2.7.8,1.1,1.7,1.1,2.9s-.4,2.1-1.1,2.9c-.7.8-1.7,1.2-2.8,1.2h-3.2v-8.1h3.2ZM68.9,277.1c.8,0,1.4-.3,1.9-.8.5-.5.7-1.2.7-2s-.2-1.5-.7-2c-.5-.5-1.1-.8-1.9-.8h-1.8v5.6h1.8Z"/>
    <path class="st1" d="M82.2,277.3c-.8.8-1.8,1.2-3,1.2s-2.2-.4-3-1.2c-.8-.8-1.2-1.8-1.2-3s.4-2.2,1.2-3c.8-.8,1.8-1.2,3-1.2s2.2.4,3,1.2c.8.8,1.2,1.8,1.2,3s-.4,2.2-1.2,3M77.2,276.4c.6.6,1.2.8,2,.8s1.5-.3,2-.8c.6-.6.8-1.2.8-2.1s-.3-1.5-.8-2.1c-.6-.6-1.2-.8-2-.8s-1.5.3-2,.8c-.6.6-.8,1.2-.8,2.1s.3,1.5.8,2.1"/>
    <path class="st1" d="M93.8,270.3c1.1,0,2,.4,2.8,1.2.7.8,1.1,1.7,1.1,2.9s-.4,2.1-1.1,2.9c-.7.8-1.7,1.2-2.8,1.2h-3.2v-8.1h3.2ZM93.8,277.1c.8,0,1.4-.3,1.9-.8.5-.5.7-1.2.7-2s-.2-1.5-.7-2c-.5-.5-1.1-.8-1.9-.8h-1.9v5.6h1.9Z"/>
    <path class="st1" d="M107.1,277.3c-.8.8-1.8,1.2-3,1.2s-2.2-.4-3-1.2c-.8-.8-1.2-1.8-1.2-3s.4-2.2,1.2-3c.8-.8,1.8-1.2,3-1.2s2.2.4,3,1.2c.8.8,1.2,1.8,1.2,3s-.4,2.2-1.2,3M102.1,276.4c.6.6,1.2.8,2,.8s1.5-.3,2-.8c.6-.6.8-1.2.8-2.1s-.3-1.5-.8-2.1c-.6-.6-1.2-.8-2-.8s-1.5.3-2,.8c-.6.6-.8,1.2-.8,2.1s.3,1.5.8,2.1"/>
    <path class="st1" d="M118.4,270.3c.8,0,1.4.3,1.9.8.5.5.8,1.1.8,1.9s-.3,1.4-.8,1.9c-.5.5-1.2.8-1.9.8h-1.7v2.8h-1.3v-8.1h3ZM118.4,274.4c.4,0,.7-.1,1-.4.3-.3.4-.6.4-1s-.1-.7-.4-1c-.3-.3-.6-.4-1-.4h-1.7v2.8h1.7Z"/>
    <path class="st1" d="M130.5,277.3c-.8.8-1.8,1.2-3,1.2s-2.2-.4-3-1.2c-.8-.8-1.2-1.8-1.2-3s.4-2.2,1.2-3c.8-.8,1.8-1.2,3-1.2s2.2.4,3,1.2c.8.8,1.2,1.8,1.2,3s-.4,2.2-1.2,3M125.5,276.4c.6.6,1.2.8,2,.8s1.5-.3,2-.8c.6-.6.8-1.2.8-2.1s-.3-1.5-.8-2.1c-.6-.6-1.2-.8-2-.8s-1.5.3-2,.8c-.6.6-.8,1.2-.8,2.1s.3,1.5.8,2.1"/>
    <polygon class="st1" points="136.1 278.4 133.3 270.3 134.8 270.3 136.9 276.8 139.1 270.3 140.5 270.3 137.7 278.4 136.1 278.4"/>
    <path class="st1" d="M149.3,277.3c-.8.8-1.8,1.2-3,1.2s-2.2-.4-3-1.2c-.8-.8-1.2-1.8-1.2-3s.4-2.2,1.2-3c.8-.8,1.8-1.2,3-1.2s2.2.4,3,1.2c.8.8,1.2,1.8,1.2,3s-.4,2.2-1.2,3M144.3,276.4c.6.6,1.2.8,2,.8s1.5-.3,2-.8c.6-.6.8-1.2.8-2.1s-.3-1.5-.8-2.1c-.6-.6-1.2-.8-2-.8s-1.5.3-2,.8c-.6.6-.8,1.2-.8,2.1s.3,1.5.8,2.1"/>
    <path class="st1" d="M162.4,274.2c.4.2.6.4.8.8.2.3.3.7.3,1.1,0,.7-.2,1.2-.7,1.7s-1,.7-1.7.7h-3.5v-8.1h3.2c.7,0,1.2.2,1.7.6.5.4.7,1,.7,1.6s-.3,1.3-.8,1.7M160.9,271.6h-1.9v2.1h1.9c.3,0,.5-.1.7-.3.2-.2.3-.5.3-.8s-.1-.6-.3-.8c-.2-.2-.4-.3-.7-.3M161.1,277.2c.3,0,.6-.1.8-.3.2-.2.3-.5.3-.8s-.1-.6-.3-.8c-.2-.2-.5-.3-.8-.3h-2.1v2.3h2.1Z"/>
    <path class="st1" d="M170.8,278.4l-1.7-2.9h-1.6v2.9h-1.3v-8.1h3.2c.7,0,1.3.3,1.8.8.5.5.8,1.1.8,1.8s-.1,1-.4,1.4c-.3.4-.7.7-1.2.9l1.8,3.1h-1.5ZM167.5,271.6v2.7h1.9c.4,0,.7-.1.9-.4.2-.3.4-.6.4-1s-.1-.7-.4-1c-.2-.3-.5-.4-.9-.4h-1.9Z"/>
    <path class="st1" d="M180.1,278.4l-.6-1.6h-3.4l-.6,1.6h-1.4l2.9-8.1h1.6l2.9,8.1h-1.4ZM176.5,275.5h2.6l-1.3-3.7-1.3,3.7Z"/>
    <path class="st1" d="M186.4,278.6c-.8,0-1.4-.2-2-.5-.5-.4-.9-.8-1.1-1.5l1.1-.7c.3.9,1,1.4,2,1.4s.9,0,1.1-.3c.3-.2.4-.5.4-.8s-.1-.6-.4-.8c-.3-.2-.7-.4-1.4-.6-.4-.1-.7-.3-.9-.3-.2,0-.5-.2-.8-.4-.3-.2-.5-.4-.6-.7-.1-.3-.2-.6-.2-.9,0-.7.3-1.3.8-1.7.5-.4,1.1-.6,1.8-.6s1.2.2,1.7.5c.5.3.9.8,1.1,1.3l-1.1.6c-.3-.8-.9-1.1-1.7-1.1s-.7,0-.9.3c-.2.2-.3.4-.3.7s.1.5.4.7c.2.2.7.3,1.3.5.3.1.5.2.7.3.1,0,.3.1.6.2.3,0,.5.2.6.3.1.1.3.2.4.4.1.2.3.4.3.6,0,.2,0,.4,0,.7,0,.7-.3,1.3-.8,1.7-.5.4-1.2.6-2.1.6"/>
    <rect class="st1" x="191.8" y="270.3" width="1.3" height="8.1"/>
    <polygon class="st1" points="197.6 277.1 200.9 277.1 200.9 278.4 196.3 278.4 196.3 270.3 197.6 270.3 197.6 277.1"/>
    <polygon class="st1" points="204.7 277.1 208.3 277.1 208.3 278.4 203.4 278.4 203.4 270.3 208.2 270.3 208.2 271.6 204.7 271.6 204.7 273.7 208 273.7 208 275 204.7 275 204.7 277.1"/>
    <rect class="st1" x="211" y="270.3" width="1.3" height="8.1"/>
    <path class="st1" d="M220.1,278.4l-1.7-2.9h-1.6v2.9h-1.3v-8.1h3.2c.7,0,1.3.3,1.8.8.5.5.8,1.1.8,1.8s-.1,1-.4,1.4c-.3.4-.7.7-1.2.9l1.8,3.1h-1.5ZM216.8,271.6v2.7h1.9c.4,0,.7-.1.9-.4.2-.3.4-.6.4-1s-.1-.7-.4-1c-.2-.3-.5-.4-.9-.4h-1.9Z"/>
    <path class="st1" d="M230.8,277.3c-.8.8-1.8,1.2-3,1.2s-2.2-.4-3-1.2c-.8-.8-1.2-1.8-1.2-3s.4-2.2,1.2-3c.8-.8,1.8-1.2,3-1.2s2.2.4,3,1.2c.8.8,1.2,1.8,1.2,3s-.4,2.2-1.2,3M225.8,276.4c.6.6,1.2.8,2,.8s1.5-.3,2-.8c.6-.6.8-1.2.8-2.1s-.3-1.5-.8-2.1c-.6-.6-1.2-.8-2-.8s-1.5.3-2,.8c-.6.6-.8,1.2-.8,2.1s.3,1.5.8,2.1"/>
    <path class="st1" d="M73.8,183.4v.8c0,3.3-2.2,5.5-5.2,5.5s-5.6-2.5-5.6-5.6,2.5-5.6,5.6-5.6,3.8,1,4.8,2.7l-2.5,1.5c-.5-.8-1.3-1.3-2.3-1.3-1.6,0-2.7,1.2-2.7,2.8s1.1,2.8,2.7,2.8,1.9-.6,2.1-1.3h-2.9v-2.3h6Z"/>
    <path class="st1" d="M77.4,184.1c0-3.1,2.5-5.6,5.6-5.6s5.6,2.5,5.6,5.6-2.5,5.6-5.6,5.6-5.6-2.5-5.6-5.6M85.5,184.1c0-1.5-1.1-2.6-2.5-2.6s-2.5,1.1-2.5,2.6,1.1,2.6,2.5,2.6,2.5-1.1,2.5-2.6"/>
    <polygon class="st1" points="102.1 178.8 97.9 189.5 95 189.5 90.9 178.8 94 178.8 96.5 185.4 99 178.8 102.1 178.8"/>
    <polygon class="st1" points="108.3 181.4 108.3 183 111.5 183 111.5 185.3 108.3 185.3 108.3 186.8 113.1 186.8 113.1 189.5 105.4 189.5 105.4 178.8 113.1 178.8 113.1 181.4 108.3 181.4"/>
    <path class="st1" d="M121.2,185.8h-1.2v3.7h-2.8v-10.7h5.2c2.1,0,3.7,1.5,3.7,3.5s-.7,2.5-1.9,3.1l2.4,4.1h-3.2l-2.1-3.7ZM120,183.3h2c.7,0,1.1-.5,1.1-1s-.4-1-1.1-1h-2v2Z"/>
    <polygon class="st1" points="139.7 178.8 139.7 189.5 137.2 189.5 132.9 183.8 132.9 189.5 130.1 189.5 130.1 178.8 132.5 178.8 136.8 184.4 136.8 178.8 139.7 178.8"/>
    <path class="st1" d="M143.4,184.1c0-3.1,2.5-5.6,5.6-5.6s5.6,2.5,5.6,5.6-2.5,5.6-5.6,5.6-5.6-2.5-5.6-5.6M151.5,184.1c0-1.5-1.1-2.6-2.5-2.6s-2.5,1.1-2.5,2.6,1.1,2.6,2.5,2.6,2.5-1.1,2.5-2.6"/>
    <path class="st1" d="M178.4,184.1c0,3.1-2.5,5.3-5.7,5.3h-4.4v-10.7h4.4c3.3,0,5.7,2.3,5.7,5.3M175.4,184.1c0-1.6-1.2-2.6-2.9-2.6h-1.3v5.1h1.3c1.7,0,2.9-1,2.9-2.6"/>
    <path class="st1" d="M73.8,183.4v.8c0,3.3-2.2,5.5-5.2,5.5s-5.6-2.5-5.6-5.6,2.5-5.6,5.6-5.6,3.8,1,4.8,2.7l-2.5,1.5c-.5-.8-1.3-1.3-2.3-1.3-1.6,0-2.7,1.2-2.7,2.8s1.1,2.8,2.7,2.8,1.9-.6,2.1-1.3h-2.9v-2.3h6Z"/>
    <path class="st1" d="M77.4,184.1c0-3.1,2.5-5.6,5.6-5.6s5.6,2.5,5.6,5.6-2.5,5.6-5.6,5.6-5.6-2.5-5.6-5.6M85.5,184.1c0-1.5-1.1-2.6-2.5-2.6s-2.5,1.1-2.5,2.6,1.1,2.6,2.5,2.6,2.5-1.1,2.5-2.6"/>
    <polygon class="st1" points="102.1 178.8 97.9 189.5 95 189.5 90.9 178.8 94 178.8 96.5 185.4 99 178.8 102.1 178.8"/>
    <polygon class="st1" points="108.3 181.4 108.3 183 111.5 183 111.5 185.3 108.3 185.3 108.3 186.8 113.1 186.8 113.1 189.5 105.4 189.5 105.4 178.8 113.1 178.8 113.1 181.4 108.3 181.4"/>
    <path class="st1" d="M121.2,185.8h-1.2v3.7h-2.8v-10.7h5.2c2.1,0,3.7,1.5,3.7,3.5s-.7,2.5-1.9,3.1l2.4,4.1h-3.2l-2.1-3.7ZM120,183.3h2c.7,0,1.1-.5,1.1-1s-.4-1-1.1-1h-2v2Z"/>
    <polygon class="st1" points="139.7 178.8 139.7 189.5 137.2 189.5 132.9 183.8 132.9 189.5 130.1 189.5 130.1 178.8 132.5 178.8 136.8 184.4 136.8 178.8 139.7 178.8"/>
    <path class="st1" d="M143.4,184.1c0-3.1,2.5-5.6,5.6-5.6s5.6,2.5,5.6,5.6-2.5,5.6-5.6,5.6-5.6-2.5-5.6-5.6M151.5,184.1c0-1.5-1.1-2.6-2.5-2.6s-2.5,1.1-2.5,2.6,1.1,2.6,2.5,2.6,2.5-1.1,2.5-2.6"/>
    <path class="st1" d="M181,184.1c0-3.1,2.5-5.6,5.6-5.6s5.6,2.5,5.6,5.6-2.5,5.6-5.6,5.6-5.6-2.5-5.6-5.6M189.1,184.1c0-1.5-1.1-2.6-2.5-2.6s-2.5,1.1-2.5,2.6,1.1,2.6,2.5,2.6,2.5-1.1,2.5-2.6"/>
    <path class="st1" d="M178.4,184.1c0,3.1-2.5,5.3-5.7,5.3h-4.4v-10.7h4.4c3.3,0,5.7,2.3,5.7,5.3M175.4,184.1c0-1.6-1.2-2.6-2.9-2.6h-1.3v5.1h1.3c1.7,0,2.9-1,2.9-2.6"/>
  </g>
</svg>