<?xml version="1.0" encoding="UTF-8"?>
<svg id="Layer_1" xmlns="http://www.w3.org/2000/svg" version="1.1" xmlns:xlink="http://www.w3.org/1999/xlink" viewBox="0 0 81 36">
  <!-- Generator: Adobe Illustrator 29.0.0, SVG Export Plug-In . SVG Version: 2.1.0 Build 186)  -->
  <defs>
    <style>
      .st0 {
        clip-path: url(#clippath-6);
      }

      .st1 {
        clip-path: url(#clippath-7);
      }

      .st2 {
        clip-path: url(#clippath-4);
      }

      .st3, .st4 {
        fill: #fff;
      }

      .st4 {
        fill-rule: evenodd;
      }

      .st5 {
        fill: none;
      }

      .st6 {
        clip-path: url(#clippath-1);
      }

      .st7 {
        clip-path: url(#clippath-5);
      }

      .st8 {
        clip-path: url(#clippath-8);
      }

      .st9 {
        clip-path: url(#clippath-3);
      }

      .st10 {
        clip-path: url(#clippath-2);
      }

      .st11 {
        clip-path: url(#clippath);
      }
    </style>
    <clipPath id="clippath">
      <rect class="st5" x="4.7" y="2" width="70" height="31.7"/>
    </clipPath>
    <clipPath id="clippath-1">
      <rect class="st5" x="4.7" y="2" width="70" height="31.7"/>
    </clipPath>
    <clipPath id="clippath-2">
      <rect class="st5" x="4.7" y="2" width="70" height="31.7"/>
    </clipPath>
    <clipPath id="clippath-3">
      <rect class="st5" x="4.7" y="2" width="70" height="31.7"/>
    </clipPath>
    <clipPath id="clippath-4">
      <rect class="st5" x="4.7" y="2" width="70" height="31.7"/>
    </clipPath>
    <clipPath id="clippath-5">
      <rect class="st5" x="4.7" y="2" width="70" height="31.7"/>
    </clipPath>
    <clipPath id="clippath-6">
      <rect class="st5" x="4.7" y="2" width="70" height="31.7"/>
    </clipPath>
    <clipPath id="clippath-7">
      <rect class="st5" x="4.7" y="2" width="70" height="31.7"/>
    </clipPath>
    <clipPath id="clippath-8">
      <rect class="st5" x="4.7" y="2" width="70" height="31.7"/>
    </clipPath>
  </defs>
  <polygon class="st4" points="7.8 13 7.8 18.2 31.4 18.1 31.4 16.9 24.7 10.9 27.9 9.7 34.4 15.6 34.4 21 4.8 21 4.8 15.7 7.8 13"/>
  <g>
    <g class="st11">
      <path class="st4" d="M19.6,2l8.3,7.7,3.4-1.2s-11.7-6.5-11.7-6.5"/>
    </g>
    <g class="st6">
      <polygon class="st4" points="19.7 6.3 24.8 10.9 7.8 16.9 19.7 6.3"/>
    </g>
    <g class="st10">
      <rect class="st3" x="39" y="9.7" width="1.6" height="11.3"/>
    </g>
    <g class="st9">
      <path class="st3" d="M50.8,20.9c-.7.3-1.5.4-2.6.4-1.8,0-3.2-.5-4.3-1.6s-1.6-2.5-1.6-4.3.6-3.1,1.7-4.2c1.1-1.1,2.5-1.6,4.3-1.6s1.8.2,2.5.5v1.6c-.8-.4-1.6-.6-2.4-.6-1.3,0-2.3.4-3.1,1.3-.8.8-1.2,1.9-1.2,3.2s.4,2.4,1.2,3.2c.8.8,1.8,1.2,3,1.2s1.8-.2,2.5-.5v1.4"/>
    </g>
    <g class="st2">
      <rect class="st3" x="52.8" y="9.8" width="1.6" height="11.3"/>
    </g>
    <g class="st7">
      <path class="st3" d="M64.6,20.8c-.7.3-1.5.4-2.6.4-1.8,0-3.2-.5-4.3-1.6s-1.6-2.5-1.6-4.3.6-3.1,1.7-4.2c1.1-1.1,2.5-1.6,4.3-1.6s1.8.2,2.5.5v1.6c-.8-.4-1.6-.6-2.4-.6-1.3,0-2.3.4-3.1,1.3-.8.8-1.2,1.9-1.2,3.2s.4,2.4,1.2,3.2c.8.8,1.8,1.2,3,1.2s1.8-.2,2.5-.5v1.4"/>
    </g>
    <g class="st0">
      <polygon class="st3" points="74.6 11.2 71.1 11.2 71.1 21 69.5 21 69.5 11.2 66 11.2 66 9.7 74.6 9.7 74.6 11.2"/>
    </g>
    <g class="st1">
      <path class="st3" d="M5.2,28.3h-.4v-2.7h.4s0,2.7,0,2.7ZM7.6,28.3h-.4v-1c0-.2,0-.4,0-.5s-.2-.2-.3-.2c-.2,0-.3.1-.4.2s0,.3,0,.6v.9h-.5v-1.9h.3v.3h0c0-.1,0-.2.3-.3,0-.1.2-.1.4-.1.5,0,.7.3.7.8v1.2h0ZM9.2,27.7c0,.2-.1.3-.2.5-.1.1-.3.2-.5.2s-.4,0-.5-.1v-.3c.2,0,.3,0,.5,0s.2,0,.2-.1c.1,0,.1-.1.1-.2s-.1-.2-.2-.3c-.1-.1-.3-.1-.4-.2-.1,0-.2-.2-.2-.3,0-.2.1-.3.2-.5.1-.1.3-.1.5-.1s.3,0,.4.1v.3s-.1,0-.2-.1h-.2c-.1,0-.2,0-.2.1-.1,0-.1.1-.1.2s.1.2.2.3c.1.1.3.1.4.2.2,0,.2.1.2.3M10.8,28.3c-.1,0-.2.1-.3.1-.4,0-.6-.2-.6-.6v-1.1h-.5v-.3h.4v-.5h.4c0-.1,0,.5,0,.5h.5v.3h-.5v1.1c0,.1,0,.2.1.3q.1.1.2.1c.1,0,.2,0,.2-.1v.2h.1ZM11.6,25.9h-.4v-.4h.4v.4ZM11.6,28.3h-.4v-1.9h.4v1.9ZM13.3,28.3c-.1,0-.2.1-.3.1-.4,0-.6-.2-.6-.6v-1.1h-.4v-.3h.4v-.5h.4c0-.1,0,.5,0,.5h.5v.3h-.5v1.1c0,.1,0,.2.1.3,0,0,.1,0,.2,0s.2,0,.2-.1v.4ZM15.5,28.3h-.3v-.3h0c-.1.1-.1.2-.3.3-.1.1-.2.1-.4.1-.5,0-.7-.3-.7-.8v-1.2h.4v1c0,.2,0,.4.1.5s.2.2.3.2c.2,0,.3-.1.4-.2.1-.1.1-.3.1-.6v-.9h.4v1.9ZM17.2,28.3c-.1,0-.2.1-.3.1-.4,0-.6-.2-.6-.6v-1.1h-.4v-.3h.4v-.5h.4c0-.1,0,.5,0,.5h.5v.3h-.5v1.1c0,.1,0,.2.1.3q.1.1.2.1c.1,0,.2,0,.2-.1,0,0,0,.2,0,.2ZM19.5,27.3c0,.3-.1.5-.3.7-.2.2-.4.3-.7.3s-.5-.1-.7-.3c-.2-.2-.3-.4-.3-.7s.1-.5.3-.7c.2-.2.4-.3.7-.3s.5.1.7.3c.2.2.3.4.3.7M19.1,27.3c0-.2-.1-.4-.2-.5s-.3-.2-.4-.2c-.2,0-.3.1-.5.2-.1.1-.2.3-.2.5s0,.4.1.5c.1.2.3.2.5.2s.4-.1.5-.2c.1,0,.2-.3.2-.5M22.7,28.3h-.3v-.3h0c-.1.2-.4.3-.7.3s-.5-.1-.6-.3c-.1-.2-.2-.4-.2-.7s.1-.5.2-.7.4-.3.6-.3c.3,0,.5.1.6.3h0v-1.2h.4v2.9ZM22.4,27.3c0-.2,0-.4-.1-.5-.1-.2-.3-.2-.4-.2-.2,0-.3.1-.4.2s-.1.3-.1.5,0,.3.1.5.2.3.4.3.3-.1.4-.2c0-.2.1-.4.1-.6M25,27.4h-1.4c0,.2.1.3.2.5.1.1.3.2.4.2s.2,0,.4-.1c.1,0,.2-.1.2-.1v.4c-.2.1-.4.1-.6.1-.3,0-.6-.1-.8-.3s-.2-.4-.2-.8.1-.5.3-.7c.2-.2.4-.3.7-.3.5,0,.8.4.8,1.1M24.6,27.1c0-.2,0-.3-.1-.4s-.2-.2-.4-.2-.3.1-.4.2-.1.2-.1.4h1ZM28.4,28.2c-.2.1-.4.1-.6.1-.4,0-.8-.1-1-.4-.3-.3-.4-.6-.4-1s.1-.7.4-1c.3-.2.6-.4,1-.4s.4,0,.6.1v.4c-.2-.1-.4-.2-.6-.2-.3,0-.5.1-.7.3-.2.2-.3.4-.3.7s.1.6.3.8.4.3.7.3.4,0,.6-.1v.4ZM30.7,27.3c0,.3-.1.5-.3.7-.2.2-.4.3-.7.3s-.5-.1-.7-.3c-.2-.2-.3-.4-.3-.7s.1-.5.3-.7c.2-.2.4-.3.7-.3s.5.1.7.3c.2.2.3.4.3.7M30.3,27.3c0-.2-.1-.4-.2-.5s-.3-.2-.4-.2-.3.1-.5.2c-.1.1-.2.3-.2.5s.1.4.1.5c.1.2.3.2.5.2s.4-.1.5-.2c.2,0,.2-.3.2-.5M34,28.3h-.4v-1.2c0-.4,0-.5-.3-.5s-.3.1-.4.2c0,.1,0,.3,0,.5v1h-.4v-1.2c0-.4,0-.5-.3-.5s-.3.1-.4.2-.1.3-.1.5v1h-.4v-1.9h.3v.3h0c.1-.2.3-.3.6-.3s.5.1.6.4c0-.1.2-.2.3-.3,0-.1.2-.1.3-.1.5,0,.7.2.7.7,0,0,0,1.2,0,1.2ZM36.3,28.3h-.3v-.3h0c0,.1,0,.2-.3.3,0,.1-.2.1-.4.1-.5,0-.7-.3-.7-.8v-1.2h.4v1c0,.2,0,.4,0,.5s.2.2.3.2c.2,0,.3-.1.4-.2,0-.1,0-.3,0-.6v-.9h.4v1.9ZM38.7,28.3h-.4v-1c0-.2,0-.4,0-.5s-.2-.2-.3-.2c-.2,0-.3.1-.4.2,0,.1,0,.3,0,.6v.9h-.4v-1.9h.3v.3h0c0-.1,0-.2.3-.3,0-.1.2-.1.4-.1.5,0,.7.3.7.8v1.2ZM39.7,25.9h-.4v-.4h.4v.4ZM39.7,28.3h-.4v-1.9h.4v1.9ZM41.7,28.2c0,.1-.3.1-.5.1-.3,0-.5-.1-.7-.3-.2-.2-.3-.4-.3-.7s0-.5.3-.7.4-.3.7-.3.3,0,.4.1v.3c0-.1-.3-.1-.4-.1-.2,0-.3.1-.5.2,0,.1-.2.3-.2.5s0,.4.2.5c.2.2.3.2.6.2s.3,0,.4-.1v.3ZM43.6,28.3h-.3v-.3h0c0,.2-.3.3-.6.3s-.4-.1-.5-.1c-.2,0-.2-.3-.2-.5s0-.4.3-.5.4-.1.6-.1h.4c0-.2,0-.3,0-.4s-.2-.1-.4-.1-.4.1-.6.2v-.3c.2-.1.4-.2.6-.2.3,0,.5.1.6.2s.2.3.2.6v1.2M43.2,27.5v-.2h-.2c-.5,0-.7.1-.7.4s0,.2,0,.2c0,.1.2.1.2.1.2,0,.3,0,.4-.1.2-.1.2-.2.2-.4M45.5,28.2c0,.1-.3.1-.5.1h0v.2h0,0c0,0,.2,0,.2.1q0,.1,0,.2c0,.1,0,.2-.2.3,0,.1-.2.1-.3.1s-.2,0-.3-.1h0c0-.1.2,0,.2,0,0,0,.2-.1.2-.2s0-.1-.2-.1h-.3c0-.1.2-.4.2-.4-.2,0-.4-.2-.6-.3,0-.2-.2-.4-.2-.7s0-.5.3-.7.4-.3.7-.3.3,0,.4.1v.3c0-.1-.3-.1-.4-.1-.2,0-.3.1-.5.2,0,.1-.2.3-.2.5s0,.4.2.5c0,.2.3.2.5.2s.3,0,.4-.1l.2.2ZM47.5,28.3h-.3v-.3h0c0,.2-.3.3-.6.3s-.4-.1-.5-.1c0-.1-.2-.3-.2-.5s0-.4.3-.5.4-.1.6-.1h.4c0-.2,0-.3,0-.4s-.2-.1-.4-.1-.4.1-.6.2v-.3c.2-.1.4-.2.6-.2.3,0,.5.1.6.2s.2.3.2.6v.8c0,.2,0,.3,0,.4M47.4,25.6c0,.3-.2.4-.4.4s-.2,0-.3-.1-.2-.1-.3-.1-.2,0-.2.2h-.2c0-.3.2-.4.4-.4s.2,0,.3.1.2.1.3.1.2-.1.2-.2h.2ZM47.1,27.5v-.2h-.2c-.5,0-.7.1-.7.4s0,.2,0,.2c0,.1.2.1.2.1.2,0,.3,0,.4-.1,0-.1.2-.2.2-.4M49.9,27.3c0,.3,0,.5-.3.7s-.4.3-.7.3-.5-.1-.7-.3c-.2-.2-.3-.4-.3-.7s0-.5.3-.7.4-.3.7-.3.5.1.7.3c.2.2.3.4.3.7M49.5,27.3c0-.2,0-.4-.2-.5,0-.1-.3-.2-.4-.2s-.3.1-.5.2c0,.1-.2.3-.2.5s0,.4,0,.5c0,.2.3.2.5.2s.4-.1.5-.2c.2,0,.2-.3.2-.5M53.1,27.4h-1.4c0,.2,0,.3.2.5.1.1.3.1.5.1s.2,0,.4-.1c0,0,.2-.1.2-.1v.4c-.2.1-.4.1-.6.1-.3,0-.6-.1-.8-.3-.2-.2-.2-.4-.2-.8s0-.5.3-.7.4-.3.7-.3c.4,0,.7.5.7,1.2M52.7,27.1c0-.2,0-.3,0-.4s-.2-.2-.4-.2-.3.1-.4.2c0,.1,0,.2,0,.4h1ZM55.1,28.3h-.4v-2.7h.4v2.7ZM57.4,28.3h-.4v-1c0-.2,0-.4,0-.5s-.2-.2-.3-.2c-.2,0-.3.1-.4.2,0,.1,0,.3,0,.6v.9h-.4v-1.9h.3v.3h0c0-.1,0-.2.3-.3,0-.1.2-.1.4-.1.5,0,.7.3.7.8v1.2ZM59.2,25.4v.3h-.2c0,0-.2,0-.3.1,0,.1,0,.2,0,.3v.2h.5v.3h-.5v1.7h-.4v-1.7h-.5v-.3h.5v-.2c0-.3,0-.5,0-.6s.3-.2.5-.2c.2.1.3.1.4.1M61.4,27.3c0,.3,0,.5-.3.7s-.4.3-.7.3-.5-.1-.7-.3c-.2-.2-.3-.4-.3-.7s0-.5.3-.7.4-.3.7-.3.5.1.7.3c.2.2.3.4.3.7M61,27.3c0-.2,0-.4-.2-.5,0-.1-.3-.2-.4-.2-.2,0-.3.1-.5.2,0,.1-.2.3-.2.5s0,.4,0,.5c0,.2.3.2.5.2s.4-.1.5-.2c.2,0,.2-.3.2-.5M63,26.6h-.2c-.2,0-.3.1-.4.2,0,.1,0,.3,0,.6v.9h-.4v-1.9h.3v.3h0c0-.1,0-.2.2-.3,0-.1.2-.1.3-.1h.2v.3h.1ZM66.2,28.3h-.4v-1.2c0-.4,0-.5-.3-.5s-.3.1-.4.2c0,.1,0,.3,0,.5v1h-.4v-1.2c0-.4,0-.5-.3-.5s-.3.1-.4.2c0,.1,0,.3,0,.5v1h-.4v-1.9h.3v.3h0c0-.2.3-.3.6-.3s.5.1.6.4c0-.1.2-.2.3-.3,0-.1.2-.1.3-.1.5,0,.7.2.7.7v1.2ZM68.3,28.3h-.3v-.3h0c0,.2-.3.3-.6.3s-.4-.1-.5-.1c0-.1-.2-.3-.2-.5s0-.4.3-.5c.2-.1.4-.1.6-.1h.4c0-.2,0-.3,0-.4s-.2-.1-.4-.1-.4.1-.6.2v-.3c.2-.1.4-.2.6-.2.3,0,.5.1.6.2s.2.3.2.6v1.2M68,27.5v-.2h-.2c-.5,0-.7.1-.7.4s0,.2,0,.2c0,.1.2.1.2.1.2,0,.3,0,.4-.1s.2-.2.2-.4M70.2,28.2c0,.1-.3.1-.5.1h0v.2h0,0c0,0,.2,0,.2.1q0,.1,0,.2c0,.1,0,.2-.2.3,0,.1-.2.1-.3.1s-.2,0-.3-.1h0c0-.1.2,0,.2,0,0,0,.2-.1.2-.2s0-.1-.2-.1h-.3c0-.1.2-.4.2-.4-.2,0-.4-.2-.6-.3,0-.2-.2-.4-.2-.7s0-.5.3-.7c.2-.2.4-.3.7-.3s.3,0,.4.1v.3c0-.1-.3-.1-.4-.1-.2,0-.3.1-.5.2,0,.1-.2.3-.2.5s0,.4.2.5c0,.2.3.2.5.2s.3,0,.4-.1l.2.2ZM72.2,28.3h-.3v-.3h0c0,.2-.3.3-.6.3s-.4-.1-.5-.1c0-.1-.2-.3-.2-.5s0-.4.3-.5c.2-.1.4-.1.6-.1h.4c0-.2,0-.3,0-.4s-.2-.1-.4-.1-.4.1-.6.2v-.3c.2-.1.4-.2.6-.2.3,0,.5.1.6.2s.2.3.2.6v1.2M72.1,25.6c0,.3-.2.4-.4.4s-.2,0-.3-.1c0-.1-.2-.1-.3-.1s-.2,0-.2.2h-.2c0-.3.2-.4.4-.4s.2,0,.3.1c0,.1.2.1.3.1s.2-.1.2-.2h.2ZM71.8,27.5v-.2h-.2c-.5,0-.7.1-.7.4s0,.2,0,.2c0,.1.2.1.2.1.2,0,.3,0,.4-.1.2-.1.2-.2.2-.4M74.6,27.3c0,.3,0,.5-.3.7-.2.2-.4.3-.7.3s-.5-.1-.7-.3c-.2-.2-.3-.4-.3-.7s0-.5.3-.7c.2-.2.4-.3.7-.3s.5.1.7.3c.2.2.3.4.3.7M74.3,27.3c0-.2,0-.4-.2-.5s-.3-.2-.4-.2c-.2,0-.3.1-.5.2,0,.1-.2.3-.2.5s0,.4,0,.5c0,.2.3.2.5.2s.4-.1.5-.2c0,0,.2-.3.2-.5"/>
    </g>
    <g class="st8">
      <path class="st3" d="M6.7,32.8c-.2,0-.4,0-.6,0-.4,0-.8,0-1-.4-.3-.3-.4-.6-.4-1s0-.7.4-1c.3-.2.6-.4,1-.4s.4,0,.6.1v.4c-.2-.1-.4-.1-.6-.1-.3,0-.5.1-.7.3-.2.2-.3.4-.3.7s0,.6.3.8c.2.2.4.3.7.3s.4,0,.6,0v.3ZM7.5,30.5h-.4v-.4h.4v.4ZM7.5,32.8h-.3v-1.9h.4v1.9h0ZM9.8,32h-1.4c0,.2.1.3.2.5.1,0,.3.2.4.2s.2,0,.4,0c.1,0,.2,0,.2,0v.4c-.2,0-.4,0-.6,0-.3,0-.6,0-.8-.3s-.2-.4-.2-.8.1-.5.3-.7.4-.3.7-.3c.5,0,.8.3.8,1.1M9.5,31.7c0-.2,0-.3-.1-.4s-.2-.2-.4-.2-.3.1-.4.2c-.1.1-.1.2-.1.4h1ZM12.1,32.8h-.4v-1c0-.2,0-.4-.1-.5s-.2-.2-.3-.2c-.2,0-.3.1-.4.2-.1.1-.1.3-.1.6v.9h-.4v-1.9h.3v.3h0c.1-.1.1-.2.3-.3.1-.1.2-.1.4-.1.5,0,.7.3.7.8v1.2ZM13.7,32.8c-.1,0-.2,0-.3,0-.4,0-.6-.2-.6-.6v-1.1h-.4v-.3h.4v-.5h.4c0-.1,0,.5,0,.5h.5v.3h-.5v1.1c0,0,0,.2.1.3s.1,0,.2,0,.2,0,.2,0c0,0,0,.2,0,.2ZM14.6,32.8h-.4v-1.9h.4v1.9ZM15,30.1l-.5.5h-.3l.3-.5h.5ZM16.4,30v.3h-.2c-.1,0-.2,0-.3.1,0,.1-.1.2-.1.3v.2h.5v.3h-.5v1.7h-.4v-1.7h-.4v-.3h.5v-.2c0-.3,0-.5.1-.6s.3-.2.5-.2c.1,0,.2,0,.3.1M17.2,30.5h-.4v-.4h.4v.4ZM17.1,32.8h-.4v-1.9h.4v1.9ZM19.1,32.8c-.1,0-.3,0-.5,0-.3,0-.5,0-.7-.3s-.3-.4-.3-.7.1-.5.3-.7c.2-.2.4-.3.7-.3s.3,0,.4.1v.3c-.1-.1-.3-.1-.4-.1-.2,0-.3.1-.5.2-.1.1-.2.3-.2.5s0,.4.2.5c.1.2.3.2.5.2s.3,0,.4,0v.3ZM21,32.8h-.3v-.3h0c-.1.2-.3.3-.6.3s-.4,0-.5,0-.2-.3-.2-.5.1-.4.3-.5c.2-.1.4-.1.6-.1h.4c0-.2,0-.3-.1-.4s-.2-.1-.4-.1-.4.1-.6.2v-.3c.2-.1.4-.2.6-.2.3,0,.5.1.6.2s.2.3.2.6v1.2M20.7,32.1v-.2h-.2c-.5,0-.7.1-.7.4s0,.2.1.2c.1,0,.2,0,.2,0,.2,0,.3,0,.4,0s.2-.3.2-.4M24.3,32h-1.3c0,.2.1.3.2.5.1,0,.3.2.4.2s.2,0,.4,0c.1,0,.2,0,.2,0v.4c-.2,0-.4,0-.6,0-.3,0-.6,0-.8-.3-.2-.2-.2-.4-.2-.8s.1-.5.3-.7c.2-.2.4-.3.7-.3.5,0,.7.3.7,1.1M24,31.7c0-.2,0-.3-.1-.4s-.2-.2-.4-.2-.3.1-.4.2c-.1,0-.1.2-.1.4h1ZM27.7,30.5h-.8v2.3h-.4v-2.3h-.8v-.3h2s0,.3,0,.3ZM29.7,32h-1.4c0,.2.1.3.2.5.1,0,.3.2.4.2s.2,0,.4,0c.1,0,.2,0,.2,0v.4c-.2,0-.4,0-.6,0-.3,0-.6,0-.8-.3-.2-.2-.2-.4-.2-.8s.1-.5.3-.7c.2-.2.4-.3.7-.3.5,0,.8.3.8,1.1M29.3,31.7c0-.2,0-.3-.1-.4s-.2-.2-.4-.2-.3.1-.4.2-.1.2-.1.4h1ZM31.4,32.8c-.1,0-.3,0-.5,0-.3,0-.5,0-.7-.3s-.3-.4-.3-.7.1-.5.3-.7c.2-.2.4-.3.7-.3s.3,0,.4.1v.3c-.1-.1-.3-.1-.4-.1-.2,0-.3.1-.5.2-.1.1-.2.3-.2.5s.1.4.2.5c.1.2.3.2.5.2s.3,0,.4,0v.3ZM33.6,32.8h-.4v-1c0-.2,0-.4,0-.5s-.2-.2-.3-.2c-.2,0-.3.1-.4.2,0,.1,0,.3,0,.6v.9h-.4v-1.9h.3v.3h0c0-.1,0-.2.3-.3,0-.1.2-.1.4-.1.5,0,.7.3.7.8,0,0,0,1.2,0,1.2ZM36.1,31.9c0,.3,0,.5-.3.7-.2.2-.4.3-.7.3s-.5,0-.7-.3-.3-.4-.3-.7,0-.5.3-.7.4-.3.7-.3.5.1.7.3c.2.1.3.4.3.7M35.7,31.9c0-.2,0-.4-.2-.5,0-.1-.3-.2-.4-.2-.2,0-.3.1-.5.2,0,.1-.2.3-.2.5s0,.4,0,.5c0,.2.3.2.5.2s.4,0,.5-.2c.1-.2.2-.3.2-.5M37,32.8h-.4v-2.8h.4v2.8ZM39.5,31.9c0,.3,0,.5-.3.7-.2.2-.4.3-.7.3s-.5,0-.7-.3-.3-.4-.3-.7,0-.5.3-.7.4-.3.7-.3.5.1.7.3c.2.1.3.4.3.7M39.1,31.9c0-.2,0-.4-.2-.5,0-.1-.3-.2-.4-.2-.2,0-.3.1-.5.2,0,.1-.2.3-.2.5s0,.4,0,.5c0,.2.3.2.5.2s.4,0,.5-.2c.1-.2.2-.3.2-.5M39,30.1l-.5.5h-.3l.3-.5h.5ZM41.7,32.8c0,.6-.3.9-1,.9s-.4,0-.7,0v-.3c.3,0,.5.2.7.2s.3,0,.4-.2.2-.3.2-.5v-.2h0c-.2.2-.4.3-.7.3s-.5,0-.6-.3-.2-.4-.2-.7,0-.5.2-.7c.2-.2.4-.3.7-.3s.5.1.6.3h0v-.3h.3v1.9h0ZM41.3,31.9c0-.2,0-.4,0-.5s-.2-.2-.4-.2-.3.1-.4.2c0,.1,0,.3,0,.5s0,.4,0,.5c0,0,.2.2.4.2s.3,0,.4-.2c0-.2,0-.3,0-.5M42.7,30.5h-.4v-.4h.4v.4ZM42.7,32.8h-.4v-1.9h.4v1.9ZM44.7,32.8c0,0-.3,0-.5,0-.3,0-.5,0-.7-.3s-.3-.4-.3-.7,0-.5.3-.7.4-.3.7-.3.3,0,.4.1v.3c0-.1-.3-.1-.4-.1-.2,0-.3.1-.5.2,0,.1-.2.3-.2.5s0,.4.2.5c0,.2.3.2.5.2s.3,0,.4,0v.3ZM46.6,32.8h-.3v-.3h0c0,.2-.3.3-.6.3s-.4,0-.5,0c-.2-.1-.2-.2-.2-.4s0-.4.3-.5.4-.1.6-.1h.4c0-.2,0-.3,0-.4s-.2-.1-.4-.1-.4.1-.6.2v-.3c.2-.1.4-.2.6-.2.3,0,.5.1.6.2s.2.3.2.6v1.1M46.3,32.1v-.2h-.2c-.5,0-.7.1-.7.4s0,.2,0,.2c0,0,.2,0,.2,0,.2,0,.3,0,.4,0,0,0,.2-.3.2-.4M49.9,32h-1.4c0,.2,0,.3.2.5,0,0,.3.2.4.2s.2,0,.4,0c0,0,.2,0,.2,0v.4c-.2,0-.4,0-.6,0-.3,0-.6,0-.8-.3s-.2-.4-.2-.8,0-.5.3-.7.4-.3.7-.3c.5,0,.8.3.8,1.1M49.5,31.7c0-.2,0-.3,0-.4s-.2-.2-.4-.2-.3.1-.4.2c0,.1,0,.2,0,.4h1ZM53.2,32.8h-.4v-1.2c0-.4,0-.5-.3-.5s-.3.1-.4.2c0,.2,0,.4,0,.6v1h-.4v-1.2c0-.4,0-.5-.3-.5s-.3.1-.4.2c0,.1,0,.3,0,.5v1h-.4v-1.9h.3v.3h0c0-.2.3-.3.6-.3s.5.1.6.4c0-.1.2-.2.3-.3,0-.1.2-.1.3-.1.5,0,.7.2.7.7,0,0,0,1.1,0,1.1ZM56.3,32.1c0,.3,0,.5-.3.6s-.4.2-.7.2-.3,0-.5,0v-.4c.2,0,.4,0,.6,0s.2,0,.3,0,.2-.2.2-.3c0-.2,0-.3-.3-.4l-.6-.3c-.2-.1-.3-.3-.3-.6s0-.4.2-.5c.2-.1.4-.2.6-.2s.4,0,.6.1v.4c-.3-.1-.5-.1-.6-.1-.3,0-.5.1-.5.4s0,.3.3.4c.3.2.5.3.6.3.3,0,.4.2.4.5M58.3,32.8h-.3v-.3h0c0,.2-.3.3-.6.3s-.4,0-.5,0-.2-.3-.2-.5,0-.4.3-.5.4-.1.6-.1h.4c0-.2,0-.3,0-.4s-.2-.1-.4-.1-.4.1-.6.2v-.3c.2-.1.4-.2.6-.2.3,0,.5.1.6.2s.2.3.2.6v1.2M58,32.1v-.2h-.2c-.5,0-.7.1-.7.4s0,.2,0,.2c0,0,.2,0,.2,0,.2,0,.3,0,.4,0,0,0,.2-.3.2-.4M60.7,32.8h-.3v-.3h0c0,0,0,.2-.3.3,0,0-.2,0-.4,0-.5,0-.7-.3-.7-.8v-1.2h.4v1c0,.2,0,.4,0,.5s.2.2.3.2c.2,0,.3,0,.4-.2s0-.3,0-.6v-.9h.4v1.9ZM60.3,30.1l-.5.5h-.3l.3-.5h.5ZM63,32.8h-.3v-.3h0c0,.2-.4.3-.7.3s-.5,0-.6-.3-.2-.4-.2-.7,0-.5.2-.7c0-.2.4-.3.6-.3.3,0,.5.1.6.3h0v-1.1h.4v2.8ZM62.6,31.9c0-.2,0-.4,0-.5,0-.2-.3-.2-.4-.2-.2,0-.3.1-.4.2,0,.1,0,.3,0,.5s0,.3,0,.5.2.3.4.3.3,0,.4-.2c0-.3,0-.4,0-.6M65.3,32h-1.4c0,.2,0,.3.2.5,0,0,.3.2.4.2s.2,0,.4,0c0,0,.2,0,.2,0v.4c-.2,0-.4,0-.6,0-.3,0-.6,0-.8-.3s-.2-.4-.2-.8,0-.5.3-.7.4-.3.7-.3c.5,0,.8.3.8,1.1M64.9,31.7c0-.2,0-.3,0-.4s-.2-.2-.4-.2-.3.1-.4.2,0,.2,0,.4h1Z"/>
    </g>
  </g>
</svg>