<?xml version="1.0" encoding="UTF-8"?>
<svg id="Layer_1" xmlns="http://www.w3.org/2000/svg" xmlns:xlink="http://www.w3.org/1999/xlink" version="1.1" viewBox="0 0 292 69">
  <!-- Generator: Adobe Illustrator 30.0.0, SVG Export Plug-In . SVG Version: 2.1.1 Build 123)  -->
  <defs>
    <style>
      .st0 {
        fill: #7b0b05;
      }

      .st1 {
        fill: url(#linear-gradient);
      }

      .st1, .st2, .st3 {
        fill-rule: evenodd;
      }

      .st2 {
        fill: url(#linear-gradient1);
      }

      .st3 {
        fill: url(#linear-gradient2);
      }
    </style>
    <linearGradient id="linear-gradient" x1="1.6" y1="35.9" x2="38.5" y2="35.9" gradientTransform="translate(0 70) scale(1 -1)" gradientUnits="userSpaceOnUse">
      <stop offset="0" stop-color="#b70b08"/>
      <stop offset=".1" stop-color="#b80e08"/>
      <stop offset=".3" stop-color="#bc1308"/>
      <stop offset=".4" stop-color="#c22309"/>
      <stop offset=".6" stop-color="#cb3909"/>
      <stop offset=".7" stop-color="#d6590a"/>
      <stop offset=".8" stop-color="#e3840b"/>
      <stop offset=".9" stop-color="#f3bc0b"/>
      <stop offset="1" stop-color="#fcdf0b"/>
    </linearGradient>
    <linearGradient id="linear-gradient1" x1="31.7" y1="45.1" x2="39" y2="45.1" xlink:href="#linear-gradient"/>
    <linearGradient id="linear-gradient2" x1="35.2" y1="52.2" x2="40" y2="52.2" xlink:href="#linear-gradient"/>
  </defs>
  <path class="st1" d="M38.3,38.2c-.1,0-.3,0-.4,0-.2,0-.5-.2-.7-.3-2-.9-4-1.9-6-2.9,0,0,0,0-.2-.1.2,0,.3,0,.4,0,1.5.4,2.9.8,4.4,1,.6,0,1.1.3,1.5.6,0,0,0,0,0,0,.1,0,.2,0,.3,0,0,0,0-.1,0-.2-.2,0-.3,0-.4-.1-.4-.2-.9-.3-1.3-.4-1.6-.4-3.2-.7-4.9-1.1,0,0,.2,0,.3,0,.4,0,.7,0,1.1.1.6,0,1.2.1,1.8.2.5,0,1,0,1.5,0,.7,0,1.4,0,2,.3,0,0,0,0,0,0,.1,0,.2,0,.2-.2,0-.1,0-.2-.1-.2-.1,0-.2,0-.3,0-1.1,0-2.1,0-3.2-.2-1,0-2.1-.2-3.1-.2,0,0-.2,0-.3,0,0,0,0,0,0,0,.5-.2,1-.5,1.6-.6.2,0,.9-.4,1-.4.2,0,.4-.2.6-.2.4,0,.7-.1,1.1-.3,0,0,.1,0,.2,0,.2,0,.4,0,.5-.2.1-.2.1-.4,0-.6-.1-.2-.3-.2-.5-.2-.2,0-.3.2-.4.4,0,0,0,.1,0,.2h0s0,0,0,0c0,0,0,0,0,0-.2.1-.4.2-.6.3,0,0-.1,0-.2.1-.2.2-.4.3-.7.3,0,0,0,0-.1,0,0,0-.2.1-.3.1-.1,0-.3,0-.4.1-.5.2-.9.4-1.4.5-.3,0-.5.2-.7.4,0,0-.1.1-.2,0,0,0,0,0,0,0,.4-.8.8-1.6,1.2-2.4,0-.2.2-.3.3-.5.1-.2.1-.3-.1-.4,0,0,0,0,0,0,0,0,0,0,0,0,0,0,0,0,0,0,0,.4-.2.7-.4,1-.3.5-.5.9-.7,1.4-.1.2-.2.5-.3.7,0,0,0,0,0,0,0,0,0,0-.1,0-.1.2-.2.4-.1.7,0,0,.2.1.4,0,0,.3.1.5.1.8,0,.3,0,.7-.3,1-.2.2-.3.4-.4.7-.3.7-.7,1.4-1.1,2,0,0-.1.2-.2.2,0,0,0,0,0,0,0,0,0-.1,0-.2,0,0,0-.2,0-.2,0-.6,0-1.2,0-1.8,0-.2,0-.3.2-.4,0,0,0-.1,0-.2,0,0-.2-.1-.3,0,0,0-.1,0,0,.2,0,.1,0,.2,0,.3,0,.2,0,.3,0,.5,0,.5,0,1,0,1.5,0,0,0,.1,0,.2,0,0,0,0,0,0,0,0,0-.2,0-.3,0-.1,0-.2,0-.3-.1-.4-.2-.8-.4-1.2-.2-.5-.3-1.1-.8-1.5,0,0,0-.1,0-.2,0,0,0,0,0-.1,0,0-.1,0-.2-.1,0,0,0,0-.1,0-.2,0-.2.3,0,.4.2.1.4.3.4.5.2.4.3.7.4,1.1-.1,0-.2.2-.3.2,0,0-.2.1-.3.1-.2,0-.3.1-.5.2,0,0,0,0-.1,0,0,0-.2.1-.3.1,0-.1,0-.2-.1-.4,0,0,0,0,0-.1,0,0,0,0,0,0,0,0,0,0,0,0,0-.1,0-.2-.1-.4,0-.3,0-.6,0-.9,0-.1,0-.3,0-.4,0,0,0-.1-.1-.2,0,0,0,0,0,.1-.2-.2-.4-.4-.6-.6,0,0,0,0,0,0h0c0,0-.1-.1-.2-.2,0,0,0,0,0,0,0,0,0,0,0,0-.1-.2,0-.4.2-.5,0,0,.2,0,.3,0s.2,0,.3-.1c-.1,0-.2,0-.3,0,0,0,0,0,0-.1,0-.2-.2-.2-.3,0,0,0,0,0-.2,0-.1,0-.2,0-.2-.1,0,0,.1,0,.2,0,.2,0,.2,0,.1-.2,0,0,0,0,0,0,.1,0,.3,0,.4-.2,0,0-.2,0-.2,0-.1,0-.3,0-.4-.2,0-.1,0-.2,0-.3,0,0,0-.1.1-.2,0,0,0-.1,0-.1,0,0-.1,0-.2,0,0,0-.1,0-.2.1-.1.1-.3.2-.5.1-.2,0-.2-.1,0-.3.2-.2.3-.4.5-.6,0,0,0-.2,0-.3,0,0-.1-.1-.2-.1,0,0-.1,0-.2,0-.2,0-.3,0-.2-.3,0,0,0,0,0-.1,0-.1,0-.2-.2-.2,0,0-.1,0-.2,0-.1,0-.2,0-.2-.1,0-.1,0-.2,0-.3,0,0,0-.2-.1-.2-.1,0-.1,0-.2.1,0,.2,0,.3-.1.5,0,.2,0,.2-.3.2,0-.1,0-.2,0-.3,0-.2,0-.3.1-.4,0,0,.2-.2.2-.3,0,0-.1-.1-.2-.2,0,0-.1.1-.2.2,0-.1,0-.3,0-.4,0,0-.1-.2-.2-.3-.1,0-.2.1-.2.2,0,.1-.1.2-.3.2,0,0-.1,0-.2,0-.2,0-.3,0-.3-.3,0-.1,0-.2,0-.4,0-.2-.1-.3-.3-.3,0,.3.2.5.1.8-.2-.1-.2-.4-.5-.3,0-.1-.1-.3-.2-.4-.2.1-.3.2-.5.3-.1-.1-.2-.3-.4-.4-.2-.1-.3-.3-.4-.5,0-.2-.2-.4-.2-.6,0-.4,0-.8-.2-1.2,0-.3,0-.5.2-.7.2-.1.3-.3.5-.4.2-.1.4-.2.4-.4,0-.2.3-.3.5-.3,0,0,0,0,.1,0,0-.2.1-.3.3-.3.2,0,.4-.2.5-.3.2-.2.5-.3.8-.2,0,0,.1,0,.1-.1,0-.1,0-.2-.1-.3,0,0-.2,0-.3,0,0,0-.1,0-.2.1-.3.2-.6.4-1,.6-.2.1-.3,0-.4-.2,0,0,0,0,0-.1,0-.1,0-.2-.2-.3,0,0,0,0,0,.1,0,.2,0,.4,0,.6,0,.2,0,.3-.2.3-.1,0-.2,0-.3,0-.2-.1-.4-.2-.7-.4,0,0,0-.1,0-.2,0,0,0,0,.1-.1.1,0,.2-.2.4-.3.1,0,.1-.3.3-.3,0,0,0,0,0-.1,0,0,0-.1.1-.2,0,0,.1,0,.2.1,0,.1.2.1.4,0,.5-.1,1.1-.2,1.6-.3.5,0,1,0,1.5-.2.5,0,1.1-.2,1.6-.4.2,0,.3-.1.5-.1,0,0,0,0,0,.1,0,.3.2.6.5.7.3,0,.7-.1.8-.4,0-.1,0-.3,0-.4-.1-.1-.2-.2-.4-.3-.2-.1-.4-.1-.6,0,0,0-.2.1-.3.1-.8.2-1.6.4-2.4.5-.7.1-1.5.2-2.3.3,0,0-.1,0-.2,0,0,0,0,0,0,0,0,0,.1-.1.2-.2.3-.2.7-.5,1-.7.8-.4,1.6-.9,2.4-1.3.6-.3,1.2-.5,1.9-.4.2,0,.2,0,.3-.2,0-.2,0-.4-.1-.4-.2-.1-.4,0-.4.2,0,.2,0,.2-.3.2,0,0-.2,0-.3,0-.5,0-.9.2-1.4.5-.5.3-1.1.6-1.6.9-.5.3-1.1.6-1.5,1.1,0,0,0,0,0,0,0,0,0,0,0-.1.4-.5.9-1,1.4-1.5.3-.2.5-.5.7-.7.2-.2.3-.4.6-.5.1,0,.1-.1,0-.2,0,0,0-.1-.1-.2,0-.1-.2-.1-.4,0-.1,0-.1.1,0,.3,0,.2,0,.3,0,.4,0,0-.1.2-.2.2-.3.3-.7.6-1,1-.4.4-.8.8-1.1,1.3,0,0,0,0,0,0,0,0-.2,0-.2,0,0,0-.1,0-.2-.1,0,0,0,.1-.1.2,0,0,0,0,0-.1,0-.2,0-.4,0-.5,0-.3.1-.5.4-.6,0,0,0,.2.2.2,0,0,0-.1,0-.2.1-.4.4-.8.8-1.1.2-.2.5-.4.7-.5.2-.2.4-.3.7-.2,0,0,0,0,0,0,.1,0,.2-.1.1-.3-.1-.2-.3-.2-.5,0-.3.2-.6.5-.8.7-.2.1-.4.3-.5.4,0,0,0,0-.1.1,0-.2,0-.3,0-.4.2-.5.3-1,.5-1.5.1-.3.2-.6.2-.9,0-.4.1-.8.5-1,0,0,0-.2,0-.2,0,0,0,0-.1,0-.3-.2-.4-.2-.4.2,0,.2,0,.3,0,.5,0,.5,0,.9-.2,1.3-.3.8-.6,1.6-.8,2.5,0,.2-.1.3-.4.3-.3,0-.3,0-.3-.3,0,0,0,0,0,0,0-.3,0-.7.2-.9.4-.6.6-1.2.8-1.8,0,0,0,0,0-.1,0,0-.1,0-.2,0-.2,0-.3,0-.2.3,0,.3,0,.6-.1.9-.1.2-.2.5-.4.7,0,0,0,.1-.2.1,0,0,0,0,0,0,0-.7-.1-1.4-.4-2.1,0-.1,0-.3,0-.4,0-.3,0-.3-.2-.3-.2,0-.3,0-.3.2,0,.1,0,.2.1.3.2.2.4.5.4.9,0,.5,0,1,.2,1.6,0,.5-.2.9-.5,1.2,0,0,0,0,0-.1,0-.3-.2-.6-.4-.8,0-.1,0-.1,0-.2.2-.2.2-.3,0-.5,0,0-.1,0-.2,0-.2,0-.3-.2-.4-.3,0,0,0-.2-.1-.2-.3-.7-.6-1.4-1-2,0-.1-.2-.3-.2-.5,0,0,0-.2,0-.3,0-.1,0-.2,0-.3,0-.3-.5-.6-.8-.6-.1,0-.2,0-.3,0-.3.2-.4.6-.3.9.2.3.5.4.9.3,0,0,.1,0,.2,0,0,0,0,0,0,0,.6.9,1,1.9,1.5,2.9,0,.2,0,.3,0,.4-.2.2-.4.4-.6.6,0,0,0,0,0,0,0-.3,0-.7-.2-1,0-.3-.2-.5-.2-.8,0,0,0,0,0-.1,0,0,0,0-.1,0,0,0-.1,0-.2,0,0,0,0,.2,0,.2.3.5.5,1.1.5,1.8,0,.1,0,.2-.1.3-.2.2-.4.3-.6.5,0,0,0,0,0,0-.2-.3-.3-.7-.3-1,0-.3,0-.6-.1-.9,0-.2,0-.3-.3-.3,0,0-.2,0-.2-.1-.1-.3-.3-.5-.2-.9,0,0,0-.1,0-.2,0,0-.1-.1-.2-.2-.1,0-.1,0-.1.1,0,0,0,0,0,0,0,.2,0,.2,0,.3,0,0,.1,0,.1.2.2.6.4,1.1.7,1.6.1.4.3.7.4,1.1,0,.4,0,.7-.3.9,0,0,0,0,0,0-.1.1-.2.1-.3,0-.4-.2-.7-.6-.6-1,0,0,0-.1,0-.2,0-.1,0-.2-.2-.2-.3,0-.3,0-.4-.3,0-.2-.1-.5-.2-.7-.3-.9-.6-1.8-.8-2.6-.1-.4-.1-.8.1-1.2.1-.1,0-.2-.1-.3-.1,0-.2,0-.4,0-.3,0-.3,0-.2.3,0,0,0,.1,0,.2,0,.2.1.5.2.7,0,0,0,0,0,.1-.1,0-.3,0-.4.1.3.3.2.6.2.9,0,.2,0,.3,0,.5-.2.1-.1.4-.3.6-.2-.3-.4-.5-.5-.8-.1-.2-.2-.5-.2-.7,0,0,0-.1,0-.2,0-.1-.1-.2-.2-.2-.1,0-.2,0-.3.1,0,0,0,0,0,0-.1.2,0,.2,0,.3.2,0,.3.2.4.4,0,.1,0,.3.1.4.1.2.3.5.5.7.2.2.2.4.2.6,0,.3-.1.6-.2.9,0,0,0,0,0,.1-.3-.2-.7-.3-1-.5-.4-.2-.9-.5-1.3-.7,0,0-.2-.1-.2-.2,0,0,.2-.2.2-.2.1-.2.2-.4,0-.6-.2-.3-.4-.4-.7-.5-.1,0-.3,0-.3.1,0,0,0,.2-.1.2,0,.2-.1.4-.2.6,0,0,0,.1.1.2.1,0,.2.1.4.2v.2c0,.8,0,1.7.3,2.5.1.4.2.9.3,1.3,0,.2,0,.2-.2.3-.4.1-.8.3-1.2.5,0,0-.2,0-.2,0,0,0,0,0-.1,0-.6-.4-1.1-.9-1.6-1.5-.5-.5-1-1-1.6-1.4,0,0-.2-.1-.3-.2-.3,0-.4,0-.4.3,0,0,0,.1,0,.2,0,0,0,.1.1.2,0,0,.1,0,.1-.1.1-.1.3-.2.4,0,.3.2.7.4.9.7.3.3.6.6.9.9.3.3.7.6,1,.9.1.1.1.1,0,.2q-.2.2,0,.4s0,0,0,0c.1.1.2.1.3,0,.2-.1.3-.1.5,0,.3.3.5.6.8.9,0,0,0,.1,0,.2-.2.1-.4.1-.5.1-.3,0-.7,0-1-.1,0,0-.1,0-.2,0-.2,0-.4,0-.5-.2-.6-.5-1.2-1.1-1.8-1.6,0,0-.1,0-.2-.1,0,0-.2,0-.2.1,0,0,0,.2.1.2.4.1.7.4,1,.7,0,0,0,0,0,.1,0,0,0,0,0,0-.5,0-.8.5-.6.9,0,.3.3.4.6.5.3,0,.6,0,.8-.3,0,0,0-.1.1-.2,0,0,.2,0,.2.2.2.3.4.6.7.8.3.2.5.5.8.7.1,0,.1.2,0,.3-.2.3-.5.4-.8.2-.1,0-.2-.2-.4-.2-.4-.2-.7-.4-1.1-.6,0,0,0,0,0,0-.3-.2-.5-.4-.8-.7,0-.1-.2-.2-.3-.4,0,0-.1-.1-.2-.1,0,0-.2.1-.2.2,0,0,0,0,0,0,.1,0,.2.1.2.2.1.1.3.2.4.4.2.1.3.2.5.3.1,0,.2.2.3.3,0,0,.1.2.2.2.3.2.6.4.9.5,0,0,0,0,.1.1-.2.2-.4.2-.6,0-.2,0-.3-.1-.5-.2-.1,0-.3,0-.4,0,0,.1.1.2.2.2,0,0,.2,0,.3.1,0,0,.1,0,.2.1-.1,0-.2,0-.3.1-.4.1-.8.2-1.2.2,0,0-.2,0-.2,0,0,0,0,.2,0,.3,0,0,0,0,.1.1.2.1.2.1.4,0,0,0,0,0,0-.1,0,0,0-.1.2-.1.3,0,.7-.2,1-.3.3-.1.6,0,.8.1.1,0,.3.1.4.2,0,0,0,0,0,0,0,0-.2,0-.2,0-.2,0-.1.3,0,.4.2,0,.4.3.5.5,0,0-.2,0-.3,0-.2,0-.5,0-.7,0-.7,0-1.3,0-2-.2-.7-.3-1.4-.5-2.2-.7-.4-.1-.8-.3-1.1-.6,0-.1-.1-.1-.3,0,0,0-.2.1-.2.2-.1.2,0,.3.2.4,0,0,.2,0,.3,0,.3,0,.6.1.9.2.7.2,1.3.4,2,.6,0,0,.1,0,.2,0,0,0,0,.1-.1.2,0,.1,0,.2,0,.3,0,0,.2,0,.3,0,0-.1.2-.1.3-.1.5,0,1,0,1.4.3.2.1.5.2.7.2.1,0,.2,0,.3.1,0,0-.1,0-.2,0-.3,0-.5,0-.8,0-1.3,0-2.5,0-3.8,0h0c0-.1,0-.2-.1-.3,0,0,0,0-.1-.1,0,0,.1,0,.2,0-.1-.1-.2-.2-.4-.3-.1,0-.2-.1-.4,0,0,0-.1,0-.1,0,0,.1-.1.1-.2.2-.3.1-.4.5-.4.7,0,.3.2.5.5.6.3,0,.7,0,.8-.4,0,0,0-.1,0-.2,0,0,0,0,.1,0,.2,0,.5,0,.7,0,.8,0,1.6,0,2.4,0,.6,0,1.1,0,1.7,0,0,0,.2,0,.3,0-.1,0-.2,0-.3.1-.7.2-1.4.5-2.1.7-.5.1-1,.1-1.4,0,0,0-.1,0-.2,0-.1,0-.2,0-.2.2,0,.1,0,.2.2.2.2,0,.4,0,.6,0,0,0,.2,0,.3,0,0,0-.2.1-.2.1-.4.2-.7.4-1.1.5-.4.2-.8.3-1.2.3-.3,0-.7,0-1,.1,0,0-.2,0-.2.1,0,.2,0,.3.3.3,0,0,.1,0,.2,0,.2,0,.4,0,.6,0,.2.2.4.2.6.3,0,0,.1,0,.2,0,.7.1,1.3.2,2,.3.2,0,.4,0,.5,0,0,.2-.2.2-.4.2-.3,0-.4.2-.3.4,0,.1.2.2.4.2.2,0,.2-.1.2-.3,0,0,0-.2.2-.2.2,0,.5-.2.7-.2.1,0,.3,0,.4,0,0,0,0,0,0,0-.2.3-.3.6-.4.9,0,.2-.1.3-.3.3-.2,0-.4,0-.7,0-.5,0-1.1,0-1.6,0-.8,0-1.5,0-2.3-.4-.1,0-.2,0-.3.1,0,.1,0,.2,0,.3,0,0,.2.1.3,0,.2-.1.4,0,.6,0,.5.1,1,.2,1.6.2.2,0,.4,0,.6.3,0,.1.1.1.2,0,.2-.2.4-.2.6-.2.2,0,.4,0,.5,0,0,0,.1,0,.2,0,.1,0,.2,0,.2.2,0,.1,0,.2,0,.3,0,.2,0,.2-.3.2,0,0-.2,0-.2,0-.2,0-.2,0-.2.3,0,.1,0,.2-.2.2-.1,0-.2,0-.3,0-.4.1-.9.2-1.3,0-.1,0-.2,0-.3,0,0,0,0,.2,0,.3,0,0,0,0,0,.1.1.1.1.1.3,0,.1-.1.3-.2.5-.2.2,0,.5,0,.7,0,.2,0,.5-.1.7-.2,0,0,.1,0,.2,0,0,0,0,0,0,0,0,.2,0,.3,0,.4.1.1.2,0,.4,0,0,0,0,0,.1,0,0,0,.1,0,.1-.2,0-.1,0-.2,0-.3,0,0,0-.1,0-.2.4,0,.7-.2,1.1-.3,0,0,0,0-.1.1-.3.2-.5.5-.8.7-.4.3-.8.6-1.4.7,0,0-.2,0-.2.1,0,0-.3.2-.2.3,0,.2.2.2.3.3,0,0,0,0,0,0,0,0,.1,0,.2,0,0,0,0,0,0-.1,0-.2.3-.4.5-.5.3-.2.6-.4.9-.6.4-.3.7-.6,1-.9,0,0,.2-.1.3-.1.1.3.1.4-.1.6,0,0-.1,0-.2.1-.2.1-.4.2-.6.4-.5.3-.9.7-1.4,1.1-.3.2-.6.4-.8.7-.1.1-.3.2-.5.2-.1-.1-.2-.2-.4-.3-.2-.1-.4-.2-.7,0-.3.2-.4.5-.4.8,0,.3.4.5.7.5.4,0,.7-.3.7-.6,0-.1,0-.2.1-.2.6-.3,1-.6,1.5-1,.3-.3.7-.6,1.1-.9.3-.3.7-.4,1.2-.5.2,0,.4,0,.5,0,0,0,0,0,0,0-.3.5-.5,1-.7,1.6,0,.1,0,.2-.2.2-.3.1-.5.3-.8.4,0,0-.1,0,0,.2,0,0,0,.1.2.1,0,0,.1,0,.2-.1.1,0,.2-.2.3-.3,0,0,.1,0,.2,0-.1.2-.2.4-.4.6-.2.2-1,.7-1.3.8-.5.1-1,.2-1.5.3-.6.1-1.2.2-1.8.1,0,0,0,0-.1,0-.1,0-.2.1-.3.2,0,0,0,.1,0,.2.1,0,.2,0,.3,0,0,0,0,0,0,0,.2-.2.5-.2.8-.2.2,0,.4,0,.6,0,.2,0,.4,0,.6-.1,1.1-.2,2.3-.5,3.4-1,.1,0,.2,0,.3,0,0,0,0,0,0,0,0,.3,0,.6,0,1,0,0,0,.1-.1.2-.1,0-.3.2-.4.3-.2.1-.3.3-.5.4-.2.1-.4.2-.6.1-.2,0-.5,0-.6.2,0,0,0,.1,0,.2,0,0,.2.2.3.2.1,0,.2-.1.2-.2,0,0,0,0,0,0,0,0,.1-.1.2,0,0,0,.1,0,.1,0,.2-.1.4-.3.7-.4.1,0,.3-.1.4-.2,0,0,.2-.2.3-.2,0,0,0,.1,0,.2,0,.1,0,.2,0,.3,0,.3,0,.4-.3.6,0,0-.2,0-.1.2,0,0,.1.1.2.1s.2,0,.2.1c0,.1,0,.1.3,0,0,0,0,0,.1,0,.1,0,.2-.1.2-.3,0,0,0-.2,0-.2,0-.3.3-.5.6-.5,0,0,0,.1,0,.2,0,.1-.2.3-.2.4-.1.2-.3.4-.4.7,0,0,0,0-.1.1,0,0,0,0,0,.1,0,.2-.2.4-.4.5-.2.2-.4.3-.6.5,0,0,0,0-.1,0-.3.1-.5.5-.4.8,0,.3.4.4.7.4.4,0,.7-.5.3-.9,0,0,0-.1,0-.2,0-.2.1-.3.2-.5.2-.2.4-.4.5-.7.2-.3.3-.5.5-.8,0-.1.1-.3.2-.4,0-.1.1-.3.2-.4,0,0,0,0,.1-.2,0-.1.2-.2.3-.2.1,0,.2,0,.3.1,0,0,0,.2,0,.2,0,0,0,0,0,.1,0,0,0,.1,0,.2,0,0,.1,0,.2,0,0,0,.2,0,.3-.1.1,0,.1-.1,0-.3,0,0-.1-.2-.2-.2.1,0,.2-.1.4-.1,0,0,.1,0,.1.1,0,.1,0,.3,0,.4,0,.2,0,.4-.2.5-.3.3-.6.5-1,.5-.3,0-.3.1-.2.4,0,0,0,0,0,0,.4-.3.9-.5,1.3-.8,0,.1,0,.3,0,.4,0,.3-.1.5-.2.7,0,.2-.2.3-.3.5,0,0,0,.1,0,.2,0,0,0,.2.2.3.1,0,.1,0,.2,0,0,0,.2-.2.3-.3.1-.1.3-.3.3-.5,0,0,0,0,0-.1.1,0,.2-.2.4-.3,0,0,.1,0,.2-.2,0,.3.2.5.3.7.1.3.2.6.4.9,0,.2,0,.3,0,.4-.2.3-.4.5-.7.8-.6.7-1.2,1.3-1.9,1.9-.2.1-.3.3-.6.2-.1,0-.2,0-.2.2,0,.1,0,.2.2.3,0,0,.2,0,.2,0,.2,0,.4,0,.5-.2.1-.2.2-.4.4-.6.4-.5.9-.9,1.3-1.4.3-.4.6-.7.9-1.1,0,0,0-.1.2,0,0,0,.1.2,0,.3,0,0,0,0,0,.1,0,0,0,.1,0,.1,0,.1.2.2.3.3.1,0,.2,0,.2-.1,0,0,0,0,0,0,.1-.1.1-.2,0-.4,0,0-.2-.2-.3-.3-.1,0-.1-.1,0-.2.1-.1.2-.3.4-.4,0-.1.2-.2.3-.4,0,0,0,0,.1,0,0,0,.2.1.3.2,0,0,0,0,0,0,0,0,0,0,.1,0,0,.1,0,.2,0,.3-.1.3-.3.5-.4.8-.3.6-.5,1.2-.8,1.8-.1.3-.3.6-.7.8,0,0-.1,0-.2.1-.1.2,0,.4.1.4.1,0,.2,0,.3,0,0-.1,0-.2,0-.3,0-.2,0-.3.2-.5.3-.2.4-.6.6-.9.4-.8.7-1.6,1.1-2.5,0,0,0-.1,0-.2h0c0,.1,0,.3,0,.4.1,0,.2,0,.3-.1,0,.2,0,.3,0,.4,0,.5,0,1,0,1.5,0,.6,0,1.2.1,1.7,0,.5,0,.9-.5,1.2-.1,0,0,.2,0,.3.1.2.3.2.5.2.3,0,.4-.2.2-.4,0,0,0,0,0,0,0-.1,0-.2,0-.3,0,0,0,0,.1,0,1.1-.7,2.3-1.5,3.4-2.2,0,0,.2,0,.3,0,.1.1.3.2.5.3.1,0,.3.1.4.2.1,0,.2.1.2.3,0,.1,0,.2.2.2.3,0,.4,0,.4-.3,0,0,0,0,0,0,0-.2,0-.3-.2-.3,0,0-.2,0-.2,0-.4,0-.7-.2-1-.5.3-.4.9-.5,1.3-.8,0,.2.1.3.2.5,0,.2.1.4.2.6.2.3.1.6,0,.9,0,0-.1.2-.2.3,0,.1-.2.2-.3.4-.3.5-.7,1-1.1,1.5,0,0,0,0-.1.1,0,0-.1,0-.2,0-.1,0-.3,0-.4,0-.2,0-.4.3-.4.6,0,.2.1.4.3.5.3.1.5,0,.7-.1.2-.2.2-.4,0-.6,0,0,0-.1,0-.2,0,0,0,0,.1-.1.4-.4.7-.8,1-1.2.2-.3.3-.5.5-.7,0,0,0,0,.1-.1,0,0,0,.2.1.3,0,0,0-.1,0-.1,0-.2,0-.3,0-.5,0-.2,0-.3.3-.4,0-.5.3-.9.6-1.2.1,0,0,.2.1.3,0,.2,0,.3.1.5,0,0,0,.2,0,.2,0,.2,0,.3,0,.4-.1.2-.1.2,0,.4,0,0,.1.2,0,.3,0,.3-.1.6-.2.9,0,0,0,.1,0,.2,0,0,.2,0,.4,0,.1,0,0-.1,0-.2,0-.2-.1-.5,0-.7,0-.3.2-.6.3-.9,0,0,0,0,0,0,0,0,0,.1,0,.2,0,.4,0,.7,0,1.1,0,.7,0,1.3,0,2,0,.3,0,.7,0,1,0,.3.1.5.4.4,0,0,0,0,0,0,.2,0,.3-.2.1-.4-.3-.4-.4-.8-.4-1.3,0-.1,0-.3,0-.4,0-.7,0-1.4-.1-2,0-.2,0-.4,0-.6.3.2.5.5.8.6,0,0,0,0,0-.1.1-.2,0-.3-.2-.4,0,0-.1,0-.2,0-.2,0-.3,0-.5-.2-.1,0-.2-.2-.2-.3,0-.4.3-.8.4-1.2,0,0,0,0,0,0,.3.5.7,1,1,1.6.2.3.4.6.7.9.1,0,.1.1,0,.3,0,.1,0,.2,0,.2,0,0,.1,0,.2,0,.2,0,.3-.2.1-.4,0,0-.2-.2-.3-.2-.3-.2-.5-.5-.6-.8-.2-.5-.5-1-.9-1.5,0,0-.2-.2-.2-.3,0-.1-.1-.2,0-.4,0,0,0,0,0,0,.4.5.9.9,1.4,1.3,0,0,.1,0,.2,0,0,0,0-.1,0-.2,0-.2,0-.3-.2-.3-.4,0-.7-.2-1-.5-.2-.2-.4-.5-.6-.7,0,0,0,0,0,0,.2,0,.3,0,.5,0,.5.1,1.1.2,1.6.4,0,0,.1,0,.2,0,.2,0,.3.2.3.5s0,.1,0,.2c.1.3.2.7.4,1,.1.3.2.5.3.8,0,.2.1.3.4.2,0,0,.1,0,.2,0,.2-.1.2-.3,0-.4-.4-.2-.6-.5-.7-1,0-.3-.2-.6-.2-1,0,0,0,0,0-.1,0,0,.1,0,.2,0,.6.3,1.2.5,1.6.9.1.1.3,0,.3,0,0-.1,0-.2,0-.3,0-.2-.1-.2-.3-.2-.1,0-.2,0-.4,0-.4-.2-.8-.4-1.2-.6,0,0,0,0,0,0-.3-.2-.5-.4-.5-.8,0,0,0-.1,0-.2,0-.2-.2-.4-.2-.6,0-.1,0-.2,0-.4,0-.1.1-.2,0-.3,0-.1-.2,0-.3,0,0,0,0,0,0,0,0,0-.2,0-.2,0-.1-.2-.3-.5-.4-.7,0,0-.1-.2-.2-.3.4,0,.8.1,1.2.2.2,0,.4.1.6.2,0,0,0,.1,0,.2,0,.2,0,.3-.2.5,0,0,0,.1,0,.2,0,0,0,.1.2,0,.2,0,.2,0,.2-.2,0-.2,0-.4,0-.6.3.2.5.3.7.5.5.3.9.7,1.2,1.1,0,0,0,.1,0,.2,0,.4.4.7.8.6.4,0,.7-.5.3-.9,0,0-.1-.1-.2-.2-.2-.1-.4-.1-.6,0,0,0,0,0-.1,0,0,0,0,0,0-.1-.6-.6-1.2-1.1-1.8-1.5,0,0,0,0-.1,0-.2-.2-.2-.2,0-.4,0,0,.1,0,.2-.1,0,0-.1-.2-.2-.2,0,0-.2-.1-.3-.2,0-.1,0-.2,0-.4.2,0,.3,0,.5,0,.1,0,.2,0,.2-.2,0,0,0,0,0-.1.4.3.7.6,1.1.9,0,0,.1.2.1.3,0,0,0,0,0,.1,0,.1.1.2.2.1.1,0,.2-.1.2-.3,0-.1,0-.2-.2-.2-.1,0-.2,0-.3-.1-.4-.3-.7-.6-1.1-.9,0,0,0,0,0-.1.2,0,.3,0,.4,0,0,0,.2,0,.3.1.1,0,.2,0,.3,0,0-.1,0-.1,0-.2,0,0,0,0,0,0,0-.1-.1-.2-.3-.1-.2,0-.3,0-.5,0-.1,0-.2,0-.3,0-.1,0-.2,0-.3-.1,0,0-.2-.2-.3-.2,0,0,0,0-.1,0,0,.1.2.2.3.3h-.2c0,0,0-.2-.2-.2,0,0,0,.1,0,.2-.2,0-.3,0-.5,0,0,0,.1,0,.2-.1,0,0,0,0,.1,0,0,0,0,0,0-.1.1,0,.2-.1.3-.2,0,0,0,0,.1.1.7-.3,1.5-.6,2.2-.8,0,.3,0,.5,0,.7,0,.2,0,.3-.2.4,0,0,0,.1,0,.2,0,0,.2.1.3,0,.1,0,.2,0,.2-.2,0-.1,0-.3,0-.4,0-.3,0-.6,0-.8,0,0,0-.1.1-.2.4-.1.7-.3,1.1-.4.2,0,.3,0,.5,0,0,0,.1,0,.1,0,.2.4.5.7.7,1.1,0,.1,0,.2,0,.3-.2.3,0,.7.3.8.3.1.8,0,.9-.4,0-.1,0-.2,0-.3-.1-.2-.3-.4-.6-.4,0,0-.1,0-.2-.1-.2-.2-.3-.5-.5-.7,0-.1-.2-.2,0-.4,0,0,0-.2,0-.3,0,0-.1,0-.2,0,0,0,0,0,0,0,0,0,0,0,0-.1-.2-.3-.4-.7-.6-1-.2-.3-.2-.3,0-.5,0,0,0,0,0,0,0,0,.2-.1.3-.1,0,0,0,0,.1,0,.1,0,.2,0,.3-.1,0,0,0-.2,0-.3,0,0,0,0,0-.1.3.2.6.3.9.4.3.2.7.3,1,.5.6.3,1.2.5,1.8.8.4.2.9.3,1.3.6,0,0,.1,0,.2,0,0,0,.2,0,.2,0,0,0,0-.1,0-.2,0,0-.1,0-.2,0ZM8.2,27.5c-.3-.4-.7-.5-.9-.9.5,0,.9.5.9.9ZM6.3,37.8q0-.1.2-.1t-.2.1ZM29.1,41.1s0,0,0,0c-.1,0-.2.2-.4.3,0-.1,0-.2,0-.3.2,0,.3,0,.4,0ZM26.7,41c0,0,.2,0,.3,0,.2,0,.2.1,0,.3-.1.2-.2.4-.4.5,0,0-.1,0-.2,0,.1,0,.2-.2.2-.4,0-.1,0-.3,0-.4ZM24.8,44.8s0,0,0,0c-.1.2-.2.4-.4.6-.1.2-.3.2-.5.1-.2-.1-.2-.3,0-.5.2-.2.4-.3.6-.5.1,0,0,.3.3.3h0s0,0,0,0c0,0,0,0,0-.1q0,0,0,.1s0,0,0,0ZM22.9,44.7c-.1,0-.2-.2-.2-.3,0-.1,0-.2.2-.3.1,0,.2,0,.3-.1,0,0,.1,0,.1,0,0,.2.1.4.2.7,0,.2,0,.3-.1.4,0-.1-.1-.2-.2-.3,0,0-.1-.2-.3-.2ZM23.1,45.4c-.1,0-.1-.1,0-.2,0,0,0,0,0,0,0,0,0,.1,0,.2ZM12.8,42.8c.1,0,.3,0,.4.1,0,.2-.2.2-.3.3,0,0,0,0,0,0,0,0-.1,0-.1-.1,0-.1,0-.2,0-.3ZM12.9,42c0,0,.2,0,.2,0,0,.2,0,.4.1.6,0,0,0,0,0,0-.1,0-.2,0-.3-.2-.2-.1-.1-.4,0-.5ZM13.1,41s0,0,0-.1c0-.2,0-.2-.1-.2,0,0,0,0,0,0,0-.2.2-.2.3-.1,0,0,0,0,0,0,.2.3.2.6.2.9-.2-.1-.3-.3-.3-.5ZM13.3,41.9c0,0,0-.2.2-.2,0,0,.1,0,.3,0,0,.1,0,.2,0,.3,0,.3,0,.3.2.5,0,0-.2.2-.3.3,0,0-.1-.1-.2-.2-.1-.2-.1-.4-.1-.7ZM13.5,40.8c0,0,0-.2-.1-.2,0-.2-.2-.4-.5-.4,0-.1,0-.2-.1-.4,0,0,.2,0,.2,0,0,0,.2,0,.2,0,0,0,.2.1.3,0,.2,0,.5,0,.7,0,.2,0,.3,0,.5,0,.2,0,.4,0,.6,0,.1,0,.2,0,.4,0,.1,0,.2.1.3.2,0,0,0,.2,0,.2-.1,0-.3.1-.4.2-.3.1-.7.2-1,.4-.1,0-.2.1-.4,0,0,0,0,0,0,0,0-.2,0-.4,0-.6,0-.1,0-.2-.2-.3,0,.3,0,.5,0,.8-.2,0-.3-.1-.4-.3ZM9.7,42c0-.2,0-.3,0-.5,0-.2,0-.4.3-.4.2,0,.3-.1.5-.2.2.2,0,.4,0,.6,0,0,.1,0,.2,0,0,.1-.2.2-.3.3,0,0,0-.1,0-.2-.3,0-.3.3-.6.4ZM10.5,40.1c.1.3,0,.5-.3.6-.1,0-.3,0-.4.1,0-.3.2-.6.7-.8ZM10.5,39.8c-.2.2-.4.3-.6.4,0,0,0,0,0,0,0-.2,0-.3,0-.5,0-.2.3-.4.5-.4,0,0,0,0,.1,0,0,.1,0,.3,0,.4ZM9.8,36.7c.1-.2.2-.3.4-.3,0,0,0-.1,0-.2,0,0,0,0,.1-.1.2.2.2.2.3,0,0,0,0-.2,0-.3,0,.1,0,.2,0,.3,0,0,0,0,0,.1,0,.3-.3.6-.4.9,0,.1-.1.1-.2,0,0,0,0,0,0,0,0-.1.2-.2.2-.3h-.5ZM9.1,36.2c0-.2,0-.3.2-.3.1,0,.2,0,.4-.1,0,.2,0,.2-.2.3-.1,0-.3,0-.4.1ZM9.4,37c0,0-.2,0-.2.1,0,0,0,0,0,0,0-.1.1-.1.3,0ZM8.9,33.2s0,0,0,0c0,0,0,.2,0,.3-.1,0,0-.2-.1-.3ZM8.9,33c-.1,0-.2,0-.2-.2,0,0,0-.2.2-.2.1,0,.2,0,.2.2,0,0,0,.1-.1.1ZM8.8,34.9c-.3,0-.7,0-1-.1.4-.2.8-.3,1.2-.5,0,.1,0,.3,0,.4,0,.2,0,.2-.2.2ZM9,30.3c0,0,0-.1,0-.2.2.1.4,0,.6.2-.1,0-.2.1-.4.2,0,0-.1,0-.2,0ZM8.8,29c0-.2,0-.4-.1-.6.4.2.6.7.5,1-.2,0-.3-.2-.4-.4ZM8.7,30.5s0,0-.1,0c0,0-.2-.1-.2-.2,0,0,0,0,0-.1,0,0,0,0,0-.1,0-.1.2-.1.3,0,0,0,0,0,0,0,0,.1,0,.3,0,.4,0,0,0,0,0,0ZM9.6,26.5c0-.3,0-.3.3-.3,0,.2.1.5,0,.7-.2,0-.4,0-.7-.1-.2,0-.2-.1,0-.3,0,0,0,0,0,0,0,0,.1.1.2.2,0,0,0,.1.2.1,0,0,0-.1,0-.2ZM11.8,23.9c0,0-.1,0-.2,0,0,0-.2,0-.3,0,0,0,0,0,0,0,0,0,0,0,.1,0,.2,0,.4-.1.7-.2.2,0,.5,0,.7-.1,0,.1,0,.2-.2.3-.1,0-.3.2-.4.3,0,0-.1,0-.1.1,0,0,0,0,0,0-.2.4-.5.8-.9,1,0,0,0,0-.1,0,0,0-.2,0-.2,0,0,0,0,0-.1-.1-.1.3-.3.5-.6.5,0-.3-.1-.5-.2-.8,0-.3-.1-.5,0-.7.4,0,.7,0,1.1,0,0,.2,0,.4,0,.6,0-.3.1-.5.4-.6.2,0,.4,0,.6-.1,0,0-.1-.2-.2-.2ZM14.4,24.5c.2.1.3.3.4.5,0,.1,0,.2,0,.3-.2.1-.4.2-.7.2-.3,0-.7,0-1-.2-.2-.1-.3-.2-.3-.4,0-.3,0-.5.4-.7,0,0,0,0,0-.1,0-.1,0-.1.2-.2.1,0,.3-.1.4-.2.3,0,.4.2.3.5,0,0,.1.1.2.2ZM16.8,25.2c0,.2,0,.4-.1.5-.1-.2-.1-.4.1-.5ZM16.9,25c0,0,.1-.1.2-.2,0,0,0,0,0,0,0,0,0,.1-.1.2,0,0,0,0,0,0ZM17.8,26c0,0,.1-.1.2-.2.1.1.2.2.3.4,0,.1,0,.2,0,.3,0,0-.2.2-.3.3-.2.1-.4.3-.6.4-.2-.2-.3-.4-.5-.6,0-.1,0-.2,0-.3.2-.2.4-.3.5-.5.1,0,.2-.2.4-.3,0,.2-.2.3,0,.5ZM18.8,30.6c.2,0,.2.2.2.3,0,0,0,.1,0,.2,0,0-.1,0-.2,0-.3-.4-.6-.8-.9-1.3,0,0,0,0-.1-.1,0,0,0,0,0,0,0,.4.3.7.4,1.1-.3-.1-.4-.4-.7-.5,0,0,0,.1,0,.2,0,0,0,0,0,.2-.5,0-.9-.2-1.2-.5,0,0,0,0,0,0,.3-.2.5-.5.7-.8.2-.3.4-.6.6-.9,0,0,0-.1.2-.2,0,0,0,.1.1.2,0,0,0,.1.1.2.2.4.5.9.7,1.3,0,.2.1.3,0,.5,0,.1,0,.2.1.2ZM19.4,38.1h0s0,0,0,0c0,0,0,0,0,0,0,.2,0,.4-.1.5,0,0,0,.2,0,.2,0,.2-.1.4-.3.6,0,0-.2.2-.3.2,0,0-.2,0-.2,0-.1-.1-.2-.2-.3-.3-.3-.2-.5-.5-.8-.7-.1-.1-.3-.3-.4-.4,0,0,0-.1.1-.2,0,0,0,0,.1-.1,0-.1.2-.2.3-.2.2,0,.4-.1.6-.2,0,0,0,0,0,0,.1,0,.2,0,.3,0,.2-.2.3-.3.5-.5,0,.2,0,.3-.2.4,0,0,0,0,0,0,0,0,0,0,0,.2,0,0,.1,0,.2,0,0,0,.2-.1.3-.2,0,0,0,0,0,0,.1.1,0,.2,0,.4.2,0,.3.2.3.3ZM22.2,39.3c0,.2.2.4.3.6.1.2.2.4.3.6-.1,0-.3.2-.4.2-.3.2-.5.3-.8.5,0-.2,0-.3,0-.5.1-.5.3-1.1.5-1.6,0,0,0,.1,0,.2ZM23.4,37.2s0,0,0,0c0,0,0,0,.1,0,0,.2,0,.4,0,.5,0,0,0,.2,0,.3,0,.3,0,.6,0,.9,0,.2,0,.3-.2.5,0-.2-.1-.4-.2-.6,0-.1,0-.2-.1-.3-.2-.1-.2-.3,0-.5.1-.2.3-.4.4-.7ZM23.2,35.8c.2,0,.3,0,.3.3-.2,0-.2-.1-.3-.3ZM23.6,38.1c0-.2,0-.3.2-.4.1-.1.3-.2.4-.4,0,0,0,.1,0,.2,0,.2.1.4.3.6.2.3.3.6.5.9,0,.1,0,.2-.2.3-.2.1-.5.3-.7.4,0,0,0,0-.1,0-.1.2-.3.3-.5.2,0,0,0-.2,0-.2,0,0,0,0,0,0,0-.3.2-.6.3-.9,0-.2,0-.4,0-.5,0-.1,0-.2,0-.3ZM24.5,42.2c-.1,0-.2,0-.4,0,.2-.2.3,0,.4,0,0,0,0,0,0,0ZM25.2,42.3c.1,0,.2,0,.4,0,0,0,0,0,0,0,0,0-.1.1-.2.2-.1,0-.2.2-.4.2-.2.1-.4.2-.7.3,0-.2-.2-.4-.3-.7.4,0,.8,0,1.1-.1ZM24.1,43.1s0,0,0,0c-.2-.2-.3-.4-.5-.6,0,0,0,0,0,0,.1,0,.2,0,.2,0,0,.2.1.4.2.5ZM23.7,43c-.3,0-.5-.2-.7-.4.2,0,.3,0,.4,0,.1.1.2.2.3.3,0,0,0,0,0,0ZM23.8,43.4c0,0-.2.2-.3.2-.1,0-.1-.2-.2-.3h0c.1,0,.3,0,.4.1ZM22.8,41.8c0-.4,0-.7.2-.9,0,0,0,0,0,0,0,.2,0,.7,0,1-.1,0-.3,0-.3-.1ZM22.9,42.3h-.3c.1-.1.1-.1.3,0ZM23.4,42.2c.2,0,.3,0,.4,0-.1,0-.3,0-.4,0ZM23.5,42c-.1,0-.2,0-.3,0,0-.2,0-.5,0-.6,0,0,0,0,0-.1,0,0,0,0,0,0,0,0,0,0,0,0,0-.1,0-.3,0-.4,0,0,0-.2,0-.3,0,0,0,0,0,0,0,0,0,0,0,0,0,0,0-.1,0-.2,0,0,0,0,0,0,0,0,0,0,0,.2,0,0,0,0,0,0,0,0,0,0,.1,0,.2.5.4.9.4,1.4,0,0-.1,0-.2,0ZM23.4,40.4c0,0,0-.1.2-.1.1,0,.2-.1.4-.2.3-.2.7-.4,1-.5,0,0,.1,0,.2,0,.3.3.5.7.6,1.1-.5,0-.9,0-1.4.1-.2,0-.4,0-.6,0-.1,0-.2,0-.3-.1-.1,0-.1-.1-.1-.2ZM23.1,39.3s0,0,0,0c0,0,0,0,0,0ZM23,40.5s0,0,0,0c0,0,0,0,0,0,0,0,0,0,0,0,0,0,0,0,0,0ZM22.9,40.7c0,0,0,.2-.1.3,0,.4-.2.8-.1,1-.1,0-.2.2-.3.3,0,0-.2.1-.2.1,0-.2-.2-.3-.3-.5,0-.1,0-.2-.1-.3,0,0,0-.1,0-.2.2-.2.5-.3.7-.5,0,0,0,0,.1,0,.1-.1.3-.2.4-.3,0,0,0,0,0,0ZM20.3,43.3c0,.1,0,.2,0,.3,0,.2,0,.4,0,.6,0,.2,0,.4,0,.6-.7-.2-1.4-.5-2.1-.7.2-.3.4-.4.7-.3,0,0,.2,0,.2,0,0,0,.1,0,.1,0,0,0,0,0,0-.1,0,0,0,0-.1-.1.6-.4,1.1-.7,1.6-1.1,0,0,0,0,0,0,0,0,0,.1,0,.2,0,0,0,0,0,.1,0,0,0,0,0,0,0,0,0,0,0,0,0,0,0-.1,0-.2,0,0,0-.2.2-.2s.2,0,.2.2c0,.3.2.6.3.9,0,.2.1.4.1.6,0,.1,0,.3-.2.3-.3.1-.6.2-.9.4,0-.6-.3-1.3,0-1.9-.3,0-.4.2-.4.4ZM20.1,42.1c-.5,0-1,0-1.5.1,0,0,0,0,0,0,.2,0,.4-.1.5,0,.4,0,.7,0,1.1,0,0,0,0,.1,0,.1ZM20.4,42.4c-.2.1-.3.2-.4.3-.3.2-.5.4-.8.5-.1,0-.3,0-.3,0,0-.1,0-.2,0-.2.4-.2.7-.3,1.1-.5.1,0,.2-.1.4,0ZM18.7,42.4c.2,0,.5,0,.7,0-.2.2-.4.3-.6.4,0,0-.2,0-.2,0,0-.1,0-.2.1-.2ZM19.8,38.4c.1,0,.3,0,.4,0,0,0,0,0,0,.1,0,.1.1.2.2.2,0,.3.2.6.3.8.2.6.4,1.2.6,1.8-.1.1-.3.2-.5.3,0,0,0-.1-.1-.2,0,0,0-.2-.1-.3-.1-.4-.4-.8-.5-1.2-.1-.4-.3-.8-.4-1.2,0,0,0-.2,0-.3ZM20.4,38.5s0,0,0,0c0,0,0,0,0,0,0,0,0,0,0,0ZM20.9,41.9c.2-.2.4-.3.6-.4,0,0,0,.2,0,.2,0,0-.2,0-.3.1,0,0-.1.1-.2.2-.1,0-.3.2-.5.1,0,0,.2-.2.2-.2ZM21.4,42.5c.2,0,.2,0,.1.3,0-.1-.2-.2-.1-.3ZM21.4,42s0,0,0,0c0,0,.1,0,.2,0,0,.1,0,.1-.1.1ZM22,38.9c0,.3-.2.5-.2.8,0,.2,0,.4-.1.6,0,.2,0,.3-.1.5,0,0,0,0,0,0,0-.2-.1-.3-.2-.5-.2-.5-.3-1-.5-1.5,0,0,0,0,0,0,0,0,.1,0,.1,0,0,0,0,0,0-.1,0,0,0-.1,0-.2,0,0,0-.2.1-.2,0,0,.1.2.3.2.3,0,.4-.1.4-.4,0-.2,0-.4,0-.7,0,0,0,0,0,0,0,0,0,0,0,0,.1.4.2.8.3,1.2,0,.1,0,.2,0,.3ZM21.1,38c0,0,0,0,0,.1,0,0,0,0,0,0,0,0,0,0,0,0,0,0,0,0,.1,0ZM20,38.1s0,0-.1,0c0,0,0,0,0-.1,0,0,0,0,0,.1ZM16.5,37.5c0-.2-.1-.4-.2-.5,0-.2,0-.4-.1-.5,0-.1,0-.3,0-.4,0,0,0,0,0,0,0,0,0,0,0-.1.2,0,.4,0,.5,0,0,0,0,0,0,0,0,0,0,0,0,0-.1,0-.3,0-.5,0,0,0,0,0,0,0,.2,0,.4-.2.5-.3,0,0,.2-.1.2-.1,0,0,0,0,0,0,0,0,0,0,0,0,0,0,0,0-.1.1,0,0-.1.1-.1.2,0,0,0,0,0,0,0,0,0,0,0,0,0,0,0,0,0,0,0,.2.1.2.3.2,0,0,.1,0,.1,0,.1,0,.3-.2.4-.3.1-.1.3-.2.5,0,0,0,.2,0,.3-.1,0,0,0,0,0,.1-.1.2-.3.4-.5.6-.1,0-.2.1-.4.1,0,0-.2,0-.3,0,0,.1,0,.2.1.2.1.1.3.3.4.4,0,0,0,0,0,0,0,0,0,0,0,0-.2.3-.5.6-.8.9,0,0,0,.1-.1.2,0,0,0,0,0,0,0,0,0,0,0,0,0,0-.1-.2-.2-.3,0,0,0,0,0-.1,0,0,0-.3,0-.4ZM14.9,38.8c-.1.1-.3.2-.5.3-.2,0-.4.2-.5.3-.2.2-.7.1-.9,0-.1,0-.1-.3,0-.4.1-.2.3-.4.5-.5.2-.2.3-.3.5-.5.1-.1.2-.3.3-.5,0,0,0-.1.1-.2,0,0,0,.1.1.2.2.4.3.7.5,1.1,0,.2,0,.2,0,.3ZM15.1,39.1c.2.1.3.2.4.4,0,0,0,.2,0,.2-.6,0-1.3,0-1.5-.2,0,0,0-.2.1-.2.2,0,.4-.2.6-.3.1,0,.2,0,.3,0ZM14.5,37.2c.1,0,.3-.2.4-.2,0,0,.2,0,.2,0,.1,0,.2.1.3.2.2.2.5.5.7.7-.3.3-.7.4-1,.6-.1,0-.6-.9-.8-1.3ZM16,37.4c-.2-.2-.4-.4-.6-.5-.2,0-.3,0-.4,0,0,0,0,0,0,0,0,0,0,0,0,0-.2.2-.5.2-.8,0-.1,0-.2-.1-.4-.2,0,0-.2,0-.2-.1,0,0,0-.1,0-.2,0,0,0,0,.2,0,.4,0,.7,0,1-.2.2,0,.9-.1,1.4-.2,0,0,0,0,0,0,0,.3,0,.5.1.8,0,.3.2.6.2.9,0,0-.1,0-.1,0-.1,0-.2-.2-.3-.3ZM11.1,38.8c-.1,0,0-.2,0-.3.1,0,.2,0,.3.2,0,0-.1.1-.2,0ZM11.2,40c0,.2,0,.4-.1.6,0,0-.2,0-.3,0,0-.2,0-.4,0-.6,0-.2.1-.3.2-.3,0,0,.2.1.2.3ZM11.1,38.2c0-.1,0-.3.2-.3.1,0,.3,0,.4,0,.3,0,.5,0,.5.3,0,0,0,.2-.1.2-.1,0-.3.1-.4.2,0,0-.1,0-.2,0-.2,0-.3-.2-.4-.4ZM12.2,38.4c0,.2,0,.3-.4.6,0,0-.1-.1-.2-.2.2-.2.4-.2.6-.3ZM12.2,37.2c0,0,.1.1.2.2,0,0,0,0-.1,0,0,0-.1-.1,0-.2ZM12.3,37c0,0,0-.1,0-.2,0,0,.1,0,.2-.1,0,.2,0,.3,0,.5,0,0-.2,0-.2-.1ZM12.4,36.4s0,0,0,0c-.3,0-.4,0-.4-.2,0-.1,0-.3,0-.4,0-.1,0-.2,0-.3.2-.2.4-.3.6-.4,0,.4-.1.8,0,1.2ZM12.3,35.1c-.1,0-.3.1-.4.2,0,0-.1,0-.2,0,0,0-.1,0-.2,0-.1,0-.2,0-.3,0,0,0,0,0,0-.1,0-.1.1-.2.2-.3,0,0,0,0,0-.1,0,0,0-.2,0-.2,0,0,0-.1,0-.2,0,0,0,0-.1,0,0,0,0,0,0,0,0-.1,0-.2.1-.4,0,0,0,0,0,0,.3-.2.7-.2.8.1.1.2.2.5.3.7,0,.3,0,.3-.2.4ZM10.3,35.4c0-.2.2-.2.4-.2,0,.2,0,.2-.4.2ZM10.5,35.6c0,.1-.2.1-.3,0,.1,0,.2,0,.3,0ZM10.6,34.9s0,0,0-.1c0,0,0-.1,0-.1,0,0,0,0-.1,0,0,0,0,0-.1.1-.2.3-.4.3-.7.2.3-.3.6-.7,1-.9,0,0,0,0,.1,0,0,0,0,0,0,.1,0,0,0,.1,0,.2-.1.2,0,.2.1.2,0,.1,0,.2,0,.3,0,0,0,.1-.1.2-.2,0-.2-.1,0-.2ZM10.2,35.3c0,0-.2.1-.3.2-.1-.2-.1-.2,0-.3,0,0,.1,0,.2,0,0,0,0,0,0,0ZM11,26c0,0,.2-.2.3-.3.1-.2.2-.3.3-.5,0-.1.4-.3.6-.2.1,0,.1.1,0,.2,0,0,0,0-.1.1-.2.1-.2.2-.1.4,0,0,0,0,0,0,0,.1-.1.2-.2.3-.1.3-.3.5-.7.4,0,0-.2,0-.2,0,0,0,0,.2,0,.2,0,0,.2,0,.3,0,.1,0,.3-.1.5-.2,0,.3,0,.6-.2.8l-.7-.4c0,.1,0,.2.2.3.1.1.2.2.3.4,0,.2,0,.3,0,.5-.1.2-.3.4-.4.6-.1-.2-.1-.4-.2-.7,0-.4-.2-.9-.2-1.3,0-.3,0-.5-.2-.8,0,0,0-.1,0-.1.1,0,.3,0,.4-.1.1,0,.2-.1.3-.2,0,0,.2,0,.3-.1,0,.2-.3.3-.2.5ZM15.5,26.6c0,0,0,.2-.2.2,0-.1,0-.2,0-.6.2,0,.3.2.2.4ZM15.4,25.7c0-.1,0-.3.1-.4,0,.1.2.2,0,.4,0,0,0,0-.2,0ZM15.6,27.3c0,0,0,.1,0,.2,0,.3,0,.6,0,.9,0,.2,0,.3-.2.5,0-.3-.2-.6-.3-.8,0,0-.1-.3-.1-.4,0-.3-.1-.6-.2-.9,0,0,.1,0,.2,0,0,0,0,0,0,.1,0,0,.2,0,.2,0,0,0,0,0,0,0,.2.1.3.2.5.3ZM16,26.5s0,0,0,0c0,0,0,0,0,0,.1,0,.2.2.2.2,0,0-.2.1-.3.2,0,0,0-.2,0-.3ZM16,25.7s0,0,0,0c0,0,0,0,0,.1,0,0,0,0,0,0,0,0,0,0,0-.2ZM16.2,26c.2.2.3.3.2.4-.1-.1-.1-.3-.2-.4ZM15.9,27.1c.1-.1.3-.2.4-.4,0,0,0,.2,0,.3,0,.4-.2.7-.3,1.1,0,0,0,0,0,0,0,0,0-.2,0-.3,0-.2,0-.4-.1-.6,0,0,0,0,0,0,0,0,0,0,0,0ZM17.5,32.5c0,0,.2.1.3.2-.3,0-.7,0-.9,0,0,0,0,0,.1-.1.2-.2.3-.2.5,0ZM17.4,31.6s0,0,0,0c0,0,0,0,0,0ZM17.6,30.7s0,0,0,0h0c0,0,0,.1,0,.1,0,0,0,0,0,0ZM10.1,30.7c0,0,.1,0,.2,0,0,0,.2,0,.2,0-.1.1-.3.3-.4.4,0,0-.1.1-.2,0,0,0-.1-.1-.1-.2,0-.2.2-.3.4-.3ZM9.9,30.6c0-.2,0-.2.2,0,0,0-.1,0-.2,0ZM10.3,30s0,0,.1.1c-.1,0-.2,0-.1-.1ZM10.2,31.3c.1-.2.3-.3.4-.4,0,0,0,0,.1,0,0,0,.2.1.2.2.1.2.2.4.3.6-.3.1-.5,0-.8,0-.1,0-.2-.1-.3-.2-.1,0-.1-.1,0-.2ZM10.5,29.6s0,0,0,0v.2s0,0,0,0c0,0,0-.1,0-.2ZM11.5,29.2s0,0,0,.2c0,.3,0,.6,0,.8,0,0-.2-.1-.2-.2,0,0-.2-.1-.2-.2-.1-.1,0-.3,0-.4-.2,0-.1.1-.2.1-.1,0-.2-.1-.1-.2,0-.1.2-.3.2-.4.1,0,.2.2.3,0,0,0,.2.2.3.3ZM11.4,28.4c.1.3,0,.3,0,.4,0-.1,0-.2,0-.4ZM11.9,30.8c.4.2.6.5.6.9-.2,0-.4-.1-.5-.3,0-.1,0-.2,0-.3-.1,0-.2-.2-.1-.3ZM12,32c0-.2,0-.2.3-.2.2,0,.3,0,.5.2,0,0,.1,0,.2,0,.2,0,.4.1.6.2.1,0,.2.1.3.3-.2,0-.4,0-.6.2,0,0-.2,0-.3,0-.3,0-.6,0-.9,0,0,0,0,0-.1,0-.2,0-.3-.1-.1-.3,0-.1.1-.2.1-.4ZM13.7,32.1c-.1,0-.3-.1-.4-.1,0,0-.2,0-.2,0-.1,0-.2-.1-.3-.2,0-.2-.2-.5-.3-.7,0,0,0-.1-.1-.2-.3-.3-.4-.6-.5-1,0-.2,0-.5,0-.7,0,0,0-.1,0-.1,0,0,0,0,.1-.1,0,0,.1,0,.1,0,.2.3.5.6.7.9.2.3.5.7.6,1,0,.2.2.3.3.4,0,.1.2.2.3.4,0,0,1.1,1.2,1.2,1.3,0,0,0,0,0,0,0,0,.2,0,0,0,0,0-1.2-1.4-1.3-1.4,0,0-.1-.2-.2-.3,0-.1,0-.2,0-.2.1-.1.3-.2.5-.3,0,0,0,0,0,.1.1.2.3.4.4.6,0,.1.1.2.2.3.1.3.3.6.7.7,0,0,0,0,0,0,0,.3,0,.4-.3.4,0,0-.2,0-.2,0,0,0,0,0,0,0,0,0,0,0,0,0,0,0-.2,0-.3,0-.2-.1-.4-.3-.6-.4-.2-.1-.4-.3-.7-.5ZM13.9,30.8c0,0-.2,0-.2.1-.5-.7-1-1.5-1.4-2.2.2-.2.4-.3.6-.4,0,0,.2,0,.2.1,0,0,.1.2.1.3,0,.2.1.4.2.5.1.2.2.4.4.7,0,.1.1.3.2.4,0,.2,0,.3-.1.5ZM12.7,28.1c-.1,0-.2,0-.4,0,0,.3,0,.3-.1.4-.2-.2-.2-.3,0-.5,0,0-.1,0-.2-.1,0,0,0-.1,0-.2,0,0,.2,0,.2-.1,0,0,.2,0,.3,0,.1,0,.2,0,.2.1,0,.1,0,.2,0,.3,0,.1,0,.2-.1.2ZM12.4,27c-.2,0-.4,0-.4.2,0,.1-.1.2-.2.3,0-.3,0-.6.2-.9.1-.2.3-.3.5-.3,0,.2,0,.4,0,.6,0,0,0,0,0,0ZM11.9,28.6c-.2,0-.2,0-.2,0,0-.1,0-.3,0-.4.2.1.3.3.3.5ZM11.4,31c0,0-.2,0-.2,0,0,0,0-.1.1-.2,0,0-.1,0-.2,0-.3,0-.3,0-.2-.3,0-.1-.2-.3,0-.5,0,.1,0,.2.2.2,0,0,0,0,0,0,.2.2.3.3.5.5.1.1.1.2,0,.3,0,0,0,0-.1,0-.1,0-.2,0-.1.1ZM11.2,31.2s0,0,0,0c.1,0,.3.2.4.2,0,0,.1.1,0,.2,0,0,0,.1-.1.1,0,0-.2,0-.2,0,0-.1-.2-.3-.2-.4ZM11.8,32.2h0c0,0,0-.2,0-.3.1,0,.2.2.1.3ZM12,32.8c.2,0,.4,0,.6,0,.3,0,.6,0,.9-.1.4-.2.7-.1,1,0,0,0,.2.1.3.2-.2,0-.4.2-.5.2-.3.1-.5.2-.8.2-.5,0-1,0-1.5,0-.2,0-.3,0-.5.1-.2,0-.2,0-.2,0,0-.1-.1-.2-.2-.3.3-.2.6-.4.9-.4ZM13.2,33.6c0,0,.2,0,.2,0,.2.1.4.3.6.4.1,0,.3.2.4.2.1,0,.2.1.3.2,0,0,0,0,0,0-.1,0-.3,0-.4,0-.4,0-.9.1-1.3.2-.2,0-.3,0-.3-.2,0-.3-.2-.7-.4-1,.3,0,.6,0,.9,0ZM12.8,35.2c0-.1,0-.2.2-.1.3,0,.5,0,.7-.1.6-.1,1.3-.3,1.9-.3,0,0,.2,0,.3,0,.1,0,.3-.1.4-.1.1,0,.2,0,.3,0-.2,0-.5.2-.7.6-.1.3-.5.3-.7.5,0,0,0,0-.1,0-.1,0-.3,0-.4,0,0,0-1.6.6-2,.4,0-.2,0-.4,0-.7ZM16,35c0-.2.3-.3.6-.4,0,0,0,0,0,0,0,0,0,.2,0,.3,0,.2,0,.3,0,.4,0,0-.2.1-.3.2-.3.3-.6.3-.8.1,0,0-.2,0-.3-.1.1-.1.6-.2.7-.5ZM17,34c-.1,0-.2,0-.3,0,0,0-.2,0-.2,0,0,0,0,0-.1.1-.3,0-.5.2-.8.3,0,0-.2,0-.3,0-.2,0-.4,0-.6,0-.4-.3-.8-.5-1.1-.8,0,0,0,0,.1,0,.2,0,.3,0,.5-.1.2-.1.5-.2.7-.3,0,0,.1,0,.2,0,.1,0,.3,0,.5,0,.2,0,.3-.1.5-.1.2,0,.3,0,.3.2,0,0-.3,0-.3.2,0,0,.2,0,.3,0,.3,0,.5,0,.8.2.1,0,.3.1.5.2-.2.1-.4.1-.5.1ZM16.3,32.4c.2-.3.3-.3.6-.2-.1.3-.4.4-.6.2ZM16.4,31.6s0,0,0,0c0,0,0,0,0,0,0,0,.2,0,.2,0,0,0,0,0,0,0,0,0,0,0,0,0,.1,0,.2.1.3.2-.2,0-.4,0-.5,0,0,0,0,0,0,0,0,0-.1,0-.2,0,0,0,0,0,0,0,0,0,0,.2,0,.3-.2-.7-.1-1.4-.1-2.1.3,0,.5.2.6.4,0,0,0,0,0,0,0,0,.1.1.2.2,0,0,0,0,0,0,0,0,0,0,0,0,0,0,0,0,0,0,0,0,.1,0,.2.2-.2,0-.3,0-.3,0,0,0,0,0-.1,0,0,0,0,0-.1,0-.1,0-.2.2-.3.3,0,.1,0,.2,0,.3ZM16.1,29.4c0-.2,0-.4,0-.6,0-.4,0-.7.2-1,0-.1.2-.2.2-.3.1.2.2.5.3.7,0-.1,0-.2,0-.3,0-.2-.1-.3-.2-.5,0-.2,0-.5,0-.7s0,0,0,0c0,0,.2.2.3.3,0,0,.1.2.2.2.2.3.3.5.5.8,0,0,0,.2,0,.3,0,.1-.2.3-.3.4,0,.1-.2.2-.3.4-.1.2-.2.4-.3.5-.1.2-.3.4-.5.5,0-.2,0-.3,0-.5ZM15.8,27.7c0,.2,0,.4,0,.6,0,.1,0,.2,0,.3,0,.5,0,.9,0,1.4,0,.4,0,.9,0,1.3,0,.5,0,.7.2,1.1-.2,0-.4,0-.6,0,0,0,0,0,0,0,0,0,0,0,0,0,0,0,0,0,0,0,0-.2-.2-.3-.2-.5,0-.1-.1-.3-.2-.4-.2-.2-.3-.4-.4-.6,0-.1-.1-.3-.2-.4-.2-.3-.4-.6-.5-.9,0-.1-.1-.3-.2-.4-.1-.3-.2-.5-.3-.8,0-.1,0-.2,0-.3.2-.1.4-.3.5-.4,0,.2,0,1.3.7,1.7.3.2.4.8.5,1.1,0,0,0,.1,0,.2,0,.2,0,.4,0,.6,0,0,0,0,0,0,.2.6.4,1.1.3,1.2,0,0,0,0,0,0,0,0,0,0,0,0,0-.2,0-.7-.2-1.3,0,0,0,0,0,0v-.2s0,0,0-.1c0,0,0,0,0,0,0,0,0,0,0,0,0-.1,0-.3,0-.4,0-.3.2-.6.2-.9,0-.3.2-.7.3-1,0-.2,0-.4,0-.6,0-.1,0-.2,0-.3,0,0,0,0,0,0,0,0,0,.1,0,.2ZM14.6,26.8c0,0,0,.2,0,.3,0,.4.1.8.4,1.2.3.4.3.9.2,1.3,0,.1,0,.3-.1.4-.1-.2-.2-1-.5-1.1-.2,0-.5-1.1-.6-1.6.2-.2.4-.4.6-.6,0,0,0,0,0,0ZM15,26.4s0,0,0,.2q0-.1,0-.2ZM14.8,26.4c0,0-.1,0-.2,0-.2-.2-.5-.3-.7-.5.1,0,.3,0,.4-.1.2,0,.3-.2.5-.2.1,0,.2,0,.2,0,.2.3,0,.7-.2.9ZM14.5,26.5s0,0,0,0c-.4.4-.9.8-1.3,1.2-.1-.4-.3-.8-.4-1.3,0-.2,0-.3.2-.4.5-.2,1.1,0,1.5.4ZM12.8,26c0,0-.1,0-.2,0,0-.2,0-.3,0-.5.3,0,.4.3.7.4-.2.1-.3.2-.5.2ZM12.3,24.5c0-.2.1-.3.4-.2-.1,0-.2.1-.4.2ZM12.3,26.1c0,.1,0,.2-.3.2,0-.1,0-.2,0-.3.2,0,.2,0,.2.1ZM10.1,27.3c.1.5.2,1.1.3,1.6-.4-.3-.6-.7-.5-1.1,0,0-.2,0-.2,0,0-.2,0-.2.4-.4ZM9.8,27.3c-.1,0-.2,0-.2,0,0,0,0-.2.2-.2.1,0,.2,0,.3,0,0,0,0,0,0,0,0,0-.2.1-.3.2ZM9.7,28.6c.1.2.3.3.4.5.1.2.2.4,0,.6-.2-.3-.4-.5-.6-.8,0-.1,0-.2,0-.3,0,0,.1,0,.2,0ZM10.1,29.7c0,0,0,.2,0,.3,0,0-.1-.1-.2-.1,0,0-.1,0-.2-.1-.1,0-.2-.1-.2-.2,0-.1,0-.3,0-.4.3.2.3.5.7.6ZM9.6,31.4c0,.1,0,.2,0,.2,0-.1,0-.2,0-.3.1,0,.1,0,.2,0ZM9.5,31.9c.2,0,.3,0,.4.1,0,.1.1.2.2.3,0,0,0,.2.1.3-.3,0-.5,0-.7-.1-.2,0-.3-.2-.1-.3,0-.1.2-.2.2-.3ZM10,32.9s0,0,0,0c-.1,0-.2,0-.4,0-.1,0-.3,0-.4,0v-.3c.3,0,.5,0,.8.2ZM9.4,33.1c.3,0,.6,0,1,0,.1,0,.2,0,.1.2,0,0,0,.1,0,.1-.4.2-.7.4-1.1.5,0-.2,0-.4-.1-.5,0-.2,0-.3.3-.3ZM9.3,34.8s0,0,.1.1c0,0,0,0-.1,0,0,0,0,0,0-.1,0,0,0,0,0,0ZM9.3,35.5c0,0,.1-.2.2-.3,0,0,.1,0,.2,0,0,0,0,.1,0,.2,0,0,0,.1,0,.1,0,0-.2,0-.4.1,0,0,0-.2,0-.2ZM9.6,34.8c0-.2-.2-.3-.2-.4,0-.1,0-.2,0-.3.3-.1.6-.3.9-.5,0,0,0,0,0,0,.1,0,.2,0,.3,0,0,.1.1.2,0,.3,0,0,0,0,0,0-.3.2-.5.5-.8.7,0,0-.2.1-.2.2ZM10.6,33.1s0,0,0,0c0,0,.1,0,.2,0,0,0,0,0,0,0,0,0-.1,0-.1,0,0,0,0,0-.1-.1ZM10.3,32.4c0-.2-.2-.4-.3-.6.2,0,.4,0,.6.1,0,0,.2,0,.2.2,0,0,0-.1,0-.2h.4c0,0,.1,0,.2.1,0,.1,0,.3.2.5-.2,0-.2-.3-.4-.3,0,.2.3.3.3.4,0,0-.2,0-.3,0-.5,0-.7,0-.9-.4ZM11.1,33.8s0,0,0,0c-.1,0,0,0-.1-.1.1,0,.2,0,.2,0ZM11.1,35.8c0,.1,0,.2,0,.3,0,0,0,0,0,0q0-.1.1-.3ZM11.2,36.2c.1.1.2.1.2,0,0,0,0-.2.1-.1,0,0,.1,0,.2.1,0,0,0,.2,0,.2,0,0-.2,0-.2.1,0,0,0-.1-.1-.2-.2,0-.1.3-.3.3,0-.2,0-.3.2-.5ZM12.7,36.2c.2,0,.9-.2,1.2-.3.4,0,1.1-.4,1.1-.4,0,0,0,0,0,0,0,0,.2,0,.2,0,.2,0,.4.2.6.2,0,0,0,0,.1,0-.6,0-1.4.2-1.7.2-.5.1-1,.1-1.5.2,0,0,0,0,0-.1ZM18,35.1c0,0,.1,0,.2,0,0,.1-.1.1-.2,0ZM18.9,36.9c0,0,0,0-.1.1-.1.1-.3.3-.4.4,0,0,0,0-.1,0-.1,0-.3,0-.4.1,0,0-.2,0-.3,0,0,0-.1,0-.2,0,0,0,0,0,0,0,0,0,0-.1.1-.2.2-.2.4-.4.5-.6,0,0,0,0,0-.1,0,0,0,0,.1,0,0,0,0,0,0,0,.1,0,.3-.1.4-.2,0,0,.1,0,.1,0,0,0,0,.1,0,.2,0,0,0,0,0,0ZM18.1,36.1c0,0,0-.1,0-.2,0,0,0,0,0,0v.2c0,0-.1,0-.1,0ZM17.7,27.8c0,0-.1-.2-.2-.2-.1-.2-.1-.2,0-.4.2-.1.4-.3.6-.4,0,0,0,0,0,0-.2.3-.2.7-.5.9ZM16.4,25.6s0,0,0,0c0,.1,0,.3,0,.4-.2-.1-.2-.2-.1-.4ZM16.2,25.5c-.1-.2,0-.3.2-.4,0,.3,0,.4-.2.4ZM16.3,24.9c0,.1-.2.2-.2.3,0,0-.1,0-.1-.1,0,0,0-.1,0-.2,0,0,0-.2.1-.2,0,0,.2,0,.3-.1,0,.1,0,.2,0,.3ZM16.2,24.5c0,0-.2.1-.3.2,0-.1-.1-.2,0-.3,0,0,.2,0,.3,0,0,0,0,0,0,0,0,0,0,.1,0,.1ZM15.7,26.8c0,0,0,.2,0,.2,0,0,0,0,0,0,0,0,0-.1,0-.2,0,0,0-.1.1-.2,0,0,0,.1,0,.1,0,0,0,0,0,0ZM15.7,26.2c-.2-.1-.2-.3,0-.5,0,.2,0,.3,0,.5ZM15.6,24.7c0-.1-.1-.2-.1-.4.1.1.1.2.1.4ZM15.6,23.2c.1,0,.3,0,.4,0h-.4s0,0,0,0ZM15.5,24.2c0,0,0,0-.1,0,0,0,0-.2-.1-.3,0,0,0,0,0-.1,0,0,0,0,0,0,0,.1.1.2.1.3,0,0,0,0,0,.1ZM15.4,24.8c0,.1-.2.2-.3.2,0,0-.1,0-.1,0,0-.1-.1-.2-.2-.3,0,0-.1-.2,0-.3,0,0,.2,0,.3,0,.2,0,.3.2.3.4ZM13.7,23.4c0,0,.1,0,0,.2,0,.1-.2.2-.3.3-.1,0-.2.1-.4.2,0,0-.1,0-.2,0,0,0-.1,0-.1-.1,0,0,0-.1,0-.2.1,0,.2-.2.3-.3.2-.2.4-.1.6-.1ZM13.6,22.7c0,0,.2.1.3.2,0,0-.2,0-.3,0,0,0,0-.1,0-.2ZM13.2,23.2c-.1,0-.3.1-.4.1-.2,0-.3,0-.5,0-.2,0-.4,0-.6.1-.2,0-.2,0-.2-.2,0,0,0,0,0-.1,0-.1,0-.1.2-.1.4,0,.9,0,1.3.1,0,0,.1,0,.2,0,0,0,0,0,0,0ZM10.8,23.9c0,0,.1,0,.2,0h0c0,0-.1.1-.2,0,0,0,0,0,0,0ZM10.8,23.7c-.1,0-.2,0-.4,0-.2,0-.3,0-.5,0,0,0,0-.2,0-.3,0-.2,0-.2-.3-.2,0,0,0,0,0,0,0,0-.2,0-.2,0,0-.1,0-.2,0-.4s.1,0,.2,0c.1,0,.3,0,.4,0,.4,0,.8,0,1.3.1,0,0,0,0,0,0,0,.3-.1.5-.4.6ZM9.6,28s0,.1,0,.1c0,0-.1,0-.2,0,0,0-.1-.1-.2-.2,0,0,0,0,0,0,.2-.1.3,0,.3.1ZM9.4,28.4c-.2.2-.3.2-.4,0,0,0-.2-.2-.1-.3.2,0,.3,0,.5.3ZM8.9,29.5s0,0,.1,0c0,0,0,0,0,0,0,0,0,0-.1-.1,0,0,0,0,0,0ZM9.2,31.3c0,0,0-.1-.1-.2q.1,0,.1.2ZM9.9,36.1c0,.1,0,.2-.2.3,0-.2,0-.2.2-.3ZM10.3,39.1c-.3-.1-.3-.2-.2-.5,0-.2.1-.3.2-.5,0,0,0-.1.1-.2.1,0,.2,0,.2.1,0,.2,0,.3.1.5,0,.1,0,.2,0,.3,0,.2-.2.2-.4.1ZM11,36.8c0,0,0,.1,0,.2,0,0,0,.2,0,.2,0,0,0-.2.1-.3.1-.2.3-.3.4,0,.2.1.3.3.3.5,0,0,0,.1,0,.2-.1,0-.3,0-.4.1-.2,0-.2,0-.3-.1,0,0,0-.2-.1-.2-.2.1,0,.3-.2.4-.3-.3-.2-.7.1-1ZM11,40.7c0,0,0,.1-.1.2q0-.1.1-.2ZM11.3,40.8c0,.3-.1.5-.5.6,0-.3.3-.4.5-.6ZM11.3,39.3s0,0-.1,0c0,0,0-.1,0-.2,0,0,.2-.1.2-.1,0,0,.1,0,.2.1,0,0,0,.1,0,.2,0,0-.1,0-.2.1ZM11.7,39.4c.2,0,.3.1.4.2-.2.2-.4.4-.6.6,0-.2-.1-.4-.2-.5,0-.2,0-.4.3-.3ZM12,40c0,0,.1-.1.2-.2,0,0,0-.1.1-.1,0,0,.1,0,.2.1,0,.2,0,.3-.2.4-.2,0-.3,0-.5,0,0,0,0,0,0,0,0,0,.1-.1.2-.2ZM12.4,39.3c0,0-.2,0-.2,0,0,0,0,0-.1-.1,0,0,0-.1,0-.2.1,0,.2-.2.3-.3,0,0,0-.1,0-.2,0-.2,0-.3-.1-.5,0-.1,0-.2.1-.2.3-.1.4-.3.3-.6,0-.2,0-.3,0-.5.2,0,.3,0,.4,0,0,0,.1,0,.2,0,.2.1.4.3.6.4.1,0,.2,0,.4.1,0,.2-.2.4-.3.6-.2.2-.4.4-.5.6-.1.1-.2.3-.3.4-.2.2-.4.4-.7.6ZM15.6,41.2c0,0-.2.1-.2,0-.1,0-.2-.1-.2-.2,0,0,0-.1,0-.1.1,0,.2,0,.3-.1.2,0,.3,0,.5-.2,0,0,.1,0,.3,0-.2.2-.5.4-.7.6ZM15.8,41.6s0,0,0,.1c0,0,0,0-.1,0,0,0,0,0,0-.1,0,0,.1,0,.1,0,0,0,.1,0,.1,0ZM14.1,41.5c0-.1.2-.2.3-.2.2,0,.5,0,.7,0,0,0,0,0,0,.1-.1.2-.2.3-.4.4-.1,0-.2,0-.3,0,0-.1-.2-.2-.3-.4ZM14.2,42.1h0c0,0,0-.1,0-.2,0,0,0,0,0,0,0,0,0,.1,0,.2ZM14.2,42.5c.1-.1.2-.1.3,0,.1,0,.2.2.1.3,0,.1-.2.2-.3.2,0,0,0,0,0,0,0,0-.2-.1-.3-.2,0,0,.1-.2.2-.3ZM14.6,42.3s0,0,0-.1c0,0,0,0,.1-.1.1-.1.2-.2.4-.3,0,0,0,0,.1,0,.2.2.2.2,0,.4-.1.2-.3.3-.4.4,0,0-.2-.1-.3-.2ZM15.2,42.5c0,0,.2-.2.3-.3,0,0,.1,0,.2,0,.1.2.3.5.4.7,0,0,0,0,0,.1,0,.3-.1.3-.4.3-.1,0-.2,0-.3,0-.2,0-.3-.2-.3-.3,0-.2,0-.3,0-.4ZM16,42.4c0-.1-.1-.3-.2-.4,0,0,0-.1,0-.2,0,0,.1-.1.2-.2.1,0,.3,0,.5,0,0,.3-.2.6-.3.9-.1,0-.2-.1-.2-.2ZM16.5,41.5c0,0-.1,0-.2,0-.1,0-.2,0-.4,0,0,0-.1,0-.2,0,0,0,0-.1,0-.1.1-.1.3-.2.4-.3.1,0,.2-.2.3-.3,0,0-.2,0-.2,0,0-.2.2-.1.3-.2,0,0,0,0,0,0,0,0-.2,0-.3,0-.2,0-.2,0-.3,0-.2-.3-.5-.7-.7-1,0-.1-.2-.2-.3-.2,0,0,0,0-.1,0,0,0,0,0,.1,0,.2-.1.5-.2.7-.3,0,0,.2-.1.3-.2.1-.1.2-.1.3,0,.2.1.3.3.3.5,0,.3.1.5.2.7,0,.1,0,.3,0,.4,0,.2,0,.4.1.5.2.4.4.7.6,1.1,0,.2,0,.2-.2.2-.3,0-.5,0-.7-.2-.1,0-.3-.1-.5,0ZM17.5,40.6c0,0,0-.1-.1-.2-.1-.1-.2-.2-.2-.4,0-.3,0-.6-.1-1,0,0,0,0,0-.1,0,0,.1.1.2.1.2.2.5.4.7.6,0,0,0,0,0,0,.2.2.5.4.7.6,0,0,.2.2.3.2.2.2.4.3.5.5.2.2.3.3.5.5.1.1.2.2.3.3h0s0,0,0,0c-.1-.3-.4-.7-.6-.9-.2-.2-.4-.4-.6-.5,0,0-.2-.1-.2-.2-.1-.1-.1-.2,0-.3.2-.2.4-.5.5-.7,0-.1.1-.2.2-.4h0c0,.2.2.4.3.7.2.4.3.9.5,1.3,0,.2,0,.3.2.5,0,.2.1.3.2.5-.2.2-.3.2-.4,0,0,0,0,0,0,0t0,0c0,.1,0,.1-.2.1-.3,0-.6,0-.9,0,0,0,0,0-.1,0-.3,0-.5,0-.8,0-.2,0-.2,0-.3-.2,0,0,0-.1,0-.2-.2-.3-.4-.6-.5-.9ZM18.6,43.2c0,0,0,.1,0,.2-.4.4-.9.5-1.4.2,0-.1.2-.2.3-.3.3-.1.5-.2.8-.2,0,0,.1,0,.2,0ZM18,44.2c.2,0,.3.2.4.2.5.2,1,.4,1.4.6,0,0,0,0,0,0-.2.2-.4.3-.6.2,0,0-.1,0-.2-.1,0,0,0,0-.1,0-.2,0-.2,0-.2.1,0,0,0,0,0,.2-.1,0-.2-.2-.3-.3-.1-.1-.2-.3-.3-.4-.1-.2-.3-.4-.4-.5.1-.2.3,0,.4,0ZM19.6,45.5c.1,0,.3-.1.4-.2.2,0,.4,0,.5,0,.3.2.5.3.8.5,0,0,0,0,.1.1,0,0,0,0,0,0-.5,0-1,0-1.6,0,0,0-.2,0-.3,0-.1,0-.1-.2,0-.3ZM20.7,45.1s0,0,0,0c0,0,0,0,.1,0,.3-.1.5-.2.8-.3.2,0,.2,0,.3.1.1.3.2.6.2.9,0,.2,0,.2-.2.2,0,0,0,0-.1,0-.4-.2-.7-.5-1.1-.7ZM21.8,43.6h0c.1.1.2.3.3.4,0,0,0,.1,0,.2,0,0-.1,0-.2.1-.1-.2,0-.5-.1-.7ZM22.1,43.6c-.3-.3-.4-.6-.2-1,0,0,.1,0,.2,0,.2,0,.4,0,.4.2,0,.1,0,.2,0,.4,0,0,0-.2.2-.3,0,0-.1-.1-.2-.2.2-.1.3,0,.4,0,0,0,0,.2-.1.3.2.2.2.5.3.8,0,0,0,.2,0,.2,0,0,0,0,0,0-.2,0-.3,0-.5,0,0,0-.2,0-.2-.1,0,0-.1-.2-.2-.2ZM23.3,45.9c.1,0,.2,0,.2.2,0,0-.1.2-.2.2,0,0-.2-.1-.2-.2,0,0,0-.1.2-.1ZM23.6,45.4c.1,0,.1.1,0,.2-.1,0-.2-.1,0-.2ZM23.5,44c0,0,0-.1,0-.2,0,0,0,0,0,0,.3-.3.6-.2.7.2,0,.1,0,.3,0,.4-.2.1-.3.3-.5.4-.2-.3-.2-.5-.3-.8ZM24.5,43.7c.1,0,.2,0,.3,0,0,0,0,0,0,0,0,0,0,0-.1.1,0,0,0-.1-.1-.2ZM25,43.8c0,0,.2,0,.2,0,0,0,0,.2,0,.3,0,.1-.2.2-.3.3,0,0-.1-.2-.2-.2,0-.2,0-.4.2-.4ZM24.8,43.5c-.1,0-.2-.1-.4-.2.5-.4,1-.7,1.6-.9,0,0,0,0,0,0,0,0,0,.1-.1.2,0,0-.2.2-.3.2-.1.1-.2.2-.3.4,0,.2-.3.3-.5.2ZM25.8,42c-.1,0-.3,0-.4,0-.3-.1-.6-.2-.9-.4,0,0-.2,0-.3,0,0,.3.4.3.6.5-.3,0-.5,0-.8,0,0,0-.2,0-.2-.2,0,0,0-.2,0-.3,0-.2-.1-.3-.2-.5,0,0,0,0,0-.1,0,0,.1,0,.2,0,.2,0,.3,0,.5,0,.2,0,.4,0,.5,0,.3,0,.5,0,.8,0,.3,0,.6,0,.7.3,0,.1.1.3.2.4,0,0,0,.1,0,.2,0,0,0,0,0,0,.2.2.3.3.5.3h0c-.3,0-.6,0-.8,0,0,0-.2,0-.3,0ZM27.2,42.1c.1,0,.3,0,.4,0,0,0,.2,0,.2.1-.2.1-.4.1-.7,0,0,0,0,0,0,0ZM26.5,41.6c-.1-.2-.2-.4-.3-.7,0,0,.2,0,.3,0,0,0,0,0,0,0,0,.2,0,.4,0,.6ZM26.4,40.7c0,0-.2,0-.3,0,0,0,0,0-.1-.1,0-.1-.2-.3-.3-.4-.1-.2-.2-.4-.3-.6-.1-.2-.1-.3.1-.4.2,0,.4-.2.6-.3,0,0,0,.2.1.2,0,.3,0,.6.1.8,0,.2,0,.4,0,.6,0,0,0,.2-.1.2ZM25.8,37.8c0,.2.1.4.3.5,0,0,0,0,.1.1,0,0,0,0,0,0,0,0,0,0,0,0-.2.1-.4.2-.6.3-.2,0-.2,0-.3,0,0,0,0,0,0-.1-.2-.3-.3-.6-.5-.9,0,0,0-.2,0-.3,0-.1,0-.2,0-.4,0,0,0,0,0,0,0,0,0,0,0,0,0,0,0-.2-.1-.2,0-.1-.1-.3-.2-.5,0,0,0,0,0,0,.2.3.5.5.9.5.4,0,.6.6.9.8,0,0,0,.1,0,.2ZM25.1,35.8c.4.3.6.7.6,1.2,0,.1,0,.3,0,.4-.2-.2-.5-.8-.9-.8-.2,0-.4-.3-.7-.6,0,0,0,0,0-.1,0,0,.1,0,.2,0,.1,0,.1-.2.3-.1,0,0,0,0,0,0,0,0,0,0,0,0,0,0,0,.1,0,0,0-.1,0-.2.1-.3,0,0,.2.2.3.2ZM24.5,35.3h0c0,0,0,0,0,0,0,0,0,0,0,0ZM24.2,33.5c0,0,.1,0,.2,0,0,0-.1.1-.2,0,0,0,0,0,0,0ZM23.9,33.9q0,0-.2,0,0,0,.2,0ZM24.1,34.7c-.2,0-.3,0-.5,0,.1-.2.3-.2.5,0ZM23.8,35c.1,0,.2,0,.3-.2,0,0,0,0,.1,0,0,0,0,0,0,0,0,0,0,0,0,0,0,0,0,0,0,0,0,0,0,0,0,0,0,0,0,0,0,0q0,.3-.4.2c0,0-.2,0-.3,0,0,0,0,0,0,0,0,0,.1,0,.2,0ZM23.6,36.3c0,0,0,0,0,.1,0,0,0,0,0,0,0,0,0,.1,0,.2,0,0,0,0,0,0,.1.2.2.3.3.5,0,0-.2.1-.4.2,0,0,0-.7,0-.7,0,0,0,0,0,.1,0,0,0-.1-.1-.2,0,0,0,0,0,0t0,0c0,0,0-.1-.1-.2,0,0,.2-.1.2-.2ZM23.4,32.7s0,0,0,0c0,0,0,.1-.1.2,0,0,0,0,0,0,0,0,0-.1.1-.2ZM23.5,33.4q0,0-.1,0h.1ZM23.3,35.6c0,0-.1,0-.2,0,.1-.1.1-.1.2,0ZM23,32.6s0,0,0,0c0,0,0,0-.1,0,0,0,0,0,0,0h.1ZM23,36.4c.2.2.1.6,0,1-.2-.4-.2-.7,0-1ZM22.3,37.8c.2.2.2.2,0,.4-.1-.1-.1-.3,0-.4ZM22.3,38.8c.2,0,.2-.3.4-.4.2.1.2.3.3.5,0,.3.2.5.3.8,0,0,0,0,0,0,0,.1,0,.2,0,.4,0,0,0,.1,0,.2,0,0-.1,0-.2,0-.1-.2-.2-.3-.3-.5-.2-.3-.3-.7-.4-1,0,0,0,0,0-.1,0,0,0,0,0,0ZM22.1,38.5c0-.1,0-.2,0-.3,0,0,0,.2,0,.3ZM22,36.4v.4c-.1-.2-.1-.2,0-.4ZM21.8,31.2s0,0,0,0h0c0,0,0,0,0,0ZM21.4,30.7s0,0,0,0c0,0,0,0,0,.1,0,0,0,0,0,0,0,0,0,0,0-.1ZM20.6,36.9c.1.3.2.9,0,1.1,0,0,0,0,0,0-.1-.1-.3-.3-.3-.4,0-.1,0-.2,0-.3,0-.1.2-.2.3-.4ZM20.3,29.8c0,.1,0,.3.1.4h0c0-.1,0-.2,0-.4,0,0,0,0,0,0ZM20.1,30.3s0,0,0,0c0,0,0-.1,0-.2.1,0,.1.1.1.2ZM19.7,30.4c0-.1,0-.2,0-.3.1.1.1.2,0,.3ZM19.5,37.6c0,0,0-.1,0-.2,0,0,.1,0,.1,0,0,.2,0,.3,0,.5,0,0,0,0-.1,0,0-.1-.1-.2-.2-.3,0,0,0-.1,0-.2ZM19.3,37c0-.1,0-.2.1-.3,0,.1,0,.2-.1.3ZM18.6,28c0,.3.1.6.3.9,0,0,0,0,0,0,.1.4.3.8.6,1.2,0,0,0,0-.1,0-.3,0-.5-.3-.6-.5-.2-.4-.5-.7-.7-1,0-.1-.1-.3-.2-.4,0,0,0-.2,0-.2,0-.1.1-.2.2-.3,0-.2.2-.4.3-.6,0,0,0,0,0,0,0,.4.2.7.2,1.1ZM19.5,25.4c0,0,0,0-.1.1,0,0,0,0-.1,0-.3-.1-.4-.1-.5.1,0,0,0,.2-.1.3,0,0,0,.2-.1.3-.1-.1-.2-.3-.3-.4,0-.1-.1-.3,0-.4,0-.2.2-.3.3-.4,0-.1.2-.1.3,0,.2.2.5.3.8.5ZM19.1,24.1c-.1,0-.2.1-.3.2,0,.1,0,.2-.2.2,0,0,.1-.1.2-.2.1-.3.4-.5.7-.4-.1,0-.2.1-.3.2ZM19.2,23.5c0-.1,0-.3.3-.3.1,0,.2,0,.3.1-.2.1-.3.2-.5.2ZM18.8,22.9c0-.2.2-.2.4-.4.1.3,0,.5-.4.4ZM19.7,22.4c0,.2,0,.3,0,.4-.1,0-.1-.2,0-.4ZM19.1,21.5c.1-.2.2-.3.3-.5,0,0,0,0,0,0,0,.2,0,.4,0,.5,0,.1,0,.3,0,.4,0,0,0,.1-.1.2,0,0-.1,0-.2,0,0-.1-.1-.2-.2-.3,0,0,0-.1,0-.2ZM17.4,20.8c.2-.2.4-.4.6-.5.1-.1.2,0,.3,0,0,0,0,0,0,.1.3.4.5.8.4,1.4.2,0,.2,0,.3,0,0,0,0,0,0,0,.1.2.1.2,0,.4,0,0-.2.1-.2.3,0,0,0,0,0,0,0,0-.1,0-.2.1-.2.1-.2.1-.3,0-.2.2-.5.1-.8.2,0,0,0,0,0-.1,0-.6,0-1.2-.1-1.8,0,0,0-.2,0-.3ZM18,23.2c-.3.2-.4.2-.6,0,.2-.2.3-.2.6,0ZM17.4,23.7c0,0,0-.1,0-.2h0c0,.1,0,.2,0,.3,0,0,0,0,0,0,.2-.2.4-.2.6-.2.1,0,.3,0,.4-.1,0-.2-.3,0-.4,0,0-.1,0-.2.1-.2.2-.1.4,0,.7-.1,0,0,.2,0,.1.2,0,0,0,.1-.2.2,0,0-.1,0-.2,0,0,.4,0,.4-.3.5,0,0,0,0,0,.1,0,0,0,.1,0,.2,0,0-.1.1-.2,0-.2,0-.4-.1-.5-.3,0,0,0,0-.2.1,0,0,.1,0,.2.1.1,0,.2.2.3.2.1.1.1.2,0,.3,0,0-.1.1-.2.2-.3-.2-.3-.5-.5-.7,0,0,0,0-.1,0,.1.3.3.5.4.8-.2.2-.5.4-.7.6,0-.1,0-.3.1-.4,0,0-.1,0-.2,0,0,0,0,0,0-.1,0-.2.1-.3.2-.5,0-.2,0-.2-.1-.3-.1.2-.3.4-.5.6,0-.2.2-.4,0-.5.2,0,.3-.1.4-.2,0-.2-.2,0-.4,0,0-.2-.2-.4,0-.7.2,0,.2.2.4.2,0,0,0-.1,0-.2.2,0,.2.2.3.3,0,0,0-.1.1-.2ZM16.5,23.2c.2-.2.4-.1.4,0-.2,0-.3,0-.4,0ZM17.1,23.1s0,0,.1.1c-.2,0-.2,0-.1-.1ZM16.7,21.4c.1,0,.2-.1.4-.2,0,.4,0,.8,0,1.2,0,.1,0,.2,0,.3,0,0,0,.2,0,.2,0,0-.2,0-.3,0,0,0,0,0,0-.1-.1-.2-.2-.4-.3-.7-.1-.3,0-.5.2-.7ZM16.2,22.1c.2.2.4.6.4.8,0,0-.1,0-.2,0,0,0-.1,0-.1-.1,0-.2,0-.5-.1-.7,0,0,0,0,0,0ZM16.2,23.6c0,0,0,.1,0,.2,0,.2,0,.3-.2.3,0,0-.1,0-.2,0,0-.1,0-.2-.1-.4,0-.1,0-.2.1-.3.1,0,.3,0,.3,0ZM16,22.1c0,.2,0,.4.1.6,0,.1,0,.2-.2.2-.2,0-.2,0-.3,0-.2-.3,0-.6.3-.7ZM15.6,22.9c-.3.2-.5,0-.7,0,.2-.2.3-.2.7,0ZM14.7,22.4c.1,0,.2.1.4.2,0,0-.1.2-.2.3-.1-.1-.1-.3-.2-.4,0,0,0,0,0,0ZM14.4,23.5c.1,0,.3-.2.2-.4,0,0,.1,0,.2,0,0,0,0,.1,0,.2,0,.2,0,.3.1.4,0,0,0,0,0,0,.1.2,0,.3-.1.4,0,0-.1,0-.1,0,0,0-.1-.1-.2-.2,0-.1-.2-.2-.3-.4,0,0,.1-.1.2-.2ZM14.1,21.3s0,0,0,0c0,.1,0,.3,0,.4-.1-.1-.1-.2-.1-.4ZM14.3,22.4c-.3-.1-.4-.5-.6-.7.4.1.6.5.6.7ZM12.3,19.7c0,0,0-.1,0-.2,0-.2.1-.5.1-.7,0-.3.1-.5.2-.8,0,0,0-.1,0-.2,0,0,0,0,0,0,.4,1.3.8,2.5,1.3,3.7-.2,0-.4-.2-.4-.4,0-.2-.2-.3-.4-.2-.1,0-.2,0-.2,0,0-.1-.1-.2-.2-.3-.1-.2-.3-.4-.4-.5,0,0-.1-.2,0-.3ZM12,21.2c0-.1,0-.3,0-.5,0-.2,0-.4.1-.6,0,0,.1.1.2.2,0,0,.1.1.2.2.2.4.6.8.9,1.2,0,0,0,0,0,0,0,.1.1.3.2.4,0,.1.2.2.3.3,0,0,0,.1,0,.2,0,0,0,0-.1,0,0,0-.2-.1-.3-.1,0,0,0,0-.1,0-.3-.3-.5-.6-.5-1,0,0,0-.2-.1-.2,0,0-.2,0-.3,0,0,0,0,.1,0,.2,0,0,0,.1.1.2,0,0,0,0-.1,0-.2-.1-.4-.3-.6-.4,0,0-.1-.1,0-.2ZM11.9,21.6c.3.2.7.5,1,.7.2.1.3.3.4.5,0,0,0,.1,0,.2-.6,0-1.2-.2-1.8-.2.1-.4.2-.8.3-1.2ZM9.1,22c0-.2,0-.4-.1-.6,0-.4,0-.8-.1-1.2,0-.1,0-.3,0-.4,0,0,0,0,0,0,.5.5,1.2.8,1.8,1.1.2,0,.4.2.5.3.3.1.3.3.3.6,0,.2-.1.4-.2.7,0,.2-.2.4-.5.3-.4,0-.7,0-1.1-.1-.4,0-.7-.3-.8-.7ZM8.7,25c0-.2-.2-.3-.2-.5.3,0,.5-.2.7-.3,0,0,.1,0,.2,0,0,.2.2.4.3.7,0,0,0,0,0,.1-.3-.2-.6-.3-.9,0ZM8.9,25.6c.2-.1.3,0,.4,0,0,0,.2.2.3.3-.1.1-.1.1-.2,0-.1-.1-.3-.2-.4-.4ZM8.6,27c0,0,.1-.2.3,0,.2-.1.3,0,.4.2,0,0,.1.1.1.2,0,.1,0,.2,0,.3-.3.2-.7,0-.8-.3,0-.1,0-.2.1-.3ZM8.1,28.5c0,0,.1-.1.2,0,0,0,.1.1.1.2,0,0,0,.2,0,.3-.1,0-.2-.1-.3-.2,0,0,0-.1,0-.2ZM7.3,29c0,0,.2-.1.2-.2.1,0,.2,0,.4,0,.1,0,.3.1.4.2.2.1.3.2.3.5-.5,0-.9-.3-1.3-.5ZM8.4,31.4c0,0-.1-.1-.2-.2-.3,0-.5,0-.8-.2-.1,0-.3-.1-.4-.2h0c.1,0,.3,0,.4,0,.4,0,.8,0,1.2,0,.2,0,.3,0,.3.2,0,.1,0,.2,0,.3,0,.1,0,.2-.2.2,0,0-.1,0-.2,0,0,0-.2,0-.2,0ZM8.4,33.3s0,0,.1-.1c0,.1.1.2.2.3,0,.2.2.3.3.5,0,.1,0,.2,0,.2-.3.1-.7.2-1,.4,0,0,0,0,0,0,0-.1,0-.2.1-.3,0-.1.1-.3.1-.4,0,0,0-.1,0-.2,0-.1.1-.2.2-.4ZM7.6,32.4s0,0,0,0c0,.4,0,.5-.4.4-.1,0-.2,0-.4,0,0,0,0,0,0,0,.2-.1.5-.2.7-.3ZM5.8,34.8c-.9-.1-1.8-.2-2.7-.4-.1,0-.2,0-.4,0,0-.1,0-.2.1-.2,0,0,.1,0,.2,0,.6-.1,1.2-.3,1.7-.6.1,0,.3-.2.4-.2.7-.4,1.5-.4,2.3-.2,0,0,0,0,0,0,0,0,0,0,0,0-.4.5-.7,1-1.1,1.5-.2.2-.4.3-.6.2ZM6.7,34.8c.3-.7.9-1.2,1.4-1.6,0,0,0,0,0,0-.1.5-.4.9-.6,1.3-.2.3-.5.4-.8.3ZM7.4,36.8c0,.1-.2.2-.3.3,0,0-.1,0-.2,0,0,0,0,0,0,0,0-.4.1-.5.5-.4ZM7.2,36.5c.3,0,.6-.2.9-.3-.2.3-.6.4-.9.3ZM8.3,37.3c-.3,0-.6.2-.9.2-.2,0-.4,0-.7.1,0-.1.1-.2.2-.2,0,0,.2,0,.2-.2,0,0,0,0,0,0,.2-.1.4-.2.5-.3.1,0,.3-.2.5,0,0,0,.2,0,.3,0,0,0,.2,0,.2,0,0,.2-.2.3-.4.4ZM8.6,36.6c-.1,0-.3,0-.4,0,0-.2.3-.4.7-.5,0,.1,0,.2,0,.3,0,.2,0,.2-.2.2ZM8.2,36c-.3,0-.6.2-1,.3,0-.2,0-.3.1-.5,0-.2.2-.4.3-.6,0-.1.1-.2.3-.1.3,0,.7,0,1,0,.1,0,.2,0,.2.2,0,.1,0,.2-.1.2-.2.2-.4.3-.7.4ZM9,37.7c-.1-.2,0-.4.1-.4.2,0,.3-.1.5-.2,0,0,0,.2,0,.3,0,0-.2.1-.2.2-.1,0-.2.1-.4.2ZM9.1,37.9s0,0,.1,0c.1-.1.3-.2.4-.3,0,0,.1-.1.2,0,0,0,0,.1,0,.2,0,.3-.4.5-.9.3ZM9.3,39.4c.1-.3.2-.6.4-.9,0,0,0-.2,0-.2,0,0,0-.2.2-.2,0,0,0,.1,0,.2-.2.4-.4.9-.6,1.3,0,0-.1,0,0,0ZM9.4,41c0,0,.1-.1.2-.2q0,.1-.2.2ZM9.6,40.5c0,0,0,.2-.2.2,0,0-.1,0-.2.1-.1.1-.3.3-.4.4,0,0-.1,0-.2,0,0,0,0,0,0,0,0-.2.2-.4.3-.6,0-.2.2-.3.2-.5,0,0,0-.1.2,0,.2,0,.3,0,.4-.2,0,.2,0,.4,0,.6ZM10.9,42.8c0,0-.2.1-.3.2-.2.1-.5.2-.7.4-.2-.2-.2-.4-.1-.7,0-.2.2-.4.3-.5,0,0,.2,0,.2-.1.1,0,.2-.2.4-.2.1,0,.1.2,0,.3,0,0,0,0,0,0,0,0-.2,0-.1.2,0,.1.1.2.2.3,0,0,.1,0,.2,0,0,0,.1,0,.2,0,0,.1-.1.2-.2.3ZM11.2,42.3c0,0,0-.1,0-.2,0-.1-.1-.3-.2-.4,0,0,0-.1,0-.2.1-.1.3-.2.5-.3,0,.2,0,.5,0,.7,0,.2,0,.3-.3.4ZM11.5,42.5h0c0,0,0-.1,0-.2,0,0,0,0,0,0,0,0,0,0,0,.1ZM11.6,40.6c0,0,0-.1.2-.1.2,0,.3,0,.5-.2-.2.2-.4.3-.6.5-.1,0-.1-.1-.1-.2ZM12.6,42.5c-.1,0-.2,0-.2-.2,0,0,.2,0,.2,0,0,.1,0,.2,0,.3ZM12.7,41.5c0,.3,0,.5-.4.6-.2,0-.3,0-.4-.1,0,0,0,0,0-.1,0,0,0-.1,0-.2,0,0,0,0,0-.1,0,0-.1,0-.1,0,0,0,0,0,0,.1-.1-.6.2-1,.8-1.2-.1.2-.4.4-.3.7.1-.1.2-.3.3-.4,0,0,0,.1.1.2,0,0,0,.2,0,.2,0,.1,0,.2,0,.3ZM13.2,44.5c-.1,0-.2.2-.3.3,0,0-.1.1-.2.2,0-.4,0-.8,0-1.2,0,0,0-.2.1-.2,0,0,.1-.1.2-.3.1,0,.2,0,.2.1.2.4.2.8-.2,1.1ZM13.6,43.3c0-.2.1-.3.3-.3.2,0,.3.1.4.2-.2.2-.3.4-.5.6,0-.2-.2-.3-.2-.5ZM15.6,45c-.3.3-.5.6-.8.9-.2.2-.3.2-.4,0-.3-.5-.4-1-.5-1.5,0,0,0-.2,0-.3.2-.3.4-.6.8-.7,0,0,.2,0,.3,0,0,0,.2,0,.2.2.1.2.2.5.4.7,0,.2.2.3.2.5,0,.1,0,.3-.1.4ZM16.1,45.4c0-.1-.1-.2-.1-.4.2,0,.2.2.1.4ZM16.8,45.2c-.2.1-.3,0-.4-.1,0,0,0-.1-.1-.1,0,0-.2,0-.1-.1,0-.1,0-.1.2-.1,0,0,0,0,0,.1s0,0,0,0c0,0,.1,0,.2,0,0,0,0-.1,0-.2,0,0,0-.1,0-.1,0,0,.1,0,.1,0s0,.1,0,.2c0,.1,0,.2,0,.3,0,0,0,0,0,0ZM16.8,44.3c0-.1,0-.2,0-.2,0,0,0,0,0,0,0,0,0,.1,0,.2ZM16.7,43.7c-.1.3-.4.4-.6.6,0,0,0-.1-.1-.1,0,0,0,0-.1,0,0-.2-.2-.4-.2-.6,0,0,0-.2,0-.2,0,0,.1,0,.2,0,.1,0,.1.2.1.3,0,0,0,.2,0,.3,0,0,0,0,0,0,0,0,0,0,.1,0,0,0,0,0,0,0,0-.2,0-.2.3-.3,0,0,.1,0,.2,0,0-.1,0-.1-.1-.1-.2,0-.2-.1-.1-.3,0,0,0,.2.2.1,0,0,0,0,0-.1-.1-.2-.1-.4,0-.6,0-.2.1-.4.2-.6,0-.1.1-.1.2,0,.2,0,.3,0,.5.1,0,0,0,0,0,0,.1,0,.3.1.5.2,0,0,.2.1.2.2.2,0,.2.1.2.3,0,0,0,.1,0,.1-.2,0-.4,0-.6.1-.2,0-.3,0-.5-.1-.2.3-.3.6-.2.9,0,0,0,.2,0,.3-.2-.1,0-.4-.4-.4ZM19,48.7c-.3.2-.5.4-.8.5-.3.2-.7.4-1,.7,0,0-.1,0-.2.1,0-.5,0-.9,0-1.3,0-1,0-2,0-2.9,0-.2,0-.4,0-.5,0,0,0-.2,0-.2,0-.1,0-.3,0-.4,0,0,0-.2.1-.2,0,0,.2,0,.2.1,0,.1,0,.2.1.4.2.6.5,1.1.9,1.6.2.3.4.7.6,1,.1.2.2.4,0,.6,0,0,0,.2,0,.2.1.1.1.2,0,.3ZM20.5,47.8c0,0-.2,0-.2,0-.1,0-.2,0-.3,0,0,0,0,0-.1,0-.2,0-.3,0-.4-.1,0,0,0-.1-.1-.2-.5-.9-1-1.8-1.6-2.7,0-.1-.2-.3-.2-.4,0,0,0,0,0,0,0,.1.2.2.3.3.4.6.8,1,1.3,1.5.2.2.4.4.6.6.2.2.5.4.7.6,0,0,0,0,0,0,.1.1,0,.2,0,.3ZM21,47.4c-.1.1-.2.1-.3,0-.5-.5-1-1-1.5-1.5,0,0,0,0,0-.1,0,0,0,0,0,0,.5.3,1.1.3,1.7.3.4,0,.7,0,1.1,0,0,0,.2,0,.3,0,0,.1-.2.2-.2.3-.3.3-.7.6-1,.9ZM22,47s0,0,0,0c0,0,.2-.2.3-.3,0,.2,0,.2-.3.3ZM22.4,45.8s0,0-.1,0c0,0,0-.2,0-.2,0-.3,0-.6-.2-.9,0-.1,0-.2.2-.2,0,.1,0,.3.1.4.2,0,.3,0,.4,0,0,0,.1.2.2.3,0,.3,0,.4-.4.4,0,0,0,0,0,.1,0,0,0,0-.1,0ZM24,46.9c0,0-.1.1-.2.2-.2.2-.3.4-.3.7,0,.3-.3.4-.5.2,0,0-.1-.1-.1-.2,0-.2,0-.3-.1-.4,0,0-.1-.2,0-.3,0-.2,0-.4-.1-.6,0,0,0,0,0,0,0-.2.2-.3.4-.3.1,0,.2,0,.3.3.1-.1.3-.2.4-.3.1,0,.2.2,0,.2,0,.1,0,.2,0,.2h0c0,0,.1,0,.2,0,0,0,0,.1,0,.2ZM24.1,45.8s0,0,0,0c0,0,0,0,.2,0,0,0,0,.1-.1,0ZM24.8,48.1c-.1-.2-.2-.4-.2-.7.3.2.3.3.2.7ZM25.4,46.4c0,.2-.1.4-.2.5,0,0,0-.3-.2-.2,0,.2,0,.5,0,.7-.3-.2-.5-.4-.5-.7,0-.3.1-.6.3-.8-.1.1-.3.2-.4.4,0-.2.4-1,.7-1.2,0,0,0,.2,0,.2,0,.3,0,.5.2.7.1.1.2.3.1.4ZM25.5,45.8c-.2,0-.2-.2-.2-.3.1,0,.2,0,.3,0,0,0,0,.2,0,.3ZM25.8,44.6c0,.1,0,.3,0,.4,0,0,0,.1,0,.2,0,0-.1,0-.2,0,0,0,0,0,0,0-.3-.4-.3-.4,0-.8,0,0,.1-.2.2-.3.1-.1.2-.2.3,0,0,0,.2,0,.3,0,.2,0,.4,0,.6,0,.2,0,.3,0,.5.2,0,0,0,.1,0,.2,0,.1-.2.2-.3.2-.2,0-.4,0-.6.2,0,0-.1,0-.2,0-.1-.2,0-.4,0-.6-.1,0-.1,0-.2.2ZM27.6,44.4c0,0,.2,0,.2,0,0,.2.1.3.2.5,0,.2.1.4.2.7,0,0,0,.2,0,.2-.8-.1-1.5-.3-2.2-.4,0,0,0-.2.1-.2.3,0,.6-.3.9-.3.1,0,.2,0,.3-.2,0-.1.1-.2.2-.3,0,0,0,0,.1-.1ZM27.1,43.4c0,.1.1.2.2.3,0,0,0,.1,0,.2-.2,0-.6,0-1.1,0,0,0,0-.1,0-.2,0,0,0,0,0,0,0,0-.2,0-.3,0-.1,0-.3-.1-.4,0,0,0,0,0,0,0,0-.2,0-.3.2-.5.2-.2.4-.4.6-.6,0,0,0-.2.2,0,0,0,0,.1,0,.2,0,0,0,0-.1.1,0,0,0,.1-.1.2.3,0,.3-.2.4-.3,0,0,0,0,.1,0,0,0,0-.1,0-.2,0,0,0,0,0,0,.1.2.3.4.4.7ZM27.3,42.5c-.2,0-.3,0-.5-.1,0,0,0,0,0,0,.3,0,.6.1.9.2q-.1,0-.5,0ZM27.9,42.4c.3,0,.6,0,.8.2-.3.2-.5.1-.8-.2ZM28.6,41.8c0,.2,0,.3,0,.4-.2,0-.5,0-.8-.1.3,0,.5-.1.8-.3ZM28.1,41.1c.1,0,.3,0,.4,0,0,0,0,0,0,.1,0,.3,0,.3-.2.5-.2.1-.5.1-.7,0-.2,0-.4,0-.6,0,0,0,0,0,0,0,0,0-.1,0-.2,0,0,0,.2,0,.2-.1.1-.1.2-.2.3-.3.1-.1.3-.2.5-.3,0,0,.2,0,.2,0ZM28.2,40.2c-.2.2-.4.4-.6.5,0,0,0,0,0,0-.2,0-.4,0-.6,0-.2,0-.2-.1-.2-.3,0,0,0-.2,0-.3-.1-.4,0-.9-.2-1.3,0-.1,0-.2.1-.3.2-.1.5-.2.7-.3,0,0,.1,0,.2,0,.1,0,.2,0,.4,0,0,.3.2.5.2.7,0,.3.1.6.2,1,0,.1,0,.2,0,.2ZM29.3,39.2c.3-.5.6-1.1.9-1.6,0-.2.2-.4.4-.6,0,0,0,0,.1-.2,0,.3,0,.5,0,.7,0,.3,0,.5-.2.7-.3.3-.7.6-1,.9,0,0-.2.1-.3.2,0,0,0,0,0-.1ZM28.8,40c0,0,.1,0,.2-.1.3-.2.6-.5.8-.7.2-.1.3-.3.5-.4.2-.1.3-.3.4-.4,0,0,0,.2,0,.2-.6.5-1.1.9-1.7,1.4,0,0,0,.2-.2.1ZM30.8,39.5c-.6.2-1.1.4-1.7.6,0,0,0,0,0,0,0,0,0-.1.1-.1.5-.4,1-.8,1.5-1.2,0,0,0,0,0,0v.8h0ZM30.9,37.5c0-.2,0-.4,0-.6,0-.2,0-.3,0-.5.1-.2,0-.2-.2-.3,0-.3,0-.6-.1-.9,0,0,0,0,0,0,0,0,0,0,0,.1.2.3.3.5.5.8.1.2.3.5.4.7.1.2,0,.2,0,.3-.2.1-.3.2-.4.3,0,0-.1,0-.2.2,0,0,0-.1,0-.2ZM32.7,38.7c-.5.2-1,.4-1.6.6,0-.1,0-.2,0-.3,0-.1,0-.3,0-.4,0,0,0-.1,0-.2.2-.2.5-.3.8-.3,0,0,.1,0,.2,0,0,0,0-.1,0-.2,0,0-.1,0-.2-.2-.1.4-.5.4-.8.6,0-.2,0-.3.1-.4.2-.2.3-.4.5-.5.1-.1.2,0,.3,0,0,0,0,0,0,0,.2.4.5.8.7,1.3ZM32.2,36.6c0,0-.2.2-.3.3-.5-.6-.8-1.2-1.2-1.9,0,0,0,0,0,0,.7.4,1.4.7,2.1,1.1-.3,0-.5.3-.7.5Z"/>
  <path class="st2" d="M38.6,23.2c-.2-.1-.5-.1-.7.1,0,0-.1.2-.1.3,0,.1,0,.1-.2.2-.6.2-1.2.5-1.8.7-.3.1-.5.2-.8.3,0,0,0-.1.1-.2.4-.4.9-.7,1.3-1.1.3-.2.5-.5.9-.5,0,0,.1,0,.1-.1,0,0,0-.1,0-.2,0,0,0,0-.1,0-.1.1-.2.2-.3.3-.3.2-.6.4-.9.6-.5.4-.9.8-1.3,1.2,0,0,0,0,0,0,0,0,0-.1,0-.2.4-.7.7-1.3,1-2,.1-.3.3-.6.5-.8,0,0,0,0,0-.1.1-.2,0-.3-.1-.3-.1,0-.2,0-.2.1,0,.2,0,.4-.2.6-.1.2-.2.4-.3.6-.2.6-.6,1.2-.9,1.8,0,.1-.1.3,0,.4,0,0,0,0,0,0-.2,0-.2-.1-.2-.3,0-.3,0-.6,0-.9,0-.3,0-.7,0-1,0-.2,0-.3.1-.5,0,0,0-.1,0-.2,0,0-.2,0-.3,0,0,0,0,0,0,.2,0,0,0,.1,0,.2,0,.5,0,1.1,0,1.6,0,.2,0,.3,0,.5,0,0-.1-.2-.1-.3,0,0,0-.2,0-.2-.2-.6-.4-1.2-.6-1.8,0-.2-.2-.5-.4-.7,0-.1-.2-.2,0-.4,0,0,0-.1,0-.1,0,0-.1,0-.2,0-.1,0-.2.3,0,.4.2.2.4.4.5.6,0,.2.1.4.2.6.2.6.5,1.3.6,1.9,0,0,0,.2,0,.3-.3-.2-1.4-1.7-1.5-2.1,0,0,0-.1.1-.2.1-.2.2-.3,0-.5-.1-.2-.3-.3-.5-.4-.1,0-.2,0-.3,0-.3.1-.4.4-.4.7,0,.3.3.5.6.5,0,0,.2,0,.3,0,0,0,0,.1,0,.2.2.4.5.7.7,1.1.3.4.7.7.8,1.2,0,0,0,0-.2.1,0,0-.2.1-.2.2,0,0,.2,0,.3-.2.2,0,.3,0,.3.1,0,0,0,0,0,0,0,.3.1.7.2,1,0,.5.2,1,.1,1.5,0,.2,0,.5-.2.6,0,0,0,.2,0,.2,0,0,.2,0,.2,0,0,0,0,0,0-.2,0-.2,0-.4,0-.7,0-.3,0-.6,0-.9,0-.6-.2-1.1-.3-1.7,0,0,0-.1,0-.2.6.5,1.1,1,1.7,1.4,0,0,0,.2,0,.2,0,.4.2.6.6.7.4,0,.7-.4.6-.7,0-.2-.3-.4-.5-.5-.2,0-.4,0-.5.1,0,0,0,0,0,0-.4-.3-1.7-1.4-1.8-1.6,1-.4,2.1-.8,3.1-1.2,0,0,0,0,0,.1.1.2.4.4.7.3.4,0,.6-.5.4-.8,0-.1-.2-.2-.3-.3Z"/>
  <path class="st3" d="M39.8,18.5s0,0,0,0c-.2-.1-.4-.1-.6,0,0,0,0,0-.1.1-.4,0-.8-.2-1.2-.3,0,0,.1-.1.1-.2.4-.4.8-.9,1.2-1.3.1-.1.2-.3.4-.3,0,0,0,0,0-.1,0,0,0-.1,0-.1,0,0-.1,0-.1,0,0,0-.1.2-.2.2-.4.4-.8.8-1.2,1.3,0,0,0,0-.1,0,0,0,0-.1,0-.2.1-.3.3-.6.4-.9,0-.2.2-.4.4-.5,0,0,0-.1,0-.1,0,0-.1,0-.1,0,0,.1-.2.3-.2.4,0,.1-.1.2-.2.4-.1.3-.3.6-.4.9,0,0,0,0,0,.1v-1.7c0,0,.1,0,.2,0,.2,0,.4-.1.5-.3,0-.2,0-.3-.2-.5,0,0,0,0,0,0-.2-.1-.4,0-.6,0-.2.2-.2.4,0,.6,0,.1.1.2,0,.4,0,0,0,.1,0,.2,0,.3,0,.6,0,.9,0,.2,0,.4,0,.6,0,0,0-.1-.1-.2-.1-.3-.2-.5-.4-.8,0-.2-.2-.3-.1-.5,0,0-.1,0-.2,0,0,0,0,.1,0,.2.1.3.3.5.4.8,0,0,0,.1,0,.2-.2-.2-.4-.4-.6-.5-.2-.2-.4-.4-.7-.5,0,0,0,0,0-.1,0,0,0,0-.1,0,0,0,0,0-.1,0,0,.1,0,.2.1.2.2,0,.3.1.4.2.4.4.8.8,1.1,1.2,0,0,0,0,0,.1-.1,0-.2-.1-.3-.2-.3-.2-.6-.3-1-.5,0,0-.1,0-.1-.1,0-.2-.1-.3-.2-.4-.1-.1-.3-.1-.5,0-.2,0-.3.3-.2.5,0,.2.1.3.3.4.2,0,.3,0,.5-.1,0,0,0,0,.1-.1.3.2.6.3.8.4.1,0,.3.1.4.2.3.1.5.3.6.6.1.3.3.5.5.8,0,.2.2.3.1.5,0,0,0,0,0,.1,0,0,0,0,.1,0,0,0,0,0,0-.2-.2-.4-.4-.8-.7-1.1,0-.1-.2-.2-.2-.3,0,0,0,0,0,0,.4.1.7.2,1,.3,0,0,0,0,0,.1,0,.2.2.4.4.4.2,0,.5-.1.5-.3,0-.2,0-.3-.2-.5Z"/>
  <path class="st0" d="M144.9,41.3c-1.5,1.3-3.3,2-5.3,2-4.7,0-7-2.5-7-7.4s.6-4.3,1.8-5.7c1.2-1.4,2.8-2.1,4.9-2.1s3.5.5,4.8,1.5v-5.3c-1.3-.5-2.8-.8-4.4-.8-3.9,0-7,1.1-9.3,3.4-2.3,2.3-3.4,5.2-3.4,8.9s1,6.7,3.1,8.8c2.1,2.1,4.9,3.2,8.5,3.2s3-.1,4.2-.4c1.2-.3,2.6-.9,4.1-1.9l-2-4.3Z"/>
  <path class="st0" d="M73.6,25.7v-.4l-5.5,1.3v20.9h5.5v-21.7h0Z"/>
  <path class="st0" d="M68.1,19.2v5.3l5.5-1.3v-3.9h-5.5Z"/>
  <path class="st0" d="M61.9,41.3c-1.5,1.3-3.3,2-5.3,2-4.7,0-7-2.5-7-7.4s.6-4.3,1.8-5.7c1.2-1.4,2.8-2.1,4.9-2.1s3.5.5,4.8,1.5v-5.3c-1.3-.5-2.8-.8-4.4-.8-3.9,0-7,1.1-9.3,3.4-2.3,2.3-3.4,5.2-3.4,8.9s1,6.7,3.1,8.8c2.1,2.1,4.9,3.2,8.5,3.2s3-.1,4.2-.4c1.2-.3,2.6-.9,4.1-1.9l-2-4.3Z"/>
  <path class="st0" d="M98.5,40.3c0,.1,0,.2,0,.4V14.1l-5.4,1.3v9.4c-1.4-.7-3.1-1.1-4.8-1.1-3.2,0-5.9,1.2-8,3.5-2.1,2.3-3.2,5.3-3.2,9s.9,6.6,2.8,8.6c1.9,2.1,4.4,3.1,7.7,3.1s2.3-.2,3.3-.6c1.1-.4,1.8-.8,2.3-1.3.3-.3.5-.6.7-.9.2.7.6,1.3,1.2,1.9.6.6,1.3.9,2,.9s1.3,0,1.8-.3c.5-.2,1-.7,1.4-1.5-1.2-.8-1.8-2.8-1.8-5.9ZM89.6,43.3c-4.7,0-7-2.4-7-7.3s.6-4.4,1.8-5.7c1.2-1.3,2.9-2,5-2s2.5.5,3.6,1.4v10.8c-.3,1.1-.9,2-1.8,2.5,0,0,0,0,0,0-.7.2-1.2.4-1.7.4ZM93,40.4c0-.2,0-.3,0-.5,0,.2,0,.3,0,.5Z"/>
  <path class="st0" d="M122.8,40.3v-5c0-4.5-.8-7.6-2.5-9.2-1.7-1.6-4.3-2.4-7.8-2.4s-3.4.2-4.8.6v4.6c1.2-.5,2.7-.7,4.4-.7,3.5,0,5.2,1.4,5.2,4.1-.9-.2-1.6-.3-2.3-.3-3.7,0-6.6.8-8.6,2.3-2,1.5-3,3.6-3,6.3s.7,4.1,2.2,5.4c1.4,1.3,3.4,1.9,5.9,1.9s2.6-.3,3.8-.8c1.2-.5,2.1-1.2,2.6-2,.2.7.6,1.3,1.3,1.9.6.6,1.3.9,2.1.9s1.3,0,1.9-.3c.6-.2,1.1-.7,1.5-1.5-1.2-.8-1.9-2.8-1.9-5.9ZM117.4,38.6c0,3.3-1.6,4.9-4.9,4.9s-3.6-1-3.6-3.1,2.1-4.2,6.4-4.2,1.2,0,2.1.3v2.2Z"/>
  <path class="st0" d="M164,36.7c-.9-1.2-2.4-2.1-4.4-2.9-2-.8-3.4-1.5-4-1.9-.6-.5-.9-1-.9-1.6,0-1.5.9-2.3,2.9-2.3s3.8.5,5,1.5h0v-4.9c-1.7-.6-3.4-.9-5.3-.9s-4.4.6-5.9,1.7c-1.5,1.1-2.3,2.7-2.3,4.7,0,3,2,5.4,6,7,1.8.8,3.1,1.4,3.7,2,.6.6,1,1.3,1,2.2,0,1.5-1.1,2.3-3.2,2.3s-3.8-.6-5.4-1.8v5.3c.6.2,1.1.4,1.5.5.9.3,2.2.4,3.7.4,2.8,0,4.9-.6,6.5-1.9,1.6-1.2,2.4-3,2.4-5.1s-.5-3-1.4-4.2Z"/>
  <path class="st0" d="M174.7,30.2l-.3.7c-.3-.2-.7-.3-1.3-.3s-1,.2-1.3.7c-.3.5-.5,1.1-.5,1.9s.2,1.3.5,1.8c.3.4.8.7,1.3.7s1-.2,1.4-.6l.5.7c-.5.5-1.1.8-1.9.8s-1.5-.3-2-.9c-.5-.6-.7-1.4-.7-2.4s.3-1.7.8-2.4c.5-.6,1.2-.9,2-.9.7,0,1.2.1,1.6.3Z"/>
  <path class="st0" d="M179.7,34h-3.3c0,.5.2,1,.4,1.3.3.3.6.4,1,.4s.9-.1,1.2-.4l.3.6c-.1.1-.3.2-.6.3-.3.1-.7.2-1.1.2-.6,0-1.1-.2-1.5-.6-.5-.4-.7-1-.7-1.8s.2-1.4.7-1.8c.4-.4.9-.6,1.5-.6s1.2.2,1.5.6c.4.4.5.8.5,1.4,0,.2,0,.3,0,.5ZM177.7,32.2c-.4,0-.7.1-.9.4-.2.2-.4.5-.4.8h2.6c0-.3-.1-.6-.3-.8-.2-.2-.5-.4-.9-.4Z"/>
  <path class="st0" d="M183.5,36.3v-2.7c0-.5,0-.8-.2-1-.1-.2-.4-.3-.7-.3s-.4,0-.6.2c-.2.1-.4.2-.5.4v3.4h-.8v-4.6h.6l.3.6c.3-.5.7-.7,1.3-.7,1,0,1.5.6,1.5,1.9v2.9h-.8Z"/>
  <path class="st0" d="M185.8,32.3h-.5v-.7h.5v-1l.8-.3v1.3h1.3v.7h-1.3v2.3c0,.4,0,.7.2.8.1.2.3.2.6.2s.4,0,.6-.2v.7c-.2,0-.6.1-1,.1s-.7-.1-.9-.4c-.3-.3-.4-.6-.4-1v-2.6Z"/>
  <path class="st0" d="M191.5,32.4c-.2-.1-.4-.2-.5-.2-.3,0-.5.1-.8.4-.2.3-.3.6-.3,1v2.7h-.8v-4.6h.8v.7c.3-.6.7-.8,1.3-.8s.4,0,.6,0l-.3.8Z"/>
  <path class="st0" d="M192.1,33.9c0-.7.2-1.3.6-1.7.4-.4.9-.7,1.5-.7s1.2.2,1.5.6c.4.4.5,1,.5,1.8s-.2,1.3-.6,1.8c-.4.4-.9.6-1.5.6s-1.2-.2-1.5-.7c-.4-.4-.5-1-.5-1.8ZM193,33.9c0,1.2.4,1.7,1.2,1.7s.7-.2.9-.5c.2-.3.3-.7.3-1.3,0-1.1-.4-1.7-1.2-1.7s-.7.2-.9.5c-.2.3-.3.7-.3,1.3Z"/>
  <path class="st0" d="M202.8,36.3v-.3c-.3.3-.7.4-1.2.4s-1-.2-1.4-.6c-.4-.4-.5-1-.5-1.7s.2-1.3.6-1.8c.4-.5.9-.7,1.5-.7s.8.1,1.1.3v-2.1h.8v6.5h-.8ZM202.8,32.7c-.2-.3-.5-.5-.8-.5s-.8.2-1.1.5c-.3.3-.4.7-.4,1.3,0,1.1.5,1.7,1.5,1.7s.3,0,.5-.1c.2,0,.3-.2.3-.3v-2.6h0Z"/>
  <path class="st0" d="M208.7,34h-3.3c0,.5.2,1,.4,1.3.3.3.6.4,1,.4s.9-.1,1.2-.4l.3.6c-.1.1-.3.2-.6.3-.3.1-.7.2-1.1.2-.6,0-1.1-.2-1.5-.6-.5-.4-.7-1-.7-1.8s.2-1.4.7-1.8c.4-.4.9-.6,1.5-.6s1.2.2,1.6.6c.4.4.5.8.5,1.4,0,.2,0,.3,0,.5ZM206.7,32.2c-.4,0-.7.1-.9.4-.2.2-.4.5-.4.8h2.6c0-.3-.1-.6-.3-.8-.2-.2-.5-.4-.9-.4Z"/>
  <path class="st0" d="M212.5,36.3v-6.3h.9v6.3h-.9Z"/>
  <path class="st0" d="M217.6,36.3v-2.7c0-.5,0-.8-.2-1-.2-.2-.4-.3-.7-.3s-.4,0-.6.2c-.2.1-.4.2-.5.4v3.4h-.8v-4.6h.6l.3.6c.3-.5.7-.7,1.3-.7,1,0,1.5.6,1.5,1.9v2.9h-.8Z"/>
  <path class="st0" d="M219.9,32.3h-.5v-.7h.5v-1l.8-.3v1.3h1.3v.7h-1.3v2.3c0,.4,0,.7.2.8.1.2.3.2.6.2s.4,0,.6-.2v.7c-.2,0-.6.1-1,.1s-.7-.1-.9-.4c-.2-.3-.4-.6-.4-1v-2.6Z"/>
  <path class="st0" d="M227,34h-3.3c0,.5.1,1,.4,1.3.3.3.6.4,1,.4s.9-.1,1.2-.4l.3.6c-.1.1-.3.2-.6.3-.3.1-.7.2-1.1.2-.6,0-1.1-.2-1.5-.6-.5-.4-.7-1-.7-1.8s.2-1.4.7-1.8c.4-.4.9-.6,1.5-.6s1.2.2,1.6.6c.4.4.5.8.5,1.4s0,.3,0,.5ZM225,32.2c-.4,0-.7.1-.9.4-.2.2-.4.5-.4.8h2.6c0-.3,0-.6-.3-.8-.2-.2-.5-.4-.9-.4Z"/>
  <path class="st0" d="M227.7,37.5l.4-.7c.5.3.9.5,1.3.5s.7,0,.9-.2c.2-.1.3-.3.3-.5,0-.4-.3-.6-.8-.6s-.3,0-.5,0c-.2,0-.4,0-.6,0-.7,0-1-.2-1-.7s0-.3.2-.4c.2-.1.3-.2.6-.3-.7-.3-1-.8-1-1.6s.2-.9.5-1.2c.3-.3.8-.5,1.3-.5s.8,0,1.1.3l.4-.5.5.5-.5.4c.2.3.3.6.3,1.1s-.1.9-.4,1.2c-.3.3-.7.5-1.1.5h-.7c0,0-.2.1-.3.2-.1,0-.2.1-.2.2s.1.2.4.2.3,0,.6,0c.3,0,.5,0,.6,0,.5,0,.8.1,1.1.3.3.2.4.5.4.9s-.2.8-.6,1c-.4.3-.9.4-1.4.4s-.6,0-.9-.2c-.3-.1-.6-.2-.8-.4ZM229.5,32.2c-.3,0-.5,0-.7.3-.2.2-.3.4-.3.7s0,.6.3.8c.2.2.4.3.7.3s.5-.1.7-.3c.2-.2.2-.5.2-.8s0-.5-.3-.7c-.2-.2-.4-.3-.7-.3Z"/>
  <path class="st0" d="M234.8,32.4c-.2-.1-.4-.2-.5-.2-.3,0-.5.1-.8.4-.2.3-.3.6-.3,1v2.7h-.8v-4.6h.8v.7c.3-.6.7-.8,1.3-.8s.4,0,.6,0l-.3.8Z"/>
  <path class="st0" d="M238.4,35.7c-.3.4-.8.6-1.5.6s-.7-.1-.9-.4c-.3-.3-.4-.6-.4-1s.2-.9.6-1.2c.4-.3.9-.5,1.6-.5s.4,0,.6.1c0-.7-.3-1.1-1-1.1s-.9.1-1.2.4l-.3-.7c.2-.1.4-.2.6-.3.3,0,.5-.1.8-.1.7,0,1.2.2,1.5.5.3.3.5.8.5,1.5v1.7c0,.4.1.7.4.8v.4c-.3,0-.6,0-.8-.1-.2,0-.3-.3-.4-.5ZM238.3,34c-.3,0-.4,0-.5,0-.4,0-.8.1-1,.3-.3.2-.4.5-.4.8,0,.5.3.7.9.7s.8-.2,1.1-.6v-1.1Z"/>
  <path class="st0" d="M243.9,32l-.4.6c0,0-.2-.2-.4-.2-.2,0-.4-.1-.6-.1-.4,0-.8.2-1.1.5-.3.3-.4.7-.4,1.3s.1,1,.4,1.2c.3.3.6.4,1.1.4s.7-.1,1.1-.4l.3.7c-.4.3-1,.4-1.6.4s-1.1-.2-1.6-.6c-.4-.4-.6-1-.6-1.7s.2-1.3.6-1.8c.4-.4,1-.7,1.8-.7s.5,0,.8.2c.3.1.5.2.6.3ZM241.6,38.2v-.4c.1,0,.3,0,.5-.1.1,0,.2-.2.2-.3,0-.2-.1-.3-.4-.3v-.5c.3,0,.5,0,.7.2.2.2.2.4.2.6s-.1.5-.3.6c-.2.2-.5.2-.9.2Z"/>
  <path class="st0" d="M247.4,35.7c-.3.4-.8.6-1.5.6s-.7-.1-.9-.4c-.3-.3-.4-.6-.4-1s.2-.9.6-1.2c.4-.3.9-.5,1.6-.5s.4,0,.6.1c0-.7-.3-1.1-1-1.1s-.9.1-1.2.4l-.3-.7c.2-.1.4-.2.6-.3.3,0,.5-.1.8-.1.7,0,1.2.2,1.5.5.3.3.5.8.5,1.5v1.7c0,.4.1.7.4.8v.4c-.3,0-.6,0-.7-.1-.2,0-.3-.3-.4-.5ZM247.8,29.8c-.2.6-.4.9-.8.9s-.4,0-.6-.2c-.2-.1-.4-.2-.5-.2-.2,0-.4.1-.5.3h-.4c0-.2.1-.5.3-.6.1-.2.3-.3.5-.3s.5,0,.7.2c.2.1.4.2.5.2.2,0,.4-.1.5-.3h.4ZM247.3,34c-.3,0-.4,0-.5,0-.4,0-.8.1-1,.3-.3.2-.4.5-.4.8,0,.5.3.7.9.7s.8-.2,1.1-.6v-1.1Z"/>
  <path class="st0" d="M249.1,33.9c0-.7.2-1.3.6-1.7.4-.4.9-.7,1.5-.7s1.2.2,1.5.6c.4.4.5,1,.5,1.8s-.2,1.3-.6,1.8c-.4.4-.9.6-1.5.6s-1.2-.2-1.5-.7c-.4-.4-.6-1-.6-1.8ZM250,33.9c0,1.2.4,1.7,1.2,1.7s.7-.2.9-.5c.2-.3.3-.7.3-1.3,0-1.1-.4-1.7-1.2-1.7s-.7.2-.9.5c-.2.3-.3.7-.3,1.3Z"/>
  <path class="st0" d="M259.8,36.3v-.3c-.3.3-.7.4-1.2.4s-1-.2-1.4-.6c-.4-.4-.5-1-.5-1.7s.2-1.3.6-1.8c.4-.5.9-.7,1.5-.7s.8.1,1.1.3v-2.1h.8v6.5h-.8ZM259.8,32.7c-.2-.3-.5-.5-.9-.5s-.8.2-1.1.5c-.3.3-.4.7-.4,1.3,0,1.1.5,1.7,1.5,1.7s.3,0,.5-.1c.2,0,.3-.2.3-.3v-2.6Z"/>
  <path class="st0" d="M265.7,34h-3.3c0,.5.1,1,.4,1.3.3.3.6.4,1,.4s.9-.1,1.2-.4l.3.6c-.1.1-.3.2-.6.3-.3.1-.7.2-1.1.2-.6,0-1.1-.2-1.5-.6-.5-.4-.7-1-.7-1.8s.2-1.4.7-1.8c.4-.4.9-.6,1.5-.6s1.2.2,1.6.6c.4.4.5.8.5,1.4s0,.3,0,.5ZM263.7,32.2c-.4,0-.7.1-.9.4-.2.2-.4.5-.4.8h2.6c0-.3-.1-.6-.3-.8-.2-.2-.5-.4-.9-.4Z"/>
  <path class="st0" d="M270.6,36.3h-1.3v-6.3c.8,0,1.3,0,1.6,0,.9,0,1.6.3,2.1.8.5.5.8,1.3.8,2.1,0,2.3-1.1,3.4-3.2,3.4ZM270.2,30.7v4.7c.2,0,.4,0,.7,0,.6,0,1.1-.2,1.4-.7.3-.5.5-1.1.5-1.9,0-1.5-.7-2.3-2-2.3s-.3,0-.6,0Z"/>
  <path class="st0" d="M277.3,35.7c-.3.4-.8.6-1.5.6s-.7-.1-.9-.4c-.3-.3-.4-.6-.4-1s.2-.9.6-1.2c.4-.3.9-.5,1.6-.5s.4,0,.6.1c0-.7-.3-1.1-1-1.1s-.9.1-1.2.4l-.3-.7c.2-.1.4-.2.6-.3.3,0,.5-.1.8-.1.7,0,1.2.2,1.5.5.3.3.5.8.5,1.5v1.7c0,.4.1.7.4.8v.4c-.3,0-.6,0-.7-.1-.2,0-.3-.3-.4-.5ZM277.2,34c-.3,0-.4,0-.5,0-.4,0-.8.1-1,.3-.3.2-.4.5-.4.8,0,.5.3.7.9.7s.8-.2,1.1-.6v-1.1Z"/>
  <path class="st0" d="M282.3,36.3v-.3c-.3.3-.7.4-1.2.4s-1-.2-1.4-.6c-.4-.4-.5-1-.5-1.7s.2-1.3.6-1.8c.4-.5.9-.7,1.5-.7s.8.1,1.1.3v-2.1h.8v6.5h-.8ZM282.3,32.7c-.2-.3-.5-.5-.8-.5s-.8.2-1.1.5c-.3.3-.4.7-.4,1.3,0,1.1.5,1.7,1.5,1.7s.3,0,.5-.1c.2,0,.3-.2.3-.3v-2.6h0Z"/>
  <path class="st0" d="M284,33.9c0-.7.2-1.3.6-1.7.4-.4.9-.7,1.5-.7s1.2.2,1.5.6c.4.4.5,1,.5,1.8s-.2,1.3-.6,1.8c-.4.4-.9.6-1.5.6s-1.2-.2-1.5-.7c-.4-.4-.6-1-.6-1.8ZM284.8,33.9c0,1.2.4,1.7,1.2,1.7s.7-.2.9-.5c.2-.3.3-.7.3-1.3,0-1.1-.4-1.7-1.2-1.7s-.7.2-.9.5c-.2.3-.3.7-.3,1.3Z"/>
  <path class="st0" d="M288.7,36l.3-.8c.5.3.8.5,1.1.5.5,0,.8-.2.8-.6s-.2-.6-.7-.8c-.4-.2-.6-.3-.8-.4-.1,0-.2-.2-.3-.3,0-.1-.2-.2-.2-.4,0-.1,0-.3,0-.4,0-.4.1-.7.4-.9.3-.2.6-.3,1.1-.3s.8.1,1.3.3l-.2.8c-.3-.3-.7-.4-1-.4s-.4,0-.5.1c-.1,0-.2.2-.2.4,0,.3.2.5.5.7l.6.3c.4.2.6.3.8.6.2.2.2.5.2.8s-.1.7-.4,1c-.3.2-.7.4-1.2.4s-.9-.1-1.4-.4Z"/>
  <path class="st0" d="M174.5,43.8h-3.3c0,.5.1,1,.4,1.2.3.3.6.4,1,.4s.9-.1,1.2-.4l.3.6c-.1.1-.3.2-.6.3-.3.1-.7.2-1.1.2-.6,0-1.1-.2-1.5-.6-.4-.4-.7-1-.7-1.8s.2-1.4.7-1.8c.4-.4.9-.6,1.5-.6s1.2.2,1.6.6c.4.4.5.8.5,1.4s0,.3,0,.5ZM172.5,42c-.4,0-.7.1-.9.4-.2.2-.4.5-.4.8h2.6c0-.3-.1-.6-.3-.8-.2-.2-.5-.4-.9-.4Z"/>
  <path class="st0" d="M182.2,40l-.3.7c-.3-.2-.7-.3-1.3-.3s-1,.2-1.3.7c-.3.5-.5,1.1-.5,1.9s.2,1.3.5,1.8c.3.5.8.7,1.3.7s1-.2,1.4-.6l.5.7c-.5.5-1.1.7-1.9.7s-1.5-.3-2-.9c-.5-.6-.7-1.4-.7-2.4s.3-1.7.8-2.4c.5-.6,1.2-.9,2-.9s1.2.1,1.6.3Z"/>
  <path class="st0" d="M183.1,43.7c0-.7.2-1.3.6-1.7.4-.4.9-.7,1.5-.7s1.2.2,1.5.6c.4.4.5,1,.5,1.8s-.2,1.3-.6,1.8c-.4.4-.9.6-1.5.6s-1.2-.2-1.5-.7c-.4-.4-.5-1-.5-1.8ZM184,43.7c0,1.2.4,1.7,1.2,1.7s.7-.2.9-.5c.2-.3.3-.7.3-1.3,0-1.1-.4-1.7-1.2-1.7s-.7.2-.9.5c-.2.3-.3.7-.3,1.3Z"/>
  <path class="st0" d="M191,46.1v-2.7c0-.5,0-.8-.2-1-.1-.2-.4-.3-.7-.3s-.4,0-.6.2c-.2.1-.4.3-.5.4v3.4h-.8v-4.6h.6l.3.6c.3-.5.7-.7,1.3-.7,1,0,1.5.6,1.5,1.9v2.9h-.8Z"/>
  <path class="st0" d="M195.8,46.1v-2.9c0-.3,0-.6-.3-.8-.2-.2-.4-.3-.7-.3s-.4,0-.6.2c-.2.1-.4.3-.5.4v3.4h-.8v-6.5h.8v2.4c.1-.2.3-.3.5-.4.2-.1.5-.2.8-.2.5,0,.9.2,1.1.5.3.3.4.8.4,1.3v2.9h-.8Z"/>
  <path class="st0" d="M201.7,43.8h-3.3c0,.5.2,1,.4,1.2.3.3.6.4,1,.4s.9-.1,1.2-.4l.3.6c-.1.1-.3.2-.6.3-.3.1-.7.2-1.1.2s-1.1-.2-1.5-.6c-.5-.4-.7-1-.7-1.8s.2-1.4.7-1.8c.4-.4.9-.6,1.5-.6s1.2.2,1.6.6c.4.4.5.8.5,1.4,0,.2,0,.3,0,.5ZM199.7,42c-.4,0-.7.1-.9.4-.2.2-.4.5-.4.8h2.6c0-.3-.1-.6-.3-.8-.2-.2-.5-.4-.9-.4Z"/>
  <path class="st0" d="M206.1,41.8l-.4.6c0,0-.2-.2-.4-.2-.2,0-.4-.1-.6-.1-.4,0-.8.2-1.1.5-.3.3-.4.7-.4,1.3s.1,1,.4,1.2c.3.3.6.4,1.1.4s.7-.1,1.1-.4l.3.7c-.4.3-1,.4-1.6.4s-1.2-.2-1.6-.6c-.4-.4-.6-1-.6-1.7s.2-1.3.6-1.8c.4-.4,1-.7,1.8-.7s.5,0,.8.2c.3.1.5.2.6.3Z"/>
  <path class="st0" d="M207.4,46.1v-3.9h-.6v-.7h1.5v4.6h-.8ZM207.9,39.7c.1,0,.3,0,.4.2.1,0,.2.2.2.4s0,.3-.2.4c0,.1-.2.1-.4.1s-.3,0-.4-.1c0-.1-.1-.2-.1-.4s0-.3.1-.4c.1,0,.2-.1.4-.1Z"/>
  <path class="st0" d="M214.9,46.1v-2.9c0-.7-.3-1.1-.9-1.1s-.4,0-.6.2c-.2.1-.3.3-.4.4v3.4h-.8v-3.3c0-.2,0-.4-.3-.5-.2-.1-.4-.2-.7-.2s-.3,0-.5.2c-.2.1-.3.3-.4.4v3.4h-.8v-4.6h.5l.3.5c.3-.4.7-.6,1.2-.6s1.1.2,1.4.6c0-.2.3-.3.5-.4.2-.1.5-.2.8-.2.5,0,.9.1,1.1.4.3.3.4.7.4,1.2v3.1h-.8Z"/>
  <path class="st0" d="M220.8,43.8h-3.3c0,.5.1,1,.4,1.2.3.3.6.4,1,.4s.9-.1,1.2-.4l.3.6c-.1.1-.3.2-.6.3-.3.1-.7.2-1.1.2-.6,0-1.1-.2-1.5-.6-.5-.4-.7-1-.7-1.8s.2-1.4.7-1.8c.4-.4.9-.6,1.5-.6s1.2.2,1.5.6c.4.4.5.8.5,1.4,0,.2,0,.3,0,.5ZM218.8,42c-.4,0-.7.1-.9.4-.2.2-.4.5-.4.8h2.6c0-.3-.1-.6-.3-.8-.2-.2-.5-.4-.9-.4Z"/>
  <path class="st0" d="M224.5,46.1v-2.7c0-.5,0-.8-.2-1-.1-.2-.4-.3-.7-.3s-.4,0-.6.2c-.2.1-.4.3-.5.4v3.4h-.8v-4.6h.6l.3.6c.3-.5.7-.7,1.3-.7,1,0,1.5.6,1.5,1.9v2.9h-.8Z"/>
  <path class="st0" d="M226.8,42.1h-.5v-.7h.5v-1l.8-.3v1.3h1.3v.7h-1.3v2.3c0,.4,0,.7.2.8.1.2.3.2.6.2s.4,0,.7-.2v.7c-.2,0-.6.1-1,.1s-.7-.1-.9-.4c-.3-.3-.4-.6-.4-1v-2.6h0Z"/>
  <path class="st0" d="M229.7,43.7c0-.7.2-1.3.6-1.7.4-.4.9-.7,1.5-.7s1.2.2,1.5.6c.4.4.5,1,.5,1.8s-.2,1.3-.6,1.8c-.4.4-.9.6-1.5.6s-1.2-.2-1.5-.7c-.4-.4-.6-1-.6-1.8ZM230.6,43.7c0,1.2.4,1.7,1.2,1.7s.7-.2.9-.5c.2-.3.3-.7.3-1.3,0-1.1-.4-1.7-1.2-1.7s-.7.2-.9.5c-.2.3-.3.7-.3,1.3Z"/>
  <path class="st0" d="M234.5,45.8l.3-.8c.5.3.8.5,1.1.5.5,0,.8-.2.8-.6s-.2-.6-.7-.8c-.4-.2-.6-.3-.8-.4-.1,0-.2-.2-.3-.3,0-.1-.2-.2-.2-.4,0-.1,0-.3,0-.4,0-.4.1-.7.4-.9.3-.2.6-.3,1.1-.3s.8.1,1.3.3l-.2.8c-.3-.3-.7-.4-1-.4s-.4,0-.5.1c-.1,0-.2.2-.2.4,0,.3.2.5.5.7l.6.3c.4.2.6.4.8.6.2.2.2.5.2.8s-.1.7-.4,1c-.3.2-.7.4-1.2.4-.5,0-.9-.1-1.4-.4Z"/>
  <path class="st0" d="M241.8,45.8v2.1h-.8v-6.5h.8v.4c.3-.3.7-.5,1.1-.5.7,0,1.2.2,1.5.6.4.4.6,1,.6,1.8s-.2,1.3-.6,1.7c-.4.4-.9.7-1.6.7s-.4,0-.6-.1c-.2,0-.4-.2-.4-.2ZM241.8,42.4v2.7c0,0,.2.2.3.2.2,0,.3.1.5.1,1,0,1.5-.6,1.5-1.7s-.1-1-.4-1.3c-.2-.3-.6-.4-1.2-.4s-.3,0-.4.1c-.2,0-.3.2-.4.3Z"/>
  <path class="st0" d="M248.6,45.5c-.3.4-.8.6-1.5.6s-.7-.1-.9-.4c-.3-.3-.4-.6-.4-1s.2-.9.6-1.2c.4-.3.9-.5,1.6-.5s.4,0,.6.1c0-.7-.3-1.1-1-1.1s-.9.1-1.2.4l-.3-.7c.2-.1.4-.2.6-.3.3,0,.5-.1.8-.1.7,0,1.2.2,1.5.5.3.3.5.8.5,1.5v1.7c0,.4.1.7.4.8v.4c-.3,0-.6,0-.7-.1-.2,0-.3-.3-.4-.5ZM248.5,43.8c-.3,0-.4,0-.5,0-.4,0-.8.1-1,.3-.3.2-.4.5-.4.8,0,.5.3.7.9.7s.8-.2,1.1-.6v-1.1h0Z"/>
  <path class="st0" d="M253.1,42.2c-.2-.1-.4-.2-.5-.2-.3,0-.6.1-.8.4-.2.3-.3.6-.3,1v2.7h-.8v-4.6h.8v.7c.3-.6.7-.8,1.3-.8s.4,0,.6,0l-.3.8Z"/>
  <path class="st0" d="M256.6,45.5c-.3.4-.8.6-1.5.6s-.7-.1-.9-.4c-.3-.3-.4-.6-.4-1s.2-.9.6-1.2c.4-.3.9-.5,1.6-.5s.4,0,.6.1c0-.7-.3-1.1-1-1.1s-.9.1-1.2.4l-.3-.7c.2-.1.4-.2.6-.3.3,0,.5-.1.8-.1.7,0,1.2.2,1.5.5.3.3.5.8.5,1.5v1.7c0,.4.1.7.4.8v.4c-.3,0-.6,0-.7-.1-.2,0-.3-.3-.4-.5ZM256.6,43.8c-.3,0-.4,0-.5,0-.4,0-.8.1-1,.3-.3.2-.4.5-.4.8,0,.5.3.7.9.7s.8-.2,1.1-.6v-1.1h0Z"/>
  <path class="st0" d="M261.1,45.8l.3-.8c.2.1.4.2.6.3.2,0,.5.1.6.1.3,0,.6,0,.8-.3.2-.2.3-.4.3-.7s0-.4-.2-.6c-.1-.2-.4-.4-.9-.6l-.5-.2c-.4-.2-.7-.4-.9-.7-.2-.3-.3-.6-.3-1s.2-.9.5-1.2c.3-.3.8-.5,1.3-.5s1.2.1,1.5.3l-.3.8c-.1,0-.3-.2-.5-.2-.2,0-.5-.1-.7-.1-.3,0-.5,0-.7.3-.2.2-.3.4-.3.6s0,.3,0,.4c0,.1.1.2.3.3.1,0,.3.2.7.4l.5.2c.4.2.7.5.9.7.2.3.3.6.3,1.1s-.2.9-.6,1.2c-.4.3-.9.5-1.5.5-.6,0-1-.1-1.4-.4Z"/>
  <path class="st0" d="M268.2,45.5c-.3.4-.8.6-1.5.6s-.7-.1-.9-.4c-.3-.3-.4-.6-.4-1s.2-.9.6-1.2c.4-.3.9-.5,1.6-.5s.4,0,.6.1c0-.7-.3-1.1-1-1.1s-.9.1-1.2.4l-.3-.7c.2-.1.4-.2.6-.3.3,0,.5-.1.8-.1.7,0,1.2.2,1.5.5.3.3.5.8.5,1.5v1.7c0,.4.1.7.4.8v.4c-.3,0-.6,0-.7-.1-.2,0-.3-.3-.4-.5ZM268.1,43.8c-.3,0-.4,0-.6,0-.4,0-.7.1-1,.3-.3.2-.4.5-.4.8,0,.5.3.7.8.7s.8-.2,1.1-.6v-1.1Z"/>
  <path class="st0" d="M271,41.4v3c0,.7.3,1.1.9,1.1s.5,0,.7-.2c.2-.2.4-.3.4-.5v-3.3h.8v4.6h-.8v-.6c0,.2-.3.3-.6.5-.3.2-.6.2-.8.2-.5,0-.9-.1-1.2-.4-.3-.3-.4-.7-.4-1.2v-3h.8ZM272.9,39.1l-1,1.4h-.6l.7-1.4h.9Z"/>
  <path class="st0" d="M278,46.1v-.3c-.3.3-.7.4-1.2.4s-1-.2-1.4-.6c-.4-.4-.5-1-.5-1.7s.2-1.3.6-1.8c.4-.5.9-.7,1.5-.7s.8.1,1.1.3v-2.1h.8v6.5h-.8ZM278,42.5c-.2-.3-.5-.5-.9-.5s-.8.2-1.1.5c-.3.3-.4.7-.4,1.3,0,1.1.5,1.7,1.5,1.7s.3,0,.5-.1c.2,0,.3-.2.3-.3v-2.6h0Z"/>
  <path class="st0" d="M283.9,43.8h-3.3c0,.5.2,1,.4,1.2.3.3.6.4,1,.4s.9-.1,1.2-.4l.3.6c-.1.1-.3.2-.6.3-.3.1-.7.2-1.1.2-.6,0-1.1-.2-1.5-.6-.5-.4-.7-1-.7-1.8s.2-1.4.7-1.8c.4-.4.9-.6,1.5-.6s1.2.2,1.5.6c.4.4.5.8.5,1.4,0,.2,0,.3,0,.5ZM281.9,42c-.4,0-.7.1-.9.4-.2.2-.4.5-.4.8h2.6c0-.3-.1-.6-.3-.8-.2-.2-.5-.4-.9-.4Z"/>
</svg>