<?xml version="1.0" encoding="UTF-8"?>
<svg id="Layer_2" xmlns="http://www.w3.org/2000/svg" version="1.1" viewBox="0 0 79.7 61">
  <!-- Generator: Adobe Illustrator 30.0.0, SVG Export Plug-In . SVG Version: 2.1.1 Build 123)  -->
  <defs>
    <style>
      .st0 {
        fill: #fff;
      }
    </style>
  </defs>
  <g id="Layer_1-2">
    <g>
      <path class="st0" d="M31.5,25.5h-6.9c-.2,0-.3,0-.3.3v13c0,.2,0,.3.3.3h1c.2,0,.3,0,.3-.3v-5.9h3.8c.2,0,.3,0,.3-.3v-.8c0-.2,0-.3-.3-.3h-3.8v-4.7h5.7c.2,0,.3,0,.3-.3v-.8c0-.2,0-.3-.3-.3"/>
      <path class="st0" d="M33.6,25.5h-1c-.2,0-.3,0-.3.3v13c0,.2,0,.3.3.3h1c.2,0,.3,0,.3-.3v-13c0-.2,0-.3-.3-.3"/>
      <path class="st0" d="M42,29.3v5.8c0,.8-.2,1.4-.7,1.8s-1.3.7-2,.7-1.5-.2-1.9-.7-.7-1.1-.7-1.8v-5.8c0-.8.2-1.4.7-1.9.4-.5,1.2-.7,1.9-.7s1.6.2,2,.7.7,1.1.7,1.9M41.6,25.9c-.6-.3-1.5-.5-2.3-.5s-1.6.2-2.2.5c-.6.3-1.1.8-1.4,1.4-.3.6-.5,1.3-.5,2.1v5.7c0,.8.2,1.5.5,2,.3.6.8,1.1,1.4,1.4.6.3,1.4.5,2.2.5s1.7-.2,2.3-.5,1.1-.8,1.4-1.4c.3-.6.5-1.3.5-2v-5.7c0-.8-.2-1.5-.5-2.1s-.8-1.1-1.4-1.4"/>
      <path class="st0" d="M48.7,25.4c-1.2,0-2.2.4-2.9,1s-1.1,1.6-1.1,2.7v6c0,1.1.4,2.1,1.1,2.8.7.7,2,1,3.2,1s2.1-.4,2.8-1c.7-.7,1.1-1.6,1.1-2.7h0c0-.3,0-.4-.3-.4h-1c-.2,0-.3,0-.3.2v.3c0,.7-.2,1.3-.7,1.7-.4.4-1,.7-1.8.7s-1.7-.2-2.1-.7-.7-1-.7-1.7v-6.2c0-.7.2-1.3.7-1.7.4-.4,1.1-.7,1.9-.7s1.6.2,2,.7c.4.4.7,1,.7,1.7v.3q0,.2.3.2h1c.2,0,.3,0,.3-.3v-.2c0-1.1-.4-2-1.1-2.7-.7-.7-1.9-1-3.1-1"/>
      <path class="st0" d="M60.9,29.2c0,.7-.2,1.4-.6,1.9-.4.4-.9.7-1.5.7h-3.1v-4.9h3.1c.6,0,1.1.2,1.5.7.4.4.6,1,.6,1.8M60,32.8h0c.7-.2,1.3-.6,1.7-1.2.4-.6.6-1.5.6-2.4s0-1.4-.4-1.9-.7-1-1.2-1.3-1.1-.5-1.8-.5h-4.5c-.2,0-.3,0-.3.3v13c0,.2,0,.3.3.3h1c.2,0,.3,0,.3-.3v-5.8h2.9l2.4,5.9c0,0,0,.2.3.2h1q.2,0,.2-.2h0c0,0-2.4-6-2.4-6h0Z"/>
      <path class="st0" d="M71.6,25.5h-1c-.2,0-.3,0-.3.3v9.4c0,.8-.2,1.4-.7,1.9-.4.5-1.2.7-2,.7s-1.5-.2-2-.7c-.4-.5-.7-1.1-.7-1.9v-9.4c0-.2,0-.3-.3-.3h-1c-.2,0-.3,0-.3.3v9.3c0,.8.2,1.5.5,2.1s.8,1.1,1.4,1.4c.6.3,1.5.5,2.2.5s1.7-.2,2.2-.5,1.1-.8,1.4-1.4c.3-.6.5-1.3.5-2.1v-9.3c0-.2,0-.3-.3-.3"/>
      <path class="st0" d="M80,26.6v-.9c0-.2,0-.3-.3-.3h-7c-.2,0-.3,0-.3.3v.8c0,.2,0,.3.3.3h5.6l-5.8,10.7v1.3c0,.2,0,.3.3.3h7c.2,0,.3,0,.3-.3v-.8c0-.2,0-.3-.3-.3h-5.6l5.8-10.8v-.3"/>
      <path class="st0" d="M20,38h-3.8l-.8-.8H5.6l-.8.8H1.1v-.3l.5-.5v-9.9l-.3-.3v-.5h.9v-4l.3-.3v-.8h0c0,0-.2-.3-.2-.4,0-.2-.2-.4-.2-.6,0-.7.6-1.3,1.3-1.3s1.3.6,1.3,1.3,0,.5-.3.8h0v.8l.3.3v3.4h2.3l.6-.6v-2.6h2.1v-.7h2.1v.7h2.1v2.5l.6.6h2.3v-3.4l.3-.3v-.8h-.1c0,0-.1-.3-.2-.3-.1-.2-.2-.4-.2-.6,0-.7.6-1.3,1.3-1.3s1.3.6,1.3,1.3,0,.5-.2.8h-.1v.8l.3.3v4h1v.6l-.3.3v9.9l.6.6v.2h0l-.3.3ZM20.9,37.2h0c0,0-.4-.5-.4-.5v-9.3l.3-.3v-1.4s-.2-.2-.3-.2h-.6v-3.6c0,0,0-.2-.2-.3h0c.2-.4.4-.8.4-1.2,0-1-.7-1.9-1.6-2.2h0l-.2-1.1c0-.3-.3-.4-.5-.4s-.4.1-.5.4l-.2,1.1h0c-1,.3-1.7,1.2-1.7,2.3s.1.9.3,1.2h0s-.2.2-.2.3v2.9h-.8v-1.8l.3-.3v-.9c0-.2-.2-.4-.4-.4h-1.3l-.2.3h-.3v-.3c.1,0,0-.2,0-.3,0,0-.2-.2-.3-.2h-3.8c-.1,0-.2,0-.3,0,0,0-.1.2,0,.4v.3h-.3l-.2-.3h-1.3c-.2,0-.4.2-.4.4v.9l.3.3v1.8h-.8v-2.9c0,0,0-.2-.2-.3h0c.2-.4.4-.8.4-1.2,0-1-.7-1.9-1.6-2.2h0l-.2-1.1c0-.3-.3-.4-.5-.4s-.5.2-.5.4l-.2,1.1h0c-1,.3-1.7,1.2-1.7,2.3s.1.9.3,1.2h0c-.1,0-.2.2-.2.3v3.6h-.6c-.1,0-.2,0-.3.2v1.4l.3.3v9.3l-.4.4s0,.2,0,.3v1.3c0,.2.2.4.4.4h4.8l.8-.8h8.9l.8.8h4.8c.2,0,.4-.2.4-.4v-1.5"/>
    </g>
  </g>
</svg>