<?xml version="1.0" encoding="UTF-8"?>
<svg id="Layer_2" xmlns="http://www.w3.org/2000/svg" version="1.1" viewBox="0 0 300 101">
  <!-- Generator: Adobe Illustrator 30.0.0, SVG Export Plug-In . SVG Version: 2.1.1 Build 123)  -->
  <defs>
    <style>
      .st0 {
        fill: #ffcf00;
      }

      .st1, .st2 {
        fill: #055ca8;
      }

      .st3 {
        fill: #1d1c1a;
      }

      .st4 {
        fill: #45b549;
      }

      .st5 {
        fill: #3d3d3d;
      }

      .st2 {
        fill-rule: evenodd;
      }

      .st6 {
        fill: #00cf00;
      }

      .st7 {
        fill: #173dff;
      }

      .st8 {
        fill: #ffd008;
      }

      .st9 {
        fill: #ec2024;
      }
    </style>
  </defs>
  <g>
    <path class="st4" d="M4,60.5c-.3-.1-.7-.2-.7-.2,0,0,.4-.3.5-.3.3-.2.6-.5.8-.7h-1.6c-.4.4-.8.7-1.2,1v1c.6,0,1.8,0,1.7,1,0,.6-.5.9-1.1,1-.6,0-1.3-.4-1.7-.8l-.3,1.4h0c1,.8,2.7.9,3.7.2,0,0,0,0,.1,0,.6-.4.9-1.1.9-1.8,0-.4-.1-.8-.4-1.1-.2-.3-.5-.4-.7-.5"/>
    <path class="st4" d="M4.7,59.1c.3-.4.3-.8.3-1.2H.9v.3c0,0-.3,1-.3,1h4s0,0,0,0"/>
    <path class="st2" d="M11.8,55.7c-2.1,0-3.7-1.5-3.7-3.3v-6.2h2.8v6.5c0,.8.7,1.5,1.6,1.5s1.6-.7,1.6-1.5v-6.5h1.3v6.2c0,1.8-1.6,3.3-3.7,3.3M3.9,51.9l-1.7-.5c-1.1-.4-1.8-1.4-1.8-2.6s1.2-2.7,2.7-2.7h3.4v1.2h-2.4c-.5,0-.9.4-.9.9s.2.7.6.8l1.7.6c1.1.4,1.7,1.5,1.7,2.8s-1.3,3.1-3,3.1H.7v-1.4h3.1c.5,0,1-.5,1-1.1s-.3-.9-.8-1M19.8,51.9l-1.7-.5c-1.1-.4-1.9-1.4-1.9-2.6s1.2-2.7,2.7-2.7h3.4v1.2h-2.4c-.5,0-.9.4-.9.9s.2.7.6.8l1.7.6c1.2.4,1.8,1.5,1.8,2.8s-1.4,3.1-3.1,3.1h-3.6v-1.4h3.1c.5,0,1-.5,1-1.1s-.3-.9-.7-1"/>
    <path class="st2" d="M45.3,56.4h1.2v7.6c-.1-.8-.6-5.4-.5-6.9-.2-.2-.7-.7-.7-.7M36.4,48.3h0l-1.3-1.3c-1.7,0-7.1-.6-8.9-.9v9.8c8.7.9,13.3,1.1,18.4.9h0l-8.4-8.5ZM36.5,45.5h9.8v-9.5h-9.8v9.5ZM28.9,46.1c.6,0,6.4.6,6.7.6l9,9.2h11.6v-9.8h-27.4ZM45.3,57.3s-5.2.4-9.7,0c0,5.4.7,8.2.8,8.8h9.7c-.5-2.8-.8-7.4-.9-8.7"/>
    <path class="st8" d="M9.1,61.3c-.5-.9-1.5-1.1-2.3-1.6l-1.1-.6h3.4l.3-1.3h-3.6l-.5,2.7,2.6,1.4c.3.2.5.6.5.9,0,.4,0,.7-.2,1,.4-.2.8-.5,1-.9.2-.5.2-1.2-.1-1.6"/>
    <path class="st8" d="M7.8,62.1l-2.5,1.2c0,0,0,.1,0,.2.2.3.4.6.6.9,0,0,.3,0,.3,0,.6,0,1.5-.2,1.8-.9.2-.5,0-1.2-.3-1.5"/>
    <path class="st1" d="M20.5,60.9v-3s0,0,0,0h1.3s0,0,0,0v5.9s0,0,0,0c-.1,0-.6,0-.9,0-.3,0-.4-.3-.6-.5-.2-.2-.3-.4-.5-.6-.3-.4-.6-.8-1-1.2-.2-.2-.4-.5-.6-.7,0,0-.1,0-.1,0v2.9c0,0,0,.1,0,.1-.1,0-1.2,0-1.3,0,0,0,0,0,0-.1,0,0,0,0,0,0v-5.8s0,0,0,0c.5-.1.9,0,1.2.3.9.8,1.7,2,2.4,2.8,0,0,0,0,0,0,0,0,.1,0,.1,0"/>
    <path class="st1" d="M29,60.9c0,1.8-1.4,3.2-3.2,3.2s-3.2-1.4-3.2-3.2,1.4-3.2,3.2-3.2,3.2,1.4,3.2,3.2M25.6,59.1c-.8,0-1.1.7-1.2,1.4,0,1.2.3,2.3,1.7,2.1,1.1-.1,1.1-1.5,1.1-2.3,0-.9-.7-1.4-1.6-1.3"/>
    <path class="st1" d="M16.3,63.9h-1.7c0-.2-.3-.9-.4-1h-2.4s-.4,1-.4,1h-1.6l2.3-5.8c.2-.3.7-.3,1-.3.3,0,.6.1.7.4l2.3,5.7ZM13.7,61.6l-.7-1.9-.8,1.9h1.4Z"/>
    <path class="st1" d="M33.4,59.5c-.6-.2-1.2-.4-1.8-.4-.6,0-.8.6-.2.9,1,.5,2.2.4,2.3,1.9.2,2.5-3,2.8-4.3,1.3v-1.3s.3.1.3.1c0,0,.2.1.3.1.6.3,1.2.5,1.9.4.4,0,.3-.5,0-.7-.8-.6-2.3-.6-2.5-2-.3-2.3,2.4-2.7,3.9-1.7v1.2Z"/>
  </g>
  <g>
    <g>
      <path class="st3" d="M185,72.8c.6,0,1.1.2,1.5.6.4.4.6.9.6,1.5s-.2,1.1-.6,1.5c-.4.4-.9.6-1.5.6h-1.7v-4.3h1.7ZM185,76.4c.4,0,.7-.1,1-.4.3-.3.4-.6.4-1.1s-.1-.8-.4-1.1c-.3-.3-.6-.4-1-.4h-1v3h1Z"/>
      <path class="st3" d="M192.1,76.5c-.4.4-1,.7-1.6.7s-1.2-.2-1.6-.7c-.4-.4-.7-1-.7-1.6s.2-1.2.7-1.6c.4-.4,1-.7,1.6-.7s1.2.2,1.6.7c.4.4.7,1,.7,1.6s-.2,1.2-.7,1.6M189.4,76.1c.3.3.7.4,1.1.4s.8-.1,1.1-.4c.3-.3.4-.7.4-1.1s-.1-.8-.4-1.1c-.3-.3-.7-.4-1.1-.4s-.8.1-1.1.4c-.3.3-.4.7-.4,1.1s.1.8.4,1.1"/>
    </g>
    <g>
      <polygon class="st3" points="197.3 76.4 199 76.4 199 77.1 196.6 77.1 196.6 72.8 197.3 72.8 197.3 76.4"/>
      <path class="st3" d="M203.3,77.1l-.3-.9h-1.8l-.3.9h-.8l1.6-4.3h.9l1.6,4.3h-.8ZM201.4,75.6h1.4l-.7-1.9-.7,1.9Z"/>
      <path class="st3" d="M207,72.8c.6,0,1.1.2,1.5.6.4.4.6.9.6,1.5s-.2,1.1-.6,1.5c-.4.4-.9.6-1.5.6h-1.7v-4.3h1.7ZM207,76.4c.4,0,.7-.1,1-.4.3-.3.4-.6.4-1.1s-.1-.8-.4-1.1c-.3-.3-.6-.4-1-.4h-1v3h1Z"/>
      <path class="st3" d="M214.1,76.5c-.4.4-1,.7-1.6.7s-1.2-.2-1.6-.7c-.4-.4-.7-1-.7-1.6s.2-1.2.7-1.6c.4-.4,1-.7,1.6-.7s1.2.2,1.6.7c.4.4.7,1,.7,1.6s-.2,1.2-.7,1.6M211.5,76.1c.3.3.7.4,1.1.4s.8-.1,1.1-.4c.3-.3.4-.7.4-1.1s-.1-.8-.4-1.1c-.3-.3-.7-.4-1.1-.4s-.8.1-1.1.4c-.3.3-.4.7-.4,1.1s.1.8.4,1.1"/>
    </g>
    <g>
      <path class="st3" d="M220.3,72.8c.6,0,1.1.2,1.5.6.4.4.6.9.6,1.5s-.2,1.1-.6,1.5c-.4.4-.9.6-1.5.6h-1.7v-4.3h1.7ZM220.3,76.4c.4,0,.7-.1,1-.4.3-.3.4-.6.4-1.1s-.1-.8-.4-1.1c-.3-.3-.6-.4-1-.4h-1v3h1Z"/>
      <path class="st3" d="M227.4,76.5c-.4.4-1,.7-1.6.7s-1.2-.2-1.6-.7c-.4-.4-.7-1-.7-1.6s.2-1.2.7-1.6c.4-.4,1-.7,1.6-.7s1.2.2,1.6.7c.4.4.7,1,.7,1.6s-.2,1.2-.7,1.6M224.7,76.1c.3.3.7.4,1.1.4s.8-.1,1.1-.4c.3-.3.4-.7.4-1.1s-.1-.8-.4-1.1c-.3-.3-.7-.4-1.1-.4s-.8.1-1.1.4c-.3.3-.4.7-.4,1.1s.1.8.4,1.1"/>
    </g>
    <g>
      <path class="st3" d="M233.5,72.8c.4,0,.7.1,1,.4s.4.6.4,1-.1.7-.4,1-.6.4-1,.4h-.9v1.5h-.7v-4.3h1.6ZM233.5,75c.2,0,.4,0,.5-.2.1-.1.2-.3.2-.5s0-.4-.2-.5c-.1-.1-.3-.2-.5-.2h-.9v1.5h.9Z"/>
      <path class="st3" d="M239.9,76.5c-.4.4-1,.7-1.6.7s-1.2-.2-1.6-.7c-.4-.4-.7-1-.7-1.6s.2-1.2.7-1.6c.4-.4,1-.7,1.6-.7s1.2.2,1.6.7c.4.4.7,1,.7,1.6s-.2,1.2-.7,1.6M237.2,76.1c.3.3.7.4,1.1.4s.8-.1,1.1-.4c.3-.3.4-.7.4-1.1s-.1-.8-.4-1.1c-.3-.3-.7-.4-1.1-.4s-.8.1-1.1.4c-.3.3-.4.7-.4,1.1s.1.8.4,1.1"/>
      <polygon class="st3" points="242.9 77.1 241.4 72.8 242.2 72.8 243.3 76.2 244.5 72.8 245.2 72.8 243.7 77.1 242.9 77.1"/>
      <path class="st3" d="M249.9,76.5c-.4.4-1,.7-1.6.7s-1.2-.2-1.6-.7c-.4-.4-.7-1-.7-1.6s.2-1.2.7-1.6c.4-.4,1-.7,1.6-.7s1.2.2,1.6.7c.4.4.7,1,.7,1.6s-.2,1.2-.7,1.6M247.3,76.1c.3.3.7.4,1.1.4s.8-.1,1.1-.4c.3-.3.4-.7.4-1.1s-.1-.8-.4-1.1c-.3-.3-.7-.4-1.1-.4s-.8.1-1.1.4c-.3.3-.4.7-.4,1.1s.1.8.4,1.1"/>
    </g>
    <g>
      <path class="st3" d="M256.9,74.9c.2,0,.3.2.4.4.1.2.2.4.2.6,0,.4-.1.6-.4.9-.3.2-.6.4-.9.4h-1.9v-4.3h1.7c.4,0,.7.1.9.3.2.2.4.5.4.9s-.1.7-.4.9M256.1,73.5h-1v1.1h1c.2,0,.3,0,.4-.2.1-.1.2-.2.2-.4s0-.3-.2-.4c-.1-.1-.2-.2-.4-.2M256.2,76.4c.2,0,.3,0,.4-.2.1-.1.2-.3.2-.4s0-.3-.2-.4c-.1-.1-.3-.2-.4-.2h-1.1v1.2h1.1Z"/>
      <path class="st3" d="M261.4,77.1l-.9-1.6h-.8v1.6h-.7v-4.3h1.7c.4,0,.7.1,1,.4.3.3.4.6.4,1s0,.5-.2.8c-.2.2-.4.4-.6.5l1,1.7h-.8ZM259.6,73.5v1.4h1c.2,0,.3,0,.5-.2.1-.1.2-.3.2-.5s0-.4-.2-.5c-.1-.1-.3-.2-.5-.2h-1Z"/>
      <path class="st3" d="M266.3,77.1l-.3-.9h-1.8l-.3.9h-.8l1.6-4.3h.9l1.6,4.3h-.8ZM264.4,75.6h1.4l-.7-1.9-.7,1.9Z"/>
      <path class="st3" d="M269.7,77.2c-.4,0-.8,0-1.1-.3-.3-.2-.5-.4-.6-.8l.6-.4c.2.5.5.7,1.1.7s.5,0,.6-.2c.1-.1.2-.2.2-.4s0-.3-.2-.4c-.1,0-.4-.2-.8-.3-.2,0-.4-.1-.5-.2-.1,0-.3-.1-.4-.2-.1,0-.2-.2-.3-.4,0-.1-.1-.3-.1-.5,0-.4.1-.7.4-.9.3-.2.6-.3,1-.3s.6,0,.9.3c.3.2.5.4.6.7l-.6.3c-.2-.4-.5-.6-.9-.6s-.4,0-.5.1c-.1,0-.2.2-.2.4s0,.3.2.4c.1,0,.4.2.7.3.2,0,.3.1.4.1,0,0,.2,0,.3.1s.2.1.3.2c0,0,.1.1.2.2,0,0,.1.2.2.3,0,.1,0,.2,0,.4,0,.4-.1.7-.4.9-.3.2-.7.3-1.1.3"/>
      <rect class="st3" x="272.6" y="72.8" width=".7" height="4.3"/>
      <polygon class="st3" points="275.7 76.4 277.4 76.4 277.4 77.1 275 77.1 275 72.8 275.7 72.8 275.7 76.4"/>
      <polygon class="st3" points="279.5 76.4 281.4 76.4 281.4 77.1 278.8 77.1 278.8 72.8 281.4 72.8 281.4 73.5 279.5 73.5 279.5 74.6 281.2 74.6 281.2 75.3 279.5 75.3 279.5 76.4"/>
      <rect class="st3" x="282.8" y="72.8" width=".7" height="4.3"/>
      <path class="st3" d="M287.7,77.1l-.9-1.6h-.8v1.6h-.7v-4.3h1.7c.4,0,.7.1,1,.4s.4.6.4,1,0,.5-.2.8c-.2.2-.4.4-.6.5l1,1.7h-.8ZM285.9,73.5v1.4h1c.2,0,.3,0,.5-.2.1-.1.2-.3.2-.5s0-.4-.2-.5c-.1-.1-.3-.2-.5-.2h-1Z"/>
      <path class="st3" d="M293.4,76.5c-.4.4-1,.7-1.6.7s-1.2-.2-1.6-.7c-.4-.4-.7-1-.7-1.6s.2-1.2.7-1.6c.4-.4,1-.7,1.6-.7s1.2.2,1.6.7c.4.4.7,1,.7,1.6s-.2,1.2-.7,1.6M290.7,76.1c.3.3.7.4,1.1.4s.8-.1,1.1-.4c.3-.3.4-.7.4-1.1s-.1-.8-.4-1.1c-.3-.3-.7-.4-1.1-.4s-.8.1-1.1.4c-.3.3-.4.7-.4,1.1s.1.8.4,1.1"/>
    </g>
    <g>
      <path class="st3" d="M209.6,26.4v.4c0,1.8-1.2,2.9-2.8,2.9s-3-1.3-3-3,1.3-3,3-3,2,.5,2.5,1.4l-1.3.8c-.3-.5-.7-.7-1.2-.7-.8,0-1.4.6-1.4,1.5s.6,1.5,1.5,1.5,1-.3,1.1-.7h-1.5v-1.2h3.2Z"/>
      <path class="st3" d="M211.5,26.8c0-1.7,1.3-3,3-3s3,1.3,3,3-1.3,3-3,3-3-1.3-3-3M215.9,26.8c0-.8-.6-1.4-1.3-1.4s-1.4.6-1.4,1.4.6,1.4,1.4,1.4,1.3-.6,1.3-1.4"/>
      <polygon class="st3" points="224.7 23.9 222.5 29.7 221 29.7 218.8 23.9 220.4 23.9 221.7 27.5 223.1 23.9 224.7 23.9"/>
      <polygon class="st3" points="228.1 25.3 228.1 26.2 229.7 26.2 229.7 27.4 228.1 27.4 228.1 28.3 230.6 28.3 230.6 29.7 226.5 29.7 226.5 23.9 230.6 23.9 230.6 25.3 228.1 25.3"/>
      <path class="st3" d="M234.9,27.7h-.6v2h-1.5v-5.7h2.8c1.1,0,2,.8,2,1.9s-.4,1.3-1,1.7l1.3,2.2h-1.7l-1.1-2ZM234.3,26.4h1.1c.4,0,.6-.3.6-.5s-.2-.5-.6-.5h-1.1v1.1Z"/>
      <polygon class="st3" points="244.8 23.9 244.8 29.7 243.5 29.7 241.2 26.7 241.2 29.7 239.7 29.7 239.7 23.9 241 23.9 243.3 27 243.3 23.9 244.8 23.9"/>
      <path class="st3" d="M246.8,26.8c0-1.7,1.3-3,3-3s3,1.3,3,3-1.3,3-3,3-3-1.3-3-3M251.1,26.8c0-.8-.6-1.4-1.3-1.4s-1.4.6-1.4,1.4.6,1.4,1.4,1.4,1.3-.6,1.3-1.4"/>
    </g>
    <g>
      <path class="st3" d="M265.4,26.8c0,1.6-1.3,2.9-3,2.9h-2.3v-5.7h2.3c1.7,0,3,1.2,3,2.9M263.8,26.8c0-.8-.6-1.4-1.5-1.4h-.7v2.7h.7c.9,0,1.5-.5,1.5-1.4"/>
      <path class="st3" d="M266.8,26.8c0-1.7,1.3-3,3-3s3,1.3,3,3-1.3,3-3,3-3-1.3-3-3M271.2,26.8c0-.8-.6-1.4-1.3-1.4s-1.4.6-1.4,1.4.6,1.4,1.4,1.4,1.3-.6,1.3-1.4"/>
    </g>
    <g>
      <path class="st7" d="M242.6,66.1c0-6.1-4.9-11-11-11s-11,4.9-11,11h21.9Z"/>
      <polygon class="st0" points="211.7 54.2 199.9 36 199.9 54.2 211.7 54.2"/>
      <rect class="st0" x="177.1" y="48.1" width="10.4" height="18"/>
      <rect class="st0" x="279.2" y="36" width="10.4" height="20"/>
      <rect class="st7" x="289.6" y="56" width="10.4" height="10.1"/>
      <polygon class="st6" points="213.7 66.1 216.5 61.5 211.7 54.2 199.9 54.2 199.9 66.1 213.7 66.1"/>
      <rect class="st6" x="267.1" y="36" width="10.4" height="30"/>
      <path class="st7" d="M189.9,36h-2.4v12.1h2.4c3.3,0,6-2.7,6-6s-2.7-6-6-6"/>
      <rect class="st7" x="254.1" y="36" width="11.2" height="10.9"/>
      <path class="st0" d="M257.5,47h-3.4v19.1h3.4c5.3,0,9.6-4.3,9.6-9.6s-4.3-9.6-9.6-9.6"/>
      <path class="st6" d="M251,36c-3.7,0-6.7,3-6.7,6.7s3,6.7,6.7,6.7h3.1v-13.4h-3.1Z"/>
      <path class="st9" d="M190.9,48.1h-3.4v18h3.4c5,0,9-4,9-9s-4-9-9-9"/>
      <path class="st7" d="M211.7,36h-11.8l11.8,18.1c5,0,9.1-4.1,9.1-9.1s-4.1-9.1-9.1-9.1"/>
      <rect class="st6" x="177.1" y="36" width="10.4" height="12.1"/>
      <polygon class="st9" points="244.3 49.4 244.3 57.4 249.5 66.1 254.1 66.1 254.1 49.4 244.3 49.4"/>
      <polygon class="st5" points="244.3 57.4 244.3 66.1 249.5 66.1 244.3 57.4"/>
      <rect class="st5" x="279.2" y="56" width="10.4" height="10.1"/>
      <polygon class="st5" points="213.7 66.1 219.4 66.1 216.5 61.5 213.7 66.1"/>
      <path class="st0" d="M244.3,66.1v-8.7l-12.7-21.3-15.2,25.5,3,4.6h1.2c0-6.1,4.9-11,11-11s11,4.9,11,11h1.7Z"/>
    </g>
    <g>
      <polygon class="st3" points="80.8 47.6 80.8 43.3 79.1 46.5 78.5 46.5 76.7 43.3 76.7 47.6 75.8 47.6 75.8 41.5 76.8 41.5 78.8 45.2 80.8 41.5 81.8 41.5 81.8 47.6 80.8 47.6"/>
      <rect class="st3" x="84.9" y="41.5" width="1" height="6"/>
      <polygon class="st3" points="89.8 43.3 89.8 47.6 88.9 47.6 88.9 41.5 89.6 41.5 93.1 45.9 93.1 41.6 94 41.6 94 47.6 93.2 47.6 89.8 43.3"/>
      <rect class="st3" x="97.1" y="41.5" width="1" height="6"/>
      <path class="st3" d="M104.7,43c-.1-.1-.4-.3-.7-.4-.3-.1-.6-.2-1-.2s-.7,0-.9.2c-.2.1-.3.3-.3.6s0,.2,0,.2c0,0,0,.1,0,.2,0,0,0,.1.2.1s.1,0,.2.1c0,0,.2,0,.3.1s.2,0,.3,0c.1,0,.2,0,.4.1.3,0,.5.1.7.2.2,0,.4.1.5.2.2,0,.3.2.4.3.1.1.2.3.3.4,0,.2,0,.4,0,.6s0,.5-.1.6c0,.2-.2.4-.3.5-.1.1-.3.2-.5.3-.2,0-.4.2-.6.2-.2,0-.5,0-.7,0-.5,0-.9,0-1.3-.2-.4-.1-.8-.3-1.2-.6l.4-.8c.2.2.5.4.9.5.4.2.8.3,1.2.3s.7,0,.9-.2c.2-.1.3-.3.3-.6s0-.2,0-.3c0,0,0-.2-.2-.2,0,0-.2-.1-.2-.2,0,0-.2,0-.3-.1-.1,0-.3,0-.4-.1-.1,0-.3,0-.5-.1-.3,0-.6-.2-.8-.3-.2,0-.4-.2-.5-.3-.2-.1-.3-.3-.3-.4,0-.2-.1-.4-.1-.6s0-.6.2-.8c.1-.2.3-.4.5-.6.2-.1.4-.3.7-.3.3,0,.6-.1.9-.1.7,0,1.4.2,2,.7l-.4.8Z"/>
      <polygon class="st3" points="112.4 42.4 110.4 42.4 110.4 47.6 109.4 47.6 109.4 42.4 107.4 42.4 107.4 41.6 112.4 41.6 112.4 42.4"/>
      <path class="st3" d="M119,46.7v.8h-4.1v-6h4.1v.8h-3.1v1.7h2.7v.8h-2.7v1.8h3.2ZM117.4,40.9l-.6-.2.5-.9h.9l-.8,1.1Z"/>
      <path class="st3" d="M121.7,47.6v-6h2.6c.3,0,.5,0,.7.2.2.1.4.3.6.5.2.2.3.4.4.6,0,.2.1.5.1.7,0,.4-.1.8-.3,1.1-.2.3-.5.6-.9.7l1.4,2.3h-1.1l-1.3-2.1h-1.4v2.1h-1ZM122.7,44.6h1.7c.3,0,.5-.1.6-.3.2-.2.3-.5.3-.8s0-.6-.3-.8c-.2-.2-.4-.3-.7-.3h-1.6v2.3Z"/>
      <rect class="st3" x="129" y="41.5" width="1" height="6"/>
      <path class="st3" d="M132.7,44.6c0-.4,0-.8.2-1.2.1-.4.3-.7.6-1,.3-.3.6-.5.9-.7.4-.2.7-.3,1.2-.3s.8,0,1.2.3c.4.2.7.4.9.7.2.3.4.6.6,1,.1.4.2.7.2,1.1s0,.8-.2,1.2c-.1.4-.3.7-.6,1-.3.3-.6.5-.9.7-.4.2-.7.3-1.2.3s-.7,0-1-.2c-.3-.1-.6-.3-.8-.5-.2-.2-.4-.4-.6-.7-.2-.3-.3-.5-.4-.8,0-.3-.1-.6-.1-.9M135.6,46.8c.3,0,.6,0,.8-.2.3-.1.5-.3.6-.5.2-.2.3-.4.4-.7,0-.3.1-.5.1-.8s0-.6-.1-.8c0-.3-.2-.5-.4-.7-.2-.2-.4-.4-.6-.5-.2-.1-.5-.2-.8-.2s-.6,0-.8.2c-.2.1-.5.3-.6.5-.2.2-.3.4-.4.7,0,.3-.1.5-.1.8s0,.7.2,1.1c.2.3.4.6.7.8.3.2.6.3,1,.3"/>
      <path class="st3" d="M144.9,47.6v-6h2.1c.5,0,.9,0,1.3.2.4.2.7.4.9.6.2.3.4.6.5,1,.1.4.2.8.2,1.2,0,.9-.3,1.6-.8,2.2-.5.6-1.2.8-2.1.8h-2.1ZM147.1,42.4h-1.2v4.3h1.2c.4,0,.8,0,1.1-.3.3-.2.5-.5.7-.8.2-.3.2-.7.2-1.1,0-.6-.2-1.2-.5-1.6-.4-.4-.8-.6-1.4-.6"/>
      <path class="st3" d="M154.2,41.5h.9l2.3,6h-1l-.6-1.6h-2.3l-.6,1.6h-1l2.4-6ZM155.7,45.2l-1-2.6-1,2.6h2Z"/>
      <path class="st3" d="M126.7,55.4s0,0,0,0c0,0-.1,0-.3-.1-.1,0-.3-.1-.4-.2-.1,0-.3,0-.4-.1-.2,0-.3,0-.4,0-.3,0-.5,0-.5.3s0,0,0,.1c0,0,0,0,0,0s0,0,.1,0,0,0,.2,0c0,0,.1,0,.2,0,0,0,.1,0,.3,0,.1,0,.2,0,.3,0,.2,0,.5.1.6.2.2,0,.3.2.5.3.2.1.3.2.4.3,0,.1.2.3.2.5,0,.2,0,.4,0,.6s0,.5-.1.8c0,.2-.2.4-.4.5-.1.1-.3.3-.5.4-.2,0-.4.2-.6.2-.2,0-.4,0-.7,0-.4,0-.9,0-1.4-.2-.5-.1-.9-.3-1.3-.5l.7-1.5s0,0,.1,0c0,0,.1,0,.3.2.1,0,.3.1.4.2.1,0,.3.1.5.2.2,0,.4,0,.6,0,.3,0,.5,0,.5-.3s0-.1,0-.2c0,0-.1,0-.2-.1,0,0-.2,0-.3-.1,0,0-.2,0-.4-.1-.2,0-.3,0-.4-.1-.5-.2-.9-.4-1.2-.7-.2-.3-.4-.6-.4-1s0-.6.2-.9c.1-.3.3-.5.5-.6.2-.2.4-.3.7-.4.3,0,.6-.1.9-.1.6,0,1.4.2,2.3.7l-.7,1.4Z"/>
      <path class="st3" d="M131.2,53.5h1.9l1.9,6h-1.7l-.4-1.2h-1.6l-.4,1.2h-1.7l1.9-6ZM132.7,57.2l-.5-2.1-.6,2.1h1.1Z"/>
      <path class="st3" d="M139.6,59.6c-.4,0-.7,0-1-.2-.3-.1-.6-.3-.8-.4-.2-.2-.4-.4-.5-.7-.1-.3-.2-.5-.3-.8,0-.3,0-.6,0-.9v-3.1h1.7v3.1c0,.2,0,.4,0,.6,0,.2.1.3.2.5,0,.1.2.3.3.3.1,0,.3.1.5.1s.4,0,.5-.1c.1,0,.3-.2.3-.3,0-.1.1-.3.2-.5,0-.2,0-.4,0-.6v-3.1h1.7v3.1c0,.4,0,.8-.2,1.2-.1.4-.3.7-.5.9-.2.3-.5.5-.9.6-.4.2-.8.2-1.2.2M140.1,53.2l-1-.3.4-1.2h1.4l-.8,1.5Z"/>
      <path class="st3" d="M145,59.5v-6h2.3c.5,0,.9,0,1.3.2.4.2.7.4,1,.6.2.3.4.6.6,1,.1.4.2.8.2,1.2,0,.9-.3,1.6-.8,2.2-.6.6-1.3.8-2.2.8h-2.3ZM147.3,54.9h-.7v3.1h.7c.4,0,.8-.1,1-.4.2-.3.4-.7.4-1.1s-.1-.8-.4-1.1c-.2-.3-.6-.4-1-.4"/>
      <polygon class="st3" points="157 58.1 157 59.5 152.7 59.5 152.7 53.5 157 53.5 157 54.9 154.4 54.9 154.4 55.8 156.6 55.8 156.6 57.1 154.4 57.1 154.4 58.1 157 58.1"/>
    </g>
  </g>
</svg>