<?xml version="1.0" encoding="UTF-8"?>
<svg id="Layer_1" xmlns="http://www.w3.org/2000/svg" version="1.1" viewBox="0 0 260 288.2">
  <!-- Generator: Adobe Illustrator 30.0.0, SVG Export Plug-In . SVG Version: 2.1.1 Build 123)  -->
  <defs>
    <style>
      .st0 {
        fill-rule: evenodd;
      }

      .st0, .st1 {
        fill: #235ba3;
      }

      .st2 {
        fill: #ffcf00;
      }

      .st3 {
        fill: #3d3d3d;
      }

      .st4 {
        fill: #44aa4b;
      }

      .st5 {
        fill: #00cf00;
      }

      .st6 {
        fill: #f0c030;
      }

      .st7 {
        fill: #211d22;
      }

      .st8 {
        fill: #205caa;
      }

      .st9 {
        fill: #173dff;
      }

      .st10 {
        fill: #ec2024;
      }
    </style>
  </defs>
  <path class="st8" d="M124.5,262.2"/>
  <g>
    <g>
      <path d="M33.5,268.4c1.1,0,2,.4,2.7,1.1.7.7,1.1,1.7,1.1,2.8s-.4,2-1.1,2.8c-.7.8-1.6,1.1-2.7,1.1h-3.1v-7.8h3.1ZM33.5,274.9c.7,0,1.3-.3,1.8-.8.5-.5.7-1.1.7-1.9s-.2-1.4-.7-1.9c-.5-.5-1.1-.8-1.8-.8h-1.8v5.3h1.8Z"/>
      <path d="M46.3,275.1c-.8.8-1.7,1.2-2.9,1.2s-2.1-.4-2.9-1.2c-.8-.8-1.2-1.7-1.2-2.9s.4-2.1,1.2-2.9c.8-.8,1.7-1.2,2.9-1.2s2.1.4,2.9,1.2c.8.8,1.2,1.7,1.2,2.9s-.4,2.1-1.2,2.9ZM41.5,274.3c.5.5,1.2.8,2,.8s1.4-.3,2-.8c.5-.5.8-1.2.8-2s-.3-1.5-.8-2c-.5-.5-1.2-.8-2-.8s-1.4.3-2,.8c-.5.5-.8,1.2-.8,2s.3,1.5.8,2Z"/>
      <path d="M55.6,274.9h3.2v1.2h-4.4v-7.8h1.3v6.6Z"/>
      <path d="M66.5,276.2l-.5-1.6h-3.3l-.5,1.6h-1.4l2.8-7.8h1.5l2.8,7.8h-1.4ZM63,273.4h2.5l-1.2-3.5-1.2,3.5Z"/>
      <path d="M73.2,268.4c1.1,0,2,.4,2.7,1.1.7.7,1.1,1.7,1.1,2.8s-.4,2-1.1,2.8c-.7.8-1.6,1.1-2.7,1.1h-3.1v-7.8h3.1ZM73.2,274.9c.7,0,1.3-.3,1.8-.8.5-.5.7-1.1.7-1.9s-.2-1.4-.7-1.9c-.5-.5-1.1-.8-1.8-.8h-1.8v5.3h1.8Z"/>
      <path d="M86,275.1c-.8.8-1.7,1.2-2.9,1.2s-2.1-.4-2.9-1.2c-.8-.8-1.2-1.7-1.2-2.9s.4-2.1,1.2-2.9c.8-.8,1.7-1.2,2.9-1.2s2.1.4,2.9,1.2c.8.8,1.2,1.7,1.2,2.9s-.4,2.1-1.2,2.9ZM81.2,274.3c.5.5,1.2.8,2,.8s1.4-.3,2-.8.8-1.2.8-2-.3-1.5-.8-2c-.5-.5-1.2-.8-2-.8s-1.4.3-2,.8-.8,1.2-.8,2,.3,1.5.8,2Z"/>
      <path d="M97.1,268.4c1.1,0,2,.4,2.7,1.1.7.7,1.1,1.7,1.1,2.8s-.4,2-1.1,2.8c-.7.8-1.6,1.1-2.7,1.1h-3.1v-7.8h3.1ZM97.1,274.9c.7,0,1.3-.3,1.8-.8.5-.5.7-1.1.7-1.9s-.2-1.4-.7-1.9c-.5-.5-1.1-.8-1.8-.8h-1.8v5.3h1.8Z"/>
      <path d="M109.9,275.1c-.8.8-1.7,1.2-2.9,1.2s-2.1-.4-2.9-1.2c-.8-.8-1.2-1.7-1.2-2.9s.4-2.1,1.2-2.9c.8-.8,1.7-1.2,2.9-1.2s2.1.4,2.9,1.2c.8.8,1.2,1.7,1.2,2.9s-.4,2.1-1.2,2.9ZM105.1,274.3c.5.5,1.2.8,2,.8s1.4-.3,2-.8c.5-.5.8-1.2.8-2s-.3-1.5-.8-2c-.5-.5-1.2-.8-2-.8s-1.4.3-2,.8c-.5.5-.8,1.2-.8,2s.3,1.5.8,2Z"/>
      <path d="M120.8,268.4c.7,0,1.3.2,1.8.7.5.5.7,1.1.7,1.8s-.2,1.3-.7,1.8c-.5.5-1.1.7-1.8.7h-1.6v2.7h-1.3v-7.8h2.9ZM120.8,272.3c.4,0,.7-.1.9-.4.2-.3.4-.6.4-1s-.1-.7-.4-1c-.2-.3-.6-.4-.9-.4h-1.6v2.7h1.6Z"/>
      <path d="M132.4,275.1c-.8.8-1.7,1.2-2.9,1.2s-2.1-.4-2.9-1.2c-.8-.8-1.2-1.7-1.2-2.9s.4-2.1,1.2-2.9c.8-.8,1.7-1.2,2.9-1.2s2.1.4,2.9,1.2c.8.8,1.2,1.7,1.2,2.9s-.4,2.1-1.2,2.9ZM127.6,274.3c.5.5,1.2.8,2,.8s1.4-.3,2-.8c.5-.5.8-1.2.8-2s-.3-1.5-.8-2c-.5-.5-1.2-.8-2-.8s-1.4.3-2,.8c-.5.5-.8,1.2-.8,2s.3,1.5.8,2Z"/>
      <path d="M137.8,276.2l-2.7-7.8h1.4l2.1,6.2,2.1-6.2h1.4l-2.7,7.8h-1.5Z"/>
      <path d="M150.5,275.1c-.8.8-1.7,1.2-2.9,1.2s-2.1-.4-2.9-1.2c-.8-.8-1.2-1.7-1.2-2.9s.4-2.1,1.2-2.9c.8-.8,1.7-1.2,2.9-1.2s2.1.4,2.9,1.2c.8.8,1.2,1.7,1.2,2.9s-.4,2.1-1.2,2.9ZM145.7,274.3c.5.5,1.2.8,2,.8s1.4-.3,2-.8c.5-.5.8-1.2.8-2s-.3-1.5-.8-2c-.5-.5-1.2-.8-2-.8s-1.4.3-2,.8c-.5.5-.8,1.2-.8,2s.3,1.5.8,2Z"/>
      <path d="M163.1,272.1c.3.2.6.4.8.7.2.3.3.7.3,1.1,0,.6-.2,1.2-.7,1.6s-1,.6-1.7.6h-3.3v-7.8h3.1c.6,0,1.2.2,1.6.6.4.4.7.9.7,1.5s-.3,1.2-.8,1.6ZM161.6,269.6h-1.8v2h1.8c.3,0,.5,0,.7-.3.2-.2.3-.4.3-.7s0-.5-.3-.7c-.2-.2-.4-.3-.7-.3ZM161.8,274.9c.3,0,.5-.1.8-.3.2-.2.3-.5.3-.8s-.1-.6-.3-.8c-.2-.2-.5-.3-.8-.3h-2.1v2.2h2.1Z"/>
      <path d="M171.2,276.2l-1.6-2.8h-1.5v2.8h-1.3v-7.8h3.1c.7,0,1.3.2,1.8.7.5.5.7,1.1.7,1.8s-.1,1-.4,1.4c-.3.4-.7.7-1.1.9l1.8,3h-1.4ZM168,269.6v2.6h1.8c.3,0,.6-.1.9-.4.2-.3.4-.6.4-.9s-.1-.7-.4-.9c-.2-.3-.5-.4-.9-.4h-1.8Z"/>
      <path d="M180.1,276.2l-.5-1.6h-3.3l-.5,1.6h-1.4l2.8-7.8h1.5l2.8,7.8h-1.4ZM176.6,273.4h2.5l-1.2-3.5-1.2,3.5Z"/>
      <path d="M186.1,276.3c-.7,0-1.4-.2-1.9-.5-.5-.3-.9-.8-1.1-1.4l1.1-.6c.3.9,1,1.3,1.9,1.3s.8,0,1.1-.3c.2-.2.4-.4.4-.7s-.1-.6-.4-.7c-.3-.2-.7-.3-1.4-.5-.4-.1-.7-.2-.9-.3s-.5-.2-.7-.4-.4-.4-.6-.7c-.1-.3-.2-.6-.2-.9,0-.7.2-1.2.7-1.6.5-.4,1.1-.6,1.8-.6s1.2.2,1.6.5c.5.3.8.7,1.1,1.3l-1.1.6c-.3-.7-.9-1.1-1.6-1.1s-.7,0-.9.3c-.2.2-.3.4-.3.7s.1.5.3.7c.2.2.6.3,1.2.5.3.1.5.2.6.2.1,0,.3.1.6.2.3,0,.4.2.6.3.1.1.3.2.4.4.1.2.2.3.3.5,0,.2,0,.4,0,.7,0,.7-.3,1.3-.8,1.7-.5.4-1.2.6-2,.6Z"/>
      <path d="M191.3,268.4h1.3v7.8h-1.3v-7.8Z"/>
      <path d="M196.9,274.9h3.2v1.2h-4.4v-7.8h1.3v6.6Z"/>
      <path d="M203.7,274.9h3.4v1.2h-4.7v-7.8h4.7v1.2h-3.4v2h3.1v1.2h-3.1v2.1Z"/>
      <path d="M209.8,268.4h1.3v7.8h-1.3v-7.8Z"/>
      <path d="M218.5,276.2l-1.6-2.8h-1.5v2.8h-1.3v-7.8h3.1c.7,0,1.3.2,1.8.7.5.5.7,1.1.7,1.8s-.1,1-.4,1.4c-.3.4-.7.7-1.1.9l1.8,3h-1.4ZM215.4,269.6v2.6h1.8c.3,0,.6-.1.9-.4.2-.3.4-.6.4-.9s-.1-.7-.4-.9c-.2-.3-.5-.4-.9-.4h-1.8Z"/>
      <path d="M228.8,275.1c-.8.8-1.7,1.2-2.9,1.2s-2.1-.4-2.9-1.2c-.8-.8-1.2-1.7-1.2-2.9s.4-2.1,1.2-2.9c.8-.8,1.7-1.2,2.9-1.2s2.1.4,2.9,1.2c.8.8,1.2,1.7,1.2,2.9s-.4,2.1-1.2,2.9ZM224,274.3c.5.5,1.2.8,2,.8s1.4-.3,2-.8.8-1.2.8-2-.3-1.5-.8-2c-.5-.5-1.2-.8-2-.8s-1.4.3-2,.8-.8,1.2-.8,2,.3,1.5.8,2Z"/>
    </g>
    <g>
      <path d="M77.9,184.8v.8c0,3.2-2.1,5.3-5,5.3s-5.4-2.4-5.4-5.4,2.4-5.4,5.4-5.4,3.6,1,4.6,2.6l-2.4,1.4c-.5-.8-1.3-1.3-2.3-1.3-1.5,0-2.6,1.2-2.6,2.7s1.1,2.7,2.6,2.7,1.8-.5,2-1.2h-2.8v-2.2h5.7Z"/>
      <path d="M81.3,185.5c0-3,2.4-5.4,5.4-5.4s5.4,2.4,5.4,5.4-2.4,5.4-5.4,5.4-5.4-2.4-5.4-5.4ZM89.1,185.5c0-1.5-1-2.5-2.4-2.5s-2.4,1.1-2.4,2.5,1.1,2.5,2.4,2.5,2.4-1.1,2.4-2.5Z"/>
      <path d="M105.1,180.4l-4,10.3h-2.8l-4-10.3h3l2.4,6.3,2.4-6.3h3Z"/>
      <path d="M111.1,182.9v1.5h3v2.2h-3v1.5h4.6v2.5h-7.4v-10.3h7.4v2.5h-4.6Z"/>
      <path d="M123.5,187.1h-1.2v3.6h-2.7v-10.3h5c2,0,3.6,1.4,3.6,3.3s-.7,2.4-1.8,3l2.3,4h-3.1l-2-3.6ZM122.3,184.7h1.9c.7,0,1.1-.5,1.1-1s-.4-1-1.1-1h-1.9v1.9Z"/>
      <path d="M141.2,180.4v10.3h-2.3l-4.1-5.4v5.4h-2.7v-10.3h2.3l4.2,5.4v-5.4h2.7Z"/>
      <path d="M144.8,185.5c0-3,2.4-5.4,5.4-5.4s5.4,2.4,5.4,5.4-2.4,5.4-5.4,5.4-5.4-2.4-5.4-5.4ZM152.6,185.5c0-1.5-1-2.5-2.4-2.5s-2.4,1.1-2.4,2.5,1.1,2.5,2.4,2.5,2.4-1.1,2.4-2.5Z"/>
      <path d="M178.4,185.5c0,2.9-2.4,5.1-5.5,5.1h-4.2v-10.3h4.2c3.1,0,5.5,2.2,5.5,5.1ZM175.6,185.5c0-1.5-1.1-2.5-2.8-2.5h-1.3v4.9h1.3c1.6,0,2.8-1,2.8-2.5Z"/>
      <path d="M181,185.5c0-3,2.4-5.4,5.4-5.4s5.4,2.4,5.4,5.4-2.4,5.4-5.4,5.4-5.4-2.4-5.4-5.4ZM188.7,185.5c0-1.5-1-2.5-2.4-2.5s-2.4,1.1-2.4,2.5,1.1,2.5,2.4,2.5,2.4-1.1,2.4-2.5Z"/>
    </g>
    <g>
      <path class="st9" d="M137.2,256.3c0-10.9-8.8-19.8-19.8-19.8s-19.8,8.8-19.8,19.8h39.5Z"/>
      <polygon class="st2" points="81.6 234.9 60.3 202.2 60.3 234.9 81.6 234.9"/>
      <rect class="st2" x="19.2" y="223.9" width="18.7" height="32.4"/>
      <rect class="st2" x="203.3" y="202.2" width="18.7" height="36"/>
      <rect class="st9" x="222" y="238.1" width="18.7" height="18.2"/>
      <polygon class="st5" points="85.3 256.3 90.2 248.1 81.6 234.9 60.3 234.9 60.3 256.3 85.3 256.3"/>
      <rect class="st5" x="181.4" y="202.2" width="18.7" height="54.1"/>
      <path class="st9" d="M42.3,202.2h-4.3v21.7h4.3c6,0,10.9-4.9,10.9-10.9h0c0-6-4.9-10.9-10.9-10.9Z"/>
      <rect class="st9" x="158" y="202.2" width="20.3" height="19.7"/>
      <path class="st2" d="M164.2,221.9h-6.2v34.5h6.2c9.5,0,17.2-7.7,17.2-17.2s-7.7-17.2-17.2-17.2Z"/>
      <path class="st5" d="M152.3,202.2c-6.6,0-12,5.4-12,12s5.4,12,12,12h5.7v-24.1h-5.7Z"/>
      <path class="st10" d="M44.1,223.9h-6.2v32.4h6.2c9,0,16.2-7.3,16.2-16.2h0c0-9-7.3-16.2-16.2-16.2Z"/>
      <path class="st9" d="M81.6,202.2h-21.2l21.2,32.7c9,0,16.4-7.3,16.4-16.4h0c0-9-7.3-16.4-16.4-16.4Z"/>
      <rect class="st5" x="19.2" y="202.2" width="18.7" height="21.7"/>
      <polygon class="st10" points="140.3 226.2 140.3 240.6 149.7 256.3 158 256.3 158 226.2 140.3 226.2"/>
      <polygon class="st3" points="140.3 240.6 140.3 256.3 149.7 256.3 140.3 240.6"/>
      <rect class="st3" x="203.3" y="238.1" width="18.7" height="18.2"/>
      <polygon class="st3" points="85.3 256.3 95.5 256.3 90.2 248.1 85.3 256.3"/>
      <path class="st2" d="M140.3,256.3v-15.8l-22.8-38.4-27.3,45.9,5.4,8.2h2.2c0-10.9,8.8-19.8,19.8-19.8s19.8,8.8,19.8,19.8h3.1Z"/>
    </g>
  </g>
  <g>
    <g>
      <path class="st4" d="M68.4,62.8c-.9-.4-1.8-.6-1.9-.5.2-.2,1-.7,1.2-.8.6-.5,1.5-1.2,2.1-1.8h-3.9c-1,.9-1.9,1.8-3,2.5l-.2,2.4c1.8,0,4.6.2,4.6,2.6,0,1.6-1.4,2.3-2.8,2.4-1.6,0-3.2-1-4.3-2l-.9,3.5h0c2.4,2,6.7,2.3,9.3.5.1,0,.2-.1.3-.2,1.4-1,2.3-2.8,2.2-4.5,0-1-.3-2-1-2.7-.5-.7-1.2-1-1.9-1.4Z"/>
      <path class="st4" d="M70.1,59.1c.7-1,.8-2,.8-3.1h-10.2l-.2.7-.6,2.5h10.2s0,0,0,0Z"/>
      <g>
        <path class="st0" d="M88.2,50.6c-5.3,0-9.4-3.7-9.4-8.4v-15.8h7.1v16.4c0,2.1,1.8,3.7,4.1,3.7s4.1-1.7,4.1-3.7v-16.4h3.3v15.8c0,4.6-4.1,8.4-9.2,8.4M68.3,41.1l-4.4-1.3c-2.7-.9-4.6-3.6-4.6-6.5s3.1-6.9,6.9-6.9h8.6v3h-6c-1.2,0-2.2.9-2.2,2.2s.5,1.7,1.4,1.9l4.2,1.4c2.8.9,4.4,3.8,4.4,7.2s-3.3,7.7-7.6,7.7h-9.1v-3.5h7.8c1.1,0,2.4-1.1,2.4-2.7s-.8-2.2-1.9-2.6M108.4,41.1l-4.4-1.3c-2.8-.9-4.7-3.6-4.7-6.5s3.1-6.9,6.9-6.9h8.6v3h-6c-1.2,0-2.2.9-2.2,2.2s.5,1.7,1.4,1.9l4.2,1.4c3,.9,4.5,3.8,4.5,7.2s-3.5,7.7-7.7,7.7h-9.1v-3.5h7.8c1.2,0,2.4-1.1,2.4-2.7s-.6-2.2-1.8-2.6"/>
        <path class="st0" d="M172.7,52.2h3v19.2c-.4-2-1.5-13.6-1.3-17.4-.4-.4-1.7-1.8-1.7-1.8M150.2,31.8h0l-3.2-3.3c-4.3,0-18-1.4-22.4-2.2v24.6c22.1,2.2,33.7,2.7,46.6,2.3h.2l-21.2-21.5ZM150.4,24.9h24.7V1h-24.7v23.9ZM131.3,26.3c1.6.1,16.1,1.4,17,1.4l22.8,23.2h29.4v-24.6h-69.2ZM172.8,54.6s-13.2.9-24.4-.1c.2,13.6,1.9,20.6,2.1,22.1h24.5c-1.2-7.2-2.1-18.7-2.2-22"/>
      </g>
      <g>
        <path class="st6" d="M81.3,64.8c-1.3-2.2-3.7-2.8-5.8-4l-2.9-1.5h8.6l.7-3.2h-9l-1.3,6.7,6.6,3.6c.8.6,1.2,1.4,1.3,2.4.1.9,0,1.9-.6,2.6,1.1-.5,2.1-1.2,2.6-2.4.6-1.3.4-3-.3-4.1"/>
        <path class="st6" d="M78,66.7l-6.2,3.1c0,.2.1.4.2.5.5.8,1.1,1.6,1.5,2.4,0,0,.7,0,.8,0,1.5-.2,3.8-.6,4.5-2.2.5-1.2.2-3-.9-3.8"/>
      </g>
      <g>
        <path class="st1" d="M110.1,63.7v-7.6c0-.1,0-.2.2-.2h3.3c.1,0,.2,0,.2.2v15c0,.1,0,.2-.2.2-.3,0-1.4.2-2.4-.2-.6-.2-1.1-.8-1.6-1.3-.4-.5-.8-1-1.3-1.5-.8-1-1.6-2-2.4-3.1-.5-.6-.9-1.3-1.5-1.9-.1-.1-.3,0-.3.1v7.3c0,.2-.1.3-.2.3-.3.2-3.1.2-3.4,0-.1,0-.2-.2-.3-.3,0,0,0,0,0-.1v-14.6c0,0,0-.2.1-.2,1.2-.3,2.2,0,3.1.7,2.4,2.1,4.3,5,6.1,7,0,0,0,0,0,0,.1.1.3,0,.3-.1"/>
        <path class="st1" d="M131.5,63.7c0,4.4-3.6,8-8,8s-8-3.6-8-8,3.6-8,8-8,8,3.6,8,8M122.9,59.2c-2,.2-2.9,1.7-3,3.6-.2,3.1.7,5.8,4.3,5.4,2.7-.4,2.9-3.7,2.7-5.8-.2-2.2-1.8-3.5-4-3.2"/>
        <path class="st1" d="M99.4,71.4h-4.3c-.1-.4-.7-2.4-1-2.5h-6.2c0,0-.9,2.5-.9,2.5h-4l5.9-14.7c.5-.8,1.8-.7,2.6-.6.8,0,1.4.3,1.8,1l5.9,14.4ZM93,65.5l-1.7-4.8-1.9,4.8h3.6Z"/>
        <path class="st1" d="M142.7,60.1c-1.4-.5-2.9-1.1-4.5-.9-1.5.2-2,1.4-.5,2.2,2.5,1.3,5.5,1.1,5.9,4.9.6,6.3-7.5,7-11,3.4v-3.2c0,0,.7.3.7.4.3.1.5.3.8.4,1.5.7,3.2,1.2,4.8,1,1-.1.9-1.4.2-1.9-1.9-1.6-5.9-1.5-6.3-5-.7-5.7,6.1-6.9,9.8-4.3v3.1Z"/>
      </g>
    </g>
    <g>
      <g>
        <path class="st7" d="M66.1,122.2v-7.8l-3.2,5.9h-1l-3.2-5.9v7.8h-1.7v-10.9h1.8l3.6,6.7,3.6-6.7h1.8v10.9h-1.7Z"/>
        <path class="st7" d="M73.3,122.2v-10.9h1.7v10.9h-1.7Z"/>
        <path class="st7" d="M82.3,114.5v7.7h-1.7v-10.9h1.4l6.2,7.9v-7.9h1.7v10.9h-1.5l-6.1-7.7Z"/>
        <path class="st7" d="M95.4,122.2v-10.9h1.7v10.9h-1.7Z"/>
        <path class="st7" d="M109.1,113.8c-.2-.3-.6-.5-1.2-.7-.6-.2-1.1-.4-1.7-.4s-1.2.1-1.6.4-.5.6-.5,1.1,0,.3,0,.4c0,.1,0,.2.2.3,0,0,.2.2.3.3.1,0,.2.2.4.2.1,0,.3.1.5.2s.4.1.6.2c.2,0,.4.1.7.2.5.1.9.2,1.2.3.3.1.7.3,1,.4.3.2.6.4.8.6.2.2.3.5.5.8.1.3.2.7.2,1s0,.8-.2,1.2-.3.6-.6.9c-.2.2-.5.4-.9.6s-.7.3-1.1.4c-.4,0-.8.1-1.3.1-.8,0-1.6-.1-2.4-.4s-1.5-.6-2.1-1.1l.8-1.5c.3.3.8.6,1.5.9s1.4.5,2.2.5,1.2-.1,1.6-.4.6-.6.6-1,0-.3,0-.5c0-.1-.2-.3-.3-.4s-.3-.2-.4-.3c-.1,0-.3-.2-.6-.3s-.5-.2-.7-.2c-.2,0-.5-.1-.9-.2-.6-.1-1-.3-1.4-.5s-.7-.3-1-.6c-.3-.2-.5-.5-.6-.8-.1-.3-.2-.7-.2-1.1s.1-1,.3-1.4c.2-.4.5-.8.8-1,.4-.3.8-.5,1.3-.6.5-.1,1-.2,1.6-.2,1.3,0,2.6.4,3.7,1.2l-.8,1.4Z"/>
        <path class="st7" d="M123.1,112.8h-3.6v9.4h-1.7v-9.4h-3.6v-1.5h9v1.5Z"/>
        <path class="st7" d="M135.1,120.6v1.5h-7.5v-10.9h7.3v1.5h-5.6v3.1h4.9v1.4h-4.9v3.3h5.8ZM132,110.1l-1.1-.3.9-1.7h1.6l-1.4,2Z"/>
        <path class="st7" d="M139.9,122.2v-10.9h4.7c.5,0,.9.1,1.4.3s.8.5,1.1.8.5.7.7,1.1c.2.4.3.9.3,1.3,0,.7-.2,1.4-.6,2s-.9,1-1.5,1.2l2.6,4.1h-1.9l-2.4-3.8h-2.5v3.8h-1.7ZM141.7,116.9h3c.5,0,.9-.2,1.2-.6s.5-.9.5-1.4-.2-1-.5-1.4c-.3-.4-.8-.6-1.2-.6h-2.9v4.1Z"/>
        <path class="st7" d="M153.1,122.2v-10.9h1.7v10.9h-1.7Z"/>
        <path class="st7" d="M159.7,116.7c0-.7.1-1.4.4-2.1.3-.7.6-1.3,1.1-1.8.5-.5,1-.9,1.7-1.2.7-.3,1.3-.5,2.1-.5s1.5.2,2.1.5c.7.3,1.2.7,1.7,1.3s.8,1.1,1,1.8c.3.7.4,1.3.4,2s-.1,1.4-.4,2.1c-.3.7-.6,1.3-1.1,1.8-.5.5-1,.9-1.7,1.2s-1.3.5-2.1.5-1.2-.1-1.7-.3c-.5-.2-1-.5-1.5-.8-.4-.4-.8-.8-1.1-1.2s-.5-1-.7-1.5c-.2-.5-.2-1.1-.2-1.6ZM164.9,120.7c.5,0,1-.1,1.5-.3.4-.2.8-.5,1.1-.9.3-.4.5-.8.7-1.3s.2-1,.2-1.4,0-1-.3-1.5c-.2-.5-.4-.9-.7-1.3-.3-.4-.7-.7-1.1-.9-.4-.2-.9-.3-1.4-.3s-1,.1-1.5.3c-.4.2-.8.5-1.1.9-.3.4-.5.8-.7,1.3s-.2,1-.2,1.4.1,1.3.4,1.9c.3.6.7,1.1,1.2,1.5.5.4,1.2.6,1.8.6Z"/>
        <path class="st7" d="M181.9,122.2v-10.9h3.9c.9,0,1.6.1,2.3.4.7.3,1.2.7,1.7,1.2.4.5.8,1.1,1,1.7.2.7.3,1.4.3,2.1,0,1.6-.5,3-1.5,4-1,1-2.3,1.5-3.9,1.5h-3.9ZM185.7,112.8h-2.2v7.9h2.2c.7,0,1.4-.2,1.9-.5.5-.3.9-.8,1.2-1.4.3-.6.4-1.3.4-2,0-1.2-.3-2.1-.9-2.8s-1.5-1.1-2.6-1.1Z"/>
        <path class="st7" d="M198.7,111.3h1.6l4.2,10.9h-1.8l-1.1-3h-4.2l-1.1,3h-1.8l4.3-10.9ZM201.2,117.9l-1.8-4.8-1.8,4.8h3.6Z"/>
      </g>
      <g>
        <path class="st7" d="M106.1,136.4s-.1,0-.2-.1c0,0-.2-.1-.5-.2-.2-.1-.5-.2-.7-.3s-.5-.2-.8-.2c-.3,0-.6-.1-.8-.1-.6,0-.9.2-.9.5s0,.2,0,.2c0,0,0,.1.1.2,0,0,.1.1.2.1,0,0,.2,0,.3.1.1,0,.3,0,.4.1,0,0,.3,0,.5.1.2,0,.4.1.5.2.4.1.8.3,1.1.4.3.1.6.3.9.5.3.2.5.4.7.6.2.2.3.5.4.8.1.3.2.7.2,1.1s0,1-.2,1.4-.4.7-.6,1c-.3.3-.6.5-.9.6-.4.2-.7.3-1.1.4-.4,0-.8.1-1.2.1-.8,0-1.6-.1-2.5-.3-.9-.2-1.6-.5-2.3-.9l1.3-2.6s.1,0,.2.1c0,0,.3.1.5.3s.5.3.8.4.6.2.9.3c.4,0,.7.1,1,.1.6,0,.9-.2.9-.5s0-.2-.1-.3c0,0-.2-.2-.4-.3-.2,0-.3-.1-.5-.2s-.4-.1-.7-.2c-.3,0-.5-.2-.7-.2-1-.3-1.7-.7-2.1-1.2-.4-.5-.6-1.1-.6-1.9s.1-1.1.3-1.6c.2-.5.5-.9.9-1.2s.8-.5,1.3-.7c.5-.2,1-.2,1.5-.2,1.2,0,2.5.4,4.1,1.2l-1.3,2.5Z"/>
        <path class="st7" d="M114.3,132.8h3.3l3.5,10.9h-3l-.7-2.1h-2.9l-.6,2.1h-3l3.5-10.9ZM117,139.6l-1-3.8-1,3.8h2Z"/>
        <path class="st7" d="M129.5,143.8c-.7,0-1.3,0-1.8-.3s-1-.4-1.4-.8c-.4-.3-.7-.7-.9-1.2-.3-.5-.4-1-.6-1.5s-.2-1.1-.2-1.7v-5.6h3v5.6c0,.4,0,.7.1,1,0,.3.2.6.3.9.1.3.3.5.6.6s.5.2.9.2.6,0,.9-.2c.3-.2.5-.4.6-.6.1-.3.3-.6.3-.9,0-.3.1-.7.1-1v-5.6h3v5.6c0,.8,0,1.5-.3,2.1-.2.6-.5,1.2-.9,1.7-.4.5-.9.9-1.5,1.1-.6.3-1.4.4-2.2.4ZM130.4,132.3l-1.8-.5.8-2.2h2.6l-1.5,2.7Z"/>
        <path class="st7" d="M139.2,143.7v-10.9h4.2c.9,0,1.7.1,2.4.4s1.3.7,1.7,1.2c.4.5.8,1.1,1,1.7.2.7.4,1.4.4,2.1,0,1.6-.5,3-1.5,4-1,1-2.3,1.5-4,1.5h-4.2ZM143.4,135.4h-1.2v5.7h1.2c.8,0,1.4-.3,1.8-.8s.7-1.2.7-2.1-.2-1.5-.7-2.1c-.4-.5-1-.8-1.8-.8Z"/>
        <path class="st7" d="M161,141.1v2.6h-7.8v-10.9h7.6v2.6h-4.6v1.5h4v2.4h-4v1.7h4.8Z"/>
      </g>
    </g>
  </g>
</svg>