<?xml version="1.0" encoding="UTF-8"?>
<svg id="Layer_2" xmlns="http://www.w3.org/2000/svg" version="1.1" viewBox="0 0 300 101">
  <!-- Generator: Adobe Illustrator 30.0.0, SVG Export Plug-In . SVG Version: 2.1.1 Build 123)  -->
  <defs>
    <style>
      .st0 {
        fill-rule: evenodd;
      }

      .st0, .st1 {
        fill: #fff;
      }
    </style>
  </defs>
  <g>
    <path class="st1" d="M4,60.5c-.3-.1-.7-.2-.7-.2,0,0,.4-.3.5-.3.3-.2.6-.5.8-.7h-1.6c-.4.4-.8.7-1.2,1v1c.6,0,1.8,0,1.7,1,0,.6-.5.9-1.1,1-.6,0-1.3-.4-1.7-.8l-.3,1.4h0c1,.8,2.7.9,3.7.2,0,0,0,0,.1,0,.6-.4.9-1.1.9-1.8,0-.4-.1-.8-.4-1.1-.2-.3-.5-.4-.7-.5"/>
    <path class="st1" d="M4.7,59.1c.3-.4.3-.8.3-1.2H.9v.3c0,0-.3,1-.3,1h4s0,0,0,0"/>
    <path class="st0" d="M11.8,55.7c-2.1,0-3.7-1.5-3.7-3.3v-6.2h2.8v6.5c0,.8.7,1.5,1.6,1.5s1.6-.7,1.6-1.5v-6.5h1.3v6.2c0,1.8-1.6,3.3-3.7,3.3M3.9,51.9l-1.7-.5c-1.1-.4-1.8-1.4-1.8-2.6s1.2-2.7,2.7-2.7h3.4v1.2h-2.4c-.5,0-.9.4-.9.9s.2.7.6.8l1.7.6c1.1.4,1.7,1.5,1.7,2.8s-1.3,3.1-3,3.1H.7v-1.4h3.1c.5,0,1-.5,1-1.1s-.3-.9-.8-1M19.8,51.9l-1.7-.5c-1.1-.4-1.9-1.4-1.9-2.6s1.2-2.7,2.7-2.7h3.4v1.2h-2.4c-.5,0-.9.4-.9.9s.2.7.6.8l1.7.6c1.2.4,1.8,1.5,1.8,2.8s-1.4,3.1-3.1,3.1h-3.6v-1.4h3.1c.5,0,1-.5,1-1.1s-.3-.9-.7-1"/>
    <path class="st0" d="M45.3,56.4h1.2v7.6c-.1-.8-.6-5.4-.5-6.9-.2-.2-.7-.7-.7-.7M36.4,48.3h0l-1.3-1.3c-1.7,0-7.1-.6-8.9-.9v9.8c8.7.9,13.3,1.1,18.4.9h0l-8.4-8.5ZM36.5,45.5h9.8v-9.5h-9.8v9.5ZM28.9,46.1c.6,0,6.4.6,6.7.6l9,9.2h11.6v-9.8h-27.4ZM45.3,57.3s-5.2.4-9.7,0c0,5.4.7,8.2.8,8.8h9.7c-.5-2.8-.8-7.4-.9-8.7"/>
    <path class="st1" d="M9.1,61.3c-.5-.9-1.5-1.1-2.3-1.6l-1.1-.6h3.4l.3-1.3h-3.6l-.5,2.7,2.6,1.4c.3.2.5.6.5.9,0,.4,0,.7-.2,1,.4-.2.8-.5,1-.9.2-.5.2-1.2-.1-1.6"/>
    <path class="st1" d="M7.8,62.1l-2.5,1.2c0,0,0,.1,0,.2.2.3.4.6.6.9,0,0,.3,0,.3,0,.6,0,1.5-.2,1.8-.9.2-.5,0-1.2-.3-1.5"/>
    <path class="st1" d="M20.5,60.9v-3s0,0,0,0h1.3s0,0,0,0v5.9s0,0,0,0c-.1,0-.6,0-.9,0-.3,0-.4-.3-.6-.5-.2-.2-.3-.4-.5-.6-.3-.4-.6-.8-1-1.2-.2-.2-.4-.5-.6-.7,0,0-.1,0-.1,0v2.9c0,0,0,.1,0,.1-.1,0-1.2,0-1.3,0,0,0,0,0,0-.1,0,0,0,0,0,0v-5.8s0,0,0,0c.5-.1.9,0,1.2.3.9.8,1.7,2,2.4,2.8,0,0,0,0,0,0,0,0,.1,0,.1,0"/>
    <path class="st1" d="M29,60.9c0,1.8-1.4,3.2-3.2,3.2s-3.2-1.4-3.2-3.2,1.4-3.2,3.2-3.2,3.2,1.4,3.2,3.2M25.6,59.1c-.8,0-1.1.7-1.2,1.4,0,1.2.3,2.3,1.7,2.1,1.1-.1,1.1-1.5,1.1-2.3,0-.9-.7-1.4-1.6-1.3"/>
    <path class="st1" d="M16.3,63.9h-1.7c0-.2-.3-.9-.4-1h-2.4s-.4,1-.4,1h-1.6l2.3-5.8c.2-.3.7-.3,1-.3.3,0,.6.1.7.4l2.3,5.7ZM13.7,61.6l-.7-1.9-.8,1.9h1.4Z"/>
    <path class="st1" d="M33.4,59.5c-.6-.2-1.2-.4-1.8-.4-.6,0-.8.6-.2.9,1,.5,2.2.4,2.3,1.9.2,2.5-3,2.8-4.3,1.3v-1.3s.3.1.3.1c0,0,.2.1.3.1.6.3,1.2.5,1.9.4.4,0,.3-.5,0-.7-.8-.6-2.3-.6-2.5-2-.3-2.3,2.4-2.7,3.9-1.7v1.2Z"/>
  </g>
  <g>
    <g>
      <polygon class="st1" points="80.8 47.6 80.8 43.3 79.1 46.5 78.5 46.5 76.7 43.3 76.7 47.6 75.8 47.6 75.8 41.5 76.8 41.5 78.8 45.2 80.8 41.5 81.8 41.5 81.8 47.6 80.8 47.6"/>
      <rect class="st1" x="84.9" y="41.5" width="1" height="6"/>
      <polygon class="st1" points="89.8 43.3 89.8 47.6 88.9 47.6 88.9 41.5 89.6 41.5 93.1 45.9 93.1 41.6 94 41.6 94 47.6 93.2 47.6 89.8 43.3"/>
      <rect class="st1" x="97.1" y="41.5" width="1" height="6"/>
      <path class="st1" d="M104.7,43c-.1-.1-.4-.3-.7-.4-.3-.1-.6-.2-1-.2s-.7,0-.9.2c-.2.1-.3.3-.3.6s0,.2,0,.2c0,0,0,.1,0,.2,0,0,0,.1.2.1s.1,0,.2.1c0,0,.2,0,.3.1s.2,0,.3,0c.1,0,.2,0,.4.1.3,0,.5.1.7.2.2,0,.4.1.5.2.2,0,.3.2.4.3.1.1.2.3.3.4,0,.2,0,.4,0,.6s0,.5-.1.6c0,.2-.2.4-.3.5-.1.1-.3.2-.5.3-.2,0-.4.2-.6.2-.2,0-.5,0-.7,0-.5,0-.9,0-1.3-.2-.4-.1-.8-.3-1.2-.6l.4-.8c.2.2.5.4.9.5.4.2.8.3,1.2.3s.7,0,.9-.2c.2-.1.3-.3.3-.6s0-.2,0-.3c0,0,0-.2-.2-.2,0,0-.2-.1-.2-.2,0,0-.2,0-.3-.1-.1,0-.3,0-.4-.1-.1,0-.3,0-.5-.1-.3,0-.6-.2-.8-.3-.2,0-.4-.2-.5-.3-.2-.1-.3-.3-.3-.4,0-.2-.1-.4-.1-.6s0-.6.2-.8c.1-.2.3-.4.5-.6.2-.1.4-.3.7-.3.3,0,.6-.1.9-.1.7,0,1.4.2,2,.7l-.4.8Z"/>
      <polygon class="st1" points="112.4 42.4 110.4 42.4 110.4 47.6 109.4 47.6 109.4 42.4 107.4 42.4 107.4 41.6 112.4 41.6 112.4 42.4"/>
      <path class="st1" d="M119,46.7v.8h-4.1v-6h4.1v.8h-3.1v1.7h2.7v.8h-2.7v1.8h3.2ZM117.4,40.9l-.6-.2.5-.9h.9l-.8,1.1Z"/>
      <path class="st1" d="M121.7,47.6v-6h2.6c.3,0,.5,0,.7.2.2.1.4.3.6.5.2.2.3.4.4.6,0,.2.1.5.1.7,0,.4-.1.8-.3,1.1-.2.3-.5.6-.9.7l1.4,2.3h-1.1l-1.3-2.1h-1.4v2.1h-1ZM122.7,44.6h1.7c.3,0,.5-.1.6-.3.2-.2.3-.5.3-.8s0-.6-.3-.8c-.2-.2-.4-.3-.7-.3h-1.6v2.3Z"/>
      <rect class="st1" x="129" y="41.5" width="1" height="6"/>
      <path class="st1" d="M132.7,44.6c0-.4,0-.8.2-1.2.1-.4.3-.7.6-1,.3-.3.6-.5.9-.7.4-.2.7-.3,1.2-.3s.8,0,1.2.3c.4.2.7.4.9.7.2.3.4.6.6,1,.1.4.2.7.2,1.1s0,.8-.2,1.2c-.1.4-.3.7-.6,1-.3.3-.6.5-.9.7-.4.2-.7.3-1.2.3s-.7,0-1-.2c-.3-.1-.6-.3-.8-.5-.2-.2-.4-.4-.6-.7-.2-.3-.3-.5-.4-.8,0-.3-.1-.6-.1-.9M135.6,46.8c.3,0,.6,0,.8-.2.3-.1.5-.3.6-.5.2-.2.3-.4.4-.7,0-.3.1-.5.1-.8s0-.6-.1-.8c0-.3-.2-.5-.4-.7-.2-.2-.4-.4-.6-.5-.2-.1-.5-.2-.8-.2s-.6,0-.8.2c-.2.1-.5.3-.6.5-.2.2-.3.4-.4.7,0,.3-.1.5-.1.8s0,.7.2,1.1c.2.3.4.6.7.8.3.2.6.3,1,.3"/>
      <path class="st1" d="M144.9,47.6v-6h2.1c.5,0,.9,0,1.3.2.4.2.7.4.9.6.2.3.4.6.5,1,.1.4.2.8.2,1.2,0,.9-.3,1.6-.8,2.2-.5.6-1.2.8-2.1.8h-2.1ZM147.1,42.4h-1.2v4.3h1.2c.4,0,.8,0,1.1-.3.3-.2.5-.5.7-.8.2-.3.2-.7.2-1.1,0-.6-.2-1.2-.5-1.6-.4-.4-.8-.6-1.4-.6"/>
      <path class="st1" d="M154.2,41.5h.9l2.3,6h-1l-.6-1.6h-2.3l-.6,1.6h-1l2.4-6ZM155.7,45.2l-1-2.6-1,2.6h2Z"/>
      <path class="st1" d="M126.7,55.4s0,0,0,0c0,0-.1,0-.3-.1-.1,0-.3-.1-.4-.2-.1,0-.3,0-.4-.1-.2,0-.3,0-.4,0-.3,0-.5,0-.5.3s0,0,0,.1c0,0,0,0,0,0s0,0,.1,0,0,0,.2,0c0,0,.1,0,.2,0,0,0,.1,0,.3,0,.1,0,.2,0,.3,0,.2,0,.5.1.6.2.2,0,.3.2.5.3.2.1.3.2.4.3,0,.1.2.3.2.5,0,.2,0,.4,0,.6s0,.5-.1.8c0,.2-.2.4-.4.5-.1.1-.3.3-.5.4-.2,0-.4.2-.6.2-.2,0-.4,0-.7,0-.4,0-.9,0-1.4-.2-.5-.1-.9-.3-1.3-.5l.7-1.5s0,0,.1,0c0,0,.1,0,.3.2.1,0,.3.1.4.2.1,0,.3.1.5.2.2,0,.4,0,.6,0,.3,0,.5,0,.5-.3s0-.1,0-.2c0,0-.1,0-.2-.1,0,0-.2,0-.3-.1,0,0-.2,0-.4-.1-.2,0-.3,0-.4-.1-.5-.2-.9-.4-1.2-.7-.2-.3-.4-.6-.4-1s0-.6.2-.9c.1-.3.3-.5.5-.6.2-.2.4-.3.7-.4.3,0,.6-.1.9-.1.6,0,1.4.2,2.3.7l-.7,1.4Z"/>
      <path class="st1" d="M131.2,53.5h1.9l1.9,6h-1.7l-.4-1.2h-1.6l-.4,1.2h-1.7l1.9-6ZM132.7,57.2l-.5-2.1-.6,2.1h1.1Z"/>
      <path class="st1" d="M139.6,59.6c-.4,0-.7,0-1-.2-.3-.1-.6-.3-.8-.4-.2-.2-.4-.4-.5-.7-.1-.3-.2-.5-.3-.8,0-.3,0-.6,0-.9v-3.1h1.7v3.1c0,.2,0,.4,0,.6,0,.2.1.3.2.5,0,.1.2.3.3.3.1,0,.3.1.5.1s.4,0,.5-.1c.1,0,.3-.2.3-.3,0-.1.1-.3.2-.5,0-.2,0-.4,0-.6v-3.1h1.7v3.1c0,.4,0,.8-.2,1.2-.1.4-.3.7-.5.9-.2.3-.5.5-.9.6-.4.2-.8.2-1.2.2M140.1,53.2l-1-.3.4-1.2h1.4l-.8,1.5Z"/>
      <path class="st1" d="M145,59.5v-6h2.3c.5,0,.9,0,1.3.2.4.2.7.4,1,.6.2.3.4.6.6,1,.1.4.2.8.2,1.2,0,.9-.3,1.6-.8,2.2-.6.6-1.3.8-2.2.8h-2.3ZM147.3,54.9h-.7v3.1h.7c.4,0,.8-.1,1-.4.2-.3.4-.7.4-1.1s-.1-.8-.4-1.1c-.2-.3-.6-.4-1-.4"/>
      <polygon class="st1" points="157 58.1 157 59.5 152.7 59.5 152.7 53.5 157 53.5 157 54.9 154.4 54.9 154.4 55.8 156.6 55.8 156.6 57.1 154.4 57.1 154.4 58.1 157 58.1"/>
    </g>
    <g>
      <path class="st1" d="M244.1,56.7l5.1,8.5h4.2v-16.1h-9.3v7.6ZM257.1,46.7h-3.2v18.5h3.2c5.1,0,9.3-4.2,9.3-9.3s-4.2-9.3-9.3-9.3M250.5,48.6h2.9v-12.8h-2.9c-3.5,0-6.4,2.9-6.4,6.4s2.9,6.4,6.4,6.4M199.9,36.4v16.9h11l-11-16.9ZM279,55.1h9.8v-19.4h-9.8v19.4ZM264.6,35.8h-10.7v10.4h10.7v-10.4ZM289.3,65.2h9.8v-9.5h-9.8v9.5ZM279,65.2h9.8v-9.5h-9.8v9.5ZM266.9,65.2h9.8v-29.4h-9.8v29.4ZM244.1,65.2h4.5l-4.5-7.5v7.5ZM195.4,41.5c0-3.2-2.6-5.7-5.7-5.7h-2.1v11.5h2.1c3.2,0,5.7-2.6,5.7-5.7M177.2,47.3h9.8v-11.5h-9.8v11.5ZM177.2,65.2h9.8v-17.4h-9.8v17.4ZM190.7,47.8h-3.1v17.4h3.1c4.8,0,8.7-3.9,8.7-8.7s-3.9-8.7-8.7-8.7M216.1,61.4l-2.3,3.8h4.7s-2.5-3.8-2.5-3.8ZM216.4,60.9l2.8,4.3h.8c0-2.9,1.3-5.7,3.3-7.7,2.1-2.1,4.9-3.2,7.8-3.2s5.7,1.1,7.8,3.2c2.1,2.1,3.3,4.8,3.3,7.7h1.2v-8.4l-12.4-20.8-14.8,24.9ZM220.2,44.6c0-4.8-3.9-8.8-8.8-8.8h-11.3l11.4,17.6c4.8,0,8.6-4,8.6-8.8M231.2,54.8c-2.8,0-5.5,1.1-7.5,3.1-2,2-3.1,4.6-3.2,7.3h21.3c0-2.8-1.2-5.4-3.2-7.3-2-2-4.7-3.1-7.5-3.1M211.2,53.9h-11.3v11.3h13.4l2.5-4.3-4.6-7Z"/>
      <path class="st1" d="M185,72.2c.6,0,1.1.2,1.5.6.4.4.6.9.6,1.5s-.2,1.1-.6,1.5c-.4.4-.9.6-1.5.6h-1.7v-4.3h1.7ZM185,75.8c.4,0,.7-.1,1-.4.3-.3.4-.6.4-1.1s-.1-.8-.4-1.1c-.3-.3-.6-.4-1-.4h-1v2.9h1Z"/>
      <path class="st1" d="M192.1,75.9c-.4.4-1,.6-1.6.6s-1.1-.2-1.6-.6c-.4-.4-.6-1-.6-1.6s.2-1.1.6-1.6c.4-.4,1-.6,1.6-.6s1.1.2,1.6.6c.4.4.6,1,.6,1.6s-.2,1.1-.6,1.6M189.4,75.4c.3.3.7.4,1.1.4s.8-.1,1.1-.4c.3-.3.4-.7.4-1.1s-.1-.8-.4-1.1c-.3-.3-.7-.4-1.1-.4s-.8.1-1.1.4c-.3.3-.4.7-.4,1.1s.1.8.4,1.1"/>
      <polygon class="st1" points="197.2 75.8 198.9 75.8 198.9 76.5 196.5 76.5 196.5 72.2 197.2 72.2 197.2 75.8"/>
      <path class="st1" d="M203.2,76.5l-.3-.9h-1.8l-.3.9h-.8l1.6-4.3h.8l1.5,4.3h-.8ZM201.3,75h1.4l-.7-1.9-.7,1.9Z"/>
      <path class="st1" d="M206.9,72.2c.6,0,1.1.2,1.5.6.4.4.6.9.6,1.5s-.2,1.1-.6,1.5c-.4.4-.9.6-1.5.6h-1.7v-4.3h1.7ZM206.9,75.8c.4,0,.7-.1,1-.4.3-.3.4-.6.4-1.1s-.1-.8-.4-1.1c-.3-.3-.6-.4-1-.4h-1v2.9h1Z"/>
      <path class="st1" d="M213.9,75.9c-.4.4-1,.6-1.6.6s-1.1-.2-1.6-.6c-.4-.4-.6-1-.6-1.6s.2-1.1.6-1.6c.4-.4,1-.6,1.6-.6s1.1.2,1.6.6c.4.4.6,1,.6,1.6s-.2,1.1-.6,1.6M211.3,75.4c.3.3.7.4,1.1.4s.8-.1,1.1-.4c.3-.3.4-.7.4-1.1s-.1-.8-.4-1.1c-.3-.3-.7-.4-1.1-.4s-.8.1-1.1.4c-.3.3-.4.7-.4,1.1s.1.8.4,1.1"/>
      <path class="st1" d="M220,72.2c.6,0,1.1.2,1.5.6.4.4.6.9.6,1.5s-.2,1.1-.6,1.5c-.4.4-.9.6-1.5.6h-1.7v-4.3h1.7ZM220,75.8c.4,0,.7-.1,1-.4.3-.3.4-.6.4-1.1s-.1-.8-.4-1.1c-.3-.3-.6-.4-1-.4h-1v2.9h1Z"/>
      <path class="st1" d="M227.1,75.9c-.4.4-1,.6-1.6.6s-1.1-.2-1.6-.6c-.4-.4-.6-1-.6-1.6s.2-1.1.6-1.6c.4-.4,1-.6,1.6-.6s1.1.2,1.6.6c.4.4.6,1,.6,1.6s-.2,1.1-.6,1.6M224.4,75.4c.3.3.7.4,1.1.4s.8-.1,1.1-.4c.3-.3.4-.7.4-1.1s-.1-.8-.4-1.1c-.3-.3-.7-.4-1.1-.4s-.8.1-1.1.4c-.3.3-.4.7-.4,1.1s.1.8.4,1.1"/>
      <path class="st1" d="M233.1,72.2c.4,0,.7.1,1,.4.3.3.4.6.4,1s-.1.7-.4,1c-.3.3-.6.4-1,.4h-.9v1.5h-.7v-4.3h1.6ZM233.1,74.4c.2,0,.4,0,.5-.2.1-.1.2-.3.2-.5s0-.4-.2-.5c-.1-.1-.3-.2-.5-.2h-.9v1.5h.9Z"/>
      <path class="st1" d="M239.5,75.9c-.4.4-1,.6-1.6.6s-1.1-.2-1.6-.6c-.4-.4-.6-1-.6-1.6s.2-1.1.6-1.6c.4-.4,1-.6,1.6-.6s1.1.2,1.6.6c.4.4.6,1,.6,1.6s-.2,1.1-.6,1.6M236.8,75.4c.3.3.7.4,1.1.4s.8-.1,1.1-.4c.3-.3.4-.7.4-1.1s-.1-.8-.4-1.1c-.3-.3-.7-.4-1.1-.4s-.8.1-1.1.4c-.3.3-.4.7-.4,1.1s.1.8.4,1.1"/>
      <polygon class="st1" points="242.5 76.5 241 72.2 241.7 72.2 242.9 75.6 244 72.2 244.8 72.2 243.3 76.5 242.5 76.5"/>
      <path class="st1" d="M249.4,75.9c-.4.4-1,.6-1.6.6s-1.1-.2-1.6-.6c-.4-.4-.6-1-.6-1.6s.2-1.1.6-1.6c.4-.4,1-.6,1.6-.6s1.1.2,1.6.6c.4.4.6,1,.6,1.6s-.2,1.1-.6,1.6M246.8,75.4c.3.3.7.4,1.1.4s.8-.1,1.1-.4c.3-.3.4-.7.4-1.1s-.1-.8-.4-1.1c-.3-.3-.7-.4-1.1-.4s-.8.1-1.1.4c-.3.3-.4.7-.4,1.1s.1.8.4,1.1"/>
      <path class="st1" d="M256.4,74.3c.2,0,.3.2.4.4.1.2.2.4.2.6,0,.4-.1.6-.4.9s-.6.3-.9.3h-1.8v-4.3h1.7c.4,0,.6.1.9.3.2.2.4.5.4.8s-.1.7-.4.9M255.6,72.9h-1v1.1h1c.2,0,.3,0,.4-.2.1-.1.2-.2.2-.4s0-.3-.2-.4c-.1-.1-.2-.2-.4-.2M255.7,75.8c.2,0,.3,0,.4-.2.1-.1.2-.3.2-.4s0-.3-.2-.4c-.1-.1-.3-.2-.4-.2h-1.1v1.2h1.1Z"/>
      <path class="st1" d="M260.8,76.5l-.9-1.6h-.8v1.6h-.7v-4.3h1.7c.4,0,.7.1,1,.4.3.3.4.6.4,1s0,.5-.2.7c-.2.2-.4.4-.6.5l1,1.7h-.8ZM259.1,72.9v1.4h1c.2,0,.3,0,.5-.2.1-.1.2-.3.2-.5s0-.4-.2-.5c-.1-.1-.3-.2-.5-.2h-1Z"/>
      <path class="st1" d="M265.7,76.5l-.3-.9h-1.8l-.3.9h-.8l1.6-4.3h.8l1.5,4.3h-.8ZM263.8,75h1.4l-.7-1.9-.7,1.9Z"/>
      <path class="st1" d="M269.1,76.6c-.4,0-.8,0-1-.3-.3-.2-.5-.4-.6-.8l.6-.4c.2.5.5.7,1.1.7s.5,0,.6-.2c.1-.1.2-.2.2-.4s0-.3-.2-.4c-.1,0-.4-.2-.8-.3-.2,0-.4-.1-.5-.2-.1,0-.3-.1-.4-.2-.1,0-.2-.2-.3-.4,0-.1-.1-.3-.1-.5,0-.4.1-.7.4-.9.3-.2.6-.3,1-.3s.6,0,.9.3c.3.2.5.4.6.7l-.6.3c-.2-.4-.5-.6-.9-.6s-.4,0-.5.1c-.1,0-.2.2-.2.4s0,.3.2.4c.1,0,.4.2.7.3.2,0,.3.1.4.1,0,0,.2,0,.3.1.1,0,.2.1.3.2,0,0,.1.1.2.2,0,0,.1.2.2.3,0,.1,0,.2,0,.4,0,.4-.1.7-.4.9-.3.2-.6.3-1.1.3"/>
      <rect class="st1" x="271.9" y="72.2" width=".7" height="4.3"/>
      <polygon class="st1" points="275 75.8 276.8 75.8 276.8 76.5 274.3 76.5 274.3 72.2 275 72.2 275 75.8"/>
      <polygon class="st1" points="278.8 75.8 280.7 75.8 280.7 76.5 278.1 76.5 278.1 72.2 280.6 72.2 280.6 72.9 278.8 72.9 278.8 74 280.5 74 280.5 74.7 278.8 74.7 278.8 75.8"/>
      <rect class="st1" x="282.1" y="72.2" width=".7" height="4.3"/>
      <path class="st1" d="M286.9,76.5l-.9-1.6h-.8v1.6h-.7v-4.3h1.7c.4,0,.7.1,1,.4.3.3.4.6.4,1s0,.5-.2.7c-.2.2-.4.4-.6.5l1,1.7h-.8ZM285.2,72.9v1.4h1c.2,0,.3,0,.5-.2.1-.1.2-.3.2-.5s0-.4-.2-.5c-.1-.1-.3-.2-.5-.2h-1Z"/>
      <path class="st1" d="M292.6,75.9c-.4.4-1,.6-1.6.6s-1.1-.2-1.6-.6c-.4-.4-.6-1-.6-1.6s.2-1.1.6-1.6c.4-.4,1-.6,1.6-.6s1.1.2,1.6.6c.4.4.6,1,.6,1.6s-.2,1.1-.6,1.6M289.9,75.4c.3.3.7.4,1.1.4s.8-.1,1.1-.4c.3-.3.4-.7.4-1.1s-.1-.8-.4-1.1c-.3-.3-.7-.4-1.1-.4s-.8.1-1.1.4c-.3.3-.4.7-.4,1.1s.1.8.4,1.1"/>
      <path class="st1" d="M209.5,26.2v.4c0,1.8-1.2,2.9-2.7,2.9s-3-1.3-3-3,1.3-3,3-3,2,.5,2.5,1.4l-1.3.8c-.2-.4-.7-.7-1.2-.7-.8,0-1.4.6-1.4,1.5s.6,1.5,1.4,1.5,1-.3,1.1-.7h-1.5v-1.2h3.2Z"/>
      <path class="st1" d="M211.4,26.6c0-1.6,1.3-3,3-3s3,1.3,3,3-1.3,3-3,3-3-1.3-3-3M215.6,26.6c0-.8-.6-1.4-1.3-1.4s-1.3.6-1.3,1.4.6,1.4,1.3,1.4,1.3-.6,1.3-1.4"/>
      <polygon class="st1" points="224.4 23.7 222.2 29.4 220.7 29.4 218.5 23.7 220.2 23.7 221.5 27.2 222.8 23.7 224.4 23.7"/>
      <polygon class="st1" points="227.7 25.1 227.7 25.9 229.4 25.9 229.4 27.2 227.7 27.2 227.7 28 230.3 28 230.3 29.4 226.2 29.4 226.2 23.7 230.3 23.7 230.3 25.1 227.7 25.1"/>
      <path class="st1" d="M234.6,27.4h-.6v2h-1.5v-5.7h2.7c1.1,0,2,.8,2,1.8s-.4,1.3-1,1.6l1.3,2.2h-1.7l-1.1-2ZM233.9,26.1h1.1c.4,0,.6-.2.6-.5s-.2-.5-.6-.5h-1.1v1.1Z"/>
      <polygon class="st1" points="244.3 23.7 244.3 29.4 243.1 29.4 240.8 26.4 240.8 29.4 239.3 29.4 239.3 23.7 240.5 23.7 242.8 26.7 242.8 23.7 244.3 23.7"/>
      <path class="st1" d="M246.3,26.6c0-1.6,1.3-3,3-3s3,1.3,3,3-1.3,3-3,3-3-1.3-3-3M250.6,26.6c0-.8-.6-1.4-1.3-1.4s-1.3.6-1.3,1.4.6,1.4,1.3,1.4,1.3-.6,1.3-1.4"/>
      <path class="st1" d="M264.8,26.6c0,1.6-1.3,2.8-3,2.8h-2.3v-5.7h2.3c1.7,0,3,1.2,3,2.8M263.3,26.6c0-.8-.6-1.4-1.5-1.4h-.7v2.7h.7c.9,0,1.5-.5,1.5-1.4"/>
      <path class="st1" d="M209.5,26.2v.4c0,1.8-1.2,2.9-2.7,2.9s-3-1.3-3-3,1.3-3,3-3,2,.5,2.5,1.4l-1.3.8c-.2-.4-.7-.7-1.2-.7-.8,0-1.4.6-1.4,1.5s.6,1.5,1.4,1.5,1-.3,1.1-.7h-1.5v-1.2h3.2Z"/>
      <path class="st1" d="M211.4,26.6c0-1.6,1.3-3,3-3s3,1.3,3,3-1.3,3-3,3-3-1.3-3-3M215.6,26.6c0-.8-.6-1.4-1.3-1.4s-1.3.6-1.3,1.4.6,1.4,1.3,1.4,1.3-.6,1.3-1.4"/>
      <polygon class="st1" points="224.4 23.7 222.2 29.4 220.7 29.4 218.5 23.7 220.2 23.7 221.5 27.2 222.8 23.7 224.4 23.7"/>
      <polygon class="st1" points="227.7 25.1 227.7 25.9 229.4 25.9 229.4 27.2 227.7 27.2 227.7 28 230.3 28 230.3 29.4 226.2 29.4 226.2 23.7 230.3 23.7 230.3 25.1 227.7 25.1"/>
      <path class="st1" d="M234.6,27.4h-.6v2h-1.5v-5.7h2.7c1.1,0,2,.8,2,1.8s-.4,1.3-1,1.6l1.3,2.2h-1.7l-1.1-2ZM233.9,26.1h1.1c.4,0,.6-.2.6-.5s-.2-.5-.6-.5h-1.1v1.1Z"/>
      <polygon class="st1" points="244.3 23.7 244.3 29.4 243.1 29.4 240.8 26.4 240.8 29.4 239.3 29.4 239.3 23.7 240.5 23.7 242.8 26.7 242.8 23.7 244.3 23.7"/>
      <path class="st1" d="M246.3,26.6c0-1.6,1.3-3,3-3s3,1.3,3,3-1.3,3-3,3-3-1.3-3-3M250.6,26.6c0-.8-.6-1.4-1.3-1.4s-1.3.6-1.3,1.4.6,1.4,1.3,1.4,1.3-.6,1.3-1.4"/>
      <path class="st1" d="M266.2,26.6c0-1.6,1.3-3,3-3s3,1.3,3,3-1.3,3-3,3-3-1.3-3-3M270.5,26.6c0-.8-.6-1.4-1.3-1.4s-1.3.6-1.3,1.4.6,1.4,1.3,1.4,1.3-.6,1.3-1.4"/>
      <path class="st1" d="M264.8,26.6c0,1.6-1.3,2.8-3,2.8h-2.3v-5.7h2.3c1.7,0,3,1.2,3,2.8M263.3,26.6c0-.8-.6-1.4-1.5-1.4h-.7v2.7h.7c.9,0,1.5-.5,1.5-1.4"/>
    </g>
  </g>
</svg>