<?xml version="1.0" encoding="UTF-8"?>
<svg id="Layer_2" data-name="Layer 2" xmlns="http://www.w3.org/2000/svg" viewBox="0 0 1347.68 243.7">
  <defs>
    <style>
      .cls-1, .cls-2 {
        fill: #fff;
      }

      .cls-2 {
        fill-rule: evenodd;
      }
    </style>
  </defs>
  <g id="Camada_1" data-name="Camada 1">
    <g>
      <g>
        <path class="cls-2" d="M55.3,146.42c-10.07,0-17.93-7.14-17.93-15.99v-30.16h13.51v31.4c0,3.95,3.44,7.12,7.86,7.12,4.17,0,7.89-3.17,7.89-7.12v-31.4h6.37v30.16c0,8.85-7.86,15.99-17.7,15.99M17.19,128.22l-8.36-2.46c-5.14-1.72-8.83-6.87-8.83-12.52,0-7.39,5.9-13.23,13.27-13.23h16.48v5.84h-11.56c-2.21,0-4.17,1.71-4.17,4.19,0,1.47.97,3.2,2.69,3.67l8.1,2.71c5.43,1.73,8.36,7.36,8.36,13.76,0,8.11-6.37,14.75-14.5,14.75H1.24v-6.65h14.99c2.19,0,4.66-2.19,4.66-5.13,0-2.24-1.48-4.19-3.71-4.94M93.92,128.22l-8.38-2.46c-5.42-1.72-9.07-6.87-9.07-12.52,0-7.39,5.86-13.23,13.27-13.23h16.45v5.84h-11.55c-2.23,0-4.18,1.71-4.18,4.19,0,1.47.97,3.2,2.72,3.67l8.1,2.71c5.65,1.73,8.62,7.36,8.62,13.76,0,8.11-6.66,14.75-14.78,14.75h-17.44v-6.65h14.99c2.21,0,4.68-2.19,4.68-5.13,0-2.24-1.24-4.19-3.43-4.94"/>
        <path class="cls-2" d="M207.95,144.73h5.3v33.89c-.65-3.52-2.64-24.15-2.38-30.75-.67-.68-2.92-3.14-2.92-3.14M168.23,108.54h0l-5.67-5.77c-7.56.1-31.9-2.48-39.7-3.84v43.58c39.05,3.85,59.56,4.83,82.43,4.1h.38l-37.44-38.07ZM168.51,96.39h43.63v-42.27h-43.63v42.27ZM134.67,98.92c2.89.24,28.43,2.48,30.14,2.48l40.43,41.1h51.95v-43.58h-122.52ZM208.15,148.98s-23.31,1.59-43.13-.21c.4,24.1,3.31,36.49,3.78,39.13h43.33c-2.07-12.67-3.71-33.13-3.98-38.92"/>
      </g>
      <g>
        <path class="cls-1" d="M955.13,221.37c-.81-.96-1.82-1.73-3.03-2.31-1.21-.59-2.5-.88-3.89-.88s-2.62.28-3.82.84-2.22,1.3-3.06,2.22c-.84.92-1.51,2-2,3.23-.49,1.23-.73,2.51-.73,3.82,0,1.02.15,2.02.44,3.01.29.99.72,1.92,1.28,2.77.56.85,1.23,1.6,1.99,2.25.76.65,1.65,1.16,2.66,1.53,1.01.37,2.07.56,3.19.56,1.35,0,2.62-.28,3.82-.83s2.21-1.29,3.05-2.22c.83-.92,1.49-2,1.98-3.23.49-1.23.73-2.5.73-3.82s-.23-2.49-.7-3.7c-.47-1.21-1.1-2.3-1.91-3.25ZM954.09,230.95c-.29.86-.69,1.64-1.21,2.33-.52.69-1.19,1.25-2,1.67-.81.42-1.71.63-2.68.63-1.26,0-2.39-.35-3.38-1.04-.99-.7-1.74-1.59-2.24-2.69-.51-1.1-.76-2.28-.76-3.54,0-.91.15-1.79.44-2.65.29-.86.71-1.63,1.24-2.32.53-.69,1.21-1.24,2.02-1.65.82-.42,1.71-.62,2.68-.62s1.8.2,2.6.6c.8.4,1.47.93,2,1.61.53.67.96,1.45,1.26,2.32.31.88.46,1.78.46,2.73s-.14,1.79-.43,2.65Z"/>
        <polygon class="cls-1" points="982.31 229.39 991.22 229.39 991.22 226.77 982.31 226.77 982.31 221.1 992.6 221.1 992.6 218.32 979.17 218.32 979.17 238.28 992.85 238.28 992.85 235.49 982.31 235.49 982.31 229.39"/>
        <path class="cls-1" d="M1028.05,228.48c.71-1.09,1.07-2.32,1.07-3.67,0-.8-.16-1.58-.47-2.36-.31-.78-.73-1.47-1.26-2.09-.53-.61-1.19-1.11-1.97-1.48-.78-.38-1.61-.56-2.48-.56h-8.69v19.96h3.14v-6.95h4.64l4.34,6.95h3.54l-4.69-7.59c1.17-.37,2.11-1.11,2.83-2.2ZM1022.91,228.54h-5.52v-7.44h5.34c.84,0,1.58.36,2.22,1.09.64.73.96,1.6.96,2.62s-.28,1.91-.85,2.64-1.29,1.09-2.15,1.09Z"/>
        <path class="cls-1" d="M1299.44,221.37c-.81-.96-1.82-1.73-3.03-2.31-1.21-.59-2.5-.88-3.88-.88s-2.62.28-3.82.84-2.22,1.3-3.06,2.22c-.84.92-1.51,2-2,3.23-.49,1.23-.73,2.51-.73,3.82,0,1.02.15,2.02.44,3.01.29.99.72,1.92,1.28,2.77.56.85,1.23,1.6,1.99,2.25.76.65,1.65,1.16,2.66,1.53,1.01.37,2.07.56,3.19.56,1.34,0,2.62-.28,3.82-.83s2.21-1.29,3.05-2.22c.83-.92,1.49-2,1.98-3.23.49-1.23.73-2.5.73-3.82s-.23-2.49-.7-3.7c-.47-1.21-1.1-2.3-1.92-3.25ZM1298.4,230.95c-.29.86-.69,1.64-1.21,2.33-.52.69-1.19,1.25-2,1.67s-1.71.63-2.68.63c-1.26,0-2.39-.35-3.38-1.04-.99-.7-1.74-1.59-2.24-2.69-.51-1.1-.76-2.28-.76-3.54,0-.91.15-1.79.44-2.65.29-.86.7-1.63,1.24-2.32.53-.69,1.21-1.24,2.02-1.65.82-.42,1.71-.62,2.68-.62s1.8.2,2.6.6c.8.4,1.47.93,2,1.61.54.67.96,1.45,1.26,2.32.31.88.46,1.78.46,2.73s-.14,1.79-.43,2.65Z"/>
        <polygon class="cls-1" points="889.49 232.74 878.18 218.32 875.6 218.32 875.6 238.28 878.74 238.28 878.74 224.17 889.9 238.28 892.66 238.28 892.66 218.34 889.49 218.34 889.49 232.74"/>
        <polygon class="cls-1" points="1041.59 229.39 1050.5 229.39 1050.5 226.77 1041.59 226.77 1041.59 221.1 1051.89 221.1 1051.89 218.32 1038.45 218.32 1038.45 238.28 1052.13 238.28 1052.13 235.49 1041.59 235.49 1041.59 229.39"/>
        <path class="cls-1" d="M862.61,228.43c0,.75-.05,1.46-.16,2.12-.11.66-.29,1.31-.56,1.93-.27.62-.6,1.16-1,1.61s-.92.81-1.56,1.08c-.64.27-1.36.41-2.18.41s-1.52-.13-2.16-.4c-.63-.27-1.15-.62-1.55-1.06-.4-.44-.74-.97-1.01-1.59-.27-.62-.46-1.27-.57-1.94-.11-.67-.17-1.39-.17-2.15v-10.12h-3.16v10.12c0,1.07.09,2.08.28,3.03.19.95.5,1.85.93,2.72.43.86.97,1.6,1.62,2.22.65.61,1.47,1.1,2.45,1.47.98.37,2.09.55,3.33.55,1.49,0,2.8-.26,3.93-.78,1.13-.52,2.03-1.25,2.71-2.18.67-.93,1.17-1.98,1.5-3.16.33-1.18.49-2.46.49-3.86v-10.12h-3.18v10.12Z"/>
        <rect class="cls-1" x="902.77" y="218.32" width="3.14" height="19.96"/>
        <path class="cls-1" d="M920.27,215.22c.08-.18.23-.33.43-.45.2-.12.45-.18.74-.18.33,0,.68.1,1.05.3.37.2.78.4,1.21.6s.9.3,1.39.3.89-.1,1.28-.3c.39-.2.7-.43.93-.71.23-.28.42-.57.58-.89.16-.32.27-.59.33-.82.06-.23.09-.4.09-.52h-1.77s0,.11-.02.19c-.01.08-.05.19-.12.34-.06.14-.15.27-.25.39-.1.12-.26.22-.45.32-.2.09-.42.14-.68.14-.37,0-.75-.1-1.14-.31-.38-.21-.79-.41-1.21-.62-.42-.21-.87-.31-1.33-.31-.44,0-.84.09-1.2.28-.36.19-.65.42-.87.69-.21.27-.4.56-.55.88-.15.32-.25.59-.31.83-.06.24-.08.43-.08.56h1.74c0-.06.01-.15.04-.27.03-.11.08-.26.16-.44Z"/>
        <path class="cls-1" d="M921.81,218.32l-7.82,19.96h3.35l2.09-5.42h7.7l2.1,5.42h3.32l-7.76-19.96h-2.98ZM919.98,230.52l3.31-8.74,3.21,8.74h-6.52Z"/>
        <path class="cls-1" d="M1270.7,213.08c-.06.14-.15.27-.25.39-.1.12-.26.22-.45.32-.2.09-.42.14-.68.14-.38,0-.75-.1-1.14-.31-.38-.21-.79-.41-1.21-.62-.42-.21-.87-.31-1.33-.31-.44,0-.84.09-1.2.28-.36.19-.65.42-.86.69-.21.27-.4.56-.55.88-.15.32-.25.59-.31.83-.06.24-.08.43-.08.56h1.74c0-.06.01-.15.04-.27.03-.11.08-.26.16-.44.08-.18.22-.33.43-.45.2-.12.45-.18.74-.18.33,0,.68.1,1.05.3.37.2.77.4,1.21.6.44.2.9.3,1.39.3s.9-.1,1.28-.3c.39-.2.7-.43.93-.71.23-.28.42-.57.58-.89s.27-.59.33-.82c.06-.23.09-.4.09-.52h-1.77s0,.11-.02.19c-.01.08-.05.19-.12.34Z"/>
        <polygon class="cls-1" points="1125.86 232.74 1114.54 218.32 1111.96 218.32 1111.96 238.28 1115.11 238.28 1115.11 224.17 1126.27 238.28 1129.03 238.28 1129.03 218.34 1125.86 218.34 1125.86 232.74"/>
        <path class="cls-1" d="M1198.66,228.48c.71-1.09,1.07-2.32,1.07-3.67,0-.8-.16-1.58-.47-2.36-.31-.78-.73-1.47-1.26-2.09-.53-.61-1.19-1.11-1.97-1.48-.78-.38-1.61-.56-2.48-.56h-8.69v19.96h3.14v-6.95h4.64l4.34,6.95h3.54l-4.69-7.59c1.17-.37,2.11-1.11,2.83-2.2ZM1193.53,228.54h-5.52v-7.44h5.34c.84,0,1.58.36,2.22,1.09.64.73.96,1.6.96,2.62s-.28,1.91-.85,2.64c-.57.73-1.29,1.09-2.16,1.09Z"/>
        <polygon class="cls-1" points="1160.11 221.1 1166.76 221.1 1166.76 238.28 1169.95 238.28 1169.95 221.1 1176.58 221.1 1176.58 218.32 1160.11 218.32 1160.11 221.1"/>
        <path class="cls-1" d="M1152.03,229.42c-.35-.39-.81-.74-1.39-1.06-.58-.32-1.18-.58-1.8-.78-.62-.21-1.37-.41-2.25-.62-.55-.14-.99-.25-1.33-.34-.34-.09-.7-.19-1.09-.32-.39-.12-.69-.24-.92-.35-.22-.11-.45-.24-.68-.4-.23-.16-.4-.32-.51-.49-.11-.17-.21-.36-.28-.58-.07-.22-.11-.47-.11-.74,0-.88.32-1.56.97-2.04.65-.48,1.62-.72,2.92-.72,1.1,0,2.16.22,3.2.66,1.03.44,1.77.9,2.2,1.37l1.43-2.58c-2.04-1.5-4.29-2.25-6.74-2.25-1.03,0-1.99.13-2.87.4-.88.27-1.64.65-2.29,1.15-.65.5-1.16,1.14-1.53,1.92-.37.77-.56,1.64-.56,2.6,0,.77.12,1.43.36,2,.24.56.62,1.05,1.15,1.46.53.41,1.13.76,1.82,1.04.69.28,1.56.56,2.61.84.68.17,1.21.32,1.61.43.4.11.84.25,1.32.41.48.16.85.32,1.11.48.26.16.51.34.76.56.25.21.42.46.52.72.1.26.15.56.15.89,0,.82-.34,1.46-1.01,1.89s-1.63.66-2.88.66c-1.38,0-2.73-.28-4.03-.83-1.3-.55-2.24-1.13-2.82-1.72l-1.44,2.7c1.13.87,2.41,1.54,3.83,2,1.42.46,2.89.69,4.41.69.82,0,1.59-.07,2.31-.2.71-.13,1.38-.35,2-.65.62-.3,1.15-.67,1.59-1.11.44-.44.78-.98,1.04-1.62.25-.64.38-1.36.38-2.16,0-.71-.1-1.35-.31-1.91-.21-.56-.48-1.03-.83-1.42Z"/>
        <path class="cls-1" d="M1248.07,234.19c-.61.51-1.24.87-1.9,1.08-.65.22-1.32.32-2.01.32-1.21,0-2.31-.34-3.31-1.02-1-.68-1.77-1.58-2.31-2.7-.54-1.12-.82-2.32-.82-3.61,0-.71.08-1.4.25-2.09s.43-1.34.79-1.96c.36-.62.78-1.17,1.28-1.63.49-.47,1.09-.84,1.78-1.12s1.45-.42,2.25-.42c.5,0,1,.05,1.48.17.48.11.96.28,1.43.51.48.23.92.56,1.32.99s.74.93,1,1.5l2.47-1.66c-.67-1.32-1.66-2.37-2.98-3.16-1.32-.79-2.86-1.19-4.61-1.19-1.18,0-2.29.19-3.34.57-1.04.38-1.95.89-2.7,1.54-.76.65-1.42,1.4-1.97,2.24-.55.85-.97,1.75-1.24,2.7-.27.96-.41,1.92-.41,2.89,0,1.21.22,2.4.65,3.58.43,1.18,1.03,2.25,1.79,3.2.76.95,1.7,1.74,2.81,2.38,1.11.63,2.3,1,3.58,1.1,1.01.66,1.51,1.35,1.51,2.09,0,.43-.15.76-.45.98-.3.22-.71.34-1.24.34-.61,0-1.28-.2-1.99-.59l-.78,1.66c1.05.54,2.16.81,3.31.81.97,0,1.73-.24,2.27-.71.54-.48.81-1.12.81-1.92,0-1-.48-1.9-1.44-2.7,1.48-.21,2.85-.72,4.1-1.52,1.25-.8,2.14-1.81,2.65-3.04l-2.62-1.48c-.33.74-.8,1.37-1.41,1.87Z"/>
        <path class="cls-1" d="M1100.46,221.37c-.81-.96-1.82-1.73-3.03-2.31-1.21-.59-2.5-.88-3.89-.88s-2.62.28-3.82.84-2.22,1.3-3.06,2.22c-.84.92-1.51,2-2,3.23-.49,1.23-.73,2.51-.73,3.82,0,1.02.15,2.02.44,3.01.29.99.72,1.92,1.28,2.77.56.85,1.23,1.6,1.99,2.25.76.65,1.65,1.16,2.66,1.53,1.01.37,2.07.56,3.19.56,1.35,0,2.62-.28,3.82-.83s2.21-1.29,3.05-2.22c.83-.92,1.49-2,1.98-3.23.49-1.23.73-2.5.73-3.82s-.23-2.49-.7-3.7c-.47-1.21-1.1-2.3-1.91-3.25ZM1099.42,230.95c-.29.86-.69,1.64-1.21,2.33-.52.69-1.19,1.25-2,1.67-.81.42-1.71.63-2.68.63-1.26,0-2.39-.35-3.38-1.04-.99-.7-1.74-1.59-2.24-2.69-.51-1.1-.76-2.28-.76-3.54,0-.91.15-1.79.44-2.65.29-.86.71-1.63,1.24-2.32.53-.69,1.21-1.24,2.02-1.65.82-.42,1.71-.62,2.68-.62s1.8.2,2.6.6c.8.4,1.47.93,2,1.61.53.67.96,1.45,1.26,2.32.31.88.46,1.78.46,2.73s-.14,1.79-.43,2.65Z"/>
        <path class="cls-1" d="M1072.89,234.19c-.61.51-1.24.87-1.9,1.08-.65.22-1.32.32-2.01.32-1.21,0-2.31-.34-3.31-1.02-1-.68-1.77-1.58-2.31-2.7-.54-1.12-.82-2.32-.82-3.61,0-.71.08-1.4.25-2.09s.43-1.34.79-1.96c.36-.62.78-1.17,1.28-1.63.49-.47,1.09-.84,1.78-1.12.7-.28,1.45-.42,2.25-.42.5,0,1,.05,1.48.17.48.11.96.28,1.43.51.48.23.92.56,1.32.99s.74.93,1,1.5l2.47-1.66c-.67-1.32-1.66-2.37-2.98-3.16-1.32-.79-2.86-1.19-4.61-1.19-1.18,0-2.29.19-3.34.57-1.04.38-1.94.89-2.7,1.54s-1.42,1.4-1.97,2.24c-.55.85-.97,1.75-1.24,2.7-.27.96-.41,1.92-.41,2.89,0,1.26.24,2.51.71,3.74.48,1.23,1.12,2.33,1.94,3.3.82.97,1.83,1.75,3.03,2.35,1.2.6,2.48.89,3.84.89,1.07,0,2.14-.17,3.2-.52,1.06-.35,2.04-.88,2.92-1.61.89-.72,1.53-1.56,1.92-2.51l-2.62-1.48c-.33.74-.8,1.37-1.41,1.87Z"/>
        <path class="cls-1" d="M1266.12,218.32l-7.82,19.96h3.35l2.09-5.42h7.7l2.1,5.42h3.32l-7.76-19.96h-2.98ZM1264.29,230.52l3.31-8.74,3.21,8.74h-6.52Z"/>
        <path class="cls-1" d="M1222.8,228.43c0,.75-.05,1.46-.16,2.12-.1.66-.29,1.31-.56,1.93s-.6,1.16-1,1.61c-.4.45-.92.81-1.56,1.08-.64.27-1.36.41-2.18.41s-1.52-.13-2.15-.4c-.63-.27-1.15-.62-1.55-1.06-.4-.44-.74-.97-1.01-1.59-.27-.62-.46-1.27-.57-1.94-.11-.67-.16-1.39-.16-2.15v-10.12h-3.16v10.12c0,1.07.09,2.08.28,3.03.19.95.5,1.85.93,2.72.43.86.97,1.6,1.62,2.22.65.61,1.47,1.1,2.45,1.47.98.37,2.09.55,3.33.55,1.49,0,2.8-.26,3.93-.78,1.13-.52,2.03-1.25,2.7-2.18s1.17-1.98,1.5-3.16c.33-1.18.49-2.46.49-3.86v-10.12h-3.18v10.12Z"/>
        <path class="cls-1" d="M1058.34,26.61c7.36,0,13.27-5.91,13.27-13.31s-5.91-13.31-13.27-13.31-13.34,5.91-13.34,13.31,5.91,13.31,13.34,13.31ZM1058.34,7.03c3.33,0,5.91,2.69,5.91,6.28s-2.58,6.28-5.91,6.28-6.02-2.69-6.02-6.28,2.62-6.28,6.02-6.28Z"/>
        <path class="cls-1" d="M861.49,26.61c7.03,0,12.33-5.16,12.33-13.08v-1.98h-14.17v5.42h6.84c-.6,1.65-2.32,2.99-5.01,2.99-3.85,0-6.5-2.77-6.5-6.58s2.65-6.77,6.39-6.77c2.39,0,4.45,1.16,5.57,3.18l5.83-3.47c-2.35-3.92-6.65-6.32-11.33-6.32-7.4,0-13.31,5.91-13.31,13.34s5.87,13.27,13.34,13.27Z"/>
        <polygon class="cls-1" points="1105.17 16.75 1112.65 16.75 1112.65 10.99 1105.17 10.99 1105.17 6.69 1116.5 6.69 1116.5 .6 1098.29 .6 1098.29 26.01 1105.17 26.01 1105.17 16.75"/>
        <polygon class="cls-1" points="932.99 26.02 942.93 .6 935.57 .6 929.59 16.26 923.68 .6 916.32 .6 926.15 26.02 932.99 26.02"/>
        <path class="cls-1" d="M1224.88,17.23h2.88l5.05,8.78h7.59l-5.64-9.79c2.69-1.42,4.45-4.11,4.45-7.36,0-4.71-3.81-8.26-8.78-8.26h-12.3v25.42h6.76v-8.78ZM1224.88,6.69h4.78c1.64,0,2.62,1.12,2.62,2.39s-1.01,2.35-2.62,2.35h-4.78v-4.75Z"/>
        <path class="cls-1" d="M896.59,26.61c7.36,0,13.27-5.91,13.27-13.31s-5.91-13.31-13.27-13.31-13.34,5.91-13.34,13.31,5.91,13.31,13.34,13.31ZM896.59,7.03c3.33,0,5.91,2.69,5.91,6.28s-2.58,6.28-5.91,6.28-6.02-2.69-6.02-6.28,2.62-6.28,6.02-6.28Z"/>
        <path class="cls-1" d="M1179.47,13.31c0-7.29-5.83-12.71-13.57-12.71h-10.35v25.42h10.35c7.74,0,13.57-5.42,13.57-12.71ZM1162.46,19.4V7.21h3.1c4.04,0,6.8,2.39,6.8,6.09s-2.77,6.09-6.8,6.09h-3.1Z"/>
        <polygon class="cls-1" points="1144.97 19.81 1133.65 19.81 1133.65 16.04 1141.12 16.04 1141.12 10.58 1133.65 10.58 1133.65 6.8 1144.97 6.8 1144.97 .6 1126.77 .6 1126.77 26.01 1144.97 26.01 1144.97 19.81"/>
        <path class="cls-1" d="M1268.64,26.01h7.1l-10.73-25.42h-6.5l-10.62,25.42h7.14l1.76-4.37h10.05l1.79,4.37ZM1259.26,15.59l2.54-6.24,2.54,6.24h-5.08Z"/>
        <path class="cls-1" d="M987.4,17.23h2.88l5.05,8.78h7.59l-5.64-9.79c2.69-1.42,4.45-4.11,4.45-7.36,0-4.71-3.81-8.26-8.78-8.26h-12.3v25.42h6.77v-8.78ZM987.4,6.69h4.78c1.64,0,2.62,1.12,2.62,2.39s-1.01,2.35-2.62,2.35h-4.78v-4.75Z"/>
        <polygon class="cls-1" points="1207.54 19.81 1196.21 19.81 1196.21 16.04 1203.69 16.04 1203.69 10.58 1196.21 10.58 1196.21 6.8 1207.54 6.8 1207.54 .6 1189.33 .6 1189.33 26.01 1207.54 26.01 1207.54 19.81"/>
        <polygon class="cls-1" points="1019.1 12.63 1029.34 26.02 1035.13 26.02 1035.13 .6 1028.37 .6 1028.37 14.02 1018.09 .6 1012.33 .6 1012.33 26.02 1019.1 26.02 1019.1 12.63"/>
        <polygon class="cls-1" points="970.06 19.81 958.74 19.81 958.74 16.04 966.21 16.04 966.21 10.58 958.74 10.58 958.74 6.8 970.06 6.8 970.06 .6 951.86 .6 951.86 26.01 970.06 26.01 970.06 19.81"/>
        <polygon class="cls-1" points="1291.89 .6 1284.67 .6 1284.67 26.01 1302.58 26.01 1302.58 19.47 1291.89 19.47 1291.89 .6"/>
        <rect class="cls-1" x="1145.51" y="54.75" width="47.7" height="46.3"/>
        <polygon class="cls-1" points="1143.13 186.23 1143.13 114.24 1101.75 114.24 1101.75 148.14 1124.41 186.23 1143.13 186.23"/>
        <path class="cls-1" d="M1143.13,111.86v-57.12h-12.82c-15.75,0-28.56,12.81-28.56,28.56s12.81,28.55,28.55,28.56h12.83Z"/>
        <polygon class="cls-1" points="1101.75 186.23 1121.64 186.23 1101.75 152.78 1101.75 186.23"/>
        <rect class="cls-1" x="1257.48" y="54.75" width="43.91" height="86.52"/>
        <path class="cls-1" d="M1077.48,153.43c-8.97-8.81-20.82-13.66-33.36-13.66s-24.39,4.85-33.36,13.66c-8.9,8.74-13.96,20.38-14.27,32.8h95.26c-.31-12.42-5.37-24.06-14.27-32.8Z"/>
        <path class="cls-1" d="M1159.61,103.42h-14.1v82.81h14.1c22.83,0,41.4-18.57,41.4-41.4s-18.57-41.4-41.4-41.4Z"/>
        <path class="cls-1" d="M1044.12,137.4c13.17,0,25.62,5.1,35.04,14.35,9.35,9.19,14.66,21.43,14.97,34.48h5.25v-37.44l-55.26-92.91-66.1,111.15,12.48,19.2h3.62c.31-13.05,5.62-25.29,14.97-34.48,9.42-9.26,21.86-14.35,35.04-14.35Z"/>
        <rect class="cls-1" x="1303.77" y="143.64" width="43.91" height="42.58"/>
        <rect class="cls-1" x="1203.39" y="54.75" width="43.91" height="131.48"/>
        <path class="cls-1" d="M994.61,93.98c0-21.63-17.6-39.24-39.24-39.24h-50.34l50.98,78.47c21.29-.34,38.59-17.91,38.59-39.23Z"/>
        <rect class="cls-1" x="1257.48" y="143.64" width="43.91" height="42.58"/>
        <polygon class="cls-1" points="976.66 169.31 966.6 186.23 987.66 186.23 976.66 169.31"/>
        <rect class="cls-1" x="802.46" y="108.45" width="43.91" height="77.77"/>
        <path class="cls-1" d="M848.74,54.75v51.33h9.53c14.15,0,25.67-11.51,25.67-25.67s-11.51-25.67-25.67-25.67h-9.53Z"/>
        <polygon class="cls-1" points="904.03 133.22 953.19 133.22 904.03 57.57 904.03 133.22"/>
        <polygon class="cls-1" points="954.73 135.59 904.03 135.59 904.03 186.23 963.83 186.23 975.22 167.09 954.73 135.59"/>
        <rect class="cls-1" x="802.46" y="54.75" width="43.91" height="51.33"/>
        <path class="cls-1" d="M862.77,108.45h-14.03v77.77h14.03c21.44,0,38.89-17.44,38.89-38.89s-17.45-38.89-38.89-38.89Z"/>
      </g>
      <g>
        <path class="cls-1" d="M369.06,104.49v-19.24l-7.95,14.6h-2.51l-7.99-14.6v19.24h-4.25v-27h4.57l8.93,16.51,8.93-16.51h4.57v27h-4.31Z"/>
        <path class="cls-1" d="M387.05,104.49v-27h4.25v27h-4.25Z"/>
        <path class="cls-1" d="M409.25,85.4v19.09h-4.25v-27h3.49l15.3,19.52v-19.48h4.29v26.97h-3.73l-15.1-19.09Z"/>
        <path class="cls-1" d="M441.77,104.49v-27h4.25v27h-4.25Z"/>
        <path class="cls-1" d="M475.69,83.84c-.58-.64-1.57-1.26-2.97-1.86-1.4-.59-2.84-.89-4.33-.89-1.76,0-3.07.32-3.95.97s-1.31,1.57-1.31,2.76c0,.37.05.71.15,1,.1.3.23.56.38.79.16.23.39.45.7.66.31.21.62.39.92.54.3.15.72.31,1.24.47s1.02.31,1.48.43c.46.12,1.06.27,1.8.45,1.19.29,2.2.57,3.05.85.84.28,1.65.63,2.43,1.06.78.43,1.41.9,1.88,1.43.47.53.84,1.17,1.12,1.92.28.75.42,1.62.42,2.58,0,1.08-.17,2.05-.51,2.92s-.81,1.6-1.4,2.19c-.59.59-1.31,1.09-2.15,1.5s-1.75.69-2.71.87c-.97.18-2.01.27-3.12.27-2.06,0-4.04-.31-5.96-.94s-3.65-1.53-5.18-2.7l1.95-3.66c.78.81,2.05,1.58,3.82,2.33s3.58,1.12,5.45,1.12c1.68,0,2.98-.3,3.89-.89s1.37-1.45,1.37-2.56c0-.45-.07-.85-.2-1.21-.14-.36-.37-.68-.71-.97s-.68-.54-1.03-.75c-.35-.21-.85-.43-1.5-.65s-1.24-.41-1.78-.56c-.54-.15-1.27-.34-2.18-.58-1.42-.37-2.6-.75-3.53-1.13s-1.75-.85-2.46-1.41c-.71-.56-1.23-1.22-1.55-1.98-.32-.76-.48-1.66-.48-2.7,0-1.3.25-2.47.75-3.52.5-1.05,1.19-1.91,2.07-2.59.88-.68,1.91-1.2,3.1-1.56,1.19-.36,2.48-.54,3.88-.54,3.32,0,6.36,1.02,9.12,3.05l-1.93,3.49Z"/>
        <path class="cls-1" d="M510.38,81.26h-8.97v23.23h-4.31v-23.23h-9.01v-3.77h22.29v3.77Z"/>
        <path class="cls-1" d="M540.1,100.72v3.77h-18.52v-27h18.18v3.77h-13.93v7.67h12.05v3.55h-12.05v8.25h14.26ZM532.55,74.7l-2.75-.83,2.17-4.18h3.99l-3.42,5.01Z"/>
        <path class="cls-1" d="M552.11,104.49v-27h11.76c1.18,0,2.29.25,3.35.76s1.95,1.18,2.67,2.01,1.29,1.77,1.71,2.82c.42,1.05.63,2.12.63,3.19,0,1.83-.48,3.49-1.45,4.97s-2.24,2.47-3.83,2.98l6.35,10.27h-4.79l-5.87-9.4h-6.28v9.4h-4.25ZM556.37,91.32h7.47c1.18,0,2.15-.49,2.92-1.48s1.15-2.18,1.15-3.58-.43-2.55-1.3-3.54c-.87-.98-1.87-1.48-3.01-1.48h-7.22v10.07Z"/>
        <path class="cls-1" d="M584.85,104.49v-27h4.25v27h-4.25Z"/>
        <path class="cls-1" d="M601.09,90.99c0-1.78.33-3.51.99-5.17.66-1.67,1.56-3.12,2.7-4.37,1.14-1.25,2.52-2.25,4.14-3.01,1.62-.75,3.34-1.13,5.16-1.13s3.62.4,5.26,1.19c1.63.79,3,1.84,4.09,3.13s1.96,2.76,2.59,4.4c.63,1.64.95,3.31.95,5,0,1.78-.33,3.5-.99,5.16-.66,1.66-1.56,3.11-2.68,4.36-1.13,1.25-2.5,2.25-4.12,3s-3.34,1.12-5.16,1.12c-1.51,0-2.95-.25-4.31-.75-1.36-.5-2.56-1.19-3.59-2.07-1.03-.88-1.93-1.89-2.69-3.05s-1.34-2.4-1.74-3.74c-.4-1.34-.59-2.7-.59-4.08ZM614.05,100.83c1.31,0,2.52-.29,3.62-.85,1.1-.57,2.01-1.32,2.71-2.26.71-.93,1.25-1.98,1.64-3.15s.58-2.36.58-3.58-.21-2.5-.62-3.69c-.42-1.18-.98-2.23-1.71-3.14-.72-.91-1.63-1.63-2.71-2.17-1.08-.54-2.26-.81-3.52-.81s-2.52.28-3.63.84c-1.11.56-2.02,1.31-2.74,2.24-.72.93-1.28,1.97-1.67,3.14s-.59,2.36-.59,3.58c0,1.71.34,3.31,1.03,4.79.69,1.49,1.7,2.7,3.04,3.64,1.34.94,2.86,1.41,4.57,1.41Z"/>
        <path class="cls-1" d="M655.99,104.49v-27h9.58c2.12,0,4.02.35,5.71,1.05,1.69.7,3.07,1.67,4.15,2.9,1.08,1.23,1.9,2.66,2.46,4.27.56,1.62.84,3.36.84,5.25,0,4.09-1.2,7.36-3.59,9.83-2.4,2.47-5.59,3.71-9.57,3.71h-9.58ZM665.58,81.26h-5.33v19.46h5.33c1.86,0,3.46-.43,4.8-1.29,1.34-.86,2.35-2.02,3.02-3.48.67-1.46,1-3.13,1-5,0-2.88-.78-5.22-2.35-7.01s-3.72-2.68-6.47-2.68Z"/>
        <path class="cls-1" d="M697.64,77.49h4.03l10.49,27h-4.5l-2.84-7.34h-10.42l-2.82,7.34h-4.53l10.59-27ZM704,94l-4.35-11.83-4.48,11.83h8.82Z"/>
      </g>
      <g>
        <path class="cls-1" d="M574.26,139.7c-.11-.06-.26-.15-.45-.26-.19-.11-.56-.31-1.13-.59-.57-.29-1.13-.54-1.67-.75s-1.18-.42-1.9-.59c-.72-.18-1.39-.27-2-.27-1.45,0-2.17.45-2.17,1.34,0,.2.03.38.1.54.07.16.19.31.36.45.17.14.34.25.51.35.17.1.42.21.77.33.35.12.64.22.89.3.25.08.62.19,1.13.34.51.16.92.28,1.24.38,1.09.33,2.01.66,2.78.98.76.32,1.5.71,2.22,1.18.72.46,1.29.97,1.73,1.53.43.56.78,1.23,1.03,2.01.25.79.38,1.67.38,2.67,0,1.25-.2,2.38-.59,3.38s-.92,1.82-1.57,2.46c-.65.64-1.43,1.17-2.33,1.59-.9.42-1.83.72-2.78.89-.95.17-1.95.26-3,.26-1.94,0-3.98-.29-6.11-.86-2.13-.58-4.01-1.34-5.63-2.29l3.2-6.5c.12.09.29.2.51.33.22.13.66.37,1.34.71s1.34.64,2,.9,1.43.5,2.33.71c.9.22,1.73.33,2.5.33,1.44,0,2.15-.4,2.15-1.19,0-.3-.09-.56-.28-.79-.19-.23-.5-.44-.93-.63-.43-.19-.85-.35-1.25-.48s-.97-.3-1.71-.52c-.74-.22-1.35-.41-1.83-.57-2.43-.82-4.18-1.8-5.25-2.94-1.07-1.15-1.61-2.69-1.61-4.63,0-1.45.28-2.76.83-3.94.55-1.18,1.29-2.14,2.23-2.88s2-1.31,3.2-1.71c1.2-.4,2.48-.59,3.83-.59,2.88,0,6.26.97,10.12,2.92l-3.19,6.13Z"/>
        <path class="cls-1" d="M594.52,130.87h8.28l8.6,27h-7.52l-1.63-5.29h-7.21l-1.6,5.29h-7.56l8.64-27ZM601.05,147.64l-2.4-9.51-2.51,9.51h4.9Z"/>
        <path class="cls-1" d="M632.03,158.1c-1.68,0-3.21-.23-4.58-.71s-2.52-1.11-3.46-1.93c-.93-.82-1.72-1.79-2.35-2.93-.63-1.14-1.09-2.36-1.38-3.65s-.43-2.67-.43-4.13v-13.87h7.43v13.87c0,.93.09,1.79.27,2.58.18.79.45,1.51.82,2.15.36.64.86,1.14,1.49,1.5s1.35.55,2.18.55,1.58-.19,2.21-.56c.63-.37,1.13-.88,1.5-1.53.37-.65.64-1.37.82-2.15.18-.79.27-1.63.27-2.54v-13.87h7.41v13.87c0,1.92-.25,3.68-.74,5.27-.5,1.6-1.23,3-2.2,4.22-.97,1.21-2.25,2.16-3.83,2.84-1.58.68-3.39,1.02-5.43,1.02ZM634.31,129.72l-4.57-1.21,1.89-5.4h6.43l-3.75,6.61Z"/>
        <path class="cls-1" d="M656.09,157.88v-27h10.38c2.18,0,4.14.35,5.9,1.05s3.18,1.67,4.29,2.9c1.11,1.23,1.96,2.66,2.54,4.27.59,1.62.88,3.36.88,5.25,0,4.09-1.24,7.36-3.72,9.83-2.48,2.47-5.78,3.71-9.89,3.71h-10.38ZM666.47,137.34h-2.97v14.08h2.97c1.89,0,3.38-.66,4.47-1.97s1.62-3.01,1.62-5.11-.54-3.81-1.63-5.09c-1.09-1.27-2.58-1.91-4.46-1.91Z"/>
        <path class="cls-1" d="M710.16,151.41v6.46h-19.24v-27h18.91v6.46h-11.5v3.81h9.83v6h-9.83v4.27h11.83Z"/>
      </g>
    </g>
  </g>
</svg>