<?xml version="1.0" encoding="UTF-8"?>
<svg id="Layer_1" xmlns="http://www.w3.org/2000/svg" version="1.1" viewBox="0 0 672 230">
  <!-- Generator: Adobe Illustrator 30.0.0, SVG Export Plug-In . SVG Version: 2.1.1 Build 123)  -->
  <defs>
    <style>
      .st0 {
        fill: #7753d5;
      }

      .st1 {
        opacity: .9;
      }

      .st2 {
        opacity: .8;
      }

      .st3 {
        opacity: .7;
      }

      .st4 {
        opacity: .4;
      }

      .st5 {
        opacity: .6;
      }

      .st6 {
        opacity: .5;
      }

      .st7 {
        opacity: .2;
      }

      .st8 {
        opacity: .3;
      }

      .st9 {
        opacity: .1;
      }

      .st10 {
        opacity: 0;
      }
    </style>
  </defs>
  <g>
    <g class="st9">
      <rect class="st0" x="29.8" y="-149.3" width="28.9" height="28.9"/>
    </g>
    <g class="st4">
      <rect class="st0" x="69" y="-149.3" width="28.9" height="28.9"/>
    </g>
    <g class="st2">
      <rect class="st0" x="500.5" y="-149.3" width="28.9" height="28.9"/>
    </g>
    <g class="st6">
      <rect class="st0" x="539.7" y="-149.3" width="28.9" height="28.9"/>
    </g>
    <g class="st10">
      <rect class="st0" x="578.9" y="-149.3" width="28.9" height="28.9"/>
    </g>
    <g class="st1">
      <rect class="st0" x="618.1" y="-149.3" width="28.9" height="28.9"/>
    </g>
    <g class="st1">
      <rect class="st0" x="657.3" y="-149.3" width="28.9" height="28.9"/>
    </g>
    <g class="st10">
      <rect class="st0" x="696.6" y="-149.3" width="28.9" height="28.9"/>
    </g>
    <g class="st7">
      <rect class="st0" x="736.7" y="-149.3" width="28.9" height="28.9"/>
    </g>
    <g class="st5">
      <rect class="st0" x="29.8" y="-112.7" width="28.9" height="28.9"/>
    </g>
    <g class="st7">
      <rect class="st0" x="69" y="-112.7" width="28.9" height="28.9"/>
    </g>
    <g class="st4">
      <rect class="st0" x="108.2" y="-112.7" width="28.9" height="28.9"/>
    </g>
    <g class="st5">
      <rect class="st0" x="461.2" y="-112.7" width="28.9" height="28.9"/>
    </g>
    <g class="st1">
      <rect class="st0" x="500.5" y="-112.7" width="28.9" height="28.9"/>
    </g>
    <g class="st4">
      <rect class="st0" x="539.7" y="-112.7" width="28.9" height="28.9"/>
    </g>
    <g class="st6">
      <rect class="st0" x="578.9" y="-112.7" width="28.9" height="28.9"/>
    </g>
    <g class="st5">
      <rect class="st0" x="618.1" y="-112.7" width="28.9" height="28.9"/>
    </g>
    <g class="st10">
      <rect class="st0" x="657.3" y="-112.7" width="28.9" height="28.9"/>
    </g>
    <g class="st7">
      <rect class="st0" x="29.8" y="-76.2" width="28.9" height="28.9"/>
    </g>
    <g class="st8">
      <rect class="st0" x="69" y="-76.2" width="28.9" height="28.9"/>
    </g>
    <rect class="st0" x="108.2" y="-76.2" width="28.9" height="28.9"/>
    <g class="st6">
      <rect class="st0" x="422" y="-76.2" width="28.9" height="28.9"/>
    </g>
    <g class="st2">
      <rect class="st0" x="461.2" y="-76.2" width="28.9" height="28.9"/>
    </g>
    <g class="st2">
      <rect class="st0" x="500.5" y="-76.2" width="28.9" height="28.9"/>
    </g>
    <rect class="st0" x="539.7" y="-76.2" width="28.9" height="28.9"/>
    <g class="st9">
      <rect class="st0" x="578.9" y="-76.2" width="28.9" height="28.9"/>
    </g>
    <g class="st4">
      <rect class="st0" x="618.1" y="-76.2" width="28.9" height="28.9"/>
    </g>
    <g class="st4">
      <rect class="st0" x="29.8" y="-39.7" width="28.9" height="28.9"/>
    </g>
    <g class="st3">
      <rect class="st0" x="69" y="-39.7" width="28.9" height="28.9"/>
    </g>
    <g class="st5">
      <rect class="st0" x="108.2" y="-39.7" width="28.9" height="28.9"/>
    </g>
    <g class="st4">
      <rect class="st0" x="147.5" y="-39.7" width="28.9" height="28.9"/>
    </g>
    <g class="st5">
      <rect class="st0" x="186.7" y="-39.7" width="28.9" height="28.9"/>
    </g>
    <g class="st8">
      <rect class="st0" x="225.9" y="-39.7" width="28.9" height="28.9"/>
    </g>
    <g class="st1">
      <rect class="st0" x="265.1" y="-39.7" width="28.9" height="28.9"/>
    </g>
    <g class="st5">
      <rect class="st0" x="304.3" y="-39.7" width="28.9" height="28.9"/>
    </g>
    <g class="st10">
      <rect class="st0" x="343.6" y="-39.7" width="28.9" height="28.9"/>
    </g>
    <g class="st9">
      <rect class="st0" x="382.8" y="-39.7" width="28.9" height="28.9"/>
    </g>
    <g class="st1">
      <rect class="st0" x="422" y="-39.7" width="28.9" height="28.9"/>
    </g>
    <g class="st5">
      <rect class="st0" x="461.2" y="-39.7" width="28.9" height="28.9"/>
    </g>
    <g class="st6">
      <rect class="st0" x="500.5" y="-39.7" width="28.9" height="28.9"/>
    </g>
    <g class="st10">
      <rect class="st0" x="539.7" y="-39.7" width="28.9" height="28.9"/>
    </g>
    <g class="st1">
      <rect class="st0" x="578.9" y="-39.7" width="28.9" height="28.9"/>
    </g>
    <rect class="st0" x="29.8" y="-3.2" width="28.9" height="28.9"/>
    <g class="st4">
      <rect class="st0" x="69" y="-3.2" width="28.9" height="28.9"/>
    </g>
    <g class="st2">
      <rect class="st0" x="108.2" y="-3.2" width="28.9" height="28.9"/>
    </g>
    <g class="st5">
      <rect class="st0" x="147.5" y="-3.2" width="28.9" height="28.9"/>
    </g>
    <g class="st4">
      <rect class="st0" x="186.7" y="-3.2" width="28.9" height="28.9"/>
    </g>
    <g class="st10">
      <rect class="st0" x="225.9" y="-3.2" width="28.9" height="28.9"/>
    </g>
    <g class="st2">
      <rect class="st0" x="265.1" y="-3.2" width="28.9" height="28.9"/>
    </g>
    <g class="st2">
      <rect class="st0" x="304.3" y="-3.2" width="28.9" height="28.9"/>
    </g>
    <g class="st2">
      <rect class="st0" x="343.6" y="-3.2" width="28.9" height="28.9"/>
    </g>
    <g class="st10">
      <rect class="st0" x="29.8" y="33.3" width="28.9" height="28.9"/>
    </g>
    <g class="st5">
      <rect class="st0" x="69" y="33.3" width="28.9" height="28.9"/>
    </g>
    <g class="st10">
      <rect class="st0" x="108.2" y="33.3" width="28.9" height="28.9"/>
    </g>
    <g class="st4">
      <rect class="st0" x="147.5" y="33.3" width="28.9" height="28.9"/>
    </g>
    <rect class="st0" x="186.7" y="33.3" width="28.9" height="28.9"/>
    <rect class="st0" x="225.9" y="33.3" width="28.9" height="28.9"/>
    <g class="st10">
      <rect class="st0" x="265.1" y="33.3" width="28.9" height="28.9"/>
    </g>
    <g class="st8">
      <rect class="st0" x="304.3" y="33.3" width="28.9" height="28.9"/>
    </g>
    <g class="st4">
      <rect class="st0" x="343.6" y="33.3" width="28.9" height="28.9"/>
    </g>
  </g>
  <g>
    <g class="st9">
      <rect class="st0" x="747.5" y="-69.4" width="19.4" height="19.4"/>
    </g>
    <g class="st4">
      <rect class="st0" x="721.1" y="-69.4" width="19.4" height="19.4"/>
    </g>
    <g class="st5">
      <rect class="st0" x="694.8" y="-69.4" width="19.4" height="19.4"/>
    </g>
    <g class="st3">
      <rect class="st0" x="668.5" y="-69.4" width="19.4" height="19.4"/>
    </g>
    <g class="st4">
      <rect class="st0" x="642.2" y="-69.4" width="19.4" height="19.4"/>
    </g>
    <g class="st1">
      <rect class="st0" x="615.9" y="-69.4" width="19.4" height="19.4"/>
    </g>
    <rect class="st0" x="589.5" y="-69.4" width="19.4" height="19.4"/>
    <g class="st5">
      <rect class="st0" x="747.5" y="-44.9" width="19.4" height="19.4"/>
    </g>
    <g class="st7">
      <rect class="st0" x="721.1" y="-44.9" width="19.4" height="19.4"/>
    </g>
    <g class="st4">
      <rect class="st0" x="694.8" y="-44.9" width="19.4" height="19.4"/>
    </g>
    <g class="st4">
      <rect class="st0" x="668.5" y="-44.9" width="19.4" height="19.4"/>
    </g>
    <g class="st3">
      <rect class="st0" x="642.2" y="-44.9" width="19.4" height="19.4"/>
    </g>
    <g class="st10">
      <rect class="st0" x="615.9" y="-44.9" width="19.4" height="19.4"/>
    </g>
    <rect class="st0" x="589.5" y="-44.9" width="19.4" height="19.4"/>
    <g class="st10">
      <rect class="st0" x="563.2" y="-44.9" width="19.4" height="19.4"/>
    </g>
    <g class="st7">
      <rect class="st0" x="536.9" y="-44.9" width="19.4" height="19.4"/>
    </g>
    <g class="st7">
      <rect class="st0" x="747.5" y="-20.4" width="19.4" height="19.4"/>
    </g>
    <g class="st8">
      <rect class="st0" x="721.1" y="-20.4" width="19.4" height="19.4"/>
    </g>
    <rect class="st0" x="694.8" y="-20.4" width="19.4" height="19.4"/>
    <g class="st6">
      <rect class="st0" x="668.5" y="-20.4" width="19.4" height="19.4"/>
    </g>
    <g class="st10">
      <rect class="st0" x="642.2" y="-20.4" width="19.4" height="19.4"/>
    </g>
    <g class="st3">
      <rect class="st0" x="615.9" y="-20.4" width="19.4" height="19.4"/>
    </g>
    <g class="st2">
      <rect class="st0" x="589.5" y="-20.4" width="19.4" height="19.4"/>
    </g>
    <g class="st6">
      <rect class="st0" x="563.2" y="-20.4" width="19.4" height="19.4"/>
    </g>
    <g class="st9">
      <rect class="st0" x="536.9" y="-20.4" width="19.4" height="19.4"/>
    </g>
    <g class="st8">
      <rect class="st0" x="510.6" y="-20.4" width="19.4" height="19.4"/>
    </g>
    <g class="st6">
      <rect class="st0" x="484.2" y="-20.4" width="19.4" height="19.4"/>
    </g>
    <g class="st2">
      <rect class="st0" x="457.9" y="-20.4" width="19.4" height="19.4"/>
    </g>
    <g class="st2">
      <rect class="st0" x="431.6" y="-20.4" width="19.4" height="19.4"/>
    </g>
    <rect class="st0" x="405.3" y="-20.4" width="19.4" height="19.4"/>
    <g class="st9">
      <rect class="st0" x="379" y="-20.4" width="19.4" height="19.4"/>
    </g>
    <g class="st4">
      <rect class="st0" x="352.6" y="-20.4" width="19.4" height="19.4"/>
    </g>
    <g class="st10">
      <rect class="st0" x="326.3" y="-20.4" width="19.4" height="19.4"/>
    </g>
    <g class="st3">
      <rect class="st0" x="300" y="-20.4" width="19.4" height="19.4"/>
    </g>
    <g class="st2">
      <rect class="st0" x="273.1" y="-20.4" width="19.4" height="19.4"/>
    </g>
    <g class="st6">
      <rect class="st0" x="246.7" y="-20.4" width="19.4" height="19.4"/>
    </g>
    <g class="st10">
      <rect class="st0" x="220.4" y="-20.4" width="19.4" height="19.4"/>
    </g>
    <g class="st4">
      <rect class="st0" x="747.5" y="4.1" width="19.4" height="19.4"/>
    </g>
    <g class="st8">
      <rect class="st0" x="615.9" y="4.1" width="19.4" height="19.4"/>
    </g>
    <g class="st1">
      <rect class="st0" x="589.5" y="4.1" width="19.4" height="19.4"/>
    </g>
    <g class="st5">
      <rect class="st0" x="563.2" y="4.1" width="19.4" height="19.4"/>
    </g>
    <g class="st10">
      <rect class="st0" x="536.9" y="4.1" width="19.4" height="19.4"/>
    </g>
    <g class="st9">
      <rect class="st0" x="510.6" y="4.1" width="19.4" height="19.4"/>
    </g>
    <g class="st1">
      <rect class="st0" x="484.2" y="4.1" width="19.4" height="19.4"/>
    </g>
    <g class="st5">
      <rect class="st0" x="457.9" y="4.1" width="19.4" height="19.4"/>
    </g>
    <g class="st6">
      <rect class="st0" x="431.6" y="4.1" width="19.4" height="19.4"/>
    </g>
    <g class="st10">
      <rect class="st0" x="405.3" y="4.1" width="19.4" height="19.4"/>
    </g>
    <g class="st1">
      <rect class="st0" x="379" y="4.1" width="19.4" height="19.4"/>
    </g>
    <g class="st1">
      <rect class="st0" x="352.6" y="4.1" width="19.4" height="19.4"/>
    </g>
    <g class="st4">
      <rect class="st0" x="326.3" y="4.1" width="19.4" height="19.4"/>
    </g>
    <g class="st9">
      <rect class="st0" x="300" y="4.1" width="19.4" height="19.4"/>
    </g>
    <g class="st10">
      <rect class="st0" x="273.1" y="4.1" width="19.4" height="19.4"/>
    </g>
    <g class="st6">
      <rect class="st0" x="246.7" y="4.1" width="19.4" height="19.4"/>
    </g>
    <g class="st7">
      <rect class="st0" x="220.4" y="4.1" width="19.4" height="19.4"/>
    </g>
    <g class="st10">
      <rect class="st0" x="194.1" y="4.1" width="19.4" height="19.4"/>
    </g>
    <g class="st6">
      <rect class="st0" x="167.8" y="4.1" width="19.4" height="19.4"/>
    </g>
    <g class="st1">
      <rect class="st0" x="141.5" y="4.1" width="19.4" height="19.4"/>
    </g>
    <g class="st4">
      <rect class="st0" x="115.1" y="4.1" width="19.4" height="19.4"/>
    </g>
    <g class="st4">
      <rect class="st0" x="88.8" y="4.1" width="19.4" height="19.4"/>
    </g>
    <g class="st1">
      <rect class="st0" x="62.5" y="4.1" width="19.4" height="19.4"/>
    </g>
    <g class="st1">
      <rect class="st0" x="36.2" y="4.1" width="19.4" height="19.4"/>
    </g>
    <rect class="st0" x="747.5" y="28.6" width="19.4" height="19.4"/>
    <g class="st2">
      <rect class="st0" x="536.9" y="28.6" width="19.4" height="19.4"/>
    </g>
    <g class="st7">
      <rect class="st0" x="510.6" y="28.6" width="19.4" height="19.4"/>
    </g>
    <g class="st6">
      <rect class="st0" x="484.2" y="28.6" width="19.4" height="19.4"/>
    </g>
    <g class="st6">
      <rect class="st0" x="457.9" y="28.6" width="19.4" height="19.4"/>
    </g>
    <g class="st2">
      <rect class="st0" x="431.6" y="28.6" width="19.4" height="19.4"/>
    </g>
    <g class="st4">
      <rect class="st0" x="405.3" y="28.6" width="19.4" height="19.4"/>
    </g>
    <g class="st4">
      <rect class="st0" x="379" y="28.6" width="19.4" height="19.4"/>
    </g>
    <g class="st5">
      <rect class="st0" x="352.6" y="28.6" width="19.4" height="19.4"/>
    </g>
    <g class="st10">
      <rect class="st0" x="326.3" y="28.6" width="19.4" height="19.4"/>
    </g>
    <g class="st5">
      <rect class="st0" x="300" y="28.6" width="19.4" height="19.4"/>
    </g>
    <rect class="st0" x="273.1" y="28.6" width="19.4" height="19.4"/>
    <g class="st7">
      <rect class="st0" x="246.7" y="28.6" width="19.4" height="19.4"/>
    </g>
    <rect class="st0" x="220.4" y="28.6" width="19.4" height="19.4"/>
    <g class="st6">
      <rect class="st0" x="194.1" y="28.6" width="19.4" height="19.4"/>
    </g>
    <g class="st2">
      <rect class="st0" x="167.8" y="28.6" width="19.4" height="19.4"/>
    </g>
    <g class="st5">
      <rect class="st0" x="141.5" y="28.6" width="19.4" height="19.4"/>
    </g>
    <g class="st6">
      <rect class="st0" x="115.1" y="28.6" width="19.4" height="19.4"/>
    </g>
    <g class="st10">
      <rect class="st0" x="747.5" y="53.1" width="19.4" height="19.4"/>
    </g>
    <rect class="st0" x="431.6" y="53.1" width="19.4" height="19.4"/>
    <g class="st6">
      <rect class="st0" x="167.8" y="53.1" width="19.4" height="19.4"/>
    </g>
    <g class="st8">
      <rect class="st0" x="141.5" y="53.1" width="19.4" height="19.4"/>
    </g>
  </g>
</svg>