<?xml version="1.0" encoding="UTF-8"?>
<svg id="Layer_1" xmlns="http://www.w3.org/2000/svg" version="1.1" viewBox="0 0 672 230">
  <!-- Generator: Adobe Illustrator 29.5.1, SVG Export Plug-In . SVG Version: 2.1.0 Build 141)  -->
  <defs>
    <style>
      .st0 {
        mix-blend-mode: multiply;
      }

      .st0, .st1 {
        opacity: .6;
      }

      .st2, .st3, .st4 {
        isolation: isolate;
      }

      .st2, .st5, .st4 {
        opacity: .9;
      }

      .st2, .st6 {
        fill: #2959d6;
      }

      .st7 {
        mix-blend-mode: color-dodge;
      }

      .st7, .st8 {
        opacity: .8;
      }

      .st9 {
        fill: #25e0db;
      }

      .st10, .st4 {
        fill: #fff;
      }

      .st11 {
        opacity: .7;
      }

      .st12 {
        opacity: .4;
      }

      .st13 {
        opacity: .5;
      }

      .st14 {
        opacity: .2;
      }

      .st15 {
        opacity: .3;
      }

      .st16 {
        opacity: .1;
      }

      .st17 {
        opacity: 0;
      }
    </style>
  </defs>
  <g class="st3">
    <g id="Layer_11" data-name="Layer_1">
      <g class="st1">
        <g class="st14">
          <path class="st6" d="M1054.5,59.2h16.8v-14.9h-16.8s0,14.9,0,14.9Z"/>
        </g>
        <g class="st12">
          <path class="st6" d="M1031.7,59.2h16.8v-14.9h-16.8s0,14.9,0,14.9Z"/>
        </g>
        <g class="st12">
          <path class="st6" d="M1008.9,59.2h16.8v-14.9h-16.8v14.9h0Z"/>
        </g>
        <g class="st1">
          <path class="st6" d="M986.1,59.2h16.8v-14.9h-16.8s0,14.9,0,14.9Z"/>
        </g>
        <g class="st17">
          <path class="st6" d="M963.3,59.2h16.8v-14.9h-16.8s0,14.9,0,14.9Z"/>
        </g>
        <path class="st2" d="M940.5,59.2h16.8v-14.9h-16.8s0,14.9,0,14.9Z"/>
        <g class="st17">
          <path class="st6" d="M917.7,59.2h16.8v-14.9h-16.8s0,14.9,0,14.9Z"/>
        </g>
        <g class="st14">
          <path class="st6" d="M894.9,59.2h16.8v-14.9h-16.8s0,14.9,0,14.9Z"/>
        </g>
        <g class="st15">
          <path class="st6" d="M1054.5,78h16.8v-14.9h-16.8v14.9Z"/>
        </g>
        <path class="st2" d="M1031.7,78h16.8v-14.9h-16.8v14.9Z"/>
        <g class="st13">
          <path class="st6" d="M1008.9,78h16.8v-14.9h-16.8v14.9h0Z"/>
        </g>
        <g class="st11">
          <path class="st6" d="M963.3,78h16.8v-14.9h-16.8v14.9Z"/>
        </g>
        <g class="st13">
          <path class="st6" d="M917.7,78h16.8v-14.9h-16.8v14.9Z"/>
        </g>
        <g class="st16">
          <path class="st6" d="M894.9,78h16.8v-14.9h-16.8v14.9Z"/>
        </g>
        <g class="st15">
          <path class="st6" d="M872.1,59.2h16.8v-14.9h-16.8s0,14.9,0,14.9Z"/>
        </g>
        <g class="st15">
          <path class="st6" d="M963.3,96.8h16.8v-14.9h-16.8v14.9Z"/>
        </g>
        <g class="st17">
          <path class="st6" d="M894.9,96.8h16.8v-14.9h-16.8v14.9Z"/>
        </g>
        <g class="st16">
          <path class="st6" d="M872.1,78h16.8v-14.9h-16.8v14.9Z"/>
        </g>
        <g class="st14">
          <path class="st6" d="M872.1,96.8h16.8v-14.9h-16.8v14.9Z"/>
        </g>
      </g>
      <g>
        <g class="st1">
          <g class="st14">
            <path class="st10" d="M663.7-435.9h17.9v-15.9h-17.9v15.9Z"/>
          </g>
          <g class="st13">
            <path class="st10" d="M615-435.9h17.9v-15.9h-17.9v15.9Z"/>
          </g>
          <g class="st5">
            <path class="st10" d="M590.6-435.9h17.9v-15.9h-17.9v15.9Z"/>
          </g>
          <g class="st12">
            <path class="st10" d="M566.3-435.9h17.9v-15.9h-17.9v15.9Z"/>
          </g>
          <g class="st12">
            <path class="st10" d="M541.9-435.9h17.9v-15.9h-17.9v15.9Z"/>
          </g>
          <g class="st5">
            <path class="st10" d="M517.5-435.9h17.9v-15.9h-17.9v15.9Z"/>
          </g>
          <path class="st10" d="M663.7-415.8h17.9v-15.9h-17.9v15.9Z"/>
          <g class="st13">
            <path class="st10" d="M639.4-415.8h17.9v-15.9h-17.9v15.9Z"/>
          </g>
          <g class="st8">
            <path class="st10" d="M615-415.8h17.9v-15.9h-17.9v15.9Z"/>
          </g>
          <g class="st1">
            <path class="st10" d="M590.6-415.8h17.9v-15.9h-17.9v15.9Z"/>
          </g>
          <g class="st13">
            <path class="st10" d="M566.3-415.8h17.9v-15.9h-17.9v15.9Z"/>
          </g>
          <g class="st13">
            <path class="st10" d="M615-395.7h17.9v-15.9h-17.9v15.9Z"/>
          </g>
          <g class="st15">
            <path class="st10" d="M590.6-395.7h17.9v-15.9h-17.9v15.9Z"/>
          </g>
        </g>
        <g class="st0">
          <g class="st5">
            <path class="st10" d="M689.1-481.3h18.5v-16.4h-18.5v16.4Z"/>
          </g>
          <g class="st1">
            <path class="st10" d="M664-481.3h18.5v-16.4h-18.5v16.4Z"/>
          </g>
          <g class="st13">
            <path class="st10" d="M638.9-481.3h18.5v-16.4h-18.5v16.4Z"/>
          </g>
          <g class="st17">
            <path class="st10" d="M613.7-481.3h18.5v-16.4h-18.5v16.4Z"/>
          </g>
          <g class="st5">
            <path class="st10" d="M588.6-481.3h18.5v-16.4h-18.5v16.4Z"/>
          </g>
          <g class="st5">
            <path class="st10" d="M563.4-481.3h18.5v-16.4h-18.5v16.4Z"/>
          </g>
          <g class="st12">
            <path class="st10" d="M538.3-481.3h18.5v-16.4h-18.5v16.4Z"/>
          </g>
          <g class="st16">
            <path class="st10" d="M692.6-433.7h18.5v-16.4h-18.5v16.4Z"/>
          </g>
          <g class="st13">
            <path class="st10" d="M689.1-460.5h18.5v-16.4h-18.5v16.4Z"/>
          </g>
          <g class="st13">
            <path class="st10" d="M664-460.5h18.5v-16.4h-18.5v16.4Z"/>
          </g>
          <g class="st8">
            <path class="st10" d="M638.9-460.5h18.5v-16.4h-18.5v16.4Z"/>
          </g>
          <g class="st12">
            <path class="st10" d="M613.7-460.5h18.5v-16.4h-18.5v16.4Z"/>
          </g>
          <g class="st12">
            <path class="st10" d="M588.6-460.5h18.5v-16.4h-18.5v16.4Z"/>
          </g>
          <g class="st1">
            <path class="st10" d="M563.4-460.5h18.5v-16.4h-18.5v16.4Z"/>
          </g>
          <g class="st5">
            <path class="st10" d="M692.6-413h18.5v-16.4h-18.5v16.4Z"/>
          </g>
          <g class="st5">
            <path class="st10" d="M638.9-439.7h18.5v-16.4h-18.5v16.4Z"/>
          </g>
        </g>
        <g class="st1">
          <g class="st5">
            <path class="st10" d="M204.8-463.3h16.8v-14.9h-16.8v14.9Z"/>
          </g>
          <g class="st14">
            <path class="st10" d="M182-463.3h16.8v-14.9h-16.8v14.9Z"/>
          </g>
          <g class="st12">
            <path class="st10" d="M159.2-463.3h16.8v-14.9h-16.8v14.9Z"/>
          </g>
          <g class="st12">
            <path class="st10" d="M136.3-463.3h16.8v-14.9h-16.8v14.9Z"/>
          </g>
          <g class="st1">
            <path class="st10" d="M113.5-463.3h16.8v-14.9h-16.8v14.9Z"/>
          </g>
          <g class="st17">
            <path class="st10" d="M90.7-463.3h16.8v-14.9h-16.8v14.9Z"/>
          </g>
          <path class="st4" d="M67.9-463.3h16.8v-14.9h-16.8s0,14.9,0,14.9Z"/>
          <g class="st17">
            <path class="st10" d="M45.1-463.3h16.8v-14.9h-16.8v14.9Z"/>
          </g>
          <g class="st14">
            <path class="st10" d="M22.3-463.3h16.8v-14.9h-16.8v14.9Z"/>
          </g>
          <g class="st14">
            <path class="st10" d="M204.8-444.5h16.8v-14.9h-16.8v14.9Z"/>
          </g>
          <g class="st15">
            <path class="st10" d="M182-444.5h16.8v-14.9h-16.8v14.9Z"/>
          </g>
          <path class="st4" d="M159.2-444.5h16.8v-14.9h-16.8v14.9Z"/>
          <g class="st13">
            <path class="st10" d="M136.3-444.5h16.8v-14.9h-16.8v14.9Z"/>
          </g>
          <g class="st11">
            <path class="st10" d="M90.7-444.5h16.8v-14.9h-16.8v14.9Z"/>
          </g>
          <g class="st13">
            <path class="st10" d="M45.1-444.5h16.8v-14.9h-16.8v14.9Z"/>
          </g>
          <g class="st16">
            <path class="st10" d="M22.3-444.5h16.8v-14.9h-16.8v14.9Z"/>
          </g>
          <g class="st15">
            <path class="st10" d="M-.5-463.3h16.8v-14.9H-.5v14.9Z"/>
          </g>
          <g class="st12">
            <path class="st10" d="M204.8-425.7h16.8v-14.9h-16.8v14.9Z"/>
          </g>
          <g class="st15">
            <path class="st10" d="M90.7-425.7h16.8v-14.9h-16.8v14.9Z"/>
          </g>
          <g class="st17">
            <path class="st10" d="M22.3-425.7h16.8v-14.9h-16.8v14.9Z"/>
          </g>
          <g class="st16">
            <path class="st10" d="M-.5-444.5h16.8v-14.9H-.5v14.9Z"/>
          </g>
          <g class="st14">
            <path class="st10" d="M-.5-425.6h16.8v-14.9H-.5v14.9Z"/>
          </g>
        </g>
        <g class="st0">
          <g class="st5">
            <path class="st10" d="M-2-461.2h18.5v-16.4H-2v16.4Z"/>
          </g>
          <g class="st1">
            <path class="st10" d="M-27.1-461.2H-8.6v-16.4h-18.5v16.4Z"/>
          </g>
          <g class="st13">
            <path class="st10" d="M-52.2-461.2h18.5v-16.4h-18.5v16.4Z"/>
          </g>
          <g class="st17">
            <path class="st10" d="M-77.4-461.2h18.5v-16.4h-18.5v16.4Z"/>
          </g>
          <g class="st5">
            <path class="st10" d="M-102.5-461.2h18.5v-16.4h-18.5v16.4Z"/>
          </g>
          <g class="st5">
            <path class="st10" d="M-127.7-461.2h18.5v-16.4h-18.5v16.4Z"/>
          </g>
          <g class="st12">
            <path class="st10" d="M-152.8-461.2h18.5v-16.4h-18.5v16.4Z"/>
          </g>
          <g class="st16">
            <path class="st10" d="M-177.9-461.2h18.5v-16.4h-18.5v16.4Z"/>
          </g>
          <g class="st13">
            <path class="st10" d="M-2-440.5h18.5v-16.4H-2v16.4Z"/>
          </g>
          <g class="st13">
            <path class="st10" d="M-27.1-440.5H-8.6v-16.4h-18.5v16.4Z"/>
          </g>
          <g class="st8">
            <path class="st10" d="M-52.3-440.5h18.5v-16.4h-18.5v16.4Z"/>
          </g>
          <g class="st12">
            <path class="st10" d="M-77.4-440.5h18.5v-16.4h-18.5v16.4Z"/>
          </g>
          <g class="st12">
            <path class="st10" d="M-102.5-440.5h18.5v-16.4h-18.5v16.4Z"/>
          </g>
          <g class="st1">
            <path class="st10" d="M-127.7-440.5h18.5v-16.4h-18.5v16.4Z"/>
          </g>
          <g class="st5">
            <path class="st10" d="M-177.9-440.5h18.5v-16.4h-18.5v16.4Z"/>
          </g>
          <g class="st5">
            <path class="st10" d="M-52.3-419.7h18.5v-16.4h-18.5v16.4Z"/>
          </g>
        </g>
      </g>
      <g class="st1">
        <g class="st8">
          <path class="st9" d="M155,12.6v-1c-.1,0,22.4-5.6,22.4-5.6l-14.1,7.1h0l-8.2-.6h0ZM172.7,7.8l-17.2,4.3,7.7.6,9.6-4.8h-.1Z"/>
          <path class="st9" d="M155.4,13.1c-.7.2-1.5-.2-1.7-.9s.2-1.3.9-1.5,1.5.2,1.7.9-.2,1.3-.9,1.5Z"/>
          <path class="st9" d="M155.2,11.1c-.8,0-1.4.5-1.5,1.1,0,.7.5,1.3,1.3,1.3s1.4-.5,1.5-1.1c0-.7-.5-1.3-1.3-1.3Z"/>
        </g>
        <g class="st8">
          <polygon class="st9" points="112.2 4.8 96.2 -38.6 96.8 -38.7 112.4 3.4 127 -22.1 97.1 -38.9 97.4 -39.4 127.8 -22.2 112.2 4.8"/>
          <path class="st9" d="M95.2-38.2c-.2-.7,0-1.3.9-1.5.7-.2,1.5.2,1.7.8.2.7,0,1.3-.9,1.5-.7.2-1.5-.2-1.7-.8Z"/>
          <path class="st9" d="M98-40.2c-.7-.4-1.5-.2-1.9.4-.4.6-.2,1.3.5,1.7s1.5.2,1.9-.4c.4-.6.2-1.3-.5-1.7Z"/>
        </g>
        <g class="st8">
          <polygon class="st9" points="154.4 12.6 113.5 4.6 113.6 4 153 11.8 127.4 -21.6 113.2 3.2 112.6 2.9 127.3 -22.7 127.6 -22.3 154.4 12.6"/>
          <path class="st9" d="M113.4,5.5c-.7,0-1.2-.8-1.1-1.5,0-.7.9-1.1,1.6-.9s1.2.8,1.1,1.5c0,.7-.9,1.1-1.6.9Z"/>
          <path class="st9" d="M111.7,2.4c-.3.6,0,1.3.6,1.7.7.3,1.5,0,1.9-.5.3-.6,0-1.3-.6-1.7-.7-.3-1.5,0-1.9.5Z"/>
        </g>
        <g class="st8">
          <polygon class="st9" points="153.8 12.8 153.5 12.3 127.9 -21 128.4 -21.3 153.6 11.5 165.5 -27.5 128.7 -22.1 128.6 -22.6 166.3 -28.2 153.8 12.8"/>
          <path class="st9" d="M127-20.4c-.4-.6-.3-1.3.3-1.7.6-.4,1.5-.2,1.9.3.4.6.3,1.3-.3,1.7-.6.4-1.5.2-1.9-.3Z"/>
          <path class="st9" d="M128.5-23.6c-.7.1-1.2.7-1.1,1.4,0,.7.9,1.1,1.6,1s1.2-.7,1.1-1.4-.9-1.1-1.6-1Z"/>
        </g>
        <g class="st8">
          <polygon class="st9" points="155.1 12.1 154.9 11.6 174.7 6.7 165.9 -26.8 154.4 11.1 153.8 11 165.9 -29 175.4 7.1 175.1 7.2 155.1 12.1"/>
          <path class="st9" d="M155.4,13.1c-.7.2-1.5-.2-1.7-.9s.2-1.3.9-1.5,1.5.2,1.7.9-.2,1.3-.9,1.5Z"/>
          <path class="st9" d="M152.8,10.7c-.2.7.2,1.3,1,1.5.7.2,1.5-.2,1.7-.8.2-.7-.2-1.3-1-1.5-.7-.2-1.5.2-1.7.8Z"/>
        </g>
        <g class="st8">
          <polygon class="st9" points="275.6 -18 252.2 -45.8 259.2 -45.3 259.1 -44.7 253.5 -45.1 274 -20.9 260.8 -43.7 261.4 -44 276.2 -18.3 275.6 -18"/>
          <path class="st9" d="M259.9-43.2c-.4-.6,0-1.4.6-1.7.7-.3,1.5,0,1.9.6s0,1.4-.6,1.7c-.7.3-1.5,0-1.9-.6Z"/>
          <path class="st9" d="M259-43.8c.8,0,1.4-.5,1.5-1.1,0-.7-.5-1.3-1.3-1.3s-1.4.5-1.5,1.1c0,.7.5,1.3,1.3,1.3Z"/>
        </g>
        <g class="st8">
          <polygon class="st9" points="334.4 51.5 334.1 51.1 290.4 2.7 290.9 2.4 334.1 50.3 349.2 -7.4 291.2 1.7 291.1 1.1 350 -8 349.9 -7.6 334.4 51.5"/>
          <path class="st9" d="M289.7,3.3c-.5-.5-.4-1.3.2-1.7.6-.4,1.5-.3,1.9.2.5.5.4,1.3-.2,1.7s-1.5.3-1.9-.2Z"/>
          <path class="st9" d="M290.9.2c-.7.1-1.2.8-1.1,1.4.1.7.9,1.1,1.6,1,.7,0,1.2-.8,1.1-1.4-.1-.7-.9-1.1-1.6-1Z"/>
        </g>
        <g class="st8">
          <path class="st9" d="M335.2,50.1l-.4-.3h-.5c0,0,15.1-58.1,15.1-58.1l14.7,17-28.9,41.4h0ZM349.7-7.1l-14.7,56.4,28.4-40.7-13.7-15.8h0Z"/>
          <path class="st9" d="M336.2,50.5c-.4.6-1.2.7-1.9.4-.6-.4-.8-1.1-.4-1.7.4-.6,1.2-.7,1.9-.4.6.4.8,1.1.4,1.7Z"/>
          <path class="st9" d="M333.3,49.4c-.2.7.3,1.3,1,1.5s1.5-.2,1.7-.9-.3-1.3-1-1.5-1.5.2-1.7.9Z"/>
        </g>
        <g class="st8">
          <polygon class="st9" points="547.3 -23.8 546.9 -24.2 551.6 -29.7 551.5 -28.3 551.2 -28.3 549.2 -26 550 -26.6 550.4 -26.2 547.3 -23.8"/>
          <path class="st9" d="M552.6-28.3c0,.7-.7,1.2-1.5,1.1-.8,0-1.3-.7-1.3-1.3s.7-1.2,1.5-1.1c.8,0,1.3.7,1.3,1.3Z"/>
          <path class="st9" d="M551-25.4c.6-.4.6-1.2,0-1.7s-1.4-.6-1.9-.1c-.6.4-.6,1.2,0,1.7s1.4.6,1.9.1Z"/>
        </g>
        <g class="st8">
          <polygon class="st9" points="126.8 -21.8 152.2 -63.8 152.7 -63.5 127.9 -22.5 165.5 -28.1 153.2 -63.4 153.7 -63.6 166.3 -27.7 166 -27.6 126.8 -21.8"/>
          <path class="st9" d="M151.2-64.2c.4-.6,1.2-.8,1.9-.5s.9,1.1.6,1.7c-.4.6-1.2.8-1.9.5s-.9-1.1-.6-1.7Z"/>
          <path class="st9" d="M154.8-63.8c-.2-.7-1-1-1.7-.8-.7.2-1.1.9-.9,1.5.2.7,1,1,1.7.8s1.1-.9.9-1.5Z"/>
        </g>
        <g class="st8">
          <polygon class="st9" points="95.9 -39.2 90.1 -64.6 90.7 -64.7 96.3 -40.3 113.9 -57.1 91.3 -65.1 91.5 -65.6 114.9 -57.3 95.9 -39.2"/>
          <path class="st9" d="M89.1-64.4c-.2-.7.3-1.3,1.1-1.4.7,0,1.5.3,1.6,1,.2.7-.3,1.3-1.1,1.4-.7,0-1.5-.3-1.6-1Z"/>
          <path class="st9" d="M92-66.5c-.7-.3-1.5,0-1.8.7-.3.6,0,1.4.8,1.6.7.3,1.5,0,1.8-.7.3-.6,0-1.4-.8-1.6Z"/>
        </g>
        <g class="st8">
          <polygon class="st9" points="127.9 -21.5 97.1 -38.9 97.4 -39.4 126.8 -22.8 114.3 -56.7 97.2 -40.4 96.8 -40.8 114.5 -57.7 127.9 -21.5"/>
          <path class="st9" d="M96.6-38.1c-.7-.4-.9-1.1-.5-1.7.4-.6,1.2-.7,1.9-.4.7.4.9,1.1.5,1.7-.4.6-1.2.7-1.9.4Z"/>
          <path class="st9" d="M96-41.5c-.5.5-.5,1.3,0,1.7.6.5,1.4.5,1.9,0s.5-1.3,0-1.7-1.4-.5-1.9,0Z"/>
        </g>
        <g class="st8">
          <polygon class="st9" points="470.3 17.7 449.7 -27.9 470.1 -32.9 470.2 -32.4 450.5 -27.5 469.8 15.1 471.1 -31.8 471.7 -31.8 470.3 17.7"/>
          <path class="st9" d="M470-31.8c0-.7.7-1.2,1.4-1.2s1.4.6,1.3,1.3c0,.7-.7,1.2-1.4,1.2s-1.4-.6-1.3-1.3Z"/>
          <path class="st9" d="M470.5-31.4c.7-.2,1.1-.9.9-1.5-.2-.7-1-1-1.7-.9-.7.2-1.1.9-.9,1.5.2.7,1,1,1.7.9Z"/>
        </g>
        <g class="st8">
          <polygon class="st9" points="469.8 16.8 469.8 16.4 471.1 -31.8 471.7 -31.8 470.4 16.1 500.5 9.9 471.8 -31.8 472.4 -32.1 501.5 10.3 501.1 10.4 469.8 16.8"/>
          <path class="st9" d="M471-31.3c-.4-.6-.2-1.3.4-1.7.6-.3,1.5-.2,1.9.4.4.6.2,1.3-.4,1.7-.6.3-1.5.2-1.9-.4Z"/>
          <path class="st9" d="M472.8-31.7c0-.7-.6-1.3-1.3-1.3s-1.4.5-1.4,1.2.6,1.3,1.3,1.3,1.4-.5,1.4-1.2Z"/>
        </g>
        <g class="st8">
          <polygon class="st9" points="481.8 20.6 469 16.4 502.6 9.5 484.4 20.4 484 19.9 499.4 10.7 471.1 16.5 482 20.1 481.8 20.6"/>
          <path class="st9" d="M485.1,21.1c-.6.4-1.5.2-1.9-.4s-.3-1.3.4-1.7c.6-.4,1.5-.2,1.9.4s.3,1.3-.4,1.7Z"/>
          <path class="st9" d="M481.4,21.5c.7.2,1.5,0,1.8-.7.3-.6-.1-1.4-.8-1.6-.7-.2-1.5,0-1.8.7s.1,1.4.8,1.6Z"/>
        </g>
        <g class="st8">
          <polygon class="st9" points="214.6 23.3 174.7 7.1 174.7 6.9 184.2 -48 215.7 22.3 215.1 22.5 184.5 -46 175.4 6.8 214.8 22.8 214.6 23.3"/>
          <path class="st9" d="M216.7,21.9c.3.6,0,1.4-.8,1.6-.7.2-1.5,0-1.8-.7-.3-.6,0-1.4.8-1.6.7-.2,1.5,0,1.8.7Z"/>
          <path class="st9" d="M214.1,24.1c.7.3,1.5,0,1.8-.6s0-1.4-.7-1.6c-.7-.3-1.5,0-1.8.6s0,1.4.7,1.6Z"/>
        </g>
        <g class="st8">
          <polygon class="st9" points="215.1 22.5 183.9 -47.3 253.4 -45.7 216.8 22.6 216.2 22.4 252.4 -45.2 184.8 -46.7 215.7 22.3 215.1 22.5"/>
          <path class="st9" d="M217.8,23c-.3.6-1.1.9-1.8.5-.7-.3-1-1-.7-1.7.3-.6,1.1-.9,1.8-.5.7.3,1,1,.7,1.7Z"/>
          <path class="st9" d="M214.1,22.8c.3.6,1.1,1,1.8.7.7-.2,1-1,.8-1.6-.3-.6-1.1-1-1.8-.7-.7.2-1,1-.8,1.6Z"/>
        </g>
        <g class="st8">
          <polygon class="st9" points="183.5 -46.6 217.1 -82.6 239.7 -57.7 239.2 -57.3 217.1 -81.7 185.1 -47.4 238.9 -56.6 239 -56.1 183.5 -46.6"/>
          <path class="st9" d="M238.6-57.6c.7,0,1.5.3,1.6,1s-.3,1.3-1.1,1.4c-.7,0-1.5-.3-1.6-1-.2-.7.3-1.3,1.1-1.4Z"/>
          <path class="st9" d="M238.3-56.8c.5.5,1.4.6,1.9.2s.7-1.2.2-1.7-1.4-.6-1.9-.2c-.6.4-.7,1.2-.2,1.7Z"/>
        </g>
        <g class="st8">
          <polygon class="st9" points="181.5 -46.8 238.9 -56.6 239 -56.1 187.2 -47.2 252.1 -45.7 241 -55.6 241.4 -56 253.6 -45.1 181.5 -46.8"/>
          <path class="st9" d="M238.6-57.6c.7,0,1.5.3,1.6,1s-.3,1.3-1.1,1.4c-.7,0-1.5-.3-1.6-1-.2-.7.3-1.3,1.1-1.4Z"/>
          <path class="st9" d="M242.2-56.6c-.5-.5-1.4-.5-1.9,0s-.5,1.3,0,1.7c.5.5,1.4.5,1.9,0s.5-1.3,0-1.7Z"/>
        </g>
        <g class="st8">
          <polygon class="st9" points="289.1 2 317.9 -33 318.4 -32.7 290.5 1.2 348.9 -7.9 319.6 -32.8 320 -33.2 350.2 -7.5 289.1 2"/>
          <path class="st9" d="M316.9-33.6c.4-.5,1.3-.7,1.9-.2.6.4.8,1.2.3,1.7-.4.5-1.3.7-1.9.2-.6-.4-.8-1.2-.3-1.7Z"/>
          <path class="st9" d="M320.8-33.8c-.6-.5-1.4-.5-1.9,0s-.5,1.3,0,1.7c.6.5,1.4.5,1.9,0s.5-1.3,0-1.7Z"/>
        </g>
        <g class="st8">
          <polygon class="st9" points="351.1 -6.1 318 -34.2 330.9 -33.2 330.8 -32.7 319.7 -33.5 348.1 -9.3 332.6 -31.7 333.1 -32 351.1 -6.1"/>
          <path class="st9" d="M331.7-31.2c-.4-.6-.2-1.3.4-1.7s1.5-.2,1.9.4.2,1.3-.4,1.7c-.6.4-1.5.2-1.9-.4Z"/>
          <path class="st9" d="M330.7-31.7c.8,0,1.4-.5,1.5-1.1,0-.7-.5-1.3-1.3-1.3s-1.4.5-1.5,1.1c0,.7.5,1.3,1.3,1.3Z"/>
        </g>
        <g class="st8">
          <polygon class="st9" points="363.1 9 406.3 -43.7 406.8 -43.3 364.4 8.4 439.6 7.2 407.7 -43.3 408.2 -43.6 440.7 7.7 363.1 9"/>
          <path class="st9" d="M406.8-42.8c-.4-.6-.2-1.3.5-1.7.7-.3,1.5,0,1.9.5s.2,1.3-.5,1.7c-.7.3-1.5,0-1.9-.5Z"/>
          <path class="st9" d="M407.6-42.7c.4-.5.3-1.3-.3-1.7-.6-.4-1.5-.3-1.9.2s-.3,1.3.3,1.7c.6.4,1.5.3,1.9-.2Z"/>
        </g>
        <g class="st8">
          <polygon class="st9" points="403.6 53.6 363.1 8.4 363.8 8.4 440.7 7.1 405.6 53.5 405.1 53.2 439.6 7.7 364.4 9 404 53.2 403.6 53.6"/>
          <path class="st9" d="M406.5,54c-.4.6-1.3.7-1.9.3s-.8-1.2-.4-1.7c.4-.6,1.3-.7,1.9-.3s.8,1.2.4,1.7Z"/>
          <path class="st9" d="M402.7,54.1c.5.5,1.4.6,1.9.2.6-.4.7-1.2.2-1.7s-1.4-.6-1.9-.2c-.6.4-.7,1.2-.2,1.7Z"/>
        </g>
        <g class="st8">
          <polygon class="st9" points="440.3 8.1 439.9 7.5 406.6 -45 449 -28.4 448.8 -27.9 408 -43.9 440 6.7 449.5 -26.6 450.1 -26.5 440.3 8.1"/>
          <path class="st9" d="M448.4-26.8c.2-.7.9-1,1.7-.9.7.2,1.2.9,1,1.5-.2.7-.9,1-1.7.9-.7-.2-1.2-.9-1-1.5Z"/>
          <path class="st9" d="M448.3-27.1c.7.3,1.5,0,1.8-.6s0-1.4-.7-1.6c-.7-.3-1.5,0-1.8.6s0,1.4.7,1.6Z"/>
        </g>
        <g class="st8">
          <polygon class="st9" points="470.6 16.9 439.8 7.6 449.5 -26.6 450.1 -26.5 440.5 7.2 469.5 16 450.3 -26.5 450.9 -26.7 470.6 16.9"/>
          <path class="st9" d="M449.3-26.1c-.3-.6,0-1.4.8-1.6.7-.2,1.5,0,1.8.7.3.6,0,1.4-.8,1.6-.7.2-1.5,0-1.8-.7Z"/>
          <path class="st9" d="M451.1-26.2c.2-.7-.3-1.3-1-1.5s-1.5.2-1.7.9c-.2.7.3,1.3,1,1.5s1.5-.2,1.7-.9Z"/>
        </g>
        <g class="st8">
          <polygon class="st9" points="68.8 -30.9 68.6 -31.4 42.1 -99 42.9 -98.5 89.3 -66.7 88.9 -66.3 43.3 -97.5 68.9 -32.2 89.3 -64.9 89.8 -64.6 68.8 -30.9"/>
          <path class="st9" d="M88.3-65.3c.4-.6,1.2-.8,1.9-.4.7.3.9,1.1.5,1.7s-1.2.8-1.9.4c-.7-.3-.9-1.1-.5-1.7Z"/>
          <path class="st9" d="M88.3-65.6c.6.4,1.5.3,1.9-.2.5-.5.3-1.3-.3-1.7-.6-.4-1.5-.3-1.9.2-.5.5-.3,1.3.3,1.7Z"/>
        </g>
        <g class="st8">
          <polygon class="st9" points="68.2 -31 89.3 -64.9 89.8 -64.6 69.5 -32 95.7 -40 90.1 -64.6 90.7 -64.7 96.5 -39.6 96.2 -39.5 68.2 -31"/>
          <path class="st9" d="M89.1-64.4c-.2-.7.3-1.3,1.1-1.4.7,0,1.5.3,1.6,1,.2.7-.3,1.3-1.1,1.4-.7,0-1.5-.3-1.6-1Z"/>
          <path class="st9" d="M90.7-64.1c.4-.6,0-1.3-.5-1.7-.7-.3-1.5,0-1.9.4-.4.6,0,1.3.5,1.7.7.3,1.5,0,1.9-.4Z"/>
        </g>
        <g class="st8">
          <path class="st9" d="M590.6,39.1l-13.7-9,.3-.4.2-.4,22,6.6-8.7,3.2h0ZM577.8,30.1l12.9,8.5,6.9-2.5-19.8-6h0Z"/>
          <path class="st9" d="M576.4,31c-.6-.4-.8-1.2-.3-1.7.4-.5,1.3-.7,1.9-.3s.8,1.2.3,1.7c-.4.5-1.3.7-1.9.3Z"/>
          <path class="st9" d="M577.8,28.5c-.7-.2-1.5.1-1.7.8-.2.6.2,1.3.9,1.6.7.2,1.5-.1,1.7-.8s-.2-1.3-.9-1.6Z"/>
        </g>
        <g class="st8">
          <polygon class="st9" points="598.7 36.4 598.4 36.2 577.2 29.9 577.4 29.4 598.2 35.6 601.8 9.6 577.2 28.7 576.8 28.3 602.6 8.3 598.7 36.4"/>
          <path class="st9" d="M578,29.4c-.6.4-1.4.4-1.9-.1s-.5-1.3,0-1.7c.6-.4,1.4-.4,1.9.1s.5,1.3,0,1.7Z"/>
          <path class="st9" d="M577.8,28.5c-.7-.2-1.5.1-1.7.8-.2.6.2,1.3.9,1.6.7.2,1.5-.1,1.7-.8s-.2-1.3-.9-1.6Z"/>
        </g>
        <g class="st8">
          <path class="st9" d="M582.5,84.9h-.4c0,0-.4-.2-.4-.2l8.6-46.1h.2l8.4-3.1-16.4,49.4h0ZM590.9,39l-8,42.6,15-45.2-7.1,2.6h0Z"/>
          <path class="st9" d="M583.4,85c0,.7-.8,1.1-1.6,1s-1.3-.8-1.1-1.4c0-.7.8-1.1,1.6-1s1.3.8,1.1,1.4Z"/>
          <path class="st9" d="M580.9,84.4c-.2.6.2,1.3.9,1.6.7.2,1.5,0,1.7-.8.2-.6-.2-1.3-.9-1.6s-1.5,0-1.7.8Z"/>
        </g>
        <g class="st8">
          <polygon class="st9" points="598.8 36.1 598.2 35.9 601.7 10.1 602.3 10.2 599.4 31.2 605.6 8 603.5 8.8 603.3 8.3 606.5 7.1 598.8 36.1"/>
          <path class="st9" d="M604,9.6c-.7.3-1.5,0-1.8-.7-.3-.6,0-1.4.7-1.6.7-.3,1.5,0,1.8.7.3.6,0,1.4-.7,1.6Z"/>
          <path class="st9" d="M603.4,10.4c0-.7-.4-1.3-1.2-1.4-.8,0-1.4.4-1.5,1,0,.7.4,1.3,1.2,1.4.8,0,1.4-.4,1.5-1Z"/>
        </g>
        <g class="st8">
          <path class="st9" d="M289.8,2.2l-6.9-16.5,34.7-19.1.3.4.5.3s-28.6,34.9-28.6,34.9ZM283.6-14.1l6.3,15.1,27.8-33.9-34.1,18.7h0Z"/>
          <path class="st9" d="M317-34.2c.6-.4,1.5-.2,1.9.4.4.6.2,1.3-.4,1.7-.6.4-1.5.2-1.9-.4-.4-.6-.2-1.3.4-1.7Z"/>
          <path class="st9" d="M319.2-32.1c.4-.5.3-1.3-.3-1.7-.6-.4-1.5-.3-1.9.2s-.3,1.3.3,1.7c.6.4,1.5.3,1.9-.2Z"/>
        </g>
        <g class="st8">
          <polygon class="st9" points="60.2 -13 53.6 -16.5 54 -17 59.9 -13.8 67.9 -30.3 53.8 -18 53.4 -18.3 69.8 -32.7 60.2 -13"/>
          <path class="st9" d="M54.6-17.3c-.5.5-1.4.5-1.9,0s-.5-1.3,0-1.7c.5-.5,1.4-.5,1.9,0s.5,1.3,0,1.7Z"/>
          <path class="st9" d="M54.5-17.8c-.7-.4-1.5-.2-1.9.4s-.2,1.3.5,1.7,1.5.2,1.9-.4.2-1.3-.5-1.7Z"/>
        </g>
        <g class="st8">
          <polygon class="st9" points="349 -5.9 352.8 -31.5 361.4 -34 361.6 -33.4 353.3 -31.1 350.2 -9.5 361.9 -33.1 362.5 -32.9 349 -5.9"/>
          <path class="st9" d="M360.9-33.4c.3-.6,1.1-.9,1.8-.6.7.3,1,1,.7,1.6-.3.6-1.1.9-1.8.6-.7-.3-1-1-.7-1.6Z"/>
          <path class="st9" d="M361.9-32.5c.7-.2,1.1-.9.9-1.5-.2-.7-1-1-1.7-.8s-1.1.9-.9,1.5c.2.7,1,1,1.7.8Z"/>
        </g>
        <g class="st8">
          <path class="st9" d="M364.1,9.5l-14.9-17.2h0c0,0,12.6-25.4,12.6-25.4l.5.2h.6l1,42.4h.2ZM349.9-7.7l13.5,15.6-1-40.7s-12.5,25.1-12.5,25.1Z"/>
          <path class="st9" d="M360.9-33.4c.3-.6,1.1-.9,1.8-.6.7.3,1,1,.7,1.6-.3.6-1.1.9-1.8.6-.7-.3-1-1-.7-1.6Z"/>
          <path class="st9" d="M364.2-32.8c0-.7-.6-1.2-1.4-1.2s-1.4.6-1.3,1.2c0,.7.6,1.2,1.4,1.2s1.4-.6,1.3-1.2Z"/>
        </g>
        <g class="st8">
          <polygon class="st9" points="363.5 9.5 362.5 -32.9 363.1 -32.9 364.1 7.9 406.6 -44 364.1 -34.1 363.9 -34.6 408.1 -44.9 363.5 9.5"/>
          <path class="st9" d="M361.4-32.8c0-.7.6-1.2,1.3-1.2s1.4.6,1.4,1.2-.6,1.2-1.3,1.2-1.4-.6-1.4-1.2Z"/>
          <path class="st9" d="M363.7-35.5c-.7.2-1.2.8-1,1.5s1,1.1,1.7.9c.7-.2,1.2-.8,1-1.5s-1-1.1-1.7-.9Z"/>
        </g>
        <g class="st8">
          <polygon class="st9" points="631 101.9 583 86.6 583.2 86.1 629.9 101 598.5 36.8 582.5 84.9 581.9 84.8 598.4 35.2 598.8 35.9 631 101.9"/>
          <path class="st9" d="M583.6,85.2c-.2.6-1,1-1.7.8s-1.1-.9-.9-1.6c.2-.6,1-1,1.7-.8s1.1.9.9,1.6Z"/>
          <path class="st9" d="M583.6,85.2c-.7-.2-1.5,0-1.7.7s0,1.3.9,1.6c.7.2,1.5,0,1.7-.7s0-1.3-.9-1.6Z"/>
        </g>
        <g class="st8">
          <polygon class="st9" points="350.1 -6.4 332.6 -31.7 333.1 -32 349 -9 345.1 -30 333.4 -32.3 333.5 -32.9 345.6 -30.4 350.1 -6.4"/>
          <path class="st9" d="M331.7-31.2c-.4-.6-.2-1.3.4-1.7s1.5-.2,1.9.4.2,1.3-.4,1.7c-.6.4-1.5.2-1.9-.4Z"/>
          <path class="st9" d="M333.8-33.8c-.7-.2-1.5.3-1.6.9-.2.7.3,1.3,1.1,1.5.7.2,1.5-.3,1.6-.9.2-.7-.3-1.3-1.1-1.5Z"/>
        </g>
        <g class="st8">
          <polygon class="st9" points="349.6 -5.9 345.3 -29 345.9 -29.1 349.5 -9.5 352.7 -31 346.7 -30.1 346.6 -30.6 353.4 -31.7 349.6 -5.9"/>
          <path class="st9" d="M344.2-28.8c-.1-.7.4-1.3,1.1-1.4.8,0,1.5.4,1.6,1,.1.7-.4,1.3-1.1,1.4-.8,0-1.5-.4-1.6-1Z"/>
          <path class="st9" d="M346.4-31.6c-.7.1-1.2.7-1.1,1.4.1.7.9,1.1,1.6,1s1.2-.7,1.1-1.4c-.1-.7-.9-1.1-1.6-1Z"/>
        </g>
        <g class="st8">
          <path class="st9" d="M494.4,70.5l-.4-.4-.5-.2,16.6-27,13.6,6.4-29.4,21.2h0ZM510.4,43.6l-16.2,26.3,28.5-20.6-12.3-5.7h0Z"/>
          <path class="st9" d="M495.1,70.5c-.4.6-1.2.8-1.9.5-.7-.3-.9-1.1-.6-1.7.4-.6,1.2-.8,1.9-.5s.9,1.1.6,1.7Z"/>
          <path class="st9" d="M493.4,69.3c-.6.4-.7,1.2-.2,1.7s1.4.6,1.9.2c.6-.4.7-1.2.2-1.7s-1.4-.6-1.9-.2Z"/>
        </g>
        <g class="st8">
          <polygon class="st9" points="377.6 67.6 333.8 51 363.9 8 379 66.6 378.4 66.7 363.6 9.4 334.7 50.8 377.9 67.1 377.6 67.6"/>
          <path class="st9" d="M378.2,66.2c.7.3,1.1,1,.8,1.6-.3.6-1.1.9-1.8.7-.7-.3-1.1-1-.8-1.6.3-.6,1.1-.9,1.8-.7Z"/>
          <path class="st9" d="M377.3,66.8c.2.7.9,1.1,1.7,1,.7,0,1.2-.8,1-1.5s-.9-1.1-1.7-1c-.7,0-1.2.8-1,1.5Z"/>
        </g>
        <g class="st8">
          <polygon class="st9" points="361.6 70.2 361.5 70.2 332.3 49.9 377.9 67.1 377.6 67.6 336.3 52 361.7 69.7 377.6 67.7 377.7 68.2 361.6 70.2"/>
          <path class="st9" d="M378.2,66.2c.7.3,1.1,1,.8,1.6-.3.6-1.1.9-1.8.7-.7-.3-1.1-1-.8-1.6.3-.6,1.1-.9,1.8-.7Z"/>
          <path class="st9" d="M377.8,69.2c.8,0,1.3-.7,1.1-1.4-.1-.7-.8-1.1-1.6-1.1s-1.3.7-1.1,1.4c.1.7.8,1.1,1.6,1.1Z"/>
        </g>
        <g class="st8">
          <polygon class="st9" points="380.2 67.5 379.9 67 404.2 54.2 364.4 9.8 379 66.6 378.4 66.7 363.2 7.6 405.1 54.4 380.2 67.5"/>
          <path class="st9" d="M380,66.3c.2.7-.3,1.3-1,1.5-.7,0-1.5-.3-1.7-1s.3-1.3,1-1.5c.7,0,1.5.3,1.7,1Z"/>
          <path class="st9" d="M379.4,66.1c-.7.3-.9,1.1-.5,1.7s1.2.8,1.9.5c.7-.3.9-1.1.5-1.7s-1.2-.8-1.9-.5Z"/>
        </g>
        <g class="st8">
          <polygon class="st9" points="599.8 36.2 599.8 35.7 634.1 35 606.2 8.1 599.1 34.9 598.5 34.8 605.9 7 635.5 35.5 599.8 36.2"/>
          <path class="st9" d="M600.1,35.1c-.2.7-.9,1.1-1.7.9-.7-.2-1.2-.8-1-1.5s.9-1.1,1.7-.9,1.2.8,1,1.5Z"/>
          <path class="st9" d="M599.8,34.7c-.8,0-1.3.6-1.3,1.3s.7,1.2,1.4,1.2,1.3-.6,1.3-1.3-.7-1.2-1.4-1.2Z"/>
        </g>
        <g class="st8">
          <polygon class="st9" points="629.6 100.5 598 35.7 598.5 35.7 635.1 34.9 635.1 35.2 630.8 100.3 630.2 100.2 634.5 35.5 598.9 36.3 630.2 100.2 629.6 100.5"/>
          <path class="st9" d="M631.9,100.3c0,.7-.7,1.2-1.5,1.1-.8,0-1.3-.7-1.3-1.3s.7-1.2,1.5-1.1c.8,0,1.3.7,1.3,1.3Z"/>
          <path class="st9" d="M628.6,100.8c.3.6,1.1.9,1.8.7.7-.3,1-1,.7-1.6s-1.1-.9-1.8-.7c-.7.3-1,1-.7,1.6Z"/>
        </g>
        <g class="st8">
          <polygon class="st9" points="634.9 35.8 634.6 35.4 606.8 8.6 607.2 8.2 634.6 34.7 639.4 17 607.3 8.1 607.4 7.6 640.2 16.6 634.9 35.8"/>
          <path class="st9" d="M607,9.1c-.7-.2-1.2-.9-.9-1.5.2-.7,1-1,1.7-.8s1.2.9.9,1.5c-.2.7-1,1-1.7.8Z"/>
          <path class="st9" d="M608,7.6c-.5-.5-1.4-.5-1.9,0-.6.5-.6,1.2,0,1.7.5.5,1.4.5,1.9,0,.6-.5.6-1.2,0-1.7Z"/>
        </g>
        <g class="st8">
          <polygon class="st9" points="631.6 100.8 631.1 100.4 668.4 68.4 635 35.9 630.8 100.3 630.2 100.2 634.5 34.6 635 35 669.3 68.4 669.1 68.6 631.6 100.8"/>
          <path class="st9" d="M632.4,101.5c-.5.5-1.4.4-1.9,0-.5-.5-.5-1.3,0-1.7.5-.5,1.4-.4,1.9,0,.5.5.5,1.3,0,1.7Z"/>
          <path class="st9" d="M629.1,100.1c0,.7.5,1.3,1.3,1.3s1.4-.5,1.5-1.1c0-.7-.5-1.3-1.3-1.3s-1.4.5-1.5,1.1Z"/>
        </g>
        <g class="st8">
          <path class="st9" d="M546.6-23l3-16.8h1l1,11-4.9,5.8h0ZM550-38.6l-2.4,13.5,3.3-3.9-.9-9.7h0Z"/>
          <path class="st9" d="M548.6-39.9c0-.7.8-1.1,1.6-1s1.3.8,1.1,1.4-.8,1.1-1.6,1-1.3-.8-1.1-1.4Z"/>
          <path class="st9" d="M551.6-39.7c0-.7-.7-1.2-1.5-1.2s-1.3.6-1.3,1.3.7,1.2,1.5,1.2,1.3-.6,1.3-1.3Z"/>
        </g>
        <g class="st8">
          <polygon class="st9" points="663.5 -23.8 647.9 -33 648.2 -33.4 663.4 -24.5 675.1 -38.2 648.3 -33.8 648.2 -34.3 676.6 -39 663.5 -23.8"/>
          <path class="st9" d="M647.4-32.1c-.6-.4-.8-1.1-.4-1.7.4-.6,1.3-.7,1.9-.3.6.4.8,1.1.4,1.7-.4.6-1.3.7-1.9.3Z"/>
          <path class="st9" d="M648-35.3c-.7,0-1.2.8-1.1,1.4.2.7.9,1.1,1.6,1,.7,0,1.2-.8,1.1-1.4-.2-.7-.9-1.1-1.6-1Z"/>
        </g>
        <g class="st8">
          <polygon class="st9" points="-3.7 -38.1 -32.2 -41.9 -32.1 -42.5 -6.4 -39 -21.6 -48 -32.1 -42.7 -32.5 -43.2 -21.6 -48.7 -3.7 -38.1"/>
          <path class="st9" d="M-31.5-41.9c-.7.3-1.5,0-1.9-.5s-.2-1.3.5-1.7c.7-.3,1.5,0,1.9.5s.2,1.3-.5,1.7Z"/>
          <path class="st9" d="M-31.9-43.4c-.8,0-1.4.4-1.5,1,0,.7.4,1.3,1.2,1.4.8,0,1.4-.4,1.5-1,0-.7-.4-1.3-1.2-1.4Z"/>
        </g>
        <g class="st8">
          <polygon class="st9" points="-4.2 -37.8 -20.7 -47.5 -20.3 -47.9 -5.9 -39.4 -13.8 -52.5 -20.3 -48.7 -20.7 -49.2 -13.6 -53.3 -4.2 -37.8"/>
          <path class="st9" d="M-19.7-47.9c-.6.4-1.5.2-1.9-.4-.4-.6-.2-1.3.4-1.7s1.5-.2,1.9.4.2,1.3-.4,1.7Z"/>
          <path class="st9" d="M-19.7-48.7c-.6-.4-1.5-.2-1.9.3-.4.6-.2,1.3.4,1.7s1.5.2,1.9-.3c.4-.6.2-1.3-.4-1.7Z"/>
        </g>
        <g class="st8">
          <polygon class="st9" points="115.4 -56.6 91.3 -65.1 91.5 -65.6 113.5 -57.8 91.6 -82.1 90.6 -66.9 90 -67 91 -83.5 115.4 -56.6"/>
          <path class="st9" d="M91-64.2c-.7-.3-1.1-1-.8-1.6.3-.6,1.1-.9,1.8-.7.7.3,1.1,1,.8,1.6-.3.6-1.1.9-1.8.7Z"/>
          <path class="st9" d="M88.9-67.1c0,.7.5,1.3,1.3,1.3s1.4-.5,1.5-1.1c0-.7-.5-1.3-1.3-1.3s-1.4.5-1.5,1.1Z"/>
        </g>
        <g class="st8">
          <polygon class="st9" points="74.9 .4 60.8 -12.4 61.2 -12.7 74 -1.2 68.7 -30.6 60.8 -14.3 60.3 -14.6 69 -32.5 74.9 .4"/>
          <path class="st9" d="M61.8-14c-.3.6-1.1.9-1.8.6s-1-1-.7-1.6,1.1-.9,1.8-.6,1,1,.7,1.6Z"/>
          <path class="st9" d="M62-13.4c-.5-.5-1.4-.5-1.9,0s-.5,1.3,0,1.7c.5.5,1.4.5,1.9,0s.5-1.3,0-1.7Z"/>
        </g>
        <g class="st8">
          <polygon class="st9" points="59.3 48.7 74.3 -1 95.1 23.9 94.6 24.2 74.6 .2 60.3 47.3 94.4 25.5 94.8 25.9 59.3 48.7"/>
          <path class="st9" d="M95.9,23.3c.5.6.3,1.3-.3,1.7-.6.4-1.5.3-1.9-.3-.5-.6-.3-1.3.3-1.7.6-.4,1.5-.3,1.9.3Z"/>
          <path class="st9" d="M95.4,26.7c.6-.4.7-1.2.3-1.7s-1.3-.7-1.9-.3c-.6.4-.7,1.2-.3,1.7.5.6,1.3.7,1.9.3Z"/>
        </g>
        <g class="st8">
          <polygon class="st9" points="74.3 .5 68.8 -30.3 69.4 -30.4 74.6 -1.3 95.5 -39.3 70.2 -31.6 70 -32.2 96.7 -40.2 96.4 -39.6 74.3 .5"/>
          <path class="st9" d="M70.6-30.7c-.7.2-1.5-.1-1.8-.8-.3-.7,0-1.3.8-1.6.7-.2,1.5,0,1.8.8.3.6,0,1.3-.8,1.6Z"/>
          <path class="st9" d="M70.4-30.5c0-.7-.8-1.1-1.6-1.1s-1.3.7-1.1,1.4c0,.7.8,1.1,1.6,1.1s1.3-.7,1.1-1.4Z"/>
        </g>
        <g class="st8">
          <polygon class="st9" points="112.7 4.4 74 -.2 74.2 -.5 95.3 -38.9 95.8 -38.6 74.9 -.6 111.9 3.7 96.2 -38.6 96.8 -38.7 112.7 4.4"/>
          <path class="st9" d="M95.2-38.2c-.2-.7,0-1.3.9-1.5.7-.2,1.5.2,1.7.8.2.7,0,1.3-.9,1.5-.7.2-1.5-.2-1.7-.8Z"/>
          <path class="st9" d="M96.7-38.1c.3-.6,0-1.4-.6-1.7-.7-.3-1.5,0-1.8.5-.3.6,0,1.4.6,1.7.7.3,1.5,0,1.8-.5Z"/>
        </g>
        <g class="st8">
          <polygon class="st9" points="94.6 24.2 73.8 -.8 112.8 3.8 96.7 24.2 96.2 23.9 111.7 4.3 75.1 0 95.1 23.9 94.6 24.2"/>
          <path class="st9" d="M97.6,24.8c-.4.6-1.3.7-1.9.3s-.8-1.2-.3-1.7c.4-.6,1.3-.7,1.9-.3s.8,1.2.3,1.7Z"/>
          <path class="st9" d="M93.7,24.8c.5.6,1.3.7,1.9.3.6-.4.7-1.2.3-1.7-.5-.6-1.3-.7-1.9-.3-.6.4-.7,1.2-.3,1.7Z"/>
        </g>
        <g class="st8">
          <polygon class="st9" points="184.6 -46.8 184.1 -47.2 208.9 -85.2 209.4 -85 186.4 -49.7 216.7 -82.1 210.8 -85.3 211.1 -85.7 217.6 -82.2 217.4 -82 184.6 -46.8"/>
          <path class="st9" d="M207.9-85.7c.4-.6,1.2-.8,1.9-.4s.9,1.1.5,1.7-1.2.8-1.9.4-.9-1.1-.5-1.7Z"/>
          <path class="st9" d="M211.7-86.5c-.7-.4-1.5-.2-1.9.4s-.2,1.3.5,1.7,1.5.2,1.9-.4.2-1.3-.5-1.7Z"/>
        </g>
        <g class="st8">
          <path class="st9" d="M458.4,19.3h-.1l-17.2-11,.3-.4v-.4c.1,0,29.8,8.9,29.8,8.9l-12.8,2.8h0ZM442,8.3l16.5,10.4,10.5-2.3s-27-8.1-27-8.1Z"/>
          <path class="st9" d="M441,9c-.7-.2-1.1-.9-.9-1.6.2-.6,1-1,1.7-.8s1.1.9.9,1.6c-.2.6-1,1-1.7.8Z"/>
          <path class="st9" d="M442.1,7.1c-.6-.4-1.5-.3-1.9.3-.4.6-.3,1.3.4,1.7.6.4,1.5.3,1.9-.3s.3-1.3-.4-1.7Z"/>
        </g>
        <g class="st8">
          <polygon class="st9" points="253.1 -44.8 241 -55.6 241.4 -56 252.6 -46.1 253.1 -53.7 241.5 -56.1 241.6 -56.6 253.8 -54.1 253.1 -44.8"/>
          <path class="st9" d="M240.3-54.8c-.5-.5-.6-1.3,0-1.7s1.4-.5,1.9,0,.6,1.3,0,1.7c-.5.5-1.4.5-1.9,0Z"/>
          <path class="st9" d="M241.9-57.5c-.7-.2-1.5.3-1.6.9-.2.7.3,1.3,1.1,1.5.7.2,1.5-.3,1.6-.9.2-.7-.3-1.3-1.1-1.5Z"/>
        </g>
        <g class="st8">
          <polygon class="st9" points="252.6 -45.2 253.1 -52.8 253.7 -52.7 253.2 -45.7 259.9 -45.2 253.9 -52.8 254.4 -53.1 261.1 -44.6 252.6 -45.2"/>
          <path class="st9" d="M252-52.8c0-.7.7-1.2,1.5-1.1.8,0,1.3.7,1.3,1.3s-.7,1.2-1.5,1.1c-.8,0-1.3-.7-1.3-1.3Z"/>
          <path class="st9" d="M255.4-53.6c-.4-.6-1.3-.7-1.9-.3-.6.4-.8,1.1-.3,1.7s1.3.7,1.9.3c.6-.4.8-1.1.3-1.7Z"/>
        </g>
        <g class="st8">
          <polygon class="st9" points="406 54.4 405.9 53.9 419.8 51.8 438.8 9.7 405.6 53.5 405.1 53.2 441.5 5.1 420.3 52.3 406 54.4"/>
          <path class="st9" d="M406.5,54c-.4.6-1.3.7-1.9.3s-.8-1.2-.4-1.7c.4-.6,1.3-.7,1.9-.3s.8,1.2.4,1.7Z"/>
          <path class="st9" d="M405.7,52.9c-.7,0-1.2.7-1.1,1.4s.9,1.1,1.6,1,1.2-.7,1.1-1.4-.9-1.1-1.6-1Z"/>
        </g>
        <g class="st8">
          <polygon class="st9" points="419.5 52.6 419.8 51.9 439.9 7.3 440.4 7.5 430.5 46.5 429.9 46.4 439 10.7 420.6 51.4 428.6 47.9 428.9 48.4 419.5 52.6"/>
          <path class="st9" d="M431.5,46.7c-.2.7-.9,1.1-1.7.9-.7-.2-1.2-.8-1-1.5s.9-1.1,1.7-.9c.7.2,1.2.8,1,1.5Z"/>
          <path class="st9" d="M429.3,49.3c.7-.3.9-1,.6-1.7-.4-.6-1.2-.9-1.9-.6-.7.3-.9,1-.6,1.7.4.6,1.2.9,1.9.6Z"/>
        </g>
        <g class="st8">
          <polygon class="st9" points="217.2 23.9 217.2 23.4 240.3 25 252.3 -43.6 216.8 22.6 216.2 22.4 253.5 -47.2 240.9 25.6 217.2 23.9"/>
          <path class="st9" d="M217.8,23c-.3.6-1.1.9-1.8.5-.7-.3-1-1-.7-1.7.3-.6,1.1-.9,1.8-.5.7.3,1,1,.7,1.7Z"/>
          <path class="st9" d="M217.4,22.4c-.8,0-1.4.5-1.5,1.1,0,.7.5,1.3,1.3,1.3s1.4-.5,1.5-1.1c0-.7-.5-1.3-1.3-1.3Z"/>
        </g>
        <g class="st8">
          <polygon class="st9" points="240.1 26.4 252.4 -44.3 253 -44.2 241.1 24.2 275.5 -18.2 253.4 -44.3 253.9 -44.7 276.3 -18.2 276.1 -18 240.1 26.4"/>
          <path class="st9" d="M252.6-43.7c-.5-.5-.4-1.3.3-1.7.6-.4,1.5-.3,1.9.3.5.5.4,1.3-.3,1.7-.6.4-1.5.3-1.9-.3Z"/>
          <path class="st9" d="M254-44c.1-.7-.4-1.3-1.2-1.4-.8,0-1.5.3-1.6,1s.4,1.3,1.2,1.4,1.5-.3,1.6-1Z"/>
        </g>
        <g class="st8">
          <polygon class="st9" points="538.2 26.8 502.1 10.9 502.3 10.4 537.9 26.1 556.8 -5.8 502.3 10 502.1 9.5 558 -6.7 538.2 26.8"/>
          <path class="st9" d="M501.7,11.8c-.7-.3-1-1-.7-1.7.3-.6,1.1-.9,1.8-.6.7.3,1,1,.7,1.7-.3.6-1.1.9-1.8.6Z"/>
          <path class="st9" d="M501.9,8.6c-.7.2-1.1.9-.9,1.6.2.6,1,1,1.8.8.7-.2,1.1-.9.9-1.6s-1-1-1.8-.8Z"/>
        </g>
        <g class="st8">
          <path class="st9" d="M502.3,10l-.2-.5-.4-.4,45.4-33.7,10.6,18.4-55.5,16.1h.1ZM547-23.6l-44.6,33,54.5-15.8s-9.9-17.2-9.9-17.2Z"/>
          <path class="st9" d="M502.9,10.3c-.6.4-1.5.3-1.9-.2-.5-.5-.4-1.3.2-1.7s1.5-.3,1.9.2c.5.5.4,1.3-.2,1.7Z"/>
          <path class="st9" d="M501.9,8.6c-.7.2-1.1.9-.9,1.6.2.6,1,1,1.8.8.7-.2,1.1-.9.9-1.6s-1-1-1.8-.8Z"/>
        </g>
        <g class="st8">
          <polygon class="st9" points="539.4 26.8 539.4 26.3 575.5 28.9 557.4 -5.6 539 25.6 538.4 25.3 557.4 -6.9 576.5 29.5 539.4 26.8"/>
          <path class="st9" d="M539.4,27.8c-.8,0-1.3-.7-1.3-1.3s.7-1.2,1.5-1.1c.8,0,1.3.7,1.3,1.3s-.7,1.2-1.5,1.1Z"/>
          <path class="st9" d="M537.5,24.8c-.4.6,0,1.3.6,1.7.7.3,1.5.1,1.9-.5s0-1.3-.6-1.7c-.7-.3-1.5-.1-1.9.5Z"/>
        </g>
        <g class="st8">
          <polygon class="st9" points="558.4 -3.9 547.5 -22.9 548 -23.1 556.4 -8.6 551 -26.7 548.3 -24.6 547.9 -25 551.3 -27.7 558.4 -3.9"/>
          <path class="st9" d="M549.1-23.9c-.6.4-1.4.4-1.9-.1s-.5-1.3,0-1.7c.6-.4,1.4-.4,1.9.1s.5,1.3,0,1.7Z"/>
          <path class="st9" d="M549-23.5c-.4-.6-1.2-.9-1.9-.6s-.9,1-.6,1.7c.4.6,1.2.9,1.9.6s.9-1,.6-1.7Z"/>
        </g>
        <g class="st8">
          <polygon class="st9" points="577.2 28.7 576.8 28.3 601.6 9 558 -5.7 575.8 28.1 575.2 28.3 556.8 -6.7 602.8 8.9 577.2 28.7"/>
          <path class="st9" d="M578,29.4c-.6.4-1.4.4-1.9-.1s-.5-1.3,0-1.7c.6-.4,1.4-.4,1.9.1s.5,1.3,0,1.7Z"/>
          <path class="st9" d="M574.2,28.6c.3.6,1.1.9,1.8.6s1-1,.7-1.6-1.1-.9-1.8-.6-1,1-.7,1.6Z"/>
        </g>
        <g class="st8">
          <path class="st9" d="M162.7,37.4l-9.4-25.6,10.2.7v.3l.2,24.4h-1v.2ZM154.2,12.5l9,24.3-.2-23.6-8.8-.6h0Z"/>
          <path class="st9" d="M164.3,36.9c.2.7-.1,1.3-.9,1.5-.7.2-1.5-.2-1.7-.8-.2-.7.1-1.3.9-1.5.7-.2,1.5.2,1.7.8Z"/>
          <path class="st9" d="M162,37.2c0,.7.6,1.2,1.4,1.3.8,0,1.4-.5,1.4-1.2s-.6-1.2-1.4-1.3c-.8,0-1.4.5-1.4,1.2Z"/>
        </g>
        <g class="st8">
          <path class="st9" d="M164.1,37.5l-.5-.2h-.5l-.2-24.6h.2l12.5-6.4-11.5,31.1h0ZM163.5,13l.2,23.8,10.8-29.3-11,5.5Z"/>
          <path class="st9" d="M164.8,37.3c0,.7-.6,1.2-1.4,1.2s-1.4-.6-1.4-1.3.6-1.2,1.4-1.2,1.4.6,1.4,1.3Z"/>
          <path class="st9" d="M162.6,36.9c-.2.6.2,1.3.9,1.6.7.2,1.5,0,1.7-.8.2-.6-.2-1.3-.9-1.6-.7-.2-1.5,0-1.7.8Z"/>
        </g>
        <g class="st8">
          <polygon class="st9" points="164.8 38.4 164.6 37.9 215.1 23.5 175.2 7.3 164.1 37.5 163.6 37.3 174.9 6.5 175.2 6.7 216.8 23.6 216 23.8 164.8 38.4"/>
          <path class="st9" d="M165.2,37.7c-.2.6-1,1-1.7.8s-1.1-.9-.9-1.6c.2-.6,1-1,1.7-.8s1.1.9.9,1.6Z"/>
          <path class="st9" d="M164.3,36.9c-.7.2-1.1.9-.9,1.5.2.7,1,1,1.7.8s1.1-.9.9-1.5c-.2-.7-1-1-1.7-.8Z"/>
        </g>
        <g class="st8">
          <polygon class="st9" points="-7.4 -97.9 4.5 -128.8 25.6 -112.4 25.2 -112 4.8 -127.8 -6.3 -98.9 25.1 -111.2 25.4 -110.7 -7.4 -97.9"/>
          <path class="st9" d="M24.6-112c.7-.3,1.5,0,1.8.6s0,1.4-.7,1.6-1.5,0-1.8-.6,0-1.4.7-1.6Z"/>
          <path class="st9" d="M24.5-111.3c.6.5,1.5.4,1.9,0,.5-.5.4-1.3-.2-1.7-.6-.5-1.5-.4-1.9,0-.5.5-.4,1.3.2,1.7Z"/>
        </g>
        <g class="st8">
          <polygon class="st9" points="114.4 -56.8 91.9 -81.7 92.4 -82 114.5 -57.6 137.5 -70.7 92.5 -82.2 92.6 -82.7 138.9 -70.9 114.4 -56.8"/>
          <path class="st9" d="M91.1-81c-.5-.5-.4-1.3.2-1.7s1.5-.3,1.9.2c.5.5.4,1.3-.2,1.7-.6.4-1.5.3-1.9-.2Z"/>
          <path class="st9" d="M93-83.6c-.7-.2-1.5.2-1.7.8-.2.7.2,1.3,1,1.5.7.2,1.5-.2,1.7-.8.2-.7-.2-1.3-1-1.5Z"/>
        </g>
        <g class="st8">
          <polygon class="st9" points="705.3 -2 648.4 -7.8 648.5 -8.4 702.7 -2.8 672.7 -19.7 648.5 -8.5 648.2 -9 672.8 -20.4 672.9 -20.3 705.3 -2"/>
          <path class="st9" d="M649-7.7c-.7.3-1.5,0-1.9-.5-.4-.6,0-1.4.6-1.7.7-.3,1.5,0,1.9.5.4.6,0,1.4-.6,1.7Z"/>
          <path class="st9" d="M648.7-9.3c-.8,0-1.4.4-1.5,1.1,0,.7.5,1.3,1.2,1.4.8,0,1.4-.4,1.5-1.1,0-.7-.5-1.3-1.2-1.4Z"/>
        </g>
        <g class="st8">
          <polygon class="st9" points="705.2 -1.4 673.7 -19.2 674 -19.6 702.8 -3.4 682.7 -27.4 673.9 -20.6 673.5 -21 682.8 -28.2 705.2 -1.4"/>
          <path class="st9" d="M674.7-19.9c-.6.4-1.4.4-1.9-.1s-.5-1.3,0-1.7c.6-.4,1.4-.4,1.9.1s.5,1.3,0,1.7Z"/>
          <path class="st9" d="M674.6-20.4c-.7-.4-1.5-.2-1.9.4s-.2,1.3.5,1.7c.7.4,1.5.2,1.9-.4s.2-1.3-.5-1.7Z"/>
        </g>
        <g class="st8">
          <polygon class="st9" points="624.4 -39.8 616.2 -65.3 636.2 -65.5 636.3 -65 617 -64.8 624.6 -41.4 636.7 -64.3 637.3 -64.1 624.4 -39.8"/>
          <path class="st9" d="M635.7-64.7c.3-.6,1.1-.9,1.8-.6s1,1,.7,1.7c-.3.6-1.1.9-1.8.6-.7-.3-1-1-.7-1.7Z"/>
          <path class="st9" d="M636.2-64c.8,0,1.4-.6,1.3-1.2s-.7-1.2-1.4-1.2-1.4.6-1.3,1.2c0,.7.7,1.2,1.4,1.2Z"/>
        </g>
        <g class="st8">
          <polygon class="st9" points="647.4 -33.4 624.1 -40.4 624.2 -40.7 636.7 -64.3 637.3 -64.1 624.9 -40.8 646.5 -34.3 637.6 -64 638.2 -64.2 647.4 -33.4"/>
          <path class="st9" d="M636.6-63.8c-.2-.7.2-1.3,1-1.5.7-.2,1.5.2,1.7.9.2.7-.2,1.3-1,1.5-.7.2-1.5-.2-1.7-.9Z"/>
          <path class="st9" d="M638.2-63.6c.3-.6,0-1.4-.7-1.7-.7-.3-1.5,0-1.8.6s0,1.4.7,1.7,1.5,0,1.8-.6Z"/>
        </g>
        <g class="st8">
          <polygon class="st9" points="260.4 -44.6 253.9 -52.8 254.4 -53.1 260.6 -45.2 273 -49 254.6 -53.4 254.8 -53.9 275.2 -49 260.4 -44.6"/>
          <path class="st9" d="M253.1-52.2c-.4-.6-.3-1.3.3-1.7s1.5-.2,1.9.3c.4.6.3,1.3-.3,1.7s-1.5.2-1.9-.3Z"/>
          <path class="st9" d="M255.1-54.8c-.7-.2-1.5.2-1.7.9s.3,1.3,1,1.5,1.5-.2,1.7-.9c.2-.7-.3-1.3-1-1.5Z"/>
        </g>
        <g class="st8">
          <polygon class="st9" points="276.3 -16.9 260 -45 272.8 -48.9 273 -48.4 260.9 -44.7 275.5 -19.4 273.9 -47.8 274.5 -47.9 276.3 -16.9"/>
          <path class="st9" d="M272.3-49.8c.7-.2,1.5,0,1.8.8.3.6-.1,1.3-.8,1.6-.7.2-1.5,0-1.8-.8-.3-.6.1-1.3.8-1.6Z"/>
          <path class="st9" d="M275.5-47.8c0-.7-.7-1.2-1.4-1.2s-1.3.6-1.3,1.3.7,1.2,1.4,1.2,1.3-.6,1.3-1.3Z"/>
        </g>
        <g class="st8">
          <path class="st9" d="M283.7-13.7l-8.1-4.4h0c0-.1-1.7-29.8-1.7-29.8h.8l9,34.3h0ZM276.2-18.3l6.6,3.5-8.2-31.2,1.6,27.7Z"/>
          <path class="st9" d="M272.8-47.7c0-.7.5-1.3,1.3-1.3s1.4.5,1.4,1.2-.5,1.3-1.3,1.3-1.4-.5-1.4-1.2Z"/>
          <path class="st9" d="M275.8-48.1c-.2-.7-.9-1.1-1.7-.9-.7,0-1.2.8-1,1.5s.9,1.1,1.7.9c.7,0,1.2-.8,1-1.5Z"/>
        </g>
        <g class="st8">
          <polygon class="st9" points="283.1 -13.8 274.1 -47.8 274.7 -47.9 283.5 -14.7 318.2 -33.8 275.2 -48.3 275.4 -48.9 319.6 -33.9 283.1 -13.8"/>
          <path class="st9" d="M273.1-47.5c-.2-.7.3-1.3,1-1.5.7,0,1.5.3,1.7.9.2.7-.3,1.3-1,1.5-.7,0-1.5-.3-1.7-.9Z"/>
          <path class="st9" d="M275.9-49.7c-.7-.2-1.5,0-1.8.7-.3.6.1,1.4.8,1.6.7.2,1.5,0,1.8-.7.3-.6-.1-1.4-.8-1.6Z"/>
        </g>
        <g class="st8">
          <polygon class="st9" points="501.2 10.9 471.8 -31.8 472.4 -32.1 500.8 9.3 507.2 -31.8 472.7 -32.7 472.7 -33.2 507.9 -32.3 507.9 -32 501.2 10.9"/>
          <path class="st9" d="M471-31.3c-.4-.6-.2-1.3.4-1.7.6-.3,1.5-.2,1.9.4.4.6.2,1.3-.4,1.7-.6.3-1.5.2-1.9-.4Z"/>
          <path class="st9" d="M472.8-34.2c-.8,0-1.4.5-1.4,1.2s.6,1.3,1.4,1.3,1.4-.5,1.4-1.2-.6-1.3-1.4-1.3Z"/>
        </g>
        <g class="st8">
          <polygon class="st9" points="500.6 10.8 507.1 -30.9 507.7 -30.8 501.4 9.5 546.4 -23.9 508.8 -31.5 508.9 -32 547.8 -24.2 500.6 10.8"/>
          <path class="st9" d="M506-31c.1-.7.8-1.1,1.6-1,.8.1,1.3.7,1.2,1.4-.1.7-.8,1.1-1.6,1-.8-.1-1.3-.7-1.2-1.4Z"/>
          <path class="st9" d="M509.2-33c-.7-.2-1.5.3-1.6.9-.2.7.3,1.3,1.1,1.5.7.2,1.5-.3,1.6-.9.2-.7-.3-1.3-1.1-1.5Z"/>
        </g>
        <g class="st8">
          <path class="st9" d="M573.8,37.9l-34.6-10.8v-.4c0,0,.2-.4.2-.4l37,2.7-2.6,9h0ZM540.4,26.9l33,10.3,2.3-7.8-35.2-2.6h0Z"/>
          <path class="st9" d="M539.4,27.8c-.8,0-1.3-.7-1.3-1.3s.7-1.2,1.5-1.1c.8,0,1.3.7,1.3,1.3s-.7,1.2-1.5,1.1Z"/>
          <path class="st9" d="M539.8,25.7c-.7-.2-1.5.1-1.7.8-.2.6.2,1.3.9,1.6.7.2,1.5-.1,1.7-.8.2-.6-.2-1.3-.9-1.6Z"/>
        </g>
        <g class="st8">
          <polygon class="st9" points="553.3 67.9 550.4 64.9 573.3 37.4 573.9 37.7 555.3 67.7 554.7 67.5 571.1 41 551.2 64.9 553.7 67.5 553.3 67.9"/>
          <path class="st9" d="M556.3,68.2c-.4.6-1.2.8-1.9.5s-.9-1.1-.5-1.7,1.2-.8,1.9-.5.9,1.1.5,1.7Z"/>
          <path class="st9" d="M552.4,68.5c.5.5,1.4.6,1.9,0,.6-.4.6-1.2,0-1.7s-1.4-.6-1.9,0c-.6.4-.6,1.2,0,1.7Z"/>
        </g>
        <g class="st8">
          <polygon class="st9" points="580.6 85.5 554 68.7 554.1 68.5 573.8 36.8 582 84.8 581.3 84.8 573.4 38.4 554.8 68.5 580.9 85.1 580.6 85.5"/>
          <path class="st9" d="M583,84.6c0,.7-.4,1.3-1.2,1.4-.8,0-1.5-.4-1.6-1.1s.4-1.3,1.2-1.4c.8,0,1.5.4,1.6,1.1Z"/>
          <path class="st9" d="M579.9,86.2c.6.4,1.5.3,1.9-.3.4-.6.3-1.3-.4-1.7s-1.5-.3-1.9.3c-.4.6-.3,1.3.4,1.7Z"/>
        </g>
        <g class="st8">
          <polygon class="st9" points="573.2 37.8 575.4 30.3 576 30.4 574 37.3 589.6 38.5 576.9 30.2 577.3 29.7 591.7 39.2 573.2 37.8"/>
          <path class="st9" d="M576.4,31c-.6-.4-.8-1.2-.3-1.7.4-.5,1.3-.7,1.9-.3s.8,1.2.3,1.7c-.4.5-1.3.7-1.9.3Z"/>
          <path class="st9" d="M577,30.8c.2-.7-.2-1.3-1-1.5-.7-.2-1.5.2-1.7.8s.2,1.3,1,1.5c.7.2,1.5-.2,1.7-.8Z"/>
        </g>
        <g class="st8">
          <path class="st9" d="M581.3,84.8l-8.1-47.5,17.8,1.3v.3l-8.7,46h-1ZM573.9,37.9l7.9,46.3,8.4-45.2-16.4-1.2h0Z"/>
          <path class="st9" d="M583.4,85c0,.7-.8,1.1-1.6,1s-1.3-.8-1.1-1.4c0-.7.8-1.1,1.6-1s1.3.8,1.1,1.4Z"/>
          <path class="st9" d="M580.3,84.9c0,.7.8,1.2,1.6,1.1.8,0,1.3-.7,1.2-1.4,0-.7-.8-1.2-1.6-1.1-.8,0-1.3.7-1.2,1.4Z"/>
        </g>
        <g class="st8">
          <polygon class="st9" points="510.1 43.6 510 43.3 501 11.3 501.6 11.2 510.5 42.9 531 37.8 501.7 11.2 502.1 10.8 532.2 38.1 510.1 43.6"/>
          <path class="st9" d="M500,11.6c-.2-.7.3-1.3,1-1.5s1.5.3,1.7.9c.2.7-.3,1.3-1,1.5s-1.5-.3-1.7-.9Z"/>
          <path class="st9" d="M503,10.2c-.5-.5-1.4-.5-1.9,0s-.5,1.3,0,1.7c.5.5,1.4.5,1.9,0s.5-1.3,0-1.7Z"/>
        </g>
        <g class="st8">
          <path class="st9" d="M531.7,38.4l-.3-.3-29.7-27,.4-.3.2-.4,36.2,15.9-6.8,12.1ZM502.5,11.1l29,26.4,6.1-10.9-35.2-15.5h.1Z"/>
          <path class="st9" d="M501.7,11.8c-.7-.3-1-1-.7-1.7.3-.6,1.1-.9,1.8-.6.7.3,1,1,.7,1.7-.3.6-1.1.9-1.8.6Z"/>
          <path class="st9" d="M503,10.2c-.5-.5-1.4-.5-1.9,0s-.5,1.3,0,1.7c.5.5,1.4.5,1.9,0s.5-1.3,0-1.7Z"/>
        </g>
        <g class="st8">
          <polygon class="st9" points="521.9 49 509.4 43.1 532.3 37.5 524.2 48.5 523.7 48.2 530.9 38.4 511.1 43.3 522.2 48.5 521.9 49"/>
          <path class="st9" d="M525.1,49c-.4.6-1.3.7-1.9.3-.6-.4-.8-1.2-.4-1.7s1.3-.7,1.9-.3.8,1.2.4,1.7Z"/>
          <path class="st9" d="M521.4,49.8c.7.3,1.5,0,1.8-.5.3-.6,0-1.4-.6-1.7-.7-.3-1.5,0-1.8.5-.3.6,0,1.4.6,1.7Z"/>
        </g>
        <g class="st8">
          <path class="st9" d="M549.5,64.5l-26.7-15.2,8.8-11.9.3.4,18.5,26-.5.3-.3.5h0ZM523.7,49.2l26.2,14.9-18.2-25.6-7.9,10.8h0Z"/>
          <path class="st9" d="M551.2,63.2c.4.6.2,1.3-.4,1.7-.6.4-1.5.2-1.9-.4s-.2-1.3.4-1.7c.6-.4,1.5-.2,1.9.4Z"/>
          <path class="st9" d="M548.9,65.3c.6.4,1.5.2,1.9-.4s.2-1.3-.5-1.7c-.6-.4-1.5-.2-1.9.4s-.2,1.3.5,1.7Z"/>
        </g>
        <g class="st8">
          <polygon class="st9" points="531.1 38.2 537.2 27.4 537.8 27.6 532.1 37.7 571.8 37.3 539.2 27.1 539.4 26.6 575.3 37.8 531.1 38.2"/>
          <path class="st9" d="M539,28.1c-.7-.2-1.1-.9-.9-1.6.2-.6,1-1,1.7-.8s1.1.9.9,1.6c-.2.6-1,1-1.7.8Z"/>
          <path class="st9" d="M538.7,28.1c.3-.6,0-1.4-.6-1.7-.7-.3-1.5,0-1.8.5-.3.6,0,1.4.6,1.7.7.3,1.5,0,1.8-.5Z"/>
        </g>
        <g class="st8">
          <polygon class="st9" points="549.8 64.1 531 37.7 574.2 37.3 551.8 64.2 551.3 63.8 573 37.9 532.1 38.2 550.4 63.8 549.8 64.1"/>
          <path class="st9" d="M552.7,64.7c-.5.5-1.3.6-1.9.2-.6-.4-.7-1.2-.3-1.7.5-.5,1.3-.6,1.9-.2s.7,1.2.3,1.7Z"/>
          <path class="st9" d="M548.9,64.5c.4.6,1.3.8,1.9.4.6-.4.8-1.1.4-1.7-.4-.6-1.3-.8-1.9-.4-.6.4-.8,1.1-.4,1.7Z"/>
        </g>
        <g class="st7">
          <polygon class="st9" points="682.7 -27.5 676.3 -37.4 676.8 -37.7 682.9 -28.2 708.5 -35.9 677.2 -38.2 677.2 -38.8 711.5 -36.3 682.7 -27.5"/>
          <path class="st9" d="M675.4-36.9c-.4-.6-.2-1.3.5-1.7.7-.3,1.5,0,1.9.5s.2,1.3-.5,1.7c-.7.3-1.5,0-1.9-.5Z"/>
          <path class="st9" d="M677.3-39.7c-.8,0-1.4.5-1.5,1.1,0,.7.5,1.3,1.3,1.3s1.4-.5,1.5-1.1c0-.7-.5-1.3-1.3-1.3Z"/>
        </g>
        <g class="st7">
          <polygon class="st9" points="704.2 -1.7 683.3 -26.7 683.8 -27 703.8 -3.1 709.7 -35.7 684.1 -28 683.9 -28.5 710.4 -36.5 704.2 -1.7"/>
          <path class="st9" d="M682.5-26.1c-.5-.6-.3-1.3.3-1.7.6-.4,1.5-.3,1.9.3.5.6.3,1.3-.3,1.7-.6.4-1.5.3-1.9-.3Z"/>
          <path class="st9" d="M683.6-29.4c-.7.2-1.1.9-.8,1.6.3.6,1,1,1.8.8.7-.2,1.1-.9.8-1.6s-1-1-1.8-.8Z"/>
        </g>
        <g class="st8">
          <polygon class="st9" points="-22.7 -97.7 -22.8 -98.3 -7.6 -98.7 -19.3 -109.1 -23.3 -99 -23.9 -99.2 -19.6 -110.1 -6.1 -98.2 -22.7 -97.7"/>
          <path class="st9" d="M-22.6-96.8c-.8,0-1.4-.5-1.4-1.2s.5-1.3,1.3-1.3,1.4.5,1.4,1.2-.5,1.3-1.3,1.3Z"/>
          <path class="st9" d="M-24.9-99.6c-.3.6.1,1.4.8,1.6s1.5,0,1.8-.7-.1-1.4-.8-1.6c-.7-.2-1.5,0-1.8.7Z"/>
        </g>
        <g class="st8">
          <polygon class="st9" points="-6.7 -97.9 -19.9 -109.6 3.5 -127.8 3.9 -127.4 -19 -109.6 -7 -98.9 3.9 -127.3 4.5 -127.1 -6.7 -97.9"/>
          <path class="st9" d="M2.7-128.5c.6-.4,1.4-.4,1.9.1s.5,1.3,0,1.7c-.6.4-1.4.4-1.9,0s-.5-1.3.1-1.7Z"/>
          <path class="st9" d="M5.5-126.7c.2-.6,0-1.4-.9-1.6s-1.5,0-1.8.7c-.2.6,0,1.4.9,1.6.8.2,1.5,0,1.8-.7Z"/>
        </g>
        <g class="st8">
          <polygon class="st9" points="495.6 37.7 483.6 21.9 484.1 21.6 495.3 36.3 500.6 10.7 484.4 20.4 484 19.9 501.4 9.5 495.6 37.7"/>
          <path class="st9" d="M485.1,21.1c-.6.4-1.5.2-1.9-.4s-.3-1.3.4-1.7c.6-.4,1.5-.2,1.9.4s.3,1.3-.4,1.7Z"/>
          <path class="st9" d="M485.1,21.1c-.4-.6-1.3-.7-1.9-.4-.6.4-.8,1.1-.4,1.7s1.3.7,1.9.4c.6-.4.8-1.1.4-1.7Z"/>
        </g>
        <g class="st8">
          <path class="st9" d="M494.1,70.1l-.5-.3h-.6l2.2-33.2,15.6,6.5-.2.3s-16.5,26.7-16.5,26.7ZM495.7,37.4l-2.1,32.3,16.3-26.4-14.1-5.9h0Z"/>
          <path class="st9" d="M495.1,70.5c-.4.6-1.2.8-1.9.5-.7-.3-.9-1.1-.6-1.7.4-.6,1.2-.8,1.9-.5s.9,1.1.6,1.7Z"/>
          <path class="st9" d="M491.9,69.7c0,.7.5,1.3,1.3,1.3s1.4-.5,1.5-1.1c0-.7-.5-1.3-1.3-1.3s-1.4.5-1.5,1.1Z"/>
        </g>
        <g class="st8">
          <path class="st9" d="M510.7,43.7l-15.6-6.5,5.4-26h.6c0,.1.6,0,.6,0l9.1,32.5h-.1ZM495.8,36.9l14.1,5.9-8.8-31.3-5.3,25.5h0Z"/>
          <path class="st9" d="M500,11.6c-.2-.7.3-1.3,1-1.5s1.5.3,1.7.9c.2.7-.3,1.3-1,1.5s-1.5-.3-1.7-.9Z"/>
          <path class="st9" d="M502.1,11.6c.1-.7-.4-1.3-1.1-1.5-.7-.1-1.5.3-1.6,1s.4,1.3,1.1,1.5c.7.1,1.5-.3,1.6-1Z"/>
        </g>
        <g class="st8">
          <polygon class="st9" points="-15.3 12.9 -20 8.1 20.6 -26.7 21.1 -26.3 -13.2 12.9 -13.7 12.5 18 -23.6 -19.2 8.1 -14.9 12.6 -15.3 12.9"/>
          <path class="st9" d="M-12.3,13.4c-.5.5-1.3.6-1.9.2s-.7-1.2-.3-1.7c.5-.5,1.3-.6,1.9-.2.6.4.7,1.2.3,1.7Z"/>
          <path class="st9" d="M-16.2,13.5c.5.5,1.4.6,1.9.1.6-.4.6-1.2.1-1.7s-1.4-.6-1.9-.1c-.6.4-.6,1.2-.1,1.7Z"/>
        </g>
        <g class="st8">
          <polygon class="st9" points="-18.4 7.5 -18.9 7.1 20.3 -26.4 -4.9 -38.2 -18.9 7.1 -19.5 6.9 -5.3 -39 21.4 -26.5 -18.4 7.5"/>
          <path class="st9" d="M-17.9,7.3c-.2.7-1,1-1.7.8s-1.2-.9-1-1.5c.2-.7,1-1,1.7-.8s1.2.9,1,1.5Z"/>
          <path class="st9" d="M-19.6,6.4c-.5.5-.6,1.2,0,1.7.5.5,1.4.5,1.9,0s.6-1.2,0-1.7c-.5-.5-1.4-.5-1.9,0Z"/>
        </g>
        <g class="st8">
          <polygon class="st9" points="20.4 -26.2 20.5 -26.6 42.1 -97.2 42.7 -97 21.3 -26.8 68.4 -31.8 42.9 -97.1 43.4 -97.2 69.3 -31.3 20.4 -26.2"/>
          <path class="st9" d="M41.9-96.7c-.3-.6,0-1.3.8-1.6s1.5,0,1.8.8c.3.6,0,1.3-.8,1.6s-1.5,0-1.8-.8Z"/>
          <path class="st9" d="M43.7-96.7c.2-.7-.2-1.3-1-1.5s-1.5.2-1.7.8c-.2.7.2,1.3,1,1.5.7.2,1.5-.2,1.7-.8Z"/>
        </g>
        <g class="st8">
          <polygon class="st9" points="51.3 -17.4 19.4 -26.6 69.7 -31.9 53.8 -18 53.4 -18.3 68 -31.2 22.3 -26.4 51.5 -18 51.3 -17.4"/>
          <path class="st9" d="M54.6-17.3c-.5.5-1.4.5-1.9,0s-.5-1.3,0-1.7c.5-.5,1.4-.5,1.9,0s.5,1.3,0,1.7Z"/>
          <path class="st9" d="M51-16.5c.7.2,1.5-.1,1.7-.8.2-.6-.2-1.3-.9-1.6-.7-.2-1.5.1-1.7.8s.2,1.3.9,1.6Z"/>
        </g>
        <g class="st8">
          <polygon class="st9" points="175 -37.9 152.6 -64.7 163.6 -70.3 163.9 -69.8 153.5 -64.5 173.6 -40.5 164.9 -69.4 165.5 -69.5 175 -37.9"/>
          <path class="st9" d="M163.9-69.1c-.2-.7.2-1.3,1-1.5.7-.2,1.5.2,1.7.9.2.7-.2,1.3-1,1.5-.7.2-1.5-.2-1.7-.9Z"/>
          <path class="st9" d="M164.4-68.9c.7-.3.9-1.1.5-1.7s-1.2-.8-1.9-.5-.9,1.1-.5,1.7,1.2.8,1.9.5Z"/>
        </g>
        <g class="st8">
          <path class="st9" d="M165.8-27.2l-12.6-36.2h.5c0,0,.4-.4.4-.4l20.6,24.6v.2c-.1,0-8.8,11.8-8.8,11.8h0ZM153.9-63.2l12.1,34.7,7.9-10.7-20-24Z"/>
          <path class="st9" d="M152.2-63.1c-.2-.7.2-1.3.9-1.5s1.5.2,1.7.8c.2.7-.2,1.3-.9,1.5s-1.5-.2-1.7-.8Z"/>
          <path class="st9" d="M155-64.4c-.5-.6-1.3-.7-1.9-.3-.6.4-.7,1.2-.3,1.7.5.6,1.3.7,1.9.3.6-.4.7-1.2.3-1.7Z"/>
        </g>
        <g class="st8">
          <path class="st9" d="M174.1-38.7l-9.2-30.7h.5c0,0,.4-.4.4-.4l18.8,22.8-10.6,8.2h.1ZM165.6-69.3l8.8,29.6,9.5-7.4-18.3-22.2Z"/>
          <path class="st9" d="M164.6-68.9c-.5-.6-.3-1.3.3-1.7.6-.4,1.5-.3,1.9.3.5.6.3,1.3-.3,1.7s-1.5.3-1.9-.3Z"/>
          <path class="st9" d="M166.6-69.7c-.2-.7-1-1.1-1.7-.9s-1.2.8-1,1.5,1,1.1,1.7.9,1.2-.8,1-1.5Z"/>
        </g>
        <g class="st8">
          <polygon class="st9" points="175.4 9.4 165.9 -26.7 166.5 -26.8 174.7 4.4 174 -38.3 166.9 -28.7 166.4 -29 174.6 -40.1 175.4 9.4"/>
          <path class="st9" d="M164.9-26.4c-.2-.7.3-1.3,1-1.5.7-.1,1.5.3,1.7.9.2.7-.3,1.3-1,1.5-.7.1-1.5-.3-1.7-.9Z"/>
          <path class="st9" d="M165.5-29.6c-.4.6-.2,1.3.4,1.7.6.4,1.5.2,1.9-.3.4-.6.2-1.3-.4-1.7s-1.5-.2-1.9.3Z"/>
        </g>
        <g class="st8">
          <path class="st9" d="M174.7,5.7l-.8-45.1,10.8-8.4v.7c-.1,0-9.2,52.8-9.2,52.8h-.8ZM174.6-39.1l.7,42.7,8.6-50-9.3,7.2h0Z"/>
          <path class="st9" d="M176.6,5.9c-.1.7-.8,1.1-1.6,1s-1.3-.8-1.2-1.4c.1-.7.8-1.1,1.6-1s1.3.8,1.2,1.4Z"/>
          <path class="st9" d="M173.7,5.7c0,.7.6,1.2,1.4,1.2s1.4-.5,1.4-1.2-.6-1.2-1.4-1.2-1.4.5-1.4,1.2Z"/>
        </g>
        <g class="st8">
          <polygon class="st9" points="551 -28.4 549.9 -39.7 550.5 -39.7 551.5 -29.4 592.7 -53.7 551.5 -41 551.3 -41.5 597.1 -55.7 551 -28.4"/>
          <path class="st9" d="M548.9-39.6c0-.7.5-1.3,1.3-1.3s1.4.5,1.5,1.2c0,.7-.5,1.3-1.3,1.3s-1.4-.5-1.5-1.2Z"/>
          <path class="st9" d="M551-42.5c-.7.2-1.1.9-.8,1.6.3.6,1.1,1,1.8.8s1.1-.9.8-1.6c-.3-.6-1.1-1-1.8-.8Z"/>
        </g>
        <g class="st8">
          <path class="st9" d="M550.8-26.6l.2-2.4h0l42.6-25.3.4.5-43.2,27.2h0ZM551.5-28.7v1l25.4-16-25.4,15Z"/>
          <path class="st9" d="M593-55.1c.6-.4,1.5-.2,1.9.4.4.6.3,1.3-.4,1.7s-1.5.2-1.9-.4c-.4-.6-.3-1.3.4-1.7Z"/>
          <path class="st9" d="M594.6-53c.6-.4.8-1.2.3-1.7-.4-.6-1.3-.7-1.9-.3-.6.4-.8,1.2-.3,1.7.4.6,1.3.7,1.9.3Z"/>
        </g>
        <g class="st8">
          <path class="st9" d="M557.3-5.6l-6.5-21.7,42.9-27,.3.4.4.3-37.2,48h0ZM551.5-27.1l6,20.2,36.2-46.7s-42.2,26.5-42.2,26.5Z"/>
          <path class="st9" d="M593-55c.6-.4,1.5-.2,1.9.3.4.6.3,1.3-.3,1.7s-1.5.2-1.9-.3c-.4-.6-.3-1.3.3-1.7Z"/>
          <path class="st9" d="M595.3-53c.4-.6.3-1.3-.4-1.7-.6-.4-1.5-.3-1.9.3s-.3,1.3.4,1.7,1.5.3,1.9-.3Z"/>
        </g>
        <g class="st8">
          <polygon class="st9" points="602.5 9.4 602.1 9.2 556.9 -6.1 593.9 -53.9 594.4 -53.6 557.9 -6.4 601.8 8.5 594.7 -53.5 595.3 -53.6 602.5 9.4"/>
          <path class="st9" d="M593-54.4c.4-.6,1.3-.7,1.9-.3.6.4.8,1.2.4,1.7-.4.6-1.3.7-1.9.3s-.8-1.2-.4-1.7Z"/>
          <path class="st9" d="M596.4-53.6c0-.7-.8-1.2-1.5-1.1-.8,0-1.3.6-1.2,1.3,0,.7.8,1.2,1.5,1.1.8,0,1.3-.6,1.2-1.3Z"/>
        </g>
        <g class="st8">
          <path class="st9" d="M601.9,9.3v-.4l-7.2-62.5h.7l11,61.2-4.5,1.6h0ZM596.3-45.3l6.1,53.9,3.3-1.2-9.5-52.7h.1Z"/>
          <path class="st9" d="M593.7-53.4c0-.7.5-1.3,1.2-1.3s1.4.5,1.5,1.1-.5,1.3-1.2,1.3-1.4-.5-1.5-1.1Z"/>
          <path class="st9" d="M596.5-53.6c0-.7-.8-1.1-1.6-1.1s-1.3.7-1.1,1.4c0,.7.8,1.1,1.6,1.1s1.3-.7,1.1-1.4Z"/>
        </g>
        <g class="st8">
          <polygon class="st9" points="606 8.7 594.8 -53.5 595.4 -53.6 606.2 6.4 624.1 -40.5 595.9 -53.9 596.2 -54.4 624.9 -40.7 624.8 -40.5 606 8.7"/>
          <path class="st9" d="M593.8-53.3c0-.7.4-1.3,1.1-1.4.8,0,1.5.4,1.6,1.1,0,.7-.4,1.3-1.1,1.4-.8,0-1.5-.4-1.6-1.1Z"/>
          <path class="st9" d="M596.8-55.2c-.7-.3-1.5,0-1.9.5-.3.6,0,1.3.6,1.7.7.3,1.5,0,1.9-.5s0-1.3-.6-1.7Z"/>
        </g>
        <g class="st8">
          <polygon class="st9" points="625 -40.1 594.3 -54.7 615.3 -64.8 615.6 -64.3 595.6 -54.7 624 -41.1 616.6 -63.9 617.2 -64 625 -40.1"/>
          <path class="st9" d="M615.6-63.6c-.2-.7.2-1.3.9-1.5s1.5.2,1.7.9c.2.7-.2,1.3-.9,1.5s-1.5-.2-1.7-.9Z"/>
          <path class="st9" d="M616-63.4c.7-.3.9-1.1.5-1.7s-1.2-.8-1.9-.5-.9,1.1-.5,1.7c.4.6,1.2.8,1.9.5Z"/>
        </g>
        <g class="st8">
          <polygon class="st9" points="636.1 35.6 636.1 35 680.9 38.3 640 17.2 635.4 34.2 634.8 34 639.6 16.4 683.6 39 636.1 35.6"/>
          <path class="st9" d="M636.4,34.3c-.2.7-.9,1.1-1.7.9s-1.2-.9-1-1.5c.2-.7.9-1.1,1.7-.9.7.2,1.2.9,1,1.5Z"/>
          <path class="st9" d="M636.2,34.1c-.8,0-1.4.5-1.5,1.1,0,.7.5,1.3,1.3,1.3s1.4-.5,1.5-1.1c0-.7-.5-1.3-1.3-1.3Z"/>
        </g>
        <g class="st8">
          <polygon class="st9" points="668.9 68.9 668.6 68.6 635.5 36.3 635.9 35.9 668.7 67.9 681.8 38.9 636.1 35.6 636.1 35 682.7 38.4 668.9 68.9"/>
          <path class="st9" d="M634.7,37c-.5-.5-.5-1.3,0-1.7.6-.5,1.4-.4,1.9,0s.5,1.3,0,1.7c-.6.5-1.4.4-1.9,0Z"/>
          <path class="st9" d="M636.2,34.1c-.8,0-1.4.5-1.5,1.1,0,.7.5,1.3,1.3,1.3s1.4-.5,1.5-1.1c0-.7-.5-1.3-1.3-1.3Z"/>
        </g>
        <g class="st8">
          <polygon class="st9" points="683.2 39.5 640.8 17.6 641.1 17.2 681.3 37.8 647.3 -7.6 640.4 15.8 639.8 15.6 647 -8.9 683.2 39.5"/>
          <path class="st9" d="M641.5,16c-.2.7-.9,1-1.7.8-.7-.2-1.2-.9-1-1.5s.9-1,1.7-.8c.7.2,1.2.9,1,1.5Z"/>
          <path class="st9" d="M641.7,16.4c-.7-.3-1.5-.1-1.9.4s0,1.3.5,1.7c.7.3,1.5.1,1.9-.4.4-.6,0-1.3-.5-1.7Z"/>
        </g>
        <g class="st8">
          <polygon class="st9" points="682.3 39.2 647.7 -7.1 648.2 -7.4 682.2 38.1 703.5 -2.2 648.4 -7.8 648.5 -8.4 704.5 -2.6 682.3 39.2"/>
          <path class="st9" d="M648.4-6.9c-.8,0-1.3-.7-1.2-1.4,0-.7.7-1.2,1.5-1.1.8,0,1.3.7,1.2,1.4,0,.7-.7,1.2-1.5,1.1Z"/>
          <path class="st9" d="M649.1-7.9c-.4-.6-1.3-.7-1.9-.4-.6.4-.8,1.1-.4,1.7.4.6,1.3.7,1.9.4s.8-1.1.4-1.7Z"/>
        </g>
        <g class="st7">
          <polygon class="st9" points="681.5 39.3 703.2 -1.5 703.7 -1.2 682.9 38 717.3 20.7 704.4 -1.2 704.9 -1.5 718.2 20.9 717.9 21 681.5 39.3"/>
          <path class="st9" d="M703.4-.7c-.4-.6,0-1.4.6-1.7.7-.3,1.5,0,1.9.5.4.6,0,1.4-.6,1.7-.7.3-1.5,0-1.9-.5Z"/>
          <path class="st9" d="M704.7-.8c.3-.6,0-1.4-.7-1.7s-1.5,0-1.8.6,0,1.4.7,1.7,1.5,0,1.8-.6Z"/>
        </g>
        <g class="st8">
          <polygon class="st9" points="127.3 -21.4 114 -57.4 114.3 -57.5 146.1 -66.7 146.3 -66.1 114.8 -57 127.4 -22.9 146.7 -65.8 147.3 -65.6 127.3 -21.4"/>
          <path class="st9" d="M145.7-67.6c.7-.2,1.5.2,1.8.8.2.6-.1,1.3-.9,1.6-.7.2-1.5-.2-1.8-.8-.2-.6.1-1.3.9-1.6Z"/>
          <path class="st9" d="M148.2-65.1c.3-.6,0-1.4-.8-1.6s-1.5,0-1.8.7c-.3.6,0,1.4.8,1.6s1.5,0,1.8-.7Z"/>
        </g>
        <g class="st8">
          <polygon class="st9" points="112.2 -56.3 138.2 -71.2 146.4 -67.5 146.2 -67 138.2 -70.5 116.6 -58.1 146.1 -66.7 146.3 -66.1 112.2 -56.3"/>
          <path class="st9" d="M145.7-67.6c.7-.2,1.5.2,1.8.8.2.6-.1,1.3-.9,1.6-.7.2-1.5-.2-1.8-.8-.2-.6.1-1.3.9-1.6Z"/>
          <path class="st9" d="M145.6-66.2c.7.3,1.5,0,1.8-.6s0-1.4-.7-1.7c-.7-.3-1.5,0-1.8.6s0,1.4.7,1.7Z"/>
        </g>
        <g class="st8">
          <polygon class="st9" points="127.6 -22 127.1 -22.3 146.7 -65.8 147.3 -65.6 129.7 -26.6 152.6 -64.5 148.6 -66 148.8 -66.5 153.5 -64.8 153.3 -64.5 127.6 -22"/>
          <path class="st9" d="M145.7-66.1c.3-.6,1.1-.9,1.8-.7s1.1,1,.8,1.6-1.1.9-1.8.7-1.1-1-.8-1.6Z"/>
          <path class="st9" d="M149.3-67.4c-.7-.3-1.5,0-1.8.7-.3.6,0,1.4.8,1.6s1.5,0,1.8-.7,0-1.4-.8-1.6Z"/>
        </g>
        <g class="st8">
          <polygon class="st9" points="289.3 47.6 269.6 41.2 286.7 22.9 290.7 46.5 290.1 46.6 286.3 24.2 270.6 41 289.5 47.1 289.3 47.6"/>
          <path class="st9" d="M291.8,46.3c.1.7-.4,1.3-1.2,1.4-.8,0-1.5-.4-1.6-1.1-.1-.7.4-1.3,1.2-1.4.8,0,1.5.4,1.6,1.1Z"/>
          <path class="st9" d="M288.9,48.5c.7.2,1.5,0,1.7-.7s-.1-1.3-.9-1.6c-.7-.2-1.5,0-1.7.7-.2.6.1,1.3.9,1.6Z"/>
        </g>
        <g class="st8">
          <polygon class="st9" points="335.7 52 286.2 23.7 286.2 23.5 289.4 2.7 290 2.8 286.8 23.4 332.9 49.8 290.4 2.7 290.9 2.4 335.7 52"/>
          <path class="st9" d="M289.7,3.3c-.5-.5-.4-1.3.2-1.7.6-.4,1.5-.3,1.9.2.5.5.4,1.3-.2,1.7s-1.5.3-1.9-.2Z"/>
          <path class="st9" d="M291,3c.1-.7-.4-1.3-1.2-1.4-.8-.1-1.4.4-1.6,1-.1.7.4,1.3,1.2,1.4.8,0,1.4-.4,1.6-1Z"/>
        </g>
        <g class="st8">
          <polygon class="st9" points="323.1 55.3 290.4 48 290.3 47.8 286.1 22.8 323.7 54.3 323.3 54.7 286.9 24.3 290.9 47.5 323.3 54.8 323.1 55.3"/>
          <path class="st9" d="M324.4,53.6c.6.5.6,1.3,0,1.7-.5.5-1.4.5-1.9,0-.6-.5-.6-1.3,0-1.7.5-.5,1.4-.5,1.9,0Z"/>
          <path class="st9" d="M322.8,56.2c.7.2,1.5-.2,1.7-.9s-.3-1.3-1-1.5-1.5.2-1.7.9.3,1.3,1,1.5Z"/>
        </g>
        <g class="st8">
          <polygon class="st9" points="325.8 55 325.5 54.5 333.7 50.9 289.1 25.4 323.7 54.3 323.3 54.7 286.3 23.7 286.7 23.3 334.9 50.9 325.8 55"/>
          <path class="st9" d="M326.3,55.9c-.7.3-1.5,0-1.9-.6s0-1.4.6-1.7,1.5,0,1.9.6,0,1.4-.6,1.7Z"/>
          <path class="st9" d="M322.5,55.4c.6.5,1.4.5,1.9,0s.5-1.3,0-1.7c-.6-.5-1.4-.5-1.9,0s-.5,1.3,0,1.7Z"/>
        </g>
        <g class="st8">
          <polygon class="st9" points="631.8 101.5 631.7 101 664.8 96.9 668.4 69.1 631.6 100.8 631.1 100.4 669.2 67.7 665.3 97.4 631.8 101.5"/>
          <path class="st9" d="M632.4,101.5c-.5.5-1.4.4-1.9,0-.5-.5-.5-1.3,0-1.7.5-.5,1.4-.4,1.9,0,.5.5.5,1.3,0,1.7Z"/>
          <path class="st9" d="M631.6,100c-.8,0-1.3.7-1.1,1.4,0,.7.8,1.1,1.6,1.1s1.3-.7,1.1-1.4c0-.7-.8-1.1-1.6-1.1Z"/>
        </g>
        <g class="st8">
          <polygon class="st9" points="268.8 40.7 239.9 25.3 278.1 12.2 270.7 40.1 270.1 39.9 277.2 13.1 241.3 25.4 269.1 40.3 268.8 40.7"/>
          <path class="st9" d="M271.7,40.2c-.2.7-.9,1.1-1.7.9-.7-.2-1.2-.8-1-1.5s.9-1.1,1.7-.9c.7.2,1.2.8,1,1.5Z"/>
          <path class="st9" d="M268.2,41.5c.7.4,1.5.2,1.9-.4.4-.6.2-1.3-.5-1.7s-1.5-.2-1.9.4c-.4.6-.2,1.3.5,1.7Z"/>
        </g>
        <g class="st8">
          <polygon class="st9" points="241.9 25.2 241.7 24.7 277.4 12.5 275.6 -17.4 241.6 24.6 241.1 24.2 276.1 -19 278 12.9 241.9 25.2"/>
          <path class="st9" d="M242.5,25.1c-.4.5-1.3.7-1.9.2-.6-.4-.8-1.2-.3-1.7.4-.5,1.3-.7,1.9-.2.6.4.8,1.2.3,1.7Z"/>
          <path class="st9" d="M241.4,23.7c-.7.2-1,1-.8,1.6s1.1,1,1.8.7c.7-.2,1-1,.8-1.6-.3-.6-1.1-1-1.8-.7Z"/>
        </g>
        <g class="st8">
          <path class="st9" d="M271.1,40.4l-.5-.4h-.6c0,0,7.4-28,7.4-28l9.4,11.5-.2.2-15.6,16.7h.1ZM277.8,13.3l-7.1,26.7,15.4-16.5-8.3-10.2Z"/>
          <path class="st9" d="M272,41c-.5.5-1.4.6-1.9,0-.6-.4-.7-1.2-.2-1.7s1.4-.6,1.9,0c.6.4.7,1.2.2,1.7Z"/>
          <path class="st9" d="M269.1,39.6c-.2.7.3,1.3,1,1.5s1.5-.2,1.7-.9-.3-1.3-1-1.5-1.5.2-1.7.9Z"/>
        </g>
        <g class="st8">
          <polygon class="st9" points="277.5 15 275.6 -17 276.3 -17 277.8 10.3 282.9 -14.1 276.9 -17.3 277.2 -17.8 283.6 -14.4 277.5 15"/>
          <path class="st9" d="M276.4-16.5c-.7-.4-.9-1.1-.5-1.7s1.2-.8,1.9-.4.9,1.1.5,1.7-1.2.8-1.9.4Z"/>
          <path class="st9" d="M277.3-17c0-.7-.7-1.2-1.4-1.2s-1.3.6-1.3,1.3.7,1.2,1.4,1.2,1.3-.6,1.3-1.3Z"/>
        </g>
        <g class="st8">
          <polygon class="st9" points="277.2 13.5 282.7 -13.1 283.3 -13 278.2 11.8 289.5 1.5 283.4 -13 284 -13.2 290.2 1.7 290.1 1.8 277.2 13.5"/>
          <path class="st9" d="M282.4-12.7c-.3-.6,0-1.3.8-1.6.7-.2,1.5.1,1.8.8.3.6,0,1.3-.8,1.6-.7.2-1.5-.1-1.8-.8Z"/>
          <path class="st9" d="M284.4-12.8c.1-.7-.4-1.3-1.1-1.5-.7-.1-1.5.3-1.6,1s.4,1.3,1.1,1.5c.7.1,1.5-.3,1.6-1Z"/>
        </g>
        <g class="st8">
          <polygon class="st9" points="285.5 22.7 277.3 12.6 290.3 .8 287 22.4 286.4 22.3 289.4 2.4 278.1 12.7 286 22.4 285.5 22.7"/>
          <path class="st9" d="M288,22.5c-.1.7-.8,1.1-1.6,1-.8-.1-1.3-.7-1.2-1.4s.8-1.1,1.6-1c.8.1,1.3.7,1.2,1.4Z"/>
          <path class="st9" d="M284.6,23.2c.5.6,1.3.7,1.9.3.6-.4.7-1.2.3-1.7-.5-.6-1.3-.7-1.9-.3-.6.4-.7,1.2-.3,1.7Z"/>
        </g>
        <g class="st8">
          <path class="st9" d="M648.4-8.7l-.3-.3-.3-.3,15.6-15.2,4.3,2.3-19.3,13.4h0ZM663.5-23.8l-13.6,13.3,16.7-11.6-3.1-1.7h0Z"/>
          <path class="st9" d="M649.1-8.3c-.5.5-1.4.5-1.9,0-.6-.5-.6-1.2,0-1.7s1.4-.5,1.9,0c.6.5.6,1.2,0,1.7Z"/>
          <path class="st9" d="M647.4-10c-.6.4-.7,1.2-.2,1.7s1.3.6,1.9.2c.6-.4.7-1.2.2-1.7s-1.3-.6-1.9-.2Z"/>
        </g>
        <g class="st8">
          <path class="st9" d="M648.5-8.5l-.2-.3-.3-.3,19.1-13.3,6.4,2.4s-25,11.5-25,11.5ZM667.2-21.8l-17.2,12,22-10.2-4.8-1.8Z"/>
          <path class="st9" d="M649-7.7c-.7.3-1.5,0-1.9-.5-.4-.6,0-1.4.6-1.7.7-.3,1.5,0,1.9.5.4.6,0,1.4-.6,1.7Z"/>
          <path class="st9" d="M647.4-10c-.6.4-.7,1.2-.2,1.7s1.3.6,1.9.2c.6-.4.7-1.2.2-1.7s-1.3-.6-1.9-.2Z"/>
        </g>
        <g class="st8">
          <polygon class="st9" points="667.3 -21.8 664.5 -23.3 664.8 -23.7 667 -22.5 674.3 -36.3 664.5 -24.9 664 -25.2 677.4 -40.8 667.3 -21.8"/>
          <path class="st9" d="M665.4-24.3c-.5.5-1.3.6-1.9.2-.6-.4-.7-1.2-.3-1.7.5-.5,1.3-.6,1.9-.2.6.4.7,1.2.3,1.7Z"/>
          <path class="st9" d="M665.4-24.5c-.7-.4-1.5-.2-1.9.4s-.2,1.3.5,1.7,1.5.2,1.9-.4.2-1.3-.5-1.7Z"/>
        </g>
        <g class="st8">
          <polygon class="st9" points="671.4 -20.2 666.4 -22.2 684.4 -28.7 673.9 -20.6 673.5 -21 681.2 -27 668 -22.1 671.6 -20.7 671.4 -20.2"/>
          <path class="st9" d="M674.7-19.9c-.6.4-1.4.4-1.9-.1s-.5-1.3,0-1.7c.6-.4,1.4-.4,1.9.1s.5,1.3,0,1.7Z"/>
          <path class="st9" d="M670.9-19.4c.7.3,1.5,0,1.8-.7.3-.6,0-1.4-.8-1.6-.7-.3-1.5,0-1.8.7s0,1.4.8,1.6Z"/>
        </g>
        <g class="st8">
          <polygon class="st9" points="666.5 -21.6 675 -37.6 675.6 -37.4 667.8 -22.7 682.4 -28 676.3 -37.4 676.8 -37.7 683.2 -27.7 682.9 -27.6 666.5 -21.6"/>
          <path class="st9" d="M675.4-36.9c-.4-.6-.2-1.3.5-1.7.7-.3,1.5,0,1.9.5s.2,1.3-.5,1.7c-.7.3-1.5,0-1.9-.5Z"/>
          <path class="st9" d="M676.5-36.9c.3-.6,0-1.4-.7-1.7s-1.5,0-1.8.6,0,1.4.7,1.7,1.5,0,1.8-.6Z"/>
        </g>
        <g class="st8">
          <path class="st9" d="M607.2,6.9l-.4-.4-.6-.2,18.2-47.6,12.4,22.1h-.2c0,.1-29.4,26.1-29.4,26.1ZM624.6-39.9l-17.8,46.4,29.3-25.8-11.5-20.6Z"/>
          <path class="st9" d="M607.8,6.8c-.2.6-1,1-1.7.7-.7-.2-1.1-.9-.9-1.6.2-.6,1-1,1.7-.7.7.2,1.1.9.9,1.6Z"/>
          <path class="st9" d="M606.1,5.8c-.5.5-.5,1.3,0,1.7.5.5,1.4.5,1.9,0s.5-1.3,0-1.7c-.5-.5-1.4-.5-1.9,0Z"/>
        </g>
        <g class="st8">
          <polygon class="st9" points="636.4 -18.7 624.8 -39.4 625.4 -39.7 636.5 -19.8 646.5 -33.7 625.7 -40 625.8 -40.5 647.4 -34 636.4 -18.7"/>
          <path class="st9" d="M625.4-39c-.7-.2-1.1-.9-.9-1.6.2-.6,1-1,1.7-.8s1.1.9.9,1.6c-.2.6-1,1-1.7.8Z"/>
          <path class="st9" d="M626.4-40c-.3-.6-1.2-.9-1.9-.6-.7.3-1,1-.6,1.6.3.6,1.2.9,1.9.6.7-.3,1-1,.6-1.6Z"/>
        </g>
        <g class="st8">
          <polygon class="st9" points="635.8 -18.9 646 -33 646.5 -32.7 637.1 -19.7 662.7 -24.3 647.9 -33 648.2 -33.4 664.3 -24 635.8 -18.9"/>
          <path class="st9" d="M647.4-32.1c-.6-.4-.8-1.1-.4-1.7.4-.6,1.3-.7,1.9-.3.6.4.8,1.1.4,1.7-.4.6-1.3.7-1.9.3Z"/>
          <path class="st9" d="M647.4-32.1c.4-.6.2-1.3-.4-1.7-.6-.4-1.5-.2-1.9.3-.4.6-.2,1.3.4,1.7.6.4,1.5.2,1.9-.3Z"/>
        </g>
        <g class="st8">
          <polygon class="st9" points="646.1 -9 635.9 -19.4 636.4 -19.5 664.3 -24.6 648.3 -8.9 647.8 -9.3 662.6 -23.7 637 -19.1 646.5 -9.3 646.1 -9"/>
          <path class="st9" d="M649.1-8.3c-.5.5-1.4.5-1.9,0-.6-.5-.6-1.2,0-1.7s1.4-.5,1.9,0c.6.5.6,1.2,0,1.7Z"/>
          <path class="st9" d="M645.2-8.4c.5.5,1.4.6,1.9.1.6-.4.6-1.2,0-1.7s-1.4-.6-1.9-.1c-.6.4-.6,1.2,0,1.7Z"/>
        </g>
        <g class="st8">
          <polygon class="st9" points="431.1 47.2 430.8 46.8 453.3 33.9 440.2 8.3 430.5 46.5 429.9 46.4 440 6.6 454 34.1 431.1 47.2"/>
          <path class="st9" d="M431.5,46.7c-.2.7-.9,1.1-1.7.9-.7-.2-1.2-.8-1-1.5s.9-1.1,1.7-.9c.7.2,1.2.8,1,1.5Z"/>
          <path class="st9" d="M430.3,45.9c-.6.4-.8,1.1-.4,1.7.4.6,1.3.8,1.9.4.6-.4.8-1.1.4-1.7-.4-.6-1.3-.7-1.9-.4Z"/>
        </g>
        <g class="st8">
          <polygon class="st9" points="439.6 53.2 429.3 47.6 429.7 47.4 454.6 33.1 441.8 52.7 441.3 52.4 452.7 34.8 430.5 47.6 439.9 52.7 439.6 53.2"/>
          <path class="st9" d="M442.8,53.1c-.4.6-1.2.8-1.9.4s-.9-1.1-.5-1.7c.4-.6,1.2-.8,1.9-.4s.9,1.1.5,1.7Z"/>
          <path class="st9" d="M439,54c.7.4,1.5.2,1.9-.4.4-.6.2-1.3-.5-1.7s-1.5-.2-1.9.4c-.4.6-.2,1.3.5,1.7Z"/>
        </g>
        <g class="st8">
          <polygon class="st9" points="453.7 34.8 440.4 8.6 441 8.4 453.6 33.2 458.1 19.1 441.1 8.3 441.4 7.9 458.8 18.9 458.8 19.1 453.7 34.8"/>
          <path class="st9" d="M440.5,9.1c-.6-.4-.8-1.2-.4-1.7.4-.6,1.3-.7,1.9-.3.6.4.8,1.2.4,1.7-.4.6-1.3.7-1.9.3Z"/>
          <path class="st9" d="M442,8.1c-.3-.6-1.1-.9-1.8-.6-.7.3-1,1-.7,1.6s1.1.9,1.8.6c.7-.3,1-1,.7-1.6Z"/>
        </g>
        <g class="st8">
          <polygon class="st9" points="491.9 70.8 440.5 53.7 440.7 53.4 453.6 33.5 453.9 33.8 492.5 69.9 492.1 70.3 453.7 34.4 441.4 53.4 492.1 70.3 491.9 70.8"/>
          <path class="st9" d="M493.2,69.2c.5.5.5,1.3,0,1.7-.5.5-1.4.4-1.9,0-.5-.5-.5-1.3,0-1.7.5-.5,1.4-.4,1.9,0Z"/>
          <path class="st9" d="M491.4,71.7c.7.2,1.5,0,1.8-.7.3-.6-.1-1.4-.8-1.6-.7-.2-1.5,0-1.8.7-.3.6.1,1.4.8,1.6Z"/>
        </g>
        <g class="st8">
          <polygon class="st9" points="453 35.2 457.8 20 458.4 20.2 454.4 32.8 469.2 16.9 459.8 19 459.6 18.4 470.9 15.9 453 35.2"/>
          <path class="st9" d="M460.1,19.9c-.7.2-1.5-.2-1.7-.9-.2-.7.2-1.3,1-1.5.7-.2,1.5.2,1.7.9s-.2,1.3-1,1.5Z"/>
          <path class="st9" d="M459.4,20.5c.2-.7-.2-1.3-.9-1.5-.7-.2-1.5.2-1.7.8-.2.7.2,1.3.9,1.5s1.5-.2,1.7-.8Z"/>
        </g>
        <g class="st8">
          <polygon class="st9" points="452.5 34.8 469 17.1 469.5 17.5 454.8 33.1 482.4 20.8 471.2 17.1 471.4 16.6 483.9 20.7 452.5 34.8"/>
          <path class="st9" d="M470.9,18c-.7-.2-1.1-1-.8-1.6s1-1,1.8-.7c.7.2,1.1,1,.8,1.6s-1,1-1.8.7Z"/>
          <path class="st9" d="M470.3,18.2c.5-.5.4-1.3-.2-1.7-.6-.4-1.5-.4-1.9.1-.5.5-.4,1.3.2,1.7.6.4,1.5.4,1.9-.1Z"/>
        </g>
        <g class="st8">
          <polygon class="st9" points="452.5 34.2 481.8 21.1 482.1 21.5 454.8 33.8 494.8 36.7 483.6 21.9 484.1 21.6 496 37.3 452.5 34.2"/>
          <path class="st9" d="M482.8,22.5c-.4-.6-.3-1.3.4-1.7.6-.4,1.5-.2,1.9.4s.3,1.3-.4,1.7c-.6.4-1.5.2-1.9-.4Z"/>
          <path class="st9" d="M482.6,22.4c.7-.3.9-1,.6-1.7-.4-.6-1.2-.9-1.9-.6-.7.3-.9,1-.6,1.7.4.6,1.2.9,1.9.6Z"/>
        </g>
        <g class="st8">
          <polygon class="st9" points="492.1 70.3 452.9 33.7 495.7 36.8 493.6 69.8 493 69.8 495.1 37.3 454.4 34.3 492.5 69.9 492.1 70.3"/>
          <path class="st9" d="M493.2,69.2c.5.5.5,1.3,0,1.7-.5.5-1.4.4-1.9,0-.5-.5-.5-1.3,0-1.7.5-.5,1.4-.4,1.9,0Z"/>
          <path class="st9" d="M491.9,69.7c0,.7.5,1.3,1.3,1.3s1.4-.5,1.5-1.1c0-.7-.5-1.3-1.3-1.3s-1.4.5-1.5,1.1Z"/>
        </g>
        <g class="st8">
          <polygon class="st9" points="27.6 22.1 27.1 22 -13 14.1 -12.9 13.6 26.9 21.4 20.6 -25.8 -13.2 12.9 -13.7 12.5 21.1 -27.2 21.1 -26.5 27.6 22.1"/>
          <path class="st9" d="M-12.3,13.4c-.5.5-1.3.6-1.9.2s-.7-1.2-.3-1.7c.5-.5,1.3-.6,1.9-.2.6.4.7,1.2.3,1.7Z"/>
          <path class="st9" d="M-12.6,12.7c-.7-.1-1.5.3-1.6.9-.1.7.3,1.3,1.1,1.5.7.1,1.5-.3,1.6-.9.1-.7-.3-1.3-1.1-1.5Z"/>
        </g>
        <g class="st8">
          <polygon class="st9" points="28.1 20.9 27.6 20.6 52.2 -17.2 21.2 -26.1 27.4 20.6 26.7 20.6 20.5 -26.9 20.9 -26.7 53.1 -17.5 52.9 -17.2 28.1 20.9"/>
          <path class="st9" d="M28.4,20.4c0,.7-.5,1.3-1.2,1.3s-1.4-.4-1.5-1.1c0-.7.5-1.3,1.2-1.3s1.4.4,1.5,1.1Z"/>
          <path class="st9" d="M26.7,20.1c-.4.6-.2,1.3.5,1.7s1.5.2,1.9-.4.2-1.3-.5-1.7-1.5-.2-1.9.4Z"/>
        </g>
        <g class="st8">
          <path class="st9" d="M28.3,21l-.3-.2-.4-.2,25-38.3,7.9,4.3-.2.2L28.3,21ZM52.8-17L29.3,19.1,59.6-13.3l-6.8-3.6h0Z"/>
          <path class="st9" d="M29.1,21.3c-.4.6-1.2.8-1.9.4s-.9-1.1-.5-1.7,1.2-.8,1.9-.4.9,1.1.5,1.7Z"/>
          <path class="st9" d="M27,20c-.5.5-.4,1.3.2,1.7s1.5.4,1.9-.1c.5-.5.4-1.3-.2-1.7s-1.5-.4-1.9.1Z"/>
        </g>
        <g class="st8">
          <path class="st9" d="M28.5,21.5l-.3-.4-.4-.3L60-13.8,74.9-.3,28.5,21.5ZM60.1-13L28.4,20.9,73.9-.5l-13.9-12.5h0Z"/>
          <path class="st9" d="M29.1,21.6c-.5.5-1.4.6-1.9.1s-.7-1.2-.2-1.7,1.4-.6,1.9-.1.7,1.2.2,1.7Z"/>
          <path class="st9" d="M27.8,20.1c-.7.3-.9,1.1-.5,1.7s1.2.8,1.9.5c.7-.3.9-1.1.5-1.7s-1.2-.8-1.9-.5Z"/>
        </g>
        <g class="st8">
          <polygon class="st9" points="58.6 47.4 26.7 21.7 74.9 -.9 60.4 47 59.9 46.8 74 .1 27.7 21.8 59 47 58.6 47.4"/>
          <path class="st9" d="M61.5,47.2c-.2.7-1,1-1.7.8s-1.2-.9-1-1.5c.2-.7,1-1,1.7-.8s1.2.9,1,1.5Z"/>
          <path class="st9" d="M57.9,48.1c.6.5,1.4.4,1.9,0s.4-1.3,0-1.7c-.6-.5-1.4-.4-1.9,0-.5.5-.4,1.3,0,1.7Z"/>
        </g>
        <g class="st8">
          <polygon class="st9" points="646.9 -32.9 637.6 -64 638.2 -64.2 647 -34.9 658.3 -68.5 638.9 -65.2 638.8 -65.7 659.2 -69.2 646.9 -32.9"/>
          <path class="st9" d="M636.6-63.8c-.2-.7.2-1.3,1-1.5.7-.2,1.5.2,1.7.9.2.7-.2,1.3-1,1.5-.7.2-1.5-.2-1.7-.9Z"/>
          <path class="st9" d="M638.6-66.7c-.7,0-1.2.8-1.1,1.4.2.7.9,1.1,1.6,1,.7,0,1.2-.8,1.1-1.4-.2-.7-.9-1.1-1.6-1Z"/>
        </g>
        <g class="st8">
          <polygon class="st9" points="646.5 -33.5 658.1 -67.8 658.7 -67.6 647.4 -34.2 675.4 -38.8 659.1 -67.6 659.7 -67.9 676.3 -38.4 646.5 -33.5"/>
          <path class="st9" d="M657.1-68c.2-.6,1-1,1.7-.8s1.1.9.9,1.6c-.2.6-1,1-1.7.8s-1.1-.9-.9-1.6Z"/>
          <path class="st9" d="M660.6-68.3c-.3-.6-1.2-.9-1.9-.6s-.9,1-.6,1.6c.3.6,1.2.9,1.9.6s.9-1,.6-1.6Z"/>
        </g>
        <g class="st8">
          <polygon class="st9" points="675.8 -38.1 659.1 -67.6 659.7 -67.9 675.9 -39.1 711.9 -76.5 660.1 -68.7 660 -69.3 713.5 -77.2 675.8 -38.1"/>
          <path class="st9" d="M658.2-67.2c-.3-.6,0-1.4.6-1.6.7-.3,1.5,0,1.9.6.3.6,0,1.4-.6,1.6s-1.5,0-1.9-.6Z"/>
          <path class="st9" d="M659.9-70.2c-.7,0-1.2.7-1.1,1.4,0,.7.9,1.1,1.6,1,.7,0,1.2-.7,1.1-1.4,0-.7-.9-1.1-1.6-1Z"/>
        </g>
        <g class="st8">
          <polygon class="st9" points="666.2 96.5 665.8 96.1 684.8 79.8 669.1 68.9 665.5 96 664.9 95.9 668.6 67.9 685.7 79.8 666.2 96.5"/>
          <path class="st9" d="M666.6,96.1c0,.7-.8,1.1-1.5,1.1s-1.3-.7-1.2-1.4c0-.7.8-1.1,1.5-1.1s1.3.7,1.2,1.4Z"/>
          <path class="st9" d="M665.1,95.4c-.5.5-.6,1.2,0,1.7.5.5,1.4.5,1.9,0s.6-1.2,0-1.7c-.5-.5-1.4-.5-1.9,0Z"/>
        </g>
        <g class="st8">
          <path class="st9" d="M607.4,7.3l-.2-.4-.4-.4,29.9-26.3,3.1,14.6-32.3,12.6h0ZM636.3-18.7l-28.8,25.4,31.5-12.3-2.8-13.1h0Z"/>
          <path class="st9" d="M608,7.6c-.5.5-1.4.5-1.9,0-.5-.5-.5-1.3,0-1.7.5-.5,1.4-.5,1.9,0s.5,1.3,0,1.7Z"/>
          <path class="st9" d="M606.8,5.9c-.7.3-1,1-.7,1.6.3.6,1.1.9,1.8.6.7-.3,1-1,.7-1.6s-1.1-.9-1.8-.6Z"/>
        </g>
        <g class="st8">
          <polygon class="st9" points="640.1 17.2 607.3 8.1 607.4 7.6 639.5 16.4 639.1 -5 607.4 7.3 607.1 6.8 639.7 -5.8 640.1 17.2"/>
          <path class="st9" d="M607,9.1c-.7-.2-1.2-.9-.9-1.5.2-.7,1-1,1.7-.8s1.2.9.9,1.5c-.2.7-1,1-1.7.8Z"/>
          <path class="st9" d="M606.8,5.9c-.7.3-1,1-.7,1.6.3.6,1.1.9,1.8.6.7-.3,1-1,.7-1.6s-1.1-.9-1.8-.6Z"/>
        </g>
        <g class="st8">
          <polygon class="st9" points="639.1 -5 636.4 -18.1 637 -18.1 639.6 -5.8 646.7 -8.4 637.1 -18.2 637.5 -18.5 647.7 -8.1 639.1 -5"/>
          <path class="st9" d="M636.3-17.5c-.5-.5-.5-1.3,0-1.7.6-.4,1.4-.4,1.9.1s.5,1.3,0,1.7c-.6.4-1.4.4-1.9-.1Z"/>
          <path class="st9" d="M638.1-18.2c0-.7-.9-1.1-1.6-1-.7.1-1.2.7-1.1,1.4,0,.7.9,1.1,1.6,1,.7-.1,1.2-.7,1.1-1.4Z"/>
        </g>
        <g class="st8">
          <path class="st9" d="M640.4,15.8h-.5c0-.1-.5-.1-.5-.1l-.4-21.2h.2l8.4-3.1-7.2,24.5h0ZM639.7-5.2l.4,20,6.7-22.6-7.1,2.6h0Z"/>
          <path class="st9" d="M641.5,16c-.2.7-.9,1-1.7.8-.7-.2-1.2-.9-1-1.5s.9-1,1.7-.8c.7.2,1.2.9,1,1.5Z"/>
          <path class="st9" d="M638.4,15.6c0,.7.6,1.2,1.4,1.2s1.4-.5,1.4-1.2-.6-1.2-1.4-1.2-1.4.5-1.4,1.2Z"/>
        </g>
        <g class="st8">
          <polygon class="st9" points="184.6 -46.2 184.1 -46.9 165.4 -69.5 165.9 -69.8 184.1 -47.8 186.9 -90.4 166 -71.2 165.6 -71.6 187.6 -91.9 184.6 -46.2"/>
          <path class="st9" d="M164.6-68.9c-.5-.6-.3-1.3.3-1.7.6-.4,1.5-.3,1.9.3.5.6.3,1.3-.3,1.7s-1.5.3-1.9-.3Z"/>
          <path class="st9" d="M164.8-72.4c-.5.5-.5,1.3,0,1.7.6.5,1.4.5,1.9,0s.5-1.3,0-1.7c-.6-.5-1.4-.5-1.9,0Z"/>
        </g>
        <g class="st8">
          <polygon class="st9" points="183.9 -45.9 186.8 -90 187.4 -90 184.7 -48.1 209.3 -85.9 188.4 -90.6 188.6 -91.1 210.2 -86.3 210 -86 183.9 -45.9"/>
          <path class="st9" d="M185.8-90c0-.7.7-1.2,1.5-1.1.8,0,1.3.7,1.3,1.3s-.7,1.2-1.5,1.1c-.8,0-1.3-.7-1.3-1.3Z"/>
          <path class="st9" d="M188.9-92.1c-.7-.2-1.5.2-1.7.9-.2.7.3,1.3,1,1.5s1.5-.2,1.7-.9c.2-.7-.3-1.3-1-1.5Z"/>
        </g>
        <g class="st8">
          <polygon class="st9" points="152.6 45.1 96.8 25.7 97 25.2 150.6 43.8 112.3 4.5 96.7 24.2 96.2 23.9 112.3 3.6 152.6 45.1"/>
          <path class="st9" d="M97.6,24.8c-.4.6-1.3.7-1.9.3s-.8-1.2-.3-1.7c.4-.6,1.3-.7,1.9-.3s.8,1.2.3,1.7Z"/>
          <path class="st9" d="M97.4,24.3c-.7-.2-1.5,0-1.8.7-.3.6,0,1.4.8,1.6.7.2,1.5,0,1.8-.7.3-.6,0-1.4-.8-1.6Z"/>
        </g>
        <g class="st8">
          <polygon class="st9" points="150.5 43.7 111.5 3.6 154 12 152 43.3 151.4 43.3 153.4 12.4 113.1 4.5 151 43.4 150.5 43.7"/>
          <path class="st9" d="M151.7,42.7c.5.5.5,1.3-.1,1.7s-1.4.4-1.9,0-.5-1.3.1-1.7,1.4-.4,1.9,0Z"/>
          <path class="st9" d="M150.3,43.1c0,.7.5,1.3,1.3,1.3s1.4-.5,1.5-1.1c0-.7-.5-1.3-1.3-1.3s-1.4.5-1.5,1.1Z"/>
        </g>
        <g class="st8">
          <polygon class="st9" points="152.9 44.1 152.6 43.6 163.1 38.4 153.9 13.6 152 43.3 151.4 43.3 153.5 10.7 163.8 38.6 152.9 44.1"/>
          <path class="st9" d="M153.1,43.3c0,.7-.7,1.2-1.5,1.1-.8,0-1.3-.7-1.3-1.3s.7-1.2,1.5-1.1,1.3.7,1.3,1.3Z"/>
          <path class="st9" d="M152.1,42.8c-.7.3-.9,1.1-.5,1.7.4.6,1.2.8,1.9.5s.9-1.1.5-1.7-1.2-.8-1.9-.5Z"/>
        </g>
        <g class="st7">
          <polygon class="st9" points="676.1 -38.4 675.6 -38.8 712.8 -77.3 715.8 -72.6 715.3 -72.4 712.7 -76.4 679.5 -41.9 715 -70.9 715.4 -70.5 676.1 -38.4"/>
          <path class="st9" d="M714.2-71.6c.6-.5,1.4-.4,1.9,0,.5.5.5,1.3,0,1.7-.6.5-1.4.4-1.9,0-.5-.5-.5-1.3,0-1.7Z"/>
          <path class="st9" d="M714.3-72c.4.6,1.2.8,1.9.5s.9-1.1.5-1.7-1.2-.8-1.9-.5-.9,1.1-.5,1.7Z"/>
        </g>
        <g class="st7">
          <polygon class="st9" points="675.1 -38.4 715 -70.9 715.4 -70.5 676.6 -38.8 709.8 -36.4 715.7 -70.4 716.3 -70.3 710.3 -35.8 675.1 -38.4"/>
          <path class="st9" d="M714.2-71.6c.6-.5,1.4-.4,1.9,0,.5.5.5,1.3,0,1.7-.6.5-1.4.4-1.9,0-.5-.5-.5-1.3,0-1.7Z"/>
          <path class="st9" d="M717.3-70c0-.7-.4-1.3-1.2-1.4s-1.5.3-1.6,1,.4,1.3,1.2,1.4,1.5-.3,1.6-1Z"/>
        </g>
        <g class="st8">
          <polygon class="st9" points="-13.8 -52.1 -24.1 -96.8 -23.5 -96.9 -13.5 -53.7 1 -79 -23.2 -97 -22.8 -97.4 1.8 -79.1 -13.8 -52.1"/>
          <path class="st9" d="M-25.1-96.5c-.2-.7.3-1.3,1.1-1.4.7,0,1.5.3,1.6,1,.2.7-.3,1.3-1.1,1.4-.7,0-1.5-.3-1.6-1Z"/>
          <path class="st9" d="M-22.1-98.1c-.6-.4-1.5-.4-1.9,0s-.4,1.3.2,1.7c.6.4,1.5.4,1.9,0,.5-.5.4-1.3-.2-1.7Z"/>
        </g>
        <g class="st8">
          <polygon class="st9" points="2.1 -78.2 -23.2 -97 -22.8 -97.4 .7 -79.9 -7.1 -98.2 -22.7 -97.7 -22.8 -98.3 -6.6 -98.7 2.1 -78.2"/>
          <path class="st9" d="M-22.6-96.8c-.8,0-1.4-.5-1.4-1.2s.5-1.3,1.3-1.3,1.4.5,1.4,1.2-.5,1.3-1.3,1.3Z"/>
          <path class="st9" d="M-22.1-98.1c-.6-.4-1.5-.4-1.9,0s-.4,1.3.2,1.7c.6.4,1.5.4,1.9,0,.5-.5.4-1.3-.2-1.7Z"/>
        </g>
        <g class="st8">
          <polygon class="st9" points="-4.9 -37.7 -13.3 -51.7 -12.8 -52 -5.2 -39.5 .8 -77.5 -12.8 -53.8 -13.3 -54 2 -80.7 -4.9 -37.7"/>
          <path class="st9" d="M-14.2-51.2c-.4-.6-.1-1.4.5-1.7.7-.3,1.5,0,1.9.5.4.6.1,1.4-.5,1.7-.7.3-1.5,0-1.9-.5Z"/>
          <path class="st9" d="M-14.3-54.5c-.3.6,0,1.3.6,1.7.7.3,1.5,0,1.9-.5.3-.6,0-1.3-.6-1.7-.7-.3-1.5,0-1.9.5Z"/>
        </g>
        <g class="st8">
          <polygon class="st9" points="1.3 -78.5 -7.2 -98.6 25.1 -111.2 25.4 -110.7 -6.5 -98.3 1.5 -79.7 25.4 -110.6 25.9 -110.3 1.3 -78.5"/>
          <path class="st9" d="M24.5-111.1c.4-.6,1.3-.7,1.9-.3.6.4.8,1.2.4,1.7s-1.3.7-1.9.3c-.6-.4-.8-1.2-.4-1.7Z"/>
          <path class="st9" d="M25.7-109.8c.7-.3,1-1,.7-1.6s-1.1-.9-1.8-.6c-.7.3-1,1-.7,1.6s1.1.9,1.8.6Z"/>
        </g>
        <g class="st8">
          <polygon class="st9" points="21.4 -25.9 -4 -37.8 -3.8 -38.3 20.3 -27 1.5 -77.9 -4.6 -39.7 -5.2 -39.8 1.3 -80.3 21.4 -25.9"/>
          <path class="st9" d="M-4.4-36.9c-.7-.3-1-1.1-.6-1.7.3-.6,1.2-.8,1.8-.5.7.3,1,1.1.6,1.7-.3.6-1.2.8-1.8.5Z"/>
          <path class="st9" d="M-6.2-40c0,.7.4,1.3,1.2,1.4.8,0,1.5-.3,1.6-1s-.4-1.3-1.2-1.4c-.8,0-1.5.3-1.6,1Z"/>
        </g>
        <g class="st8">
          <polygon class="st9" points=".4 -78.3 26.4 -111.8 26.6 -111.6 41.9 -99.2 41.5 -98.8 26.5 -111 2.4 -79.8 41.4 -98 41.7 -97.5 .4 -78.3"/>
          <path class="st9" d="M40.9-98.8c.7-.3,1.5,0,1.9.5s0,1.4-.6,1.7c-.7.3-1.5,0-1.9-.5-.4-.6,0-1.4.6-1.7Z"/>
          <path class="st9" d="M40.8-98.2c.6.5,1.4.4,1.9,0s.4-1.3,0-1.7c-.6-.5-1.4-.4-1.9,0s-.4,1.3,0,1.7Z"/>
        </g>
        <g class="st8">
          <polygon class="st9" points="20.9 -25.5 1 -79.2 1.3 -79.3 41.4 -98 41.7 -97.5 1.8 -78.9 20.8 -27.4 42.1 -97.2 42.7 -97 20.9 -25.5"/>
          <path class="st9" d="M40.9-98.8c.7-.3,1.5,0,1.9.5s0,1.4-.6,1.7c-.7.3-1.5,0-1.9-.5-.4-.6,0-1.4.6-1.7Z"/>
          <path class="st9" d="M43.7-96.7c.2-.7-.2-1.3-1-1.5s-1.5.2-1.7.8c-.2.7.2,1.3,1,1.5.7.2,1.5-.2,1.7-.8Z"/>
        </g>
        <g class="st8">
          <polygon class="st9" points="670.1 68.8 670.2 68.2 672.4 68.4 680.3 43.7 669.6 67.4 669 67.2 682 38.6 682.5 38.7 672.9 69 670.1 68.8"/>
          <path class="st9" d="M670.6,67.7c-.3.6-1.1.9-1.8.7s-1.1-1-.8-1.6,1.1-.9,1.8-.7c.7.3,1.1,1,.8,1.6Z"/>
          <path class="st9" d="M670.3,67.3c-.8,0-1.4.5-1.5,1.1,0,.7.5,1.3,1.3,1.3s1.4-.5,1.5-1.1c0-.7-.5-1.3-1.3-1.3Z"/>
        </g>
        <g class="st8">
          <path class="st9" d="M684,79.3l-16.2-11.3,4.9.4h0l11.7,10.4-.3.2-.2.3h0ZM669.8,68.7l11.6,8.1-8.9-7.9-2.7-.2h0Z"/>
          <path class="st9" d="M685.2,78.1c.5.5.6,1.3,0,1.7-.5.5-1.4.5-1.9,0s-.6-1.3,0-1.7,1.4-.5,1.9,0Z"/>
          <path class="st9" d="M683.3,80c.6.4,1.5.3,1.9-.2.5-.5.3-1.3-.3-1.7-.6-.4-1.5-.3-1.9.2-.5.5-.3,1.3.3,1.7Z"/>
        </g>
        <g class="st8">
          <polygon class="st9" points="672.2 69 682.3 37.4 688 66.9 687.4 67 682.2 39.9 673 68.4 686.6 67.9 686.6 68.4 672.2 69"/>
          <path class="st9" d="M686.5,66.9c.8,0,1.4.5,1.5,1.2,0,.7-.5,1.3-1.3,1.3s-1.4-.5-1.5-1.2c0-.7.5-1.3,1.3-1.3Z"/>
          <path class="st9" d="M686.3,67c0,.7.8,1.1,1.6,1,.7,0,1.3-.7,1.1-1.4,0-.7-.8-1.1-1.6-1-.7,0-1.3.7-1.1,1.4Z"/>
        </g>
        <g class="st8">
          <polygon class="st9" points="685.4 80.4 671.9 68.4 686.6 67.9 686.6 68.4 673.3 68.9 685.1 79.3 687.4 69.2 688 69.3 685.4 80.4"/>
          <path class="st9" d="M686.5,66.9c.8,0,1.4.5,1.5,1.2,0,.7-.5,1.3-1.3,1.3s-1.4-.5-1.5-1.2c0-.7.5-1.3,1.3-1.3Z"/>
          <path class="st9" d="M689,69.6c.2-.7-.3-1.3-1.1-1.5-.7-.2-1.5.3-1.6.9-.2.7.3,1.3,1.1,1.5.7.2,1.5-.3,1.6-.9Z"/>
        </g>
      </g>
    </g>
  </g>
</svg>