<?xml version="1.0" encoding="UTF-8"?>
<svg id="Layer_1" xmlns="http://www.w3.org/2000/svg" version="1.1" viewBox="0 0 1094 73">
  <!-- Generator: Adobe Illustrator 29.1.0, SVG Export Plug-In . SVG Version: 2.1.0 Build 142)  -->
  <defs>
    <style>
      .st0 {
        isolation: isolate;
        opacity: .9;
      }

      .st1 {
        opacity: .7;
      }

      .st2 {
        opacity: .5;
      }

      .st2, .st3 {
        fill: #2959d6;
      }
    </style>
  </defs>
  <g id="_x34_1_Know_How" class="st0">
    <g>
      <g>
        <path class="st2" d="M64.3,55.6h-7.4s0-10.1,0-10.1h3.6c1.2,0,2.2-.4,3.1-1.3,1.1-1.3,1.5-3,.8-5-2.7-3.6-7.5-1.9-7.9,1.5v.6s-7.4,0-7.4,0c.1-6.6,5.4-11.7,11.8-11.5,6,0,10.9,5,11.2,10.9.1,3.2-1,6.3-3.2,8.6-1.3,1.3-2.9,2.3-4.7,2.9v3.4h.1Z"/>
        <rect class="st2" x="57" y="61.1" width="7.4" height="7.4"/>
      </g>
      <g>
        <path class="st3" d="M45.2,37.3h-8.3s0-11.3,0-11.3h4.1c1.3,0,2.4-.5,3.4-1.5,1.2-1.5,1.7-3.3.9-5.5s0,0,0-.1c-3-4-8.3-2-8.8,1.7v.7s-8.3,0-8.3,0c.1-7.4,6.1-13.1,13.2-12.9,6.7,0,12.2,5.5,12.6,12.2.2,3.6-1.1,7-3.6,9.6-1.5,1.5-3.3,2.6-5.2,3.3v3.8h.2Z"/>
        <rect class="st3" x="37.1" y="43.5" width="8.3" height="8.3"/>
      </g>
      <g class="st1">
        <path class="st3" d="M72.2,22.6h-5.2s0-7,0-7h2.5c.8,0,1.5-.3,2.1-.9.8-.9,1.1-2.1.6-3.5-1.9-2.5-5.2-1.3-5.5,1v.4s-5.2,0-5.2,0c0-4.6,3.8-8.2,8.2-8,4.2,0,7.6,3.5,7.8,7.6.1,2.2-.7,4.4-2.2,6-.9.9-2,1.6-3.3,2v2.3h.1Z"/>
        <rect class="st3" x="67.2" y="26.4" width="5.2" height="5.2"/>
      </g>
    </g>
  </g>
  <g id="_x34_1_Know_How1" data-name="_x34_1_Know_How" class="st0">
    <g>
      <g>
        <path class="st2" d="M119.6,42h-5.4s0-7.4,0-7.4h2.7c.9,0,1.6-.3,2.2-1,.8-1,1.1-2.2.6-3.6-2-2.7-5.5-1.4-5.8,1.1v.4s-5.4,0-5.4,0c0-4.9,4-8.6,8.6-8.4,4.4,0,8,3.6,8.2,8,.1,2.3-.7,4.6-2.3,6.3-1,1-2.1,1.7-3.4,2.1v2.5h.1Z"/>
        <rect class="st2" x="114.3" y="46" width="5.4" height="5.4"/>
      </g>
      <g>
        <path class="st3" d="M105.7,28.5h-6.1s0-8.3,0-8.3h3c1,0,1.8-.4,2.5-1.1.9-1.1,1.3-2.4.7-4s0,0,0-.1c-2.2-2.9-6.1-1.5-6.5,1.3v.5s-6.1,0-6.1,0c.1-5.5,4.5-9.6,9.7-9.4,4.9,0,9,4.1,9.2,9,.1,2.6-.8,5.1-2.6,7.1-1.1,1.1-2.4,1.9-3.8,2.4v2.8h.1Z"/>
        <rect class="st3" x="99.7" y="33.1" width="6.1" height="6.1"/>
      </g>
      <g class="st1">
        <path class="st3" d="M125.5,17.8h-3.8s0-5.2,0-5.2h1.9c.6,0,1.1-.2,1.6-.7.6-.7.8-1.5.4-2.5-1.4-1.9-3.8-1-4.1.8v.3s-3.8,0-3.8,0c0-3.4,2.8-6,6-5.9,3.1,0,5.6,2.5,5.7,5.6,0,1.6-.5,3.2-1.6,4.4-.7.7-1.5,1.2-2.4,1.5v1.7h0Z"/>
        <rect class="st3" x="121.7" y="20.6" width="3.8" height="3.8"/>
      </g>
    </g>
  </g>
  <g id="_x34_1_Know_How2" data-name="_x34_1_Know_How" class="st0">
    <g>
      <g>
        <path class="st2" d="M186.4,55.6h-7.4s0-10.1,0-10.1h3.6c1.2,0,2.2-.4,3.1-1.3,1.1-1.3,1.5-3,.8-5-2.7-3.6-7.5-1.9-7.9,1.5v.6s-7.4,0-7.4,0c.1-6.6,5.4-11.7,11.8-11.5,6,0,10.9,5,11.2,10.9.1,3.2-1,6.3-3.2,8.6-1.3,1.3-2.9,2.3-4.7,2.9v3.4h.1Z"/>
        <rect class="st2" x="179.1" y="61.1" width="7.4" height="7.4"/>
      </g>
      <g>
        <path class="st3" d="M167.4,37.3h-8.3s0-11.3,0-11.3h4.1c1.3,0,2.4-.5,3.4-1.5,1.2-1.5,1.7-3.3.9-5.5s0,0,0-.1c-3-4-8.3-2-8.8,1.7v.7s-8.3,0-8.3,0c.1-7.4,6.1-13.1,13.2-12.9,6.7,0,12.2,5.5,12.6,12.2.2,3.6-1.1,7-3.6,9.6-1.5,1.5-3.3,2.6-5.2,3.3v3.8h.2Z"/>
        <rect class="st3" x="159.2" y="43.5" width="8.3" height="8.3"/>
      </g>
      <g class="st1">
        <path class="st3" d="M194.4,22.6h-5.2s0-7,0-7h2.5c.8,0,1.5-.3,2.1-.9.8-.9,1.1-2.1.6-3.5-1.9-2.5-5.2-1.3-5.5,1v.4s-5.2,0-5.2,0c0-4.6,3.8-8.2,8.2-8,4.2,0,7.6,3.5,7.8,7.6.1,2.2-.7,4.4-2.2,6-.9.9-2,1.6-3.3,2v2.3h.1Z"/>
        <rect class="st3" x="189.3" y="26.4" width="5.2" height="5.2"/>
      </g>
    </g>
  </g>
  <g id="_x34_1_Know_How3" data-name="_x34_1_Know_How" class="st0">
    <g>
      <g>
        <path class="st2" d="M241.8,42h-5.4s0-7.4,0-7.4h2.7c.9,0,1.6-.3,2.2-1,.8-1,1.1-2.2.6-3.6-2-2.7-5.5-1.4-5.8,1.1v.4s-5.4,0-5.4,0c0-4.9,4-8.6,8.6-8.4,4.4,0,8,3.6,8.2,8,.1,2.3-.7,4.6-2.3,6.3-1,1-2.1,1.7-3.4,2.1v2.5h.1Z"/>
        <rect class="st2" x="236.4" y="46" width="5.4" height="5.4"/>
      </g>
      <g>
        <path class="st3" d="M227.8,28.5h-6.1s0-8.3,0-8.3h3c1,0,1.8-.4,2.5-1.1.9-1.1,1.3-2.4.7-4s0,0,0-.1c-2.2-2.9-6.1-1.5-6.5,1.3v.5s-6.1,0-6.1,0c.1-5.5,4.5-9.6,9.7-9.4,4.9,0,9,4.1,9.2,9,.1,2.6-.8,5.1-2.6,7.1-1.1,1.1-2.4,1.9-3.8,2.4v2.8h.1Z"/>
        <rect class="st3" x="221.8" y="33.1" width="6.1" height="6.1"/>
      </g>
      <g class="st1">
        <path class="st3" d="M247.6,17.8h-3.8s0-5.2,0-5.2h1.9c.6,0,1.1-.2,1.6-.7.6-.7.8-1.5.4-2.5-1.4-1.9-3.8-1-4.1.8v.3s-3.8,0-3.8,0c0-3.4,2.8-6,6-5.9,3.1,0,5.6,2.5,5.7,5.6,0,1.6-.5,3.2-1.6,4.4-.7.7-1.5,1.2-2.4,1.5v1.7h0Z"/>
        <rect class="st3" x="243.9" y="20.6" width="3.8" height="3.8"/>
      </g>
    </g>
  </g>
  <g id="_x34_1_Know_How4" data-name="_x34_1_Know_How" class="st0">
    <g>
      <g>
        <path class="st2" d="M858.7,55.6h-7.4s0-10.1,0-10.1h3.6c1.2,0,2.2-.4,3.1-1.3,1.1-1.3,1.5-3,.8-5-2.7-3.6-7.5-1.9-7.9,1.5v.6s-7.4,0-7.4,0c.1-6.6,5.4-11.7,11.8-11.5,6,0,10.9,5,11.2,10.9.1,3.2-1,6.3-3.2,8.6-1.3,1.3-2.9,2.3-4.7,2.9v3.4h.1Z"/>
        <rect class="st2" x="851.4" y="61.1" width="7.4" height="7.4"/>
      </g>
      <g>
        <path class="st3" d="M839.7,37.3h-8.3s0-11.3,0-11.3h4.1c1.3,0,2.4-.5,3.4-1.5,1.2-1.5,1.7-3.3.9-5.5s0,0,0-.1c-3-4-8.3-2-8.8,1.7v.7s-8.3,0-8.3,0c.1-7.4,6.1-13.1,13.2-12.9,6.7,0,12.2,5.5,12.6,12.2.2,3.6-1.1,7-3.6,9.6-1.5,1.5-3.3,2.6-5.2,3.3v3.8h.2Z"/>
        <rect class="st3" x="831.5" y="43.5" width="8.3" height="8.3"/>
      </g>
      <g class="st1">
        <path class="st3" d="M866.7,22.6h-5.2s0-7,0-7h2.5c.8,0,1.5-.3,2.1-.9.8-.9,1.1-2.1.6-3.5-1.9-2.5-5.2-1.3-5.5,1v.4s-5.2,0-5.2,0c0-4.6,3.8-8.2,8.2-8,4.2,0,7.6,3.5,7.8,7.6.1,2.2-.7,4.4-2.2,6-.9.9-2,1.6-3.3,2v2.3h.1Z"/>
        <rect class="st3" x="861.6" y="26.4" width="5.2" height="5.2"/>
      </g>
    </g>
  </g>
  <g id="_x34_1_Know_How5" data-name="_x34_1_Know_How" class="st0">
    <g>
      <g>
        <path class="st2" d="M914.1,42h-5.4s0-7.4,0-7.4h2.7c.9,0,1.6-.3,2.2-1,.8-1,1.1-2.2.6-3.6-2-2.7-5.5-1.4-5.8,1.1v.4s-5.4,0-5.4,0c0-4.9,4-8.6,8.6-8.4,4.4,0,8,3.6,8.2,8,.1,2.3-.7,4.6-2.3,6.3-1,1-2.1,1.7-3.4,2.1v2.5h.1Z"/>
        <rect class="st2" x="908.7" y="46" width="5.4" height="5.4"/>
      </g>
      <g>
        <path class="st3" d="M900.1,28.5h-6.1s0-8.3,0-8.3h3c1,0,1.8-.4,2.5-1.1.9-1.1,1.3-2.4.7-4s0,0,0-.1c-2.2-2.9-6.1-1.5-6.5,1.3v.5s-6.1,0-6.1,0c.1-5.5,4.5-9.6,9.7-9.4,4.9,0,9,4.1,9.2,9,.1,2.6-.8,5.1-2.6,7.1-1.1,1.1-2.4,1.9-3.8,2.4v2.8h.1Z"/>
        <rect class="st3" x="894.1" y="33.1" width="6.1" height="6.1"/>
      </g>
      <g class="st1">
        <path class="st3" d="M919.9,17.8h-3.8s0-5.2,0-5.2h1.9c.6,0,1.1-.2,1.6-.7.6-.7.8-1.5.4-2.5-1.4-1.9-3.8-1-4.1.8v.3s-3.8,0-3.8,0c0-3.4,2.8-6,6-5.9,3.1,0,5.6,2.5,5.7,5.6,0,1.6-.5,3.2-1.6,4.4-.7.7-1.5,1.2-2.4,1.5v1.7h0Z"/>
        <rect class="st3" x="916.2" y="20.6" width="3.8" height="3.8"/>
      </g>
    </g>
  </g>
  <g id="_x34_1_Know_How6" data-name="_x34_1_Know_How" class="st0">
    <g>
      <g>
        <path class="st2" d="M980.9,55.6h-7.4s0-10.1,0-10.1h3.6c1.2,0,2.2-.4,3.1-1.3,1.1-1.3,1.5-3,.8-5-2.7-3.6-7.5-1.9-7.9,1.5v.6s-7.4,0-7.4,0c.1-6.6,5.4-11.7,11.8-11.5,6,0,10.9,5,11.2,10.9.1,3.2-1,6.3-3.2,8.6-1.3,1.3-2.9,2.3-4.7,2.9v3.4h.1Z"/>
        <rect class="st2" x="973.6" y="61.1" width="7.4" height="7.4"/>
      </g>
      <g>
        <path class="st3" d="M961.8,37.3h-8.3s0-11.3,0-11.3h4.1c1.3,0,2.4-.5,3.4-1.5,1.2-1.5,1.7-3.3.9-5.5s0,0,0-.1c-3-4-8.3-2-8.8,1.7v.7s-8.3,0-8.3,0c.1-7.4,6.1-13.1,13.2-12.9,6.7,0,12.2,5.5,12.6,12.2.2,3.6-1.1,7-3.6,9.6-1.5,1.5-3.3,2.6-5.2,3.3v3.8h.2Z"/>
        <rect class="st3" x="953.7" y="43.5" width="8.3" height="8.3"/>
      </g>
      <g class="st1">
        <path class="st3" d="M988.8,22.6h-5.2s0-7,0-7h2.5c.8,0,1.5-.3,2.1-.9.8-.9,1.1-2.1.6-3.5-1.9-2.5-5.2-1.3-5.5,1v.4s-5.2,0-5.2,0c0-4.6,3.8-8.2,8.2-8,4.2,0,7.6,3.5,7.8,7.6.1,2.2-.7,4.4-2.2,6-.9.9-2,1.6-3.3,2v2.3h.1Z"/>
        <rect class="st3" x="983.7" y="26.4" width="5.2" height="5.2"/>
      </g>
    </g>
  </g>
  <g id="_x34_1_Know_How7" data-name="_x34_1_Know_How" class="st0">
    <g>
      <g>
        <path class="st2" d="M1036.2,42h-5.4s0-7.4,0-7.4h2.7c.9,0,1.6-.3,2.2-1,.8-1,1.1-2.2.6-3.6-2-2.7-5.5-1.4-5.8,1.1v.4s-5.4,0-5.4,0c0-4.9,4-8.6,8.6-8.4,4.4,0,8,3.6,8.2,8,.1,2.3-.7,4.6-2.3,6.3-1,1-2.1,1.7-3.4,2.1v2.5h.1Z"/>
        <rect class="st2" x="1030.9" y="46" width="5.4" height="5.4"/>
      </g>
      <g>
        <path class="st3" d="M1022.3,28.5h-6.1s0-8.3,0-8.3h3c1,0,1.8-.4,2.5-1.1.9-1.1,1.3-2.4.7-4s0,0,0-.1c-2.2-2.9-6.1-1.5-6.5,1.3v.5s-6.1,0-6.1,0c.1-5.5,4.5-9.6,9.7-9.4,4.9,0,9,4.1,9.2,9,.1,2.6-.8,5.1-2.6,7.1-1.1,1.1-2.4,1.9-3.8,2.4v2.8h.1Z"/>
        <rect class="st3" x="1016.3" y="33.1" width="6.1" height="6.1"/>
      </g>
      <g class="st1">
        <path class="st3" d="M1042.1,17.8h-3.8s0-5.2,0-5.2h1.9c.6,0,1.1-.2,1.6-.7.6-.7.8-1.5.4-2.5-1.4-1.9-3.8-1-4.1.8v.3s-3.8,0-3.8,0c0-3.4,2.8-6,6-5.9,3.1,0,5.6,2.5,5.7,5.6,0,1.6-.5,3.2-1.6,4.4-.7.7-1.5,1.2-2.4,1.5v1.7h0Z"/>
        <rect class="st3" x="1038.3" y="20.6" width="3.8" height="3.8"/>
      </g>
    </g>
  </g>
</svg>