<?xml version="1.0" encoding="UTF-8"?>
<svg xmlns="http://www.w3.org/2000/svg" xmlns:xlink="http://www.w3.org/1999/xlink" version="1.1" viewBox="0 0 672 68">
  <!-- Generator: Adobe Illustrator 29.1.0, SVG Export Plug-In . SVG Version: 2.1.0 Build 142)  -->
  <defs>
    <style>
      .st0 {
        fill: #768ec8;
      }

      .st1 {
        mix-blend-mode: color-dodge;
      }

      .st1, .st2 {
        opacity: .8;
      }

      .st3 {
        isolation: isolate;
      }

      .st4 {
        opacity: .6;
      }
    </style>
  </defs>
  <g class="st3">
    <g id="Layer_1">
      <g id="Layer_11" data-name="Layer_1">
        <g class="st4">
          <g class="st2">
            <path class="st0" d="M164.4,118.1v-.5s-.2-.5-.2-.5l22.1-7.1-13.6,8h-8.2c0,0,0,0,0,0ZM181.8,112.1l-16.9,5.4h7.7c0,0,9.3-5.3,9.3-5.3h-.1Z"/>
            <path class="st0" d="M164.8,118.6c-.7.2-1.5-.1-1.8-.8s.1-1.3.8-1.6,1.5.1,1.8.8-.1,1.3-.8,1.6Z"/>
            <path class="st0" d="M164.5,116.6c-.8,0-1.4.6-1.4,1.2,0,.7.6,1.3,1.4,1.2s1.4-.6,1.4-1.2c0-.7-.6-1.3-1.4-1.2Z"/>
          </g>
          <g class="st2">
            <polygon class="st0" points="121.2 113.1 102.4 70.9 102.9 70.8 121.3 111.7 134.2 85.3 103.2 70.5 103.5 70 135 85.2 121.2 113.1"/>
            <path class="st0" d="M101.4,71.4c-.2-.7,0-1.3.8-1.6.7-.2,1.5.1,1.7.7.2.7,0,1.3-.8,1.6-.7.2-1.5-.1-1.7-.7Z"/>
            <path class="st0" d="M104,69.2c-.7-.4-1.5-.1-1.9.5-.4.6-.1,1.3.6,1.7s1.5.1,1.9-.5c.4-.6.1-1.3-.6-1.7Z"/>
          </g>
          <g class="st2">
            <polygon class="st0" points="163.8 118.1 122.5 112.9 122.5 112.2 162.4 117.4 134.6 85.8 122.1 111.5 121.5 111.2 134.4 84.7 134.8 85.1 163.8 118.1"/>
            <path class="st0" d="M122.4,113.8c-.7,0-1.3-.7-1.2-1.4,0-.7.8-1.2,1.5-1s1.3.7,1.2,1.4c0,.7-.8,1.2-1.5,1Z"/>
            <path class="st0" d="M120.5,110.8c-.3.6,0,1.3.7,1.7.7.3,1.5,0,1.9-.6.3-.6,0-1.3-.7-1.7-.7-.3-1.5,0-1.9.6Z"/>
          </g>
          <g class="st2">
            <polygon class="st0" points="163.2 118.4 162.9 117.9 135.2 86.4 135.6 86 162.9 117.1 172.2 77.4 135.9 85.2 135.7 84.7 173 76.6 163.2 118.4"/>
            <path class="st0" d="M134.3,87c-.4-.6-.4-1.3.2-1.7.6-.4,1.5-.3,1.9.2.4.6.4,1.3-.2,1.7-.6.4-1.5.3-1.9-.2Z"/>
            <path class="st0" d="M135.6,83.7c-.7.1-1.2.8-1,1.5.1.7,1,1,1.7.9s1.2-.8,1-1.5-1-1-1.7-.9Z"/>
          </g>
          <g class="st2">
            <polygon class="st0" points="164.5 117.6 164.3 117.1 183.7 110.9 172.7 78 163.7 116.6 163.1 116.6 172.5 75.9 184.4 111.2 184.1 111.4 164.5 117.6"/>
            <path class="st0" d="M164.8,118.6c-.7.2-1.5-.1-1.8-.8s.1-1.3.8-1.6,1.5.1,1.8.8-.1,1.3-.8,1.6Z"/>
            <path class="st0" d="M162.1,116.3c-.2.7.3,1.3,1.1,1.4.7.2,1.5-.3,1.6-.9.2-.7-.3-1.3-1.1-1.4-.7-.2-1.5.3-1.6.9Z"/>
          </g>
          <g class="st2">
            <polygon class="st0" points="282.7 79.6 257.5 53.4 264.6 53.4 264.5 54 258.9 54 280.9 76.8 266.3 54.9 266.8 54.6 283.3 79.2 282.7 79.6"/>
            <path class="st0" d="M265.4,55.5c-.4-.6,0-1.4.5-1.7.7-.3,1.5,0,1.9.5s0,1.4-.5,1.7c-.7.3-1.5,0-1.9-.5Z"/>
            <path class="st0" d="M264.5,54.9c.8,0,1.4-.6,1.4-1.2,0-.7-.6-1.3-1.4-1.2s-1.4.6-1.4,1.2c0,.7.6,1.3,1.4,1.2Z"/>
          </g>
          <g class="st2">
            <polygon class="st0" points="346 145 345.7 144.6 298.9 99.2 299.3 98.9 345.6 143.8 356.9 85.3 299.6 98.2 299.5 97.6 357.6 84.6 357.6 85 346 145"/>
            <path class="st0" d="M298.2,99.9c-.5-.5-.5-1.3,0-1.7.6-.4,1.5-.4,1.9,0,.5.5.5,1.3,0,1.7s-1.5.4-1.9,0Z"/>
            <path class="st0" d="M299.2,96.7c-.7.1-1.1.9-1,1.5.1.7,1,1,1.7.9.7-.1,1.1-.9,1-1.5-.1-.7-1-1-1.7-.9Z"/>
          </g>
          <g class="st2">
            <path class="st0" d="M346.7,143.6l-.4-.3h-.5c0,0,11.2-58.9,11.2-58.9l15.8,16-26.1,43.2h0ZM357.4,85.5l-10.9,57.2,25.6-42.5-14.7-14.9h0Z"/>
            <path class="st0" d="M347.7,143.9c-.4.6-1.2.8-1.9.5-.6-.4-.9-1-.5-1.7.4-.6,1.2-.8,1.9-.5.6.4.9,1,.5,1.7Z"/>
            <path class="st0" d="M344.8,143c-.2.7.4,1.3,1.1,1.4s1.5-.3,1.6-1-.4-1.3-1.1-1.4-1.5.3-1.6,1Z"/>
          </g>
          <g class="st2">
            <polygon class="st0" points="553.4 55.8 553 55.4 557.3 49.6 557.3 51 557 51 555.2 53.5 556 52.8 556.4 53.2 553.4 55.8"/>
            <path class="st0" d="M558.4,50.9c0,.7-.6,1.2-1.4,1.2-.8,0-1.3-.6-1.4-1.2s.6-1.2,1.4-1.2c.8,0,1.3.6,1.4,1.2Z"/>
            <path class="st0" d="M557,53.9c.6-.4.5-1.2,0-1.7s-1.4-.5-1.9,0c-.6.4-.5,1.2,0,1.7s1.4.5,1.9,0Z"/>
          </g>
          <g class="st2">
            <polygon class="st0" points="134 85.6 156.6 42 157.1 42.3 135.1 84.9 172.2 76.8 157.6 42.4 158.1 42.1 173 77.1 172.7 77.2 134 85.6"/>
            <path class="st0" d="M155.5,41.7c.4-.6,1.1-.9,1.9-.6s1,1,.7,1.7c-.4.6-1.1.9-1.9.6s-1-1-.7-1.7Z"/>
            <path class="st0" d="M159.2,41.9c-.2-.7-1.1-.9-1.7-.7-.7.2-1,1-.8,1.6.2.7,1.1.9,1.7.7s1-1,.8-1.6Z"/>
          </g>
          <g class="st2">
            <polygon class="st0" points="102 70.3 94.5 45.4 95.1 45.2 102.3 69.2 118.8 51.3 95.7 44.8 95.9 44.3 119.8 51 102 70.3"/>
            <path class="st0" d="M93.6,45.6c-.2-.7.2-1.3,1-1.5.7-.1,1.5.2,1.7.9.2.7-.2,1.3-1,1.5-.7.1-1.5-.2-1.7-.9Z"/>
            <path class="st0" d="M96.3,43.3c-.7-.3-1.5,0-1.7.8-.3.6,0,1.4.9,1.5.7.3,1.5,0,1.7-.8.3-.6,0-1.4-.9-1.5Z"/>
          </g>
          <g class="st2">
            <polygon class="st0" points="135.1 85.9 103.2 70.5 103.5 70 133.9 84.6 119.2 51.6 103.2 69 102.8 68.7 119.3 50.6 135.1 85.9"/>
            <path class="st0" d="M102.8,71.4c-.7-.4-1-1-.6-1.7.4-.6,1.2-.8,1.9-.5.7.4,1,1,.6,1.7-.4.6-1.2.8-1.9.5Z"/>
            <path class="st0" d="M102,68c-.5.5-.4,1.3.1,1.7.6.5,1.4.4,1.9-.1s.4-1.3-.1-1.7-1.4-.4-1.9.1Z"/>
          </g>
          <g class="st2">
            <polygon class="st0" points="479.4 102.3 455.8 58.2 475.8 51.8 475.9 52.3 456.6 58.5 478.7 99.7 476.9 52.8 477.5 52.8 479.4 102.3"/>
            <path class="st0" d="M475.8,52.9c0-.7.6-1.2,1.3-1.3s1.4.5,1.4,1.2c0,.7-.6,1.2-1.3,1.3s-1.4-.5-1.4-1.2Z"/>
            <path class="st0" d="M476.3,53.3c.7-.2,1-1,.8-1.6-.2-.7-1.1-.9-1.8-.8-.7.2-1,1-.8,1.6.2.7,1.1.9,1.8.8Z"/>
          </g>
          <g class="st2">
            <polygon class="st0" points="478.8 101.4 478.8 101 476.9 52.8 477.5 52.8 479.4 100.7 509 92.5 477.6 52.8 478.2 52.5 510 92.8 509.6 93 478.8 101.4"/>
            <path class="st0" d="M476.8,53.3c-.4-.6-.3-1.3.3-1.7.6-.3,1.5-.3,1.9.3.4.6.3,1.3-.3,1.7-.6.3-1.5.3-1.9-.3Z"/>
            <path class="st0" d="M478.6,52.8c0-.7-.7-1.3-1.4-1.2s-1.4.6-1.3,1.3.7,1.3,1.4,1.2,1.4-.6,1.3-1.3Z"/>
          </g>
          <g class="st2">
            <polygon class="st0" points="491 104.4 478 101.1 511 92 493.6 104 493.2 103.6 507.9 93.4 480.1 101 491.2 103.9 491 104.4"/>
            <path class="st0" d="M494.4,104.7c-.6.4-1.5.3-1.9-.3s-.4-1.3.3-1.7c.6-.4,1.5-.3,1.9.3s.4,1.3-.3,1.7Z"/>
            <path class="st0" d="M490.7,105.3c.7.2,1.5,0,1.7-.8.3-.6-.2-1.4-.9-1.5-.7-.2-1.5,0-1.7.8s.2,1.4.9,1.5Z"/>
          </g>
          <g class="st2">
            <polygon class="st0" points="224.6 124.8 183.7 111.3 183.7 111.1 189.5 55.7 225.6 123.7 225 124 190 57.7 184.4 110.9 224.8 124.3 224.6 124.8"/>
            <path class="st0" d="M226.6,123.3c.3.6,0,1.4-.7,1.6-.7.2-1.5,0-1.8-.6-.3-.6,0-1.4.7-1.6.7-.2,1.5,0,1.8.6Z"/>
            <path class="st0" d="M224.1,125.6c.7.3,1.5,0,1.8-.7s0-1.4-.8-1.6c-.7-.3-1.5,0-1.8.7s0,1.4.8,1.6Z"/>
          </g>
          <g class="st2">
            <polygon class="st0" points="225 124 189.3 56.4 258.7 53.4 226.7 124 226.1 123.8 257.8 54 190.2 56.9 225.6 123.7 225 124"/>
            <path class="st0" d="M227.8,124.3c-.3.6-1,1-1.8.6-.7-.3-1.1-.9-.8-1.6.3-.6,1-1,1.8-.6.7.3,1.1.9.8,1.6Z"/>
            <path class="st0" d="M224.1,124.3c.3.6,1.2.9,1.8.6.7-.2.9-1.1.7-1.6-.3-.6-1.2-.9-1.8-.6-.7.2-.9,1.1-.7,1.6Z"/>
          </g>
          <g class="st2">
            <polygon class="st0" points="188.9 57.1 220.1 19 244.3 42.3 243.8 42.8 220.1 19.9 190.5 56.2 243.5 43.5 243.7 44 188.9 57.1"/>
            <path class="st0" d="M243.2,42.5c.7-.1,1.5.2,1.7.9s-.2,1.3-1,1.5c-.7.1-1.5-.2-1.7-.9-.2-.7.2-1.3,1-1.5Z"/>
            <path class="st0" d="M242.9,43.3c.5.5,1.4.5,1.9,0s.6-1.2,0-1.7-1.4-.5-1.9,0c-.6.4-.6,1.2,0,1.7Z"/>
          </g>
          <g class="st2">
            <polygon class="st0" points="186.9 57.1 243.5 43.5 243.7 44 192.6 56.3 257.4 53.5 245.7 44.3 246.1 43.9 259 54 186.9 57.1"/>
            <path class="st0" d="M243.2,42.5c.7-.1,1.5.2,1.7.9s-.2,1.3-1,1.5c-.7.1-1.5-.2-1.7-.9-.2-.7.2-1.3,1-1.5Z"/>
            <path class="st0" d="M246.8,43.3c-.5-.5-1.4-.4-1.9.1s-.4,1.3.1,1.7c.5.5,1.4.4,1.9-.1s.4-1.3-.1-1.7Z"/>
          </g>
          <g class="st2">
            <polygon class="st0" points="297.5 98.6 323.9 61.8 324.5 62.1 298.9 97.7 356.5 84.8 325.6 61.9 326 61.5 357.9 85.1 297.5 98.6"/>
            <path class="st0" d="M322.9,61.3c.4-.5,1.3-.8,1.9-.3.6.4.9,1.1.4,1.7-.4.5-1.3.8-1.9.3-.6-.4-.9-1.1-.4-1.7Z"/>
            <path class="st0" d="M326.8,60.8c-.6-.5-1.4-.4-1.9.1s-.4,1.3.1,1.7c.6.5,1.4.4,1.9-.1s.4-1.3-.1-1.7Z"/>
          </g>
          <g class="st2">
            <polygon class="st0" points="358.8 86.4 324 60.6 336.9 60.7 336.8 61.2 325.7 61.2 355.6 83.4 338.7 62.1 339.2 61.8 358.8 86.4"/>
            <path class="st0" d="M337.8,62.7c-.4-.6-.3-1.3.3-1.7s1.5-.3,1.9.3.3,1.3-.3,1.7c-.6.4-1.5.3-1.9-.3Z"/>
            <path class="st0" d="M336.8,62.2c.8,0,1.4-.6,1.4-1.2,0-.7-.6-1.3-1.4-1.2s-1.4.6-1.4,1.2c0,.7.6,1.3,1.4,1.2Z"/>
          </g>
          <g class="st2">
            <polygon class="st0" points="371.8 100.7 411.4 45.3 412 45.6 373.1 100 448 93.8 412.9 45.6 413.3 45.2 449.2 94.3 371.8 100.7"/>
            <path class="st0" d="M412,46.1c-.4-.6-.3-1.3.4-1.7.7-.3,1.5-.2,1.9.4s.3,1.3-.4,1.7c-.7.3-1.5.2-1.9-.4Z"/>
            <path class="st0" d="M412.8,46.2c.4-.5.2-1.3-.4-1.7-.6-.4-1.5-.2-1.9.3s-.2,1.3.4,1.7c.6.4,1.5.2,1.9-.3Z"/>
          </g>
          <g class="st2">
            <polygon class="st0" points="415.2 142.5 371.8 100.1 372.5 100.1 449.1 93.7 417.2 142.3 416.7 142 448.1 94.3 373.1 100.6 415.6 142.1 415.2 142.5"/>
            <path class="st0" d="M418.1,142.7c-.4.6-1.3.8-1.9.4s-.9-1.1-.5-1.7c.4-.6,1.3-.8,1.9-.4s.9,1.1.5,1.7Z"/>
            <path class="st0" d="M414.3,143.1c.5.5,1.4.5,1.9,0,.6-.4.6-1.2,0-1.7s-1.4-.5-1.9,0c-.6.4-.6,1.2,0,1.7Z"/>
          </g>
          <g class="st2">
            <polygon class="st0" points="448.8 94.7 448.4 94.1 411.6 43.9 455.1 57.7 454.9 58.2 413.1 45 448.4 93.3 455.7 59.5 456.3 59.5 448.8 94.7"/>
            <path class="st0" d="M454.6,59.3c.2-.7.8-1.1,1.6-1,.7.2,1.3.8,1.1,1.4-.2.7-.8,1.1-1.6,1-.7-.2-1.3-.8-1.1-1.4Z"/>
            <path class="st0" d="M454.4,59c.7.3,1.5,0,1.8-.7s0-1.4-.8-1.6c-.7-.3-1.5,0-1.8.7s0,1.4.8,1.6Z"/>
          </g>
          <g class="st2">
            <polygon class="st0" points="479.6 101.5 448.3 94.2 455.7 59.5 456.3 59.5 448.9 93.8 478.5 100.6 456.5 59.5 457.1 59.3 479.6 101.5"/>
            <path class="st0" d="M455.5,60c-.3-.6,0-1.4.7-1.6.7-.2,1.5,0,1.8.6.3.6,0,1.4-.7,1.6-.7.2-1.5,0-1.8-.6Z"/>
            <path class="st0" d="M457.3,59.8c.2-.7-.4-1.3-1.1-1.4s-1.5.3-1.6,1c-.2.7.4,1.3,1.1,1.4s1.5-.3,1.6-1Z"/>
          </g>
          <g class="st2">
            <polygon class="st0" points="75.5 80.4 75.3 79.9 44.4 14.2 45.2 14.7 93.6 43.3 93.2 43.7 45.7 15.6 75.5 79.1 93.7 45.1 94.2 45.4 75.5 80.4"/>
            <path class="st0" d="M92.7,44.8c.4-.6,1.1-.9,1.9-.5.7.3,1,1,.6,1.7s-1.1.9-1.9.5c-.7-.3-1-1-.6-1.7Z"/>
            <path class="st0" d="M92.7,44.5c.6.4,1.5.2,1.9-.3.5-.5.2-1.3-.4-1.7-.6-.4-1.5-.2-1.9.3-.5.5-.2,1.3.4,1.7Z"/>
          </g>
          <g class="st2">
            <polygon class="st0" points="74.9 80.3 93.7 45.1 94.2 45.4 76.2 79.2 101.8 69.5 94.5 45.4 95.1 45.2 102.6 69.9 102.3 70 74.9 80.3"/>
            <path class="st0" d="M93.6,45.6c-.2-.7.2-1.3,1-1.5.7-.1,1.5.2,1.7.9.2.7-.2,1.3-1,1.5-.7.1-1.5-.2-1.7-.9Z"/>
            <path class="st0" d="M95.2,45.8c.4-.6,0-1.3-.6-1.7-.7-.3-1.5,0-1.9.5-.4.6,0,1.3.6,1.7.7.3,1.5,0,1.9-.5Z"/>
          </g>
          <g class="st2">
            <path class="st0" d="M600.8,115.7l-14.3-8.1.3-.4.2-.4,22.4,5.1-8.5,3.8h0ZM587.4,107.5l13.4,7.6,6.7-3-20.2-4.7h0Z"/>
            <path class="st0" d="M586.1,108.5c-.6-.4-.9-1.1-.4-1.7.4-.5,1.3-.8,1.9-.4s.9,1.1.4,1.7c-.4.5-1.3.8-1.9.4Z"/>
            <path class="st0" d="M587.3,105.9c-.7-.2-1.5.2-1.6.9-.2.6.3,1.3,1,1.5.7.2,1.5-.2,1.6-.9s-.3-1.3-1-1.5Z"/>
          </g>
          <g class="st2">
            <polygon class="st0" points="608.7 112.4 608.4 112.3 586.8 107.4 587 106.9 608.2 111.7 610 85.5 586.8 106.2 586.3 105.8 610.7 84.1 608.7 112.4"/>
            <path class="st0" d="M587.6,106.8c-.6.4-1.4.5-1.9,0s-.6-1.3,0-1.7c.6-.4,1.4-.5,1.9,0s.6,1.3,0,1.7Z"/>
            <path class="st0" d="M587.3,105.9c-.7-.2-1.5.2-1.6.9-.2.6.3,1.3,1,1.5.7.2,1.5-.2,1.6-.9s-.3-1.3-1-1.5Z"/>
          </g>
          <g class="st2">
            <path class="st0" d="M595.8,161.9h-.4c0,0-.4-.1-.4-.1l5.5-46.6h.2s8.2-3.7,8.2-3.7l-13.1,50.4h0ZM601.1,115.6l-5.2,43,12-46.1-6.9,3.1h0Z"/>
            <path class="st0" d="M596.7,161.9c0,.7-.7,1.2-1.5,1.1s-1.4-.7-1.2-1.3c0-.7.7-1.2,1.5-1.1s1.4.7,1.2,1.3Z"/>
            <path class="st0" d="M594.1,161.5c-.2.6.3,1.3,1,1.5.7.2,1.5-.2,1.6-.9.2-.6-.3-1.3-1-1.5s-1.5.2-1.6.9Z"/>
          </g>
          <g class="st2">
            <polygon class="st0" points="608.8 112.1 608.2 112 610 86 610.6 86.1 609.1 107.2 613.7 83.6 611.7 84.6 611.4 84.1 614.6 82.7 608.8 112.1"/>
            <path class="st0" d="M612.2,85.3c-.7.3-1.5,0-1.8-.6-.3-.6,0-1.4.6-1.6.7-.3,1.5,0,1.8.6.3.6,0,1.4-.6,1.6Z"/>
            <path class="st0" d="M611.7,86.2c0-.7-.5-1.3-1.3-1.3-.8,0-1.4.5-1.4,1.1,0,.7.5,1.3,1.3,1.3.8,0,1.4-.5,1.4-1.1Z"/>
          </g>
          <g class="st2">
            <path class="st0" d="M298.2,98.8l-8-16,33.4-21.4.3.4.5.3s-26.2,36.7-26.2,36.7ZM291,82.9l7.3,14.6,25.5-35.7-32.8,20.9h0Z"/>
            <path class="st0" d="M323,60.7c.6-.4,1.5-.3,1.9.3.4.6.3,1.3-.3,1.7-.6.4-1.5.3-1.9-.3-.4-.6-.3-1.3.3-1.7Z"/>
            <path class="st0" d="M325.3,62.6c.4-.5.2-1.3-.4-1.7-.6-.4-1.5-.2-1.9.3s-.2,1.3.4,1.7c.6.4,1.5.2,1.9-.3Z"/>
          </g>
          <g class="st2">
            <polygon class="st0" points="68.1 98.8 61.3 95.8 61.7 95.2 67.8 98 74.7 81 61.4 94.3 61 94 76.4 78.5 68.1 98.8"/>
            <path class="st0" d="M62.3,94.9c-.5.5-1.4.6-1.9.1s-.6-1.3-.1-1.7c.5-.5,1.4-.6,1.9-.1s.6,1.3.1,1.7Z"/>
            <path class="st0" d="M62.1,94.4c-.7-.4-1.5-.1-1.9.5s-.1,1.3.6,1.7,1.5.1,1.9-.5.1-1.3-.6-1.7Z"/>
          </g>
          <g class="st2">
            <polygon class="st0" points="356.8 86.8 358.9 61 367.3 57.9 367.5 58.5 359.4 61.3 357.7 83.1 367.8 58.8 368.4 58.9 356.8 86.8"/>
            <path class="st0" d="M366.8,58.5c.3-.6,1-1,1.8-.7.7.3,1.1.9.8,1.6-.3.6-1,1-1.8.7-.7-.3-1.1-.9-.8-1.6Z"/>
            <path class="st0" d="M367.9,59.4c.7-.2,1-1,.8-1.6-.2-.7-1.1-.9-1.7-.7s-1,1-.8,1.6c.2.7,1.1.9,1.7.7Z"/>
          </g>
          <g class="st2">
            <path class="st0" d="M372.9,101.1l-16-16.2h0c0,0,10.9-26.2,10.9-26.2l.5.2h.6s3.8,42.2,3.8,42.2h.2ZM357.5,84.9l14.5,14.7-3.7-40.5s-10.8,25.9-10.8,25.9Z"/>
            <path class="st0" d="M366.8,58.5c.3-.6,1-1,1.8-.7.7.3,1.1.9.8,1.6-.3.6-1,1-1.8.7-.7-.3-1.1-.9-.8-1.6Z"/>
            <path class="st0" d="M370.2,58.9c0-.7-.7-1.2-1.5-1.1s-1.4.7-1.2,1.3c0,.7.7,1.2,1.5,1.1s1.4-.7,1.2-1.3Z"/>
          </g>
          <g class="st2">
            <polygon class="st0" points="372.3 101.2 368.4 58.9 369 58.9 372.7 99.5 411.7 44.9 370 57.6 369.7 57.2 413.2 43.9 372.3 101.2"/>
            <path class="st0" d="M367.4,59.1c0-.7.5-1.2,1.2-1.3s1.4.5,1.5,1.1-.5,1.2-1.2,1.3-1.4-.5-1.5-1.1Z"/>
            <path class="st0" d="M369.5,56.3c-.7.2-1.1.9-.9,1.6s1.1,1,1.8.8c.7-.2,1.1-.9.9-1.6s-1.1-1-1.8-.8Z"/>
          </g>
          <g class="st2">
            <polygon class="st0" points="645.3 175.7 596.4 163.6 596.5 163.1 644.1 174.8 608.5 112.9 595.8 161.9 595.2 161.8 608.3 111.3 608.8 111.9 645.3 175.7"/>
            <path class="st0" d="M596.9,162.1c-.2.6-.9,1.1-1.6.9s-1.2-.8-1-1.5c.2-.6.9-1.1,1.6-.9s1.2.8,1,1.5Z"/>
            <path class="st0" d="M596.9,162.1c-.7-.2-1.5.2-1.6.8s.2,1.3,1,1.5c.7.2,1.5-.2,1.6-.8s-.2-1.3-1-1.5Z"/>
          </g>
          <g class="st2">
            <polygon class="st0" points="357.8 86.2 338.7 62.1 339.2 61.8 356.6 83.7 351.3 63 339.5 61.5 339.5 60.9 351.8 62.6 357.8 86.2"/>
            <path class="st0" d="M337.8,62.7c-.4-.6-.3-1.3.3-1.7s1.5-.3,1.9.3.3,1.3-.3,1.7c-.6.4-1.5.3-1.9-.3Z"/>
            <path class="st0" d="M339.8,59.9c-.7-.2-1.5.4-1.5,1-.2.7.4,1.3,1.2,1.4.7.2,1.5-.4,1.5-1,.2-.7-.4-1.3-1.2-1.4Z"/>
          </g>
          <g class="st2">
            <polygon class="st0" points="357.4 86.7 351.5 64 352.1 63.8 357 83.1 358.8 61.5 352.9 62.8 352.7 62.3 359.4 60.7 357.4 86.7"/>
            <path class="st0" d="M350.5,64.2c-.1-.7.3-1.3,1-1.5.8,0,1.5.3,1.7.9.1.7-.3,1.3-1,1.5-.8,0-1.5-.3-1.7-.9Z"/>
            <path class="st0" d="M352.5,61.3c-.7.1-1.2.8-1,1.5.1.7,1,1,1.7.9s1.2-.8,1-1.5c-.1-.7-1-1-1.7-.9Z"/>
          </g>
          <g class="st2">
            <path class="st0" d="M506.9,153.4l-.4-.4-.5-.2,14.8-28,14,5.5-27.9,23.1h0ZM521.1,125.5l-14.4,27.3,27.1-22.4-12.7-4.9h0Z"/>
            <path class="st0" d="M507.6,153.3c-.4.6-1.1.9-1.9.6-.7-.3-1-1-.7-1.7.4-.6,1.1-.9,1.9-.6s1,1,.7,1.7Z"/>
            <path class="st0" d="M505.8,152.2c-.6.4-.6,1.2,0,1.7s1.4.5,1.9,0c.6-.4.6-1.2,0-1.7s-1.4-.5-1.9,0Z"/>
          </g>
          <g class="st2">
            <polygon class="st0" points="390.2 158.2 345.4 144.6 372.6 99.7 391.5 157.1 390.9 157.3 372.3 101.1 346.3 144.3 390.4 157.7 390.2 158.2"/>
            <path class="st0" d="M390.7,156.8c.7.3,1.2.9.9,1.5-.3.6-1,1-1.7.8-.7-.3-1.2-.9-.9-1.5.3-.6,1-1,1.7-.8Z"/>
            <path class="st0" d="M389.8,157.4c.2.7,1,1,1.8.9.7-.1,1.1-.9.9-1.6s-1-1-1.8-.9c-.7.1-1.1.9-.9,1.6Z"/>
          </g>
          <g class="st2">
            <polygon class="st0" points="374.4 161.9 374.3 161.9 343.8 143.6 390.4 157.7 390.2 158.2 347.9 145.4 374.4 161.4 390.2 158.3 390.3 158.8 374.4 161.9"/>
            <path class="st0" d="M390.7,156.8c.7.3,1.2.9.9,1.5-.3.6-1,1-1.7.8-.7-.3-1.2-.9-.9-1.5.3-.6,1-1,1.7-.8Z"/>
            <path class="st0" d="M390.5,159.8c.8,0,1.3-.8,1-1.5-.1-.7-.9-1-1.7-1s-1.3.8-1,1.5c.1.7.9,1,1.7,1Z"/>
          </g>
          <g class="st2">
            <polygon class="st0" points="392.8 157.9 392.4 157.5 415.8 143.1 373.2 101.4 391.5 157.1 390.9 157.3 371.8 99.3 416.7 143.2 392.8 157.9"/>
            <path class="st0" d="M392.5,156.8c.2.7-.2,1.3-.9,1.6-.7.1-1.5-.2-1.8-.9s.2-1.3.9-1.6c.7-.1,1.5.2,1.8.9Z"/>
            <path class="st0" d="M391.9,156.6c-.7.3-.8,1.2-.4,1.7s1.3.7,1.9.4c.7-.3.8-1.2.4-1.7s-1.3-.7-1.9-.4Z"/>
          </g>
          <g class="st2">
            <polygon class="st0" points="609.8 112.2 609.8 111.7 643.9 108.7 614.3 83.7 609 110.9 608.4 110.9 614 82.6 645.4 109.1 609.8 112.2"/>
            <path class="st0" d="M610,111.1c-.2.7-.8,1.2-1.6,1-.7-.2-1.3-.7-1.1-1.4s.8-1.2,1.6-1,1.3.7,1.1,1.4Z"/>
            <path class="st0" d="M609.7,110.7c-.8,0-1.3.7-1.2,1.4s.8,1.2,1.5,1.1,1.3-.7,1.2-1.4-.8-1.2-1.5-1.1Z"/>
          </g>
          <g class="st2">
            <polygon class="st0" points="643.8 174.4 608 111.8 608.5 111.8 644.9 108.5 645 108.8 645 174.1 644.4 174 644.4 109.2 608.9 112.3 644.4 174 643.8 174.4"/>
            <path class="st0" d="M646.1,174c0,.7-.6,1.2-1.4,1.2-.8,0-1.3-.6-1.4-1.2s.6-1.2,1.4-1.2c.8,0,1.3.6,1.4,1.2Z"/>
            <path class="st0" d="M642.8,174.7c.3.6,1.2.8,1.8.6.7-.3.9-1.1.6-1.6s-1.2-.8-1.8-.6c-.7.3-.9,1.1-.6,1.6Z"/>
          </g>
          <g class="st2">
            <polygon class="st0" points="644.8 109.4 644.5 109.1 615 84.2 615.3 83.7 644.4 108.4 648 90.4 615.4 83.6 615.5 83.1 648.8 89.9 644.8 109.4"/>
            <path class="st0" d="M615.2,84.7c-.7-.2-1.3-.8-1-1.4.2-.7.9-1.1,1.6-.9s1.3.8,1,1.4c-.2.7-.9,1.1-1.6.9Z"/>
            <path class="st0" d="M616.1,83.1c-.5-.5-1.4-.4-1.9.1-.6.5-.5,1.2.1,1.7.5.5,1.4.4,1.9-.1.6-.5.5-1.2-.1-1.7Z"/>
          </g>
          <g class="st2">
            <polygon class="st0" points="645.8 174.5 645.3 174.2 680.4 139.8 644.9 109.5 645 174.1 644.4 174 644.3 108.3 644.8 108.6 681.3 139.7 681.1 139.9 645.8 174.5"/>
            <path class="st0" d="M646.7,175.2c-.5.5-1.4.5-1.9.1-.5-.5-.6-1.3-.1-1.7.5-.5,1.4-.5,1.9-.1.5.5.6,1.3.1,1.7Z"/>
            <path class="st0" d="M643.3,174c0,.7.6,1.3,1.4,1.2s1.4-.6,1.4-1.2c0-.7-.6-1.3-1.4-1.2s-1.4.6-1.4,1.2Z"/>
          </g>
          <g class="st2">
            <path class="st0" d="M552.8,56.6l1.9-17h.5s.5,0,.5,0l1.7,10.9-4.5,6.1h0ZM555.2,40.8l-1.5,13.6,3-4.1-1.5-9.6h0Z"/>
            <path class="st0" d="M553.7,39.6c0-.7.7-1.2,1.5-1.1s1.4.7,1.2,1.3-.7,1.2-1.5,1.1-1.4-.7-1.2-1.3Z"/>
            <path class="st0" d="M556.7,39.6c0-.7-.8-1.2-1.6-1.1s-1.3.7-1.2,1.4.8,1.2,1.6,1.1,1.3-.7,1.2-1.4Z"/>
          </g>
          <g class="st2">
            <polygon class="st0" points="669.4 48.1 653.2 39.9 653.5 39.5 669.2 47.4 680 32.9 653.6 39.1 653.4 38.6 681.5 32 669.4 48.1"/>
            <path class="st0" d="M652.8,40.9c-.6-.4-.9-1-.5-1.7.4-.6,1.3-.8,1.9-.4.6.4.9,1,.5,1.7-.4.6-1.3.8-1.9.4Z"/>
            <path class="st0" d="M653.2,37.6c-.7.1-1.1.9-1,1.5.2.7,1,1,1.7.9.7-.1,1.1-.9,1-1.5-.2-.7-1-1-1.7-.9Z"/>
          </g>
          <g class="st2">
            <polygon class="st0" points="2.7 78 -26 76.1 -25.9 75.5 0 77.3 -15.8 69.3 -25.9 75.3 -26.4 74.8 -15.9 68.6 2.7 78"/>
            <path class="st0" d="M-25.3,76.1c-.7.3-1.5.2-1.9-.4s-.3-1.3.4-1.7c.7-.3,1.5-.2,1.9.4s.3,1.3-.4,1.7Z"/>
            <path class="st0" d="M-25.8,74.6c-.8,0-1.4.5-1.4,1.1,0,.7.5,1.3,1.3,1.3.8,0,1.4-.5,1.4-1.1,0-.7-.5-1.3-1.3-1.3Z"/>
          </g>
          <g class="st2">
            <polygon class="st0" points="2.2 78.3 -14.9 69.8 -14.5 69.3 .4 76.9 -8.3 64.3 -14.6 68.5 -15 68.1 -8.2 63.5 2.2 78.3"/>
            <path class="st0" d="M-13.9,69.3c-.6.4-1.5.3-1.9-.3-.4-.6-.3-1.3.3-1.7s1.5-.3,1.9.3.3,1.3-.3,1.7Z"/>
            <path class="st0" d="M-14,68.5c-.6-.4-1.5-.1-1.9.4-.4.6-.1,1.3.5,1.7s1.5.1,1.9-.4c.4-.6.1-1.3-.5-1.7Z"/>
          </g>
          <g class="st2">
            <polygon class="st0" points="120.3 51.7 95.7 44.8 95.9 44.3 118.3 50.6 94.9 27.8 94.9 43 94.3 43 94.2 26.4 120.3 51.7"/>
            <path class="st0" d="M95.5,45.7c-.7-.3-1.2-.9-.9-1.5.3-.6,1-1,1.7-.8.7.3,1.2.9.9,1.5-.3.6-1,1-1.7.8Z"/>
            <path class="st0" d="M93.2,42.9c0,.7.6,1.3,1.4,1.2s1.4-.6,1.4-1.2c0-.7-.6-1.3-1.4-1.2s-1.4.6-1.4,1.2Z"/>
          </g>
          <g class="st2">
            <polygon class="st0" points="83.7 111.2 68.8 99.4 69.1 99.1 82.7 109.7 75.4 80.7 68.6 97.5 68.1 97.2 75.6 78.8 83.7 111.2"/>
            <path class="st0" d="M69.7,97.7c-.3.6-1,1-1.8.7s-1.1-.9-.8-1.6,1-1,1.8-.7,1.1.9.8,1.6Z"/>
            <path class="st0" d="M69.9,98.3c-.5-.5-1.4-.4-1.9.1s-.4,1.3.1,1.7c.5.5,1.4.4,1.9-.1s.4-1.3-.1-1.7Z"/>
          </g>
          <g class="st2">
            <polygon class="st0" points="71.3 160.4 83 109.9 105.4 133.3 104.9 133.7 83.4 111 72.2 159 104.8 135 105.2 135.3 71.3 160.4"/>
            <path class="st0" d="M106.2,132.7c.5.6.4,1.3-.2,1.7-.6.4-1.5.4-1.9-.2-.5-.6-.4-1.3.2-1.7.6-.4,1.5-.4,1.9.2Z"/>
            <path class="st0" d="M105.9,136.1c.6-.4.6-1.2.2-1.7s-1.3-.6-1.9-.2c-.6.4-.6,1.2-.2,1.7.5.6,1.3.6,1.9.2Z"/>
          </g>
          <g class="st2">
            <polygon class="st0" points="83.1 111.4 75.6 81 76.2 80.8 83.3 109.5 101.6 70.2 76.9 79.6 76.6 79 102.7 69.3 102.5 69.9 83.1 111.4"/>
            <path class="st0" d="M77.3,80.5c-.7.2-1.5,0-1.8-.7-.3-.7,0-1.3.7-1.6.7-.2,1.5,0,1.8.7.3.6,0,1.3-.7,1.6Z"/>
            <path class="st0" d="M77.1,80.7c-.1-.7-.9-1-1.7-1s-1.3.8-1,1.5c.1.7.9,1,1.7,1s1.3-.8,1-1.5Z"/>
          </g>
          <g class="st2">
            <polygon class="st0" points="121.7 112.7 82.7 110.7 82.9 110.4 101.4 70.7 102 70.9 83.6 110.2 120.8 112.1 102.4 70.9 102.9 70.8 121.7 112.7"/>
            <path class="st0" d="M101.4,71.4c-.2-.7,0-1.3.8-1.6.7-.2,1.5.1,1.7.7.2.7,0,1.3-.8,1.6-.7.2-1.5-.1-1.7-.7Z"/>
            <path class="st0" d="M102.9,71.4c.3-.6,0-1.4-.7-1.7-.7-.3-1.5,0-1.8.6-.3.6,0,1.4.7,1.7.7.3,1.5,0,1.8-.6Z"/>
          </g>
          <g class="st2">
            <polygon class="st0" points="104.9 133.7 82.5 110.1 121.7 112.1 107 133.5 106.5 133.3 120.7 112.7 83.9 110.8 105.4 133.3 104.9 133.7"/>
            <path class="st0" d="M108,134.1c-.4.6-1.3.8-1.9.4s-.9-1.1-.4-1.7c.4-.6,1.3-.8,1.9-.4s.9,1.1.4,1.7Z"/>
            <path class="st0" d="M104.1,134.3c.5.6,1.3.6,1.9.2.6-.4.6-1.2.2-1.7-.5-.6-1.3-.6-1.9-.2-.6.4-.6,1.2-.2,1.7Z"/>
          </g>
          <g class="st2">
            <polygon class="st0" points="190 56.9 189.5 56.5 211.7 16.9 212.2 17.1 191.6 53.8 219.7 19.5 213.6 16.7 213.9 16.3 220.6 19.3 220.4 19.6 190 56.9"/>
            <path class="st0" d="M210.7,16.5c.4-.6,1.1-.9,1.9-.5s1,1,.6,1.7-1.1.9-1.9.5-1-1-.6-1.7Z"/>
            <path class="st0" d="M214.4,15.4c-.7-.4-1.5-.1-1.9.5s-.1,1.3.6,1.7,1.5.1,1.9-.5.1-1.3-.6-1.7Z"/>
          </g>
          <g class="st2">
            <path class="st0" d="M467.6,104.7h0s-17.9-9.8-17.9-9.8l.3-.4v-.4c0,0,30.3,6.9,30.3,6.9l-12.6,3.6h0ZM450.5,94.8l17.2,9.3,10.3-3s-27.5-6.3-27.5-6.3Z"/>
            <path class="st0" d="M449.6,95.5c-.7-.2-1.2-.8-1-1.5.2-.6.9-1.1,1.6-.9s1.2.8,1,1.5c-.2.6-.9,1.1-1.6.9Z"/>
            <path class="st0" d="M450.5,93.6c-.6-.4-1.5-.2-1.9.4-.4.6-.2,1.3.5,1.7.6.4,1.5.2,1.9-.4s.2-1.3-.5-1.7Z"/>
          </g>
          <g class="st2">
            <polygon class="st0" points="258.5 54.3 245.7 44.3 246.1 43.9 257.9 53 257.9 45.4 246.2 43.8 246.2 43.3 258.6 45 258.5 54.3"/>
            <path class="st0" d="M245.1,45.2c-.5-.5-.7-1.3-.1-1.7s1.4-.6,1.9-.1.7,1.3.1,1.7c-.5.5-1.4.6-1.9.1Z"/>
            <path class="st0" d="M246.5,42.4c-.7-.2-1.5.4-1.5,1-.2.7.4,1.3,1.2,1.4.7.2,1.5-.4,1.5-1,.2-.7-.4-1.3-1.2-1.4Z"/>
          </g>
          <g class="st2">
            <polygon class="st0" points="258 53.9 258 46.3 258.6 46.4 258.5 53.4 265.3 53.5 258.8 46.3 259.2 45.9 266.5 54 258 53.9"/>
            <path class="st0" d="M256.9,46.4c0-.7.6-1.2,1.4-1.2.8,0,1.3.6,1.4,1.2s-.6,1.2-1.4,1.2c-.8,0-1.3-.6-1.4-1.2Z"/>
            <path class="st0" d="M260.2,45.4c-.4-.6-1.3-.6-1.9-.2-.6.4-.7,1.2-.2,1.7s1.3.6,1.9.2c.6-.4.7-1.2.2-1.7Z"/>
          </g>
          <g class="st2">
            <polygon class="st0" points="417.6 143.2 417.5 142.7 431.2 139.7 447.4 96.4 417.2 142.3 416.7 142 449.8 91.6 431.8 140.1 417.6 143.2"/>
            <path class="st0" d="M418.1,142.7c-.4.6-1.3.8-1.9.4s-.9-1.1-.5-1.7c.4-.6,1.3-.8,1.9-.4s.9,1.1.5,1.7Z"/>
            <path class="st0" d="M417.2,141.7c-.7.1-1.2.8-1,1.5s1,1,1.7.9,1.2-.8,1-1.5-1-1-1.7-.9Z"/>
          </g>
          <g class="st2">
            <polygon class="st0" points="431 140.5 431.2 139.8 448.3 93.9 448.9 94.1 441.6 133.7 441 133.6 447.7 97.4 432 139.2 439.8 135.2 440.1 135.7 431 140.5"/>
            <path class="st0" d="M442.6,133.8c-.2.7-.8,1.2-1.6,1-.7-.2-1.3-.7-1.1-1.4s.8-1.2,1.6-1c.7.2,1.3.7,1.1,1.4Z"/>
            <path class="st0" d="M440.5,136.5c.7-.3.8-1.1.5-1.7-.4-.6-1.3-.8-1.9-.5-.7.3-.8,1.1-.5,1.7.4.6,1.3.8,1.9.5Z"/>
          </g>
          <g class="st2">
            <polygon class="st0" points="227.2 125.2 227.2 124.7 250.4 124.8 257.8 55.6 226.7 124 226.1 123.8 258.7 51.9 251 125.4 227.2 125.2"/>
            <path class="st0" d="M227.8,124.3c-.3.6-1,1-1.8.6-.7-.3-1.1-.9-.8-1.6.3-.6,1-1,1.8-.6.7.3,1.1.9.8,1.6Z"/>
            <path class="st0" d="M227.3,123.7c-.8,0-1.4.6-1.4,1.2,0,.7.6,1.3,1.4,1.2s1.4-.6,1.4-1.2c0-.7-.6-1.3-1.4-1.2Z"/>
          </g>
          <g class="st2">
            <polygon class="st0" points="250.2 126.2 257.8 54.9 258.4 54.9 251.1 124 282.6 79.4 258.8 54.8 259.3 54.4 283.4 79.3 283.2 79.5 250.2 126.2"/>
            <path class="st0" d="M258.1,55.4c-.5-.5-.5-1.3.2-1.7.6-.4,1.5-.4,1.9.2.5.5.5,1.3-.2,1.7-.6.4-1.5.4-1.9-.2Z"/>
            <path class="st0" d="M259.5,55.1c0-.7-.5-1.3-1.3-1.3-.8,0-1.5.4-1.5,1.1s.5,1.3,1.3,1.3,1.5-.4,1.5-1.1Z"/>
          </g>
          <g class="st2">
            <polygon class="st0" points="547.7 106.9 510.6 93.4 510.8 92.9 547.4 106.2 564.1 73.1 510.8 92.5 510.5 92 565.3 72.1 547.7 106.9"/>
            <path class="st0" d="M510.3,94.3c-.7-.3-1.1-.9-.8-1.6.3-.6,1-1,1.8-.7.7.3,1.1.9.8,1.6-.3.6-1,1-1.8.7Z"/>
            <path class="st0" d="M510.3,91.1c-.7.2-1,1-.8,1.7.2.6,1.1.9,1.8.7.7-.2,1-1,.8-1.7s-1.1-.9-1.8-.7Z"/>
          </g>
          <g class="st2">
            <path class="st0" d="M510.8,92.5l-.2-.5-.4-.4,43.1-36.6,11.8,17.7-54.3,19.7h.1ZM553.2,56l-42.3,35.9,53.3-19.4s-11-16.5-11-16.5Z"/>
            <path class="st0" d="M511.4,92.7c-.6.4-1.5.4-1.9,0-.5-.5-.5-1.3,0-1.7s1.5-.4,1.9,0c.5.5.5,1.3,0,1.7Z"/>
            <path class="st0" d="M510.3,91.1c-.7.2-1,1-.8,1.7.2.6,1.1.9,1.8.7.7-.2,1-1,.8-1.7s-1.1-.9-1.8-.7Z"/>
          </g>
          <g class="st2">
            <polygon class="st0" points="548.9 106.8 548.9 106.3 585.1 106.5 564.7 73.3 548.4 105.6 547.8 105.4 564.6 72 586.1 107 548.9 106.8"/>
            <path class="st0" d="M549,107.8c-.8,0-1.3-.6-1.4-1.2s.6-1.2,1.4-1.2c.8,0,1.3.6,1.4,1.2s-.6,1.2-1.4,1.2Z"/>
            <path class="st0" d="M546.9,104.9c-.4.6,0,1.3.7,1.7.7.3,1.5,0,1.9-.6s0-1.3-.7-1.7c-.7-.3-1.5,0-1.9.6Z"/>
          </g>
          <g class="st2">
            <polygon class="st0" points="565.8 74.9 553.7 56.7 554.2 56.4 563.5 70.3 556.9 52.6 554.4 54.9 554 54.5 557.2 51.6 565.8 74.9"/>
            <path class="st0" d="M555.2,55.6c-.6.4-1.4.5-1.9,0s-.6-1.3,0-1.7c.6-.4,1.4-.5,1.9,0s.6,1.3,0,1.7Z"/>
            <path class="st0" d="M555.2,56c-.4-.6-1.3-.8-1.9-.5s-.8,1.1-.5,1.7c.4.6,1.3.8,1.9.5s.8-1.1.5-1.7Z"/>
          </g>
          <g class="st2">
            <polygon class="st0" points="586.8 106.2 586.3 105.8 609.8 84.9 565.3 73.1 585.3 105.7 584.7 105.9 564.1 72.2 611 84.7 586.8 106.2"/>
            <path class="st0" d="M587.6,106.8c-.6.4-1.4.5-1.9,0s-.6-1.3,0-1.7c.6-.4,1.4-.5,1.9,0s.6,1.3,0,1.7Z"/>
            <path class="st0" d="M583.8,106.3c.3.6,1.2.8,1.8.5s.9-1.1.6-1.6-1.2-.8-1.8-.5-.9,1.1-.6,1.6Z"/>
          </g>
          <g class="st2">
            <path class="st0" d="M173.7,142.3l-11.1-24.9h10.2s0,.3,0,.3l1.8,24.3h-.5s-.5.2-.5.2h0ZM163.6,118l10.6,23.7-1.8-23.5h-8.8s0-.1,0-.1Z"/>
            <path class="st0" d="M175.3,141.7c.2.7,0,1.3-.8,1.6-.7.2-1.5-.1-1.7-.7-.2-.7,0-1.3.8-1.6.7-.2,1.5.1,1.7.7Z"/>
            <path class="st0" d="M173,142.2c0,.7.7,1.2,1.5,1.2.8,0,1.4-.6,1.3-1.3s-.7-1.2-1.5-1.2c-.8,0-1.4.6-1.3,1.3Z"/>
          </g>
          <g class="st2">
            <path class="st0" d="M175.1,142.3l-.5-.2h-.5s-1.8-24.5-1.8-24.5h.2s12-7.2,12-7.2l-9.4,31.8h0ZM172.9,117.9l1.8,23.7,8.8-30-10.6,6.2Z"/>
            <path class="st0" d="M175.8,142.1c0,.7-.5,1.2-1.3,1.3s-1.4-.5-1.5-1.2.5-1.2,1.3-1.3,1.4.5,1.5,1.2Z"/>
            <path class="st0" d="M173.6,141.8c-.2.6.3,1.3,1,1.5.7.2,1.5-.2,1.6-.9.2-.6-.3-1.3-1-1.5-.7-.2-1.5.2-1.6.9Z"/>
          </g>
          <g class="st2">
            <polygon class="st0" points="175.9 143.2 175.7 142.7 225.1 125 184.2 111.5 175.1 142.3 174.6 142.2 183.9 110.7 184.2 110.9 226.8 125 226 125.2 175.9 143.2"/>
            <path class="st0" d="M176.3,142.5c-.2.6-.9,1.1-1.6.9s-1.2-.8-1-1.5c.2-.6.9-1.1,1.6-.9s1.2.8,1,1.5Z"/>
            <path class="st0" d="M175.3,141.7c-.7.2-1,1-.8,1.6.2.7,1.1.9,1.7.7s1-1,.8-1.6c-.2-.7-1.1-.9-1.7-.7Z"/>
          </g>
          <g class="st2">
            <polygon class="st0" points="-4.9 18.6 4.9 -13 27 1.9 26.6 2.4 5.2 -12.1 -3.9 17.5 26.6 3.2 26.9 3.6 -4.9 18.6"/>
            <path class="st0" d="M26.1,2.4c.7-.3,1.5,0,1.8.5s0,1.4-.6,1.6-1.5,0-1.8-.5,0-1.4.6-1.6Z"/>
            <path class="st0" d="M26,3.1c.6.5,1.5.3,1.9-.2.5-.5.3-1.3-.3-1.7-.6-.5-1.5-.3-1.9.2-.5.5-.3,1.3.3,1.7Z"/>
          </g>
          <g class="st2">
            <polygon class="st0" points="119.3 51.5 95.2 28.2 95.7 27.8 119.4 50.7 141.4 36.1 95.8 27.6 95.8 27.1 142.8 35.8 119.3 51.5"/>
            <path class="st0" d="M94.5,28.9c-.5-.5-.5-1.3,0-1.7s1.5-.4,1.9,0c.5.5.5,1.3,0,1.7-.6.4-1.5.4-1.9,0Z"/>
            <path class="st0" d="M96.2,26.2c-.7-.2-1.5.3-1.6.9-.2.7.3,1.3,1.1,1.4.7.2,1.5-.3,1.6-.9.2-.7-.3-1.3-1.1-1.4Z"/>
          </g>
          <g class="st2">
            <polygon class="st0" points="712.5 67.1 655.4 65 655.4 64.4 709.9 66.4 678.8 51.6 655.4 64.3 655.1 63.9 678.9 50.9 679 51 712.5 67.1"/>
            <path class="st0" d="M656,65.1c-.7.3-1.5,0-1.9-.4-.4-.6-.2-1.4.5-1.7.7-.3,1.5,0,1.9.4.4.6.2,1.4-.5,1.7Z"/>
            <path class="st0" d="M655.6,63.5c-.8,0-1.4.5-1.4,1.2,0,.7.6,1.3,1.3,1.3.8,0,1.4-.5,1.4-1.2,0-.7-.6-1.3-1.3-1.3Z"/>
          </g>
          <g class="st2">
            <polygon class="st0" points="712.5 67.7 679.9 52 680.1 51.6 710 65.8 688.3 43.2 680 50.6 679.6 50.2 688.4 42.4 712.5 67.7"/>
            <path class="st0" d="M680.8,51.2c-.6.4-1.4.5-1.9,0s-.6-1.3,0-1.7c.6-.4,1.4-.5,1.9,0s.6,1.3,0,1.7Z"/>
            <path class="st0" d="M680.7,50.7c-.7-.4-1.5-.1-1.9.5s-.1,1.3.6,1.7c.7.4,1.5.1,1.9-.5s.1-1.3-.6-1.7Z"/>
          </g>
          <g class="st2">
            <polygon class="st0" points="629.3 34.7 619.4 9.8 639.4 8.3 639.5 8.8 620.3 10.3 629.4 33.1 640 9.4 640.6 9.6 629.3 34.7"/>
            <path class="st0" d="M638.9,9.1c.3-.6,1-1,1.8-.7s1.1.9.8,1.6c-.3.6-1,1-1.8.7-.7-.3-1.1-.9-.8-1.6Z"/>
            <path class="st0" d="M639.5,9.8c.8,0,1.4-.7,1.2-1.3s-.8-1.2-1.5-1.1-1.4.7-1.2,1.3c0,.7.8,1.2,1.5,1.1Z"/>
          </g>
          <g class="st2">
            <polygon class="st0" points="652.7 39.6 629 34.1 629.1 33.8 640 9.4 640.6 9.6 629.7 33.7 651.7 38.7 640.9 9.7 641.5 9.4 652.7 39.6"/>
            <path class="st0" d="M639.9,10c-.2-.7.1-1.3.9-1.6.7-.2,1.5.1,1.8.8.2.7-.1,1.3-.9,1.6-.7.2-1.5-.1-1.8-.8Z"/>
            <path class="st0" d="M641.5,10c.3-.6,0-1.4-.8-1.6-.7-.3-1.5,0-1.8.7s0,1.4.8,1.6,1.5,0,1.8-.7Z"/>
          </g>
          <g class="st2">
            <polygon class="st0" points="265.8 54 258.8 46.3 259.2 45.9 266 53.4 278.1 48.8 259.4 45.6 259.6 45.1 280.3 48.7 265.8 54"/>
            <path class="st0" d="M258,46.9c-.4-.6-.4-1.3.2-1.7s1.5-.3,1.9.2c.4.6.4,1.3-.2,1.7s-1.5.3-1.9-.2Z"/>
            <path class="st0" d="M259.8,44.2c-.7-.2-1.5.3-1.6,1s.4,1.3,1.1,1.4,1.5-.3,1.6-1c.2-.7-.4-1.3-1.1-1.4Z"/>
          </g>
          <g class="st2">
            <polygon class="st0" points="283.5 80.6 265.4 53.7 277.9 48.9 278.1 49.4 266.3 53.9 282.5 78.2 279.1 49.9 279.6 49.8 283.5 80.6"/>
            <path class="st0" d="M277.3,48.1c.7-.2,1.5,0,1.8.7.3.6,0,1.3-.7,1.6-.7.2-1.5,0-1.8-.7-.3-.6,0-1.3.7-1.6Z"/>
            <path class="st0" d="M280.7,49.8c0-.7-.8-1.2-1.5-1.1s-1.3.7-1.2,1.4.8,1.2,1.5,1.1,1.3-.7,1.2-1.4Z"/>
          </g>
          <g class="st2">
            <path class="st0" d="M291.1,83.3l-8.4-3.9h0c0,0-3.7-29.6-3.7-29.6h.4s.4,0,.4,0l11.3,33.6h0ZM283.3,79.2l6.8,3.1-10.2-30.6,3.4,27.5Z"/>
            <path class="st0" d="M278,50.1c0-.7.4-1.3,1.2-1.4s1.4.4,1.5,1.1-.4,1.3-1.2,1.4-1.4-.4-1.5-1.1Z"/>
            <path class="st0" d="M280.9,49.5c-.2-.7-1-1-1.8-.8-.7.1-1.1.9-.9,1.6s1,1,1.8.8c.7-.1,1.1-.9.9-1.6Z"/>
          </g>
          <g class="st2">
            <polygon class="st0" points="290.5 83.3 279.3 49.9 279.8 49.8 290.8 82.3 324.2 61 280.3 49.4 280.5 48.7 325.6 60.8 290.5 83.3"/>
            <path class="st0" d="M278.3,50.3c-.2-.7.2-1.3.9-1.6.7-.1,1.5.2,1.8.8.2.7-.2,1.3-.9,1.6-.7.1-1.5-.2-1.8-.8Z"/>
            <path class="st0" d="M280.9,47.9c-.7-.2-1.5,0-1.7.8-.3.6.2,1.4.9,1.5.7.2,1.5,0,1.7-.8.3-.6-.2-1.4-.9-1.5Z"/>
          </g>
          <g class="st2">
            <polygon class="st0" points="509.7 93.5 477.6 52.8 478.2 52.5 509.2 91.9 512.9 50.5 478.4 51.8 478.4 51.3 513.6 49.9 513.6 50.2 509.7 93.5"/>
            <path class="st0" d="M476.8,53.3c-.4-.6-.3-1.3.3-1.7.6-.3,1.5-.3,1.9.3.4.6.3,1.3-.3,1.7-.6.3-1.5.3-1.9-.3Z"/>
            <path class="st0" d="M478.4,50.3c-.8,0-1.4.6-1.3,1.3s.7,1.3,1.5,1.2,1.4-.6,1.3-1.3-.7-1.3-1.5-1.2Z"/>
          </g>
          <g class="st2">
            <polygon class="st0" points="509.1 93.4 512.9 51.4 513.5 51.4 509.9 92 552.5 55.7 514.5 50.6 514.6 50.1 553.9 55.3 509.1 93.4"/>
            <path class="st0" d="M511.8,51.3c0-.7.7-1.2,1.5-1.1.8,0,1.3.6,1.3,1.3,0,.7-.7,1.2-1.5,1.1-.8,0-1.3-.6-1.3-1.3Z"/>
            <path class="st0" d="M514.8,49.1c-.7-.2-1.5.4-1.5,1-.2.7.4,1.3,1.2,1.4.7.2,1.5-.4,1.5-1,.2-.7-.4-1.3-1.2-1.4Z"/>
          </g>
          <g class="st2">
            <path class="st0" d="M584,115.6l-35.2-8.5v-.4c0,0,.1-.4.1-.4l37.1.2-2,9.2h0ZM549.9,106.8l33.6,8.1,1.8-7.9-35.3-.3h0Z"/>
            <path class="st0" d="M549,107.8c-.8,0-1.3-.6-1.4-1.2s.6-1.2,1.4-1.2c.8,0,1.3.6,1.4,1.2s-.6,1.2-1.4,1.2Z"/>
            <path class="st0" d="M549.2,105.7c-.7-.2-1.5.2-1.6.9-.2.6.3,1.3,1,1.5.7.2,1.5-.2,1.6-.9.2-.6-.3-1.3-1-1.5Z"/>
          </g>
          <g class="st2">
            <polygon class="st0" points="565.5 146.9 562.4 144.1 583.4 115.1 584.1 115.4 567.5 146.5 566.9 146.4 581.5 118.9 563.2 144 565.9 146.5 565.5 146.9"/>
            <path class="st0" d="M568.5,147c-.4.6-1.1.9-1.9.6s-1-1-.6-1.7,1.1-.9,1.9-.6,1,1,.6,1.7Z"/>
            <path class="st0" d="M564.6,147.5c.5.5,1.4.5,1.9,0,.6-.4.5-1.2,0-1.7s-1.4-.5-1.9,0c-.6.4-.5,1.2,0,1.7Z"/>
          </g>
          <g class="st2">
            <polygon class="st0" points="593.9 162.6 566.3 147.6 566.3 147.4 583.9 114.5 595.3 161.8 594.6 161.9 583.6 116.1 567 147.4 594.2 162.2 593.9 162.6"/>
            <path class="st0" d="M596.2,161.6c.1.7-.3,1.3-1.1,1.5-.8,0-1.5-.3-1.7-1s.3-1.3,1.1-1.5c.8,0,1.5.3,1.7,1Z"/>
            <path class="st0" d="M593.3,163.4c.6.4,1.5.2,1.9-.4.4-.6.2-1.3-.5-1.7s-1.5-.2-1.9.4c-.4.6-.2,1.3.5,1.7Z"/>
          </g>
          <g class="st2">
            <polygon class="st0" points="583.4 115.5 585.1 107.9 585.7 108 584.1 115 599.8 115.1 586.6 107.7 586.9 107.2 601.9 115.7 583.4 115.5"/>
            <path class="st0" d="M586.1,108.5c-.6-.4-.9-1.1-.4-1.7.4-.5,1.3-.8,1.9-.4s.9,1.1.4,1.7c-.4.5-1.3.8-1.9.4Z"/>
            <path class="st0" d="M586.7,108.3c.2-.7-.3-1.3-1.1-1.4-.7-.2-1.5.3-1.6.9s.3,1.3,1.1,1.4c.7.2,1.5-.3,1.6-.9Z"/>
          </g>
          <g class="st2">
            <path class="st0" d="M594.6,161.9l-11.2-46.9h17.8c0,.1,0,.4,0,.4l-5.6,46.5h-.5s-.5,0-.5,0h0ZM584.1,115.6l10.9,45.7,5.4-45.7h-16.4c0-.1.1,0,.1,0Z"/>
            <path class="st0" d="M596.7,161.9c0,.7-.7,1.2-1.5,1.1s-1.4-.7-1.2-1.3c0-.7.7-1.2,1.5-1.1s1.4.7,1.2,1.3Z"/>
            <path class="st0" d="M593.6,162.1c.1.7.9,1.1,1.7,1,.8,0,1.3-.8,1.1-1.5-.1-.7-.9-1.1-1.7-1-.8,0-1.3.8-1.1,1.5Z"/>
          </g>
          <g class="st2">
            <polygon class="st0" points="520.8 125.5 520.7 125.2 509.6 93.9 510.2 93.7 521.1 124.8 541.3 118.3 510.3 93.7 510.6 93.3 542.5 118.5 520.8 125.5"/>
            <path class="st0" d="M508.6,94.2c-.2-.7.2-1.3.9-1.6s1.5.2,1.8.8c.2.7-.2,1.3-.9,1.6s-1.5-.2-1.8-.8Z"/>
            <path class="st0" d="M511.5,92.6c-.5-.5-1.4-.4-1.9.1s-.4,1.3.1,1.7c.5.5,1.4.4,1.9-.1s.4-1.3-.1-1.7Z"/>
          </g>
          <g class="st2">
            <path class="st0" d="M542,118.9l-.3-.3-31.4-25,.4-.3.2-.4,37.2,13.5-6,12.5ZM511.1,93.6l30.7,24.4,5.4-11.3-36.1-13.1h0Z"/>
            <path class="st0" d="M510.3,94.3c-.7-.3-1.1-.9-.8-1.6.3-.6,1-1,1.8-.7.7.3,1.1.9.8,1.6-.3.6-1,1-1.8.7Z"/>
            <path class="st0" d="M511.5,92.6c-.5-.5-1.4-.4-1.9.1s-.4,1.3.1,1.7c.5.5,1.4.4,1.9-.1s.4-1.3-.1-1.7Z"/>
          </g>
          <g class="st2">
            <polygon class="st0" points="532.9 130.1 520.1 125 542.5 117.9 535.2 129.5 534.7 129.2 541.2 118.9 521.8 125.1 533.2 129.6 532.9 130.1"/>
            <path class="st0" d="M536.1,129.9c-.4.6-1.3.8-1.9.4-.6-.4-.9-1.1-.5-1.7s1.3-.8,1.9-.4.9,1.1.5,1.7Z"/>
            <path class="st0" d="M532.5,130.9c.7.3,1.5,0,1.8-.6.3-.6,0-1.4-.7-1.7-.7-.3-1.5,0-1.8.6-.3.6,0,1.4.7,1.7Z"/>
          </g>
          <g class="st2">
            <path class="st0" d="M561.5,143.7l-27.6-13.4,8-12.5.3.4,20.2,24.7-.5.3-.3.5h-.1ZM534.7,130.2l27.1,13.1-19.9-24.3-7.2,11.3h-.1Z"/>
            <path class="st0" d="M563.1,142.3c.4.6.3,1.3-.3,1.7-.6.4-1.5.3-1.9-.3s-.3-1.3.3-1.7c.6-.4,1.5-.3,1.9.3Z"/>
            <path class="st0" d="M560.9,144.6c.6.4,1.5.1,1.9-.5s.1-1.3-.6-1.7c-.6-.4-1.5-.1-1.9.5s-.1,1.3.6,1.7Z"/>
          </g>
          <g class="st2">
            <polygon class="st0" points="541.4 118.7 546.8 107.5 547.4 107.7 542.4 118.2 581.9 115.1 548.7 107.1 548.9 106.6 585.5 115.4 541.4 118.7"/>
            <path class="st0" d="M548.6,108.1c-.7-.2-1.2-.8-1-1.5.2-.6.9-1.1,1.6-.9s1.2.8,1,1.5c-.2.6-.9,1.1-1.6.9Z"/>
            <path class="st0" d="M548.3,108.1c.3-.6,0-1.4-.7-1.7-.7-.3-1.5,0-1.8.6-.3.6,0,1.4.7,1.7.7.3,1.5,0,1.8-.6Z"/>
          </g>
          <g class="st2">
            <polygon class="st0" points="561.8 143.3 541.3 118.2 584.3 115 563.8 143.3 563.2 142.9 583.2 115.6 542.4 118.6 562.3 143 561.8 143.3"/>
            <path class="st0" d="M564.7,143.7c-.5.5-1.3.7-1.9.3-.6-.4-.8-1.2-.4-1.7.5-.5,1.3-.7,1.9-.3s.8,1.2.4,1.7Z"/>
            <path class="st0" d="M560.9,143.8c.4.6,1.4.7,1.9.3.6-.4.7-1.2.3-1.7-.4-.6-1.4-.7-1.9-.3-.6.4-.7,1.2-.3,1.7Z"/>
          </g>
          <g class="st1">
            <polygon class="st0" points="688.3 43.1 681.3 33.7 681.7 33.3 688.5 42.4 713.5 33 682.1 32.8 682.1 32.2 716.5 32.4 688.3 43.1"/>
            <path class="st0" d="M680.4,34.2c-.4-.6-.3-1.3.4-1.7.7-.3,1.5-.2,1.9.4s.3,1.3-.4,1.7c-.7.3-1.5.2-1.9-.4Z"/>
            <path class="st0" d="M682.1,31.3c-.8,0-1.4.6-1.4,1.2,0,.7.6,1.3,1.4,1.2s1.4-.6,1.4-1.2c0-.7-.6-1.3-1.4-1.2Z"/>
          </g>
          <g class="st1">
            <polygon class="st0" points="711.5 67.4 689 43.9 689.4 43.5 711 66.1 714.7 33.1 689.7 42.5 689.4 42 715.3 32.3 711.5 67.4"/>
            <path class="st0" d="M688.2,44.5c-.5-.6-.4-1.3.2-1.7.6-.4,1.5-.4,1.9.2.5.6.4,1.3-.2,1.7-.6.4-1.5.4-1.9-.2Z"/>
            <path class="st0" d="M689.1,41.2c-.7.2-1,1-.7,1.6.3.6,1.1.9,1.8.7.7-.2,1-1,.7-1.6s-1.1-.9-1.8-.7Z"/>
          </g>
          <g class="st2">
            <polygon class="st0" points="-20.2 19.8 -20.3 19.2 -5.2 17.8 -17.6 8.2 -20.9 18.5 -21.5 18.4 -17.9 7.2 -3.7 18.2 -20.2 19.8"/>
            <path class="st0" d="M-20,20.7c-.8,0-1.4-.4-1.5-1.1s.4-1.3,1.2-1.4,1.4.4,1.5,1.1-.4,1.3-1.2,1.4Z"/>
            <path class="st0" d="M-22.5,18c-.3.6.2,1.4.9,1.5s1.5,0,1.7-.8-.2-1.4-.9-1.5c-.7-.2-1.5,0-1.7.8Z"/>
          </g>
          <g class="st2">
            <polygon class="st0" points="-4.2 18.5 -18.2 7.7 3.9 -12 4.4 -11.6 -17.3 7.7 -4.6 17.6 4.4 -11.5 5 -11.3 -4.2 18.5"/>
            <path class="st0" d="M3.1-12.6c.6-.4,1.4-.5,1.9,0s.6,1.3,0,1.7c-.6.4-1.4.5-1.9,0s-.6-1.3,0-1.7Z"/>
            <path class="st0" d="M6-11c.2-.6-.2-1.4-1-1.5s-1.5,0-1.7.8c-.2.6.2,1.4,1,1.5.8.1,1.5,0,1.7-.8Z"/>
          </g>
          <g class="st2">
            <polygon class="st0" points="505.9 120.6 492.9 105.6 493.4 105.3 505.5 119.2 509.1 93.3 493.6 104 493.2 103.6 509.9 92 505.9 120.6"/>
            <path class="st0" d="M494.4,104.7c-.6.4-1.5.3-1.9-.3s-.4-1.3.3-1.7c.6-.4,1.5-.3,1.9.3s.4,1.3-.3,1.7Z"/>
            <path class="st0" d="M494.4,104.7c-.4-.6-1.3-.6-1.9-.3-.6.4-.7,1.2-.3,1.7s1.3.6,1.9.3c.6-.4.7-1.2.3-1.7Z"/>
          </g>
          <g class="st2">
            <path class="st0" d="M506.6,153l-.5-.3h-.6s0-33.2,0-33.2l16,5.5-.2.3s-14.7,27.7-14.7,27.7ZM506,120.3v32.4s14.6-27.4,14.6-27.4l-14.5-5h0Z"/>
            <path class="st0" d="M507.6,153.3c-.4.6-1.1.9-1.9.6-.7-.3-1-1-.7-1.7.4-.6,1.1-.9,1.9-.6s1,1,.7,1.7Z"/>
            <path class="st0" d="M504.4,152.7c0,.7.6,1.3,1.4,1.2s1.4-.6,1.4-1.2c0-.7-.6-1.3-1.4-1.2s-1.4.6-1.4,1.2Z"/>
          </g>
          <g class="st2">
            <path class="st0" d="M521.4,125.6l-16-5.5,3.7-26.3h.6c0,0,.6,0,.6,0l11.2,31.8h0ZM506.1,119.8l14.5,5-10.9-30.6-3.6,25.8h0Z"/>
            <path class="st0" d="M508.6,94.2c-.2-.7.2-1.3.9-1.6s1.5.2,1.8.8c.2.7-.2,1.3-.9,1.6s-1.5-.2-1.8-.8Z"/>
            <path class="st0" d="M510.7,94.1c0-.7-.5-1.3-1.2-1.4-.7,0-1.5.4-1.5,1.1s.5,1.3,1.2,1.4c.7,0,1.5-.4,1.5-1.1Z"/>
          </g>
          <g class="st2">
            <polygon class="st0" points="-5.5 129.7 -10.5 125.2 27.7 87.8 28.2 88.1 -3.4 129.5 -3.9 129.2 25.3 91 -9.7 125.1 -5.1 129.3 -5.5 129.7"/>
            <path class="st0" d="M-2.5,130c-.5.5-1.3.7-1.9.3s-.8-1.2-.4-1.7c.5-.5,1.3-.7,1.9-.3.6.4.8,1.2.4,1.7Z"/>
            <path class="st0" d="M-6.3,130.3c.5.5,1.4.5,1.9,0,.6-.4.5-1.2,0-1.7s-1.4-.5-1.9,0c-.6.4-.5,1.2,0,1.7Z"/>
          </g>
          <g class="st2">
            <polygon class="st0" points="-8.9 124.5 -9.5 124.1 27.4 88.1 1.5 78 -9.5 124.1 -10.1 124 1.1 77.2 28.5 87.9 -8.9 124.5"/>
            <path class="st0" d="M-8.5,124.2c-.2.7-.9,1.1-1.6.9s-1.3-.8-1.1-1.4c.2-.7.9-1.1,1.6-.9s1.3.8,1.1,1.4Z"/>
            <path class="st0" d="M-10.2,123.5c-.5.5-.5,1.2.1,1.7.5.5,1.4.4,1.9-.1s.5-1.2-.1-1.7c-.5-.5-1.4-.4-1.9.1Z"/>
          </g>
          <g class="st2">
            <polygon class="st0" points="27.5 88.3 27.6 87.9 44.5 16 45.1 16.2 28.4 87.6 75.1 79.5 45.3 16.1 45.8 15.9 76 80 27.5 88.3"/>
            <path class="st0" d="M44.3,16.5c-.3-.6,0-1.3.7-1.6s1.5,0,1.8.7c.3.6,0,1.3-.7,1.6s-1.5,0-1.8-.7Z"/>
            <path class="st0" d="M46.1,16.4c.2-.7-.3-1.3-1.1-1.4s-1.5.3-1.6.9c-.2.7.3,1.3,1.1,1.4.7.2,1.5-.3,1.6-.9Z"/>
          </g>
          <g class="st2">
            <polygon class="st0" points="59 95 26.5 88 76.4 79.3 61.4 94.3 61 94 74.7 80.1 29.4 88 59.1 94.4 59 95"/>
            <path class="st0" d="M62.3,94.9c-.5.5-1.4.6-1.9.1s-.6-1.3-.1-1.7c.5-.5,1.4-.6,1.9-.1s.6,1.3.1,1.7Z"/>
            <path class="st0" d="M58.7,95.9c.7.2,1.5-.2,1.6-.9.2-.6-.3-1.3-1-1.5-.7-.2-1.5.2-1.6.9s.3,1.3,1,1.5Z"/>
          </g>
          <g class="st2">
            <polygon class="st0" points="181 66.4 156.9 41.1 167.5 34.8 167.8 35.3 157.8 41.3 179.5 63.9 168.9 35.6 169.5 35.5 181 66.4"/>
            <path class="st0" d="M167.9,36c-.2-.7.1-1.3.9-1.6.7-.2,1.5.1,1.8.8.2.7-.1,1.3-.9,1.6-.7.2-1.5-.1-1.8-.8Z"/>
            <path class="st0" d="M168.4,36.1c.7-.3.8-1.2.4-1.7s-1.3-.7-1.9-.4-.8,1.2-.4,1.7,1.3.7,1.9.4Z"/>
          </g>
          <g class="st2">
            <path class="st0" d="M172.6,77.7l-15-35.3h.5c0-.1.4-.5.4-.5l22.2,23.2v.2c0,0-8,12.4-8,12.4h0ZM158.3,42.5l14.4,33.8,7.2-11.2-21.5-22.6Z"/>
            <path class="st0" d="M156.6,42.7c-.2-.7.1-1.3.8-1.6s1.5.1,1.7.7c.2.7-.1,1.3-.8,1.6s-1.5-.1-1.7-.7Z"/>
            <path class="st0" d="M159.3,41.3c-.5-.6-1.3-.6-1.9-.2-.6.4-.6,1.2-.2,1.7.5.6,1.3.6,1.9.2.6-.4.6-1.2.2-1.7Z"/>
          </g>
          <g class="st2">
            <path class="st0" d="M180.1,65.6l-11.2-30h.5c0-.1.4-.5.4-.5l20.3,21.5-10,8.9h.1ZM169.6,35.7l10.7,29,9-8-19.7-20.9Z"/>
            <path class="st0" d="M168.6,36.1c-.5-.6-.4-1.3.2-1.7.6-.4,1.5-.4,1.9.2.5.6.4,1.3-.2,1.7s-1.5.4-1.9-.2Z"/>
            <path class="st0" d="M170.5,35.2c-.2-.7-1.1-1-1.8-.8s-1.1.9-.9,1.6,1.1,1,1.8.8,1.1-.9.9-1.6Z"/>
          </g>
          <g class="st2">
            <polygon class="st0" points="184.6 113.5 172.7 78.1 173.3 78 183.5 108.6 180 66 173.6 76.1 173 75.8 180.5 64.2 184.6 113.5"/>
            <path class="st0" d="M171.7,78.5c-.2-.7.2-1.3.9-1.6.7-.1,1.5.2,1.8.8.2.7-.2,1.3-.9,1.6-.7.1-1.5-.2-1.8-.8Z"/>
            <path class="st0" d="M172.1,75.3c-.4.6-.1,1.3.5,1.7.6.4,1.5.1,1.9-.4.4-.6.1-1.3-.5-1.7s-1.5-.1-1.9.4Z"/>
          </g>
          <g class="st2">
            <path class="st0" d="M183.6,109.9l-3.8-44.9,10.2-9.1v.7c0,0-5.6,53.3-5.6,53.3h-.4s-.4,0-.4,0h0ZM180.5,65.2l3.5,42.6,5.3-50.5-8.8,7.8h0Z"/>
            <path class="st0" d="M185.5,110c0,.7-.7,1.2-1.5,1.1s-1.4-.7-1.3-1.3c0-.7.7-1.2,1.5-1.1s1.4.7,1.3,1.3Z"/>
            <path class="st0" d="M182.6,110c0,.7.7,1.2,1.5,1.1s1.4-.6,1.3-1.3-.7-1.2-1.5-1.1-1.4.6-1.3,1.3Z"/>
          </g>
          <g class="st2">
            <polygon class="st0" points="556.8 50.9 555 39.7 555.6 39.7 557.3 49.9 596.8 22.9 556.5 38.3 556.3 37.9 601 20.7 556.8 50.9"/>
            <path class="st0" d="M554,39.9c0-.7.4-1.3,1.2-1.4s1.4.4,1.6,1.1c0,.7-.4,1.3-1.2,1.4s-1.4-.4-1.6-1.1Z"/>
            <path class="st0" d="M555.9,36.9c-.7.2-1,1-.7,1.6.3.6,1.2.9,1.8.7s1-1,.7-1.6c-.3-.6-1.2-.9-1.8-.7Z"/>
          </g>
          <g class="st2">
            <path class="st0" d="M556.8,52.8v-2.4s.1,0,.1,0l40.8-28.1.4.5-41.3,30h0ZM557.3,50.6v1c0,0,24.4-17.6,24.4-17.6l-24.4,16.6Z"/>
            <path class="st0" d="M597,21.5c.6-.4,1.5-.3,1.9.3.4.6.4,1.3-.3,1.7s-1.5.3-1.9-.3c-.4-.6-.4-1.3.3-1.7Z"/>
            <path class="st0" d="M598.7,23.5c.6-.4.7-1.3.2-1.7-.4-.6-1.3-.6-1.9-.2-.6.4-.7,1.3-.2,1.7.4.6,1.3.6,1.9.2Z"/>
          </g>
          <g class="st2">
            <path class="st0" d="M564.6,73.3l-7.9-21.2,41-29.8.3.4.4.3-33.9,50.4h0ZM557.4,52.2l7.3,19.8,33-49s-40.4,29.2-40.4,29.2Z"/>
            <path class="st0" d="M597,21.6c.6-.4,1.5-.3,1.9.2.4.6.4,1.3-.2,1.7s-1.5.3-1.9-.2c-.4-.6-.4-1.3.2-1.7Z"/>
            <path class="st0" d="M599.4,23.5c.4-.6.2-1.3-.5-1.7-.6-.4-1.5-.2-1.9.4s-.2,1.3.5,1.7,1.5.2,1.9-.4Z"/>
          </g>
          <g class="st2">
            <polygon class="st0" points="610.7 85.2 610.3 85.1 564.2 72.8 597.9 22.7 598.5 22.9 565.2 72.4 610 84.4 598.8 23 599.4 22.9 610.7 85.2"/>
            <path class="st0" d="M597,22.2c.4-.6,1.3-.8,1.9-.4.6.4.9,1.1.5,1.7-.4.6-1.3.8-1.9.4s-.9-1.1-.5-1.7Z"/>
            <path class="st0" d="M600.5,22.8c0-.7-.9-1.1-1.6-1-.8,0-1.3.7-1.1,1.4,0,.7.9,1.1,1.6,1,.8,0,1.3-.7,1.1-1.4Z"/>
          </g>
          <g class="st2">
            <path class="st0" d="M610.1,85.2v-.4s-11.4-61.9-11.4-61.9h.7s15,60.3,15,60.3l-4.4,1.9h0ZM600.9,31.1l9.7,53.4,3.2-1.4-13-52h0Z"/>
            <path class="st0" d="M597.8,23.2c0-.7.4-1.3,1.1-1.4s1.4.4,1.6,1-.4,1.3-1.1,1.4-1.4-.4-1.6-1Z"/>
            <path class="st0" d="M600.6,22.8c-.1-.7-.9-1-1.7-1s-1.3.8-1,1.5c.1.7.9,1,1.7,1s1.3-.8,1-1.5Z"/>
          </g>
          <g class="st2">
            <polygon class="st0" points="614.2 84.3 598.9 23 599.5 22.9 614.2 82 629 34 599.9 22.5 600.2 22 629.8 33.8 629.7 34 614.2 84.3"/>
            <path class="st0" d="M597.9,23.3c-.1-.7.3-1.3,1-1.5.8,0,1.5.3,1.7,1,.1.7-.3,1.3-1,1.5-.8,0-1.5-.3-1.7-1Z"/>
            <path class="st0" d="M600.8,21.2c-.7-.3-1.5,0-1.9.6-.3.6,0,1.3.7,1.7.7.3,1.5,0,1.9-.6s0-1.3-.7-1.7Z"/>
          </g>
          <g class="st2">
            <polygon class="st0" points="629.9 34.4 598.3 21.8 618.6 10.4 618.9 10.8 599.6 21.7 628.8 33.4 619.9 11.2 620.5 11 629.9 34.4"/>
            <path class="st0" d="M619,11.5c-.2-.7.1-1.3.8-1.6s1.5.1,1.8.8c.2.7-.1,1.3-.8,1.6s-1.5-.1-1.8-.8Z"/>
            <path class="st0" d="M619.4,11.7c.7-.3.8-1.2.4-1.7s-1.3-.7-1.9-.4-.8,1.2-.4,1.7c.4.6,1.3.7,1.9.4Z"/>
          </g>
          <g class="st2">
            <polygon class="st0" points="646 109.2 645.9 108.6 690.9 108.9 648.7 90.5 645.2 107.8 644.6 107.7 648.2 89.8 693.6 109.4 646 109.2"/>
            <path class="st0" d="M646.2,107.8c-.2.7-.8,1.2-1.6,1s-1.3-.8-1.1-1.4c.2-.7.8-1.2,1.6-1,.7.2,1.3.8,1.1,1.4Z"/>
            <path class="st0" d="M646,107.7c-.8,0-1.4.6-1.4,1.2,0,.7.6,1.3,1.4,1.2s1.4-.6,1.4-1.2c0-.7-.6-1.3-1.4-1.2Z"/>
          </g>
          <g class="st2">
            <polygon class="st0" points="680.9 140.2 680.6 139.9 645.4 109.9 645.8 109.5 680.7 139.2 691.8 109.4 646 109.2 645.9 108.6 692.7 108.9 680.9 140.2"/>
            <path class="st0" d="M644.7,110.7c-.5-.5-.6-1.3-.1-1.7.6-.5,1.4-.5,1.9-.1s.6,1.3.1,1.7c-.6.5-1.4.5-1.9.1Z"/>
            <path class="st0" d="M646,107.7c-.8,0-1.4.6-1.4,1.2,0,.7.6,1.3,1.4,1.2s1.4-.6,1.4-1.2c0-.7-.6-1.3-1.4-1.2Z"/>
          </g>
          <g class="st2">
            <polygon class="st0" points="693.2 109.9 649.5 90.9 649.8 90.5 691.2 108.4 654.3 65.3 649 89.1 648.4 89 653.9 64 693.2 109.9"/>
            <path class="st0" d="M650.1,89.3c-.2.7-.8,1.1-1.6.9-.7-.2-1.3-.8-1.1-1.4s.8-1.1,1.6-.9c.7.2,1.3.8,1.1,1.4Z"/>
            <path class="st0" d="M650.3,89.6c-.7-.3-1.5,0-1.9.5s0,1.3.6,1.7c.7.3,1.5,0,1.9-.5.4-.6,0-1.3-.6-1.7Z"/>
          </g>
          <g class="st2">
            <polygon class="st0" points="692.3 109.7 654.7 65.8 655.2 65.5 692.1 108.6 710.7 67 655.4 65 655.4 64.4 711.7 66.5 692.3 109.7"/>
            <path class="st0" d="M655.4,65.9c-.8,0-1.3-.6-1.3-1.3,0-.7.6-1.2,1.4-1.2.8,0,1.3.6,1.3,1.3,0,.7-.6,1.2-1.4,1.2Z"/>
            <path class="st0" d="M656.1,64.9c-.4-.6-1.3-.6-1.9-.3-.6.4-.7,1.2-.3,1.7.4.6,1.3.6,1.9.3s.7-1.2.3-1.7Z"/>
          </g>
          <g class="st1">
            <polygon class="st0" points="691.5 109.9 710.5 67.7 711 68 692.8 108.5 726 88.9 711.7 67.9 712.2 67.6 726.9 89.1 726.6 89.2 691.5 109.9"/>
            <path class="st0" d="M710.7,68.5c-.4-.6-.2-1.4.5-1.7.7-.3,1.5,0,1.9.4.4.6.2,1.4-.5,1.7-.7.3-1.5,0-1.9-.4Z"/>
            <path class="st0" d="M712,68.3c.3-.6,0-1.4-.8-1.6s-1.5,0-1.8.7,0,1.4.8,1.6,1.5,0,1.8-.7Z"/>
          </g>
          <g class="st2">
            <polygon class="st0" points="134.5 86 118.9 51 119.2 50.8 150.3 39.5 150.5 40.1 119.7 51.3 134.5 84.5 150.9 40.4 151.6 40.6 134.5 86"/>
            <path class="st0" d="M149.8,38.7c.7-.2,1.5.1,1.8.7.2.6,0,1.3-.8,1.7-.7.2-1.5-.1-1.8-.7-.2-.6,0-1.3.8-1.7Z"/>
            <path class="st0" d="M152.5,41c.3-.6,0-1.4-.9-1.5s-1.5,0-1.7.8c-.3.6,0,1.4.9,1.5s1.5,0,1.7-.8Z"/>
          </g>
          <g class="st2">
            <polygon class="st0" points="117.1 52.2 142.1 35.6 150.5 38.7 150.4 39.2 142.1 36.3 121.4 50.1 150.3 39.5 150.5 40.1 117.1 52.2"/>
            <path class="st0" d="M149.8,38.7c.7-.2,1.5.1,1.8.7.2.6,0,1.3-.8,1.7-.7.2-1.5-.1-1.8-.7-.2-.6,0-1.3.8-1.7Z"/>
            <path class="st0" d="M149.8,40.1c.7.3,1.5,0,1.8-.7s0-1.4-.8-1.6c-.7-.3-1.5,0-1.8.7s0,1.4.8,1.6Z"/>
          </g>
          <g class="st2">
            <polygon class="st0" points="134.8 85.4 134.3 85.1 150.9 40.4 151.6 40.6 136.6 80.6 156.9 41.3 152.8 40.1 153 39.6 157.8 41 157.6 41.3 134.8 85.4"/>
            <path class="st0" d="M149.9,40.2c.3-.6,1-1,1.7-.8s1.2.9.9,1.5-1,1-1.7.8-1.2-.9-.9-1.5Z"/>
            <path class="st0" d="M153.4,38.6c-.7-.3-1.5,0-1.7.8-.3.6,0,1.4.9,1.5s1.5,0,1.7-.8,0-1.4-.9-1.5Z"/>
          </g>
          <g class="st2">
            <polygon class="st0" points="300.7 144.1 280.7 139 296.5 119.6 302.1 142.9 301.5 143.1 296.2 121 281.6 138.8 300.9 143.6 300.7 144.1"/>
            <path class="st0" d="M303.1,142.6c.1.7-.3,1.3-1.1,1.5-.8,0-1.5-.3-1.7-1-.1-.7.3-1.3,1.1-1.5.8,0,1.5.3,1.7,1Z"/>
            <path class="st0" d="M300.4,145c.7.2,1.5,0,1.6-.8s-.2-1.3-1-1.5c-.7-.2-1.5,0-1.6.8-.2.6.2,1.3,1,1.5Z"/>
          </g>
          <g class="st2">
            <polygon class="st0" points="347.3 145.4 296.1 120.5 296.1 120.3 297.9 99.3 298.5 99.4 296.6 120.1 344.4 143.4 298.9 99.2 299.3 98.9 347.3 145.4"/>
            <path class="st0" d="M298.2,99.9c-.5-.5-.5-1.3,0-1.7.6-.4,1.5-.4,1.9,0,.5.5.5,1.3,0,1.7s-1.5.4-1.9,0Z"/>
            <path class="st0" d="M299.5,99.5c0-.7-.5-1.3-1.3-1.3-.8,0-1.4.5-1.5,1.1,0,.7.5,1.3,1.3,1.3.8,0,1.4-.5,1.5-1.1Z"/>
          </g>
          <g class="st2">
            <polygon class="st0" points="335 149.6 301.9 144.4 301.8 144.2 295.9 119.6 335.5 148.5 335.1 148.9 296.8 121 302.3 143.9 335.1 149 335 149.6"/>
            <path class="st0" d="M336.2,147.8c.6.5.7,1.3.1,1.7-.5.5-1.4.6-1.9.1-.6-.5-.7-1.3-.1-1.7.5-.5,1.4-.6,1.9-.1Z"/>
            <path class="st0" d="M334.7,150.5c.7.2,1.5-.3,1.6-1s-.4-1.3-1.1-1.4-1.5.3-1.6,1,.4,1.3,1.1,1.4Z"/>
          </g>
          <g class="st2">
            <polygon class="st0" points="337.7 149.1 337.3 148.6 345.3 144.5 299.1 122 335.5 148.5 335.1 148.9 296.2 120.5 296.5 120 346.5 144.4 337.7 149.1"/>
            <path class="st0" d="M338.2,149.9c-.7.3-1.5,0-1.9-.5s0-1.4.5-1.7,1.5,0,1.9.5,0,1.4-.5,1.7Z"/>
            <path class="st0" d="M334.4,149.7c.6.5,1.4.4,1.9-.1s.4-1.3-.1-1.7c-.6-.5-1.4-.4-1.9.1s-.4,1.3.1,1.7Z"/>
          </g>
          <g class="st2">
            <polygon class="st0" points="646.1 175.2 645.9 174.7 678.7 168.4 680.4 140.5 645.8 174.5 645.3 174.2 681.1 139 679.2 168.9 646.1 175.2"/>
            <path class="st0" d="M646.7,175.2c-.5.5-1.4.5-1.9.1-.5-.5-.6-1.3-.1-1.7.5-.5,1.4-.5,1.9-.1.5.5.6,1.3.1,1.7Z"/>
            <path class="st0" d="M645.8,173.7c-.8,0-1.3.8-1,1.5.1.7.9,1,1.7,1s1.3-.8,1-1.5c-.1-.7-.9-1-1.7-1Z"/>
          </g>
          <g class="st2">
            <polygon class="st0" points="279.8 138.6 250 125.1 287.2 109.5 281.7 137.9 281.1 137.7 286.4 110.5 251.4 125.1 280.1 138.2 279.8 138.6"/>
            <path class="st0" d="M282.7,137.9c-.2.7-.8,1.2-1.6,1-.7-.2-1.3-.7-1.1-1.4s.8-1.2,1.6-1c.7.2,1.3.7,1.1,1.4Z"/>
            <path class="st0" d="M279.3,139.4c.7.4,1.5.1,1.9-.5.4-.6.1-1.3-.6-1.7s-1.5-.1-1.9.5c-.4.6-.1,1.3.6,1.7Z"/>
          </g>
          <g class="st2">
            <polygon class="st0" points="252 124.9 251.7 124.4 286.5 109.9 282.8 80.2 251.6 124.3 251.1 124 283.2 78.5 287.2 110.2 252 124.9"/>
            <path class="st0" d="M252.6,124.8c-.4.5-1.3.8-1.9.3-.6-.4-.9-1.1-.4-1.7.4-.5,1.3-.8,1.9-.3.6.4.9,1.1.4,1.7Z"/>
            <path class="st0" d="M251.4,123.4c-.7.2-.9,1.1-.7,1.6s1.2.9,1.8.6c.7-.2.9-1.1.7-1.6-.3-.6-1.2-.9-1.8-.6Z"/>
          </g>
          <g class="st2">
            <path class="st0" d="M282.1,138.1l-.5-.4h-.6c0,0,5.5-28.4,5.5-28.4l10.1,10.9-.2.2-14.5,17.7h0ZM287,110.6l-5.3,27.1,14.3-17.5-9-9.6Z"/>
            <path class="st0" d="M283,138.7c-.5.5-1.4.7-1.9.2-.6-.4-.8-1.2-.3-1.7s1.4-.7,1.9-.2c.6.4.8,1.2.3,1.7Z"/>
            <path class="st0" d="M280.1,137.5c-.2.7.4,1.3,1.1,1.4s1.5-.3,1.6-1-.4-1.3-1.1-1.4-1.5.3-1.6,1Z"/>
          </g>
          <g class="st2">
            <polygon class="st0" points="286.8 112.4 282.8 80.6 283.5 80.5 286.8 107.7 290.3 83 284.1 80.2 284.3 79.7 290.9 82.6 286.8 112.4"/>
            <path class="st0" d="M283.6,81c-.7-.4-1-1-.6-1.7s1.1-.9,1.9-.5,1,1,.6,1.7-1.1.9-1.9.5Z"/>
            <path class="st0" d="M284.5,80.4c0-.7-.8-1.2-1.5-1.1s-1.3.7-1.2,1.4.8,1.2,1.5,1.1,1.3-.7,1.2-1.4Z"/>
          </g>
          <g class="st2">
            <polygon class="st0" points="286.4 110.9 290.1 84 290.7 84 287.3 109.1 297.9 98.1 290.8 84 291.4 83.8 298.6 98.3 298.5 98.4 286.4 110.9"/>
            <path class="st0" d="M289.9,84.4c-.3-.6,0-1.3.7-1.6.7-.2,1.5,0,1.8.7.3.6,0,1.3-.7,1.6-.7.2-1.5,0-1.8-.7Z"/>
            <path class="st0" d="M291.9,84.2c0-.7-.5-1.3-1.2-1.4-.7,0-1.5.4-1.5,1.1s.5,1.3,1.2,1.4c.7,0,1.5-.4,1.5-1.1Z"/>
          </g>
          <g class="st2">
            <polygon class="st0" points="295.3 119.5 286.4 110 298.6 97.3 296.8 119.1 296.2 119.1 297.8 99 287.3 110 295.8 119.2 295.3 119.5"/>
            <path class="st0" d="M297.8,119.2c0,.7-.7,1.2-1.5,1.1-.8,0-1.3-.6-1.3-1.3s.7-1.2,1.5-1.1c.8,0,1.3.6,1.3,1.3Z"/>
            <path class="st0" d="M294.4,120.1c.5.6,1.3.6,1.9.2.6-.4.6-1.2.2-1.7-.5-.6-1.3-.6-1.9-.2-.6.4-.6,1.2-.2,1.7Z"/>
          </g>
          <g class="st2">
            <path class="st0" d="M655.3,64.1l-.3-.3-.3-.3,14.6-16.2,4.4,2-18.4,14.6h0ZM669.4,48.1l-12.7,14.2,15.9-12.7-3.2-1.5h0Z"/>
            <path class="st0" d="M656,64.5c-.5.5-1.4.6-1.9.1-.6-.5-.7-1.2-.2-1.7s1.4-.6,1.9-.1c.6.5.7,1.2.2,1.7Z"/>
            <path class="st0" d="M654.2,62.9c-.6.4-.6,1.2,0,1.7s1.3.5,1.9,0c.6-.4.6-1.2,0-1.7s-1.3-.5-1.9,0Z"/>
          </g>
          <g class="st2">
            <path class="st0" d="M655.4,64.3l-.2-.3-.3-.3,18.2-14.5,6.5,2s-24.2,13.1-24.2,13.1ZM673.2,49.8l-16.4,13.1,21.3-11.6-4.9-1.5Z"/>
            <path class="st0" d="M656,65.1c-.7.3-1.5,0-1.9-.4-.4-.6-.2-1.4.5-1.7.7-.3,1.5,0,1.9.4.4.6.2,1.4-.5,1.7Z"/>
            <path class="st0" d="M654.2,62.9c-.6.4-.6,1.2,0,1.7s1.3.5,1.9,0c.6-.4.6-1.2,0-1.7s-1.3-.5-1.9,0Z"/>
          </g>
          <g class="st2">
            <polygon class="st0" points="673.3 49.8 670.4 48.5 670.7 48.1 673 49.1 679.3 34.9 670.3 46.9 669.8 46.7 682.1 30.2 673.3 49.8"/>
            <path class="st0" d="M671.3,47.5c-.5.5-1.3.7-1.9.3-.6-.4-.8-1.2-.4-1.7.5-.5,1.3-.7,1.9-.3.6.4.8,1.2.4,1.7Z"/>
            <path class="st0" d="M671.2,47.3c-.7-.4-1.5-.1-1.9.5s-.1,1.3.6,1.7,1.5.1,1.9-.5.1-1.3-.6-1.7Z"/>
          </g>
          <g class="st2">
            <polygon class="st0" points="677.5 51.2 672.4 49.5 689.9 41.8 680 50.6 679.6 50.2 686.8 43.7 674 49.5 677.7 50.6 677.5 51.2"/>
            <path class="st0" d="M680.8,51.2c-.6.4-1.4.5-1.9,0s-.6-1.3,0-1.7c.6-.4,1.4-.5,1.9,0s.6,1.3,0,1.7Z"/>
            <path class="st0" d="M677.1,52c.7.3,1.5,0,1.7-.8.3-.6,0-1.4-.9-1.5-.7-.3-1.5,0-1.7.8s0,1.4.9,1.5Z"/>
          </g>
          <g class="st2">
            <polygon class="st0" points="672.5 50.1 679.9 33.6 680.6 33.7 673.8 48.9 688 42.6 681.3 33.7 681.7 33.3 688.8 42.9 688.5 43 672.5 50.1"/>
            <path class="st0" d="M680.4,34.2c-.4-.6-.3-1.3.4-1.7.7-.3,1.5-.2,1.9.4s.3,1.3-.4,1.7c-.7.3-1.5.2-1.9-.4Z"/>
            <path class="st0" d="M681.5,34.1c.3-.6,0-1.4-.8-1.6s-1.5,0-1.8.7,0,1.4.8,1.6,1.5,0,1.8-.7Z"/>
          </g>
          <g class="st2">
            <path class="st0" d="M615.2,82.4l-.4-.4-.6-.2,15-48.7,13.8,21.2h-.2c0,.1-27.6,28-27.6,28ZM629.5,34.6l-14.7,47.5,27.5-27.7-12.8-19.8Z"/>
            <path class="st0" d="M615.8,82.3c-.2.6-.9,1.1-1.6.8-.7-.2-1.2-.8-1-1.5.2-.6.9-1.1,1.6-.8.7.2,1.2.8,1,1.5Z"/>
            <path class="st0" d="M614.1,81.4c-.5.5-.4,1.3.1,1.7.5.5,1.4.4,1.9-.1s.4-1.3-.1-1.7c-.5-.5-1.4-.4-1.9.1Z"/>
          </g>
          <g class="st2">
            <polygon class="st0" points="642.7 55 629.7 35.1 630.3 34.7 642.7 53.9 651.8 39.3 630.6 34.4 630.7 33.9 652.6 39 642.7 55"/>
            <path class="st0" d="M630.4,35.4c-.7-.2-1.2-.8-1-1.5.2-.6.9-1.1,1.6-.9s1.2.8,1,1.5c-.2.6-.9,1.1-1.6.9Z"/>
            <path class="st0" d="M631.3,34.4c-.3-.6-1.3-.8-1.9-.5-.7.3-.9,1.1-.5,1.6.3.6,1.3.8,1.9.5.7-.3.9-1.1.5-1.6Z"/>
          </g>
          <g class="st2">
            <polygon class="st0" points="642.1 54.8 651.3 40.1 651.8 40.3 643.3 53.9 668.6 47.6 653.2 39.9 653.5 39.5 670.2 47.8 642.1 54.8"/>
            <path class="st0" d="M652.8,40.9c-.6-.4-.9-1-.5-1.7.4-.6,1.3-.8,1.9-.4.6.4.9,1,.5,1.7-.4.6-1.3.8-1.9.4Z"/>
            <path class="st0" d="M652.8,40.9c.4-.6.1-1.3-.5-1.7-.6-.4-1.5-.1-1.9.4-.4.6-.1,1.3.5,1.7.6.4,1.5.1,1.9-.4Z"/>
          </g>
          <g class="st2">
            <polygon class="st0" points="653 64 642.1 54.3 642.6 54.2 670.1 47.2 655.2 64 654.7 63.6 668.5 48.2 643.3 54.5 653.4 63.7 653 64"/>
            <path class="st0" d="M656,64.5c-.5.5-1.4.6-1.9.1-.6-.5-.7-1.2-.2-1.7s1.4-.6,1.9-.1c.6.5.7,1.2.2,1.7Z"/>
            <path class="st0" d="M652.1,64.7c.5.5,1.4.5,1.9,0,.6-.4.5-1.2,0-1.7s-1.4-.5-1.9,0c-.6.4-.5,1.2,0,1.7Z"/>
          </g>
          <g class="st2">
            <polygon class="st0" points="442.2 134.3 441.9 133.9 463.5 119.6 448.7 94.9 441.6 133.7 441 133.6 448.4 93.2 464.2 119.7 442.2 134.3"/>
            <path class="st0" d="M442.6,133.8c-.2.7-.8,1.2-1.6,1-.7-.2-1.3-.7-1.1-1.4s.8-1.2,1.6-1c.7.2,1.3.7,1.1,1.4Z"/>
            <path class="st0" d="M441.3,133.1c-.6.4-.7,1.2-.3,1.7.4.6,1.4.7,1.9.3.6-.4.7-1.2.3-1.7-.4-.6-1.3-.6-1.9-.3Z"/>
          </g>
          <g class="st2">
            <polygon class="st0" points="451.1 139.7 440.4 134.8 440.8 134.6 464.7 118.7 453.2 139.1 452.7 138.8 462.9 120.5 441.6 134.8 451.3 139.2 451.1 139.7"/>
            <path class="st0" d="M454.3,139.4c-.4.6-1.1.9-1.9.5s-1-1-.6-1.7c.4-.6,1.1-.9,1.9-.5s1,1,.6,1.7Z"/>
            <path class="st0" d="M450.5,140.6c.7.4,1.5.1,1.9-.5.4-.6.1-1.3-.6-1.7s-1.5-.1-1.9.5c-.4.6-.1,1.3.6,1.7Z"/>
          </g>
          <g class="st2">
            <polygon class="st0" points="463.9 120.5 448.9 95.2 449.5 94.9 463.7 118.9 467.3 104.5 449.6 94.8 449.9 94.4 468 104.2 468 104.4 463.9 120.5"/>
            <path class="st0" d="M449.1,95.7c-.6-.4-.9-1.1-.5-1.7.4-.6,1.3-.8,1.9-.4.6.4.9,1.1.5,1.7-.4.6-1.3.8-1.9.4Z"/>
            <path class="st0" d="M450.5,94.6c-.3-.6-1.2-.8-1.8-.5-.7.3-.9,1.1-.6,1.6s1.2.8,1.8.5c.7-.3.9-1.1.6-1.6Z"/>
          </g>
          <g class="st2">
            <polygon class="st0" points="504.4 153.8 452 140.2 452.2 139.9 463.7 119.2 464.1 119.4 505 152.9 504.6 153.3 463.9 120.1 452.9 139.8 504.6 153.3 504.4 153.8"/>
            <path class="st0" d="M505.6,152.2c.5.5.6,1.3.1,1.7-.5.5-1.4.5-1.9.1-.5-.5-.6-1.3-.1-1.7.5-.5,1.4-.5,1.9-.1Z"/>
            <path class="st0" d="M504,154.8c.7.2,1.5,0,1.7-.8.3-.6-.2-1.4-.9-1.5-.7-.2-1.5,0-1.7.8-.3.6.2,1.4.9,1.5Z"/>
          </g>
          <g class="st2">
            <polygon class="st0" points="463.3 120.9 467 105.4 467.7 105.6 464.5 118.4 478.2 101.6 469 104.3 468.7 103.7 479.8 100.5 463.3 120.9"/>
            <path class="st0" d="M469.3,105.2c-.7.2-1.5-.1-1.8-.8-.2-.7.1-1.3.9-1.6.7-.2,1.5.1,1.8.8s-.1,1.3-.9,1.6Z"/>
            <path class="st0" d="M468.7,105.8c.2-.7-.3-1.3-1-1.4-.7-.2-1.5.3-1.6.9-.2.7.3,1.3,1,1.4s1.5-.3,1.6-.9Z"/>
          </g>
          <g class="st2">
            <polygon class="st0" points="462.7 120.5 478 101.8 478.6 102.1 464.9 118.7 491.6 104.6 480.2 101.6 480.4 101.1 493.1 104.4 462.7 120.5"/>
            <path class="st0" d="M480,102.5c-.7-.2-1.2-.9-.9-1.5s.9-1.1,1.7-.8c.7.2,1.2.9.9,1.5s-.9,1.1-1.7.8Z"/>
            <path class="st0" d="M479.4,102.8c.5-.5.3-1.3-.3-1.7-.6-.4-1.5-.3-1.9.2-.5.5-.3,1.3.3,1.7.6.4,1.5.3,1.9-.2Z"/>
          </g>
          <g class="st2">
            <polygon class="st0" points="462.7 119.9 491.1 104.9 491.4 105.3 465 119.4 505.1 119.6 492.9 105.6 493.4 105.3 506.3 120.1 462.7 119.9"/>
            <path class="st0" d="M492.2,106.2c-.4-.6-.4-1.3.3-1.7.6-.4,1.5-.3,1.9.3s.4,1.3-.3,1.7c-.6.4-1.5.3-1.9-.3Z"/>
            <path class="st0" d="M491.9,106.2c.7-.3.8-1.1.5-1.7-.4-.6-1.3-.8-1.9-.5-.7.3-.8,1.1-.5,1.7.4.6,1.3.8,1.9.5Z"/>
          </g>
          <g class="st2">
            <polygon class="st0" points="504.6 153.3 463.1 119.4 506 119.7 506.1 152.7 505.5 152.8 505.4 120.2 464.6 119.9 505 152.9 504.6 153.3"/>
            <path class="st0" d="M505.6,152.2c.5.5.6,1.3.1,1.7-.5.5-1.4.5-1.9.1-.5-.5-.6-1.3-.1-1.7.5-.5,1.4-.5,1.9-.1Z"/>
            <path class="st0" d="M504.4,152.7c0,.7.6,1.3,1.4,1.2s1.4-.6,1.4-1.2c0-.7-.6-1.3-1.4-1.2s-1.4.6-1.4,1.2Z"/>
          </g>
          <g class="st2">
            <polygon class="st0" points="37.9 136 37.4 135.9 -3.1 130.7 -3 130.2 37.2 135.4 27.8 88.7 -3.4 129.5 -3.9 129.2 28.2 87.2 28.2 87.9 37.9 136"/>
            <path class="st0" d="M-2.5,130c-.5.5-1.3.7-1.9.3s-.8-1.2-.4-1.7c.5-.5,1.3-.7,1.9-.3.6.4.8,1.2.4,1.7Z"/>
            <path class="st0" d="M-2.8,129.3c-.7,0-1.5.4-1.5,1,0,.7.4,1.3,1.2,1.4.7,0,1.5-.4,1.5-1,0-.7-.4-1.3-1.2-1.4Z"/>
          </g>
          <g class="st2">
            <polygon class="st0" points="38.3 134.8 37.8 134.5 59.9 95.2 28.3 88.3 37.6 134.5 36.9 134.6 27.6 87.6 28 87.8 60.7 94.8 60.6 95.1 38.3 134.8"/>
            <path class="st0" d="M38.6,134.3c0,.7-.4,1.3-1.1,1.4s-1.4-.3-1.6-1c0-.7.4-1.3,1.1-1.4s1.4.3,1.6,1Z"/>
            <path class="st0" d="M36.9,134.1c-.4.6-.1,1.3.6,1.7s1.5.1,1.9-.5.1-1.3-.6-1.7-1.5-.1-1.9.5Z"/>
          </g>
          <g class="st2">
            <path class="st0" d="M38.6,134.9l-.3-.2-.4-.2,22.4-39.9,8.2,3.8-.2.2-29.7,36.2ZM60.5,95.3l-21.1,37.6,28.1-34.3-7-3.1h0Z"/>
            <path class="st0" d="M39.4,135.1c-.4.6-1.1.9-1.9.5s-1-1-.6-1.7,1.1-.9,1.9-.5,1,1,.6,1.7Z"/>
            <path class="st0" d="M37.2,133.9c-.5.5-.3,1.3.3,1.7s1.5.3,1.9-.2c.5-.5.3-1.3-.3-1.7s-1.5-.3-1.9.2Z"/>
          </g>
          <g class="st2">
            <path class="st0" d="M38.8,135.3l-.3-.4-.4-.3,29.8-36.7,15.8,12.5-44.9,24.8ZM68,98.8l-29.4,35.9,44-24.4-14.7-11.6h0Z"/>
            <path class="st0" d="M39.4,135.4c-.5.5-1.4.7-1.9.2s-.8-1.2-.3-1.7,1.4-.7,1.9-.2.8,1.2.3,1.7Z"/>
            <path class="st0" d="M38,134c-.7.3-.8,1.2-.4,1.7s1.3.7,1.9.4c.7-.3.8-1.2.4-1.7s-1.3-.7-1.9-.4Z"/>
          </g>
          <g class="st2">
            <polygon class="st0" points="70.5 159.2 37 135.7 83.6 109.9 72.3 158.7 71.8 158.5 82.8 111 38 135.7 70.9 158.8 70.5 159.2"/>
            <path class="st0" d="M73.4,158.8c-.2.7-.9,1.1-1.6.9s-1.3-.8-1.1-1.4c.2-.7.9-1.1,1.6-.9s1.3.8,1.1,1.4Z"/>
            <path class="st0" d="M69.9,159.9c.6.5,1.4.3,1.9-.1s.3-1.3-.2-1.7c-.6-.5-1.4-.3-1.9.1-.5.5-.3,1.3.2,1.7Z"/>
          </g>
          <g class="st2">
            <polygon class="st0" points="652.2 40.1 640.9 9.7 641.5 9.4 652.2 38.1 661.2 3.8 642.1 8.4 642 7.9 662.1 3.1 652.2 40.1"/>
            <path class="st0" d="M639.9,10c-.2-.7.1-1.3.9-1.6.7-.2,1.5.1,1.8.8.2.7-.1,1.3-.9,1.6-.7.2-1.5-.1-1.8-.8Z"/>
            <path class="st0" d="M641.7,6.9c-.7.1-1.1.9-1,1.5.2.7,1,1,1.7.9.7-.1,1.1-.9,1-1.5-.2-.7-1-1-1.7-.9Z"/>
          </g>
          <g class="st2">
            <polygon class="st0" points="651.8 39.5 661.1 4.5 661.7 4.7 652.6 38.8 680.3 32.3 662.1 4.7 662.7 4.3 681.2 32.7 651.8 39.5"/>
            <path class="st0" d="M660.1,4.4c.2-.6.9-1.1,1.6-.9s1.2.8,1,1.5c-.2.6-.9,1.1-1.6.9s-1.2-.8-1-1.5Z"/>
            <path class="st0" d="M663.5,3.9c-.3-.6-1.3-.8-1.9-.5s-.8,1.1-.5,1.6c.3.6,1.3.8,1.9.5s.8-1.1.5-1.6Z"/>
          </g>
          <g class="st2">
            <polygon class="st0" points="680.7 33 662.1 4.7 662.7 4.3 680.7 32 714.2 -7.7 663 3.5 662.9 2.9 715.7 -8.5 680.7 33"/>
            <path class="st0" d="M661.2,5.1c-.3-.6,0-1.4.5-1.6.7-.3,1.5,0,1.9.5.3.6,0,1.4-.5,1.6s-1.5,0-1.9-.5Z"/>
            <path class="st0" d="M662.7,2c-.7.1-1.2.8-1,1.5.1.7,1,1,1.7.9.7-.1,1.2-.8,1-1.5-.1-.7-1-1-1.7-.9Z"/>
          </g>
          <g class="st2">
            <polygon class="st0" points="680.1 167.9 679.6 167.6 697.5 150 681.1 140.2 679.3 167.5 678.7 167.4 680.6 139.2 698.4 150 680.1 167.9"/>
            <path class="st0" d="M680.4,167.5c0,.7-.7,1.2-1.4,1.2s-1.3-.6-1.3-1.3c0-.7.7-1.2,1.4-1.2s1.3.6,1.3,1.3Z"/>
            <path class="st0" d="M678.9,166.9c-.5.5-.5,1.2.1,1.7.5.5,1.4.4,1.9-.1s.5-1.2-.1-1.7c-.5-.5-1.4-.4-1.9.1Z"/>
          </g>
          <g class="st2">
            <path class="st0" d="M615.5,82.8l-.2-.4-.4-.4,28.1-28.2,4.1,14.4-31.4,14.7h-.1ZM642.6,55l-27.1,27.3,30.6-14.4-3.7-12.9h0Z"/>
            <path class="st0" d="M616.1,83.1c-.5.5-1.4.6-1.9.1-.5-.5-.6-1.3-.1-1.7.5-.5,1.4-.6,1.9-.1s.6,1.3.1,1.7Z"/>
            <path class="st0" d="M614.8,81.5c-.7.3-.9,1.1-.6,1.6.3.6,1.2.8,1.8.5.7-.3.9-1.1.6-1.6s-1.2-.8-1.8-.5Z"/>
          </g>
          <g class="st2">
            <polygon class="st0" points="648.8 90.5 615.4 83.6 615.5 83.1 648.1 89.8 646.3 68.5 615.5 82.8 615.1 82.4 646.8 67.6 648.8 90.5"/>
            <path class="st0" d="M615.2,84.7c-.7-.2-1.3-.8-1-1.4.2-.7.9-1.1,1.6-.9s1.3.8,1,1.4c-.2.7-.9,1.1-1.6.9Z"/>
            <path class="st0" d="M614.8,81.5c-.7.3-.9,1.1-.6,1.6.3.6,1.2.8,1.8.5.7-.3.9-1.1.6-1.6s-1.2-.8-1.8-.5Z"/>
          </g>
          <g class="st2">
            <polygon class="st0" points="646.3 68.5 642.7 55.6 643.3 55.5 646.7 67.6 653.6 64.6 643.4 55.4 643.8 55.1 654.7 64.8 646.3 68.5"/>
            <path class="st0" d="M642.7,56.2c-.5-.5-.6-1.3,0-1.7.6-.4,1.4-.5,1.9,0s.6,1.3,0,1.7c-.6.4-1.4.5-1.9,0Z"/>
            <path class="st0" d="M644.4,55.4c-.1-.7-1-1-1.7-.9-.7.1-1.2.8-1,1.5.1.7,1,1,1.7.9.7-.1,1.2-.8,1-1.5Z"/>
          </g>
          <g class="st2">
            <path class="st0" d="M649,89.1h-.5c0,0-.5,0-.5,0l-1.8-21.1h.2s8.2-3.7,8.2-3.7l-5.6,24.9h0ZM646.9,68.2l1.7,19.9,5.2-23-6.9,3.1h0Z"/>
            <path class="st0" d="M650.1,89.3c-.2.7-.8,1.1-1.6.9-.7-.2-1.3-.8-1.1-1.4s.8-1.1,1.6-.9c.7.2,1.3.8,1.1,1.4Z"/>
            <path class="st0" d="M647,89.1c0,.7.7,1.2,1.5,1.1s1.4-.6,1.3-1.3-.7-1.2-1.5-1.1-1.4.6-1.3,1.3Z"/>
          </g>
          <g class="st2">
            <polygon class="st0" points="190.1 57.5 189.5 56.8 169.4 35.5 169.8 35.1 189.5 55.9 189.4 13.2 169.8 33.7 169.4 33.4 190 11.7 190.1 57.5"/>
            <path class="st0" d="M168.6,36.1c-.5-.6-.4-1.3.2-1.7.6-.4,1.5-.4,1.9.2.5.6.4,1.3-.2,1.7s-1.5.4-1.9-.2Z"/>
            <path class="st0" d="M168.6,32.6c-.5.5-.4,1.3.1,1.7.6.5,1.4.4,1.9-.1s.4-1.3-.1-1.7c-.6-.5-1.4-.4-1.9.1Z"/>
          </g>
          <g class="st2">
            <polygon class="st0" points="189.4 57.8 189.4 13.6 189.9 13.6 190 55.6 212.1 16.2 190.9 12.9 191.1 12.4 212.9 15.7 212.8 16.1 189.4 57.8"/>
            <path class="st0" d="M188.4,13.7c0-.7.6-1.2,1.4-1.2.8,0,1.3.6,1.4,1.2s-.6,1.2-1.4,1.2c-.8,0-1.3-.6-1.4-1.2Z"/>
            <path class="st0" d="M191.3,11.4c-.7-.2-1.5.3-1.6,1-.2.7.4,1.3,1.1,1.4s1.5-.3,1.6-1c.2-.7-.4-1.3-1.1-1.4Z"/>
          </g>
          <g class="st2">
            <polygon class="st0" points="164.2 150.7 107.2 135 107.4 134.5 162.1 149.5 121.3 112.8 107 133.5 106.5 133.3 121.2 111.9 164.2 150.7"/>
            <path class="st0" d="M108,134.1c-.4.6-1.3.8-1.9.4s-.9-1.1-.4-1.7c.4-.6,1.3-.8,1.9-.4s.9,1.1.4,1.7Z"/>
            <path class="st0" d="M107.7,133.6c-.7-.2-1.5,0-1.7.8-.3.6.2,1.4.9,1.5.7.2,1.5,0,1.7-.8.3-.6-.2-1.4-.9-1.5Z"/>
          </g>
          <g class="st2">
            <polygon class="st0" points="162 149.4 120.4 112 163.4 117.6 163.5 148.9 162.9 149 162.8 118 122.1 112.8 162.5 149.1 162 149.4"/>
            <path class="st0" d="M163.1,148.3c.5.5.6,1.3,0,1.7s-1.4.5-1.9,0-.6-1.3,0-1.7,1.4-.5,1.9,0Z"/>
            <path class="st0" d="M161.7,148.8c0,.7.6,1.3,1.4,1.2s1.4-.6,1.4-1.2c0-.7-.6-1.3-1.4-1.2s-1.4.6-1.4,1.2Z"/>
          </g>
          <g class="st2">
            <polygon class="st0" points="164.4 149.7 164.1 149.2 174.2 143.3 163.4 119.2 163.5 148.9 162.9 149 162.8 116.3 174.9 143.4 164.4 149.7"/>
            <path class="st0" d="M164.6,148.8c0,.7-.6,1.2-1.4,1.2-.8,0-1.3-.6-1.4-1.2s.6-1.2,1.4-1.2,1.3.6,1.4,1.2Z"/>
            <path class="st0" d="M163.5,148.4c-.7.3-.8,1.2-.4,1.7.4.6,1.3.7,1.9.4s.8-1.2.4-1.7-1.3-.7-1.9-.4Z"/>
          </g>
          <g class="st1">
            <polygon class="st0" points="681 32.7 680.5 32.3 715 -8.6 718.3 -4.1 717.9 -3.8 715 -7.7 684.2 29 717.7 -2.3 718.1 -2 681 32.7"/>
            <path class="st0" d="M716.8-3c.6-.5,1.4-.5,1.9-.1.5.5.6,1.3.1,1.7-.6.5-1.4.5-1.9.1-.5-.5-.6-1.3-.1-1.7Z"/>
            <path class="st0" d="M716.9-3.4c.4.6,1.3.7,1.9.4s.8-1.2.4-1.7-1.3-.7-1.9-.4-.8,1.2-.4,1.7Z"/>
          </g>
          <g class="st1">
            <polygon class="st0" points="680 32.7 717.7 -2.3 718.1 -2 681.5 32.2 714.8 32.4 718.4 -1.9 719 -1.8 715.3 33 680 32.7"/>
            <path class="st0" d="M716.8-3c.6-.5,1.4-.5,1.9-.1.5.5.6,1.3.1,1.7-.6.5-1.4.5-1.9.1-.5-.5-.6-1.3-.1-1.7Z"/>
            <path class="st0" d="M720-1.6c0-.7-.5-1.3-1.3-1.3s-1.5.4-1.5,1.1.5,1.3,1.3,1.3,1.5-.4,1.5-1.1Z"/>
          </g>
          <g class="st2">
            <polygon class="st0" points="-8.3 64.7 -21.5 20.8 -20.9 20.6 -8.1 63.1 4.7 36.9 -20.7 20.5 -20.3 20.1 5.5 36.7 -8.3 64.7"/>
            <path class="st0" d="M-22.5,21.2c-.2-.7.2-1.3,1-1.5.7-.1,1.5.2,1.7.9.2.7-.2,1.3-1,1.5-.7.1-1.5-.2-1.7-.9Z"/>
            <path class="st0" d="M-19.6,19.4c-.6-.4-1.5-.3-1.9.2s-.3,1.3.3,1.7c.6.4,1.5.3,1.9-.2.5-.5.3-1.3-.3-1.7Z"/>
          </g>
          <g class="st2">
            <polygon class="st0" points="5.8 37.6 -20.7 20.5 -20.3 20.1 4.3 36 -4.7 18.3 -20.2 19.8 -20.3 19.2 -4.2 17.7 5.8 37.6"/>
            <path class="st0" d="M-20,20.7c-.8,0-1.4-.4-1.5-1.1s.4-1.3,1.2-1.4,1.4.4,1.5,1.1-.4,1.3-1.2,1.4Z"/>
            <path class="st0" d="M-19.6,19.4c-.6-.4-1.5-.3-1.9.2s-.3,1.3.3,1.7c.6.4,1.5.3,1.9-.2.5-.5.3-1.3-.3-1.7Z"/>
          </g>
          <g class="st2">
            <polygon class="st0" points="1.5 78.5 -7.8 65.1 -7.3 64.7 1.1 76.7 4.6 38.4 -7.4 62.9 -7.9 62.8 5.6 35.1 1.5 78.5"/>
            <path class="st0" d="M-8.6,65.6c-.4-.6-.2-1.4.4-1.7.7-.3,1.5,0,1.9.4.4.6.2,1.4-.4,1.7-.7.3-1.5,0-1.9-.4Z"/>
            <path class="st0" d="M-9,62.3c-.3.6,0,1.3.7,1.7.7.3,1.5,0,1.9-.6.3-.6,0-1.3-.7-1.7-.7-.3-1.5,0-1.9.6Z"/>
          </g>
          <g class="st2">
            <polygon class="st0" points="5 37.4 -4.8 17.9 26.6 3.2 26.9 3.6 -4.1 18.1 5.1 36.2 26.9 3.7 27.5 4 5 37.4"/>
            <path class="st0" d="M26,3.3c.4-.6,1.3-.8,1.9-.4.6.4.9,1.1.5,1.7s-1.3.8-1.9.4c-.6-.4-.9-1.1-.5-1.7Z"/>
            <path class="st0" d="M27.3,4.5c.7-.3.9-1.1.6-1.6s-1.2-.8-1.8-.5c-.7.3-.9,1.1-.6,1.6s1.2.8,1.8.5Z"/>
          </g>
          <g class="st2">
            <polygon class="st0" points="28.6 88.5 2.4 78.3 2.6 77.8 27.4 87.5 5.3 38 1.7 76.5 1.1 76.4 4.9 35.6 28.6 88.5"/>
            <path class="st0" d="M2.1,79.3c-.7-.3-1.1-1-.7-1.7.3-.6,1.1-.9,1.8-.6.7.3,1.1,1,.7,1.7-.3.6-1.1.9-1.8.6Z"/>
            <path class="st0" d="M0,76.3c0,.7.5,1.3,1.3,1.3.8,0,1.5-.4,1.5-1.1s-.5-1.3-1.3-1.3c-.8,0-1.5.4-1.5,1.1Z"/>
          </g>
          <g class="st2">
            <polygon class="st0" points="4.1 37.6 27.9 2.5 28.1 2.7 44.2 14 43.8 14.4 28 3.3 6 36 43.7 15.3 44.1 15.7 4.1 37.6"/>
            <path class="st0" d="M43.2,14.5c.7-.3,1.5,0,1.9.4s.2,1.4-.5,1.7c-.7.3-1.5,0-1.9-.4-.4-.6-.2-1.4.5-1.7Z"/>
            <path class="st0" d="M43.1,15.1c.6.5,1.4.3,1.9-.1s.3-1.3-.2-1.7c-.6-.5-1.4-.3-1.9.1s-.3,1.3.2,1.7Z"/>
          </g>
          <g class="st2">
            <polygon class="st0" points="28.1 89 4.7 36.7 5 36.6 43.7 15.3 44.1 15.7 5.5 36.9 27.9 87.1 44.5 16 45.1 16.2 28.1 89"/>
            <path class="st0" d="M43.2,14.5c.7-.3,1.5,0,1.9.4s.2,1.4-.5,1.7c-.7.3-1.5,0-1.9-.4-.4-.6-.2-1.4.5-1.7Z"/>
            <path class="st0" d="M46.1,16.4c.2-.7-.3-1.3-1.1-1.4s-1.5.3-1.6.9c-.2.7.3,1.3,1.1,1.4.7.2,1.5-.3,1.6-.9Z"/>
          </g>
          <g class="st2">
            <polygon class="st0" points="682.1 140 682.2 139.4 684.4 139.5 690.6 114.3 681.5 138.7 680.9 138.5 692 109.1 692.5 109.2 684.9 140.1 682.1 140"/>
            <path class="st0" d="M682.5,138.9c-.3.6-1,1-1.7.8s-1.2-.9-.9-1.5,1-1,1.7-.8c.7.3,1.2.9.9,1.5Z"/>
            <path class="st0" d="M682.2,138.5c-.8,0-1.4.6-1.4,1.2,0,.7.6,1.3,1.4,1.2s1.4-.6,1.4-1.2c0-.7-.6-1.3-1.4-1.2Z"/>
          </g>
          <g class="st2">
            <path class="st0" d="M696.7,149.6l-16.9-10.2h4.9c0,0,12.4,9.7,12.4,9.7l-.3.2-.2.3h0ZM681.8,140l12.1,7.3-9.4-7.3h-2.7s0,0,0,0Z"/>
            <path class="st0" d="M697.8,148.3c.5.5.7,1.3.1,1.7-.5.5-1.4.6-1.9.1s-.7-1.3-.1-1.7,1.4-.6,1.9-.1Z"/>
            <path class="st0" d="M696,150.3c.6.4,1.5.2,1.9-.3.5-.5.2-1.3-.4-1.7-.6-.4-1.5-.2-1.9.3-.5.5-.2,1.3.4,1.7Z"/>
          </g>
          <g class="st2">
            <polygon class="st0" points="684.2 140.1 692.2 107.9 699.8 137 699.3 137.1 692.3 110.4 685 139.5 698.5 138.1 698.5 138.5 684.2 140.1"/>
            <path class="st0" d="M698.3,137.1c.8,0,1.4.4,1.6,1.1,0,.7-.4,1.3-1.2,1.4s-1.4-.4-1.6-1.1c0-.7.4-1.3,1.2-1.4Z"/>
            <path class="st0" d="M698.2,137.2c.1.7.9,1,1.7.9.7-.1,1.3-.8,1-1.5-.1-.7-.9-1-1.7-.9-.7.1-1.3.8-1,1.5Z"/>
          </g>
          <g class="st2">
            <polygon class="st0" points="698.1 150.6 683.9 139.5 698.5 138.1 698.5 138.5 685.3 139.9 697.8 149.5 699.4 139.3 700 139.4 698.1 150.6"/>
            <path class="st0" d="M698.3,137.1c.8,0,1.4.4,1.6,1.1,0,.7-.4,1.3-1.2,1.4s-1.4-.4-1.6-1.1c0-.7.4-1.3,1.2-1.4Z"/>
            <path class="st0" d="M701,139.6c.2-.7-.4-1.3-1.2-1.4-.7-.2-1.5.4-1.5,1-.2.7.4,1.3,1.2,1.4.7.2,1.5-.4,1.5-1Z"/>
          </g>
        </g>
      </g>
      <g id="_x32_rALtc.tif">
        <image id="Layer_0" width="956" height="1782" transform="translate(-1003.5 -693.8)" xlink:href="bg-timeline-horizontal-bottom-1.png"/>
      </g>
    </g>
  </g>
</svg>