<?xml version="1.0" encoding="UTF-8"?>
<svg xmlns="http://www.w3.org/2000/svg" xmlns:xlink="http://www.w3.org/1999/xlink" version="1.1" viewBox="0 0 672 68">
  <!-- Generator: Adobe Illustrator 29.1.0, SVG Export Plug-In . SVG Version: 2.1.0 Build 142)  -->
  <defs>
    <style>
      .st0 {
        fill: #768ec8;
      }

      .st1 {
        mix-blend-mode: color-dodge;
      }

      .st1, .st2 {
        opacity: .8;
      }

      .st3 {
        isolation: isolate;
      }

      .st4 {
        opacity: .6;
      }
    </style>
  </defs>
  <g class="st3">
    <g id="Layer_1">
      <g id="Layer_11" data-name="Layer_1">
        <g class="st4">
          <g class="st2">
            <path class="st0" d="M164.4,1.2v-.5s-.2-.5-.2-.5l22.1-7.1-13.6,8h-8.2c0,0,0,0,0,0ZM181.8-4.8l-16.9,5.4h7.7c0,0,9.3-5.3,9.3-5.3h-.1Z"/>
            <path class="st0" d="M164.8,1.6c-.7.2-1.5-.1-1.8-.8s.1-1.3.8-1.6,1.5.1,1.8.8-.1,1.3-.8,1.6Z"/>
            <path class="st0" d="M164.5-.3c-.8,0-1.4.6-1.4,1.2,0,.7.6,1.3,1.4,1.2s1.4-.6,1.4-1.2c0-.7-.6-1.3-1.4-1.2Z"/>
          </g>
          <g class="st2">
            <polygon class="st0" points="121.2 -3.8 102.4 -46 102.9 -46.2 121.3 -5.2 134.2 -31.6 103.2 -46.4 103.5 -46.9 135 -31.8 121.2 -3.8"/>
            <path class="st0" d="M101.4-45.6c-.2-.7,0-1.3.8-1.6.7-.2,1.5.1,1.7.7.2.7,0,1.3-.8,1.6-.7.2-1.5-.1-1.7-.7Z"/>
            <path class="st0" d="M104-47.7c-.7-.4-1.5-.1-1.9.5-.4.6-.1,1.3.6,1.7s1.5.1,1.9-.5c.4-.6.1-1.3-.6-1.7Z"/>
          </g>
          <g class="st2">
            <polygon class="st0" points="163.8 1.2 122.5 -4.1 122.5 -4.7 162.4 .5 134.6 -31.1 122.1 -5.4 121.5 -5.7 134.4 -32.2 134.8 -31.8 163.8 1.2"/>
            <path class="st0" d="M122.4-3.2c-.7,0-1.3-.7-1.2-1.4,0-.7.8-1.2,1.5-1s1.3.7,1.2,1.4c0,.7-.8,1.2-1.5,1Z"/>
            <path class="st0" d="M120.5-6.1c-.3.6,0,1.3.7,1.7.7.3,1.5,0,1.9-.6.3-.6,0-1.3-.7-1.7-.7-.3-1.5,0-1.9.6Z"/>
          </g>
          <g class="st2">
            <polygon class="st0" points="163.2 1.4 162.9 1 135.2 -30.6 135.6 -30.9 162.9 .2 172.2 -39.5 135.9 -31.7 135.7 -32.2 173 -40.3 163.2 1.4"/>
            <path class="st0" d="M134.3-29.9c-.4-.6-.4-1.3.2-1.7.6-.4,1.5-.3,1.9.2.4.6.4,1.3-.2,1.7-.6.4-1.5.3-1.9-.2Z"/>
            <path class="st0" d="M135.6-33.2c-.7.1-1.2.8-1,1.5.1.7,1,1,1.7.9s1.2-.8,1-1.5-1-1-1.7-.9Z"/>
          </g>
          <g class="st2">
            <polygon class="st0" points="164.5 .7 164.3 .2 183.7 -6 172.7 -38.9 163.7 -.3 163.1 -.4 172.5 -41.1 184.4 -5.7 184.1 -5.6 164.5 .7"/>
            <path class="st0" d="M164.8,1.6c-.7.2-1.5-.1-1.8-.8s.1-1.3.8-1.6,1.5.1,1.8.8-.1,1.3-.8,1.6Z"/>
            <path class="st0" d="M162.1-.6c-.2.7.3,1.3,1.1,1.4.7.2,1.5-.3,1.6-.9.2-.7-.3-1.3-1.1-1.4-.7-.2-1.5.3-1.6.9Z"/>
          </g>
          <g class="st2">
            <polygon class="st0" points="282.7 -37.4 257.5 -63.5 264.6 -63.5 264.5 -62.9 258.9 -62.9 280.9 -40.1 266.3 -62 266.8 -62.4 283.3 -37.7 282.7 -37.4"/>
            <path class="st0" d="M265.4-61.5c-.4-.6,0-1.4.5-1.7.7-.3,1.5,0,1.9.5s0,1.4-.5,1.7c-.7.3-1.5,0-1.9-.5Z"/>
            <path class="st0" d="M264.5-62c.8,0,1.4-.6,1.4-1.2,0-.7-.6-1.3-1.4-1.2s-1.4.6-1.4,1.2c0,.7.6,1.3,1.4,1.2Z"/>
          </g>
          <g class="st2">
            <polygon class="st0" points="346 28.1 345.7 27.7 298.9 -17.7 299.3 -18 345.6 26.9 356.9 -31.7 299.6 -18.7 299.5 -19.3 357.6 -32.3 357.6 -31.9 346 28.1"/>
            <path class="st0" d="M298.2-17c-.5-.5-.5-1.3,0-1.7.6-.4,1.5-.4,1.9,0,.5.5.5,1.3,0,1.7s-1.5.4-1.9,0Z"/>
            <path class="st0" d="M299.2-20.2c-.7.1-1.1.9-1,1.5.1.7,1,1,1.7.9.7-.1,1.1-.9,1-1.5-.1-.7-1-1-1.7-.9Z"/>
          </g>
          <g class="st2">
            <path class="st0" d="M346.7,26.6l-.4-.3h-.5c0,0,11.2-58.9,11.2-58.9l15.8,16-26.1,43.2h0ZM357.4-31.4l-10.9,57.2,25.6-42.5-14.7-14.9h0Z"/>
            <path class="st0" d="M347.7,27c-.4.6-1.2.8-1.9.5-.6-.4-.9-1-.5-1.7.4-.6,1.2-.8,1.9-.5.6.4.9,1,.5,1.7Z"/>
            <path class="st0" d="M344.8,26.1c-.2.7.4,1.3,1.1,1.4s1.5-.3,1.6-1-.4-1.3-1.1-1.4-1.5.3-1.6,1Z"/>
          </g>
          <g class="st2">
            <polygon class="st0" points="553.4 -61.1 553 -61.5 557.3 -67.3 557.3 -65.9 557 -65.9 555.2 -63.5 556 -64.1 556.4 -63.7 553.4 -61.1"/>
            <path class="st0" d="M558.4-66c0,.7-.6,1.2-1.4,1.2-.8,0-1.3-.6-1.4-1.2s.6-1.2,1.4-1.2c.8,0,1.3.6,1.4,1.2Z"/>
            <path class="st0" d="M557-63c.6-.4.5-1.2,0-1.7s-1.4-.5-1.9,0c-.6.4-.5,1.2,0,1.7s1.4.5,1.9,0Z"/>
          </g>
          <g class="st2">
            <polygon class="st0" points="134 -31.3 156.6 -74.9 157.1 -74.6 135.1 -32.1 172.2 -40.1 157.6 -74.5 158.1 -74.8 173 -39.8 172.7 -39.7 134 -31.3"/>
            <path class="st0" d="M155.5-75.2c.4-.6,1.1-.9,1.9-.6s1,1,.7,1.7c-.4.6-1.1.9-1.9.6s-1-1-.7-1.7Z"/>
            <path class="st0" d="M159.2-75.1c-.2-.7-1.1-.9-1.7-.7-.7.2-1,1-.8,1.6.2.7,1.1.9,1.7.7s1-1,.8-1.6Z"/>
          </g>
          <g class="st2">
            <polygon class="st0" points="102 -46.6 94.5 -71.6 95.1 -71.7 102.3 -47.7 118.8 -65.7 95.7 -72.1 95.9 -72.7 119.8 -65.9 102 -46.6"/>
            <path class="st0" d="M93.6-71.3c-.2-.7.2-1.3,1-1.5.7-.1,1.5.2,1.7.9.2.7-.2,1.3-1,1.5-.7.1-1.5-.2-1.7-.9Z"/>
            <path class="st0" d="M96.3-73.6c-.7-.3-1.5,0-1.7.8-.3.6,0,1.4.9,1.5.7.3,1.5,0,1.7-.8.3-.6,0-1.4-.9-1.5Z"/>
          </g>
          <g class="st2">
            <polygon class="st0" points="135.1 -31.1 103.2 -46.4 103.5 -46.9 133.9 -32.3 119.2 -65.3 103.2 -47.9 102.8 -48.3 119.3 -66.3 135.1 -31.1"/>
            <path class="st0" d="M102.8-45.6c-.7-.4-1-1-.6-1.7.4-.6,1.2-.8,1.9-.5.7.4,1,1,.6,1.7-.4.6-1.2.8-1.9.5Z"/>
            <path class="st0" d="M102-48.9c-.5.5-.4,1.3.1,1.7.6.5,1.4.4,1.9-.1s.4-1.3-.1-1.7-1.4-.4-1.9.1Z"/>
          </g>
          <g class="st2">
            <polygon class="st0" points="479.4 -14.6 455.8 -58.8 475.8 -65.1 475.9 -64.6 456.6 -58.4 478.7 -17.2 476.9 -64.1 477.5 -64.1 479.4 -14.6"/>
            <path class="st0" d="M475.8-64c0-.7.6-1.2,1.3-1.3s1.4.5,1.4,1.2c0,.7-.6,1.2-1.3,1.3s-1.4-.5-1.4-1.2Z"/>
            <path class="st0" d="M476.3-63.6c.7-.2,1-1,.8-1.6-.2-.7-1.1-.9-1.8-.8-.7.2-1,1-.8,1.6.2.7,1.1.9,1.8.8Z"/>
          </g>
          <g class="st2">
            <polygon class="st0" points="478.8 -15.5 478.8 -15.9 476.9 -64.1 477.5 -64.1 479.4 -16.2 509 -24.4 477.6 -64.1 478.2 -64.5 510 -24.1 509.6 -24 478.8 -15.5"/>
            <path class="st0" d="M476.8-63.6c-.4-.6-.3-1.3.3-1.7.6-.3,1.5-.3,1.9.3.4.6.3,1.3-.3,1.7-.6.3-1.5.3-1.9-.3Z"/>
            <path class="st0" d="M478.6-64.1c0-.7-.7-1.3-1.4-1.2s-1.4.6-1.3,1.3.7,1.3,1.4,1.2,1.4-.6,1.3-1.3Z"/>
          </g>
          <g class="st2">
            <polygon class="st0" points="491 -12.5 478 -15.8 511 -25 493.6 -12.9 493.2 -13.3 507.9 -23.5 480.1 -15.9 491.2 -13 491 -12.5"/>
            <path class="st0" d="M494.4-12.2c-.6.4-1.5.3-1.9-.3s-.4-1.3.3-1.7c.6-.4,1.5-.3,1.9.3s.4,1.3-.3,1.7Z"/>
            <path class="st0" d="M490.7-11.6c.7.2,1.5,0,1.7-.8.3-.6-.2-1.4-.9-1.5-.7-.2-1.5,0-1.7.8s.2,1.4.9,1.5Z"/>
          </g>
          <g class="st2">
            <polygon class="st0" points="224.6 7.9 183.7 -5.6 183.7 -5.8 189.5 -61.2 225.6 6.8 225 7.1 190 -59.3 184.4 -6 224.8 7.4 224.6 7.9"/>
            <path class="st0" d="M226.6,6.4c.3.6,0,1.4-.7,1.6-.7.2-1.5,0-1.8-.6-.3-.6,0-1.4.7-1.6.7-.2,1.5,0,1.8.6Z"/>
            <path class="st0" d="M224.1,8.7c.7.3,1.5,0,1.8-.7s0-1.4-.8-1.6c-.7-.3-1.5,0-1.8.7s0,1.4.8,1.6Z"/>
          </g>
          <g class="st2">
            <polygon class="st0" points="225 7.1 189.3 -60.5 258.7 -63.5 226.7 7 226.1 6.9 257.8 -63 190.2 -60 225.6 6.8 225 7.1"/>
            <path class="st0" d="M227.8,7.4c-.3.6-1,1-1.8.6-.7-.3-1.1-.9-.8-1.6.3-.6,1-1,1.8-.6.7.3,1.1.9.8,1.6Z"/>
            <path class="st0" d="M224.1,7.4c.3.6,1.2.9,1.8.6.7-.2.9-1.1.7-1.6-.3-.6-1.2-.9-1.8-.6-.7.2-.9,1.1-.7,1.6Z"/>
          </g>
          <g class="st2">
            <polygon class="st0" points="188.9 -59.8 220.1 -97.9 244.3 -74.6 243.8 -74.2 220.1 -97 190.5 -60.7 243.5 -73.4 243.7 -72.9 188.9 -59.8"/>
            <path class="st0" d="M243.2-74.4c.7-.1,1.5.2,1.7.9s-.2,1.3-1,1.5c-.7.1-1.5-.2-1.7-.9-.2-.7.2-1.3,1-1.5Z"/>
            <path class="st0" d="M242.9-73.6c.5.5,1.4.5,1.9,0s.6-1.2,0-1.7-1.4-.5-1.9,0c-.6.4-.6,1.2,0,1.7Z"/>
          </g>
          <g class="st2">
            <polygon class="st0" points="186.9 -59.9 243.5 -73.4 243.7 -72.9 192.6 -60.6 257.4 -63.4 245.7 -72.6 246.1 -73 259 -62.9 186.9 -59.9"/>
            <path class="st0" d="M243.2-74.4c.7-.1,1.5.2,1.7.9s-.2,1.3-1,1.5c-.7.1-1.5-.2-1.7-.9-.2-.7.2-1.3,1-1.5Z"/>
            <path class="st0" d="M246.8-73.7c-.5-.5-1.4-.4-1.9.1s-.4,1.3.1,1.7c.5.5,1.4.4,1.9-.1s.4-1.3-.1-1.7Z"/>
          </g>
          <g class="st2">
            <polygon class="st0" points="297.5 -18.3 323.9 -55.1 324.5 -54.9 298.9 -19.2 356.5 -32.1 325.6 -55 326 -55.5 357.9 -31.8 297.5 -18.3"/>
            <path class="st0" d="M322.9-55.7c.4-.5,1.3-.8,1.9-.3.6.4.9,1.1.4,1.7-.4.5-1.3.8-1.9.3-.6-.4-.9-1.1-.4-1.7Z"/>
            <path class="st0" d="M326.8-56.1c-.6-.5-1.4-.4-1.9.1s-.4,1.3.1,1.7c.6.5,1.4.4,1.9-.1s.4-1.3-.1-1.7Z"/>
          </g>
          <g class="st2">
            <polygon class="st0" points="358.8 -30.5 324 -56.3 336.9 -56.2 336.8 -55.7 325.7 -55.7 355.6 -33.5 338.7 -54.8 339.2 -55.1 358.8 -30.5"/>
            <path class="st0" d="M337.8-54.2c-.4-.6-.3-1.3.3-1.7s1.5-.3,1.9.3.3,1.3-.3,1.7c-.6.4-1.5.3-1.9-.3Z"/>
            <path class="st0" d="M336.8-54.7c.8,0,1.4-.6,1.4-1.2,0-.7-.6-1.3-1.4-1.2s-1.4.6-1.4,1.2c0,.7.6,1.3,1.4,1.2Z"/>
          </g>
          <g class="st2">
            <polygon class="st0" points="371.8 -16.2 411.4 -71.7 412 -71.3 373.1 -16.9 448 -23.1 412.9 -71.4 413.3 -71.7 449.2 -22.6 371.8 -16.2"/>
            <path class="st0" d="M412-70.8c-.4-.6-.3-1.3.4-1.7.7-.3,1.5-.2,1.9.4s.3,1.3-.4,1.7c-.7.3-1.5.2-1.9-.4Z"/>
            <path class="st0" d="M412.8-70.7c.4-.5.2-1.3-.4-1.7-.6-.4-1.5-.2-1.9.3s-.2,1.3.4,1.7c.6.4,1.5.2,1.9-.3Z"/>
          </g>
          <g class="st2">
            <polygon class="st0" points="415.2 25.6 371.8 -16.8 372.5 -16.9 449.1 -23.2 417.2 25.4 416.7 25.1 448.1 -22.6 373.1 -16.3 415.6 25.2 415.2 25.6"/>
            <path class="st0" d="M418.1,25.8c-.4.6-1.3.8-1.9.4s-.9-1.1-.5-1.7c.4-.6,1.3-.8,1.9-.4s.9,1.1.5,1.7Z"/>
            <path class="st0" d="M414.3,26.2c.5.5,1.4.5,1.9,0,.6-.4.6-1.2,0-1.7s-1.4-.5-1.9,0c-.6.4-.6,1.2,0,1.7Z"/>
          </g>
          <g class="st2">
            <polygon class="st0" points="448.8 -22.2 448.4 -22.8 411.6 -73 455.1 -59.2 454.9 -58.7 413.1 -72 448.4 -23.6 455.7 -57.5 456.3 -57.4 448.8 -22.2"/>
            <path class="st0" d="M454.6-57.6c.2-.7.8-1.1,1.6-1,.7.2,1.3.8,1.1,1.4-.2.7-.8,1.1-1.6,1-.7-.2-1.3-.8-1.1-1.4Z"/>
            <path class="st0" d="M454.4-57.9c.7.3,1.5,0,1.8-.7s0-1.4-.8-1.6c-.7-.3-1.5,0-1.8.7s0,1.4.8,1.6Z"/>
          </g>
          <g class="st2">
            <polygon class="st0" points="479.6 -15.4 448.3 -22.7 455.7 -57.5 456.3 -57.4 448.9 -23.1 478.5 -16.3 456.5 -57.4 457.1 -57.6 479.6 -15.4"/>
            <path class="st0" d="M455.5-56.9c-.3-.6,0-1.4.7-1.6.7-.2,1.5,0,1.8.6.3.6,0,1.4-.7,1.6-.7.2-1.5,0-1.8-.6Z"/>
            <path class="st0" d="M457.3-57.2c.2-.7-.4-1.3-1.1-1.4s-1.5.3-1.6,1c-.2.7.4,1.3,1.1,1.4s1.5-.3,1.6-1Z"/>
          </g>
          <g class="st2">
            <polygon class="st0" points="75.5 -36.5 75.3 -37 44.4 -102.7 45.2 -102.3 93.6 -73.6 93.2 -73.2 45.7 -101.3 75.5 -37.8 93.7 -71.8 94.2 -71.5 75.5 -36.5"/>
            <path class="st0" d="M92.7-72.1c.4-.6,1.1-.9,1.9-.5.7.3,1,1,.6,1.7s-1.1.9-1.9.5c-.7-.3-1-1-.6-1.7Z"/>
            <path class="st0" d="M92.7-72.4c.6.4,1.5.2,1.9-.3.5-.5.2-1.3-.4-1.7-.6-.4-1.5-.2-1.9.3-.5.5-.2,1.3.4,1.7Z"/>
          </g>
          <g class="st2">
            <polygon class="st0" points="74.9 -36.6 93.7 -71.8 94.2 -71.5 76.2 -37.7 101.8 -47.4 94.5 -71.6 95.1 -71.7 102.6 -47 102.3 -46.9 74.9 -36.6"/>
            <path class="st0" d="M93.6-71.3c-.2-.7.2-1.3,1-1.5.7-.1,1.5.2,1.7.9.2.7-.2,1.3-1,1.5-.7.1-1.5-.2-1.7-.9Z"/>
            <path class="st0" d="M95.2-71.1c.4-.6,0-1.3-.6-1.7-.7-.3-1.5,0-1.9.5-.4.6,0,1.3.6,1.7.7.3,1.5,0,1.9-.5Z"/>
          </g>
          <g class="st2">
            <path class="st0" d="M600.8-1.2l-14.3-8.1.3-.4.2-.4,22.4,5.1-8.5,3.8h0ZM587.4-9.4l13.4,7.6,6.7-3-20.2-4.7h0Z"/>
            <path class="st0" d="M586.1-8.4c-.6-.4-.9-1.1-.4-1.7.4-.5,1.3-.8,1.9-.4s.9,1.1.4,1.7c-.4.5-1.3.8-1.9.4Z"/>
            <path class="st0" d="M587.3-11c-.7-.2-1.5.2-1.6.9-.2.6.3,1.3,1,1.5.7.2,1.5-.2,1.6-.9s-.3-1.3-1-1.5Z"/>
          </g>
          <g class="st2">
            <polygon class="st0" points="608.7 -4.5 608.4 -4.7 586.8 -9.5 587 -10.1 608.2 -5.2 610 -31.4 586.8 -10.7 586.3 -11.1 610.7 -32.8 608.7 -4.5"/>
            <path class="st0" d="M587.6-10.1c-.6.4-1.4.5-1.9,0s-.6-1.3,0-1.7c.6-.4,1.4-.5,1.9,0s.6,1.3,0,1.7Z"/>
            <path class="st0" d="M587.3-11c-.7-.2-1.5.2-1.6.9-.2.6.3,1.3,1,1.5.7.2,1.5-.2,1.6-.9s-.3-1.3-1-1.5Z"/>
          </g>
          <g class="st2">
            <path class="st0" d="M595.8,45h-.4c0,0-.4-.1-.4-.1l5.5-46.6h.2s8.2-3.7,8.2-3.7l-13.1,50.4h0ZM601.1-1.4l-5.2,43,12-46.1-6.9,3.1h0Z"/>
            <path class="st0" d="M596.7,45c0,.7-.7,1.2-1.5,1.1s-1.4-.7-1.2-1.3c0-.7.7-1.2,1.5-1.1s1.4.7,1.2,1.3Z"/>
            <path class="st0" d="M594.1,44.6c-.2.6.3,1.3,1,1.5.7.2,1.5-.2,1.6-.9.2-.6-.3-1.3-1-1.5s-1.5.2-1.6.9Z"/>
          </g>
          <g class="st2">
            <polygon class="st0" points="608.8 -4.8 608.2 -4.9 610 -30.9 610.6 -30.9 609.1 -9.7 613.7 -33.3 611.7 -32.3 611.4 -32.8 614.6 -34.2 608.8 -4.8"/>
            <path class="st0" d="M612.2-31.6c-.7.3-1.5,0-1.8-.6-.3-.6,0-1.4.6-1.6.7-.3,1.5,0,1.8.6.3.6,0,1.4-.6,1.6Z"/>
            <path class="st0" d="M611.7-30.7c0-.7-.5-1.3-1.3-1.3-.8,0-1.4.5-1.4,1.1,0,.7.5,1.3,1.3,1.3.8,0,1.4-.5,1.4-1.1Z"/>
          </g>
          <g class="st2">
            <path class="st0" d="M298.2-18.1l-8-16,33.4-21.4.3.4.5.3s-26.2,36.7-26.2,36.7ZM291-34l7.3,14.6,25.5-35.7-32.8,20.9h0Z"/>
            <path class="st0" d="M323-56.3c.6-.4,1.5-.3,1.9.3.4.6.3,1.3-.3,1.7-.6.4-1.5.3-1.9-.3-.4-.6-.3-1.3.3-1.7Z"/>
            <path class="st0" d="M325.3-54.3c.4-.5.2-1.3-.4-1.7-.6-.4-1.5-.2-1.9.3s-.2,1.3.4,1.7c.6.4,1.5.2,1.9-.3Z"/>
          </g>
          <g class="st2">
            <polygon class="st0" points="68.1 -18.1 61.3 -21.2 61.7 -21.7 67.8 -18.9 74.7 -35.9 61.4 -22.7 61 -22.9 76.4 -38.4 68.1 -18.1"/>
            <path class="st0" d="M62.3-22c-.5.5-1.4.6-1.9.1s-.6-1.3-.1-1.7c.5-.5,1.4-.6,1.9-.1s.6,1.3.1,1.7Z"/>
            <path class="st0" d="M62.1-22.5c-.7-.4-1.5-.1-1.9.5s-.1,1.3.6,1.7,1.5.1,1.9-.5.1-1.3-.6-1.7Z"/>
          </g>
          <g class="st2">
            <polygon class="st0" points="356.8 -30.1 358.9 -55.9 367.3 -59 367.5 -58.4 359.4 -55.6 357.7 -33.8 367.8 -58.1 368.4 -58 356.8 -30.1"/>
            <path class="st0" d="M366.8-58.4c.3-.6,1-1,1.8-.7.7.3,1.1.9.8,1.6-.3.6-1,1-1.8.7-.7-.3-1.1-.9-.8-1.6Z"/>
            <path class="st0" d="M367.9-57.5c.7-.2,1-1,.8-1.6-.2-.7-1.1-.9-1.7-.7s-1,1-.8,1.6c.2.7,1.1.9,1.7.7Z"/>
          </g>
          <g class="st2">
            <path class="st0" d="M372.9-15.8l-16-16.2h0c0,0,10.9-26.2,10.9-26.2l.5.2h.6s3.8,42.2,3.8,42.2h.2ZM357.5-32l14.5,14.7-3.7-40.5s-10.8,25.9-10.8,25.9Z"/>
            <path class="st0" d="M366.8-58.4c.3-.6,1-1,1.8-.7.7.3,1.1.9.8,1.6-.3.6-1,1-1.8.7-.7-.3-1.1-.9-.8-1.6Z"/>
            <path class="st0" d="M370.2-58c0-.7-.7-1.2-1.5-1.1s-1.4.7-1.2,1.3c0,.7.7,1.2,1.5,1.1s1.4-.7,1.2-1.3Z"/>
          </g>
          <g class="st2">
            <polygon class="st0" points="372.3 -15.7 368.4 -58 369 -58 372.7 -17.4 411.7 -72 370 -59.3 369.7 -59.8 413.2 -73 372.3 -15.7"/>
            <path class="st0" d="M367.4-57.8c0-.7.5-1.2,1.2-1.3s1.4.5,1.5,1.1-.5,1.2-1.2,1.3-1.4-.5-1.5-1.1Z"/>
            <path class="st0" d="M369.5-60.7c-.7.2-1.1.9-.9,1.6s1.1,1,1.8.8c.7-.2,1.1-.9.9-1.6s-1.1-1-1.8-.8Z"/>
          </g>
          <g class="st2">
            <polygon class="st0" points="645.3 58.7 596.4 46.7 596.5 46.1 644.1 57.9 608.5 -4.1 595.8 45 595.2 44.9 608.3 -5.7 608.8 -5 645.3 58.7"/>
            <path class="st0" d="M596.9,45.2c-.2.6-.9,1.1-1.6.9s-1.2-.8-1-1.5c.2-.6.9-1.1,1.6-.9s1.2.8,1,1.5Z"/>
            <path class="st0" d="M596.9,45.2c-.7-.2-1.5.2-1.6.8s.2,1.3,1,1.5c.7.2,1.5-.2,1.6-.8s-.2-1.3-1-1.5Z"/>
          </g>
          <g class="st2">
            <polygon class="st0" points="357.8 -30.7 338.7 -54.8 339.2 -55.1 356.6 -33.2 351.3 -53.9 339.5 -55.5 339.5 -56.1 351.8 -54.4 357.8 -30.7"/>
            <path class="st0" d="M337.8-54.2c-.4-.6-.3-1.3.3-1.7s1.5-.3,1.9.3.3,1.3-.3,1.7c-.6.4-1.5.3-1.9-.3Z"/>
            <path class="st0" d="M339.8-57c-.7-.2-1.5.4-1.5,1-.2.7.4,1.3,1.2,1.4.7.2,1.5-.4,1.5-1,.2-.7-.4-1.3-1.2-1.4Z"/>
          </g>
          <g class="st2">
            <polygon class="st0" points="357.4 -30.2 351.5 -52.9 352.1 -53.1 357 -33.8 358.8 -55.4 352.9 -54.1 352.7 -54.6 359.4 -56.2 357.4 -30.2"/>
            <path class="st0" d="M350.5-52.7c-.1-.7.3-1.3,1-1.5.8,0,1.5.3,1.7.9.1.7-.3,1.3-1,1.5-.8,0-1.5-.3-1.7-.9Z"/>
            <path class="st0" d="M352.5-55.6c-.7.1-1.2.8-1,1.5.1.7,1,1,1.7.9s1.2-.8,1-1.5c-.1-.7-1-1-1.7-.9Z"/>
          </g>
          <g class="st2">
            <path class="st0" d="M506.9,36.5l-.4-.4-.5-.2,14.8-28,14,5.5-27.9,23.1h0ZM521.1,8.6l-14.4,27.3,27.1-22.4-12.7-4.9h0Z"/>
            <path class="st0" d="M507.6,36.4c-.4.6-1.1.9-1.9.6-.7-.3-1-1-.7-1.7.4-.6,1.1-.9,1.9-.6s1,1,.7,1.7Z"/>
            <path class="st0" d="M505.8,35.3c-.6.4-.6,1.2,0,1.7s1.4.5,1.9,0c.6-.4.6-1.2,0-1.7s-1.4-.5-1.9,0Z"/>
          </g>
          <g class="st2">
            <polygon class="st0" points="390.2 41.3 345.4 27.6 372.6 -17.3 391.5 40.2 390.9 40.3 372.3 -15.8 346.3 27.4 390.4 40.8 390.2 41.3"/>
            <path class="st0" d="M390.7,39.9c.7.3,1.2.9.9,1.5-.3.6-1,1-1.7.8-.7-.3-1.2-.9-.9-1.5.3-.6,1-1,1.7-.8Z"/>
            <path class="st0" d="M389.8,40.5c.2.7,1,1,1.8.9.7-.1,1.1-.9.9-1.6s-1-1-1.8-.9c-.7.1-1.1.9-.9,1.6Z"/>
          </g>
          <g class="st2">
            <polygon class="st0" points="374.4 45 374.3 45 343.8 26.6 390.4 40.8 390.2 41.3 347.9 28.5 374.4 44.4 390.2 41.4 390.3 41.9 374.4 45"/>
            <path class="st0" d="M390.7,39.9c.7.3,1.2.9.9,1.5-.3.6-1,1-1.7.8-.7-.3-1.2-.9-.9-1.5.3-.6,1-1,1.7-.8Z"/>
            <path class="st0" d="M390.5,42.9c.8,0,1.3-.8,1-1.5-.1-.7-.9-1-1.7-1s-1.3.8-1,1.5c.1.7.9,1,1.7,1Z"/>
          </g>
          <g class="st2">
            <polygon class="st0" points="392.8 41 392.4 40.5 415.8 26.2 373.2 -15.5 391.5 40.2 390.9 40.3 371.8 -17.6 416.7 26.3 392.8 41"/>
            <path class="st0" d="M392.5,39.8c.2.7-.2,1.3-.9,1.6-.7.1-1.5-.2-1.8-.9s.2-1.3.9-1.6c.7-.1,1.5.2,1.8.9Z"/>
            <path class="st0" d="M391.9,39.7c-.7.3-.8,1.2-.4,1.7s1.3.7,1.9.4c.7-.3.8-1.2.4-1.7s-1.3-.7-1.9-.4Z"/>
          </g>
          <g class="st2">
            <polygon class="st0" points="609.8 -4.7 609.8 -5.2 643.9 -8.2 614.3 -33.2 609 -6 608.4 -6.1 614 -34.3 645.4 -7.8 609.8 -4.7"/>
            <path class="st0" d="M610-5.9c-.2.7-.8,1.2-1.6,1-.7-.2-1.3-.7-1.1-1.4s.8-1.2,1.6-1,1.3.7,1.1,1.4Z"/>
            <path class="st0" d="M609.7-6.2c-.8,0-1.3.7-1.2,1.4s.8,1.2,1.5,1.1,1.3-.7,1.2-1.4-.8-1.2-1.5-1.1Z"/>
          </g>
          <g class="st2">
            <polygon class="st0" points="643.8 57.4 608 -5.1 608.5 -5.2 644.9 -8.4 645 -8.1 645 57.2 644.4 57.1 644.4 -7.7 608.9 -4.6 644.4 57.1 643.8 57.4"/>
            <path class="st0" d="M646.1,57.1c0,.7-.6,1.2-1.4,1.2-.8,0-1.3-.6-1.4-1.2s.6-1.2,1.4-1.2c.8,0,1.3.6,1.4,1.2Z"/>
            <path class="st0" d="M642.8,57.8c.3.6,1.2.8,1.8.6.7-.3.9-1.1.6-1.6s-1.2-.8-1.8-.6c-.7.3-.9,1.1-.6,1.6Z"/>
          </g>
          <g class="st2">
            <polygon class="st0" points="644.8 -7.5 644.5 -7.9 615 -32.8 615.3 -33.2 644.4 -8.6 648 -26.5 615.4 -33.3 615.5 -33.8 648.8 -27 644.8 -7.5"/>
            <path class="st0" d="M615.2-32.3c-.7-.2-1.3-.8-1-1.4.2-.7.9-1.1,1.6-.9s1.3.8,1,1.4c-.2.7-.9,1.1-1.6.9Z"/>
            <path class="st0" d="M616.1-33.8c-.5-.5-1.4-.4-1.9.1-.6.5-.5,1.2.1,1.7.5.5,1.4.4,1.9-.1.6-.5.5-1.2-.1-1.7Z"/>
          </g>
          <g class="st2">
            <polygon class="st0" points="645.8 57.6 645.3 57.2 680.4 22.8 644.9 -7.4 645 57.2 644.4 57.1 644.3 -8.6 644.8 -8.3 681.3 22.8 681.1 23 645.8 57.6"/>
            <path class="st0" d="M646.7,58.2c-.5.5-1.4.5-1.9.1-.5-.5-.6-1.3-.1-1.7.5-.5,1.4-.5,1.9-.1.5.5.6,1.3.1,1.7Z"/>
            <path class="st0" d="M643.3,57.1c0,.7.6,1.3,1.4,1.2s1.4-.6,1.4-1.2c0-.7-.6-1.3-1.4-1.2s-1.4.6-1.4,1.2Z"/>
          </g>
          <g class="st2">
            <path class="st0" d="M552.8-60.3l1.9-17h.5s.5,0,.5,0l1.7,10.9-4.5,6.1h0ZM555.2-76.1l-1.5,13.6,3-4.1-1.5-9.6h0Z"/>
            <path class="st0" d="M553.7-77.3c0-.7.7-1.2,1.5-1.1s1.4.7,1.2,1.3-.7,1.2-1.5,1.1-1.4-.7-1.2-1.3Z"/>
            <path class="st0" d="M556.7-77.3c0-.7-.8-1.2-1.6-1.1s-1.3.7-1.2,1.4.8,1.2,1.6,1.1,1.3-.7,1.2-1.4Z"/>
          </g>
          <g class="st2">
            <polygon class="st0" points="669.4 -68.8 653.2 -77 653.5 -77.4 669.2 -69.5 680 -84 653.6 -77.8 653.4 -78.3 681.5 -84.9 669.4 -68.8"/>
            <path class="st0" d="M652.8-76.1c-.6-.4-.9-1-.5-1.7.4-.6,1.3-.8,1.9-.4.6.4.9,1,.5,1.7-.4.6-1.3.8-1.9.4Z"/>
            <path class="st0" d="M653.2-79.3c-.7.1-1.1.9-1,1.5.2.7,1,1,1.7.9.7-.1,1.1-.9,1-1.5-.2-.7-1-1-1.7-.9Z"/>
          </g>
          <g class="st2">
            <polygon class="st0" points="2.7 -38.9 -26 -40.8 -25.9 -41.4 0 -39.6 -15.8 -47.6 -25.9 -41.6 -26.4 -42.1 -15.9 -48.3 2.7 -38.9"/>
            <path class="st0" d="M-25.3-40.9c-.7.3-1.5.2-1.9-.4s-.3-1.3.4-1.7c.7-.3,1.5-.2,1.9.4s.3,1.3-.4,1.7Z"/>
            <path class="st0" d="M-25.8-42.3c-.8,0-1.4.5-1.4,1.1,0,.7.5,1.3,1.3,1.3.8,0,1.4-.5,1.4-1.1,0-.7-.5-1.3-1.3-1.3Z"/>
          </g>
          <g class="st2">
            <polygon class="st0" points="2.2 -38.6 -14.9 -47.2 -14.5 -47.6 .4 -40.1 -8.3 -52.6 -14.6 -48.4 -15 -48.9 -8.2 -53.4 2.2 -38.6"/>
            <path class="st0" d="M-13.9-47.6c-.6.4-1.5.3-1.9-.3-.4-.6-.3-1.3.3-1.7s1.5-.3,1.9.3.3,1.3-.3,1.7Z"/>
            <path class="st0" d="M-14-48.4c-.6-.4-1.5-.1-1.9.4-.4.6-.1,1.3.5,1.7s1.5.1,1.9-.4c.4-.6.1-1.3-.5-1.7Z"/>
          </g>
          <g class="st2">
            <polygon class="st0" points="120.3 -65.3 95.7 -72.1 95.9 -72.7 118.3 -66.3 94.9 -89.1 94.9 -73.9 94.3 -74 94.2 -90.5 120.3 -65.3"/>
            <path class="st0" d="M95.5-71.2c-.7-.3-1.2-.9-.9-1.5.3-.6,1-1,1.7-.8.7.3,1.2.9.9,1.5-.3.6-1,1-1.7.8Z"/>
            <path class="st0" d="M93.2-74c0,.7.6,1.3,1.4,1.2s1.4-.6,1.4-1.2c0-.7-.6-1.3-1.4-1.2s-1.4.6-1.4,1.2Z"/>
          </g>
          <g class="st2">
            <polygon class="st0" points="83.7 -5.7 68.8 -17.5 69.1 -17.9 82.7 -7.2 75.4 -36.2 68.6 -19.4 68.1 -19.7 75.6 -38.1 83.7 -5.7"/>
            <path class="st0" d="M69.7-19.2c-.3.6-1,1-1.8.7s-1.1-.9-.8-1.6,1-1,1.8-.7,1.1.9.8,1.6Z"/>
            <path class="st0" d="M69.9-18.6c-.5-.5-1.4-.4-1.9.1s-.4,1.3.1,1.7c.5.5,1.4.4,1.9-.1s.4-1.3-.1-1.7Z"/>
          </g>
          <g class="st2">
            <polygon class="st0" points="71.3 43.5 83 -7.1 105.4 16.4 104.9 16.7 83.4 -5.9 72.2 42.1 104.8 18.1 105.2 18.4 71.3 43.5"/>
            <path class="st0" d="M106.2,15.8c.5.6.4,1.3-.2,1.7-.6.4-1.5.4-1.9-.2-.5-.6-.4-1.3.2-1.7.6-.4,1.5-.4,1.9.2Z"/>
            <path class="st0" d="M105.9,19.2c.6-.4.6-1.2.2-1.7s-1.3-.6-1.9-.2c-.6.4-.6,1.2-.2,1.7.5.6,1.3.6,1.9.2Z"/>
          </g>
          <g class="st2">
            <polygon class="st0" points="83.1 -5.6 75.6 -35.9 76.2 -36.1 83.3 -7.4 101.6 -46.7 76.9 -37.3 76.6 -37.9 102.7 -47.7 102.5 -47 83.1 -5.6"/>
            <path class="st0" d="M77.3-36.4c-.7.2-1.5,0-1.8-.7-.3-.7,0-1.3.7-1.6.7-.2,1.5,0,1.8.7.3.6,0,1.3-.7,1.6Z"/>
            <path class="st0" d="M77.1-36.2c-.1-.7-.9-1-1.7-1s-1.3.8-1,1.5c.1.7.9,1,1.7,1s1.3-.8,1-1.5Z"/>
          </g>
          <g class="st2">
            <polygon class="st0" points="121.7 -4.2 82.7 -6.2 82.9 -6.6 101.4 -46.3 102 -46 83.6 -6.7 120.8 -4.9 102.4 -46 102.9 -46.2 121.7 -4.2"/>
            <path class="st0" d="M101.4-45.6c-.2-.7,0-1.3.8-1.6.7-.2,1.5.1,1.7.7.2.7,0,1.3-.8,1.6-.7.2-1.5-.1-1.7-.7Z"/>
            <path class="st0" d="M102.9-45.6c.3-.6,0-1.4-.7-1.7-.7-.3-1.5,0-1.8.6-.3.6,0,1.4.7,1.7.7.3,1.5,0,1.8-.6Z"/>
          </g>
          <g class="st2">
            <polygon class="st0" points="104.9 16.7 82.5 -6.8 121.7 -4.8 107 16.6 106.5 16.3 120.7 -4.2 83.9 -6.1 105.4 16.4 104.9 16.7"/>
            <path class="st0" d="M108,17.1c-.4.6-1.3.8-1.9.4s-.9-1.1-.4-1.7c.4-.6,1.3-.8,1.9-.4s.9,1.1.4,1.7Z"/>
            <path class="st0" d="M104.1,17.4c.5.6,1.3.6,1.9.2.6-.4.6-1.2.2-1.7-.5-.6-1.3-.6-1.9-.2-.6.4-.6,1.2-.2,1.7Z"/>
          </g>
          <g class="st2">
            <polygon class="st0" points="190 -60.1 189.5 -60.4 211.7 -100 212.2 -99.8 191.6 -63.1 219.7 -97.4 213.6 -100.2 213.9 -100.6 220.6 -97.6 220.4 -97.4 190 -60.1"/>
            <path class="st0" d="M210.7-100.4c.4-.6,1.1-.9,1.9-.5s1,1,.6,1.7-1.1.9-1.9.5-1-1-.6-1.7Z"/>
            <path class="st0" d="M214.4-101.5c-.7-.4-1.5-.1-1.9.5s-.1,1.3.6,1.7,1.5.1,1.9-.5.1-1.3-.6-1.7Z"/>
          </g>
          <g class="st2">
            <path class="st0" d="M467.6-12.2h0s-17.9-9.8-17.9-9.8l.3-.4v-.4c0,0,30.3,6.9,30.3,6.9l-12.6,3.6h0ZM450.5-22.1l17.2,9.3,10.3-3s-27.5-6.3-27.5-6.3Z"/>
            <path class="st0" d="M449.6-21.4c-.7-.2-1.2-.8-1-1.5.2-.6.9-1.1,1.6-.9s1.2.8,1,1.5c-.2.6-.9,1.1-1.6.9Z"/>
            <path class="st0" d="M450.5-23.3c-.6-.4-1.5-.2-1.9.4-.4.6-.2,1.3.5,1.7.6.4,1.5.2,1.9-.4s.2-1.3-.5-1.7Z"/>
          </g>
          <g class="st2">
            <polygon class="st0" points="258.5 -62.6 245.7 -72.6 246.1 -73 257.9 -63.9 257.9 -71.5 246.2 -73.1 246.2 -73.6 258.6 -71.9 258.5 -62.6"/>
            <path class="st0" d="M245.1-71.7c-.5-.5-.7-1.3-.1-1.7s1.4-.6,1.9-.1.7,1.3.1,1.7c-.5.5-1.4.6-1.9.1Z"/>
            <path class="st0" d="M246.5-74.5c-.7-.2-1.5.4-1.5,1-.2.7.4,1.3,1.2,1.4.7.2,1.5-.4,1.5-1,.2-.7-.4-1.3-1.2-1.4Z"/>
          </g>
          <g class="st2">
            <polygon class="st0" points="258 -63 258 -70.6 258.6 -70.5 258.5 -63.5 265.3 -63.5 258.8 -70.6 259.2 -71 266.5 -62.9 258 -63"/>
            <path class="st0" d="M256.9-70.5c0-.7.6-1.2,1.4-1.2.8,0,1.3.6,1.4,1.2s-.6,1.2-1.4,1.2c-.8,0-1.3-.6-1.4-1.2Z"/>
            <path class="st0" d="M260.2-71.5c-.4-.6-1.3-.6-1.9-.2-.6.4-.7,1.2-.2,1.7s1.3.6,1.9.2c.6-.4.7-1.2.2-1.7Z"/>
          </g>
          <g class="st2">
            <polygon class="st0" points="417.6 26.2 417.5 25.8 431.2 22.7 447.4 -20.5 417.2 25.4 416.7 25.1 449.8 -25.3 431.8 23.2 417.6 26.2"/>
            <path class="st0" d="M418.1,25.8c-.4.6-1.3.8-1.9.4s-.9-1.1-.5-1.7c.4-.6,1.3-.8,1.9-.4s.9,1.1.5,1.7Z"/>
            <path class="st0" d="M417.2,24.8c-.7.1-1.2.8-1,1.5s1,1,1.7.9,1.2-.8,1-1.5-1-1-1.7-.9Z"/>
          </g>
          <g class="st2">
            <polygon class="st0" points="431 23.6 431.2 22.8 448.3 -23 448.9 -22.8 441.6 16.7 441 16.7 447.7 -19.5 432 22.3 439.8 18.3 440.1 18.7 431 23.6"/>
            <path class="st0" d="M442.6,16.9c-.2.7-.8,1.2-1.6,1-.7-.2-1.3-.7-1.1-1.4s.8-1.2,1.6-1c.7.2,1.3.7,1.1,1.4Z"/>
            <path class="st0" d="M440.5,19.6c.7-.3.8-1.1.5-1.7-.4-.6-1.3-.8-1.9-.5-.7.3-.8,1.1-.5,1.7.4.6,1.3.8,1.9.5Z"/>
          </g>
          <g class="st2">
            <polygon class="st0" points="227.2 8.3 227.2 7.8 250.4 7.9 257.8 -61.4 226.7 7 226.1 6.9 258.7 -65 251 8.4 227.2 8.3"/>
            <path class="st0" d="M227.8,7.4c-.3.6-1,1-1.8.6-.7-.3-1.1-.9-.8-1.6.3-.6,1-1,1.8-.6.7.3,1.1.9.8,1.6Z"/>
            <path class="st0" d="M227.3,6.8c-.8,0-1.4.6-1.4,1.2,0,.7.6,1.3,1.4,1.2s1.4-.6,1.4-1.2c0-.7-.6-1.3-1.4-1.2Z"/>
          </g>
          <g class="st2">
            <polygon class="st0" points="250.2 9.3 257.8 -62.1 258.4 -62 251.1 7 282.6 -37.5 258.8 -62.1 259.3 -62.6 283.4 -37.6 283.2 -37.4 250.2 9.3"/>
            <path class="st0" d="M258.1-61.5c-.5-.5-.5-1.3.2-1.7.6-.4,1.5-.4,1.9.2.5.5.5,1.3-.2,1.7-.6.4-1.5.4-1.9-.2Z"/>
            <path class="st0" d="M259.5-61.9c0-.7-.5-1.3-1.3-1.3-.8,0-1.5.4-1.5,1.1s.5,1.3,1.3,1.3,1.5-.4,1.5-1.1Z"/>
          </g>
          <g class="st2">
            <polygon class="st0" points="547.7 -10 510.6 -23.5 510.8 -24 547.4 -10.7 564.1 -43.8 510.8 -24.4 510.5 -24.9 565.3 -44.8 547.7 -10"/>
            <path class="st0" d="M510.3-22.6c-.7-.3-1.1-.9-.8-1.6.3-.6,1-1,1.8-.7.7.3,1.1.9.8,1.6-.3.6-1,1-1.8.7Z"/>
            <path class="st0" d="M510.3-25.8c-.7.2-1,1-.8,1.7.2.6,1.1.9,1.8.7.7-.2,1-1,.8-1.7s-1.1-.9-1.8-.7Z"/>
          </g>
          <g class="st2">
            <path class="st0" d="M510.8-24.4l-.2-.5-.4-.4,43.1-36.6,11.8,17.7-54.3,19.7h.1ZM553.2-60.9l-42.3,35.9,53.3-19.4s-11-16.5-11-16.5Z"/>
            <path class="st0" d="M511.4-24.2c-.6.4-1.5.4-1.9,0-.5-.5-.5-1.3,0-1.7s1.5-.4,1.9,0c.5.5.5,1.3,0,1.7Z"/>
            <path class="st0" d="M510.3-25.8c-.7.2-1,1-.8,1.7.2.6,1.1.9,1.8.7.7-.2,1-1,.8-1.7s-1.1-.9-1.8-.7Z"/>
          </g>
          <g class="st2">
            <polygon class="st0" points="548.9 -10.1 548.9 -10.6 585.1 -10.4 564.7 -43.6 548.4 -11.3 547.8 -11.6 564.6 -44.9 586.1 -9.9 548.9 -10.1"/>
            <path class="st0" d="M549-9.1c-.8,0-1.3-.6-1.4-1.2s.6-1.2,1.4-1.2c.8,0,1.3.6,1.4,1.2s-.6,1.2-1.4,1.2Z"/>
            <path class="st0" d="M546.9-12c-.4.6,0,1.3.7,1.7.7.3,1.5,0,1.9-.6s0-1.3-.7-1.7c-.7-.3-1.5,0-1.9.6Z"/>
          </g>
          <g class="st2">
            <polygon class="st0" points="565.8 -42 553.7 -60.3 554.2 -60.5 563.5 -46.6 556.9 -64.3 554.4 -62 554 -62.4 557.2 -65.3 565.8 -42"/>
            <path class="st0" d="M555.2-61.4c-.6.4-1.4.5-1.9,0s-.6-1.3,0-1.7c.6-.4,1.4-.5,1.9,0s.6,1.3,0,1.7Z"/>
            <path class="st0" d="M555.2-61c-.4-.6-1.3-.8-1.9-.5s-.8,1.1-.5,1.7c.4.6,1.3.8,1.9.5s.8-1.1.5-1.7Z"/>
          </g>
          <g class="st2">
            <polygon class="st0" points="586.8 -10.7 586.3 -11.1 609.8 -32 565.3 -43.8 585.3 -11.2 584.7 -11 564.1 -44.7 611 -32.2 586.8 -10.7"/>
            <path class="st0" d="M587.6-10.1c-.6.4-1.4.5-1.9,0s-.6-1.3,0-1.7c.6-.4,1.4-.5,1.9,0s.6,1.3,0,1.7Z"/>
            <path class="st0" d="M583.8-10.6c.3.6,1.2.8,1.8.5s.9-1.1.6-1.6-1.2-.8-1.8-.5-.9,1.1-.6,1.6Z"/>
          </g>
          <g class="st2">
            <path class="st0" d="M173.7,25.4L162.7.5h10.2s0,.3,0,.3l1.8,24.3h-.5s-.5.2-.5.2h0ZM163.6,1.1l10.6,23.7-1.8-23.5h-8.8s0-.1,0-.1Z"/>
            <path class="st0" d="M175.3,24.8c.2.7,0,1.3-.8,1.6-.7.2-1.5-.1-1.7-.7-.2-.7,0-1.3.8-1.6.7-.2,1.5.1,1.7.7Z"/>
            <path class="st0" d="M173,25.2c0,.7.7,1.2,1.5,1.2.8,0,1.4-.6,1.3-1.3s-.7-1.2-1.5-1.2c-.8,0-1.4.6-1.3,1.3Z"/>
          </g>
          <g class="st2">
            <path class="st0" d="M175.1,25.4l-.5-.2h-.5s-1.8-24.5-1.8-24.5h.2s12-7.2,12-7.2l-9.4,31.8h0ZM172.9,1l1.8,23.7,8.8-30-10.6,6.2Z"/>
            <path class="st0" d="M175.8,25.2c0,.7-.5,1.2-1.3,1.3s-1.4-.5-1.5-1.2.5-1.2,1.3-1.3,1.4.5,1.5,1.2Z"/>
            <path class="st0" d="M173.6,24.9c-.2.6.3,1.3,1,1.5.7.2,1.5-.2,1.6-.9.2-.6-.3-1.3-1-1.5-.7-.2-1.5.2-1.6.9Z"/>
          </g>
          <g class="st2">
            <polygon class="st0" points="175.9 26.3 175.7 25.8 225.1 8.1 184.2 -5.5 175.1 25.4 174.6 25.2 183.9 -6.2 184.2 -6.1 226.8 8 226 8.3 175.9 26.3"/>
            <path class="st0" d="M176.3,25.5c-.2.6-.9,1.1-1.6.9s-1.2-.8-1-1.5c.2-.6.9-1.1,1.6-.9s1.2.8,1,1.5Z"/>
            <path class="st0" d="M175.3,24.8c-.7.2-1,1-.8,1.6.2.7,1.1.9,1.7.7s1-1,.8-1.6c-.2-.7-1.1-.9-1.7-.7Z"/>
          </g>
          <g class="st2">
            <polygon class="st0" points="-4.9 -98.3 4.9 -130 27 -115 26.6 -114.6 5.2 -129 -3.9 -99.4 26.6 -113.8 26.9 -113.3 -4.9 -98.3"/>
            <path class="st0" d="M26.1-114.5c.7-.3,1.5,0,1.8.5s0,1.4-.6,1.6-1.5,0-1.8-.5,0-1.4.6-1.6Z"/>
            <path class="st0" d="M26-113.8c.6.5,1.5.3,1.9-.2.5-.5.3-1.3-.3-1.7-.6-.5-1.5-.3-1.9.2-.5.5-.3,1.3.3,1.7Z"/>
          </g>
          <g class="st2">
            <polygon class="st0" points="119.3 -65.4 95.2 -88.7 95.7 -89.1 119.4 -66.2 141.4 -80.8 95.8 -89.3 95.8 -89.8 142.8 -81.1 119.3 -65.4"/>
            <path class="st0" d="M94.5-88c-.5-.5-.5-1.3,0-1.7s1.5-.4,1.9,0c.5.5.5,1.3,0,1.7-.6.4-1.5.4-1.9,0Z"/>
            <path class="st0" d="M96.2-90.7c-.7-.2-1.5.3-1.6.9-.2.7.3,1.3,1.1,1.4.7.2,1.5-.3,1.6-.9.2-.7-.3-1.3-1.1-1.4Z"/>
          </g>
          <g class="st2">
            <polygon class="st0" points="712.5 -49.9 655.4 -51.9 655.4 -52.5 709.9 -50.5 678.8 -65.4 655.4 -52.6 655.1 -53.1 678.9 -66.1 679 -66 712.5 -49.9"/>
            <path class="st0" d="M656-51.8c-.7.3-1.5,0-1.9-.4-.4-.6-.2-1.4.5-1.7.7-.3,1.5,0,1.9.4.4.6.2,1.4-.5,1.7Z"/>
            <path class="st0" d="M655.6-53.4c-.8,0-1.4.5-1.4,1.2,0,.7.6,1.3,1.3,1.3.8,0,1.4-.5,1.4-1.2,0-.7-.6-1.3-1.3-1.3Z"/>
          </g>
          <g class="st2">
            <polygon class="st0" points="712.5 -49.2 679.9 -64.9 680.1 -65.3 710 -51.1 688.3 -73.7 680 -66.3 679.6 -66.7 688.4 -74.5 712.5 -49.2"/>
            <path class="st0" d="M680.8-65.7c-.6.4-1.4.5-1.9,0s-.6-1.3,0-1.7c.6-.4,1.4-.5,1.9,0s.6,1.3,0,1.7Z"/>
            <path class="st0" d="M680.7-66.2c-.7-.4-1.5-.1-1.9.5s-.1,1.3.6,1.7c.7.4,1.5.1,1.9-.5s.1-1.3-.6-1.7Z"/>
          </g>
          <g class="st2">
            <polygon class="st0" points="629.3 -82.2 619.4 -107.1 639.4 -108.6 639.5 -108.1 620.3 -106.7 629.4 -83.8 640 -107.5 640.6 -107.3 629.3 -82.2"/>
            <path class="st0" d="M638.9-107.8c.3-.6,1-1,1.8-.7s1.1.9.8,1.6c-.3.6-1,1-1.8.7-.7-.3-1.1-.9-.8-1.6Z"/>
            <path class="st0" d="M639.5-107.1c.8,0,1.4-.7,1.2-1.3s-.8-1.2-1.5-1.1-1.4.7-1.2,1.3c0,.7.8,1.2,1.5,1.1Z"/>
          </g>
          <g class="st2">
            <polygon class="st0" points="652.7 -77.3 629 -82.8 629.1 -83.1 640 -107.5 640.6 -107.3 629.7 -83.2 651.7 -78.2 640.9 -107.2 641.5 -107.5 652.7 -77.3"/>
            <path class="st0" d="M639.9-107c-.2-.7.1-1.3.9-1.6.7-.2,1.5.1,1.8.8.2.7-.1,1.3-.9,1.6-.7.2-1.5-.1-1.8-.8Z"/>
            <path class="st0" d="M641.5-106.9c.3-.6,0-1.4-.8-1.6-.7-.3-1.5,0-1.8.7s0,1.4.8,1.6,1.5,0,1.8-.7Z"/>
          </g>
          <g class="st2">
            <polygon class="st0" points="265.8 -62.9 258.8 -70.6 259.2 -71 266 -63.5 278.1 -68.1 259.4 -71.3 259.6 -71.8 280.3 -68.3 265.8 -62.9"/>
            <path class="st0" d="M258-70c-.4-.6-.4-1.3.2-1.7s1.5-.3,1.9.2c.4.6.4,1.3-.2,1.7s-1.5.3-1.9-.2Z"/>
            <path class="st0" d="M259.8-72.7c-.7-.2-1.5.3-1.6,1s.4,1.3,1.1,1.4,1.5-.3,1.6-1c.2-.7-.4-1.3-1.1-1.4Z"/>
          </g>
          <g class="st2">
            <polygon class="st0" points="283.5 -36.3 265.4 -63.3 277.9 -68 278.1 -67.5 266.3 -63 282.5 -38.7 279.1 -67 279.6 -67.1 283.5 -36.3"/>
            <path class="st0" d="M277.3-68.9c.7-.2,1.5,0,1.8.7.3.6,0,1.3-.7,1.6-.7.2-1.5,0-1.8-.7-.3-.6,0-1.3.7-1.6Z"/>
            <path class="st0" d="M280.7-67.1c0-.7-.8-1.2-1.5-1.1s-1.3.7-1.2,1.4.8,1.2,1.5,1.1,1.3-.7,1.2-1.4Z"/>
          </g>
          <g class="st2">
            <path class="st0" d="M291.1-33.6l-8.4-3.9h0c0,0-3.7-29.6-3.7-29.6h.4s.4,0,.4,0l11.3,33.6h0ZM283.3-37.7l6.8,3.1-10.2-30.6,3.4,27.5Z"/>
            <path class="st0" d="M278-66.8c0-.7.4-1.3,1.2-1.4s1.4.4,1.5,1.1-.4,1.3-1.2,1.4-1.4-.4-1.5-1.1Z"/>
            <path class="st0" d="M280.9-67.4c-.2-.7-1-1-1.8-.8-.7.1-1.1.9-.9,1.6s1,1,1.8.8c.7-.1,1.1-.9.9-1.6Z"/>
          </g>
          <g class="st2">
            <polygon class="st0" points="290.5 -33.7 279.3 -67 279.8 -67.1 290.8 -34.6 324.2 -55.9 280.3 -67.6 280.5 -68.2 325.6 -56.1 290.5 -33.7"/>
            <path class="st0" d="M278.3-66.6c-.2-.7.2-1.3.9-1.6.7-.1,1.5.2,1.8.8.2.7-.2,1.3-.9,1.6-.7.1-1.5-.2-1.8-.8Z"/>
            <path class="st0" d="M280.9-69c-.7-.2-1.5,0-1.7.8-.3.6.2,1.4.9,1.5.7.2,1.5,0,1.7-.8.3-.6-.2-1.4-.9-1.5Z"/>
          </g>
          <g class="st2">
            <polygon class="st0" points="509.7 -23.5 477.6 -64.1 478.2 -64.5 509.2 -25 512.9 -66.5 478.4 -65.1 478.4 -65.6 513.6 -67 513.6 -66.7 509.7 -23.5"/>
            <path class="st0" d="M476.8-63.6c-.4-.6-.3-1.3.3-1.7.6-.3,1.5-.3,1.9.3.4.6.3,1.3-.3,1.7-.6.3-1.5.3-1.9-.3Z"/>
            <path class="st0" d="M478.4-66.6c-.8,0-1.4.6-1.3,1.3s.7,1.3,1.5,1.2,1.4-.6,1.3-1.3-.7-1.3-1.5-1.2Z"/>
          </g>
          <g class="st2">
            <polygon class="st0" points="509.1 -23.5 512.9 -65.6 513.5 -65.5 509.9 -24.9 552.5 -61.2 514.5 -66.3 514.6 -66.8 553.9 -61.6 509.1 -23.5"/>
            <path class="st0" d="M511.8-65.6c0-.7.7-1.2,1.5-1.1.8,0,1.3.6,1.3,1.3,0,.7-.7,1.2-1.5,1.1-.8,0-1.3-.6-1.3-1.3Z"/>
            <path class="st0" d="M514.8-67.8c-.7-.2-1.5.4-1.5,1-.2.7.4,1.3,1.2,1.4.7.2,1.5-.4,1.5-1,.2-.7-.4-1.3-1.2-1.4Z"/>
          </g>
          <g class="st2">
            <path class="st0" d="M584-1.3l-35.2-8.5v-.4c0,0,.1-.4.1-.4l37.1.2-2,9.2h0ZM549.9-10.1l33.6,8.1,1.8-7.9-35.3-.3h0Z"/>
            <path class="st0" d="M549-9.1c-.8,0-1.3-.6-1.4-1.2s.6-1.2,1.4-1.2c.8,0,1.3.6,1.4,1.2s-.6,1.2-1.4,1.2Z"/>
            <path class="st0" d="M549.2-11.3c-.7-.2-1.5.2-1.6.9-.2.6.3,1.3,1,1.5.7.2,1.5-.2,1.6-.9.2-.6-.3-1.3-1-1.5Z"/>
          </g>
          <g class="st2">
            <polygon class="st0" points="565.5 30 562.4 27.2 583.4 -1.8 584.1 -1.5 567.5 29.6 566.9 29.5 581.5 1.9 563.2 27.1 565.9 29.5 565.5 30"/>
            <path class="st0" d="M568.5,30.1c-.4.6-1.1.9-1.9.6s-1-1-.6-1.7,1.1-.9,1.9-.6,1,1,.6,1.7Z"/>
            <path class="st0" d="M564.6,30.6c.5.5,1.4.5,1.9,0,.6-.4.5-1.2,0-1.7s-1.4-.5-1.9,0c-.6.4-.5,1.2,0,1.7Z"/>
          </g>
          <g class="st2">
            <polygon class="st0" points="593.9 45.7 566.3 30.7 566.3 30.5 583.9 -2.4 595.3 44.9 594.6 45 583.6 -.8 567 30.5 594.2 45.3 593.9 45.7"/>
            <path class="st0" d="M596.2,44.7c.1.7-.3,1.3-1.1,1.5-.8,0-1.5-.3-1.7-1s.3-1.3,1.1-1.5c.8,0,1.5.3,1.7,1Z"/>
            <path class="st0" d="M593.3,46.5c.6.4,1.5.2,1.9-.4.4-.6.2-1.3-.5-1.7s-1.5-.2-1.9.4c-.4.6-.2,1.3.5,1.7Z"/>
          </g>
          <g class="st2">
            <polygon class="st0" points="583.4 -1.4 585.1 -9 585.7 -9 584.1 -1.9 599.8 -1.8 586.6 -9.2 586.9 -9.7 601.9 -1.2 583.4 -1.4"/>
            <path class="st0" d="M586.1-8.4c-.6-.4-.9-1.1-.4-1.7.4-.5,1.3-.8,1.9-.4s.9,1.1.4,1.7c-.4.5-1.3.8-1.9.4Z"/>
            <path class="st0" d="M586.7-8.6c.2-.7-.3-1.3-1.1-1.4-.7-.2-1.5.3-1.6.9s.3,1.3,1.1,1.4c.7.2,1.5-.3,1.6-.9Z"/>
          </g>
          <g class="st2">
            <path class="st0" d="M594.6,45l-11.2-46.9h17.8c0,.1,0,.4,0,.4l-5.6,46.5h-.5s-.5,0-.5,0h0ZM584.1-1.3l10.9,45.7,5.4-45.7h-16.4c0-.1.1,0,.1,0Z"/>
            <path class="st0" d="M596.7,45c0,.7-.7,1.2-1.5,1.1s-1.4-.7-1.2-1.3c0-.7.7-1.2,1.5-1.1s1.4.7,1.2,1.3Z"/>
            <path class="st0" d="M593.6,45.1c.1.7.9,1.1,1.7,1,.8,0,1.3-.8,1.1-1.5-.1-.7-.9-1.1-1.7-1-.8,0-1.3.8-1.1,1.5Z"/>
          </g>
          <g class="st2">
            <polygon class="st0" points="520.8 8.6 520.7 8.3 509.6 -23.1 510.2 -23.2 521.1 7.9 541.3 1.4 510.3 -23.2 510.6 -23.6 542.5 1.6 520.8 8.6"/>
            <path class="st0" d="M508.6-22.7c-.2-.7.2-1.3.9-1.6s1.5.2,1.8.8c.2.7-.2,1.3-.9,1.6s-1.5-.2-1.8-.8Z"/>
            <path class="st0" d="M511.5-24.3c-.5-.5-1.4-.4-1.9.1s-.4,1.3.1,1.7c.5.5,1.4.4,1.9-.1s.4-1.3-.1-1.7Z"/>
          </g>
          <g class="st2">
            <path class="st0" d="M542,2l-.3-.3-31.4-25,.4-.3.2-.4,37.2,13.5-6,12.5ZM511.1-23.3l30.7,24.4,5.4-11.3-36.1-13.1h0Z"/>
            <path class="st0" d="M510.3-22.6c-.7-.3-1.1-.9-.8-1.6.3-.6,1-1,1.8-.7.7.3,1.1.9.8,1.6-.3.6-1,1-1.8.7Z"/>
            <path class="st0" d="M511.5-24.3c-.5-.5-1.4-.4-1.9.1s-.4,1.3.1,1.7c.5.5,1.4.4,1.9-.1s.4-1.3-.1-1.7Z"/>
          </g>
          <g class="st2">
            <polygon class="st0" points="532.9 13.2 520.1 8.1 542.5 1 535.2 12.5 534.7 12.3 541.2 2 521.8 8.2 533.2 12.7 532.9 13.2"/>
            <path class="st0" d="M536.1,13c-.4.6-1.3.8-1.9.4-.6-.4-.9-1.1-.5-1.7s1.3-.8,1.9-.4.9,1.1.5,1.7Z"/>
            <path class="st0" d="M532.5,14c.7.3,1.5,0,1.8-.6.3-.6,0-1.4-.7-1.7-.7-.3-1.5,0-1.8.6-.3.6,0,1.4.7,1.7Z"/>
          </g>
          <g class="st2">
            <path class="st0" d="M561.5,26.8l-27.6-13.4,8-12.5.3.4,20.2,24.7-.5.3-.3.5h-.1ZM534.7,13.3l27.1,13.1-19.9-24.3-7.2,11.3h-.1Z"/>
            <path class="st0" d="M563.1,25.4c.4.6.3,1.3-.3,1.7-.6.4-1.5.3-1.9-.3s-.3-1.3.3-1.7c.6-.4,1.5-.3,1.9.3Z"/>
            <path class="st0" d="M560.9,27.7c.6.4,1.5.1,1.9-.5s.1-1.3-.6-1.7c-.6-.4-1.5-.1-1.9.5s-.1,1.3.6,1.7Z"/>
          </g>
          <g class="st2">
            <polygon class="st0" points="541.4 1.8 546.8 -9.4 547.4 -9.2 542.4 1.2 581.9 -1.8 548.7 -9.8 548.9 -10.3 585.5 -1.5 541.4 1.8"/>
            <path class="st0" d="M548.6-8.8c-.7-.2-1.2-.8-1-1.5.2-.6.9-1.1,1.6-.9s1.2.8,1,1.5c-.2.6-.9,1.1-1.6.9Z"/>
            <path class="st0" d="M548.3-8.8c.3-.6,0-1.4-.7-1.7-.7-.3-1.5,0-1.8.6-.3.6,0,1.4.7,1.7.7.3,1.5,0,1.8-.6Z"/>
          </g>
          <g class="st2">
            <polygon class="st0" points="561.8 26.4 541.3 1.3 584.3 -2 563.8 26.4 563.2 26 583.2 -1.3 542.4 1.7 562.3 26.1 561.8 26.4"/>
            <path class="st0" d="M564.7,26.8c-.5.5-1.3.7-1.9.3-.6-.4-.8-1.2-.4-1.7.5-.5,1.3-.7,1.9-.3s.8,1.2.4,1.7Z"/>
            <path class="st0" d="M560.9,26.9c.4.6,1.4.7,1.9.3.6-.4.7-1.2.3-1.7-.4-.6-1.4-.7-1.9-.3-.6.4-.7,1.2-.3,1.7Z"/>
          </g>
          <g class="st1">
            <polygon class="st0" points="688.3 -73.8 681.3 -83.3 681.7 -83.6 688.5 -74.5 713.5 -83.9 682.1 -84.1 682.1 -84.7 716.5 -84.5 688.3 -73.8"/>
            <path class="st0" d="M680.4-82.7c-.4-.6-.3-1.3.4-1.7.7-.3,1.5-.2,1.9.4s.3,1.3-.4,1.7c-.7.3-1.5.2-1.9-.4Z"/>
            <path class="st0" d="M682.1-85.6c-.8,0-1.4.6-1.4,1.2,0,.7.6,1.3,1.4,1.2s1.4-.6,1.4-1.2c0-.7-.6-1.3-1.4-1.2Z"/>
          </g>
          <g class="st1">
            <polygon class="st0" points="711.5 -49.5 689 -73 689.4 -73.4 711 -50.9 714.7 -83.8 689.7 -74.4 689.4 -74.9 715.3 -84.6 711.5 -49.5"/>
            <path class="st0" d="M688.2-72.4c-.5-.6-.4-1.3.2-1.7.6-.4,1.5-.4,1.9.2.5.6.4,1.3-.2,1.7-.6.4-1.5.4-1.9-.2Z"/>
            <path class="st0" d="M689.1-75.8c-.7.2-1,1-.7,1.6.3.6,1.1.9,1.8.7.7-.2,1-1,.7-1.6s-1.1-.9-1.8-.7Z"/>
          </g>
          <g class="st2">
            <polygon class="st0" points="-20.2 -97.1 -20.3 -97.7 -5.2 -99.1 -17.6 -108.7 -20.9 -98.4 -21.5 -98.5 -17.9 -109.7 -3.7 -98.7 -20.2 -97.1"/>
            <path class="st0" d="M-20-96.2c-.8,0-1.4-.4-1.5-1.1s.4-1.3,1.2-1.4,1.4.4,1.5,1.1-.4,1.3-1.2,1.4Z"/>
            <path class="st0" d="M-22.5-98.9c-.3.6.2,1.4.9,1.5s1.5,0,1.7-.8-.2-1.4-.9-1.5c-.7-.2-1.5,0-1.7.8Z"/>
          </g>
          <g class="st2">
            <polygon class="st0" points="-4.2 -98.4 -18.2 -109.2 3.9 -128.9 4.4 -128.5 -17.3 -109.2 -4.6 -99.4 4.4 -128.4 5 -128.3 -4.2 -98.4"/>
            <path class="st0" d="M3.1-129.5c.6-.4,1.4-.5,1.9,0s.6,1.3,0,1.7c-.6.4-1.4.5-1.9,0s-.6-1.3,0-1.7Z"/>
            <path class="st0" d="M6-127.9c.2-.6-.2-1.4-1-1.5s-1.5,0-1.7.8c-.2.6.2,1.4,1,1.5.8.1,1.5,0,1.7-.8Z"/>
          </g>
          <g class="st2">
            <polygon class="st0" points="505.9 3.6 492.9 -11.3 493.4 -11.7 505.5 2.3 509.1 -23.6 493.6 -12.9 493.2 -13.3 509.9 -24.9 505.9 3.6"/>
            <path class="st0" d="M494.4-12.2c-.6.4-1.5.3-1.9-.3s-.4-1.3.3-1.7c.6-.4,1.5-.3,1.9.3s.4,1.3-.3,1.7Z"/>
            <path class="st0" d="M494.4-12.2c-.4-.6-1.3-.6-1.9-.3-.6.4-.7,1.2-.3,1.7s1.3.6,1.9.3c.6-.4.7-1.2.3-1.7Z"/>
          </g>
          <g class="st2">
            <path class="st0" d="M506.6,36.1l-.5-.3h-.6s0-33.2,0-33.2l16,5.5-.2.3s-14.7,27.7-14.7,27.7ZM506,3.3v32.4s14.6-27.4,14.6-27.4l-14.5-5h0Z"/>
            <path class="st0" d="M507.6,36.4c-.4.6-1.1.9-1.9.6-.7-.3-1-1-.7-1.7.4-.6,1.1-.9,1.9-.6s1,1,.7,1.7Z"/>
            <path class="st0" d="M504.4,35.8c0,.7.6,1.3,1.4,1.2s1.4-.6,1.4-1.2c0-.7-.6-1.3-1.4-1.2s-1.4.6-1.4,1.2Z"/>
          </g>
          <g class="st2">
            <path class="st0" d="M521.4,8.6l-16-5.5,3.7-26.3h.6c0,0,.6,0,.6,0l11.2,31.8h0ZM506.1,2.8l14.5,5-10.9-30.6-3.6,25.8h0Z"/>
            <path class="st0" d="M508.6-22.7c-.2-.7.2-1.3.9-1.6s1.5.2,1.8.8c.2.7-.2,1.3-.9,1.6s-1.5-.2-1.8-.8Z"/>
            <path class="st0" d="M510.7-22.8c0-.7-.5-1.3-1.2-1.4-.7,0-1.5.4-1.5,1.1s.5,1.3,1.2,1.4c.7,0,1.5-.4,1.5-1.1Z"/>
          </g>
          <g class="st2">
            <polygon class="st0" points="-5.5 12.7 -10.5 8.3 27.7 -29.1 28.2 -28.8 -3.4 12.6 -3.9 12.2 25.3 -25.9 -9.7 8.2 -5.1 12.4 -5.5 12.7"/>
            <path class="st0" d="M-2.5,13c-.5.5-1.3.7-1.9.3s-.8-1.2-.4-1.7c.5-.5,1.3-.7,1.9-.3.6.4.8,1.2.4,1.7Z"/>
            <path class="st0" d="M-6.3,13.4c.5.5,1.4.5,1.9,0,.6-.4.5-1.2,0-1.7s-1.4-.5-1.9,0c-.6.4-.5,1.2,0,1.7Z"/>
          </g>
          <g class="st2">
            <polygon class="st0" points="-8.9 7.6 -9.5 7.2 27.4 -28.8 1.5 -38.9 -9.5 7.2 -10.1 7 1.1 -39.7 28.5 -29 -8.9 7.6"/>
            <path class="st0" d="M-8.5,7.3c-.2.7-.9,1.1-1.6.9s-1.3-.8-1.1-1.4c.2-.7.9-1.1,1.6-.9s1.3.8,1.1,1.4Z"/>
            <path class="st0" d="M-10.2,6.5c-.5.5-.5,1.2.1,1.7.5.5,1.4.4,1.9-.1s.5-1.2-.1-1.7c-.5-.5-1.4-.4-1.9.1Z"/>
          </g>
          <g class="st2">
            <polygon class="st0" points="27.5 -28.6 27.6 -29 44.5 -100.9 45.1 -100.8 28.4 -29.3 75.1 -37.4 45.3 -100.9 45.8 -101 76 -37 27.5 -28.6"/>
            <path class="st0" d="M44.3-100.4c-.3-.6,0-1.3.7-1.6s1.5,0,1.8.7c.3.6,0,1.3-.7,1.6s-1.5,0-1.8-.7Z"/>
            <path class="st0" d="M46.1-100.5c.2-.7-.3-1.3-1.1-1.4s-1.5.3-1.6.9c-.2.7.3,1.3,1.1,1.4.7.2,1.5-.3,1.6-.9Z"/>
          </g>
          <g class="st2">
            <polygon class="st0" points="59 -21.9 26.5 -29 76.4 -37.6 61.4 -22.7 61 -22.9 74.7 -36.8 29.4 -29 59.1 -22.5 59 -21.9"/>
            <path class="st0" d="M62.3-22c-.5.5-1.4.6-1.9.1s-.6-1.3-.1-1.7c.5-.5,1.4-.6,1.9-.1s.6,1.3.1,1.7Z"/>
            <path class="st0" d="M58.7-21c.7.2,1.5-.2,1.6-.9.2-.6-.3-1.3-1-1.5-.7-.2-1.5.2-1.6.9s.3,1.3,1,1.5Z"/>
          </g>
          <g class="st2">
            <polygon class="st0" points="181 -50.5 156.9 -75.8 167.5 -82.1 167.8 -81.6 157.8 -75.7 179.5 -53 168.9 -81.3 169.5 -81.4 181 -50.5"/>
            <path class="st0" d="M167.9-80.9c-.2-.7.1-1.3.9-1.6.7-.2,1.5.1,1.8.8.2.7-.1,1.3-.9,1.6-.7.2-1.5-.1-1.8-.8Z"/>
            <path class="st0" d="M168.4-80.8c.7-.3.8-1.2.4-1.7s-1.3-.7-1.9-.4-.8,1.2-.4,1.7,1.3.7,1.9.4Z"/>
          </g>
          <g class="st2">
            <path class="st0" d="M172.6-39.3l-15-35.3h.5c0-.1.4-.5.4-.5l22.2,23.2v.2c0,0-8,12.4-8,12.4h0ZM158.3-74.4l14.4,33.8,7.2-11.2-21.5-22.6Z"/>
            <path class="st0" d="M156.6-74.2c-.2-.7.1-1.3.8-1.6s1.5.1,1.7.7c.2.7-.1,1.3-.8,1.6s-1.5-.1-1.7-.7Z"/>
            <path class="st0" d="M159.3-75.7c-.5-.6-1.3-.6-1.9-.2-.6.4-.6,1.2-.2,1.7.5.6,1.3.6,1.9.2.6-.4.6-1.2.2-1.7Z"/>
          </g>
          <g class="st2">
            <path class="st0" d="M180.1-51.3l-11.2-30h.5c0-.1.4-.5.4-.5l20.3,21.5-10,8.9h.1ZM169.6-81.3l10.7,29,9-8-19.7-20.9Z"/>
            <path class="st0" d="M168.6-80.8c-.5-.6-.4-1.3.2-1.7.6-.4,1.5-.4,1.9.2.5.6.4,1.3-.2,1.7s-1.5.4-1.9-.2Z"/>
            <path class="st0" d="M170.5-81.7c-.2-.7-1.1-1-1.8-.8s-1.1.9-.9,1.6,1.1,1,1.8.8,1.1-.9.9-1.6Z"/>
          </g>
          <g class="st2">
            <polygon class="st0" points="184.6 -3.4 172.7 -38.8 173.3 -38.9 183.5 -8.3 180 -50.9 173.6 -40.8 173 -41.1 180.5 -52.7 184.6 -3.4"/>
            <path class="st0" d="M171.7-38.4c-.2-.7.2-1.3.9-1.6.7-.1,1.5.2,1.8.8.2.7-.2,1.3-.9,1.6-.7.1-1.5-.2-1.8-.8Z"/>
            <path class="st0" d="M172.1-41.6c-.4.6-.1,1.3.5,1.7.6.4,1.5.1,1.9-.4.4-.6.1-1.3-.5-1.7s-1.5-.1-1.9.4Z"/>
          </g>
          <g class="st2">
            <path class="st0" d="M183.6-7l-3.8-44.9,10.2-9.1v.7c0,0-5.6,53.3-5.6,53.3h-.4s-.4,0-.4,0h0ZM180.5-51.7l3.5,42.6,5.3-50.5-8.8,7.8h0Z"/>
            <path class="st0" d="M185.5-7c0,.7-.7,1.2-1.5,1.1s-1.4-.7-1.3-1.3c0-.7.7-1.2,1.5-1.1s1.4.7,1.3,1.3Z"/>
            <path class="st0" d="M182.6-7c0,.7.7,1.2,1.5,1.1s1.4-.6,1.3-1.3-.7-1.2-1.5-1.1-1.4.6-1.3,1.3Z"/>
          </g>
          <g class="st2">
            <polygon class="st0" points="556.8 -66 555 -77.2 555.6 -77.2 557.3 -67 596.8 -94 556.5 -78.6 556.3 -79.1 601 -96.3 556.8 -66"/>
            <path class="st0" d="M554-77c0-.7.4-1.3,1.2-1.4s1.4.4,1.6,1.1c0,.7-.4,1.3-1.2,1.4s-1.4-.4-1.6-1.1Z"/>
            <path class="st0" d="M555.9-80c-.7.2-1,1-.7,1.6.3.6,1.2.9,1.8.7s1-1,.7-1.6c-.3-.6-1.2-.9-1.8-.7Z"/>
          </g>
          <g class="st2">
            <path class="st0" d="M556.8-64.2v-2.4s.1,0,.1,0l40.8-28.1.4.5-41.3,30h0ZM557.3-66.3v1c0,0,24.4-17.6,24.4-17.6l-24.4,16.6Z"/>
            <path class="st0" d="M597-95.4c.6-.4,1.5-.3,1.9.3.4.6.4,1.3-.3,1.7s-1.5.3-1.9-.3c-.4-.6-.4-1.3.3-1.7Z"/>
            <path class="st0" d="M598.7-93.4c.6-.4.7-1.3.2-1.7-.4-.6-1.3-.6-1.9-.2-.6.4-.7,1.3-.2,1.7.4.6,1.3.6,1.9.2Z"/>
          </g>
          <g class="st2">
            <path class="st0" d="M564.6-43.6l-7.9-21.2,41-29.8.3.4.4.3-33.9,50.4h0ZM557.4-64.7l7.3,19.8,33-49s-40.4,29.2-40.4,29.2Z"/>
            <path class="st0" d="M597-95.3c.6-.4,1.5-.3,1.9.2.4.6.4,1.3-.2,1.7s-1.5.3-1.9-.2c-.4-.6-.4-1.3.2-1.7Z"/>
            <path class="st0" d="M599.4-93.5c.4-.6.2-1.3-.5-1.7-.6-.4-1.5-.2-1.9.4s-.2,1.3.5,1.7,1.5.2,1.9-.4Z"/>
          </g>
          <g class="st2">
            <polygon class="st0" points="610.7 -31.7 610.3 -31.8 564.2 -44.1 597.9 -94.3 598.5 -94 565.2 -44.5 610 -32.5 598.8 -93.9 599.4 -94.1 610.7 -31.7"/>
            <path class="st0" d="M597-94.7c.4-.6,1.3-.8,1.9-.4.6.4.9,1.1.5,1.7-.4.6-1.3.8-1.9.4s-.9-1.1-.5-1.7Z"/>
            <path class="st0" d="M600.5-94.1c0-.7-.9-1.1-1.6-1-.8,0-1.3.7-1.1,1.4,0,.7.9,1.1,1.6,1,.8,0,1.3-.7,1.1-1.4Z"/>
          </g>
          <g class="st2">
            <path class="st0" d="M610.1-31.7v-.4s-11.4-61.9-11.4-61.9h.7s15,60.3,15,60.3l-4.4,1.9h0ZM600.9-85.8l9.7,53.4,3.2-1.4-13-52h0Z"/>
            <path class="st0" d="M597.8-93.7c0-.7.4-1.3,1.1-1.4s1.4.4,1.6,1-.4,1.3-1.1,1.4-1.4-.4-1.6-1Z"/>
            <path class="st0" d="M600.6-94.1c-.1-.7-.9-1-1.7-1s-1.3.8-1,1.5c.1.7.9,1,1.7,1s1.3-.8,1-1.5Z"/>
          </g>
          <g class="st2">
            <polygon class="st0" points="614.2 -32.6 598.9 -93.9 599.5 -94.1 614.2 -34.9 629 -82.9 599.9 -94.4 600.2 -94.9 629.8 -83.1 629.7 -82.9 614.2 -32.6"/>
            <path class="st0" d="M597.9-93.7c-.1-.7.3-1.3,1-1.5.8,0,1.5.3,1.7,1,.1.7-.3,1.3-1,1.5-.8,0-1.5-.3-1.7-1Z"/>
            <path class="st0" d="M600.8-95.7c-.7-.3-1.5,0-1.9.6-.3.6,0,1.3.7,1.7.7.3,1.5,0,1.9-.6s0-1.3-.7-1.7Z"/>
          </g>
          <g class="st2">
            <polygon class="st0" points="629.9 -82.6 598.3 -95.1 618.6 -106.6 618.9 -106.1 599.6 -95.2 628.8 -83.5 619.9 -105.7 620.5 -105.9 629.9 -82.6"/>
            <path class="st0" d="M619-105.4c-.2-.7.1-1.3.8-1.6s1.5.1,1.8.8c.2.7-.1,1.3-.8,1.6s-1.5-.1-1.8-.8Z"/>
            <path class="st0" d="M619.4-105.2c.7-.3.8-1.2.4-1.7s-1.3-.7-1.9-.4-.8,1.2-.4,1.7c.4.6,1.3.7,1.9.4Z"/>
          </g>
          <g class="st2">
            <polygon class="st0" points="646 -7.8 645.9 -8.4 690.9 -8 648.7 -26.4 645.2 -9.1 644.6 -9.3 648.2 -27.1 693.6 -7.5 646 -7.8"/>
            <path class="st0" d="M646.2-9.1c-.2.7-.8,1.2-1.6,1s-1.3-.8-1.1-1.4c.2-.7.8-1.2,1.6-1,.7.2,1.3.8,1.1,1.4Z"/>
            <path class="st0" d="M646-9.3c-.8,0-1.4.6-1.4,1.2,0,.7.6,1.3,1.4,1.2s1.4-.6,1.4-1.2c0-.7-.6-1.3-1.4-1.2Z"/>
          </g>
          <g class="st2">
            <polygon class="st0" points="680.9 23.3 680.6 23 645.4 -7 645.8 -7.4 680.7 22.3 691.8 -7.5 646 -7.8 645.9 -8.4 692.7 -8 680.9 23.3"/>
            <path class="st0" d="M644.7-6.3c-.5-.5-.6-1.3-.1-1.7.6-.5,1.4-.5,1.9-.1s.6,1.3.1,1.7c-.6.5-1.4.5-1.9.1Z"/>
            <path class="st0" d="M646-9.3c-.8,0-1.4.6-1.4,1.2,0,.7.6,1.3,1.4,1.2s1.4-.6,1.4-1.2c0-.7-.6-1.3-1.4-1.2Z"/>
          </g>
          <g class="st2">
            <polygon class="st0" points="693.2 -7 649.5 -26 649.8 -26.4 691.2 -8.6 654.3 -51.6 649 -27.8 648.4 -28 653.9 -52.9 693.2 -7"/>
            <path class="st0" d="M650.1-27.7c-.2.7-.8,1.1-1.6.9-.7-.2-1.3-.8-1.1-1.4s.8-1.1,1.6-.9c.7.2,1.3.8,1.1,1.4Z"/>
            <path class="st0" d="M650.3-27.3c-.7-.3-1.5,0-1.9.5s0,1.3.6,1.7c.7.3,1.5,0,1.9-.5.4-.6,0-1.3-.6-1.7Z"/>
          </g>
          <g class="st2">
            <polygon class="st0" points="692.3 -7.2 654.7 -51.1 655.2 -51.5 692.1 -8.3 710.7 -49.9 655.4 -51.9 655.4 -52.5 711.7 -50.4 692.3 -7.2"/>
            <path class="st0" d="M655.4-51c-.8,0-1.3-.6-1.3-1.3,0-.7.6-1.2,1.4-1.2.8,0,1.3.6,1.3,1.3,0,.7-.6,1.2-1.4,1.2Z"/>
            <path class="st0" d="M656.1-52c-.4-.6-1.3-.6-1.9-.3-.6.4-.7,1.2-.3,1.7.4.6,1.3.6,1.9.3s.7-1.2.3-1.7Z"/>
          </g>
          <g class="st1">
            <polygon class="st0" points="691.5 -7.1 710.5 -49.2 711 -48.9 692.8 -8.5 726 -28 711.7 -49 712.2 -49.3 726.9 -27.9 726.6 -27.7 691.5 -7.1"/>
            <path class="st0" d="M710.7-48.4c-.4-.6-.2-1.4.5-1.7.7-.3,1.5,0,1.9.4.4.6.2,1.4-.5,1.7-.7.3-1.5,0-1.9-.4Z"/>
            <path class="st0" d="M712-48.6c.3-.6,0-1.4-.8-1.6s-1.5,0-1.8.7,0,1.4.8,1.6,1.5,0,1.8-.7Z"/>
          </g>
          <g class="st2">
            <polygon class="st0" points="134.5 -30.9 118.9 -66 119.2 -66.1 150.3 -77.4 150.5 -76.8 119.7 -65.6 134.5 -32.4 150.9 -76.5 151.6 -76.4 134.5 -30.9"/>
            <path class="st0" d="M149.8-78.2c.7-.2,1.5.1,1.8.7.2.6,0,1.3-.8,1.7-.7.2-1.5-.1-1.8-.7-.2-.6,0-1.3.8-1.7Z"/>
            <path class="st0" d="M152.5-75.9c.3-.6,0-1.4-.9-1.5s-1.5,0-1.7.8c-.3.6,0,1.4.9,1.5s1.5,0,1.7-.8Z"/>
          </g>
          <g class="st2">
            <polygon class="st0" points="117.1 -64.7 142.1 -81.3 150.5 -78.2 150.4 -77.7 142.1 -80.6 121.4 -66.8 150.3 -77.4 150.5 -76.8 117.1 -64.7"/>
            <path class="st0" d="M149.8-78.2c.7-.2,1.5.1,1.8.7.2.6,0,1.3-.8,1.7-.7.2-1.5-.1-1.8-.7-.2-.6,0-1.3.8-1.7Z"/>
            <path class="st0" d="M149.8-76.8c.7.3,1.5,0,1.8-.7s0-1.4-.8-1.6c-.7-.3-1.5,0-1.8.7s0,1.4.8,1.6Z"/>
          </g>
          <g class="st2">
            <polygon class="st0" points="134.8 -31.5 134.3 -31.8 150.9 -76.5 151.6 -76.4 136.6 -36.3 156.9 -75.6 152.8 -76.8 153 -77.4 157.8 -76 157.6 -75.7 134.8 -31.5"/>
            <path class="st0" d="M149.9-76.7c.3-.6,1-1,1.7-.8s1.2.9.9,1.5-1,1-1.7.8-1.2-.9-.9-1.5Z"/>
            <path class="st0" d="M153.4-78.3c-.7-.3-1.5,0-1.7.8-.3.6,0,1.4.9,1.5s1.5,0,1.7-.8,0-1.4-.9-1.5Z"/>
          </g>
          <g class="st2">
            <polygon class="st0" points="300.7 27.2 280.7 22.1 296.5 2.7 302.1 26 301.5 26.1 296.2 4 281.6 21.8 300.9 26.7 300.7 27.2"/>
            <path class="st0" d="M303.1,25.7c.1.7-.3,1.3-1.1,1.5-.8,0-1.5-.3-1.7-1-.1-.7.3-1.3,1.1-1.5.8,0,1.5.3,1.7,1Z"/>
            <path class="st0" d="M300.4,28.1c.7.2,1.5,0,1.6-.8s-.2-1.3-1-1.5c-.7-.2-1.5,0-1.6.8-.2.6.2,1.3,1,1.5Z"/>
          </g>
          <g class="st2">
            <polygon class="st0" points="347.3 28.5 296.1 3.6 296.1 3.4 297.9 -17.6 298.5 -17.6 296.6 3.2 344.4 26.5 298.9 -17.7 299.3 -18 347.3 28.5"/>
            <path class="st0" d="M298.2-17c-.5-.5-.5-1.3,0-1.7.6-.4,1.5-.4,1.9,0,.5.5.5,1.3,0,1.7s-1.5.4-1.9,0Z"/>
            <path class="st0" d="M299.5-17.4c0-.7-.5-1.3-1.3-1.3-.8,0-1.4.5-1.5,1.1,0,.7.5,1.3,1.3,1.3.8,0,1.4-.5,1.5-1.1Z"/>
          </g>
          <g class="st2">
            <polygon class="st0" points="335 32.6 301.9 27.5 301.8 27.3 295.9 2.7 335.5 31.6 335.1 32 296.8 4.1 302.3 27 335.1 32.1 335 32.6"/>
            <path class="st0" d="M336.2,30.9c.6.5.7,1.3.1,1.7-.5.5-1.4.6-1.9.1-.6-.5-.7-1.3-.1-1.7.5-.5,1.4-.6,1.9-.1Z"/>
            <path class="st0" d="M334.7,33.6c.7.2,1.5-.3,1.6-1s-.4-1.3-1.1-1.4-1.5.3-1.6,1,.4,1.3,1.1,1.4Z"/>
          </g>
          <g class="st2">
            <polygon class="st0" points="337.7 32.2 337.3 31.7 345.3 27.5 299.1 5.1 335.5 31.6 335.1 32 296.2 3.5 296.5 3.1 346.5 27.5 337.7 32.2"/>
            <path class="st0" d="M338.2,33c-.7.3-1.5,0-1.9-.5s0-1.4.5-1.7,1.5,0,1.9.5,0,1.4-.5,1.7Z"/>
            <path class="st0" d="M334.4,32.8c.6.5,1.4.4,1.9-.1s.4-1.3-.1-1.7c-.6-.5-1.4-.4-1.9.1s-.4,1.3.1,1.7Z"/>
          </g>
          <g class="st2">
            <polygon class="st0" points="646.1 58.3 645.9 57.8 678.7 51.5 680.4 23.5 645.8 57.6 645.3 57.2 681.1 22.1 679.2 52 646.1 58.3"/>
            <path class="st0" d="M646.7,58.2c-.5.5-1.4.5-1.9.1-.5-.5-.6-1.3-.1-1.7.5-.5,1.4-.5,1.9-.1.5.5.6,1.3.1,1.7Z"/>
            <path class="st0" d="M645.8,56.8c-.8,0-1.3.8-1,1.5.1.7.9,1,1.7,1s1.3-.8,1-1.5c-.1-.7-.9-1-1.7-1Z"/>
          </g>
          <g class="st2">
            <polygon class="st0" points="279.8 21.7 250 8.2 287.2 -7.4 281.7 20.9 281.1 20.8 286.4 -6.4 251.4 8.2 280.1 21.2 279.8 21.7"/>
            <path class="st0" d="M282.7,21c-.2.7-.8,1.2-1.6,1-.7-.2-1.3-.7-1.1-1.4s.8-1.2,1.6-1c.7.2,1.3.7,1.1,1.4Z"/>
            <path class="st0" d="M279.3,22.5c.7.4,1.5.1,1.9-.5.4-.6.1-1.3-.6-1.7s-1.5-.1-1.9.5c-.4.6-.1,1.3.6,1.7Z"/>
          </g>
          <g class="st2">
            <polygon class="st0" points="252 8 251.7 7.5 286.5 -7 282.8 -36.8 251.6 7.4 251.1 7 283.2 -38.4 287.2 -6.7 252 8"/>
            <path class="st0" d="M252.6,7.8c-.4.5-1.3.8-1.9.3-.6-.4-.9-1.1-.4-1.7.4-.5,1.3-.8,1.9-.3.6.4.9,1.1.4,1.7Z"/>
            <path class="st0" d="M251.4,6.5c-.7.2-.9,1.1-.7,1.6s1.2.9,1.8.6c.7-.2.9-1.1.7-1.6-.3-.6-1.2-.9-1.8-.6Z"/>
          </g>
          <g class="st2">
            <path class="st0" d="M282.1,21.2l-.5-.4h-.6c0,0,5.5-28.4,5.5-28.4l10.1,10.9-.2.2-14.5,17.7h0ZM287-6.3l-5.3,27.1,14.3-17.5-9-9.6Z"/>
            <path class="st0" d="M283,21.8c-.5.5-1.4.7-1.9.2-.6-.4-.8-1.2-.3-1.7s1.4-.7,1.9-.2c.6.4.8,1.2.3,1.7Z"/>
            <path class="st0" d="M280.1,20.5c-.2.7.4,1.3,1.1,1.4s1.5-.3,1.6-1-.4-1.3-1.1-1.4-1.5.3-1.6,1Z"/>
          </g>
          <g class="st2">
            <polygon class="st0" points="286.8 -4.6 282.8 -36.4 283.5 -36.4 286.8 -9.3 290.3 -33.9 284.1 -36.7 284.3 -37.3 290.9 -34.3 286.8 -4.6"/>
            <path class="st0" d="M283.6-35.9c-.7-.4-1-1-.6-1.7s1.1-.9,1.9-.5,1,1,.6,1.7-1.1.9-1.9.5Z"/>
            <path class="st0" d="M284.5-36.5c0-.7-.8-1.2-1.5-1.1s-1.3.7-1.2,1.4.8,1.2,1.5,1.1,1.3-.7,1.2-1.4Z"/>
          </g>
          <g class="st2">
            <polygon class="st0" points="286.4 -6 290.1 -32.9 290.7 -32.9 287.3 -7.8 297.9 -18.8 290.8 -32.9 291.4 -33.1 298.6 -18.7 298.5 -18.6 286.4 -6"/>
            <path class="st0" d="M289.9-32.5c-.3-.6,0-1.3.7-1.6.7-.2,1.5,0,1.8.7.3.6,0,1.3-.7,1.6-.7.2-1.5,0-1.8-.7Z"/>
            <path class="st0" d="M291.9-32.8c0-.7-.5-1.3-1.2-1.4-.7,0-1.5.4-1.5,1.1s.5,1.3,1.2,1.4c.7,0,1.5-.4,1.5-1.1Z"/>
          </g>
          <g class="st2">
            <polygon class="st0" points="295.3 2.6 286.4 -6.9 298.6 -19.6 296.8 2.2 296.2 2.1 297.8 -17.9 287.3 -6.9 295.8 2.3 295.3 2.6"/>
            <path class="st0" d="M297.8,2.2c0,.7-.7,1.2-1.5,1.1-.8,0-1.3-.6-1.3-1.3s.7-1.2,1.5-1.1c.8,0,1.3.6,1.3,1.3Z"/>
            <path class="st0" d="M294.4,3.2c.5.6,1.3.6,1.9.2.6-.4.6-1.2.2-1.7-.5-.6-1.3-.6-1.9-.2-.6.4-.6,1.2-.2,1.7Z"/>
          </g>
          <g class="st2">
            <path class="st0" d="M655.3-52.8l-.3-.3-.3-.3,14.6-16.2,4.4,2-18.4,14.6h0ZM669.4-68.8l-12.7,14.2,15.9-12.7-3.2-1.5h0Z"/>
            <path class="st0" d="M656-52.4c-.5.5-1.4.6-1.9.1-.6-.5-.7-1.2-.2-1.7s1.4-.6,1.9-.1c.6.5.7,1.2.2,1.7Z"/>
            <path class="st0" d="M654.2-54c-.6.4-.6,1.2,0,1.7s1.3.5,1.9,0c.6-.4.6-1.2,0-1.7s-1.3-.5-1.9,0Z"/>
          </g>
          <g class="st2">
            <path class="st0" d="M655.4-52.6l-.2-.3-.3-.3,18.2-14.5,6.5,2s-24.2,13.1-24.2,13.1ZM673.2-67.1l-16.4,13.1,21.3-11.6-4.9-1.5Z"/>
            <path class="st0" d="M656-51.8c-.7.3-1.5,0-1.9-.4-.4-.6-.2-1.4.5-1.7.7-.3,1.5,0,1.9.4.4.6.2,1.4-.5,1.7Z"/>
            <path class="st0" d="M654.2-54c-.6.4-.6,1.2,0,1.7s1.3.5,1.9,0c.6-.4.6-1.2,0-1.7s-1.3-.5-1.9,0Z"/>
          </g>
          <g class="st2">
            <polygon class="st0" points="673.3 -67.1 670.4 -68.4 670.7 -68.8 673 -67.8 679.3 -82 670.3 -70 669.8 -70.3 682.1 -86.7 673.3 -67.1"/>
            <path class="st0" d="M671.3-69.5c-.5.5-1.3.7-1.9.3-.6-.4-.8-1.2-.4-1.7.5-.5,1.3-.7,1.9-.3.6.4.8,1.2.4,1.7Z"/>
            <path class="st0" d="M671.2-69.7c-.7-.4-1.5-.1-1.9.5s-.1,1.3.6,1.7,1.5.1,1.9-.5.1-1.3-.6-1.7Z"/>
          </g>
          <g class="st2">
            <polygon class="st0" points="677.5 -65.8 672.4 -67.4 689.9 -75.1 680 -66.3 679.6 -66.7 686.8 -73.2 674 -67.4 677.7 -66.3 677.5 -65.8"/>
            <path class="st0" d="M680.8-65.7c-.6.4-1.4.5-1.9,0s-.6-1.3,0-1.7c.6-.4,1.4-.5,1.9,0s.6,1.3,0,1.7Z"/>
            <path class="st0" d="M677.1-64.9c.7.3,1.5,0,1.7-.8.3-.6,0-1.4-.9-1.5-.7-.3-1.5,0-1.7.8s0,1.4.9,1.5Z"/>
          </g>
          <g class="st2">
            <polygon class="st0" points="672.5 -66.8 679.9 -83.4 680.6 -83.2 673.8 -68 688 -74.3 681.3 -83.3 681.7 -83.6 688.8 -74 688.5 -73.9 672.5 -66.8"/>
            <path class="st0" d="M680.4-82.7c-.4-.6-.3-1.3.4-1.7.7-.3,1.5-.2,1.9.4s.3,1.3-.4,1.7c-.7.3-1.5.2-1.9-.4Z"/>
            <path class="st0" d="M681.5-82.8c.3-.6,0-1.4-.8-1.6s-1.5,0-1.8.7,0,1.4.8,1.6,1.5,0,1.8-.7Z"/>
          </g>
          <g class="st2">
            <path class="st0" d="M615.2-34.5l-.4-.4-.6-.2,15-48.7,13.8,21.2h-.2c0,.1-27.6,28-27.6,28ZM629.5-82.3l-14.7,47.5,27.5-27.7-12.8-19.8Z"/>
            <path class="st0" d="M615.8-34.6c-.2.6-.9,1.1-1.6.8-.7-.2-1.2-.8-1-1.5.2-.6.9-1.1,1.6-.8.7.2,1.2.8,1,1.5Z"/>
            <path class="st0" d="M614.1-35.5c-.5.5-.4,1.3.1,1.7.5.5,1.4.4,1.9-.1s.4-1.3-.1-1.7c-.5-.5-1.4-.4-1.9.1Z"/>
          </g>
          <g class="st2">
            <polygon class="st0" points="642.7 -62 629.7 -81.8 630.3 -82.2 642.7 -63.1 651.8 -77.6 630.6 -82.5 630.7 -83 652.6 -77.9 642.7 -62"/>
            <path class="st0" d="M630.4-81.5c-.7-.2-1.2-.8-1-1.5.2-.6.9-1.1,1.6-.9s1.2.8,1,1.5c-.2.6-.9,1.1-1.6.9Z"/>
            <path class="st0" d="M631.3-82.5c-.3-.6-1.3-.8-1.9-.5-.7.3-.9,1.1-.5,1.6.3.6,1.3.8,1.9.5.7-.3.9-1.1.5-1.6Z"/>
          </g>
          <g class="st2">
            <polygon class="st0" points="642.1 -62.1 651.3 -76.9 651.8 -76.6 643.3 -63 668.6 -69.3 653.2 -77 653.5 -77.4 670.2 -69.1 642.1 -62.1"/>
            <path class="st0" d="M652.8-76.1c-.6-.4-.9-1-.5-1.7.4-.6,1.3-.8,1.9-.4.6.4.9,1,.5,1.7-.4.6-1.3.8-1.9.4Z"/>
            <path class="st0" d="M652.8-76.1c.4-.6.1-1.3-.5-1.7-.6-.4-1.5-.1-1.9.4-.4.6-.1,1.3.5,1.7.6.4,1.5.1,1.9-.4Z"/>
          </g>
          <g class="st2">
            <polygon class="st0" points="653 -52.9 642.1 -62.6 642.6 -62.8 670.1 -69.7 655.2 -53 654.7 -53.3 668.5 -68.7 643.3 -62.4 653.4 -53.2 653 -52.9"/>
            <path class="st0" d="M656-52.4c-.5.5-1.4.6-1.9.1-.6-.5-.7-1.2-.2-1.7s1.4-.6,1.9-.1c.6.5.7,1.2.2,1.7Z"/>
            <path class="st0" d="M652.1-52.3c.5.5,1.4.5,1.9,0,.6-.4.5-1.2,0-1.7s-1.4-.5-1.9,0c-.6.4-.5,1.2,0,1.7Z"/>
          </g>
          <g class="st2">
            <polygon class="st0" points="442.2 17.4 441.9 17 463.5 2.7 448.7 -22 441.6 16.7 441 16.7 448.4 -23.7 464.2 2.8 442.2 17.4"/>
            <path class="st0" d="M442.6,16.9c-.2.7-.8,1.2-1.6,1-.7-.2-1.3-.7-1.1-1.4s.8-1.2,1.6-1c.7.2,1.3.7,1.1,1.4Z"/>
            <path class="st0" d="M441.3,16.2c-.6.4-.7,1.2-.3,1.7.4.6,1.4.7,1.9.3.6-.4.7-1.2.3-1.7-.4-.6-1.3-.6-1.9-.3Z"/>
          </g>
          <g class="st2">
            <polygon class="st0" points="451.1 22.8 440.4 17.9 440.8 17.7 464.7 1.8 453.2 22.2 452.7 21.9 462.9 3.6 441.6 17.8 451.3 22.3 451.1 22.8"/>
            <path class="st0" d="M454.3,22.5c-.4.6-1.1.9-1.9.5s-1-1-.6-1.7c.4-.6,1.1-.9,1.9-.5s1,1,.6,1.7Z"/>
            <path class="st0" d="M450.5,23.7c.7.4,1.5.1,1.9-.5.4-.6.1-1.3-.6-1.7s-1.5-.1-1.9.5c-.4.6-.1,1.3.6,1.7Z"/>
          </g>
          <g class="st2">
            <polygon class="st0" points="463.9 3.5 448.9 -21.7 449.5 -22 463.7 1.9 467.3 -12.4 449.6 -22.1 449.9 -22.5 468 -12.7 468 -12.5 463.9 3.5"/>
            <path class="st0" d="M449.1-21.2c-.6-.4-.9-1.1-.5-1.7.4-.6,1.3-.8,1.9-.4.6.4.9,1.1.5,1.7-.4.6-1.3.8-1.9.4Z"/>
            <path class="st0" d="M450.5-22.3c-.3-.6-1.2-.8-1.8-.5-.7.3-.9,1.1-.6,1.6s1.2.8,1.8.5c.7-.3.9-1.1.6-1.6Z"/>
          </g>
          <g class="st2">
            <polygon class="st0" points="504.4 36.9 452 23.3 452.2 23 463.7 2.2 464.1 2.5 505 36 504.6 36.4 463.9 3.1 452.9 22.9 504.6 36.4 504.4 36.9"/>
            <path class="st0" d="M505.6,35.2c.5.5.6,1.3.1,1.7-.5.5-1.4.5-1.9.1-.5-.5-.6-1.3-.1-1.7.5-.5,1.4-.5,1.9-.1Z"/>
            <path class="st0" d="M504,37.9c.7.2,1.5,0,1.7-.8.3-.6-.2-1.4-.9-1.5-.7-.2-1.5,0-1.7.8-.3.6.2,1.4.9,1.5Z"/>
          </g>
          <g class="st2">
            <polygon class="st0" points="463.3 4 467 -11.5 467.7 -11.3 464.5 1.5 478.2 -15.4 469 -12.6 468.7 -13.2 479.8 -16.5 463.3 4"/>
            <path class="st0" d="M469.3-11.8c-.7.2-1.5-.1-1.8-.8-.2-.7.1-1.3.9-1.6.7-.2,1.5.1,1.8.8s-.1,1.3-.9,1.6Z"/>
            <path class="st0" d="M468.7-11.1c.2-.7-.3-1.3-1-1.4-.7-.2-1.5.3-1.6.9-.2.7.3,1.3,1,1.4s1.5-.3,1.6-.9Z"/>
          </g>
          <g class="st2">
            <polygon class="st0" points="462.7 3.6 478 -15.1 478.6 -14.8 464.9 1.8 491.6 -12.3 480.2 -15.3 480.4 -15.8 493.1 -12.5 462.7 3.6"/>
            <path class="st0" d="M480-14.4c-.7-.2-1.2-.9-.9-1.5s.9-1.1,1.7-.8c.7.2,1.2.9.9,1.5s-.9,1.1-1.7.8Z"/>
            <path class="st0" d="M479.4-14.1c.5-.5.3-1.3-.3-1.7-.6-.4-1.5-.3-1.9.2-.5.5-.3,1.3.3,1.7.6.4,1.5.3,1.9-.2Z"/>
          </g>
          <g class="st2">
            <polygon class="st0" points="462.7 3 491.1 -12 491.4 -11.6 465 2.5 505.1 2.7 492.9 -11.3 493.4 -11.7 506.3 3.2 462.7 3"/>
            <path class="st0" d="M492.2-10.7c-.4-.6-.4-1.3.3-1.7.6-.4,1.5-.3,1.9.3s.4,1.3-.3,1.7c-.6.4-1.5.3-1.9-.3Z"/>
            <path class="st0" d="M491.9-10.8c.7-.3.8-1.1.5-1.7-.4-.6-1.3-.8-1.9-.5-.7.3-.8,1.1-.5,1.7.4.6,1.3.8,1.9.5Z"/>
          </g>
          <g class="st2">
            <polygon class="st0" points="504.6 36.4 463.1 2.5 506 2.7 506.1 35.8 505.5 35.9 505.4 3.3 464.6 3 505 36 504.6 36.4"/>
            <path class="st0" d="M505.6,35.2c.5.5.6,1.3.1,1.7-.5.5-1.4.5-1.9.1-.5-.5-.6-1.3-.1-1.7.5-.5,1.4-.5,1.9-.1Z"/>
            <path class="st0" d="M504.4,35.8c0,.7.6,1.3,1.4,1.2s1.4-.6,1.4-1.2c0-.7-.6-1.3-1.4-1.2s-1.4.6-1.4,1.2Z"/>
          </g>
          <g class="st2">
            <polygon class="st0" points="37.9 19.1 37.4 19 -3.1 13.8 -3 13.3 37.2 18.4 27.8 -28.2 -3.4 12.6 -3.9 12.2 28.2 -29.7 28.2 -29 37.9 19.1"/>
            <path class="st0" d="M-2.5,13c-.5.5-1.3.7-1.9.3s-.8-1.2-.4-1.7c.5-.5,1.3-.7,1.9-.3.6.4.8,1.2.4,1.7Z"/>
            <path class="st0" d="M-2.8,12.4c-.7,0-1.5.4-1.5,1,0,.7.4,1.3,1.2,1.4.7,0,1.5-.4,1.5-1,0-.7-.4-1.3-1.2-1.4Z"/>
          </g>
          <g class="st2">
            <polygon class="st0" points="38.3 17.9 37.8 17.6 59.9 -21.8 28.3 -28.6 37.6 17.6 36.9 17.6 27.6 -29.3 28 -29.2 60.7 -22.1 60.6 -21.8 38.3 17.9"/>
            <path class="st0" d="M38.6,17.3c0,.7-.4,1.3-1.1,1.4s-1.4-.3-1.6-1c0-.7.4-1.3,1.1-1.4s1.4.3,1.6,1Z"/>
            <path class="st0" d="M36.9,17.1c-.4.6-.1,1.3.6,1.7s1.5.1,1.9-.5.1-1.3-.6-1.7-1.5-.1-1.9.5Z"/>
          </g>
          <g class="st2">
            <path class="st0" d="M38.6,17.9l-.3-.2-.4-.2,22.4-39.9,8.2,3.8-.2.2-29.7,36.2ZM60.5-21.6L39.4,16l28.1-34.3-7-3.1h0Z"/>
            <path class="st0" d="M39.4,18.2c-.4.6-1.1.9-1.9.5s-1-1-.6-1.7,1.1-.9,1.9-.5,1,1,.6,1.7Z"/>
            <path class="st0" d="M37.2,17c-.5.5-.3,1.3.3,1.7s1.5.3,1.9-.2c.5-.5.3-1.3-.3-1.7s-1.5-.3-1.9.2Z"/>
          </g>
          <g class="st2">
            <path class="st0" d="M38.8,18.4l-.3-.4-.4-.3,29.8-36.7,15.8,12.5-44.9,24.8ZM68-18.1l-29.4,35.9L82.6-6.5l-14.7-11.6h0Z"/>
            <path class="st0" d="M39.4,18.5c-.5.5-1.4.7-1.9.2s-.8-1.2-.3-1.7,1.4-.7,1.9-.2.8,1.2.3,1.7Z"/>
            <path class="st0" d="M38,17.1c-.7.3-.8,1.2-.4,1.7s1.3.7,1.9.4c.7-.3.8-1.2.4-1.7s-1.3-.7-1.9-.4Z"/>
          </g>
          <g class="st2">
            <polygon class="st0" points="70.5 42.3 37 18.7 83.6 -7 72.3 41.8 71.8 41.6 82.8 -5.9 38 18.8 70.9 41.8 70.5 42.3"/>
            <path class="st0" d="M73.4,41.9c-.2.7-.9,1.1-1.6.9s-1.3-.8-1.1-1.4c.2-.7.9-1.1,1.6-.9s1.3.8,1.1,1.4Z"/>
            <path class="st0" d="M69.9,43c.6.5,1.4.3,1.9-.1s.3-1.3-.2-1.7c-.6-.5-1.4-.3-1.9.1-.5.5-.3,1.3.2,1.7Z"/>
          </g>
          <g class="st2">
            <polygon class="st0" points="652.2 -76.8 640.9 -107.2 641.5 -107.5 652.2 -78.8 661.2 -113.1 642.1 -108.5 642 -109 662.1 -113.9 652.2 -76.8"/>
            <path class="st0" d="M639.9-107c-.2-.7.1-1.3.9-1.6.7-.2,1.5.1,1.8.8.2.7-.1,1.3-.9,1.6-.7.2-1.5-.1-1.8-.8Z"/>
            <path class="st0" d="M641.7-110c-.7.1-1.1.9-1,1.5.2.7,1,1,1.7.9.7-.1,1.1-.9,1-1.5-.2-.7-1-1-1.7-.9Z"/>
          </g>
          <g class="st2">
            <polygon class="st0" points="651.8 -77.4 661.1 -112.4 661.7 -112.2 652.6 -78.1 680.3 -84.6 662.1 -112.2 662.7 -112.6 681.2 -84.3 651.8 -77.4"/>
            <path class="st0" d="M660.1-112.5c.2-.6.9-1.1,1.6-.9s1.2.8,1,1.5c-.2.6-.9,1.1-1.6.9s-1.2-.8-1-1.5Z"/>
            <path class="st0" d="M663.5-113c-.3-.6-1.3-.8-1.9-.5s-.8,1.1-.5,1.6c.3.6,1.3.8,1.9.5s.8-1.1.5-1.6Z"/>
          </g>
          <g class="st2">
            <polygon class="st0" points="680.7 -83.9 662.1 -112.2 662.7 -112.6 680.7 -84.9 714.2 -124.6 663 -113.4 662.9 -114 715.7 -125.4 680.7 -83.9"/>
            <path class="st0" d="M661.2-111.8c-.3-.6,0-1.4.5-1.6.7-.3,1.5,0,1.9.5.3.6,0,1.4-.5,1.6s-1.5,0-1.9-.5Z"/>
            <path class="st0" d="M662.7-114.9c-.7.1-1.2.8-1,1.5.1.7,1,1,1.7.9.7-.1,1.2-.8,1-1.5-.1-.7-1-1-1.7-.9Z"/>
          </g>
          <g class="st2">
            <polygon class="st0" points="680.1 51 679.6 50.6 697.5 33.1 681.1 23.3 679.3 50.6 678.7 50.5 680.6 22.3 698.4 33.1 680.1 51"/>
            <path class="st0" d="M680.4,50.6c0,.7-.7,1.2-1.4,1.2s-1.3-.6-1.3-1.3c0-.7.7-1.2,1.4-1.2s1.3.6,1.3,1.3Z"/>
            <path class="st0" d="M678.9,50c-.5.5-.5,1.2.1,1.7.5.5,1.4.4,1.9-.1s.5-1.2-.1-1.7c-.5-.5-1.4-.4-1.9.1Z"/>
          </g>
          <g class="st2">
            <path class="st0" d="M615.5-34.1l-.2-.4-.4-.4,28.1-28.2,4.1,14.4-31.4,14.7h-.1ZM642.6-61.9l-27.1,27.3,30.6-14.4-3.7-12.9h0Z"/>
            <path class="st0" d="M616.1-33.8c-.5.5-1.4.6-1.9.1-.5-.5-.6-1.3-.1-1.7.5-.5,1.4-.6,1.9-.1s.6,1.3.1,1.7Z"/>
            <path class="st0" d="M614.8-35.4c-.7.3-.9,1.1-.6,1.6.3.6,1.2.8,1.8.5.7-.3.9-1.1.6-1.6s-1.2-.8-1.8-.5Z"/>
          </g>
          <g class="st2">
            <polygon class="st0" points="648.8 -26.4 615.4 -33.3 615.5 -33.8 648.1 -27.1 646.3 -48.5 615.5 -34.1 615.1 -34.6 646.8 -49.3 648.8 -26.4"/>
            <path class="st0" d="M615.2-32.3c-.7-.2-1.3-.8-1-1.4.2-.7.9-1.1,1.6-.9s1.3.8,1,1.4c-.2.7-.9,1.1-1.6.9Z"/>
            <path class="st0" d="M614.8-35.4c-.7.3-.9,1.1-.6,1.6.3.6,1.2.8,1.8.5.7-.3.9-1.1.6-1.6s-1.2-.8-1.8-.5Z"/>
          </g>
          <g class="st2">
            <polygon class="st0" points="646.3 -48.5 642.7 -61.4 643.3 -61.4 646.7 -49.3 653.6 -52.4 643.4 -61.5 643.8 -61.8 654.7 -52.1 646.3 -48.5"/>
            <path class="st0" d="M642.7-60.7c-.5-.5-.6-1.3,0-1.7.6-.4,1.4-.5,1.9,0s.6,1.3,0,1.7c-.6.4-1.4.5-1.9,0Z"/>
            <path class="st0" d="M644.4-61.6c-.1-.7-1-1-1.7-.9-.7.1-1.2.8-1,1.5.1.7,1,1,1.7.9.7-.1,1.2-.8,1-1.5Z"/>
          </g>
          <g class="st2">
            <path class="st0" d="M649-27.8h-.5c0,0-.5,0-.5,0l-1.8-21.1h.2s8.2-3.7,8.2-3.7l-5.6,24.9h0ZM646.9-48.7l1.7,19.9,5.2-23-6.9,3.1h0Z"/>
            <path class="st0" d="M650.1-27.7c-.2.7-.8,1.1-1.6.9-.7-.2-1.3-.8-1.1-1.4s.8-1.1,1.6-.9c.7.2,1.3.8,1.1,1.4Z"/>
            <path class="st0" d="M647-27.9c0,.7.7,1.2,1.5,1.1s1.4-.6,1.3-1.3-.7-1.2-1.5-1.1-1.4.6-1.3,1.3Z"/>
          </g>
          <g class="st2">
            <polygon class="st0" points="190.1 -59.5 189.5 -60.1 169.4 -81.4 169.8 -81.8 189.5 -61 189.4 -103.7 169.8 -83.2 169.4 -83.6 190 -105.3 190.1 -59.5"/>
            <path class="st0" d="M168.6-80.8c-.5-.6-.4-1.3.2-1.7.6-.4,1.5-.4,1.9.2.5.6.4,1.3-.2,1.7s-1.5.4-1.9-.2Z"/>
            <path class="st0" d="M168.6-84.3c-.5.5-.4,1.3.1,1.7.6.5,1.4.4,1.9-.1s.4-1.3-.1-1.7c-.6-.5-1.4-.4-1.9.1Z"/>
          </g>
          <g class="st2">
            <polygon class="st0" points="189.4 -59.1 189.4 -103.3 189.9 -103.4 190 -61.4 212.1 -100.7 190.9 -104 191.1 -104.5 212.9 -101.2 212.8 -100.9 189.4 -59.1"/>
            <path class="st0" d="M188.4-103.2c0-.7.6-1.2,1.4-1.2.8,0,1.3.6,1.4,1.2s-.6,1.2-1.4,1.2c-.8,0-1.3-.6-1.4-1.2Z"/>
            <path class="st0" d="M191.3-105.6c-.7-.2-1.5.3-1.6,1-.2.7.4,1.3,1.1,1.4s1.5-.3,1.6-1c.2-.7-.4-1.3-1.1-1.4Z"/>
          </g>
          <g class="st2">
            <polygon class="st0" points="164.2 33.8 107.2 18.1 107.4 17.6 162.1 32.6 121.3 -4.1 107 16.6 106.5 16.3 121.2 -5 164.2 33.8"/>
            <path class="st0" d="M108,17.1c-.4.6-1.3.8-1.9.4s-.9-1.1-.4-1.7c.4-.6,1.3-.8,1.9-.4s.9,1.1.4,1.7Z"/>
            <path class="st0" d="M107.7,16.7c-.7-.2-1.5,0-1.7.8-.3.6.2,1.4.9,1.5.7.2,1.5,0,1.7-.8.3-.6-.2-1.4-.9-1.5Z"/>
          </g>
          <g class="st2">
            <polygon class="st0" points="162 32.5 120.4 -4.9 163.4 .6 163.5 32 162.9 32 162.8 1.1 122.1 -4.1 162.5 32.2 162 32.5"/>
            <path class="st0" d="M163.1,31.4c.5.5.6,1.3,0,1.7s-1.4.5-1.9,0-.6-1.3,0-1.7,1.4-.5,1.9,0Z"/>
            <path class="st0" d="M161.7,31.9c0,.7.6,1.3,1.4,1.2s1.4-.6,1.4-1.2c0-.7-.6-1.3-1.4-1.2s-1.4.6-1.4,1.2Z"/>
          </g>
          <g class="st2">
            <polygon class="st0" points="164.4 32.7 164.1 32.3 174.2 26.4 163.4 2.2 163.5 32 162.9 32 162.8 -.6 174.9 26.5 164.4 32.7"/>
            <path class="st0" d="M164.6,31.9c0,.7-.6,1.2-1.4,1.2-.8,0-1.3-.6-1.4-1.2s.6-1.2,1.4-1.2,1.3.6,1.4,1.2Z"/>
            <path class="st0" d="M163.5,31.5c-.7.3-.8,1.2-.4,1.7.4.6,1.3.7,1.9.4s.8-1.2.4-1.7-1.3-.7-1.9-.4Z"/>
          </g>
          <g class="st1">
            <polygon class="st0" points="681 -84.2 680.5 -84.6 715 -125.5 718.3 -121 717.9 -120.8 715 -124.6 684.2 -88 717.7 -119.2 718.1 -118.9 681 -84.2"/>
            <path class="st0" d="M716.8-119.9c.6-.5,1.4-.5,1.9-.1.5.5.6,1.3.1,1.7-.6.5-1.4.5-1.9.1-.5-.5-.6-1.3-.1-1.7Z"/>
            <path class="st0" d="M716.9-120.3c.4.6,1.3.7,1.9.4s.8-1.2.4-1.7-1.3-.7-1.9-.4-.8,1.2-.4,1.7Z"/>
          </g>
          <g class="st1">
            <polygon class="st0" points="680 -84.2 717.7 -119.2 718.1 -118.9 681.5 -84.7 714.8 -84.5 718.4 -118.8 719 -118.7 715.3 -83.9 680 -84.2"/>
            <path class="st0" d="M716.8-119.9c.6-.5,1.4-.5,1.9-.1.5.5.6,1.3.1,1.7-.6.5-1.4.5-1.9.1-.5-.5-.6-1.3-.1-1.7Z"/>
            <path class="st0" d="M720-118.5c0-.7-.5-1.3-1.3-1.3s-1.5.4-1.5,1.1.5,1.3,1.3,1.3,1.5-.4,1.5-1.1Z"/>
          </g>
          <g class="st2">
            <polygon class="st0" points="-8.3 -52.2 -21.5 -96.1 -20.9 -96.3 -8.1 -53.8 4.7 -80 -20.7 -96.4 -20.3 -96.8 5.5 -80.2 -8.3 -52.2"/>
            <path class="st0" d="M-22.5-95.8c-.2-.7.2-1.3,1-1.5.7-.1,1.5.2,1.7.9.2.7-.2,1.3-1,1.5-.7.1-1.5-.2-1.7-.9Z"/>
            <path class="st0" d="M-19.6-97.6c-.6-.4-1.5-.3-1.9.2s-.3,1.3.3,1.7c.6.4,1.5.3,1.9-.2.5-.5.3-1.3-.3-1.7Z"/>
          </g>
          <g class="st2">
            <polygon class="st0" points="5.8 -79.3 -20.7 -96.4 -20.3 -96.8 4.3 -80.9 -4.7 -98.7 -20.2 -97.1 -20.3 -97.7 -4.2 -99.2 5.8 -79.3"/>
            <path class="st0" d="M-20-96.2c-.8,0-1.4-.4-1.5-1.1s.4-1.3,1.2-1.4,1.4.4,1.5,1.1-.4,1.3-1.2,1.4Z"/>
            <path class="st0" d="M-19.6-97.6c-.6-.4-1.5-.3-1.9.2s-.3,1.3.3,1.7c.6.4,1.5.3,1.9-.2.5-.5.3-1.3-.3-1.7Z"/>
          </g>
          <g class="st2">
            <polygon class="st0" points="1.5 -38.4 -7.8 -51.8 -7.3 -52.2 1.1 -40.2 4.6 -78.5 -7.4 -54 -7.9 -54.1 5.6 -81.8 1.5 -38.4"/>
            <path class="st0" d="M-8.6-51.3c-.4-.6-.2-1.4.4-1.7.7-.3,1.5,0,1.9.4.4.6.2,1.4-.4,1.7-.7.3-1.5,0-1.9-.4Z"/>
            <path class="st0" d="M-9-54.6c-.3.6,0,1.3.7,1.7.7.3,1.5,0,1.9-.6.3-.6,0-1.3-.7-1.7-.7-.3-1.5,0-1.9.6Z"/>
          </g>
          <g class="st2">
            <polygon class="st0" points="5 -79.6 -4.8 -99 26.6 -113.8 26.9 -113.3 -4.1 -98.8 5.1 -80.8 26.9 -113.2 27.5 -112.9 5 -79.6"/>
            <path class="st0" d="M26-113.6c.4-.6,1.3-.8,1.9-.4.6.4.9,1.1.5,1.7s-1.3.8-1.9.4c-.6-.4-.9-1.1-.5-1.7Z"/>
            <path class="st0" d="M27.3-112.4c.7-.3.9-1.1.6-1.6s-1.2-.8-1.8-.5c-.7.3-.9,1.1-.6,1.6s1.2.8,1.8.5Z"/>
          </g>
          <g class="st2">
            <polygon class="st0" points="28.6 -28.4 2.4 -38.6 2.6 -39.1 27.4 -29.4 5.3 -79 1.7 -40.4 1.1 -40.5 4.9 -81.3 28.6 -28.4"/>
            <path class="st0" d="M2.1-37.7c-.7-.3-1.1-1-.7-1.7.3-.6,1.1-.9,1.8-.6.7.3,1.1,1,.7,1.7-.3.6-1.1.9-1.8.6Z"/>
            <path class="st0" d="M0-40.6c0,.7.5,1.3,1.3,1.3.8,0,1.5-.4,1.5-1.1s-.5-1.3-1.3-1.3c-.8,0-1.5.4-1.5,1.1Z"/>
          </g>
          <g class="st2">
            <polygon class="st0" points="4.1 -79.3 27.9 -114.4 28.1 -114.3 44.2 -102.9 43.8 -102.5 28 -113.7 6 -80.9 43.7 -101.7 44.1 -101.2 4.1 -79.3"/>
            <path class="st0" d="M43.2-102.4c.7-.3,1.5,0,1.9.4s.2,1.4-.5,1.7c-.7.3-1.5,0-1.9-.4-.4-.6-.2-1.4.5-1.7Z"/>
            <path class="st0" d="M43.1-101.8c.6.5,1.4.3,1.9-.1s.3-1.3-.2-1.7c-.6-.5-1.4-.3-1.9.1s-.3,1.3.2,1.7Z"/>
          </g>
          <g class="st2">
            <polygon class="st0" points="28.1 -28 4.7 -80.2 5 -80.4 43.7 -101.7 44.1 -101.2 5.5 -80 27.9 -29.9 44.5 -100.9 45.1 -100.8 28.1 -28"/>
            <path class="st0" d="M43.2-102.4c.7-.3,1.5,0,1.9.4s.2,1.4-.5,1.7c-.7.3-1.5,0-1.9-.4-.4-.6-.2-1.4.5-1.7Z"/>
            <path class="st0" d="M46.1-100.5c.2-.7-.3-1.3-1.1-1.4s-1.5.3-1.6.9c-.2.7.3,1.3,1.1,1.4.7.2,1.5-.3,1.6-.9Z"/>
          </g>
          <g class="st2">
            <polygon class="st0" points="682.1 23.1 682.2 22.5 684.4 22.6 690.6 -2.6 681.5 21.8 680.9 21.6 692 -7.8 692.5 -7.7 684.9 23.1 682.1 23.1"/>
            <path class="st0" d="M682.5,22c-.3.6-1,1-1.7.8s-1.2-.9-.9-1.5,1-1,1.7-.8c.7.3,1.2.9.9,1.5Z"/>
            <path class="st0" d="M682.2,21.6c-.8,0-1.4.6-1.4,1.2,0,.7.6,1.3,1.4,1.2s1.4-.6,1.4-1.2c0-.7-.6-1.3-1.4-1.2Z"/>
          </g>
          <g class="st2">
            <path class="st0" d="M696.7,32.7l-16.9-10.2h4.9c0,0,12.4,9.7,12.4,9.7l-.3.2-.2.3h0ZM681.8,23l12.1,7.3-9.4-7.3h-2.7s0,0,0,0Z"/>
            <path class="st0" d="M697.8,31.4c.5.5.7,1.3.1,1.7-.5.5-1.4.6-1.9.1s-.7-1.3-.1-1.7,1.4-.6,1.9-.1Z"/>
            <path class="st0" d="M696,33.4c.6.4,1.5.2,1.9-.3.5-.5.2-1.3-.4-1.7-.6-.4-1.5-.2-1.9.3-.5.5-.2,1.3.4,1.7Z"/>
          </g>
          <g class="st2">
            <polygon class="st0" points="684.2 23.2 692.2 -9 699.8 20 699.3 20.2 692.3 -6.5 685 22.5 698.5 21.1 698.5 21.6 684.2 23.2"/>
            <path class="st0" d="M698.3,20.1c.8,0,1.4.4,1.6,1.1,0,.7-.4,1.3-1.2,1.4s-1.4-.4-1.6-1.1c0-.7.4-1.3,1.2-1.4Z"/>
            <path class="st0" d="M698.2,20.3c.1.7.9,1,1.7.9.7-.1,1.3-.8,1-1.5-.1-.7-.9-1-1.7-.9-.7.1-1.3.8-1,1.5Z"/>
          </g>
          <g class="st2">
            <polygon class="st0" points="698.1 33.7 683.9 22.6 698.5 21.1 698.5 21.6 685.3 23 697.8 32.6 699.4 22.4 700 22.4 698.1 33.7"/>
            <path class="st0" d="M698.3,20.1c.8,0,1.4.4,1.6,1.1,0,.7-.4,1.3-1.2,1.4s-1.4-.4-1.6-1.1c0-.7.4-1.3,1.2-1.4Z"/>
            <path class="st0" d="M701,22.7c.2-.7-.4-1.3-1.2-1.4-.7-.2-1.5.4-1.5,1-.2.7.4,1.3,1.2,1.4.7.2,1.5-.4,1.5-1Z"/>
          </g>
        </g>
      </g>
      <g id="_x32_rALtc.tif">
        <image id="Layer_0" width="956" height="1782" transform="translate(-1003.5 -693.8)" xlink:href="bg-timeline-horizontal-1.png"/>
      </g>
    </g>
  </g>
</svg>