<?xml version="1.0" encoding="UTF-8"?>
<svg id="Layer_1" xmlns="http://www.w3.org/2000/svg" version="1.1" viewBox="0 0 150 150">
  <!-- Generator: Adobe Illustrator 29.1.0, SVG Export Plug-In . SVG Version: 2.1.0 Build 142)  -->
  <defs>
    <style>
      .st0 {
        stroke-width: 4px;
      }

      .st0, .st1 {
        fill: #fff;
        stroke: #fff;
      }

      .st1 {
        stroke-width: 8px;
      }
    </style>
  </defs>
  <path class="st0" d="M107.5,114.4c-1.2,0-3.1-1.2-3.1-2.5-.6-1.9.6-3.8,2.5-4.4,15-4.4,24.4-12.5,24.4-20.6s-3.8-9.4-6.9-11.9c-1.9-1.2-1.9-3.8-.6-5.6s3.1-1.9,5-.6c6.2,5,9.4,11.2,9.4,17.5,0,11.2-10.6,21.2-28.8,27.5q-1.2.6-1.9.6Z"/>
  <path class="st0" d="M81.2,110.6l-15-11.9c-1.9-1.2-3.8-1.2-5,.6s-1.2,3.8.6,5.6l8.8,6.9c-13.8-.6-26.2-3.1-36.2-8.1-9.4-4.4-15-10.6-15-16.9s5-10.6,8.8-13.1,1.9-3.8,1.2-5c-1.2-1.9-3.1-1.9-4.4-1.2-8.1,5.6-12.5,11.9-12.5,19.4s6.9,17.5,19.4,23.8c9.4,4.4,21.2,7.5,33.8,8.1l-3.1,2.5c-1.9,1.2-1.9,3.8-1.2,5.6.6,1.2,1.9,1.9,3.1,1.9s1.2-.6,1.9-.6l15-11.2c1.2-.6,1.2-1.9,1.9-3.1-.6-1.2-1.2-2.5-1.9-3.1Z"/>
  <path class="st1" d="M106.2,137.5h-59.4c-7.5,0-13.1-6.2-13.1-14.4V26.9c0-8.1,6.2-14.4,13.1-14.4h59.4c7.5,0,13.1,6.2,13.1,14.4v96.2c.6,8.1-5.6,14.4-13.1,14.4ZM46.9,19.4c-3.1,0-6.2,3.8-6.2,7.5v96.2c0,3.8,3.1,6.9,6.9,6.9h58.8c3.8,0,6.9-3.1,6.9-6.9V26.9c0-3.8-3.1-6.9-6.9-6.9h-59.4v-.6Z"/>
</svg>