<svg width="105" height="116" viewBox="0 0 105 116" fill="none" xmlns="http://www.w3.org/2000/svg">
<path d="M52.8301 115.402C45.6564 115.402 38.9148 114.029 32.6054 111.284C26.296 108.539 20.8077 104.814 16.1405 100.108C11.4733 95.4022 7.77836 89.8685 5.05581 83.5069C2.33326 77.1454 0.971985 70.3481 0.971985 63.1151C0.971985 53.1806 3.54328 44.0087 8.68588 35.5993C13.8285 27.1898 20.8077 20.7629 29.6236 16.3185C29.71 17.9743 29.8829 19.6518 30.1422 21.3511C30.4015 23.0504 30.8336 25.033 31.4386 27.2987C25.2157 31.1331 20.3107 36.2093 16.7239 42.5272C13.137 48.8452 11.3436 55.7078 11.3436 63.1151C11.3436 74.7925 15.3626 84.6834 23.4006 92.7878C31.4386 100.892 41.2485 104.944 52.8301 104.944C64.4117 104.944 74.2216 100.892 82.2596 92.7878C90.2976 84.6834 94.3166 74.7925 94.3166 63.1151C94.3166 55.7078 92.5232 48.8234 88.9363 42.4619C85.3495 36.1003 80.4013 31.0024 74.0919 27.168C74.6969 24.9023 75.1291 22.9197 75.3884 21.2204C75.6477 19.5211 75.8637 17.8871 76.0366 16.3185C84.8525 20.7629 91.8317 27.168 96.9743 35.5339C102.117 43.8998 104.688 53.0935 104.688 63.1151C104.688 70.3481 103.327 77.1454 100.604 83.5069C97.8818 89.8685 94.1869 95.4022 89.5197 100.108C84.8525 104.814 79.3642 108.539 73.0548 111.284C66.7454 114.029 60.0038 115.402 52.8301 115.402ZM52.8301 94.4871C44.1871 94.4871 36.8405 91.4371 30.7904 85.337C24.7403 79.2368 21.7152 71.8296 21.7152 63.1151C21.7152 58.0607 22.8172 53.3114 25.0212 48.867C27.2252 44.4226 30.3582 40.719 34.4205 37.7561C34.8526 39.0632 35.328 40.5665 35.8466 42.2658C36.3651 43.9651 37.0566 46.0784 37.9209 48.6056C36.0194 50.6099 34.5717 52.8321 33.5778 55.2721C32.5838 57.7122 32.0869 60.3265 32.0869 63.1151C32.0869 68.8667 34.118 73.7903 38.1802 77.8861C42.2424 81.9819 47.1257 84.0298 52.8301 84.0298C58.5345 84.0298 63.4178 81.9819 67.48 77.8861C71.5422 73.7903 73.5733 68.8667 73.5733 63.1151C73.5733 60.3265 73.0764 57.7122 72.0824 55.2721C71.0885 52.8321 69.6408 50.6099 67.7393 48.6056C68.4307 46.5141 69.0574 44.5751 69.6192 42.7887C70.181 41.0022 70.6779 39.3247 71.1101 37.7561C75.1723 40.719 78.327 44.4226 80.5742 48.867C82.8214 53.3114 83.945 58.0607 83.945 63.1151C83.945 71.8296 80.9199 79.2368 74.8698 85.337C68.8197 91.4371 61.4731 94.4871 52.8301 94.4871ZM47.6443 44.8148C44.4464 35.0546 42.3504 28.192 41.3565 24.2269C40.3625 20.2618 39.8656 16.6671 39.8656 13.4428C39.8656 9.7827 41.1188 6.68907 43.6253 4.16188C46.1318 1.63469 49.2 0.371094 52.8301 0.371094C56.4602 0.371094 59.5284 1.63469 62.0349 4.16188C64.5414 6.68907 65.7946 9.7827 65.7946 13.4428C65.7946 16.6671 65.2977 20.2618 64.3037 24.2269C63.3098 28.192 61.2138 35.0546 58.0159 44.8148H47.6443ZM52.8301 73.5725C49.9779 73.5725 47.5362 72.5485 45.5051 70.5006C43.474 68.4527 42.4585 65.9909 42.4585 63.1151C42.4585 60.2394 43.474 57.7775 45.5051 55.7296C47.5362 53.6817 49.9779 52.6578 52.8301 52.6578C55.6823 52.6578 58.1239 53.6817 60.1551 55.7296C62.1862 57.7775 63.2017 60.2394 63.2017 63.1151C63.2017 65.9909 62.1862 68.4527 60.1551 70.5006C58.1239 72.5485 55.6823 73.5725 52.8301 73.5725Z" fill="#102356"/>
</svg>
