<?xml version="1.0" encoding="UTF-8"?>
<svg id="Layer_1" xmlns="http://www.w3.org/2000/svg" version="1.1" viewBox="0 0 64 64">
  <!-- Generator: Adobe Illustrator 29.1.0, SVG Export Plug-In . SVG Version: 2.1.0 Build 142)  -->
  <defs>
    <style>
      .st0 {
        fill: #fff;
      }
    </style>
  </defs>
  <g>
    <path class="st0" d="M35.3,48c-3.2,0-6.1-2.2-7-5.4l-2.8-11.2c-1-3.8,1.4-7.7,5.2-8.7,1.9-.5,3.8-.2,5.4.8,1.6,1,2.8,2.6,3.3,4.4l2.8,11.2c1,3.8-1.4,7.7-5.2,8.7-.6,0-1.2.2-1.7.2ZM32.5,26.2c-.3,0-.6,0-.8.1-1.9.5-3,2.3-2.5,4.2l2.8,11.2c.5,1.9,2.3,3,4.2,2.5s3-2.3,2.5-4.2h0l-2.8-11.2c-.2-.9-.8-1.7-1.6-2.1-.5-.3-1.2-.5-1.8-.5Z"/>
    <path class="st0" d="M36.2,30.2l-.8-3.4c-1-3.8,1.4-7.7,5.2-8.7s7.7,1.4,8.7,5.2l.3.9-3.6,1-.3-1c-.5-1.9-2.3-3-4.2-2.5s-3,2.3-2.5,4.2l.8,3.4s-3.6.9-3.6.9Z"/>
    <path class="st0" d="M25.1,48.3c-1.2,0-2.3-.3-3.4-.9-1.5-.9-2.6-2.3-3-4l-1.9-7.4c-.9-3.5,1.3-7.1,4.8-8h0c3.5-.9,7.1,1.3,8,4.8l1.9,7.4c.4,1.7.2,3.5-.7,5-.9,1.5-2.3,2.6-4,3-.5,0-1.1.2-1.6.2h-.1ZM22.6,31.5c-1.5.4-2.4,1.9-2.1,3.4l1.9,7.4c.2.7.6,1.4,1.3,1.7.7.4,1.4.5,2.2.3.7-.2,1.4-.6,1.7-1.3.4-.7.5-1.4.3-2.2l-1.9-7.4c-.4-1.5-1.9-2.4-3.4-2.1h0v.2Z"/>
    <path class="st0" d="M60.4,28.3h-3.7V9.6c0-1.9-1.6-3.5-3.5-3.5s-3.5,1.6-3.5,3.5v16.2h-3.7V9.6c0-4,3.3-7.2,7.2-7.2s7.2,3.3,7.2,7.2v18.8h0Z"/>
    <path class="st0" d="M47,62.2h-11.8c-8.9,0-16.2-7.3-16.2-16.2v-1.8h3.7v1.8c0,6.9,5.6,12.5,12.5,12.5h11.8c6.9,0,12.5-5.6,12.5-12.5v-10c0-4.5-3.6-8.1-8.1-8.1h-4.7c-2.3,0-4.2,1.9-4.2,4.2s1.9,4.2,4.2,4.2h6v10.4h-3.7v-6.7h-2.3c-4.4,0-7.9-3.6-7.9-7.9s3.6-7.9,7.9-7.9h4.7c6.5,0,11.8,5.3,11.8,11.8v10c0,8.9-7.3,16.2-16.2,16.2Z"/>
  </g>
  <path class="st0" d="M14.1,19.3h-5.1v-6.9h2.5c.8,0,1.5-.3,2.1-.9.5-.6.8-1.3.8-2.1,0-1.5-1.3-2.7-2.8-2.7s-2.7,1-2.9,2.4v.4H3.7v-1.1c.6-4,4-6.9,8-6.8,4.1,0,7.5,3.4,7.7,7.5.1,2.2-.7,4.3-2.2,5.9-.9.9-2,1.6-3.2,2v2.3h.1Z"/>
  <rect class="st0" x="9.1" y="23.1" width="5.1" height="5.1"/>
</svg>