<?xml version="1.0" encoding="UTF-8"?>
<svg id="Layer_1" xmlns="http://www.w3.org/2000/svg" version="1.1" viewBox="0 0 64 64">
  <!-- Generator: Adobe Illustrator 29.1.0, SVG Export Plug-In . SVG Version: 2.1.0 Build 142)  -->
  <defs>
    <style>
      .st0 {
        stroke: #000;
        stroke-linecap: round;
        stroke-linejoin: round;
        stroke-width: 4px;
      }

      .st0, .st1 {
        fill: #fff;
      }
    </style>
  </defs>
  <g>
    <path class="st1" d="M13.3,63c-.3,0-.6,0-.9-.2-.9-.4-1.5-1.2-1.5-2.2v-3h-2.7c-1.8,0-3.3-1.5-3.3-3.3V21.8c0-1.8,1.5-3.3,3.3-3.3h9.6c.8,0,1.5.7,1.5,1.5s-.7,1.5-1.5,1.5h-9.6c-.2,0-.3.1-.3.3v32.4c0,.2.1.3.3.3h4.1c.8,0,1.5.7,1.5,1.5v3.1l4.2-4.2c.3-.3.7-.4,1-.4h33c.8,0,1.5.7,1.5,1.5s-.7,1.5-1.5,1.5H19.7l-4.7,4.7c-.5.5-1.1.7-1.7.7h0Z"/>
    <path class="st1" d="M55.6,57.5h-3.8c-.8,0-1.5-.7-1.5-1.5s.7-1.5,1.5-1.5h3.8c.2,0,.3,0,.3-.3v-14.9c0-.8.7-1.5,1.5-1.5s1.5.7,1.5,1.5v14.9c0,1.8-1.5,3.3-3.3,3.3Z"/>
    <path class="st0" d="M41.5,35.9"/>
  </g>
  <g>
    <path class="st1" d="M41.8,50c-3.2,0-5.7-2.6-5.7-5.7v-3.6c0-1,.8-1.8,1.8-1.8h7.8c1,0,1.8.8,1.8,1.8v3.6c0,3.2-2.6,5.7-5.7,5.7ZM39.7,42.5v1.8c0,1.1.9,2.1,2.1,2.1s2.1-.9,2.1-2.1v-1.8s-4.2,0-4.2,0Z"/>
    <path class="st1" d="M45.7,42.5h-7.8c-.7,0-1.4-.4-1.7-1.1l-1.6-3.8c-.4-.9-1-1.8-1.9-2.5-3.1-2.6-4.8-6.5-4.8-10.5s1.5-7.3,4.1-9.9,6.1-4,9.7-4,0,0,.2,0c2.8,0,5.4.9,7.7,2.5.8.6,3.3,2.2,4.9,6.1,1.6,3.9-6.2-2.6-7-3.1-1.7-1.2-3.7-1.8-5.7-1.9h-.2c-2.7,0-5.3,1-7.2,2.9-2,1.9-3.1,4.5-3.1,7.3s1.3,5.8,3.6,7.8c1.2,1.1,2.2,2.4,2.9,3.9l1.1,2.7h5.4l1.1-2.7c.6-1.5,1.6-2.8,2.8-3.8,2.4-2,3.7-5,3.6-8.2,0-1.2-1.3-5.6-3.6-7.4s2.9,1.9,3.8,1.5c.9-.4,2,0,2.4,1,.6,1.5,1,3.1,1,4.7.2,4.3-1.6,8.3-4.9,11.1-.7.6-1.4,1.5-1.8,2.4l-1.6,3.8c-.3.7-.9,1.1-1.7,1.1h.3Z"/>
    <path class="st1" d="M41.8,8.1c-1,0-1.8-.8-1.8-1.8v-3.1c0-1,.8-1.8,1.8-1.8s1.8.8,1.8,1.8v3.1c0,1-.8,1.8-1.8,1.8Z"/>
    <path class="st1" d="M32.7,10.5c-.6,0-1.2-.3-1.6-.9l-1.6-2.7c-.5-.9-.2-2,.7-2.5.9-.5,2-.2,2.5.7l1.6,2.7c.5.9.2,2-.7,2.5-.3.2-.6.2-.9.2Z"/>
    <path class="st1" d="M26,17.2c-.3,0-.6,0-.9-.2l-2.7-1.6c-.9-.5-1.2-1.6-.7-2.5s1.6-1.2,2.5-.7l2.7,1.6c.9.5,1.2,1.6.7,2.5-.3.6-1,.9-1.6.9Z"/>
    <path class="st1" d="M57.7,17.2c-.6,0-1.2-.3-1.6-.9-.5-.9-.2-2,.7-2.5l2.7-1.6c.9-.5,2-.2,2.5.7s.2,2-.7,2.5l-2.7,1.6c-.3.2-.6.2-.9.2Z"/>
    <path class="st1" d="M51,10.5c-.3,0-.6,0-.9-.2-.9-.5-1.2-1.6-.7-2.5l1.6-2.7c.5-.9,1.6-1.2,2.5-.7.9.5,1.2,1.6.7,2.5l-1.6,2.7c-.3.6-1,.9-1.6.9Z"/>
  </g>
</svg>