<?xml version="1.0" encoding="UTF-8"?>
<svg id="Layer_1" xmlns="http://www.w3.org/2000/svg" xmlns:xlink="http://www.w3.org/1999/xlink" version="1.1" viewBox="0 0 64 64">
  <!-- Generator: Adobe Illustrator 29.1.0, SVG Export Plug-In . SVG Version: 2.1.0 Build 142)  -->
  <defs>
    <style>
      .st0 {
        fill: none;
      }

      .st1 {
        fill: #fff;
      }

      .st2 {
        clip-path: url(#clippath);
      }
    </style>
    <clipPath id="clippath">
      <rect class="st0" width="64" height="64"/>
    </clipPath>
  </defs>
  <g class="st2">
    <g>
      <path class="st1" d="M60.4,16.7c-1.9-2.1-4.4-3.5-7.2-4.1-.2-2.3-1.1-4.4-2.6-6.1-1.8-2-4.3-3.2-7-3.3-1.6,0-3.2.2-4.6.9-2.3-2.5-5.5-3.9-8.9-4.1-2.9-.1-5.8.7-8.2,2.5-1.8,1.3-3.2,3.1-4.1,5.2-.7,0-1.4-.2-2.1-.3C7.6,7,.7,13.3.3,21.4c-.3,5.8,2.9,11.3,8.1,13.8.4,2.7,2,5.1,4.3,6.4-.7,1.3-1.2,2.8-1.2,4.4,0,4.8,3.9,8.7,8.7,8.7s7.8-3.1,8.5-7.2h.2c3.3,0,6.3-1.5,8.4-4,1.6,1.1,3.4,1.7,5.3,1.8,2.5,0,5-.7,7-2.2,1.6-1.3,2.8-2.9,3.4-4.8,5.9-1.1,10.4-6.1,10.7-12.2.2-3.5-1-6.8-3.3-9.3h0ZM20.2,51c-2.7,0-5-2.2-5-5s2.2-5,5-5,5,2.2,5,5-2.2,5-5,5ZM60,25.9c-.2,4.7-3.9,8.5-8.6,8.9-.8,0-1.5.7-1.7,1.5-.3,1.6-1.2,3-2.5,4s-2.9,1.5-4.5,1.4c-1.7,0-3.4-.8-4.6-2.1-.4-.4-1-.6-1.6-.6s-1.1.5-1.4,1c-1.3,2.5-3.9,4-6.6,3.8h0c-1-3.7-4.4-6.4-8.4-6.4s-3.5.6-4.9,1.5c-1.9-.8-3.3-2.7-3.3-4.9s-.5-1.4-1.2-1.7c-4.3-1.7-7.1-6-6.8-10.7.3-6.1,5.4-10.7,11.5-10.5,1,0,2,.2,2.9.5.5.2,1,.1,1.5-.1.4-.2.8-.7.9-1.1.5-2,1.7-3.7,3.4-4.9,1.7-1.2,3.7-1.8,5.8-1.8,2.8,0,5.4,1.5,7,3.8.6.8,1.7,1,2.5.5,1.1-.8,2.5-1.1,3.9-1.1s3.3.8,4.5,2.1,1.8,2.9,1.7,4.6v.4c0,.5,0,1,.4,1.4.3.4.8.6,1.3.7,5.1.3,9,4.7,8.8,9.7h0Z"/>
      <path class="st1" d="M6.5,51.6c-3.4,0-6.2,2.8-6.2,6.2s2.8,6.2,6.2,6.2,6.2-2.8,6.2-6.2-2.8-6.2-6.2-6.2ZM6.5,60.3c-1.4,0-2.5-1.1-2.5-2.5s1.1-2.5,2.5-2.5,2.5,1.1,2.5,2.5-1.1,2.5-2.5,2.5Z"/>
      <circle class="st1" cx="20.5" cy="23.5" r="3.5"/>
      <circle class="st1" cx="31.5" cy="23.5" r="3.5"/>
      <circle class="st1" cx="43.5" cy="23.5" r="3.5"/>
    </g>
  </g>
</svg>