<?xml version="1.0" encoding="UTF-8"?>
<svg id="Layer_1" xmlns="http://www.w3.org/2000/svg" version="1.1" viewBox="0 0 64 64">
  <!-- Generator: Adobe Illustrator 29.1.0, SVG Export Plug-In . SVG Version: 2.1.0 Build 142)  -->
  <defs>
    <style>
      .st0 {
        isolation: isolate;
        opacity: .9;
      }

      .st1 {
        opacity: .7;
      }

      .st2 {
        opacity: .5;
      }

      .st2, .st3 {
        fill: #2959d6;
      }
    </style>
  </defs>
  <g id="_x34_1_Know_How" class="st0">
    <g>
      <g>
        <path class="st2" d="M49,51h-7.4s0-10.1,0-10.1h3.6c1.2,0,2.2-.4,3.1-1.3.7-.9,1.2-1.9,1.2-3.1,0-2.2-1.9-3.9-4.1-3.9s-3.9,1.5-4.2,3.5v.6s-7.3,0-7.3,0v-1.6c.9-5.8,5.8-10.1,11.7-9.9,6,0,10.9,5,11.2,10.9.1,3.2-1,6.3-3.2,8.6-1.3,1.3-2.9,2.3-4.7,2.9v3.4h.1Z"/>
        <rect class="st2" x="41.7" y="56.6" width="7.4" height="7.4"/>
      </g>
      <g>
        <path class="st3" d="M30,32.7h-8.3s0-11.3,0-11.3h4.1c1.3,0,2.4-.5,3.4-1.5.8-1,1.3-2.1,1.3-3.4,0-2.4-2.1-4.4-4.6-4.4s-4.4,1.6-4.7,3.9v.7s-8.2,0-8.2,0c0-.7,0-1.1,0-1.8,1-6.5,6.5-11.3,13.1-11.1,6.7,0,12.2,5.5,12.6,12.2.2,3.6-1.1,7-3.6,9.6-1.5,1.5-3.3,2.6-5.2,3.3v3.8h.2Z"/>
        <rect class="st3" x="21.8" y="38.9" width="8.3" height="8.3"/>
      </g>
      <g class="st1">
        <path class="st3" d="M57,18h-5.2s0-7,0-7h2.5c.8,0,1.5-.3,2.1-.9.5-.6.8-1.3.8-2.1,0-1.5-1.3-2.7-2.9-2.7s-2.7,1-3,2.4v.4s-5.1,0-5.1,0v-1.1C47,2.9,50.4,0,54.5,0c4.2,0,7.6,3.5,7.8,7.6.1,2.2-.7,4.4-2.2,6-.9.9-2,1.6-3.3,2v2.3h.1Z"/>
        <rect class="st3" x="51.9" y="21.9" width="5.2" height="5.2"/>
      </g>
    </g>
  </g>
</svg>