<?xml version="1.0" encoding="UTF-8"?>
<svg id="Layer_1" xmlns="http://www.w3.org/2000/svg" xmlns:xlink="http://www.w3.org/1999/xlink" version="1.1" viewBox="0 0 48 48">
  <!-- Generator: Adobe Illustrator 29.0.0, SVG Export Plug-In . SVG Version: 2.1.0 Build 186)  -->
  <defs>
    <style>
      .st0 {
        fill: none;
      }

      .st1 {
        fill: #b1eaf6;
      }

      .st2 {
        clip-path: url(#clippath);
      }
    </style>
    <clipPath id="clippath">
      <rect class="st0" width="48" height="48"/>
    </clipPath>
  </defs>
  <g class="st2">
    <g>
      <path class="st1" d="M38.1,20.1c-.6-3.7-5.2-7.6-8.8-7.7-.3,0-.5,0-.7-.3-.2,0-.3-.2-.4-.4-1.3-2.3-.6-4.2,1.5-5.7,2.4-1.8,6.3,0,8.2,1.6,4.9,4,9.8,11,9.5,17.6.8,4.4.7,9.2-.6,13.1-.8,2.5-3.3,3.8-5.8,3.9-2.5.2-7.7.9-10-.6s-2.4-4.4-2.7-6.9c-.3-2.8-1-7.9,1.3-10.1,2.3-2.1,9,.2,8.3-4.5h.2Z"/>
      <path class="st1" d="M10.5,20.1c-.6-3.7-5.2-7.6-8.8-7.7-.3,0-.5,0-.7-.3-.2,0-.3-.2-.4-.4-1.2-2.3-.6-4.1,1.5-5.6,2.4-1.8,6.3,0,8.2,1.6,4.9,4,9.8,11,9.5,17.6.8,4.4.7,9.2-.6,13.1-.8,2.5-3.3,3.8-5.8,3.9-2.5.2-7.7.9-10-.6-2.3-1.5-2.4-4.4-2.7-6.9-.3-2.8-1-7.9,1.3-10.1,2.3-2.1,9.1.2,8.3-4.5h.2Z"/>
    </g>
  </g>
</svg>