<?xml version="1.0" encoding="UTF-8"?>
<svg id="Layer_1" xmlns="http://www.w3.org/2000/svg" version="1.1" viewBox="0 0 150 150">
  <!-- Generator: Adobe Illustrator 29.1.0, SVG Export Plug-In . SVG Version: 2.1.0 Build 142)  -->
  <defs>
    <style>
      .st0 {
        fill: #fff;
      }
    </style>
  </defs>
  <path class="st0" d="M81.3,78.3l-27.4-27.4c-1.3-1.3-1.9-2.9-1.9-4.9s.6-3.6,1.9-4.9,2.9-1.9,4.9-1.9,3.6.6,4.9,1.9l32.3,32.3c.7.7,1.2,1.5,1.5,2.3s.4,1.7.4,2.6,0,1.8-.4,2.6-.8,1.6-1.5,2.3l-32.3,32.3c-1.3,1.3-2.9,1.9-4.9,1.9s-3.6-.6-4.9-1.9-1.9-2.9-1.9-4.9.6-3.6,1.9-4.9c0,0,27.4-27.4,27.4-27.4Z"/>
</svg>