<?xml version="1.0" encoding="UTF-8"?>
<svg xmlns="http://www.w3.org/2000/svg" version="1.1" viewBox="0 0 1094 73">
  <!-- Generator: Adobe Illustrator 30.0.0, SVG Export Plug-In . SVG Version: 2.1.1 Build 123)  -->
  <defs>
    <style>
      .st0 {
        mix-blend-mode: multiply;
      }

      .st0, .st1 {
        opacity: .6;
      }

      .st2 {
        isolation: isolate;
      }

      .st3 {
        fill: #7753d5;
      }

      .st4 {
        opacity: .9;
      }

      .st5 {
        opacity: .8;
      }

      .st6 {
        opacity: .7;
      }

      .st7 {
        opacity: .4;
      }

      .st8 {
        opacity: .5;
      }

      .st9 {
        opacity: .2;
      }

      .st10 {
        opacity: .3;
      }

      .st11 {
        opacity: .1;
      }

      .st12 {
        opacity: 0;
      }
    </style>
  </defs>
  <g class="st2">
    <g id="Layer_1">
      <g id="Layer_11" data-name="Layer_1">
        <g class="st1">
          <g class="st9">
            <path class="st3" d="M19.2,57.6H.2v14.9h18.9v-14.9h.1Z"/>
          </g>
          <g class="st7">
            <path class="st3" d="M44.9,57.6h-18.9v14.9h18.9v-14.9Z"/>
          </g>
          <g class="st7">
            <path class="st3" d="M70.7,57.6h-18.9v14.9h18.9v-14.9Z"/>
          </g>
          <g class="st1">
            <path class="st3" d="M96.4,57.6h-18.9v14.9h18.9v-14.9Z"/>
          </g>
          <g class="st12">
            <path class="st3" d="M122.2,57.6h-18.9v14.9h18.9v-14.9Z"/>
          </g>
          <path class="st3" d="M147.9,57.6h-18.9v14.9h18.9v-14.9Z"/>
          <g class="st12">
            <path class="st3" d="M173.6,57.6h-18.9v14.9h18.9v-14.9Z"/>
          </g>
          <g class="st9">
            <path class="st3" d="M199.4,57.6h-18.9v14.9h18.9v-14.9Z"/>
          </g>
          <g class="st10">
            <path class="st3" d="M19.2,38.8H.2v14.9h18.9v-14.9h.1Z"/>
          </g>
          <path class="st3" d="M44.9,38.8h-18.9v14.9h18.9s0-14.9,0-14.9Z"/>
          <g class="st8">
            <path class="st3" d="M70.7,38.8h-18.9v14.9h18.9s0-14.9,0-14.9Z"/>
          </g>
          <g class="st6">
            <path class="st3" d="M122.2,38.8h-18.9v14.9h18.9s0-14.9,0-14.9Z"/>
          </g>
          <g class="st8">
            <path class="st3" d="M173.6,38.8h-18.9v14.9h18.9s0-14.9,0-14.9Z"/>
          </g>
          <g class="st11">
            <path class="st3" d="M199.4,38.8h-18.9v14.9h18.9s0-14.9,0-14.9Z"/>
          </g>
          <g class="st10">
            <path class="st3" d="M225.1,57.6h-18.9v14.9h18.9v-14.9Z"/>
          </g>
          <g class="st10">
            <path class="st3" d="M122.2,19.9h-18.9v14.9h18.9v-14.9Z"/>
          </g>
          <g class="st12">
            <path class="st3" d="M199.4,19.9h-18.9v14.9h18.9v-14.9Z"/>
          </g>
          <g class="st11">
            <path class="st3" d="M225.1,38.8h-18.9v14.9h18.9s0-14.9,0-14.9Z"/>
          </g>
          <g class="st9">
            <path class="st3" d="M225.1,19.9h-18.9v14.9h18.9v-14.9Z"/>
          </g>
        </g>
        <g class="st1">
          <g class="st9">
            <path class="st3" d="M460.3,60.7h-20.2v15.9h20.2s0-15.9,0-15.9Z"/>
          </g>
          <g class="st8">
            <path class="st3" d="M515.3,60.7h-20.2v15.9h20.2s0-15.9,0-15.9Z"/>
          </g>
          <g class="st4">
            <path class="st3" d="M542.8,60.7h-20.2v15.9h20.2s0-15.9,0-15.9Z"/>
          </g>
          <g class="st7">
            <path class="st3" d="M570.3,60.7h-20.2v15.9h20.2s0-15.9,0-15.9Z"/>
          </g>
          <g class="st7">
            <path class="st3" d="M597.8,60.7h-20.2v15.9h20.2s0-15.9,0-15.9Z"/>
          </g>
          <g class="st4">
            <path class="st3" d="M625.3,60.7h-20.2v15.9h20.2s0-15.9,0-15.9Z"/>
          </g>
          <path class="st3" d="M460.3,40.6h-20.2v15.9h20.2v-15.9Z"/>
          <g class="st8">
            <path class="st3" d="M487.8,40.6h-20.2v15.9h20.2v-15.9Z"/>
          </g>
          <g class="st5">
            <path class="st3" d="M515.3,40.6h-20.2v15.9h20.2v-15.9Z"/>
          </g>
          <g class="st1">
            <path class="st3" d="M542.8,40.6h-20.2v15.9h20.2v-15.9Z"/>
          </g>
          <g class="st8">
            <path class="st3" d="M570.3,40.6h-20.2v15.9h20.2v-15.9Z"/>
          </g>
          <g class="st8">
            <path class="st3" d="M515.3,20.5h-20.2v15.9h20.2v-15.9Z"/>
          </g>
          <g class="st10">
            <path class="st3" d="M542.8,20.5h-20.2v15.9h20.2v-15.9Z"/>
          </g>
        </g>
        <g class="st0">
          <g class="st4">
            <path class="st3" d="M229,58.5h-20.9v16.4h20.9v-16.4Z"/>
          </g>
          <g class="st1">
            <path class="st3" d="M257.4,58.5h-20.9v16.4h20.9v-16.4Z"/>
          </g>
          <g class="st8">
            <path class="st3" d="M285.8,58.5h-20.9v16.4h20.9v-16.4Z"/>
          </g>
          <g class="st12">
            <path class="st3" d="M314.2,58.5h-20.9v16.4h20.9v-16.4Z"/>
          </g>
          <g class="st4">
            <path class="st3" d="M342.5,58.5h-20.9v16.4h20.9v-16.4Z"/>
          </g>
          <g class="st4">
            <path class="st3" d="M370.9,58.5h-20.9v16.4h20.9v-16.4Z"/>
          </g>
          <g class="st7">
            <path class="st3" d="M399.3,58.5h-20.9v16.4h20.9v-16.4Z"/>
          </g>
          <g class="st11">
            <path class="st3" d="M427.7,58.5h-20.9v16.4h20.9v-16.4Z"/>
          </g>
          <g class="st8">
            <path class="st3" d="M229,37.8h-20.9v16.4h20.9s0-16.4,0-16.4Z"/>
          </g>
          <g class="st8">
            <path class="st3" d="M257.4,37.8h-20.9v16.4h20.9s0-16.4,0-16.4Z"/>
          </g>
          <g class="st5">
            <path class="st3" d="M285.8,37.8h-20.9v16.4h20.9s0-16.4,0-16.4Z"/>
          </g>
          <g class="st7">
            <path class="st3" d="M314.2,37.8h-20.9v16.4h20.9s0-16.4,0-16.4Z"/>
          </g>
          <g class="st7">
            <path class="st3" d="M342.5,37.8h-20.9v16.4h20.9s0-16.4,0-16.4Z"/>
          </g>
          <g class="st1">
            <path class="st3" d="M370.9,37.8h-20.9v16.4h20.9s0-16.4,0-16.4Z"/>
          </g>
          <g class="st4">
            <path class="st3" d="M427.7,37.8h-20.9v16.4h20.9s0-16.4,0-16.4Z"/>
          </g>
          <g class="st4">
            <path class="st3" d="M285.8,17h-20.9v16.4h20.9v-16.4Z"/>
          </g>
        </g>
        <g class="st1">
          <g class="st4">
            <path class="st3" d="M652.6,60.6h-18.9v14.9h18.9v-14.9Z"/>
          </g>
          <g class="st9">
            <path class="st3" d="M678.4,60.6h-18.9v14.9h18.9v-14.9Z"/>
          </g>
          <g class="st7">
            <path class="st3" d="M704.1,60.6h-18.9v14.9h18.9v-14.9Z"/>
          </g>
          <g class="st7">
            <path class="st3" d="M729.9,60.6h-18.9v14.9h18.9v-14.9Z"/>
          </g>
          <g class="st1">
            <path class="st3" d="M755.6,60.6h-18.9v14.9h18.9v-14.9Z"/>
          </g>
          <g class="st12">
            <path class="st3" d="M781.4,60.6h-18.9v14.9h18.9v-14.9Z"/>
          </g>
          <path class="st3" d="M807.1,60.6h-18.9v14.9h18.9v-14.9Z"/>
          <g class="st12">
            <path class="st3" d="M832.8,60.6h-18.9v14.9h18.9v-14.9Z"/>
          </g>
          <g class="st9">
            <path class="st3" d="M858.6,60.6h-18.9v14.9h18.9v-14.9Z"/>
          </g>
          <g class="st9">
            <path class="st3" d="M652.6,41.8h-18.9v14.9h18.9s0-14.9,0-14.9Z"/>
          </g>
          <g class="st10">
            <path class="st3" d="M678.4,41.8h-18.9v14.9h18.9s0-14.9,0-14.9Z"/>
          </g>
          <path class="st3" d="M704.1,41.8h-18.9v14.9h18.9s0-14.9,0-14.9Z"/>
          <g class="st8">
            <path class="st3" d="M729.9,41.8h-18.9v14.9h18.9s0-14.9,0-14.9Z"/>
          </g>
          <g class="st6">
            <path class="st3" d="M781.4,41.8h-18.9v14.9h18.9s0-14.9,0-14.9Z"/>
          </g>
          <g class="st8">
            <path class="st3" d="M832.8,41.8h-18.9v14.9h18.9s0-14.9,0-14.9Z"/>
          </g>
          <g class="st11">
            <path class="st3" d="M858.6,41.8h-18.9v14.9h18.9s0-14.9,0-14.9Z"/>
          </g>
          <g class="st10">
            <path class="st3" d="M884.3,60.6h-18.9v14.9h18.9v-14.9Z"/>
          </g>
          <g class="st7">
            <path class="st3" d="M652.6,22.9h-18.9v14.9h18.9v-14.9Z"/>
          </g>
          <g class="st10">
            <path class="st3" d="M781.4,22.9h-18.9v14.9h18.9v-14.9Z"/>
          </g>
          <g class="st12">
            <path class="st3" d="M858.6,22.9h-18.9v14.9h18.9v-14.9Z"/>
          </g>
          <g class="st11">
            <path class="st3" d="M884.3,41.8h-18.9v14.9h18.9s0-14.9,0-14.9Z"/>
          </g>
          <g class="st9">
            <path class="st3" d="M884.3,22.9h-18.9v14.9h18.9v-14.9Z"/>
          </g>
        </g>
        <g class="st0">
          <g class="st4">
            <path class="st3" d="M888.2,61.5h-20.9v16.4h20.9v-16.4Z"/>
          </g>
          <g class="st1">
            <path class="st3" d="M916.6,61.5h-20.9v16.4h20.9v-16.4Z"/>
          </g>
          <g class="st8">
            <path class="st3" d="M945,61.5h-20.9v16.4h20.9v-16.4Z"/>
          </g>
          <g class="st12">
            <path class="st3" d="M973.4,61.5h-20.9v16.4h20.9v-16.4Z"/>
          </g>
          <g class="st4">
            <path class="st3" d="M1001.8,61.5h-20.9v16.4h20.9v-16.4Z"/>
          </g>
          <g class="st4">
            <path class="st3" d="M1030.1,61.5h-20.9v16.4h20.9v-16.4Z"/>
          </g>
          <g class="st7">
            <path class="st3" d="M1058.5,61.5h-20.9v16.4h20.9v-16.4Z"/>
          </g>
          <g class="st11">
            <path class="st3" d="M1086.9,61.5h-20.9v16.4h20.9v-16.4Z"/>
          </g>
          <g class="st8">
            <path class="st3" d="M888.2,40.8h-20.9v16.4h20.9s0-16.4,0-16.4Z"/>
          </g>
          <g class="st8">
            <path class="st3" d="M916.6,40.8h-20.9v16.4h20.9s0-16.4,0-16.4Z"/>
          </g>
          <g class="st5">
            <path class="st3" d="M945,40.8h-20.9v16.4h20.9s0-16.4,0-16.4Z"/>
          </g>
          <g class="st7">
            <path class="st3" d="M973.4,40.8h-20.9v16.4h20.9s0-16.4,0-16.4Z"/>
          </g>
          <g class="st7">
            <path class="st3" d="M1001.8,40.8h-20.9v16.4h20.9s0-16.4,0-16.4Z"/>
          </g>
          <g class="st1">
            <path class="st3" d="M1030.1,40.8h-20.9v16.4h20.9s0-16.4,0-16.4Z"/>
          </g>
          <g class="st4">
            <path class="st3" d="M1086.9,40.8h-20.9v16.4h20.9s0-16.4,0-16.4Z"/>
          </g>
          <g class="st4">
            <path class="st3" d="M945,20h-20.9v16.4h20.9v-16.4Z"/>
          </g>
        </g>
      </g>
    </g>
  </g>
</svg>